G04 #@! TF.GenerationSoftware,KiCad,Pcbnew,(5.1.5-0)*
G04 #@! TF.CreationDate,2021-01-21T22:08:09-07:00*
G04 #@! TF.ProjectId,front_panel,66726f6e-745f-4706-916e-656c2e6b6963,rev?*
G04 #@! TF.SameCoordinates,Original*
G04 #@! TF.FileFunction,Legend,Top*
G04 #@! TF.FilePolarity,Positive*
%FSLAX46Y46*%
G04 Gerber Fmt 4.6, Leading zero omitted, Abs format (unit mm)*
G04 Created by KiCad (PCBNEW (5.1.5-0)) date 2021-01-21 22:08:09*
%MOMM*%
%LPD*%
G04 APERTURE LIST*
%ADD10C,0.150000*%
G04 APERTURE END LIST*
D10*
X132231666Y-118667380D02*
X132231666Y-119381666D01*
X132184047Y-119524523D01*
X132088809Y-119619761D01*
X131945952Y-119667380D01*
X131850714Y-119667380D01*
X132850714Y-119095952D02*
X132755476Y-119048333D01*
X132707857Y-119000714D01*
X132660238Y-118905476D01*
X132660238Y-118857857D01*
X132707857Y-118762619D01*
X132755476Y-118715000D01*
X132850714Y-118667380D01*
X133041190Y-118667380D01*
X133136428Y-118715000D01*
X133184047Y-118762619D01*
X133231666Y-118857857D01*
X133231666Y-118905476D01*
X133184047Y-119000714D01*
X133136428Y-119048333D01*
X133041190Y-119095952D01*
X132850714Y-119095952D01*
X132755476Y-119143571D01*
X132707857Y-119191190D01*
X132660238Y-119286428D01*
X132660238Y-119476904D01*
X132707857Y-119572142D01*
X132755476Y-119619761D01*
X132850714Y-119667380D01*
X133041190Y-119667380D01*
X133136428Y-119619761D01*
X133184047Y-119572142D01*
X133231666Y-119476904D01*
X133231666Y-119286428D01*
X133184047Y-119191190D01*
X133136428Y-119143571D01*
X133041190Y-119095952D01*
X122231666Y-103867380D02*
X122231666Y-104581666D01*
X122184047Y-104724523D01*
X122088809Y-104819761D01*
X121945952Y-104867380D01*
X121850714Y-104867380D01*
X122612619Y-103867380D02*
X123279285Y-103867380D01*
X122850714Y-104867380D01*
X112231666Y-118667380D02*
X112231666Y-119381666D01*
X112184047Y-119524523D01*
X112088809Y-119619761D01*
X111945952Y-119667380D01*
X111850714Y-119667380D01*
X113136428Y-118667380D02*
X112945952Y-118667380D01*
X112850714Y-118715000D01*
X112803095Y-118762619D01*
X112707857Y-118905476D01*
X112660238Y-119095952D01*
X112660238Y-119476904D01*
X112707857Y-119572142D01*
X112755476Y-119619761D01*
X112850714Y-119667380D01*
X113041190Y-119667380D01*
X113136428Y-119619761D01*
X113184047Y-119572142D01*
X113231666Y-119476904D01*
X113231666Y-119238809D01*
X113184047Y-119143571D01*
X113136428Y-119095952D01*
X113041190Y-119048333D01*
X112850714Y-119048333D01*
X112755476Y-119095952D01*
X112707857Y-119143571D01*
X112660238Y-119238809D01*
X142231666Y-103867380D02*
X142231666Y-104581666D01*
X142184047Y-104724523D01*
X142088809Y-104819761D01*
X141945952Y-104867380D01*
X141850714Y-104867380D01*
X143184047Y-103867380D02*
X142707857Y-103867380D01*
X142660238Y-104343571D01*
X142707857Y-104295952D01*
X142803095Y-104248333D01*
X143041190Y-104248333D01*
X143136428Y-104295952D01*
X143184047Y-104343571D01*
X143231666Y-104438809D01*
X143231666Y-104676904D01*
X143184047Y-104772142D01*
X143136428Y-104819761D01*
X143041190Y-104867380D01*
X142803095Y-104867380D01*
X142707857Y-104819761D01*
X142660238Y-104772142D01*
X172231666Y-118667380D02*
X172231666Y-119381666D01*
X172184047Y-119524523D01*
X172088809Y-119619761D01*
X171945952Y-119667380D01*
X171850714Y-119667380D01*
X172660238Y-118762619D02*
X172707857Y-118715000D01*
X172803095Y-118667380D01*
X173041190Y-118667380D01*
X173136428Y-118715000D01*
X173184047Y-118762619D01*
X173231666Y-118857857D01*
X173231666Y-118953095D01*
X173184047Y-119095952D01*
X172612619Y-119667380D01*
X173231666Y-119667380D01*
X152231666Y-118667380D02*
X152231666Y-119381666D01*
X152184047Y-119524523D01*
X152088809Y-119619761D01*
X151945952Y-119667380D01*
X151850714Y-119667380D01*
X153136428Y-119000714D02*
X153136428Y-119667380D01*
X152898333Y-118619761D02*
X152660238Y-119334047D01*
X153279285Y-119334047D01*
X162231666Y-103867380D02*
X162231666Y-104581666D01*
X162184047Y-104724523D01*
X162088809Y-104819761D01*
X161945952Y-104867380D01*
X161850714Y-104867380D01*
X162612619Y-103867380D02*
X163231666Y-103867380D01*
X162898333Y-104248333D01*
X163041190Y-104248333D01*
X163136428Y-104295952D01*
X163184047Y-104343571D01*
X163231666Y-104438809D01*
X163231666Y-104676904D01*
X163184047Y-104772142D01*
X163136428Y-104819761D01*
X163041190Y-104867380D01*
X162755476Y-104867380D01*
X162660238Y-104819761D01*
X162612619Y-104772142D01*
X182231666Y-103867380D02*
X182231666Y-104581666D01*
X182184047Y-104724523D01*
X182088809Y-104819761D01*
X181945952Y-104867380D01*
X181850714Y-104867380D01*
X183231666Y-104867380D02*
X182660238Y-104867380D01*
X182945952Y-104867380D02*
X182945952Y-103867380D01*
X182850714Y-104010238D01*
X182755476Y-104105476D01*
X182660238Y-104153095D01*
X194238095Y-106252380D02*
X194238095Y-105252380D01*
X194238095Y-105728571D02*
X194809523Y-105728571D01*
X194809523Y-106252380D02*
X194809523Y-105252380D01*
X195809523Y-106252380D02*
X195238095Y-106252380D01*
X195523809Y-106252380D02*
X195523809Y-105252380D01*
X195428571Y-105395238D01*
X195333333Y-105490476D01*
X195238095Y-105538095D01*
M02*
