M48
; DRILL file {KiCad (5.1.5-0)} date Thursday, January 21, 2021 at 10:08:12 PM
; FORMAT={-:-/ absolute / inch / decimal}
; #@! TF.CreationDate,2021-01-21T22:08:12-07:00
; #@! TF.GenerationSoftware,Kicad,Pcbnew,(5.1.5-0)
FMAT,2
INCH
T1C0.0197
T2C0.1260
T3C0.1378
T4C0.3543
%
G90
G05
T1
X7.5827Y-4.3307
X7.6104Y-4.2639
X7.6104Y-4.3975
X7.6772Y-4.2362
X7.6772Y-4.4252
X7.744Y-4.2639
X7.744Y-4.3975
X7.7717Y-4.3307
T2
X7.6772Y-4.3307
T3
X3.937Y-3.937
X3.937Y-4.828
X7.6823Y-3.937
X7.6823Y-4.828
T4
X5.2191Y-4.6738
X4.8254Y-4.0911
X6.7939Y-4.6738
X4.4317Y-4.6738
X5.6128Y-4.0911
X6.0065Y-4.6738
X6.4002Y-4.0911
X7.1876Y-4.0911
T0
M30
