G04 #@! TF.GenerationSoftware,KiCad,Pcbnew,(5.1.5-0)*
G04 #@! TF.CreationDate,2021-01-22T06:44:32-07:00*
G04 #@! TF.ProjectId,pmos_board,706d6f73-5f62-46f6-9172-642e6b696361,rev?*
G04 #@! TF.SameCoordinates,Original*
G04 #@! TF.FileFunction,Soldermask,Top*
G04 #@! TF.FilePolarity,Negative*
%FSLAX46Y46*%
G04 Gerber Fmt 4.6, Leading zero omitted, Abs format (unit mm)*
G04 Created by KiCad (PCBNEW (5.1.5-0)) date 2021-01-22 06:44:32*
%MOMM*%
%LPD*%
G04 APERTURE LIST*
%ADD10C,0.100000*%
G04 APERTURE END LIST*
D10*
G36*
X135289499Y-155478445D02*
G01*
X135326995Y-155489820D01*
X135361554Y-155508292D01*
X135391847Y-155533153D01*
X135416708Y-155563446D01*
X135435180Y-155598005D01*
X135446555Y-155635501D01*
X135451000Y-155680638D01*
X135451000Y-156319362D01*
X135446555Y-156364499D01*
X135435180Y-156401995D01*
X135416708Y-156436554D01*
X135391847Y-156466847D01*
X135361554Y-156491708D01*
X135326995Y-156510180D01*
X135289499Y-156521555D01*
X135244362Y-156526000D01*
X134505638Y-156526000D01*
X134460501Y-156521555D01*
X134423005Y-156510180D01*
X134388446Y-156491708D01*
X134358153Y-156466847D01*
X134333292Y-156436554D01*
X134314820Y-156401995D01*
X134303445Y-156364499D01*
X134299000Y-156319362D01*
X134299000Y-155680638D01*
X134303445Y-155635501D01*
X134314820Y-155598005D01*
X134333292Y-155563446D01*
X134358153Y-155533153D01*
X134388446Y-155508292D01*
X134423005Y-155489820D01*
X134460501Y-155478445D01*
X134505638Y-155474000D01*
X135244362Y-155474000D01*
X135289499Y-155478445D01*
G37*
G36*
X133539499Y-155478445D02*
G01*
X133576995Y-155489820D01*
X133611554Y-155508292D01*
X133641847Y-155533153D01*
X133666708Y-155563446D01*
X133685180Y-155598005D01*
X133696555Y-155635501D01*
X133701000Y-155680638D01*
X133701000Y-156319362D01*
X133696555Y-156364499D01*
X133685180Y-156401995D01*
X133666708Y-156436554D01*
X133641847Y-156466847D01*
X133611554Y-156491708D01*
X133576995Y-156510180D01*
X133539499Y-156521555D01*
X133494362Y-156526000D01*
X132755638Y-156526000D01*
X132710501Y-156521555D01*
X132673005Y-156510180D01*
X132638446Y-156491708D01*
X132608153Y-156466847D01*
X132583292Y-156436554D01*
X132564820Y-156401995D01*
X132553445Y-156364499D01*
X132549000Y-156319362D01*
X132549000Y-155680638D01*
X132553445Y-155635501D01*
X132564820Y-155598005D01*
X132583292Y-155563446D01*
X132608153Y-155533153D01*
X132638446Y-155508292D01*
X132673005Y-155489820D01*
X132710501Y-155478445D01*
X132755638Y-155474000D01*
X133494362Y-155474000D01*
X133539499Y-155478445D01*
G37*
G36*
X145251000Y-156051000D02*
G01*
X143649000Y-156051000D01*
X143649000Y-150949000D01*
X145251000Y-150949000D01*
X145251000Y-156051000D01*
G37*
G36*
X139351000Y-156051000D02*
G01*
X137749000Y-156051000D01*
X137749000Y-150949000D01*
X139351000Y-150949000D01*
X139351000Y-156051000D01*
G37*
G36*
X132051000Y-155351000D02*
G01*
X131049000Y-155351000D01*
X131049000Y-154849000D01*
X132051000Y-154849000D01*
X132051000Y-155351000D01*
G37*
G36*
X130351000Y-155351000D02*
G01*
X129349000Y-155351000D01*
X129349000Y-154849000D01*
X130351000Y-154849000D01*
X130351000Y-155351000D01*
G37*
G36*
X126759928Y-153501764D02*
G01*
X126781009Y-153508160D01*
X126800445Y-153518548D01*
X126817476Y-153532524D01*
X126831452Y-153549555D01*
X126841840Y-153568991D01*
X126848236Y-153590072D01*
X126851000Y-153618140D01*
X126851000Y-155031860D01*
X126848236Y-155059928D01*
X126841840Y-155081009D01*
X126831452Y-155100445D01*
X126817476Y-155117476D01*
X126800445Y-155131452D01*
X126781009Y-155141840D01*
X126759928Y-155148236D01*
X126731860Y-155151000D01*
X126268140Y-155151000D01*
X126240072Y-155148236D01*
X126218991Y-155141840D01*
X126199555Y-155131452D01*
X126182524Y-155117476D01*
X126168548Y-155100445D01*
X126158160Y-155081009D01*
X126151764Y-155059928D01*
X126149000Y-155031860D01*
X126149000Y-153618140D01*
X126151764Y-153590072D01*
X126158160Y-153568991D01*
X126168548Y-153549555D01*
X126182524Y-153532524D01*
X126199555Y-153518548D01*
X126218991Y-153508160D01*
X126240072Y-153501764D01*
X126268140Y-153499000D01*
X126731860Y-153499000D01*
X126759928Y-153501764D01*
G37*
G36*
X125759928Y-153501764D02*
G01*
X125781009Y-153508160D01*
X125800445Y-153518548D01*
X125817476Y-153532524D01*
X125831452Y-153549555D01*
X125841840Y-153568991D01*
X125848236Y-153590072D01*
X125851000Y-153618140D01*
X125851000Y-155031860D01*
X125848236Y-155059928D01*
X125841840Y-155081009D01*
X125831452Y-155100445D01*
X125817476Y-155117476D01*
X125800445Y-155131452D01*
X125781009Y-155141840D01*
X125759928Y-155148236D01*
X125731860Y-155151000D01*
X125268140Y-155151000D01*
X125240072Y-155148236D01*
X125218991Y-155141840D01*
X125199555Y-155131452D01*
X125182524Y-155117476D01*
X125168548Y-155100445D01*
X125158160Y-155081009D01*
X125151764Y-155059928D01*
X125149000Y-155031860D01*
X125149000Y-153618140D01*
X125151764Y-153590072D01*
X125158160Y-153568991D01*
X125168548Y-153549555D01*
X125182524Y-153532524D01*
X125199555Y-153518548D01*
X125218991Y-153508160D01*
X125240072Y-153501764D01*
X125268140Y-153499000D01*
X125731860Y-153499000D01*
X125759928Y-153501764D01*
G37*
G36*
X124759928Y-153501764D02*
G01*
X124781009Y-153508160D01*
X124800445Y-153518548D01*
X124817476Y-153532524D01*
X124831452Y-153549555D01*
X124841840Y-153568991D01*
X124848236Y-153590072D01*
X124851000Y-153618140D01*
X124851000Y-155031860D01*
X124848236Y-155059928D01*
X124841840Y-155081009D01*
X124831452Y-155100445D01*
X124817476Y-155117476D01*
X124800445Y-155131452D01*
X124781009Y-155141840D01*
X124759928Y-155148236D01*
X124731860Y-155151000D01*
X124268140Y-155151000D01*
X124240072Y-155148236D01*
X124218991Y-155141840D01*
X124199555Y-155131452D01*
X124182524Y-155117476D01*
X124168548Y-155100445D01*
X124158160Y-155081009D01*
X124151764Y-155059928D01*
X124149000Y-155031860D01*
X124149000Y-153618140D01*
X124151764Y-153590072D01*
X124158160Y-153568991D01*
X124168548Y-153549555D01*
X124182524Y-153532524D01*
X124199555Y-153518548D01*
X124218991Y-153508160D01*
X124240072Y-153501764D01*
X124268140Y-153499000D01*
X124731860Y-153499000D01*
X124759928Y-153501764D01*
G37*
G36*
X123759928Y-153501764D02*
G01*
X123781009Y-153508160D01*
X123800445Y-153518548D01*
X123817476Y-153532524D01*
X123831452Y-153549555D01*
X123841840Y-153568991D01*
X123848236Y-153590072D01*
X123851000Y-153618140D01*
X123851000Y-155031860D01*
X123848236Y-155059928D01*
X123841840Y-155081009D01*
X123831452Y-155100445D01*
X123817476Y-155117476D01*
X123800445Y-155131452D01*
X123781009Y-155141840D01*
X123759928Y-155148236D01*
X123731860Y-155151000D01*
X123268140Y-155151000D01*
X123240072Y-155148236D01*
X123218991Y-155141840D01*
X123199555Y-155131452D01*
X123182524Y-155117476D01*
X123168548Y-155100445D01*
X123158160Y-155081009D01*
X123151764Y-155059928D01*
X123149000Y-155031860D01*
X123149000Y-153618140D01*
X123151764Y-153590072D01*
X123158160Y-153568991D01*
X123168548Y-153549555D01*
X123182524Y-153532524D01*
X123199555Y-153518548D01*
X123218991Y-153508160D01*
X123240072Y-153501764D01*
X123268140Y-153499000D01*
X123731860Y-153499000D01*
X123759928Y-153501764D01*
G37*
G36*
X132051000Y-154551000D02*
G01*
X131049000Y-154551000D01*
X131049000Y-154049000D01*
X132051000Y-154049000D01*
X132051000Y-154551000D01*
G37*
G36*
X130351000Y-154551000D02*
G01*
X129349000Y-154551000D01*
X129349000Y-154049000D01*
X130351000Y-154049000D01*
X130351000Y-154551000D01*
G37*
G36*
X149151000Y-153851000D02*
G01*
X148149000Y-153851000D01*
X148149000Y-153349000D01*
X149151000Y-153349000D01*
X149151000Y-153851000D01*
G37*
G36*
X147451000Y-153851000D02*
G01*
X146449000Y-153851000D01*
X146449000Y-153349000D01*
X147451000Y-153349000D01*
X147451000Y-153851000D01*
G37*
G36*
X130351000Y-153751000D02*
G01*
X129349000Y-153751000D01*
X129349000Y-153249000D01*
X130351000Y-153249000D01*
X130351000Y-153751000D01*
G37*
G36*
X132051000Y-153751000D02*
G01*
X131049000Y-153751000D01*
X131049000Y-153249000D01*
X132051000Y-153249000D01*
X132051000Y-153751000D01*
G37*
G36*
X135251000Y-153451000D02*
G01*
X134249000Y-153451000D01*
X134249000Y-152949000D01*
X135251000Y-152949000D01*
X135251000Y-153451000D01*
G37*
G36*
X136951000Y-153451000D02*
G01*
X135949000Y-153451000D01*
X135949000Y-152949000D01*
X136951000Y-152949000D01*
X136951000Y-153451000D01*
G37*
G36*
X149151000Y-153051000D02*
G01*
X148149000Y-153051000D01*
X148149000Y-152549000D01*
X149151000Y-152549000D01*
X149151000Y-153051000D01*
G37*
G36*
X147451000Y-153051000D02*
G01*
X146449000Y-153051000D01*
X146449000Y-152549000D01*
X147451000Y-152549000D01*
X147451000Y-153051000D01*
G37*
G36*
X132051000Y-152951000D02*
G01*
X131049000Y-152951000D01*
X131049000Y-152449000D01*
X132051000Y-152449000D01*
X132051000Y-152951000D01*
G37*
G36*
X130351000Y-152951000D02*
G01*
X129349000Y-152951000D01*
X129349000Y-152449000D01*
X130351000Y-152449000D01*
X130351000Y-152951000D01*
G37*
G36*
X128291242Y-150853404D02*
G01*
X128328337Y-150864657D01*
X128362515Y-150882925D01*
X128392481Y-150907519D01*
X128417075Y-150937485D01*
X128435343Y-150971663D01*
X128446596Y-151008758D01*
X128451000Y-151053474D01*
X128451000Y-152546526D01*
X128446596Y-152591242D01*
X128435343Y-152628337D01*
X128417075Y-152662515D01*
X128392481Y-152692481D01*
X128362515Y-152717075D01*
X128328337Y-152735343D01*
X128291242Y-152746596D01*
X128246526Y-152751000D01*
X127353474Y-152751000D01*
X127308758Y-152746596D01*
X127271663Y-152735343D01*
X127237485Y-152717075D01*
X127207519Y-152692481D01*
X127182925Y-152662515D01*
X127164657Y-152628337D01*
X127153404Y-152591242D01*
X127149000Y-152546526D01*
X127149000Y-151053474D01*
X127153404Y-151008758D01*
X127164657Y-150971663D01*
X127182925Y-150937485D01*
X127207519Y-150907519D01*
X127237485Y-150882925D01*
X127271663Y-150864657D01*
X127308758Y-150853404D01*
X127353474Y-150849000D01*
X128246526Y-150849000D01*
X128291242Y-150853404D01*
G37*
G36*
X122691242Y-150853404D02*
G01*
X122728337Y-150864657D01*
X122762515Y-150882925D01*
X122792481Y-150907519D01*
X122817075Y-150937485D01*
X122835343Y-150971663D01*
X122846596Y-151008758D01*
X122851000Y-151053474D01*
X122851000Y-152546526D01*
X122846596Y-152591242D01*
X122835343Y-152628337D01*
X122817075Y-152662515D01*
X122792481Y-152692481D01*
X122762515Y-152717075D01*
X122728337Y-152735343D01*
X122691242Y-152746596D01*
X122646526Y-152751000D01*
X121753474Y-152751000D01*
X121708758Y-152746596D01*
X121671663Y-152735343D01*
X121637485Y-152717075D01*
X121607519Y-152692481D01*
X121582925Y-152662515D01*
X121564657Y-152628337D01*
X121553404Y-152591242D01*
X121549000Y-152546526D01*
X121549000Y-151053474D01*
X121553404Y-151008758D01*
X121564657Y-150971663D01*
X121582925Y-150937485D01*
X121607519Y-150907519D01*
X121637485Y-150882925D01*
X121671663Y-150864657D01*
X121708758Y-150853404D01*
X121753474Y-150849000D01*
X122646526Y-150849000D01*
X122691242Y-150853404D01*
G37*
G36*
X136951000Y-152651000D02*
G01*
X135949000Y-152651000D01*
X135949000Y-152149000D01*
X136951000Y-152149000D01*
X136951000Y-152651000D01*
G37*
G36*
X135251000Y-152651000D02*
G01*
X134249000Y-152651000D01*
X134249000Y-152149000D01*
X135251000Y-152149000D01*
X135251000Y-152651000D01*
G37*
G36*
X149151000Y-152251000D02*
G01*
X148149000Y-152251000D01*
X148149000Y-151749000D01*
X149151000Y-151749000D01*
X149151000Y-152251000D01*
G37*
G36*
X147451000Y-152251000D02*
G01*
X146449000Y-152251000D01*
X146449000Y-151749000D01*
X147451000Y-151749000D01*
X147451000Y-152251000D01*
G37*
G36*
X136951000Y-151851000D02*
G01*
X135949000Y-151851000D01*
X135949000Y-151349000D01*
X136951000Y-151349000D01*
X136951000Y-151851000D01*
G37*
G36*
X135251000Y-151851000D02*
G01*
X134249000Y-151851000D01*
X134249000Y-151349000D01*
X135251000Y-151349000D01*
X135251000Y-151851000D01*
G37*
G36*
X149151000Y-151451000D02*
G01*
X148149000Y-151451000D01*
X148149000Y-150949000D01*
X149151000Y-150949000D01*
X149151000Y-151451000D01*
G37*
G36*
X147451000Y-151451000D02*
G01*
X146449000Y-151451000D01*
X146449000Y-150949000D01*
X147451000Y-150949000D01*
X147451000Y-151451000D01*
G37*
G36*
X135251000Y-151051000D02*
G01*
X134249000Y-151051000D01*
X134249000Y-150549000D01*
X135251000Y-150549000D01*
X135251000Y-151051000D01*
G37*
G36*
X136951000Y-151051000D02*
G01*
X135949000Y-151051000D01*
X135949000Y-150549000D01*
X136951000Y-150549000D01*
X136951000Y-151051000D01*
G37*
G36*
X135021000Y-149026000D02*
G01*
X134119000Y-149026000D01*
X134119000Y-147274000D01*
X135021000Y-147274000D01*
X135021000Y-149026000D01*
G37*
G36*
X132481000Y-149026000D02*
G01*
X131579000Y-149026000D01*
X131579000Y-147274000D01*
X132481000Y-147274000D01*
X132481000Y-149026000D01*
G37*
G36*
X129764499Y-147803445D02*
G01*
X129801995Y-147814820D01*
X129836554Y-147833292D01*
X129866847Y-147858153D01*
X129891708Y-147888446D01*
X129910180Y-147923005D01*
X129921555Y-147960501D01*
X129926000Y-148005638D01*
X129926000Y-148744362D01*
X129921555Y-148789499D01*
X129910180Y-148826995D01*
X129891708Y-148861554D01*
X129866847Y-148891847D01*
X129836554Y-148916708D01*
X129801995Y-148935180D01*
X129764499Y-148946555D01*
X129719362Y-148951000D01*
X129080638Y-148951000D01*
X129035501Y-148946555D01*
X128998005Y-148935180D01*
X128963446Y-148916708D01*
X128933153Y-148891847D01*
X128908292Y-148861554D01*
X128889820Y-148826995D01*
X128878445Y-148789499D01*
X128874000Y-148744362D01*
X128874000Y-148005638D01*
X128878445Y-147960501D01*
X128889820Y-147923005D01*
X128908292Y-147888446D01*
X128933153Y-147858153D01*
X128963446Y-147833292D01*
X128998005Y-147814820D01*
X129035501Y-147803445D01*
X129080638Y-147799000D01*
X129719362Y-147799000D01*
X129764499Y-147803445D01*
G37*
G36*
X137625562Y-146978181D02*
G01*
X137660481Y-146988774D01*
X137692663Y-147005976D01*
X137720873Y-147029127D01*
X137744024Y-147057337D01*
X137761226Y-147089519D01*
X137771819Y-147124438D01*
X137776000Y-147166895D01*
X137776000Y-148633105D01*
X137771819Y-148675562D01*
X137761226Y-148710481D01*
X137744024Y-148742663D01*
X137720873Y-148770873D01*
X137692663Y-148794024D01*
X137660481Y-148811226D01*
X137625562Y-148821819D01*
X137583105Y-148826000D01*
X136441895Y-148826000D01*
X136399438Y-148821819D01*
X136364519Y-148811226D01*
X136332337Y-148794024D01*
X136304127Y-148770873D01*
X136280976Y-148742663D01*
X136263774Y-148710481D01*
X136253181Y-148675562D01*
X136249000Y-148633105D01*
X136249000Y-147166895D01*
X136253181Y-147124438D01*
X136263774Y-147089519D01*
X136280976Y-147057337D01*
X136304127Y-147029127D01*
X136332337Y-147005976D01*
X136364519Y-146988774D01*
X136399438Y-146978181D01*
X136441895Y-146974000D01*
X137583105Y-146974000D01*
X137625562Y-146978181D01*
G37*
G36*
X140600562Y-146978181D02*
G01*
X140635481Y-146988774D01*
X140667663Y-147005976D01*
X140695873Y-147029127D01*
X140719024Y-147057337D01*
X140736226Y-147089519D01*
X140746819Y-147124438D01*
X140751000Y-147166895D01*
X140751000Y-148633105D01*
X140746819Y-148675562D01*
X140736226Y-148710481D01*
X140719024Y-148742663D01*
X140695873Y-148770873D01*
X140667663Y-148794024D01*
X140635481Y-148811226D01*
X140600562Y-148821819D01*
X140558105Y-148826000D01*
X139416895Y-148826000D01*
X139374438Y-148821819D01*
X139339519Y-148811226D01*
X139307337Y-148794024D01*
X139279127Y-148770873D01*
X139255976Y-148742663D01*
X139238774Y-148710481D01*
X139228181Y-148675562D01*
X139224000Y-148633105D01*
X139224000Y-147166895D01*
X139228181Y-147124438D01*
X139238774Y-147089519D01*
X139255976Y-147057337D01*
X139279127Y-147029127D01*
X139307337Y-147005976D01*
X139339519Y-146988774D01*
X139374438Y-146978181D01*
X139416895Y-146974000D01*
X140558105Y-146974000D01*
X140600562Y-146978181D01*
G37*
G36*
X148231560Y-146379064D02*
G01*
X148383027Y-146409193D01*
X148597045Y-146497842D01*
X148597046Y-146497843D01*
X148789654Y-146626539D01*
X148953461Y-146790346D01*
X149039258Y-146918751D01*
X149082158Y-146982955D01*
X149170807Y-147196973D01*
X149216000Y-147424174D01*
X149216000Y-147655826D01*
X149170807Y-147883027D01*
X149082158Y-148097045D01*
X149082157Y-148097046D01*
X148953461Y-148289654D01*
X148789654Y-148453461D01*
X148661249Y-148539258D01*
X148597045Y-148582158D01*
X148383027Y-148670807D01*
X148231560Y-148700936D01*
X148155827Y-148716000D01*
X147924173Y-148716000D01*
X147848440Y-148700936D01*
X147696973Y-148670807D01*
X147482955Y-148582158D01*
X147418751Y-148539258D01*
X147290346Y-148453461D01*
X147126539Y-148289654D01*
X146997843Y-148097046D01*
X146997842Y-148097045D01*
X146909193Y-147883027D01*
X146864000Y-147655826D01*
X146864000Y-147424174D01*
X146909193Y-147196973D01*
X146997842Y-146982955D01*
X147040742Y-146918751D01*
X147126539Y-146790346D01*
X147290346Y-146626539D01*
X147482954Y-146497843D01*
X147482955Y-146497842D01*
X147696973Y-146409193D01*
X147848440Y-146379064D01*
X147924173Y-146364000D01*
X148155827Y-146364000D01*
X148231560Y-146379064D01*
G37*
G36*
X143151560Y-146379064D02*
G01*
X143303027Y-146409193D01*
X143517045Y-146497842D01*
X143517046Y-146497843D01*
X143709654Y-146626539D01*
X143873461Y-146790346D01*
X143959258Y-146918751D01*
X144002158Y-146982955D01*
X144090807Y-147196973D01*
X144136000Y-147424174D01*
X144136000Y-147655826D01*
X144090807Y-147883027D01*
X144002158Y-148097045D01*
X144002157Y-148097046D01*
X143873461Y-148289654D01*
X143709654Y-148453461D01*
X143581249Y-148539258D01*
X143517045Y-148582158D01*
X143303027Y-148670807D01*
X143151560Y-148700936D01*
X143075827Y-148716000D01*
X142844173Y-148716000D01*
X142768440Y-148700936D01*
X142616973Y-148670807D01*
X142402955Y-148582158D01*
X142338751Y-148539258D01*
X142210346Y-148453461D01*
X142046539Y-148289654D01*
X141917843Y-148097046D01*
X141917842Y-148097045D01*
X141829193Y-147883027D01*
X141784000Y-147655826D01*
X141784000Y-147424174D01*
X141829193Y-147196973D01*
X141917842Y-146982955D01*
X141960742Y-146918751D01*
X142046539Y-146790346D01*
X142210346Y-146626539D01*
X142402954Y-146497843D01*
X142402955Y-146497842D01*
X142616973Y-146409193D01*
X142768440Y-146379064D01*
X142844173Y-146364000D01*
X143075827Y-146364000D01*
X143151560Y-146379064D01*
G37*
G36*
X121951560Y-146379064D02*
G01*
X122103027Y-146409193D01*
X122317045Y-146497842D01*
X122317046Y-146497843D01*
X122509654Y-146626539D01*
X122673461Y-146790346D01*
X122759258Y-146918751D01*
X122802158Y-146982955D01*
X122890807Y-147196973D01*
X122936000Y-147424174D01*
X122936000Y-147655826D01*
X122890807Y-147883027D01*
X122802158Y-148097045D01*
X122802157Y-148097046D01*
X122673461Y-148289654D01*
X122509654Y-148453461D01*
X122381249Y-148539258D01*
X122317045Y-148582158D01*
X122103027Y-148670807D01*
X121951560Y-148700936D01*
X121875827Y-148716000D01*
X121644173Y-148716000D01*
X121568440Y-148700936D01*
X121416973Y-148670807D01*
X121202955Y-148582158D01*
X121138751Y-148539258D01*
X121010346Y-148453461D01*
X120846539Y-148289654D01*
X120717843Y-148097046D01*
X120717842Y-148097045D01*
X120629193Y-147883027D01*
X120584000Y-147655826D01*
X120584000Y-147424174D01*
X120629193Y-147196973D01*
X120717842Y-146982955D01*
X120760742Y-146918751D01*
X120846539Y-146790346D01*
X121010346Y-146626539D01*
X121202954Y-146497843D01*
X121202955Y-146497842D01*
X121416973Y-146409193D01*
X121568440Y-146379064D01*
X121644173Y-146364000D01*
X121875827Y-146364000D01*
X121951560Y-146379064D01*
G37*
G36*
X127031560Y-146379064D02*
G01*
X127183027Y-146409193D01*
X127397045Y-146497842D01*
X127397046Y-146497843D01*
X127589654Y-146626539D01*
X127753461Y-146790346D01*
X127839258Y-146918751D01*
X127882158Y-146982955D01*
X127970807Y-147196973D01*
X128016000Y-147424174D01*
X128016000Y-147655826D01*
X127970807Y-147883027D01*
X127882158Y-148097045D01*
X127882157Y-148097046D01*
X127753461Y-148289654D01*
X127589654Y-148453461D01*
X127461249Y-148539258D01*
X127397045Y-148582158D01*
X127183027Y-148670807D01*
X127031560Y-148700936D01*
X126955827Y-148716000D01*
X126724173Y-148716000D01*
X126648440Y-148700936D01*
X126496973Y-148670807D01*
X126282955Y-148582158D01*
X126218751Y-148539258D01*
X126090346Y-148453461D01*
X125926539Y-148289654D01*
X125797843Y-148097046D01*
X125797842Y-148097045D01*
X125709193Y-147883027D01*
X125664000Y-147655826D01*
X125664000Y-147424174D01*
X125709193Y-147196973D01*
X125797842Y-146982955D01*
X125840742Y-146918751D01*
X125926539Y-146790346D01*
X126090346Y-146626539D01*
X126282954Y-146497843D01*
X126282955Y-146497842D01*
X126496973Y-146409193D01*
X126648440Y-146379064D01*
X126724173Y-146364000D01*
X126955827Y-146364000D01*
X127031560Y-146379064D01*
G37*
G36*
X129764499Y-146053445D02*
G01*
X129801995Y-146064820D01*
X129836554Y-146083292D01*
X129866847Y-146108153D01*
X129891708Y-146138446D01*
X129910180Y-146173005D01*
X129921555Y-146210501D01*
X129926000Y-146255638D01*
X129926000Y-146994362D01*
X129921555Y-147039499D01*
X129910180Y-147076995D01*
X129891708Y-147111554D01*
X129866847Y-147141847D01*
X129836554Y-147166708D01*
X129801995Y-147185180D01*
X129764499Y-147196555D01*
X129719362Y-147201000D01*
X129080638Y-147201000D01*
X129035501Y-147196555D01*
X128998005Y-147185180D01*
X128963446Y-147166708D01*
X128933153Y-147141847D01*
X128908292Y-147111554D01*
X128889820Y-147076995D01*
X128878445Y-147039499D01*
X128874000Y-146994362D01*
X128874000Y-146255638D01*
X128878445Y-146210501D01*
X128889820Y-146173005D01*
X128908292Y-146138446D01*
X128933153Y-146108153D01*
X128963446Y-146083292D01*
X128998005Y-146064820D01*
X129035501Y-146053445D01*
X129080638Y-146049000D01*
X129719362Y-146049000D01*
X129764499Y-146053445D01*
G37*
G36*
X145675271Y-143937783D02*
G01*
X145813858Y-143965350D01*
X146009677Y-144046461D01*
X146185910Y-144164216D01*
X146335784Y-144314090D01*
X146453539Y-144490323D01*
X146534650Y-144686142D01*
X146576000Y-144894023D01*
X146576000Y-145105977D01*
X146534650Y-145313858D01*
X146453539Y-145509677D01*
X146335784Y-145685910D01*
X146185910Y-145835784D01*
X146009677Y-145953539D01*
X145813858Y-146034650D01*
X145716312Y-146054053D01*
X145605978Y-146076000D01*
X145394022Y-146076000D01*
X145283688Y-146054053D01*
X145186142Y-146034650D01*
X144990323Y-145953539D01*
X144814090Y-145835784D01*
X144664216Y-145685910D01*
X144546461Y-145509677D01*
X144465350Y-145313858D01*
X144424000Y-145105977D01*
X144424000Y-144894023D01*
X144465350Y-144686142D01*
X144546461Y-144490323D01*
X144664216Y-144314090D01*
X144814090Y-144164216D01*
X144990323Y-144046461D01*
X145186142Y-143965350D01*
X145324729Y-143937783D01*
X145394022Y-143924000D01*
X145605978Y-143924000D01*
X145675271Y-143937783D01*
G37*
G36*
X124475271Y-143937783D02*
G01*
X124613858Y-143965350D01*
X124809677Y-144046461D01*
X124985910Y-144164216D01*
X125135784Y-144314090D01*
X125253539Y-144490323D01*
X125334650Y-144686142D01*
X125376000Y-144894023D01*
X125376000Y-145105977D01*
X125334650Y-145313858D01*
X125253539Y-145509677D01*
X125135784Y-145685910D01*
X124985910Y-145835784D01*
X124809677Y-145953539D01*
X124613858Y-146034650D01*
X124516312Y-146054053D01*
X124405978Y-146076000D01*
X124194022Y-146076000D01*
X124083688Y-146054053D01*
X123986142Y-146034650D01*
X123790323Y-145953539D01*
X123614090Y-145835784D01*
X123464216Y-145685910D01*
X123346461Y-145509677D01*
X123265350Y-145313858D01*
X123224000Y-145105977D01*
X123224000Y-144894023D01*
X123265350Y-144686142D01*
X123346461Y-144490323D01*
X123464216Y-144314090D01*
X123614090Y-144164216D01*
X123790323Y-144046461D01*
X123986142Y-143965350D01*
X124124729Y-143937783D01*
X124194022Y-143924000D01*
X124405978Y-143924000D01*
X124475271Y-143937783D01*
G37*
G36*
X137438674Y-144253465D02*
G01*
X137476367Y-144264899D01*
X137511103Y-144283466D01*
X137541548Y-144308452D01*
X137566534Y-144338897D01*
X137585101Y-144373633D01*
X137596535Y-144411326D01*
X137601000Y-144456661D01*
X137601000Y-145543339D01*
X137596535Y-145588674D01*
X137585101Y-145626367D01*
X137566534Y-145661103D01*
X137541548Y-145691548D01*
X137511103Y-145716534D01*
X137476367Y-145735101D01*
X137438674Y-145746535D01*
X137393339Y-145751000D01*
X136556661Y-145751000D01*
X136511326Y-145746535D01*
X136473633Y-145735101D01*
X136438897Y-145716534D01*
X136408452Y-145691548D01*
X136383466Y-145661103D01*
X136364899Y-145626367D01*
X136353465Y-145588674D01*
X136349000Y-145543339D01*
X136349000Y-144456661D01*
X136353465Y-144411326D01*
X136364899Y-144373633D01*
X136383466Y-144338897D01*
X136408452Y-144308452D01*
X136438897Y-144283466D01*
X136473633Y-144264899D01*
X136511326Y-144253465D01*
X136556661Y-144249000D01*
X137393339Y-144249000D01*
X137438674Y-144253465D01*
G37*
G36*
X139488674Y-144253465D02*
G01*
X139526367Y-144264899D01*
X139561103Y-144283466D01*
X139591548Y-144308452D01*
X139616534Y-144338897D01*
X139635101Y-144373633D01*
X139646535Y-144411326D01*
X139651000Y-144456661D01*
X139651000Y-145543339D01*
X139646535Y-145588674D01*
X139635101Y-145626367D01*
X139616534Y-145661103D01*
X139591548Y-145691548D01*
X139561103Y-145716534D01*
X139526367Y-145735101D01*
X139488674Y-145746535D01*
X139443339Y-145751000D01*
X138606661Y-145751000D01*
X138561326Y-145746535D01*
X138523633Y-145735101D01*
X138488897Y-145716534D01*
X138458452Y-145691548D01*
X138433466Y-145661103D01*
X138414899Y-145626367D01*
X138403465Y-145588674D01*
X138399000Y-145543339D01*
X138399000Y-144456661D01*
X138403465Y-144411326D01*
X138414899Y-144373633D01*
X138433466Y-144338897D01*
X138458452Y-144308452D01*
X138488897Y-144283466D01*
X138523633Y-144264899D01*
X138561326Y-144253465D01*
X138606661Y-144249000D01*
X139443339Y-144249000D01*
X139488674Y-144253465D01*
G37*
G36*
X129964499Y-143303445D02*
G01*
X130001995Y-143314820D01*
X130036554Y-143333292D01*
X130066847Y-143358153D01*
X130091708Y-143388446D01*
X130110180Y-143423005D01*
X130121555Y-143460501D01*
X130126000Y-143505638D01*
X130126000Y-144244362D01*
X130121555Y-144289499D01*
X130110180Y-144326995D01*
X130091708Y-144361554D01*
X130066847Y-144391847D01*
X130036554Y-144416708D01*
X130001995Y-144435180D01*
X129964499Y-144446555D01*
X129919362Y-144451000D01*
X129280638Y-144451000D01*
X129235501Y-144446555D01*
X129198005Y-144435180D01*
X129163446Y-144416708D01*
X129133153Y-144391847D01*
X129108292Y-144361554D01*
X129089820Y-144326995D01*
X129078445Y-144289499D01*
X129074000Y-144244362D01*
X129074000Y-143505638D01*
X129078445Y-143460501D01*
X129089820Y-143423005D01*
X129108292Y-143388446D01*
X129133153Y-143358153D01*
X129163446Y-143333292D01*
X129198005Y-143314820D01*
X129235501Y-143303445D01*
X129280638Y-143299000D01*
X129919362Y-143299000D01*
X129964499Y-143303445D01*
G37*
G36*
X148231560Y-141299064D02*
G01*
X148383027Y-141329193D01*
X148597045Y-141417842D01*
X148597046Y-141417843D01*
X148789654Y-141546539D01*
X148953461Y-141710346D01*
X148983724Y-141755638D01*
X149082158Y-141902955D01*
X149170807Y-142116973D01*
X149170807Y-142116975D01*
X149216000Y-142344173D01*
X149216000Y-142575827D01*
X149214351Y-142584115D01*
X149170807Y-142803027D01*
X149082158Y-143017045D01*
X149082157Y-143017046D01*
X148953461Y-143209654D01*
X148789654Y-143373461D01*
X148661249Y-143459258D01*
X148597045Y-143502158D01*
X148383027Y-143590807D01*
X148231560Y-143620936D01*
X148155827Y-143636000D01*
X147924173Y-143636000D01*
X147848440Y-143620936D01*
X147696973Y-143590807D01*
X147482955Y-143502158D01*
X147418751Y-143459258D01*
X147290346Y-143373461D01*
X147126539Y-143209654D01*
X146997843Y-143017046D01*
X146997842Y-143017045D01*
X146909193Y-142803027D01*
X146865649Y-142584115D01*
X146864000Y-142575827D01*
X146864000Y-142344173D01*
X146909193Y-142116975D01*
X146909193Y-142116973D01*
X146997842Y-141902955D01*
X147096276Y-141755638D01*
X147126539Y-141710346D01*
X147290346Y-141546539D01*
X147482954Y-141417843D01*
X147482955Y-141417842D01*
X147696973Y-141329193D01*
X147848440Y-141299064D01*
X147924173Y-141284000D01*
X148155827Y-141284000D01*
X148231560Y-141299064D01*
G37*
G36*
X143151560Y-141299064D02*
G01*
X143303027Y-141329193D01*
X143517045Y-141417842D01*
X143517046Y-141417843D01*
X143709654Y-141546539D01*
X143873461Y-141710346D01*
X143903724Y-141755638D01*
X144002158Y-141902955D01*
X144090807Y-142116973D01*
X144090807Y-142116975D01*
X144136000Y-142344173D01*
X144136000Y-142575827D01*
X144134351Y-142584115D01*
X144090807Y-142803027D01*
X144002158Y-143017045D01*
X144002157Y-143017046D01*
X143873461Y-143209654D01*
X143709654Y-143373461D01*
X143581249Y-143459258D01*
X143517045Y-143502158D01*
X143303027Y-143590807D01*
X143151560Y-143620936D01*
X143075827Y-143636000D01*
X142844173Y-143636000D01*
X142768440Y-143620936D01*
X142616973Y-143590807D01*
X142402955Y-143502158D01*
X142338751Y-143459258D01*
X142210346Y-143373461D01*
X142046539Y-143209654D01*
X141917843Y-143017046D01*
X141917842Y-143017045D01*
X141829193Y-142803027D01*
X141785649Y-142584115D01*
X141784000Y-142575827D01*
X141784000Y-142344173D01*
X141829193Y-142116975D01*
X141829193Y-142116973D01*
X141917842Y-141902955D01*
X142016276Y-141755638D01*
X142046539Y-141710346D01*
X142210346Y-141546539D01*
X142402954Y-141417843D01*
X142402955Y-141417842D01*
X142616973Y-141329193D01*
X142768440Y-141299064D01*
X142844173Y-141284000D01*
X143075827Y-141284000D01*
X143151560Y-141299064D01*
G37*
G36*
X121951560Y-141299064D02*
G01*
X122103027Y-141329193D01*
X122317045Y-141417842D01*
X122317046Y-141417843D01*
X122509654Y-141546539D01*
X122673461Y-141710346D01*
X122703724Y-141755638D01*
X122802158Y-141902955D01*
X122890807Y-142116973D01*
X122890807Y-142116975D01*
X122936000Y-142344173D01*
X122936000Y-142575827D01*
X122934351Y-142584115D01*
X122890807Y-142803027D01*
X122802158Y-143017045D01*
X122802157Y-143017046D01*
X122673461Y-143209654D01*
X122509654Y-143373461D01*
X122381249Y-143459258D01*
X122317045Y-143502158D01*
X122103027Y-143590807D01*
X121951560Y-143620936D01*
X121875827Y-143636000D01*
X121644173Y-143636000D01*
X121568440Y-143620936D01*
X121416973Y-143590807D01*
X121202955Y-143502158D01*
X121138751Y-143459258D01*
X121010346Y-143373461D01*
X120846539Y-143209654D01*
X120717843Y-143017046D01*
X120717842Y-143017045D01*
X120629193Y-142803027D01*
X120585649Y-142584115D01*
X120584000Y-142575827D01*
X120584000Y-142344173D01*
X120629193Y-142116975D01*
X120629193Y-142116973D01*
X120717842Y-141902955D01*
X120816276Y-141755638D01*
X120846539Y-141710346D01*
X121010346Y-141546539D01*
X121202954Y-141417843D01*
X121202955Y-141417842D01*
X121416973Y-141329193D01*
X121568440Y-141299064D01*
X121644173Y-141284000D01*
X121875827Y-141284000D01*
X121951560Y-141299064D01*
G37*
G36*
X127031560Y-141299064D02*
G01*
X127183027Y-141329193D01*
X127397045Y-141417842D01*
X127397046Y-141417843D01*
X127589654Y-141546539D01*
X127753461Y-141710346D01*
X127783724Y-141755638D01*
X127882158Y-141902955D01*
X127970807Y-142116973D01*
X127970807Y-142116975D01*
X128016000Y-142344173D01*
X128016000Y-142575827D01*
X128014351Y-142584115D01*
X127970807Y-142803027D01*
X127882158Y-143017045D01*
X127882157Y-143017046D01*
X127753461Y-143209654D01*
X127589654Y-143373461D01*
X127461249Y-143459258D01*
X127397045Y-143502158D01*
X127183027Y-143590807D01*
X127031560Y-143620936D01*
X126955827Y-143636000D01*
X126724173Y-143636000D01*
X126648440Y-143620936D01*
X126496973Y-143590807D01*
X126282955Y-143502158D01*
X126218751Y-143459258D01*
X126090346Y-143373461D01*
X125926539Y-143209654D01*
X125797843Y-143017046D01*
X125797842Y-143017045D01*
X125709193Y-142803027D01*
X125665649Y-142584115D01*
X125664000Y-142575827D01*
X125664000Y-142344173D01*
X125709193Y-142116975D01*
X125709193Y-142116973D01*
X125797842Y-141902955D01*
X125896276Y-141755638D01*
X125926539Y-141710346D01*
X126090346Y-141546539D01*
X126282954Y-141417843D01*
X126282955Y-141417842D01*
X126496973Y-141329193D01*
X126648440Y-141299064D01*
X126724173Y-141284000D01*
X126955827Y-141284000D01*
X127031560Y-141299064D01*
G37*
G36*
X140600562Y-140978181D02*
G01*
X140635481Y-140988774D01*
X140667663Y-141005976D01*
X140695873Y-141029127D01*
X140719024Y-141057337D01*
X140736226Y-141089519D01*
X140746819Y-141124438D01*
X140751000Y-141166895D01*
X140751000Y-142633105D01*
X140746819Y-142675562D01*
X140736226Y-142710481D01*
X140719024Y-142742663D01*
X140695873Y-142770873D01*
X140667663Y-142794024D01*
X140635481Y-142811226D01*
X140600562Y-142821819D01*
X140558105Y-142826000D01*
X139416895Y-142826000D01*
X139374438Y-142821819D01*
X139339519Y-142811226D01*
X139307337Y-142794024D01*
X139279127Y-142770873D01*
X139255976Y-142742663D01*
X139238774Y-142710481D01*
X139228181Y-142675562D01*
X139224000Y-142633105D01*
X139224000Y-141166895D01*
X139228181Y-141124438D01*
X139238774Y-141089519D01*
X139255976Y-141057337D01*
X139279127Y-141029127D01*
X139307337Y-141005976D01*
X139339519Y-140988774D01*
X139374438Y-140978181D01*
X139416895Y-140974000D01*
X140558105Y-140974000D01*
X140600562Y-140978181D01*
G37*
G36*
X137625562Y-140978181D02*
G01*
X137660481Y-140988774D01*
X137692663Y-141005976D01*
X137720873Y-141029127D01*
X137744024Y-141057337D01*
X137761226Y-141089519D01*
X137771819Y-141124438D01*
X137776000Y-141166895D01*
X137776000Y-142633105D01*
X137771819Y-142675562D01*
X137761226Y-142710481D01*
X137744024Y-142742663D01*
X137720873Y-142770873D01*
X137692663Y-142794024D01*
X137660481Y-142811226D01*
X137625562Y-142821819D01*
X137583105Y-142826000D01*
X136441895Y-142826000D01*
X136399438Y-142821819D01*
X136364519Y-142811226D01*
X136332337Y-142794024D01*
X136304127Y-142770873D01*
X136280976Y-142742663D01*
X136263774Y-142710481D01*
X136253181Y-142675562D01*
X136249000Y-142633105D01*
X136249000Y-141166895D01*
X136253181Y-141124438D01*
X136263774Y-141089519D01*
X136280976Y-141057337D01*
X136304127Y-141029127D01*
X136332337Y-141005976D01*
X136364519Y-140988774D01*
X136399438Y-140978181D01*
X136441895Y-140974000D01*
X137583105Y-140974000D01*
X137625562Y-140978181D01*
G37*
G36*
X132481000Y-142726000D02*
G01*
X131579000Y-142726000D01*
X131579000Y-140974000D01*
X132481000Y-140974000D01*
X132481000Y-142726000D01*
G37*
G36*
X135021000Y-142726000D02*
G01*
X134119000Y-142726000D01*
X134119000Y-140974000D01*
X135021000Y-140974000D01*
X135021000Y-142726000D01*
G37*
G36*
X129964499Y-141553445D02*
G01*
X130001995Y-141564820D01*
X130036554Y-141583292D01*
X130066847Y-141608153D01*
X130091708Y-141638446D01*
X130110180Y-141673005D01*
X130121555Y-141710501D01*
X130126000Y-141755638D01*
X130126000Y-142494362D01*
X130121555Y-142539499D01*
X130110180Y-142576995D01*
X130091708Y-142611554D01*
X130066847Y-142641847D01*
X130036554Y-142666708D01*
X130001995Y-142685180D01*
X129964499Y-142696555D01*
X129919362Y-142701000D01*
X129280638Y-142701000D01*
X129235501Y-142696555D01*
X129198005Y-142685180D01*
X129163446Y-142666708D01*
X129133153Y-142641847D01*
X129108292Y-142611554D01*
X129089820Y-142576995D01*
X129078445Y-142539499D01*
X129074000Y-142494362D01*
X129074000Y-141755638D01*
X129078445Y-141710501D01*
X129089820Y-141673005D01*
X129108292Y-141638446D01*
X129133153Y-141608153D01*
X129163446Y-141583292D01*
X129198005Y-141564820D01*
X129235501Y-141553445D01*
X129280638Y-141549000D01*
X129919362Y-141549000D01*
X129964499Y-141553445D01*
G37*
G36*
X135021000Y-139026000D02*
G01*
X134119000Y-139026000D01*
X134119000Y-137274000D01*
X135021000Y-137274000D01*
X135021000Y-139026000D01*
G37*
G36*
X132481000Y-139026000D02*
G01*
X131579000Y-139026000D01*
X131579000Y-137274000D01*
X132481000Y-137274000D01*
X132481000Y-139026000D01*
G37*
G36*
X129764499Y-137803445D02*
G01*
X129801995Y-137814820D01*
X129836554Y-137833292D01*
X129866847Y-137858153D01*
X129891708Y-137888446D01*
X129910180Y-137923005D01*
X129921555Y-137960501D01*
X129926000Y-138005638D01*
X129926000Y-138744362D01*
X129921555Y-138789499D01*
X129910180Y-138826995D01*
X129891708Y-138861554D01*
X129866847Y-138891847D01*
X129836554Y-138916708D01*
X129801995Y-138935180D01*
X129764499Y-138946555D01*
X129719362Y-138951000D01*
X129080638Y-138951000D01*
X129035501Y-138946555D01*
X128998005Y-138935180D01*
X128963446Y-138916708D01*
X128933153Y-138891847D01*
X128908292Y-138861554D01*
X128889820Y-138826995D01*
X128878445Y-138789499D01*
X128874000Y-138744362D01*
X128874000Y-138005638D01*
X128878445Y-137960501D01*
X128889820Y-137923005D01*
X128908292Y-137888446D01*
X128933153Y-137858153D01*
X128963446Y-137833292D01*
X128998005Y-137814820D01*
X129035501Y-137803445D01*
X129080638Y-137799000D01*
X129719362Y-137799000D01*
X129764499Y-137803445D01*
G37*
G36*
X137625562Y-136978181D02*
G01*
X137660481Y-136988774D01*
X137692663Y-137005976D01*
X137720873Y-137029127D01*
X137744024Y-137057337D01*
X137761226Y-137089519D01*
X137771819Y-137124438D01*
X137776000Y-137166895D01*
X137776000Y-138633105D01*
X137771819Y-138675562D01*
X137761226Y-138710481D01*
X137744024Y-138742663D01*
X137720873Y-138770873D01*
X137692663Y-138794024D01*
X137660481Y-138811226D01*
X137625562Y-138821819D01*
X137583105Y-138826000D01*
X136441895Y-138826000D01*
X136399438Y-138821819D01*
X136364519Y-138811226D01*
X136332337Y-138794024D01*
X136304127Y-138770873D01*
X136280976Y-138742663D01*
X136263774Y-138710481D01*
X136253181Y-138675562D01*
X136249000Y-138633105D01*
X136249000Y-137166895D01*
X136253181Y-137124438D01*
X136263774Y-137089519D01*
X136280976Y-137057337D01*
X136304127Y-137029127D01*
X136332337Y-137005976D01*
X136364519Y-136988774D01*
X136399438Y-136978181D01*
X136441895Y-136974000D01*
X137583105Y-136974000D01*
X137625562Y-136978181D01*
G37*
G36*
X140600562Y-136978181D02*
G01*
X140635481Y-136988774D01*
X140667663Y-137005976D01*
X140695873Y-137029127D01*
X140719024Y-137057337D01*
X140736226Y-137089519D01*
X140746819Y-137124438D01*
X140751000Y-137166895D01*
X140751000Y-138633105D01*
X140746819Y-138675562D01*
X140736226Y-138710481D01*
X140719024Y-138742663D01*
X140695873Y-138770873D01*
X140667663Y-138794024D01*
X140635481Y-138811226D01*
X140600562Y-138821819D01*
X140558105Y-138826000D01*
X139416895Y-138826000D01*
X139374438Y-138821819D01*
X139339519Y-138811226D01*
X139307337Y-138794024D01*
X139279127Y-138770873D01*
X139255976Y-138742663D01*
X139238774Y-138710481D01*
X139228181Y-138675562D01*
X139224000Y-138633105D01*
X139224000Y-137166895D01*
X139228181Y-137124438D01*
X139238774Y-137089519D01*
X139255976Y-137057337D01*
X139279127Y-137029127D01*
X139307337Y-137005976D01*
X139339519Y-136988774D01*
X139374438Y-136978181D01*
X139416895Y-136974000D01*
X140558105Y-136974000D01*
X140600562Y-136978181D01*
G37*
G36*
X143151560Y-136379064D02*
G01*
X143303027Y-136409193D01*
X143517045Y-136497842D01*
X143517046Y-136497843D01*
X143709654Y-136626539D01*
X143873461Y-136790346D01*
X143959258Y-136918751D01*
X144002158Y-136982955D01*
X144090807Y-137196973D01*
X144136000Y-137424174D01*
X144136000Y-137655826D01*
X144090807Y-137883027D01*
X144002158Y-138097045D01*
X144002157Y-138097046D01*
X143873461Y-138289654D01*
X143709654Y-138453461D01*
X143581249Y-138539258D01*
X143517045Y-138582158D01*
X143303027Y-138670807D01*
X143151560Y-138700936D01*
X143075827Y-138716000D01*
X142844173Y-138716000D01*
X142768440Y-138700936D01*
X142616973Y-138670807D01*
X142402955Y-138582158D01*
X142338751Y-138539258D01*
X142210346Y-138453461D01*
X142046539Y-138289654D01*
X141917843Y-138097046D01*
X141917842Y-138097045D01*
X141829193Y-137883027D01*
X141784000Y-137655826D01*
X141784000Y-137424174D01*
X141829193Y-137196973D01*
X141917842Y-136982955D01*
X141960742Y-136918751D01*
X142046539Y-136790346D01*
X142210346Y-136626539D01*
X142402954Y-136497843D01*
X142402955Y-136497842D01*
X142616973Y-136409193D01*
X142768440Y-136379064D01*
X142844173Y-136364000D01*
X143075827Y-136364000D01*
X143151560Y-136379064D01*
G37*
G36*
X148231560Y-136379064D02*
G01*
X148383027Y-136409193D01*
X148597045Y-136497842D01*
X148597046Y-136497843D01*
X148789654Y-136626539D01*
X148953461Y-136790346D01*
X149039258Y-136918751D01*
X149082158Y-136982955D01*
X149170807Y-137196973D01*
X149216000Y-137424174D01*
X149216000Y-137655826D01*
X149170807Y-137883027D01*
X149082158Y-138097045D01*
X149082157Y-138097046D01*
X148953461Y-138289654D01*
X148789654Y-138453461D01*
X148661249Y-138539258D01*
X148597045Y-138582158D01*
X148383027Y-138670807D01*
X148231560Y-138700936D01*
X148155827Y-138716000D01*
X147924173Y-138716000D01*
X147848440Y-138700936D01*
X147696973Y-138670807D01*
X147482955Y-138582158D01*
X147418751Y-138539258D01*
X147290346Y-138453461D01*
X147126539Y-138289654D01*
X146997843Y-138097046D01*
X146997842Y-138097045D01*
X146909193Y-137883027D01*
X146864000Y-137655826D01*
X146864000Y-137424174D01*
X146909193Y-137196973D01*
X146997842Y-136982955D01*
X147040742Y-136918751D01*
X147126539Y-136790346D01*
X147290346Y-136626539D01*
X147482954Y-136497843D01*
X147482955Y-136497842D01*
X147696973Y-136409193D01*
X147848440Y-136379064D01*
X147924173Y-136364000D01*
X148155827Y-136364000D01*
X148231560Y-136379064D01*
G37*
G36*
X127031560Y-136379064D02*
G01*
X127183027Y-136409193D01*
X127397045Y-136497842D01*
X127397046Y-136497843D01*
X127589654Y-136626539D01*
X127753461Y-136790346D01*
X127839258Y-136918751D01*
X127882158Y-136982955D01*
X127970807Y-137196973D01*
X128016000Y-137424174D01*
X128016000Y-137655826D01*
X127970807Y-137883027D01*
X127882158Y-138097045D01*
X127882157Y-138097046D01*
X127753461Y-138289654D01*
X127589654Y-138453461D01*
X127461249Y-138539258D01*
X127397045Y-138582158D01*
X127183027Y-138670807D01*
X127031560Y-138700936D01*
X126955827Y-138716000D01*
X126724173Y-138716000D01*
X126648440Y-138700936D01*
X126496973Y-138670807D01*
X126282955Y-138582158D01*
X126218751Y-138539258D01*
X126090346Y-138453461D01*
X125926539Y-138289654D01*
X125797843Y-138097046D01*
X125797842Y-138097045D01*
X125709193Y-137883027D01*
X125664000Y-137655826D01*
X125664000Y-137424174D01*
X125709193Y-137196973D01*
X125797842Y-136982955D01*
X125840742Y-136918751D01*
X125926539Y-136790346D01*
X126090346Y-136626539D01*
X126282954Y-136497843D01*
X126282955Y-136497842D01*
X126496973Y-136409193D01*
X126648440Y-136379064D01*
X126724173Y-136364000D01*
X126955827Y-136364000D01*
X127031560Y-136379064D01*
G37*
G36*
X121951560Y-136379064D02*
G01*
X122103027Y-136409193D01*
X122317045Y-136497842D01*
X122317046Y-136497843D01*
X122509654Y-136626539D01*
X122673461Y-136790346D01*
X122759258Y-136918751D01*
X122802158Y-136982955D01*
X122890807Y-137196973D01*
X122936000Y-137424174D01*
X122936000Y-137655826D01*
X122890807Y-137883027D01*
X122802158Y-138097045D01*
X122802157Y-138097046D01*
X122673461Y-138289654D01*
X122509654Y-138453461D01*
X122381249Y-138539258D01*
X122317045Y-138582158D01*
X122103027Y-138670807D01*
X121951560Y-138700936D01*
X121875827Y-138716000D01*
X121644173Y-138716000D01*
X121568440Y-138700936D01*
X121416973Y-138670807D01*
X121202955Y-138582158D01*
X121138751Y-138539258D01*
X121010346Y-138453461D01*
X120846539Y-138289654D01*
X120717843Y-138097046D01*
X120717842Y-138097045D01*
X120629193Y-137883027D01*
X120584000Y-137655826D01*
X120584000Y-137424174D01*
X120629193Y-137196973D01*
X120717842Y-136982955D01*
X120760742Y-136918751D01*
X120846539Y-136790346D01*
X121010346Y-136626539D01*
X121202954Y-136497843D01*
X121202955Y-136497842D01*
X121416973Y-136409193D01*
X121568440Y-136379064D01*
X121644173Y-136364000D01*
X121875827Y-136364000D01*
X121951560Y-136379064D01*
G37*
G36*
X129764499Y-136053445D02*
G01*
X129801995Y-136064820D01*
X129836554Y-136083292D01*
X129866847Y-136108153D01*
X129891708Y-136138446D01*
X129910180Y-136173005D01*
X129921555Y-136210501D01*
X129926000Y-136255638D01*
X129926000Y-136994362D01*
X129921555Y-137039499D01*
X129910180Y-137076995D01*
X129891708Y-137111554D01*
X129866847Y-137141847D01*
X129836554Y-137166708D01*
X129801995Y-137185180D01*
X129764499Y-137196555D01*
X129719362Y-137201000D01*
X129080638Y-137201000D01*
X129035501Y-137196555D01*
X128998005Y-137185180D01*
X128963446Y-137166708D01*
X128933153Y-137141847D01*
X128908292Y-137111554D01*
X128889820Y-137076995D01*
X128878445Y-137039499D01*
X128874000Y-136994362D01*
X128874000Y-136255638D01*
X128878445Y-136210501D01*
X128889820Y-136173005D01*
X128908292Y-136138446D01*
X128933153Y-136108153D01*
X128963446Y-136083292D01*
X128998005Y-136064820D01*
X129035501Y-136053445D01*
X129080638Y-136049000D01*
X129719362Y-136049000D01*
X129764499Y-136053445D01*
G37*
G36*
X145675271Y-133937783D02*
G01*
X145813858Y-133965350D01*
X146009677Y-134046461D01*
X146185910Y-134164216D01*
X146335784Y-134314090D01*
X146453539Y-134490323D01*
X146534650Y-134686142D01*
X146576000Y-134894023D01*
X146576000Y-135105977D01*
X146534650Y-135313858D01*
X146453539Y-135509677D01*
X146335784Y-135685910D01*
X146185910Y-135835784D01*
X146009677Y-135953539D01*
X145813858Y-136034650D01*
X145716312Y-136054053D01*
X145605978Y-136076000D01*
X145394022Y-136076000D01*
X145283688Y-136054053D01*
X145186142Y-136034650D01*
X144990323Y-135953539D01*
X144814090Y-135835784D01*
X144664216Y-135685910D01*
X144546461Y-135509677D01*
X144465350Y-135313858D01*
X144424000Y-135105977D01*
X144424000Y-134894023D01*
X144465350Y-134686142D01*
X144546461Y-134490323D01*
X144664216Y-134314090D01*
X144814090Y-134164216D01*
X144990323Y-134046461D01*
X145186142Y-133965350D01*
X145324729Y-133937783D01*
X145394022Y-133924000D01*
X145605978Y-133924000D01*
X145675271Y-133937783D01*
G37*
G36*
X124475271Y-133937783D02*
G01*
X124613858Y-133965350D01*
X124809677Y-134046461D01*
X124985910Y-134164216D01*
X125135784Y-134314090D01*
X125253539Y-134490323D01*
X125334650Y-134686142D01*
X125376000Y-134894023D01*
X125376000Y-135105977D01*
X125334650Y-135313858D01*
X125253539Y-135509677D01*
X125135784Y-135685910D01*
X124985910Y-135835784D01*
X124809677Y-135953539D01*
X124613858Y-136034650D01*
X124516312Y-136054053D01*
X124405978Y-136076000D01*
X124194022Y-136076000D01*
X124083688Y-136054053D01*
X123986142Y-136034650D01*
X123790323Y-135953539D01*
X123614090Y-135835784D01*
X123464216Y-135685910D01*
X123346461Y-135509677D01*
X123265350Y-135313858D01*
X123224000Y-135105977D01*
X123224000Y-134894023D01*
X123265350Y-134686142D01*
X123346461Y-134490323D01*
X123464216Y-134314090D01*
X123614090Y-134164216D01*
X123790323Y-134046461D01*
X123986142Y-133965350D01*
X124124729Y-133937783D01*
X124194022Y-133924000D01*
X124405978Y-133924000D01*
X124475271Y-133937783D01*
G37*
G36*
X137438674Y-134253465D02*
G01*
X137476367Y-134264899D01*
X137511103Y-134283466D01*
X137541548Y-134308452D01*
X137566534Y-134338897D01*
X137585101Y-134373633D01*
X137596535Y-134411326D01*
X137601000Y-134456661D01*
X137601000Y-135543339D01*
X137596535Y-135588674D01*
X137585101Y-135626367D01*
X137566534Y-135661103D01*
X137541548Y-135691548D01*
X137511103Y-135716534D01*
X137476367Y-135735101D01*
X137438674Y-135746535D01*
X137393339Y-135751000D01*
X136556661Y-135751000D01*
X136511326Y-135746535D01*
X136473633Y-135735101D01*
X136438897Y-135716534D01*
X136408452Y-135691548D01*
X136383466Y-135661103D01*
X136364899Y-135626367D01*
X136353465Y-135588674D01*
X136349000Y-135543339D01*
X136349000Y-134456661D01*
X136353465Y-134411326D01*
X136364899Y-134373633D01*
X136383466Y-134338897D01*
X136408452Y-134308452D01*
X136438897Y-134283466D01*
X136473633Y-134264899D01*
X136511326Y-134253465D01*
X136556661Y-134249000D01*
X137393339Y-134249000D01*
X137438674Y-134253465D01*
G37*
G36*
X139488674Y-134253465D02*
G01*
X139526367Y-134264899D01*
X139561103Y-134283466D01*
X139591548Y-134308452D01*
X139616534Y-134338897D01*
X139635101Y-134373633D01*
X139646535Y-134411326D01*
X139651000Y-134456661D01*
X139651000Y-135543339D01*
X139646535Y-135588674D01*
X139635101Y-135626367D01*
X139616534Y-135661103D01*
X139591548Y-135691548D01*
X139561103Y-135716534D01*
X139526367Y-135735101D01*
X139488674Y-135746535D01*
X139443339Y-135751000D01*
X138606661Y-135751000D01*
X138561326Y-135746535D01*
X138523633Y-135735101D01*
X138488897Y-135716534D01*
X138458452Y-135691548D01*
X138433466Y-135661103D01*
X138414899Y-135626367D01*
X138403465Y-135588674D01*
X138399000Y-135543339D01*
X138399000Y-134456661D01*
X138403465Y-134411326D01*
X138414899Y-134373633D01*
X138433466Y-134338897D01*
X138458452Y-134308452D01*
X138488897Y-134283466D01*
X138523633Y-134264899D01*
X138561326Y-134253465D01*
X138606661Y-134249000D01*
X139443339Y-134249000D01*
X139488674Y-134253465D01*
G37*
G36*
X129964499Y-133303445D02*
G01*
X130001995Y-133314820D01*
X130036554Y-133333292D01*
X130066847Y-133358153D01*
X130091708Y-133388446D01*
X130110180Y-133423005D01*
X130121555Y-133460501D01*
X130126000Y-133505638D01*
X130126000Y-134244362D01*
X130121555Y-134289499D01*
X130110180Y-134326995D01*
X130091708Y-134361554D01*
X130066847Y-134391847D01*
X130036554Y-134416708D01*
X130001995Y-134435180D01*
X129964499Y-134446555D01*
X129919362Y-134451000D01*
X129280638Y-134451000D01*
X129235501Y-134446555D01*
X129198005Y-134435180D01*
X129163446Y-134416708D01*
X129133153Y-134391847D01*
X129108292Y-134361554D01*
X129089820Y-134326995D01*
X129078445Y-134289499D01*
X129074000Y-134244362D01*
X129074000Y-133505638D01*
X129078445Y-133460501D01*
X129089820Y-133423005D01*
X129108292Y-133388446D01*
X129133153Y-133358153D01*
X129163446Y-133333292D01*
X129198005Y-133314820D01*
X129235501Y-133303445D01*
X129280638Y-133299000D01*
X129919362Y-133299000D01*
X129964499Y-133303445D01*
G37*
G36*
X143151560Y-131299064D02*
G01*
X143303027Y-131329193D01*
X143517045Y-131417842D01*
X143517046Y-131417843D01*
X143709654Y-131546539D01*
X143873461Y-131710346D01*
X143903724Y-131755638D01*
X144002158Y-131902955D01*
X144090807Y-132116973D01*
X144090807Y-132116975D01*
X144136000Y-132344173D01*
X144136000Y-132575827D01*
X144134351Y-132584115D01*
X144090807Y-132803027D01*
X144002158Y-133017045D01*
X144002157Y-133017046D01*
X143873461Y-133209654D01*
X143709654Y-133373461D01*
X143581249Y-133459258D01*
X143517045Y-133502158D01*
X143303027Y-133590807D01*
X143151560Y-133620936D01*
X143075827Y-133636000D01*
X142844173Y-133636000D01*
X142768440Y-133620936D01*
X142616973Y-133590807D01*
X142402955Y-133502158D01*
X142338751Y-133459258D01*
X142210346Y-133373461D01*
X142046539Y-133209654D01*
X141917843Y-133017046D01*
X141917842Y-133017045D01*
X141829193Y-132803027D01*
X141785649Y-132584115D01*
X141784000Y-132575827D01*
X141784000Y-132344173D01*
X141829193Y-132116975D01*
X141829193Y-132116973D01*
X141917842Y-131902955D01*
X142016276Y-131755638D01*
X142046539Y-131710346D01*
X142210346Y-131546539D01*
X142402954Y-131417843D01*
X142402955Y-131417842D01*
X142616973Y-131329193D01*
X142768440Y-131299064D01*
X142844173Y-131284000D01*
X143075827Y-131284000D01*
X143151560Y-131299064D01*
G37*
G36*
X148231560Y-131299064D02*
G01*
X148383027Y-131329193D01*
X148597045Y-131417842D01*
X148597046Y-131417843D01*
X148789654Y-131546539D01*
X148953461Y-131710346D01*
X148983724Y-131755638D01*
X149082158Y-131902955D01*
X149170807Y-132116973D01*
X149170807Y-132116975D01*
X149216000Y-132344173D01*
X149216000Y-132575827D01*
X149214351Y-132584115D01*
X149170807Y-132803027D01*
X149082158Y-133017045D01*
X149082157Y-133017046D01*
X148953461Y-133209654D01*
X148789654Y-133373461D01*
X148661249Y-133459258D01*
X148597045Y-133502158D01*
X148383027Y-133590807D01*
X148231560Y-133620936D01*
X148155827Y-133636000D01*
X147924173Y-133636000D01*
X147848440Y-133620936D01*
X147696973Y-133590807D01*
X147482955Y-133502158D01*
X147418751Y-133459258D01*
X147290346Y-133373461D01*
X147126539Y-133209654D01*
X146997843Y-133017046D01*
X146997842Y-133017045D01*
X146909193Y-132803027D01*
X146865649Y-132584115D01*
X146864000Y-132575827D01*
X146864000Y-132344173D01*
X146909193Y-132116975D01*
X146909193Y-132116973D01*
X146997842Y-131902955D01*
X147096276Y-131755638D01*
X147126539Y-131710346D01*
X147290346Y-131546539D01*
X147482954Y-131417843D01*
X147482955Y-131417842D01*
X147696973Y-131329193D01*
X147848440Y-131299064D01*
X147924173Y-131284000D01*
X148155827Y-131284000D01*
X148231560Y-131299064D01*
G37*
G36*
X127031560Y-131299064D02*
G01*
X127183027Y-131329193D01*
X127397045Y-131417842D01*
X127397046Y-131417843D01*
X127589654Y-131546539D01*
X127753461Y-131710346D01*
X127783724Y-131755638D01*
X127882158Y-131902955D01*
X127970807Y-132116973D01*
X127970807Y-132116975D01*
X128016000Y-132344173D01*
X128016000Y-132575827D01*
X128014351Y-132584115D01*
X127970807Y-132803027D01*
X127882158Y-133017045D01*
X127882157Y-133017046D01*
X127753461Y-133209654D01*
X127589654Y-133373461D01*
X127461249Y-133459258D01*
X127397045Y-133502158D01*
X127183027Y-133590807D01*
X127031560Y-133620936D01*
X126955827Y-133636000D01*
X126724173Y-133636000D01*
X126648440Y-133620936D01*
X126496973Y-133590807D01*
X126282955Y-133502158D01*
X126218751Y-133459258D01*
X126090346Y-133373461D01*
X125926539Y-133209654D01*
X125797843Y-133017046D01*
X125797842Y-133017045D01*
X125709193Y-132803027D01*
X125665649Y-132584115D01*
X125664000Y-132575827D01*
X125664000Y-132344173D01*
X125709193Y-132116975D01*
X125709193Y-132116973D01*
X125797842Y-131902955D01*
X125896276Y-131755638D01*
X125926539Y-131710346D01*
X126090346Y-131546539D01*
X126282954Y-131417843D01*
X126282955Y-131417842D01*
X126496973Y-131329193D01*
X126648440Y-131299064D01*
X126724173Y-131284000D01*
X126955827Y-131284000D01*
X127031560Y-131299064D01*
G37*
G36*
X121951560Y-131299064D02*
G01*
X122103027Y-131329193D01*
X122317045Y-131417842D01*
X122317046Y-131417843D01*
X122509654Y-131546539D01*
X122673461Y-131710346D01*
X122703724Y-131755638D01*
X122802158Y-131902955D01*
X122890807Y-132116973D01*
X122890807Y-132116975D01*
X122936000Y-132344173D01*
X122936000Y-132575827D01*
X122934351Y-132584115D01*
X122890807Y-132803027D01*
X122802158Y-133017045D01*
X122802157Y-133017046D01*
X122673461Y-133209654D01*
X122509654Y-133373461D01*
X122381249Y-133459258D01*
X122317045Y-133502158D01*
X122103027Y-133590807D01*
X121951560Y-133620936D01*
X121875827Y-133636000D01*
X121644173Y-133636000D01*
X121568440Y-133620936D01*
X121416973Y-133590807D01*
X121202955Y-133502158D01*
X121138751Y-133459258D01*
X121010346Y-133373461D01*
X120846539Y-133209654D01*
X120717843Y-133017046D01*
X120717842Y-133017045D01*
X120629193Y-132803027D01*
X120585649Y-132584115D01*
X120584000Y-132575827D01*
X120584000Y-132344173D01*
X120629193Y-132116975D01*
X120629193Y-132116973D01*
X120717842Y-131902955D01*
X120816276Y-131755638D01*
X120846539Y-131710346D01*
X121010346Y-131546539D01*
X121202954Y-131417843D01*
X121202955Y-131417842D01*
X121416973Y-131329193D01*
X121568440Y-131299064D01*
X121644173Y-131284000D01*
X121875827Y-131284000D01*
X121951560Y-131299064D01*
G37*
G36*
X140600562Y-130978181D02*
G01*
X140635481Y-130988774D01*
X140667663Y-131005976D01*
X140695873Y-131029127D01*
X140719024Y-131057337D01*
X140736226Y-131089519D01*
X140746819Y-131124438D01*
X140751000Y-131166895D01*
X140751000Y-132633105D01*
X140746819Y-132675562D01*
X140736226Y-132710481D01*
X140719024Y-132742663D01*
X140695873Y-132770873D01*
X140667663Y-132794024D01*
X140635481Y-132811226D01*
X140600562Y-132821819D01*
X140558105Y-132826000D01*
X139416895Y-132826000D01*
X139374438Y-132821819D01*
X139339519Y-132811226D01*
X139307337Y-132794024D01*
X139279127Y-132770873D01*
X139255976Y-132742663D01*
X139238774Y-132710481D01*
X139228181Y-132675562D01*
X139224000Y-132633105D01*
X139224000Y-131166895D01*
X139228181Y-131124438D01*
X139238774Y-131089519D01*
X139255976Y-131057337D01*
X139279127Y-131029127D01*
X139307337Y-131005976D01*
X139339519Y-130988774D01*
X139374438Y-130978181D01*
X139416895Y-130974000D01*
X140558105Y-130974000D01*
X140600562Y-130978181D01*
G37*
G36*
X137625562Y-130978181D02*
G01*
X137660481Y-130988774D01*
X137692663Y-131005976D01*
X137720873Y-131029127D01*
X137744024Y-131057337D01*
X137761226Y-131089519D01*
X137771819Y-131124438D01*
X137776000Y-131166895D01*
X137776000Y-132633105D01*
X137771819Y-132675562D01*
X137761226Y-132710481D01*
X137744024Y-132742663D01*
X137720873Y-132770873D01*
X137692663Y-132794024D01*
X137660481Y-132811226D01*
X137625562Y-132821819D01*
X137583105Y-132826000D01*
X136441895Y-132826000D01*
X136399438Y-132821819D01*
X136364519Y-132811226D01*
X136332337Y-132794024D01*
X136304127Y-132770873D01*
X136280976Y-132742663D01*
X136263774Y-132710481D01*
X136253181Y-132675562D01*
X136249000Y-132633105D01*
X136249000Y-131166895D01*
X136253181Y-131124438D01*
X136263774Y-131089519D01*
X136280976Y-131057337D01*
X136304127Y-131029127D01*
X136332337Y-131005976D01*
X136364519Y-130988774D01*
X136399438Y-130978181D01*
X136441895Y-130974000D01*
X137583105Y-130974000D01*
X137625562Y-130978181D01*
G37*
G36*
X135021000Y-132726000D02*
G01*
X134119000Y-132726000D01*
X134119000Y-130974000D01*
X135021000Y-130974000D01*
X135021000Y-132726000D01*
G37*
G36*
X132481000Y-132726000D02*
G01*
X131579000Y-132726000D01*
X131579000Y-130974000D01*
X132481000Y-130974000D01*
X132481000Y-132726000D01*
G37*
G36*
X129964499Y-131553445D02*
G01*
X130001995Y-131564820D01*
X130036554Y-131583292D01*
X130066847Y-131608153D01*
X130091708Y-131638446D01*
X130110180Y-131673005D01*
X130121555Y-131710501D01*
X130126000Y-131755638D01*
X130126000Y-132494362D01*
X130121555Y-132539499D01*
X130110180Y-132576995D01*
X130091708Y-132611554D01*
X130066847Y-132641847D01*
X130036554Y-132666708D01*
X130001995Y-132685180D01*
X129964499Y-132696555D01*
X129919362Y-132701000D01*
X129280638Y-132701000D01*
X129235501Y-132696555D01*
X129198005Y-132685180D01*
X129163446Y-132666708D01*
X129133153Y-132641847D01*
X129108292Y-132611554D01*
X129089820Y-132576995D01*
X129078445Y-132539499D01*
X129074000Y-132494362D01*
X129074000Y-131755638D01*
X129078445Y-131710501D01*
X129089820Y-131673005D01*
X129108292Y-131638446D01*
X129133153Y-131608153D01*
X129163446Y-131583292D01*
X129198005Y-131564820D01*
X129235501Y-131553445D01*
X129280638Y-131549000D01*
X129919362Y-131549000D01*
X129964499Y-131553445D01*
G37*
G36*
X135021000Y-129026000D02*
G01*
X134119000Y-129026000D01*
X134119000Y-127274000D01*
X135021000Y-127274000D01*
X135021000Y-129026000D01*
G37*
G36*
X132481000Y-129026000D02*
G01*
X131579000Y-129026000D01*
X131579000Y-127274000D01*
X132481000Y-127274000D01*
X132481000Y-129026000D01*
G37*
G36*
X129764499Y-127803445D02*
G01*
X129801995Y-127814820D01*
X129836554Y-127833292D01*
X129866847Y-127858153D01*
X129891708Y-127888446D01*
X129910180Y-127923005D01*
X129921555Y-127960501D01*
X129926000Y-128005638D01*
X129926000Y-128744362D01*
X129921555Y-128789499D01*
X129910180Y-128826995D01*
X129891708Y-128861554D01*
X129866847Y-128891847D01*
X129836554Y-128916708D01*
X129801995Y-128935180D01*
X129764499Y-128946555D01*
X129719362Y-128951000D01*
X129080638Y-128951000D01*
X129035501Y-128946555D01*
X128998005Y-128935180D01*
X128963446Y-128916708D01*
X128933153Y-128891847D01*
X128908292Y-128861554D01*
X128889820Y-128826995D01*
X128878445Y-128789499D01*
X128874000Y-128744362D01*
X128874000Y-128005638D01*
X128878445Y-127960501D01*
X128889820Y-127923005D01*
X128908292Y-127888446D01*
X128933153Y-127858153D01*
X128963446Y-127833292D01*
X128998005Y-127814820D01*
X129035501Y-127803445D01*
X129080638Y-127799000D01*
X129719362Y-127799000D01*
X129764499Y-127803445D01*
G37*
G36*
X137625562Y-126978181D02*
G01*
X137660481Y-126988774D01*
X137692663Y-127005976D01*
X137720873Y-127029127D01*
X137744024Y-127057337D01*
X137761226Y-127089519D01*
X137771819Y-127124438D01*
X137776000Y-127166895D01*
X137776000Y-128633105D01*
X137771819Y-128675562D01*
X137761226Y-128710481D01*
X137744024Y-128742663D01*
X137720873Y-128770873D01*
X137692663Y-128794024D01*
X137660481Y-128811226D01*
X137625562Y-128821819D01*
X137583105Y-128826000D01*
X136441895Y-128826000D01*
X136399438Y-128821819D01*
X136364519Y-128811226D01*
X136332337Y-128794024D01*
X136304127Y-128770873D01*
X136280976Y-128742663D01*
X136263774Y-128710481D01*
X136253181Y-128675562D01*
X136249000Y-128633105D01*
X136249000Y-127166895D01*
X136253181Y-127124438D01*
X136263774Y-127089519D01*
X136280976Y-127057337D01*
X136304127Y-127029127D01*
X136332337Y-127005976D01*
X136364519Y-126988774D01*
X136399438Y-126978181D01*
X136441895Y-126974000D01*
X137583105Y-126974000D01*
X137625562Y-126978181D01*
G37*
G36*
X140600562Y-126978181D02*
G01*
X140635481Y-126988774D01*
X140667663Y-127005976D01*
X140695873Y-127029127D01*
X140719024Y-127057337D01*
X140736226Y-127089519D01*
X140746819Y-127124438D01*
X140751000Y-127166895D01*
X140751000Y-128633105D01*
X140746819Y-128675562D01*
X140736226Y-128710481D01*
X140719024Y-128742663D01*
X140695873Y-128770873D01*
X140667663Y-128794024D01*
X140635481Y-128811226D01*
X140600562Y-128821819D01*
X140558105Y-128826000D01*
X139416895Y-128826000D01*
X139374438Y-128821819D01*
X139339519Y-128811226D01*
X139307337Y-128794024D01*
X139279127Y-128770873D01*
X139255976Y-128742663D01*
X139238774Y-128710481D01*
X139228181Y-128675562D01*
X139224000Y-128633105D01*
X139224000Y-127166895D01*
X139228181Y-127124438D01*
X139238774Y-127089519D01*
X139255976Y-127057337D01*
X139279127Y-127029127D01*
X139307337Y-127005976D01*
X139339519Y-126988774D01*
X139374438Y-126978181D01*
X139416895Y-126974000D01*
X140558105Y-126974000D01*
X140600562Y-126978181D01*
G37*
G36*
X121951560Y-126379064D02*
G01*
X122103027Y-126409193D01*
X122317045Y-126497842D01*
X122317046Y-126497843D01*
X122509654Y-126626539D01*
X122673461Y-126790346D01*
X122759258Y-126918751D01*
X122802158Y-126982955D01*
X122890807Y-127196973D01*
X122936000Y-127424174D01*
X122936000Y-127655826D01*
X122890807Y-127883027D01*
X122802158Y-128097045D01*
X122802157Y-128097046D01*
X122673461Y-128289654D01*
X122509654Y-128453461D01*
X122381249Y-128539258D01*
X122317045Y-128582158D01*
X122103027Y-128670807D01*
X121951560Y-128700936D01*
X121875827Y-128716000D01*
X121644173Y-128716000D01*
X121568440Y-128700936D01*
X121416973Y-128670807D01*
X121202955Y-128582158D01*
X121138751Y-128539258D01*
X121010346Y-128453461D01*
X120846539Y-128289654D01*
X120717843Y-128097046D01*
X120717842Y-128097045D01*
X120629193Y-127883027D01*
X120584000Y-127655826D01*
X120584000Y-127424174D01*
X120629193Y-127196973D01*
X120717842Y-126982955D01*
X120760742Y-126918751D01*
X120846539Y-126790346D01*
X121010346Y-126626539D01*
X121202954Y-126497843D01*
X121202955Y-126497842D01*
X121416973Y-126409193D01*
X121568440Y-126379064D01*
X121644173Y-126364000D01*
X121875827Y-126364000D01*
X121951560Y-126379064D01*
G37*
G36*
X127031560Y-126379064D02*
G01*
X127183027Y-126409193D01*
X127397045Y-126497842D01*
X127397046Y-126497843D01*
X127589654Y-126626539D01*
X127753461Y-126790346D01*
X127839258Y-126918751D01*
X127882158Y-126982955D01*
X127970807Y-127196973D01*
X128016000Y-127424174D01*
X128016000Y-127655826D01*
X127970807Y-127883027D01*
X127882158Y-128097045D01*
X127882157Y-128097046D01*
X127753461Y-128289654D01*
X127589654Y-128453461D01*
X127461249Y-128539258D01*
X127397045Y-128582158D01*
X127183027Y-128670807D01*
X127031560Y-128700936D01*
X126955827Y-128716000D01*
X126724173Y-128716000D01*
X126648440Y-128700936D01*
X126496973Y-128670807D01*
X126282955Y-128582158D01*
X126218751Y-128539258D01*
X126090346Y-128453461D01*
X125926539Y-128289654D01*
X125797843Y-128097046D01*
X125797842Y-128097045D01*
X125709193Y-127883027D01*
X125664000Y-127655826D01*
X125664000Y-127424174D01*
X125709193Y-127196973D01*
X125797842Y-126982955D01*
X125840742Y-126918751D01*
X125926539Y-126790346D01*
X126090346Y-126626539D01*
X126282954Y-126497843D01*
X126282955Y-126497842D01*
X126496973Y-126409193D01*
X126648440Y-126379064D01*
X126724173Y-126364000D01*
X126955827Y-126364000D01*
X127031560Y-126379064D01*
G37*
G36*
X148231560Y-126379064D02*
G01*
X148383027Y-126409193D01*
X148597045Y-126497842D01*
X148597046Y-126497843D01*
X148789654Y-126626539D01*
X148953461Y-126790346D01*
X149039258Y-126918751D01*
X149082158Y-126982955D01*
X149170807Y-127196973D01*
X149216000Y-127424174D01*
X149216000Y-127655826D01*
X149170807Y-127883027D01*
X149082158Y-128097045D01*
X149082157Y-128097046D01*
X148953461Y-128289654D01*
X148789654Y-128453461D01*
X148661249Y-128539258D01*
X148597045Y-128582158D01*
X148383027Y-128670807D01*
X148231560Y-128700936D01*
X148155827Y-128716000D01*
X147924173Y-128716000D01*
X147848440Y-128700936D01*
X147696973Y-128670807D01*
X147482955Y-128582158D01*
X147418751Y-128539258D01*
X147290346Y-128453461D01*
X147126539Y-128289654D01*
X146997843Y-128097046D01*
X146997842Y-128097045D01*
X146909193Y-127883027D01*
X146864000Y-127655826D01*
X146864000Y-127424174D01*
X146909193Y-127196973D01*
X146997842Y-126982955D01*
X147040742Y-126918751D01*
X147126539Y-126790346D01*
X147290346Y-126626539D01*
X147482954Y-126497843D01*
X147482955Y-126497842D01*
X147696973Y-126409193D01*
X147848440Y-126379064D01*
X147924173Y-126364000D01*
X148155827Y-126364000D01*
X148231560Y-126379064D01*
G37*
G36*
X143151560Y-126379064D02*
G01*
X143303027Y-126409193D01*
X143517045Y-126497842D01*
X143517046Y-126497843D01*
X143709654Y-126626539D01*
X143873461Y-126790346D01*
X143959258Y-126918751D01*
X144002158Y-126982955D01*
X144090807Y-127196973D01*
X144136000Y-127424174D01*
X144136000Y-127655826D01*
X144090807Y-127883027D01*
X144002158Y-128097045D01*
X144002157Y-128097046D01*
X143873461Y-128289654D01*
X143709654Y-128453461D01*
X143581249Y-128539258D01*
X143517045Y-128582158D01*
X143303027Y-128670807D01*
X143151560Y-128700936D01*
X143075827Y-128716000D01*
X142844173Y-128716000D01*
X142768440Y-128700936D01*
X142616973Y-128670807D01*
X142402955Y-128582158D01*
X142338751Y-128539258D01*
X142210346Y-128453461D01*
X142046539Y-128289654D01*
X141917843Y-128097046D01*
X141917842Y-128097045D01*
X141829193Y-127883027D01*
X141784000Y-127655826D01*
X141784000Y-127424174D01*
X141829193Y-127196973D01*
X141917842Y-126982955D01*
X141960742Y-126918751D01*
X142046539Y-126790346D01*
X142210346Y-126626539D01*
X142402954Y-126497843D01*
X142402955Y-126497842D01*
X142616973Y-126409193D01*
X142768440Y-126379064D01*
X142844173Y-126364000D01*
X143075827Y-126364000D01*
X143151560Y-126379064D01*
G37*
G36*
X129764499Y-126053445D02*
G01*
X129801995Y-126064820D01*
X129836554Y-126083292D01*
X129866847Y-126108153D01*
X129891708Y-126138446D01*
X129910180Y-126173005D01*
X129921555Y-126210501D01*
X129926000Y-126255638D01*
X129926000Y-126994362D01*
X129921555Y-127039499D01*
X129910180Y-127076995D01*
X129891708Y-127111554D01*
X129866847Y-127141847D01*
X129836554Y-127166708D01*
X129801995Y-127185180D01*
X129764499Y-127196555D01*
X129719362Y-127201000D01*
X129080638Y-127201000D01*
X129035501Y-127196555D01*
X128998005Y-127185180D01*
X128963446Y-127166708D01*
X128933153Y-127141847D01*
X128908292Y-127111554D01*
X128889820Y-127076995D01*
X128878445Y-127039499D01*
X128874000Y-126994362D01*
X128874000Y-126255638D01*
X128878445Y-126210501D01*
X128889820Y-126173005D01*
X128908292Y-126138446D01*
X128933153Y-126108153D01*
X128963446Y-126083292D01*
X128998005Y-126064820D01*
X129035501Y-126053445D01*
X129080638Y-126049000D01*
X129719362Y-126049000D01*
X129764499Y-126053445D01*
G37*
G36*
X124475271Y-123937783D02*
G01*
X124613858Y-123965350D01*
X124809677Y-124046461D01*
X124985910Y-124164216D01*
X125135784Y-124314090D01*
X125253539Y-124490323D01*
X125334650Y-124686142D01*
X125376000Y-124894023D01*
X125376000Y-125105977D01*
X125334650Y-125313858D01*
X125253539Y-125509677D01*
X125135784Y-125685910D01*
X124985910Y-125835784D01*
X124809677Y-125953539D01*
X124613858Y-126034650D01*
X124516312Y-126054053D01*
X124405978Y-126076000D01*
X124194022Y-126076000D01*
X124083688Y-126054053D01*
X123986142Y-126034650D01*
X123790323Y-125953539D01*
X123614090Y-125835784D01*
X123464216Y-125685910D01*
X123346461Y-125509677D01*
X123265350Y-125313858D01*
X123224000Y-125105977D01*
X123224000Y-124894023D01*
X123265350Y-124686142D01*
X123346461Y-124490323D01*
X123464216Y-124314090D01*
X123614090Y-124164216D01*
X123790323Y-124046461D01*
X123986142Y-123965350D01*
X124124729Y-123937783D01*
X124194022Y-123924000D01*
X124405978Y-123924000D01*
X124475271Y-123937783D01*
G37*
G36*
X145675271Y-123937783D02*
G01*
X145813858Y-123965350D01*
X146009677Y-124046461D01*
X146185910Y-124164216D01*
X146335784Y-124314090D01*
X146453539Y-124490323D01*
X146534650Y-124686142D01*
X146576000Y-124894023D01*
X146576000Y-125105977D01*
X146534650Y-125313858D01*
X146453539Y-125509677D01*
X146335784Y-125685910D01*
X146185910Y-125835784D01*
X146009677Y-125953539D01*
X145813858Y-126034650D01*
X145716312Y-126054053D01*
X145605978Y-126076000D01*
X145394022Y-126076000D01*
X145283688Y-126054053D01*
X145186142Y-126034650D01*
X144990323Y-125953539D01*
X144814090Y-125835784D01*
X144664216Y-125685910D01*
X144546461Y-125509677D01*
X144465350Y-125313858D01*
X144424000Y-125105977D01*
X144424000Y-124894023D01*
X144465350Y-124686142D01*
X144546461Y-124490323D01*
X144664216Y-124314090D01*
X144814090Y-124164216D01*
X144990323Y-124046461D01*
X145186142Y-123965350D01*
X145324729Y-123937783D01*
X145394022Y-123924000D01*
X145605978Y-123924000D01*
X145675271Y-123937783D01*
G37*
G36*
X139488674Y-124253465D02*
G01*
X139526367Y-124264899D01*
X139561103Y-124283466D01*
X139591548Y-124308452D01*
X139616534Y-124338897D01*
X139635101Y-124373633D01*
X139646535Y-124411326D01*
X139651000Y-124456661D01*
X139651000Y-125543339D01*
X139646535Y-125588674D01*
X139635101Y-125626367D01*
X139616534Y-125661103D01*
X139591548Y-125691548D01*
X139561103Y-125716534D01*
X139526367Y-125735101D01*
X139488674Y-125746535D01*
X139443339Y-125751000D01*
X138606661Y-125751000D01*
X138561326Y-125746535D01*
X138523633Y-125735101D01*
X138488897Y-125716534D01*
X138458452Y-125691548D01*
X138433466Y-125661103D01*
X138414899Y-125626367D01*
X138403465Y-125588674D01*
X138399000Y-125543339D01*
X138399000Y-124456661D01*
X138403465Y-124411326D01*
X138414899Y-124373633D01*
X138433466Y-124338897D01*
X138458452Y-124308452D01*
X138488897Y-124283466D01*
X138523633Y-124264899D01*
X138561326Y-124253465D01*
X138606661Y-124249000D01*
X139443339Y-124249000D01*
X139488674Y-124253465D01*
G37*
G36*
X137438674Y-124253465D02*
G01*
X137476367Y-124264899D01*
X137511103Y-124283466D01*
X137541548Y-124308452D01*
X137566534Y-124338897D01*
X137585101Y-124373633D01*
X137596535Y-124411326D01*
X137601000Y-124456661D01*
X137601000Y-125543339D01*
X137596535Y-125588674D01*
X137585101Y-125626367D01*
X137566534Y-125661103D01*
X137541548Y-125691548D01*
X137511103Y-125716534D01*
X137476367Y-125735101D01*
X137438674Y-125746535D01*
X137393339Y-125751000D01*
X136556661Y-125751000D01*
X136511326Y-125746535D01*
X136473633Y-125735101D01*
X136438897Y-125716534D01*
X136408452Y-125691548D01*
X136383466Y-125661103D01*
X136364899Y-125626367D01*
X136353465Y-125588674D01*
X136349000Y-125543339D01*
X136349000Y-124456661D01*
X136353465Y-124411326D01*
X136364899Y-124373633D01*
X136383466Y-124338897D01*
X136408452Y-124308452D01*
X136438897Y-124283466D01*
X136473633Y-124264899D01*
X136511326Y-124253465D01*
X136556661Y-124249000D01*
X137393339Y-124249000D01*
X137438674Y-124253465D01*
G37*
G36*
X129964499Y-123303445D02*
G01*
X130001995Y-123314820D01*
X130036554Y-123333292D01*
X130066847Y-123358153D01*
X130091708Y-123388446D01*
X130110180Y-123423005D01*
X130121555Y-123460501D01*
X130126000Y-123505638D01*
X130126000Y-124244362D01*
X130121555Y-124289499D01*
X130110180Y-124326995D01*
X130091708Y-124361554D01*
X130066847Y-124391847D01*
X130036554Y-124416708D01*
X130001995Y-124435180D01*
X129964499Y-124446555D01*
X129919362Y-124451000D01*
X129280638Y-124451000D01*
X129235501Y-124446555D01*
X129198005Y-124435180D01*
X129163446Y-124416708D01*
X129133153Y-124391847D01*
X129108292Y-124361554D01*
X129089820Y-124326995D01*
X129078445Y-124289499D01*
X129074000Y-124244362D01*
X129074000Y-123505638D01*
X129078445Y-123460501D01*
X129089820Y-123423005D01*
X129108292Y-123388446D01*
X129133153Y-123358153D01*
X129163446Y-123333292D01*
X129198005Y-123314820D01*
X129235501Y-123303445D01*
X129280638Y-123299000D01*
X129919362Y-123299000D01*
X129964499Y-123303445D01*
G37*
G36*
X143151560Y-121299064D02*
G01*
X143303027Y-121329193D01*
X143517045Y-121417842D01*
X143517046Y-121417843D01*
X143709654Y-121546539D01*
X143873461Y-121710346D01*
X143903724Y-121755638D01*
X144002158Y-121902955D01*
X144090807Y-122116973D01*
X144090807Y-122116975D01*
X144136000Y-122344173D01*
X144136000Y-122575827D01*
X144134351Y-122584115D01*
X144090807Y-122803027D01*
X144002158Y-123017045D01*
X144002157Y-123017046D01*
X143873461Y-123209654D01*
X143709654Y-123373461D01*
X143581249Y-123459258D01*
X143517045Y-123502158D01*
X143303027Y-123590807D01*
X143151560Y-123620936D01*
X143075827Y-123636000D01*
X142844173Y-123636000D01*
X142768440Y-123620936D01*
X142616973Y-123590807D01*
X142402955Y-123502158D01*
X142338751Y-123459258D01*
X142210346Y-123373461D01*
X142046539Y-123209654D01*
X141917843Y-123017046D01*
X141917842Y-123017045D01*
X141829193Y-122803027D01*
X141785649Y-122584115D01*
X141784000Y-122575827D01*
X141784000Y-122344173D01*
X141829193Y-122116975D01*
X141829193Y-122116973D01*
X141917842Y-121902955D01*
X142016276Y-121755638D01*
X142046539Y-121710346D01*
X142210346Y-121546539D01*
X142402954Y-121417843D01*
X142402955Y-121417842D01*
X142616973Y-121329193D01*
X142768440Y-121299064D01*
X142844173Y-121284000D01*
X143075827Y-121284000D01*
X143151560Y-121299064D01*
G37*
G36*
X148231560Y-121299064D02*
G01*
X148383027Y-121329193D01*
X148597045Y-121417842D01*
X148597046Y-121417843D01*
X148789654Y-121546539D01*
X148953461Y-121710346D01*
X148983724Y-121755638D01*
X149082158Y-121902955D01*
X149170807Y-122116973D01*
X149170807Y-122116975D01*
X149216000Y-122344173D01*
X149216000Y-122575827D01*
X149214351Y-122584115D01*
X149170807Y-122803027D01*
X149082158Y-123017045D01*
X149082157Y-123017046D01*
X148953461Y-123209654D01*
X148789654Y-123373461D01*
X148661249Y-123459258D01*
X148597045Y-123502158D01*
X148383027Y-123590807D01*
X148231560Y-123620936D01*
X148155827Y-123636000D01*
X147924173Y-123636000D01*
X147848440Y-123620936D01*
X147696973Y-123590807D01*
X147482955Y-123502158D01*
X147418751Y-123459258D01*
X147290346Y-123373461D01*
X147126539Y-123209654D01*
X146997843Y-123017046D01*
X146997842Y-123017045D01*
X146909193Y-122803027D01*
X146865649Y-122584115D01*
X146864000Y-122575827D01*
X146864000Y-122344173D01*
X146909193Y-122116975D01*
X146909193Y-122116973D01*
X146997842Y-121902955D01*
X147096276Y-121755638D01*
X147126539Y-121710346D01*
X147290346Y-121546539D01*
X147482954Y-121417843D01*
X147482955Y-121417842D01*
X147696973Y-121329193D01*
X147848440Y-121299064D01*
X147924173Y-121284000D01*
X148155827Y-121284000D01*
X148231560Y-121299064D01*
G37*
G36*
X121951560Y-121299064D02*
G01*
X122103027Y-121329193D01*
X122317045Y-121417842D01*
X122317046Y-121417843D01*
X122509654Y-121546539D01*
X122673461Y-121710346D01*
X122703724Y-121755638D01*
X122802158Y-121902955D01*
X122890807Y-122116973D01*
X122890807Y-122116975D01*
X122936000Y-122344173D01*
X122936000Y-122575827D01*
X122934351Y-122584115D01*
X122890807Y-122803027D01*
X122802158Y-123017045D01*
X122802157Y-123017046D01*
X122673461Y-123209654D01*
X122509654Y-123373461D01*
X122381249Y-123459258D01*
X122317045Y-123502158D01*
X122103027Y-123590807D01*
X121951560Y-123620936D01*
X121875827Y-123636000D01*
X121644173Y-123636000D01*
X121568440Y-123620936D01*
X121416973Y-123590807D01*
X121202955Y-123502158D01*
X121138751Y-123459258D01*
X121010346Y-123373461D01*
X120846539Y-123209654D01*
X120717843Y-123017046D01*
X120717842Y-123017045D01*
X120629193Y-122803027D01*
X120585649Y-122584115D01*
X120584000Y-122575827D01*
X120584000Y-122344173D01*
X120629193Y-122116975D01*
X120629193Y-122116973D01*
X120717842Y-121902955D01*
X120816276Y-121755638D01*
X120846539Y-121710346D01*
X121010346Y-121546539D01*
X121202954Y-121417843D01*
X121202955Y-121417842D01*
X121416973Y-121329193D01*
X121568440Y-121299064D01*
X121644173Y-121284000D01*
X121875827Y-121284000D01*
X121951560Y-121299064D01*
G37*
G36*
X127031560Y-121299064D02*
G01*
X127183027Y-121329193D01*
X127397045Y-121417842D01*
X127397046Y-121417843D01*
X127589654Y-121546539D01*
X127753461Y-121710346D01*
X127783724Y-121755638D01*
X127882158Y-121902955D01*
X127970807Y-122116973D01*
X127970807Y-122116975D01*
X128016000Y-122344173D01*
X128016000Y-122575827D01*
X128014351Y-122584115D01*
X127970807Y-122803027D01*
X127882158Y-123017045D01*
X127882157Y-123017046D01*
X127753461Y-123209654D01*
X127589654Y-123373461D01*
X127461249Y-123459258D01*
X127397045Y-123502158D01*
X127183027Y-123590807D01*
X127031560Y-123620936D01*
X126955827Y-123636000D01*
X126724173Y-123636000D01*
X126648440Y-123620936D01*
X126496973Y-123590807D01*
X126282955Y-123502158D01*
X126218751Y-123459258D01*
X126090346Y-123373461D01*
X125926539Y-123209654D01*
X125797843Y-123017046D01*
X125797842Y-123017045D01*
X125709193Y-122803027D01*
X125665649Y-122584115D01*
X125664000Y-122575827D01*
X125664000Y-122344173D01*
X125709193Y-122116975D01*
X125709193Y-122116973D01*
X125797842Y-121902955D01*
X125896276Y-121755638D01*
X125926539Y-121710346D01*
X126090346Y-121546539D01*
X126282954Y-121417843D01*
X126282955Y-121417842D01*
X126496973Y-121329193D01*
X126648440Y-121299064D01*
X126724173Y-121284000D01*
X126955827Y-121284000D01*
X127031560Y-121299064D01*
G37*
G36*
X137625562Y-120978181D02*
G01*
X137660481Y-120988774D01*
X137692663Y-121005976D01*
X137720873Y-121029127D01*
X137744024Y-121057337D01*
X137761226Y-121089519D01*
X137771819Y-121124438D01*
X137776000Y-121166895D01*
X137776000Y-122633105D01*
X137771819Y-122675562D01*
X137761226Y-122710481D01*
X137744024Y-122742663D01*
X137720873Y-122770873D01*
X137692663Y-122794024D01*
X137660481Y-122811226D01*
X137625562Y-122821819D01*
X137583105Y-122826000D01*
X136441895Y-122826000D01*
X136399438Y-122821819D01*
X136364519Y-122811226D01*
X136332337Y-122794024D01*
X136304127Y-122770873D01*
X136280976Y-122742663D01*
X136263774Y-122710481D01*
X136253181Y-122675562D01*
X136249000Y-122633105D01*
X136249000Y-121166895D01*
X136253181Y-121124438D01*
X136263774Y-121089519D01*
X136280976Y-121057337D01*
X136304127Y-121029127D01*
X136332337Y-121005976D01*
X136364519Y-120988774D01*
X136399438Y-120978181D01*
X136441895Y-120974000D01*
X137583105Y-120974000D01*
X137625562Y-120978181D01*
G37*
G36*
X140600562Y-120978181D02*
G01*
X140635481Y-120988774D01*
X140667663Y-121005976D01*
X140695873Y-121029127D01*
X140719024Y-121057337D01*
X140736226Y-121089519D01*
X140746819Y-121124438D01*
X140751000Y-121166895D01*
X140751000Y-122633105D01*
X140746819Y-122675562D01*
X140736226Y-122710481D01*
X140719024Y-122742663D01*
X140695873Y-122770873D01*
X140667663Y-122794024D01*
X140635481Y-122811226D01*
X140600562Y-122821819D01*
X140558105Y-122826000D01*
X139416895Y-122826000D01*
X139374438Y-122821819D01*
X139339519Y-122811226D01*
X139307337Y-122794024D01*
X139279127Y-122770873D01*
X139255976Y-122742663D01*
X139238774Y-122710481D01*
X139228181Y-122675562D01*
X139224000Y-122633105D01*
X139224000Y-121166895D01*
X139228181Y-121124438D01*
X139238774Y-121089519D01*
X139255976Y-121057337D01*
X139279127Y-121029127D01*
X139307337Y-121005976D01*
X139339519Y-120988774D01*
X139374438Y-120978181D01*
X139416895Y-120974000D01*
X140558105Y-120974000D01*
X140600562Y-120978181D01*
G37*
G36*
X135021000Y-122726000D02*
G01*
X134119000Y-122726000D01*
X134119000Y-120974000D01*
X135021000Y-120974000D01*
X135021000Y-122726000D01*
G37*
G36*
X132481000Y-122726000D02*
G01*
X131579000Y-122726000D01*
X131579000Y-120974000D01*
X132481000Y-120974000D01*
X132481000Y-122726000D01*
G37*
G36*
X129964499Y-121553445D02*
G01*
X130001995Y-121564820D01*
X130036554Y-121583292D01*
X130066847Y-121608153D01*
X130091708Y-121638446D01*
X130110180Y-121673005D01*
X130121555Y-121710501D01*
X130126000Y-121755638D01*
X130126000Y-122494362D01*
X130121555Y-122539499D01*
X130110180Y-122576995D01*
X130091708Y-122611554D01*
X130066847Y-122641847D01*
X130036554Y-122666708D01*
X130001995Y-122685180D01*
X129964499Y-122696555D01*
X129919362Y-122701000D01*
X129280638Y-122701000D01*
X129235501Y-122696555D01*
X129198005Y-122685180D01*
X129163446Y-122666708D01*
X129133153Y-122641847D01*
X129108292Y-122611554D01*
X129089820Y-122576995D01*
X129078445Y-122539499D01*
X129074000Y-122494362D01*
X129074000Y-121755638D01*
X129078445Y-121710501D01*
X129089820Y-121673005D01*
X129108292Y-121638446D01*
X129133153Y-121608153D01*
X129163446Y-121583292D01*
X129198005Y-121564820D01*
X129235501Y-121553445D01*
X129280638Y-121549000D01*
X129919362Y-121549000D01*
X129964499Y-121553445D01*
G37*
G36*
X132481000Y-119026000D02*
G01*
X131579000Y-119026000D01*
X131579000Y-117274000D01*
X132481000Y-117274000D01*
X132481000Y-119026000D01*
G37*
G36*
X135021000Y-119026000D02*
G01*
X134119000Y-119026000D01*
X134119000Y-117274000D01*
X135021000Y-117274000D01*
X135021000Y-119026000D01*
G37*
G36*
X129764499Y-117803445D02*
G01*
X129801995Y-117814820D01*
X129836554Y-117833292D01*
X129866847Y-117858153D01*
X129891708Y-117888446D01*
X129910180Y-117923005D01*
X129921555Y-117960501D01*
X129926000Y-118005638D01*
X129926000Y-118744362D01*
X129921555Y-118789499D01*
X129910180Y-118826995D01*
X129891708Y-118861554D01*
X129866847Y-118891847D01*
X129836554Y-118916708D01*
X129801995Y-118935180D01*
X129764499Y-118946555D01*
X129719362Y-118951000D01*
X129080638Y-118951000D01*
X129035501Y-118946555D01*
X128998005Y-118935180D01*
X128963446Y-118916708D01*
X128933153Y-118891847D01*
X128908292Y-118861554D01*
X128889820Y-118826995D01*
X128878445Y-118789499D01*
X128874000Y-118744362D01*
X128874000Y-118005638D01*
X128878445Y-117960501D01*
X128889820Y-117923005D01*
X128908292Y-117888446D01*
X128933153Y-117858153D01*
X128963446Y-117833292D01*
X128998005Y-117814820D01*
X129035501Y-117803445D01*
X129080638Y-117799000D01*
X129719362Y-117799000D01*
X129764499Y-117803445D01*
G37*
G36*
X137625562Y-116978181D02*
G01*
X137660481Y-116988774D01*
X137692663Y-117005976D01*
X137720873Y-117029127D01*
X137744024Y-117057337D01*
X137761226Y-117089519D01*
X137771819Y-117124438D01*
X137776000Y-117166895D01*
X137776000Y-118633105D01*
X137771819Y-118675562D01*
X137761226Y-118710481D01*
X137744024Y-118742663D01*
X137720873Y-118770873D01*
X137692663Y-118794024D01*
X137660481Y-118811226D01*
X137625562Y-118821819D01*
X137583105Y-118826000D01*
X136441895Y-118826000D01*
X136399438Y-118821819D01*
X136364519Y-118811226D01*
X136332337Y-118794024D01*
X136304127Y-118770873D01*
X136280976Y-118742663D01*
X136263774Y-118710481D01*
X136253181Y-118675562D01*
X136249000Y-118633105D01*
X136249000Y-117166895D01*
X136253181Y-117124438D01*
X136263774Y-117089519D01*
X136280976Y-117057337D01*
X136304127Y-117029127D01*
X136332337Y-117005976D01*
X136364519Y-116988774D01*
X136399438Y-116978181D01*
X136441895Y-116974000D01*
X137583105Y-116974000D01*
X137625562Y-116978181D01*
G37*
G36*
X140600562Y-116978181D02*
G01*
X140635481Y-116988774D01*
X140667663Y-117005976D01*
X140695873Y-117029127D01*
X140719024Y-117057337D01*
X140736226Y-117089519D01*
X140746819Y-117124438D01*
X140751000Y-117166895D01*
X140751000Y-118633105D01*
X140746819Y-118675562D01*
X140736226Y-118710481D01*
X140719024Y-118742663D01*
X140695873Y-118770873D01*
X140667663Y-118794024D01*
X140635481Y-118811226D01*
X140600562Y-118821819D01*
X140558105Y-118826000D01*
X139416895Y-118826000D01*
X139374438Y-118821819D01*
X139339519Y-118811226D01*
X139307337Y-118794024D01*
X139279127Y-118770873D01*
X139255976Y-118742663D01*
X139238774Y-118710481D01*
X139228181Y-118675562D01*
X139224000Y-118633105D01*
X139224000Y-117166895D01*
X139228181Y-117124438D01*
X139238774Y-117089519D01*
X139255976Y-117057337D01*
X139279127Y-117029127D01*
X139307337Y-117005976D01*
X139339519Y-116988774D01*
X139374438Y-116978181D01*
X139416895Y-116974000D01*
X140558105Y-116974000D01*
X140600562Y-116978181D01*
G37*
G36*
X121951560Y-116379064D02*
G01*
X122103027Y-116409193D01*
X122317045Y-116497842D01*
X122317046Y-116497843D01*
X122509654Y-116626539D01*
X122673461Y-116790346D01*
X122759258Y-116918751D01*
X122802158Y-116982955D01*
X122890807Y-117196973D01*
X122936000Y-117424174D01*
X122936000Y-117655826D01*
X122890807Y-117883027D01*
X122802158Y-118097045D01*
X122802157Y-118097046D01*
X122673461Y-118289654D01*
X122509654Y-118453461D01*
X122381249Y-118539258D01*
X122317045Y-118582158D01*
X122103027Y-118670807D01*
X121951560Y-118700936D01*
X121875827Y-118716000D01*
X121644173Y-118716000D01*
X121568440Y-118700936D01*
X121416973Y-118670807D01*
X121202955Y-118582158D01*
X121138751Y-118539258D01*
X121010346Y-118453461D01*
X120846539Y-118289654D01*
X120717843Y-118097046D01*
X120717842Y-118097045D01*
X120629193Y-117883027D01*
X120584000Y-117655826D01*
X120584000Y-117424174D01*
X120629193Y-117196973D01*
X120717842Y-116982955D01*
X120760742Y-116918751D01*
X120846539Y-116790346D01*
X121010346Y-116626539D01*
X121202954Y-116497843D01*
X121202955Y-116497842D01*
X121416973Y-116409193D01*
X121568440Y-116379064D01*
X121644173Y-116364000D01*
X121875827Y-116364000D01*
X121951560Y-116379064D01*
G37*
G36*
X127031560Y-116379064D02*
G01*
X127183027Y-116409193D01*
X127397045Y-116497842D01*
X127397046Y-116497843D01*
X127589654Y-116626539D01*
X127753461Y-116790346D01*
X127839258Y-116918751D01*
X127882158Y-116982955D01*
X127970807Y-117196973D01*
X128016000Y-117424174D01*
X128016000Y-117655826D01*
X127970807Y-117883027D01*
X127882158Y-118097045D01*
X127882157Y-118097046D01*
X127753461Y-118289654D01*
X127589654Y-118453461D01*
X127461249Y-118539258D01*
X127397045Y-118582158D01*
X127183027Y-118670807D01*
X127031560Y-118700936D01*
X126955827Y-118716000D01*
X126724173Y-118716000D01*
X126648440Y-118700936D01*
X126496973Y-118670807D01*
X126282955Y-118582158D01*
X126218751Y-118539258D01*
X126090346Y-118453461D01*
X125926539Y-118289654D01*
X125797843Y-118097046D01*
X125797842Y-118097045D01*
X125709193Y-117883027D01*
X125664000Y-117655826D01*
X125664000Y-117424174D01*
X125709193Y-117196973D01*
X125797842Y-116982955D01*
X125840742Y-116918751D01*
X125926539Y-116790346D01*
X126090346Y-116626539D01*
X126282954Y-116497843D01*
X126282955Y-116497842D01*
X126496973Y-116409193D01*
X126648440Y-116379064D01*
X126724173Y-116364000D01*
X126955827Y-116364000D01*
X127031560Y-116379064D01*
G37*
G36*
X143151560Y-116379064D02*
G01*
X143303027Y-116409193D01*
X143517045Y-116497842D01*
X143517046Y-116497843D01*
X143709654Y-116626539D01*
X143873461Y-116790346D01*
X143959258Y-116918751D01*
X144002158Y-116982955D01*
X144090807Y-117196973D01*
X144136000Y-117424174D01*
X144136000Y-117655826D01*
X144090807Y-117883027D01*
X144002158Y-118097045D01*
X144002157Y-118097046D01*
X143873461Y-118289654D01*
X143709654Y-118453461D01*
X143581249Y-118539258D01*
X143517045Y-118582158D01*
X143303027Y-118670807D01*
X143151560Y-118700936D01*
X143075827Y-118716000D01*
X142844173Y-118716000D01*
X142768440Y-118700936D01*
X142616973Y-118670807D01*
X142402955Y-118582158D01*
X142338751Y-118539258D01*
X142210346Y-118453461D01*
X142046539Y-118289654D01*
X141917843Y-118097046D01*
X141917842Y-118097045D01*
X141829193Y-117883027D01*
X141784000Y-117655826D01*
X141784000Y-117424174D01*
X141829193Y-117196973D01*
X141917842Y-116982955D01*
X141960742Y-116918751D01*
X142046539Y-116790346D01*
X142210346Y-116626539D01*
X142402954Y-116497843D01*
X142402955Y-116497842D01*
X142616973Y-116409193D01*
X142768440Y-116379064D01*
X142844173Y-116364000D01*
X143075827Y-116364000D01*
X143151560Y-116379064D01*
G37*
G36*
X148231560Y-116379064D02*
G01*
X148383027Y-116409193D01*
X148597045Y-116497842D01*
X148597046Y-116497843D01*
X148789654Y-116626539D01*
X148953461Y-116790346D01*
X149039258Y-116918751D01*
X149082158Y-116982955D01*
X149170807Y-117196973D01*
X149216000Y-117424174D01*
X149216000Y-117655826D01*
X149170807Y-117883027D01*
X149082158Y-118097045D01*
X149082157Y-118097046D01*
X148953461Y-118289654D01*
X148789654Y-118453461D01*
X148661249Y-118539258D01*
X148597045Y-118582158D01*
X148383027Y-118670807D01*
X148231560Y-118700936D01*
X148155827Y-118716000D01*
X147924173Y-118716000D01*
X147848440Y-118700936D01*
X147696973Y-118670807D01*
X147482955Y-118582158D01*
X147418751Y-118539258D01*
X147290346Y-118453461D01*
X147126539Y-118289654D01*
X146997843Y-118097046D01*
X146997842Y-118097045D01*
X146909193Y-117883027D01*
X146864000Y-117655826D01*
X146864000Y-117424174D01*
X146909193Y-117196973D01*
X146997842Y-116982955D01*
X147040742Y-116918751D01*
X147126539Y-116790346D01*
X147290346Y-116626539D01*
X147482954Y-116497843D01*
X147482955Y-116497842D01*
X147696973Y-116409193D01*
X147848440Y-116379064D01*
X147924173Y-116364000D01*
X148155827Y-116364000D01*
X148231560Y-116379064D01*
G37*
G36*
X129764499Y-116053445D02*
G01*
X129801995Y-116064820D01*
X129836554Y-116083292D01*
X129866847Y-116108153D01*
X129891708Y-116138446D01*
X129910180Y-116173005D01*
X129921555Y-116210501D01*
X129926000Y-116255638D01*
X129926000Y-116994362D01*
X129921555Y-117039499D01*
X129910180Y-117076995D01*
X129891708Y-117111554D01*
X129866847Y-117141847D01*
X129836554Y-117166708D01*
X129801995Y-117185180D01*
X129764499Y-117196555D01*
X129719362Y-117201000D01*
X129080638Y-117201000D01*
X129035501Y-117196555D01*
X128998005Y-117185180D01*
X128963446Y-117166708D01*
X128933153Y-117141847D01*
X128908292Y-117111554D01*
X128889820Y-117076995D01*
X128878445Y-117039499D01*
X128874000Y-116994362D01*
X128874000Y-116255638D01*
X128878445Y-116210501D01*
X128889820Y-116173005D01*
X128908292Y-116138446D01*
X128933153Y-116108153D01*
X128963446Y-116083292D01*
X128998005Y-116064820D01*
X129035501Y-116053445D01*
X129080638Y-116049000D01*
X129719362Y-116049000D01*
X129764499Y-116053445D01*
G37*
G36*
X124475271Y-113937783D02*
G01*
X124613858Y-113965350D01*
X124809677Y-114046461D01*
X124985910Y-114164216D01*
X125135784Y-114314090D01*
X125253539Y-114490323D01*
X125334650Y-114686142D01*
X125376000Y-114894023D01*
X125376000Y-115105977D01*
X125334650Y-115313858D01*
X125253539Y-115509677D01*
X125135784Y-115685910D01*
X124985910Y-115835784D01*
X124809677Y-115953539D01*
X124613858Y-116034650D01*
X124516312Y-116054053D01*
X124405978Y-116076000D01*
X124194022Y-116076000D01*
X124083688Y-116054053D01*
X123986142Y-116034650D01*
X123790323Y-115953539D01*
X123614090Y-115835784D01*
X123464216Y-115685910D01*
X123346461Y-115509677D01*
X123265350Y-115313858D01*
X123224000Y-115105977D01*
X123224000Y-114894023D01*
X123265350Y-114686142D01*
X123346461Y-114490323D01*
X123464216Y-114314090D01*
X123614090Y-114164216D01*
X123790323Y-114046461D01*
X123986142Y-113965350D01*
X124124729Y-113937783D01*
X124194022Y-113924000D01*
X124405978Y-113924000D01*
X124475271Y-113937783D01*
G37*
G36*
X145675271Y-113937783D02*
G01*
X145813858Y-113965350D01*
X146009677Y-114046461D01*
X146185910Y-114164216D01*
X146335784Y-114314090D01*
X146453539Y-114490323D01*
X146534650Y-114686142D01*
X146576000Y-114894023D01*
X146576000Y-115105977D01*
X146534650Y-115313858D01*
X146453539Y-115509677D01*
X146335784Y-115685910D01*
X146185910Y-115835784D01*
X146009677Y-115953539D01*
X145813858Y-116034650D01*
X145716312Y-116054053D01*
X145605978Y-116076000D01*
X145394022Y-116076000D01*
X145283688Y-116054053D01*
X145186142Y-116034650D01*
X144990323Y-115953539D01*
X144814090Y-115835784D01*
X144664216Y-115685910D01*
X144546461Y-115509677D01*
X144465350Y-115313858D01*
X144424000Y-115105977D01*
X144424000Y-114894023D01*
X144465350Y-114686142D01*
X144546461Y-114490323D01*
X144664216Y-114314090D01*
X144814090Y-114164216D01*
X144990323Y-114046461D01*
X145186142Y-113965350D01*
X145324729Y-113937783D01*
X145394022Y-113924000D01*
X145605978Y-113924000D01*
X145675271Y-113937783D01*
G37*
G36*
X137438674Y-114253465D02*
G01*
X137476367Y-114264899D01*
X137511103Y-114283466D01*
X137541548Y-114308452D01*
X137566534Y-114338897D01*
X137585101Y-114373633D01*
X137596535Y-114411326D01*
X137601000Y-114456661D01*
X137601000Y-115543339D01*
X137596535Y-115588674D01*
X137585101Y-115626367D01*
X137566534Y-115661103D01*
X137541548Y-115691548D01*
X137511103Y-115716534D01*
X137476367Y-115735101D01*
X137438674Y-115746535D01*
X137393339Y-115751000D01*
X136556661Y-115751000D01*
X136511326Y-115746535D01*
X136473633Y-115735101D01*
X136438897Y-115716534D01*
X136408452Y-115691548D01*
X136383466Y-115661103D01*
X136364899Y-115626367D01*
X136353465Y-115588674D01*
X136349000Y-115543339D01*
X136349000Y-114456661D01*
X136353465Y-114411326D01*
X136364899Y-114373633D01*
X136383466Y-114338897D01*
X136408452Y-114308452D01*
X136438897Y-114283466D01*
X136473633Y-114264899D01*
X136511326Y-114253465D01*
X136556661Y-114249000D01*
X137393339Y-114249000D01*
X137438674Y-114253465D01*
G37*
G36*
X139488674Y-114253465D02*
G01*
X139526367Y-114264899D01*
X139561103Y-114283466D01*
X139591548Y-114308452D01*
X139616534Y-114338897D01*
X139635101Y-114373633D01*
X139646535Y-114411326D01*
X139651000Y-114456661D01*
X139651000Y-115543339D01*
X139646535Y-115588674D01*
X139635101Y-115626367D01*
X139616534Y-115661103D01*
X139591548Y-115691548D01*
X139561103Y-115716534D01*
X139526367Y-115735101D01*
X139488674Y-115746535D01*
X139443339Y-115751000D01*
X138606661Y-115751000D01*
X138561326Y-115746535D01*
X138523633Y-115735101D01*
X138488897Y-115716534D01*
X138458452Y-115691548D01*
X138433466Y-115661103D01*
X138414899Y-115626367D01*
X138403465Y-115588674D01*
X138399000Y-115543339D01*
X138399000Y-114456661D01*
X138403465Y-114411326D01*
X138414899Y-114373633D01*
X138433466Y-114338897D01*
X138458452Y-114308452D01*
X138488897Y-114283466D01*
X138523633Y-114264899D01*
X138561326Y-114253465D01*
X138606661Y-114249000D01*
X139443339Y-114249000D01*
X139488674Y-114253465D01*
G37*
G36*
X129964499Y-113303445D02*
G01*
X130001995Y-113314820D01*
X130036554Y-113333292D01*
X130066847Y-113358153D01*
X130091708Y-113388446D01*
X130110180Y-113423005D01*
X130121555Y-113460501D01*
X130126000Y-113505638D01*
X130126000Y-114244362D01*
X130121555Y-114289499D01*
X130110180Y-114326995D01*
X130091708Y-114361554D01*
X130066847Y-114391847D01*
X130036554Y-114416708D01*
X130001995Y-114435180D01*
X129964499Y-114446555D01*
X129919362Y-114451000D01*
X129280638Y-114451000D01*
X129235501Y-114446555D01*
X129198005Y-114435180D01*
X129163446Y-114416708D01*
X129133153Y-114391847D01*
X129108292Y-114361554D01*
X129089820Y-114326995D01*
X129078445Y-114289499D01*
X129074000Y-114244362D01*
X129074000Y-113505638D01*
X129078445Y-113460501D01*
X129089820Y-113423005D01*
X129108292Y-113388446D01*
X129133153Y-113358153D01*
X129163446Y-113333292D01*
X129198005Y-113314820D01*
X129235501Y-113303445D01*
X129280638Y-113299000D01*
X129919362Y-113299000D01*
X129964499Y-113303445D01*
G37*
G36*
X121951560Y-111299064D02*
G01*
X122103027Y-111329193D01*
X122317045Y-111417842D01*
X122317046Y-111417843D01*
X122509654Y-111546539D01*
X122673461Y-111710346D01*
X122703724Y-111755638D01*
X122802158Y-111902955D01*
X122890807Y-112116973D01*
X122890807Y-112116975D01*
X122936000Y-112344173D01*
X122936000Y-112575827D01*
X122934351Y-112584115D01*
X122890807Y-112803027D01*
X122802158Y-113017045D01*
X122802157Y-113017046D01*
X122673461Y-113209654D01*
X122509654Y-113373461D01*
X122381249Y-113459258D01*
X122317045Y-113502158D01*
X122103027Y-113590807D01*
X121951560Y-113620936D01*
X121875827Y-113636000D01*
X121644173Y-113636000D01*
X121568440Y-113620936D01*
X121416973Y-113590807D01*
X121202955Y-113502158D01*
X121138751Y-113459258D01*
X121010346Y-113373461D01*
X120846539Y-113209654D01*
X120717843Y-113017046D01*
X120717842Y-113017045D01*
X120629193Y-112803027D01*
X120585649Y-112584115D01*
X120584000Y-112575827D01*
X120584000Y-112344173D01*
X120629193Y-112116975D01*
X120629193Y-112116973D01*
X120717842Y-111902955D01*
X120816276Y-111755638D01*
X120846539Y-111710346D01*
X121010346Y-111546539D01*
X121202954Y-111417843D01*
X121202955Y-111417842D01*
X121416973Y-111329193D01*
X121568440Y-111299064D01*
X121644173Y-111284000D01*
X121875827Y-111284000D01*
X121951560Y-111299064D01*
G37*
G36*
X127031560Y-111299064D02*
G01*
X127183027Y-111329193D01*
X127397045Y-111417842D01*
X127397046Y-111417843D01*
X127589654Y-111546539D01*
X127753461Y-111710346D01*
X127783724Y-111755638D01*
X127882158Y-111902955D01*
X127970807Y-112116973D01*
X127970807Y-112116975D01*
X128016000Y-112344173D01*
X128016000Y-112575827D01*
X128014351Y-112584115D01*
X127970807Y-112803027D01*
X127882158Y-113017045D01*
X127882157Y-113017046D01*
X127753461Y-113209654D01*
X127589654Y-113373461D01*
X127461249Y-113459258D01*
X127397045Y-113502158D01*
X127183027Y-113590807D01*
X127031560Y-113620936D01*
X126955827Y-113636000D01*
X126724173Y-113636000D01*
X126648440Y-113620936D01*
X126496973Y-113590807D01*
X126282955Y-113502158D01*
X126218751Y-113459258D01*
X126090346Y-113373461D01*
X125926539Y-113209654D01*
X125797843Y-113017046D01*
X125797842Y-113017045D01*
X125709193Y-112803027D01*
X125665649Y-112584115D01*
X125664000Y-112575827D01*
X125664000Y-112344173D01*
X125709193Y-112116975D01*
X125709193Y-112116973D01*
X125797842Y-111902955D01*
X125896276Y-111755638D01*
X125926539Y-111710346D01*
X126090346Y-111546539D01*
X126282954Y-111417843D01*
X126282955Y-111417842D01*
X126496973Y-111329193D01*
X126648440Y-111299064D01*
X126724173Y-111284000D01*
X126955827Y-111284000D01*
X127031560Y-111299064D01*
G37*
G36*
X148231560Y-111299064D02*
G01*
X148383027Y-111329193D01*
X148597045Y-111417842D01*
X148597046Y-111417843D01*
X148789654Y-111546539D01*
X148953461Y-111710346D01*
X148983724Y-111755638D01*
X149082158Y-111902955D01*
X149170807Y-112116973D01*
X149170807Y-112116975D01*
X149216000Y-112344173D01*
X149216000Y-112575827D01*
X149214351Y-112584115D01*
X149170807Y-112803027D01*
X149082158Y-113017045D01*
X149082157Y-113017046D01*
X148953461Y-113209654D01*
X148789654Y-113373461D01*
X148661249Y-113459258D01*
X148597045Y-113502158D01*
X148383027Y-113590807D01*
X148231560Y-113620936D01*
X148155827Y-113636000D01*
X147924173Y-113636000D01*
X147848440Y-113620936D01*
X147696973Y-113590807D01*
X147482955Y-113502158D01*
X147418751Y-113459258D01*
X147290346Y-113373461D01*
X147126539Y-113209654D01*
X146997843Y-113017046D01*
X146997842Y-113017045D01*
X146909193Y-112803027D01*
X146865649Y-112584115D01*
X146864000Y-112575827D01*
X146864000Y-112344173D01*
X146909193Y-112116975D01*
X146909193Y-112116973D01*
X146997842Y-111902955D01*
X147096276Y-111755638D01*
X147126539Y-111710346D01*
X147290346Y-111546539D01*
X147482954Y-111417843D01*
X147482955Y-111417842D01*
X147696973Y-111329193D01*
X147848440Y-111299064D01*
X147924173Y-111284000D01*
X148155827Y-111284000D01*
X148231560Y-111299064D01*
G37*
G36*
X143151560Y-111299064D02*
G01*
X143303027Y-111329193D01*
X143517045Y-111417842D01*
X143517046Y-111417843D01*
X143709654Y-111546539D01*
X143873461Y-111710346D01*
X143903724Y-111755638D01*
X144002158Y-111902955D01*
X144090807Y-112116973D01*
X144090807Y-112116975D01*
X144136000Y-112344173D01*
X144136000Y-112575827D01*
X144134351Y-112584115D01*
X144090807Y-112803027D01*
X144002158Y-113017045D01*
X144002157Y-113017046D01*
X143873461Y-113209654D01*
X143709654Y-113373461D01*
X143581249Y-113459258D01*
X143517045Y-113502158D01*
X143303027Y-113590807D01*
X143151560Y-113620936D01*
X143075827Y-113636000D01*
X142844173Y-113636000D01*
X142768440Y-113620936D01*
X142616973Y-113590807D01*
X142402955Y-113502158D01*
X142338751Y-113459258D01*
X142210346Y-113373461D01*
X142046539Y-113209654D01*
X141917843Y-113017046D01*
X141917842Y-113017045D01*
X141829193Y-112803027D01*
X141785649Y-112584115D01*
X141784000Y-112575827D01*
X141784000Y-112344173D01*
X141829193Y-112116975D01*
X141829193Y-112116973D01*
X141917842Y-111902955D01*
X142016276Y-111755638D01*
X142046539Y-111710346D01*
X142210346Y-111546539D01*
X142402954Y-111417843D01*
X142402955Y-111417842D01*
X142616973Y-111329193D01*
X142768440Y-111299064D01*
X142844173Y-111284000D01*
X143075827Y-111284000D01*
X143151560Y-111299064D01*
G37*
G36*
X137625562Y-110978181D02*
G01*
X137660481Y-110988774D01*
X137692663Y-111005976D01*
X137720873Y-111029127D01*
X137744024Y-111057337D01*
X137761226Y-111089519D01*
X137771819Y-111124438D01*
X137776000Y-111166895D01*
X137776000Y-112633105D01*
X137771819Y-112675562D01*
X137761226Y-112710481D01*
X137744024Y-112742663D01*
X137720873Y-112770873D01*
X137692663Y-112794024D01*
X137660481Y-112811226D01*
X137625562Y-112821819D01*
X137583105Y-112826000D01*
X136441895Y-112826000D01*
X136399438Y-112821819D01*
X136364519Y-112811226D01*
X136332337Y-112794024D01*
X136304127Y-112770873D01*
X136280976Y-112742663D01*
X136263774Y-112710481D01*
X136253181Y-112675562D01*
X136249000Y-112633105D01*
X136249000Y-111166895D01*
X136253181Y-111124438D01*
X136263774Y-111089519D01*
X136280976Y-111057337D01*
X136304127Y-111029127D01*
X136332337Y-111005976D01*
X136364519Y-110988774D01*
X136399438Y-110978181D01*
X136441895Y-110974000D01*
X137583105Y-110974000D01*
X137625562Y-110978181D01*
G37*
G36*
X140600562Y-110978181D02*
G01*
X140635481Y-110988774D01*
X140667663Y-111005976D01*
X140695873Y-111029127D01*
X140719024Y-111057337D01*
X140736226Y-111089519D01*
X140746819Y-111124438D01*
X140751000Y-111166895D01*
X140751000Y-112633105D01*
X140746819Y-112675562D01*
X140736226Y-112710481D01*
X140719024Y-112742663D01*
X140695873Y-112770873D01*
X140667663Y-112794024D01*
X140635481Y-112811226D01*
X140600562Y-112821819D01*
X140558105Y-112826000D01*
X139416895Y-112826000D01*
X139374438Y-112821819D01*
X139339519Y-112811226D01*
X139307337Y-112794024D01*
X139279127Y-112770873D01*
X139255976Y-112742663D01*
X139238774Y-112710481D01*
X139228181Y-112675562D01*
X139224000Y-112633105D01*
X139224000Y-111166895D01*
X139228181Y-111124438D01*
X139238774Y-111089519D01*
X139255976Y-111057337D01*
X139279127Y-111029127D01*
X139307337Y-111005976D01*
X139339519Y-110988774D01*
X139374438Y-110978181D01*
X139416895Y-110974000D01*
X140558105Y-110974000D01*
X140600562Y-110978181D01*
G37*
G36*
X132481000Y-112726000D02*
G01*
X131579000Y-112726000D01*
X131579000Y-110974000D01*
X132481000Y-110974000D01*
X132481000Y-112726000D01*
G37*
G36*
X135021000Y-112726000D02*
G01*
X134119000Y-112726000D01*
X134119000Y-110974000D01*
X135021000Y-110974000D01*
X135021000Y-112726000D01*
G37*
G36*
X129964499Y-111553445D02*
G01*
X130001995Y-111564820D01*
X130036554Y-111583292D01*
X130066847Y-111608153D01*
X130091708Y-111638446D01*
X130110180Y-111673005D01*
X130121555Y-111710501D01*
X130126000Y-111755638D01*
X130126000Y-112494362D01*
X130121555Y-112539499D01*
X130110180Y-112576995D01*
X130091708Y-112611554D01*
X130066847Y-112641847D01*
X130036554Y-112666708D01*
X130001995Y-112685180D01*
X129964499Y-112696555D01*
X129919362Y-112701000D01*
X129280638Y-112701000D01*
X129235501Y-112696555D01*
X129198005Y-112685180D01*
X129163446Y-112666708D01*
X129133153Y-112641847D01*
X129108292Y-112611554D01*
X129089820Y-112576995D01*
X129078445Y-112539499D01*
X129074000Y-112494362D01*
X129074000Y-111755638D01*
X129078445Y-111710501D01*
X129089820Y-111673005D01*
X129108292Y-111638446D01*
X129133153Y-111608153D01*
X129163446Y-111583292D01*
X129198005Y-111564820D01*
X129235501Y-111553445D01*
X129280638Y-111549000D01*
X129919362Y-111549000D01*
X129964499Y-111553445D01*
G37*
G36*
X135021000Y-109026000D02*
G01*
X134119000Y-109026000D01*
X134119000Y-107274000D01*
X135021000Y-107274000D01*
X135021000Y-109026000D01*
G37*
G36*
X132481000Y-109026000D02*
G01*
X131579000Y-109026000D01*
X131579000Y-107274000D01*
X132481000Y-107274000D01*
X132481000Y-109026000D01*
G37*
G36*
X129764499Y-107803445D02*
G01*
X129801995Y-107814820D01*
X129836554Y-107833292D01*
X129866847Y-107858153D01*
X129891708Y-107888446D01*
X129910180Y-107923005D01*
X129921555Y-107960501D01*
X129926000Y-108005638D01*
X129926000Y-108744362D01*
X129921555Y-108789499D01*
X129910180Y-108826995D01*
X129891708Y-108861554D01*
X129866847Y-108891847D01*
X129836554Y-108916708D01*
X129801995Y-108935180D01*
X129764499Y-108946555D01*
X129719362Y-108951000D01*
X129080638Y-108951000D01*
X129035501Y-108946555D01*
X128998005Y-108935180D01*
X128963446Y-108916708D01*
X128933153Y-108891847D01*
X128908292Y-108861554D01*
X128889820Y-108826995D01*
X128878445Y-108789499D01*
X128874000Y-108744362D01*
X128874000Y-108005638D01*
X128878445Y-107960501D01*
X128889820Y-107923005D01*
X128908292Y-107888446D01*
X128933153Y-107858153D01*
X128963446Y-107833292D01*
X128998005Y-107814820D01*
X129035501Y-107803445D01*
X129080638Y-107799000D01*
X129719362Y-107799000D01*
X129764499Y-107803445D01*
G37*
G36*
X137625562Y-106978181D02*
G01*
X137660481Y-106988774D01*
X137692663Y-107005976D01*
X137720873Y-107029127D01*
X137744024Y-107057337D01*
X137761226Y-107089519D01*
X137771819Y-107124438D01*
X137776000Y-107166895D01*
X137776000Y-108633105D01*
X137771819Y-108675562D01*
X137761226Y-108710481D01*
X137744024Y-108742663D01*
X137720873Y-108770873D01*
X137692663Y-108794024D01*
X137660481Y-108811226D01*
X137625562Y-108821819D01*
X137583105Y-108826000D01*
X136441895Y-108826000D01*
X136399438Y-108821819D01*
X136364519Y-108811226D01*
X136332337Y-108794024D01*
X136304127Y-108770873D01*
X136280976Y-108742663D01*
X136263774Y-108710481D01*
X136253181Y-108675562D01*
X136249000Y-108633105D01*
X136249000Y-107166895D01*
X136253181Y-107124438D01*
X136263774Y-107089519D01*
X136280976Y-107057337D01*
X136304127Y-107029127D01*
X136332337Y-107005976D01*
X136364519Y-106988774D01*
X136399438Y-106978181D01*
X136441895Y-106974000D01*
X137583105Y-106974000D01*
X137625562Y-106978181D01*
G37*
G36*
X140600562Y-106978181D02*
G01*
X140635481Y-106988774D01*
X140667663Y-107005976D01*
X140695873Y-107029127D01*
X140719024Y-107057337D01*
X140736226Y-107089519D01*
X140746819Y-107124438D01*
X140751000Y-107166895D01*
X140751000Y-108633105D01*
X140746819Y-108675562D01*
X140736226Y-108710481D01*
X140719024Y-108742663D01*
X140695873Y-108770873D01*
X140667663Y-108794024D01*
X140635481Y-108811226D01*
X140600562Y-108821819D01*
X140558105Y-108826000D01*
X139416895Y-108826000D01*
X139374438Y-108821819D01*
X139339519Y-108811226D01*
X139307337Y-108794024D01*
X139279127Y-108770873D01*
X139255976Y-108742663D01*
X139238774Y-108710481D01*
X139228181Y-108675562D01*
X139224000Y-108633105D01*
X139224000Y-107166895D01*
X139228181Y-107124438D01*
X139238774Y-107089519D01*
X139255976Y-107057337D01*
X139279127Y-107029127D01*
X139307337Y-107005976D01*
X139339519Y-106988774D01*
X139374438Y-106978181D01*
X139416895Y-106974000D01*
X140558105Y-106974000D01*
X140600562Y-106978181D01*
G37*
G36*
X121951560Y-106379064D02*
G01*
X122103027Y-106409193D01*
X122317045Y-106497842D01*
X122317046Y-106497843D01*
X122509654Y-106626539D01*
X122673461Y-106790346D01*
X122759258Y-106918751D01*
X122802158Y-106982955D01*
X122890807Y-107196973D01*
X122936000Y-107424174D01*
X122936000Y-107655826D01*
X122890807Y-107883027D01*
X122802158Y-108097045D01*
X122802157Y-108097046D01*
X122673461Y-108289654D01*
X122509654Y-108453461D01*
X122381249Y-108539258D01*
X122317045Y-108582158D01*
X122103027Y-108670807D01*
X121951560Y-108700936D01*
X121875827Y-108716000D01*
X121644173Y-108716000D01*
X121568440Y-108700936D01*
X121416973Y-108670807D01*
X121202955Y-108582158D01*
X121138751Y-108539258D01*
X121010346Y-108453461D01*
X120846539Y-108289654D01*
X120717843Y-108097046D01*
X120717842Y-108097045D01*
X120629193Y-107883027D01*
X120584000Y-107655826D01*
X120584000Y-107424174D01*
X120629193Y-107196973D01*
X120717842Y-106982955D01*
X120760742Y-106918751D01*
X120846539Y-106790346D01*
X121010346Y-106626539D01*
X121202954Y-106497843D01*
X121202955Y-106497842D01*
X121416973Y-106409193D01*
X121568440Y-106379064D01*
X121644173Y-106364000D01*
X121875827Y-106364000D01*
X121951560Y-106379064D01*
G37*
G36*
X127031560Y-106379064D02*
G01*
X127183027Y-106409193D01*
X127397045Y-106497842D01*
X127397046Y-106497843D01*
X127589654Y-106626539D01*
X127753461Y-106790346D01*
X127839258Y-106918751D01*
X127882158Y-106982955D01*
X127970807Y-107196973D01*
X128016000Y-107424174D01*
X128016000Y-107655826D01*
X127970807Y-107883027D01*
X127882158Y-108097045D01*
X127882157Y-108097046D01*
X127753461Y-108289654D01*
X127589654Y-108453461D01*
X127461249Y-108539258D01*
X127397045Y-108582158D01*
X127183027Y-108670807D01*
X127031560Y-108700936D01*
X126955827Y-108716000D01*
X126724173Y-108716000D01*
X126648440Y-108700936D01*
X126496973Y-108670807D01*
X126282955Y-108582158D01*
X126218751Y-108539258D01*
X126090346Y-108453461D01*
X125926539Y-108289654D01*
X125797843Y-108097046D01*
X125797842Y-108097045D01*
X125709193Y-107883027D01*
X125664000Y-107655826D01*
X125664000Y-107424174D01*
X125709193Y-107196973D01*
X125797842Y-106982955D01*
X125840742Y-106918751D01*
X125926539Y-106790346D01*
X126090346Y-106626539D01*
X126282954Y-106497843D01*
X126282955Y-106497842D01*
X126496973Y-106409193D01*
X126648440Y-106379064D01*
X126724173Y-106364000D01*
X126955827Y-106364000D01*
X127031560Y-106379064D01*
G37*
G36*
X143151560Y-106379064D02*
G01*
X143303027Y-106409193D01*
X143517045Y-106497842D01*
X143517046Y-106497843D01*
X143709654Y-106626539D01*
X143873461Y-106790346D01*
X143959258Y-106918751D01*
X144002158Y-106982955D01*
X144090807Y-107196973D01*
X144136000Y-107424174D01*
X144136000Y-107655826D01*
X144090807Y-107883027D01*
X144002158Y-108097045D01*
X144002157Y-108097046D01*
X143873461Y-108289654D01*
X143709654Y-108453461D01*
X143581249Y-108539258D01*
X143517045Y-108582158D01*
X143303027Y-108670807D01*
X143151560Y-108700936D01*
X143075827Y-108716000D01*
X142844173Y-108716000D01*
X142768440Y-108700936D01*
X142616973Y-108670807D01*
X142402955Y-108582158D01*
X142338751Y-108539258D01*
X142210346Y-108453461D01*
X142046539Y-108289654D01*
X141917843Y-108097046D01*
X141917842Y-108097045D01*
X141829193Y-107883027D01*
X141784000Y-107655826D01*
X141784000Y-107424174D01*
X141829193Y-107196973D01*
X141917842Y-106982955D01*
X141960742Y-106918751D01*
X142046539Y-106790346D01*
X142210346Y-106626539D01*
X142402954Y-106497843D01*
X142402955Y-106497842D01*
X142616973Y-106409193D01*
X142768440Y-106379064D01*
X142844173Y-106364000D01*
X143075827Y-106364000D01*
X143151560Y-106379064D01*
G37*
G36*
X148231560Y-106379064D02*
G01*
X148383027Y-106409193D01*
X148597045Y-106497842D01*
X148597046Y-106497843D01*
X148789654Y-106626539D01*
X148953461Y-106790346D01*
X149039258Y-106918751D01*
X149082158Y-106982955D01*
X149170807Y-107196973D01*
X149216000Y-107424174D01*
X149216000Y-107655826D01*
X149170807Y-107883027D01*
X149082158Y-108097045D01*
X149082157Y-108097046D01*
X148953461Y-108289654D01*
X148789654Y-108453461D01*
X148661249Y-108539258D01*
X148597045Y-108582158D01*
X148383027Y-108670807D01*
X148231560Y-108700936D01*
X148155827Y-108716000D01*
X147924173Y-108716000D01*
X147848440Y-108700936D01*
X147696973Y-108670807D01*
X147482955Y-108582158D01*
X147418751Y-108539258D01*
X147290346Y-108453461D01*
X147126539Y-108289654D01*
X146997843Y-108097046D01*
X146997842Y-108097045D01*
X146909193Y-107883027D01*
X146864000Y-107655826D01*
X146864000Y-107424174D01*
X146909193Y-107196973D01*
X146997842Y-106982955D01*
X147040742Y-106918751D01*
X147126539Y-106790346D01*
X147290346Y-106626539D01*
X147482954Y-106497843D01*
X147482955Y-106497842D01*
X147696973Y-106409193D01*
X147848440Y-106379064D01*
X147924173Y-106364000D01*
X148155827Y-106364000D01*
X148231560Y-106379064D01*
G37*
G36*
X129764499Y-106053445D02*
G01*
X129801995Y-106064820D01*
X129836554Y-106083292D01*
X129866847Y-106108153D01*
X129891708Y-106138446D01*
X129910180Y-106173005D01*
X129921555Y-106210501D01*
X129926000Y-106255638D01*
X129926000Y-106994362D01*
X129921555Y-107039499D01*
X129910180Y-107076995D01*
X129891708Y-107111554D01*
X129866847Y-107141847D01*
X129836554Y-107166708D01*
X129801995Y-107185180D01*
X129764499Y-107196555D01*
X129719362Y-107201000D01*
X129080638Y-107201000D01*
X129035501Y-107196555D01*
X128998005Y-107185180D01*
X128963446Y-107166708D01*
X128933153Y-107141847D01*
X128908292Y-107111554D01*
X128889820Y-107076995D01*
X128878445Y-107039499D01*
X128874000Y-106994362D01*
X128874000Y-106255638D01*
X128878445Y-106210501D01*
X128889820Y-106173005D01*
X128908292Y-106138446D01*
X128933153Y-106108153D01*
X128963446Y-106083292D01*
X128998005Y-106064820D01*
X129035501Y-106053445D01*
X129080638Y-106049000D01*
X129719362Y-106049000D01*
X129764499Y-106053445D01*
G37*
G36*
X145675271Y-103937783D02*
G01*
X145813858Y-103965350D01*
X146009677Y-104046461D01*
X146185910Y-104164216D01*
X146335784Y-104314090D01*
X146453539Y-104490323D01*
X146534650Y-104686142D01*
X146576000Y-104894023D01*
X146576000Y-105105977D01*
X146534650Y-105313858D01*
X146453539Y-105509677D01*
X146335784Y-105685910D01*
X146185910Y-105835784D01*
X146009677Y-105953539D01*
X145813858Y-106034650D01*
X145716312Y-106054053D01*
X145605978Y-106076000D01*
X145394022Y-106076000D01*
X145283688Y-106054053D01*
X145186142Y-106034650D01*
X144990323Y-105953539D01*
X144814090Y-105835784D01*
X144664216Y-105685910D01*
X144546461Y-105509677D01*
X144465350Y-105313858D01*
X144424000Y-105105977D01*
X144424000Y-104894023D01*
X144465350Y-104686142D01*
X144546461Y-104490323D01*
X144664216Y-104314090D01*
X144814090Y-104164216D01*
X144990323Y-104046461D01*
X145186142Y-103965350D01*
X145324729Y-103937783D01*
X145394022Y-103924000D01*
X145605978Y-103924000D01*
X145675271Y-103937783D01*
G37*
G36*
X124475271Y-103937783D02*
G01*
X124613858Y-103965350D01*
X124809677Y-104046461D01*
X124985910Y-104164216D01*
X125135784Y-104314090D01*
X125253539Y-104490323D01*
X125334650Y-104686142D01*
X125376000Y-104894023D01*
X125376000Y-105105977D01*
X125334650Y-105313858D01*
X125253539Y-105509677D01*
X125135784Y-105685910D01*
X124985910Y-105835784D01*
X124809677Y-105953539D01*
X124613858Y-106034650D01*
X124516312Y-106054053D01*
X124405978Y-106076000D01*
X124194022Y-106076000D01*
X124083688Y-106054053D01*
X123986142Y-106034650D01*
X123790323Y-105953539D01*
X123614090Y-105835784D01*
X123464216Y-105685910D01*
X123346461Y-105509677D01*
X123265350Y-105313858D01*
X123224000Y-105105977D01*
X123224000Y-104894023D01*
X123265350Y-104686142D01*
X123346461Y-104490323D01*
X123464216Y-104314090D01*
X123614090Y-104164216D01*
X123790323Y-104046461D01*
X123986142Y-103965350D01*
X124124729Y-103937783D01*
X124194022Y-103924000D01*
X124405978Y-103924000D01*
X124475271Y-103937783D01*
G37*
G36*
X137438674Y-104253465D02*
G01*
X137476367Y-104264899D01*
X137511103Y-104283466D01*
X137541548Y-104308452D01*
X137566534Y-104338897D01*
X137585101Y-104373633D01*
X137596535Y-104411326D01*
X137601000Y-104456661D01*
X137601000Y-105543339D01*
X137596535Y-105588674D01*
X137585101Y-105626367D01*
X137566534Y-105661103D01*
X137541548Y-105691548D01*
X137511103Y-105716534D01*
X137476367Y-105735101D01*
X137438674Y-105746535D01*
X137393339Y-105751000D01*
X136556661Y-105751000D01*
X136511326Y-105746535D01*
X136473633Y-105735101D01*
X136438897Y-105716534D01*
X136408452Y-105691548D01*
X136383466Y-105661103D01*
X136364899Y-105626367D01*
X136353465Y-105588674D01*
X136349000Y-105543339D01*
X136349000Y-104456661D01*
X136353465Y-104411326D01*
X136364899Y-104373633D01*
X136383466Y-104338897D01*
X136408452Y-104308452D01*
X136438897Y-104283466D01*
X136473633Y-104264899D01*
X136511326Y-104253465D01*
X136556661Y-104249000D01*
X137393339Y-104249000D01*
X137438674Y-104253465D01*
G37*
G36*
X139488674Y-104253465D02*
G01*
X139526367Y-104264899D01*
X139561103Y-104283466D01*
X139591548Y-104308452D01*
X139616534Y-104338897D01*
X139635101Y-104373633D01*
X139646535Y-104411326D01*
X139651000Y-104456661D01*
X139651000Y-105543339D01*
X139646535Y-105588674D01*
X139635101Y-105626367D01*
X139616534Y-105661103D01*
X139591548Y-105691548D01*
X139561103Y-105716534D01*
X139526367Y-105735101D01*
X139488674Y-105746535D01*
X139443339Y-105751000D01*
X138606661Y-105751000D01*
X138561326Y-105746535D01*
X138523633Y-105735101D01*
X138488897Y-105716534D01*
X138458452Y-105691548D01*
X138433466Y-105661103D01*
X138414899Y-105626367D01*
X138403465Y-105588674D01*
X138399000Y-105543339D01*
X138399000Y-104456661D01*
X138403465Y-104411326D01*
X138414899Y-104373633D01*
X138433466Y-104338897D01*
X138458452Y-104308452D01*
X138488897Y-104283466D01*
X138523633Y-104264899D01*
X138561326Y-104253465D01*
X138606661Y-104249000D01*
X139443339Y-104249000D01*
X139488674Y-104253465D01*
G37*
G36*
X129964499Y-103303445D02*
G01*
X130001995Y-103314820D01*
X130036554Y-103333292D01*
X130066847Y-103358153D01*
X130091708Y-103388446D01*
X130110180Y-103423005D01*
X130121555Y-103460501D01*
X130126000Y-103505638D01*
X130126000Y-104244362D01*
X130121555Y-104289499D01*
X130110180Y-104326995D01*
X130091708Y-104361554D01*
X130066847Y-104391847D01*
X130036554Y-104416708D01*
X130001995Y-104435180D01*
X129964499Y-104446555D01*
X129919362Y-104451000D01*
X129280638Y-104451000D01*
X129235501Y-104446555D01*
X129198005Y-104435180D01*
X129163446Y-104416708D01*
X129133153Y-104391847D01*
X129108292Y-104361554D01*
X129089820Y-104326995D01*
X129078445Y-104289499D01*
X129074000Y-104244362D01*
X129074000Y-103505638D01*
X129078445Y-103460501D01*
X129089820Y-103423005D01*
X129108292Y-103388446D01*
X129133153Y-103358153D01*
X129163446Y-103333292D01*
X129198005Y-103314820D01*
X129235501Y-103303445D01*
X129280638Y-103299000D01*
X129919362Y-103299000D01*
X129964499Y-103303445D01*
G37*
G36*
X143151560Y-101299064D02*
G01*
X143303027Y-101329193D01*
X143517045Y-101417842D01*
X143517046Y-101417843D01*
X143709654Y-101546539D01*
X143873461Y-101710346D01*
X143903724Y-101755638D01*
X144002158Y-101902955D01*
X144090807Y-102116973D01*
X144090807Y-102116975D01*
X144136000Y-102344173D01*
X144136000Y-102575827D01*
X144134351Y-102584115D01*
X144090807Y-102803027D01*
X144002158Y-103017045D01*
X144002157Y-103017046D01*
X143873461Y-103209654D01*
X143709654Y-103373461D01*
X143581249Y-103459258D01*
X143517045Y-103502158D01*
X143303027Y-103590807D01*
X143151560Y-103620936D01*
X143075827Y-103636000D01*
X142844173Y-103636000D01*
X142768440Y-103620936D01*
X142616973Y-103590807D01*
X142402955Y-103502158D01*
X142338751Y-103459258D01*
X142210346Y-103373461D01*
X142046539Y-103209654D01*
X141917843Y-103017046D01*
X141917842Y-103017045D01*
X141829193Y-102803027D01*
X141785649Y-102584115D01*
X141784000Y-102575827D01*
X141784000Y-102344173D01*
X141829193Y-102116975D01*
X141829193Y-102116973D01*
X141917842Y-101902955D01*
X142016276Y-101755638D01*
X142046539Y-101710346D01*
X142210346Y-101546539D01*
X142402954Y-101417843D01*
X142402955Y-101417842D01*
X142616973Y-101329193D01*
X142768440Y-101299064D01*
X142844173Y-101284000D01*
X143075827Y-101284000D01*
X143151560Y-101299064D01*
G37*
G36*
X148231560Y-101299064D02*
G01*
X148383027Y-101329193D01*
X148597045Y-101417842D01*
X148597046Y-101417843D01*
X148789654Y-101546539D01*
X148953461Y-101710346D01*
X148983724Y-101755638D01*
X149082158Y-101902955D01*
X149170807Y-102116973D01*
X149170807Y-102116975D01*
X149216000Y-102344173D01*
X149216000Y-102575827D01*
X149214351Y-102584115D01*
X149170807Y-102803027D01*
X149082158Y-103017045D01*
X149082157Y-103017046D01*
X148953461Y-103209654D01*
X148789654Y-103373461D01*
X148661249Y-103459258D01*
X148597045Y-103502158D01*
X148383027Y-103590807D01*
X148231560Y-103620936D01*
X148155827Y-103636000D01*
X147924173Y-103636000D01*
X147848440Y-103620936D01*
X147696973Y-103590807D01*
X147482955Y-103502158D01*
X147418751Y-103459258D01*
X147290346Y-103373461D01*
X147126539Y-103209654D01*
X146997843Y-103017046D01*
X146997842Y-103017045D01*
X146909193Y-102803027D01*
X146865649Y-102584115D01*
X146864000Y-102575827D01*
X146864000Y-102344173D01*
X146909193Y-102116975D01*
X146909193Y-102116973D01*
X146997842Y-101902955D01*
X147096276Y-101755638D01*
X147126539Y-101710346D01*
X147290346Y-101546539D01*
X147482954Y-101417843D01*
X147482955Y-101417842D01*
X147696973Y-101329193D01*
X147848440Y-101299064D01*
X147924173Y-101284000D01*
X148155827Y-101284000D01*
X148231560Y-101299064D01*
G37*
G36*
X127031560Y-101299064D02*
G01*
X127183027Y-101329193D01*
X127397045Y-101417842D01*
X127397046Y-101417843D01*
X127589654Y-101546539D01*
X127753461Y-101710346D01*
X127783724Y-101755638D01*
X127882158Y-101902955D01*
X127970807Y-102116973D01*
X127970807Y-102116975D01*
X128016000Y-102344173D01*
X128016000Y-102575827D01*
X128014351Y-102584115D01*
X127970807Y-102803027D01*
X127882158Y-103017045D01*
X127882157Y-103017046D01*
X127753461Y-103209654D01*
X127589654Y-103373461D01*
X127461249Y-103459258D01*
X127397045Y-103502158D01*
X127183027Y-103590807D01*
X127031560Y-103620936D01*
X126955827Y-103636000D01*
X126724173Y-103636000D01*
X126648440Y-103620936D01*
X126496973Y-103590807D01*
X126282955Y-103502158D01*
X126218751Y-103459258D01*
X126090346Y-103373461D01*
X125926539Y-103209654D01*
X125797843Y-103017046D01*
X125797842Y-103017045D01*
X125709193Y-102803027D01*
X125665649Y-102584115D01*
X125664000Y-102575827D01*
X125664000Y-102344173D01*
X125709193Y-102116975D01*
X125709193Y-102116973D01*
X125797842Y-101902955D01*
X125896276Y-101755638D01*
X125926539Y-101710346D01*
X126090346Y-101546539D01*
X126282954Y-101417843D01*
X126282955Y-101417842D01*
X126496973Y-101329193D01*
X126648440Y-101299064D01*
X126724173Y-101284000D01*
X126955827Y-101284000D01*
X127031560Y-101299064D01*
G37*
G36*
X121951560Y-101299064D02*
G01*
X122103027Y-101329193D01*
X122317045Y-101417842D01*
X122317046Y-101417843D01*
X122509654Y-101546539D01*
X122673461Y-101710346D01*
X122703724Y-101755638D01*
X122802158Y-101902955D01*
X122890807Y-102116973D01*
X122890807Y-102116975D01*
X122936000Y-102344173D01*
X122936000Y-102575827D01*
X122934351Y-102584115D01*
X122890807Y-102803027D01*
X122802158Y-103017045D01*
X122802157Y-103017046D01*
X122673461Y-103209654D01*
X122509654Y-103373461D01*
X122381249Y-103459258D01*
X122317045Y-103502158D01*
X122103027Y-103590807D01*
X121951560Y-103620936D01*
X121875827Y-103636000D01*
X121644173Y-103636000D01*
X121568440Y-103620936D01*
X121416973Y-103590807D01*
X121202955Y-103502158D01*
X121138751Y-103459258D01*
X121010346Y-103373461D01*
X120846539Y-103209654D01*
X120717843Y-103017046D01*
X120717842Y-103017045D01*
X120629193Y-102803027D01*
X120585649Y-102584115D01*
X120584000Y-102575827D01*
X120584000Y-102344173D01*
X120629193Y-102116975D01*
X120629193Y-102116973D01*
X120717842Y-101902955D01*
X120816276Y-101755638D01*
X120846539Y-101710346D01*
X121010346Y-101546539D01*
X121202954Y-101417843D01*
X121202955Y-101417842D01*
X121416973Y-101329193D01*
X121568440Y-101299064D01*
X121644173Y-101284000D01*
X121875827Y-101284000D01*
X121951560Y-101299064D01*
G37*
G36*
X137625562Y-100978181D02*
G01*
X137660481Y-100988774D01*
X137692663Y-101005976D01*
X137720873Y-101029127D01*
X137744024Y-101057337D01*
X137761226Y-101089519D01*
X137771819Y-101124438D01*
X137776000Y-101166895D01*
X137776000Y-102633105D01*
X137771819Y-102675562D01*
X137761226Y-102710481D01*
X137744024Y-102742663D01*
X137720873Y-102770873D01*
X137692663Y-102794024D01*
X137660481Y-102811226D01*
X137625562Y-102821819D01*
X137583105Y-102826000D01*
X136441895Y-102826000D01*
X136399438Y-102821819D01*
X136364519Y-102811226D01*
X136332337Y-102794024D01*
X136304127Y-102770873D01*
X136280976Y-102742663D01*
X136263774Y-102710481D01*
X136253181Y-102675562D01*
X136249000Y-102633105D01*
X136249000Y-101166895D01*
X136253181Y-101124438D01*
X136263774Y-101089519D01*
X136280976Y-101057337D01*
X136304127Y-101029127D01*
X136332337Y-101005976D01*
X136364519Y-100988774D01*
X136399438Y-100978181D01*
X136441895Y-100974000D01*
X137583105Y-100974000D01*
X137625562Y-100978181D01*
G37*
G36*
X140600562Y-100978181D02*
G01*
X140635481Y-100988774D01*
X140667663Y-101005976D01*
X140695873Y-101029127D01*
X140719024Y-101057337D01*
X140736226Y-101089519D01*
X140746819Y-101124438D01*
X140751000Y-101166895D01*
X140751000Y-102633105D01*
X140746819Y-102675562D01*
X140736226Y-102710481D01*
X140719024Y-102742663D01*
X140695873Y-102770873D01*
X140667663Y-102794024D01*
X140635481Y-102811226D01*
X140600562Y-102821819D01*
X140558105Y-102826000D01*
X139416895Y-102826000D01*
X139374438Y-102821819D01*
X139339519Y-102811226D01*
X139307337Y-102794024D01*
X139279127Y-102770873D01*
X139255976Y-102742663D01*
X139238774Y-102710481D01*
X139228181Y-102675562D01*
X139224000Y-102633105D01*
X139224000Y-101166895D01*
X139228181Y-101124438D01*
X139238774Y-101089519D01*
X139255976Y-101057337D01*
X139279127Y-101029127D01*
X139307337Y-101005976D01*
X139339519Y-100988774D01*
X139374438Y-100978181D01*
X139416895Y-100974000D01*
X140558105Y-100974000D01*
X140600562Y-100978181D01*
G37*
G36*
X135021000Y-102726000D02*
G01*
X134119000Y-102726000D01*
X134119000Y-100974000D01*
X135021000Y-100974000D01*
X135021000Y-102726000D01*
G37*
G36*
X132481000Y-102726000D02*
G01*
X131579000Y-102726000D01*
X131579000Y-100974000D01*
X132481000Y-100974000D01*
X132481000Y-102726000D01*
G37*
G36*
X129964499Y-101553445D02*
G01*
X130001995Y-101564820D01*
X130036554Y-101583292D01*
X130066847Y-101608153D01*
X130091708Y-101638446D01*
X130110180Y-101673005D01*
X130121555Y-101710501D01*
X130126000Y-101755638D01*
X130126000Y-102494362D01*
X130121555Y-102539499D01*
X130110180Y-102576995D01*
X130091708Y-102611554D01*
X130066847Y-102641847D01*
X130036554Y-102666708D01*
X130001995Y-102685180D01*
X129964499Y-102696555D01*
X129919362Y-102701000D01*
X129280638Y-102701000D01*
X129235501Y-102696555D01*
X129198005Y-102685180D01*
X129163446Y-102666708D01*
X129133153Y-102641847D01*
X129108292Y-102611554D01*
X129089820Y-102576995D01*
X129078445Y-102539499D01*
X129074000Y-102494362D01*
X129074000Y-101755638D01*
X129078445Y-101710501D01*
X129089820Y-101673005D01*
X129108292Y-101638446D01*
X129133153Y-101608153D01*
X129163446Y-101583292D01*
X129198005Y-101564820D01*
X129235501Y-101553445D01*
X129280638Y-101549000D01*
X129919362Y-101549000D01*
X129964499Y-101553445D01*
G37*
G36*
X135021000Y-99026000D02*
G01*
X134119000Y-99026000D01*
X134119000Y-97274000D01*
X135021000Y-97274000D01*
X135021000Y-99026000D01*
G37*
G36*
X132481000Y-99026000D02*
G01*
X131579000Y-99026000D01*
X131579000Y-97274000D01*
X132481000Y-97274000D01*
X132481000Y-99026000D01*
G37*
G36*
X129764499Y-97803445D02*
G01*
X129801995Y-97814820D01*
X129836554Y-97833292D01*
X129866847Y-97858153D01*
X129891708Y-97888446D01*
X129910180Y-97923005D01*
X129921555Y-97960501D01*
X129926000Y-98005638D01*
X129926000Y-98744362D01*
X129921555Y-98789499D01*
X129910180Y-98826995D01*
X129891708Y-98861554D01*
X129866847Y-98891847D01*
X129836554Y-98916708D01*
X129801995Y-98935180D01*
X129764499Y-98946555D01*
X129719362Y-98951000D01*
X129080638Y-98951000D01*
X129035501Y-98946555D01*
X128998005Y-98935180D01*
X128963446Y-98916708D01*
X128933153Y-98891847D01*
X128908292Y-98861554D01*
X128889820Y-98826995D01*
X128878445Y-98789499D01*
X128874000Y-98744362D01*
X128874000Y-98005638D01*
X128878445Y-97960501D01*
X128889820Y-97923005D01*
X128908292Y-97888446D01*
X128933153Y-97858153D01*
X128963446Y-97833292D01*
X128998005Y-97814820D01*
X129035501Y-97803445D01*
X129080638Y-97799000D01*
X129719362Y-97799000D01*
X129764499Y-97803445D01*
G37*
G36*
X137625562Y-96978181D02*
G01*
X137660481Y-96988774D01*
X137692663Y-97005976D01*
X137720873Y-97029127D01*
X137744024Y-97057337D01*
X137761226Y-97089519D01*
X137771819Y-97124438D01*
X137776000Y-97166895D01*
X137776000Y-98633105D01*
X137771819Y-98675562D01*
X137761226Y-98710481D01*
X137744024Y-98742663D01*
X137720873Y-98770873D01*
X137692663Y-98794024D01*
X137660481Y-98811226D01*
X137625562Y-98821819D01*
X137583105Y-98826000D01*
X136441895Y-98826000D01*
X136399438Y-98821819D01*
X136364519Y-98811226D01*
X136332337Y-98794024D01*
X136304127Y-98770873D01*
X136280976Y-98742663D01*
X136263774Y-98710481D01*
X136253181Y-98675562D01*
X136249000Y-98633105D01*
X136249000Y-97166895D01*
X136253181Y-97124438D01*
X136263774Y-97089519D01*
X136280976Y-97057337D01*
X136304127Y-97029127D01*
X136332337Y-97005976D01*
X136364519Y-96988774D01*
X136399438Y-96978181D01*
X136441895Y-96974000D01*
X137583105Y-96974000D01*
X137625562Y-96978181D01*
G37*
G36*
X140600562Y-96978181D02*
G01*
X140635481Y-96988774D01*
X140667663Y-97005976D01*
X140695873Y-97029127D01*
X140719024Y-97057337D01*
X140736226Y-97089519D01*
X140746819Y-97124438D01*
X140751000Y-97166895D01*
X140751000Y-98633105D01*
X140746819Y-98675562D01*
X140736226Y-98710481D01*
X140719024Y-98742663D01*
X140695873Y-98770873D01*
X140667663Y-98794024D01*
X140635481Y-98811226D01*
X140600562Y-98821819D01*
X140558105Y-98826000D01*
X139416895Y-98826000D01*
X139374438Y-98821819D01*
X139339519Y-98811226D01*
X139307337Y-98794024D01*
X139279127Y-98770873D01*
X139255976Y-98742663D01*
X139238774Y-98710481D01*
X139228181Y-98675562D01*
X139224000Y-98633105D01*
X139224000Y-97166895D01*
X139228181Y-97124438D01*
X139238774Y-97089519D01*
X139255976Y-97057337D01*
X139279127Y-97029127D01*
X139307337Y-97005976D01*
X139339519Y-96988774D01*
X139374438Y-96978181D01*
X139416895Y-96974000D01*
X140558105Y-96974000D01*
X140600562Y-96978181D01*
G37*
G36*
X148231560Y-96379064D02*
G01*
X148383027Y-96409193D01*
X148597045Y-96497842D01*
X148597046Y-96497843D01*
X148789654Y-96626539D01*
X148953461Y-96790346D01*
X149039258Y-96918751D01*
X149082158Y-96982955D01*
X149170807Y-97196973D01*
X149216000Y-97424174D01*
X149216000Y-97655826D01*
X149170807Y-97883027D01*
X149082158Y-98097045D01*
X149082157Y-98097046D01*
X148953461Y-98289654D01*
X148789654Y-98453461D01*
X148661249Y-98539258D01*
X148597045Y-98582158D01*
X148383027Y-98670807D01*
X148231560Y-98700936D01*
X148155827Y-98716000D01*
X147924173Y-98716000D01*
X147848440Y-98700936D01*
X147696973Y-98670807D01*
X147482955Y-98582158D01*
X147418751Y-98539258D01*
X147290346Y-98453461D01*
X147126539Y-98289654D01*
X146997843Y-98097046D01*
X146997842Y-98097045D01*
X146909193Y-97883027D01*
X146864000Y-97655826D01*
X146864000Y-97424174D01*
X146909193Y-97196973D01*
X146997842Y-96982955D01*
X147040742Y-96918751D01*
X147126539Y-96790346D01*
X147290346Y-96626539D01*
X147482954Y-96497843D01*
X147482955Y-96497842D01*
X147696973Y-96409193D01*
X147848440Y-96379064D01*
X147924173Y-96364000D01*
X148155827Y-96364000D01*
X148231560Y-96379064D01*
G37*
G36*
X143151560Y-96379064D02*
G01*
X143303027Y-96409193D01*
X143517045Y-96497842D01*
X143517046Y-96497843D01*
X143709654Y-96626539D01*
X143873461Y-96790346D01*
X143959258Y-96918751D01*
X144002158Y-96982955D01*
X144090807Y-97196973D01*
X144136000Y-97424174D01*
X144136000Y-97655826D01*
X144090807Y-97883027D01*
X144002158Y-98097045D01*
X144002157Y-98097046D01*
X143873461Y-98289654D01*
X143709654Y-98453461D01*
X143581249Y-98539258D01*
X143517045Y-98582158D01*
X143303027Y-98670807D01*
X143151560Y-98700936D01*
X143075827Y-98716000D01*
X142844173Y-98716000D01*
X142768440Y-98700936D01*
X142616973Y-98670807D01*
X142402955Y-98582158D01*
X142338751Y-98539258D01*
X142210346Y-98453461D01*
X142046539Y-98289654D01*
X141917843Y-98097046D01*
X141917842Y-98097045D01*
X141829193Y-97883027D01*
X141784000Y-97655826D01*
X141784000Y-97424174D01*
X141829193Y-97196973D01*
X141917842Y-96982955D01*
X141960742Y-96918751D01*
X142046539Y-96790346D01*
X142210346Y-96626539D01*
X142402954Y-96497843D01*
X142402955Y-96497842D01*
X142616973Y-96409193D01*
X142768440Y-96379064D01*
X142844173Y-96364000D01*
X143075827Y-96364000D01*
X143151560Y-96379064D01*
G37*
G36*
X121951560Y-96379064D02*
G01*
X122103027Y-96409193D01*
X122317045Y-96497842D01*
X122317046Y-96497843D01*
X122509654Y-96626539D01*
X122673461Y-96790346D01*
X122759258Y-96918751D01*
X122802158Y-96982955D01*
X122890807Y-97196973D01*
X122936000Y-97424174D01*
X122936000Y-97655826D01*
X122890807Y-97883027D01*
X122802158Y-98097045D01*
X122802157Y-98097046D01*
X122673461Y-98289654D01*
X122509654Y-98453461D01*
X122381249Y-98539258D01*
X122317045Y-98582158D01*
X122103027Y-98670807D01*
X121951560Y-98700936D01*
X121875827Y-98716000D01*
X121644173Y-98716000D01*
X121568440Y-98700936D01*
X121416973Y-98670807D01*
X121202955Y-98582158D01*
X121138751Y-98539258D01*
X121010346Y-98453461D01*
X120846539Y-98289654D01*
X120717843Y-98097046D01*
X120717842Y-98097045D01*
X120629193Y-97883027D01*
X120584000Y-97655826D01*
X120584000Y-97424174D01*
X120629193Y-97196973D01*
X120717842Y-96982955D01*
X120760742Y-96918751D01*
X120846539Y-96790346D01*
X121010346Y-96626539D01*
X121202954Y-96497843D01*
X121202955Y-96497842D01*
X121416973Y-96409193D01*
X121568440Y-96379064D01*
X121644173Y-96364000D01*
X121875827Y-96364000D01*
X121951560Y-96379064D01*
G37*
G36*
X127031560Y-96379064D02*
G01*
X127183027Y-96409193D01*
X127397045Y-96497842D01*
X127397046Y-96497843D01*
X127589654Y-96626539D01*
X127753461Y-96790346D01*
X127839258Y-96918751D01*
X127882158Y-96982955D01*
X127970807Y-97196973D01*
X128016000Y-97424174D01*
X128016000Y-97655826D01*
X127970807Y-97883027D01*
X127882158Y-98097045D01*
X127882157Y-98097046D01*
X127753461Y-98289654D01*
X127589654Y-98453461D01*
X127461249Y-98539258D01*
X127397045Y-98582158D01*
X127183027Y-98670807D01*
X127031560Y-98700936D01*
X126955827Y-98716000D01*
X126724173Y-98716000D01*
X126648440Y-98700936D01*
X126496973Y-98670807D01*
X126282955Y-98582158D01*
X126218751Y-98539258D01*
X126090346Y-98453461D01*
X125926539Y-98289654D01*
X125797843Y-98097046D01*
X125797842Y-98097045D01*
X125709193Y-97883027D01*
X125664000Y-97655826D01*
X125664000Y-97424174D01*
X125709193Y-97196973D01*
X125797842Y-96982955D01*
X125840742Y-96918751D01*
X125926539Y-96790346D01*
X126090346Y-96626539D01*
X126282954Y-96497843D01*
X126282955Y-96497842D01*
X126496973Y-96409193D01*
X126648440Y-96379064D01*
X126724173Y-96364000D01*
X126955827Y-96364000D01*
X127031560Y-96379064D01*
G37*
G36*
X129764499Y-96053445D02*
G01*
X129801995Y-96064820D01*
X129836554Y-96083292D01*
X129866847Y-96108153D01*
X129891708Y-96138446D01*
X129910180Y-96173005D01*
X129921555Y-96210501D01*
X129926000Y-96255638D01*
X129926000Y-96994362D01*
X129921555Y-97039499D01*
X129910180Y-97076995D01*
X129891708Y-97111554D01*
X129866847Y-97141847D01*
X129836554Y-97166708D01*
X129801995Y-97185180D01*
X129764499Y-97196555D01*
X129719362Y-97201000D01*
X129080638Y-97201000D01*
X129035501Y-97196555D01*
X128998005Y-97185180D01*
X128963446Y-97166708D01*
X128933153Y-97141847D01*
X128908292Y-97111554D01*
X128889820Y-97076995D01*
X128878445Y-97039499D01*
X128874000Y-96994362D01*
X128874000Y-96255638D01*
X128878445Y-96210501D01*
X128889820Y-96173005D01*
X128908292Y-96138446D01*
X128933153Y-96108153D01*
X128963446Y-96083292D01*
X128998005Y-96064820D01*
X129035501Y-96053445D01*
X129080638Y-96049000D01*
X129719362Y-96049000D01*
X129764499Y-96053445D01*
G37*
G36*
X145675271Y-93937783D02*
G01*
X145813858Y-93965350D01*
X146009677Y-94046461D01*
X146185910Y-94164216D01*
X146335784Y-94314090D01*
X146453539Y-94490323D01*
X146534650Y-94686142D01*
X146576000Y-94894023D01*
X146576000Y-95105977D01*
X146534650Y-95313858D01*
X146453539Y-95509677D01*
X146335784Y-95685910D01*
X146185910Y-95835784D01*
X146009677Y-95953539D01*
X145813858Y-96034650D01*
X145716312Y-96054053D01*
X145605978Y-96076000D01*
X145394022Y-96076000D01*
X145283688Y-96054053D01*
X145186142Y-96034650D01*
X144990323Y-95953539D01*
X144814090Y-95835784D01*
X144664216Y-95685910D01*
X144546461Y-95509677D01*
X144465350Y-95313858D01*
X144424000Y-95105977D01*
X144424000Y-94894023D01*
X144465350Y-94686142D01*
X144546461Y-94490323D01*
X144664216Y-94314090D01*
X144814090Y-94164216D01*
X144990323Y-94046461D01*
X145186142Y-93965350D01*
X145324729Y-93937783D01*
X145394022Y-93924000D01*
X145605978Y-93924000D01*
X145675271Y-93937783D01*
G37*
G36*
X124475271Y-93937783D02*
G01*
X124613858Y-93965350D01*
X124809677Y-94046461D01*
X124985910Y-94164216D01*
X125135784Y-94314090D01*
X125253539Y-94490323D01*
X125334650Y-94686142D01*
X125376000Y-94894023D01*
X125376000Y-95105977D01*
X125334650Y-95313858D01*
X125253539Y-95509677D01*
X125135784Y-95685910D01*
X124985910Y-95835784D01*
X124809677Y-95953539D01*
X124613858Y-96034650D01*
X124516312Y-96054053D01*
X124405978Y-96076000D01*
X124194022Y-96076000D01*
X124083688Y-96054053D01*
X123986142Y-96034650D01*
X123790323Y-95953539D01*
X123614090Y-95835784D01*
X123464216Y-95685910D01*
X123346461Y-95509677D01*
X123265350Y-95313858D01*
X123224000Y-95105977D01*
X123224000Y-94894023D01*
X123265350Y-94686142D01*
X123346461Y-94490323D01*
X123464216Y-94314090D01*
X123614090Y-94164216D01*
X123790323Y-94046461D01*
X123986142Y-93965350D01*
X124124729Y-93937783D01*
X124194022Y-93924000D01*
X124405978Y-93924000D01*
X124475271Y-93937783D01*
G37*
G36*
X139488674Y-94253465D02*
G01*
X139526367Y-94264899D01*
X139561103Y-94283466D01*
X139591548Y-94308452D01*
X139616534Y-94338897D01*
X139635101Y-94373633D01*
X139646535Y-94411326D01*
X139651000Y-94456661D01*
X139651000Y-95543339D01*
X139646535Y-95588674D01*
X139635101Y-95626367D01*
X139616534Y-95661103D01*
X139591548Y-95691548D01*
X139561103Y-95716534D01*
X139526367Y-95735101D01*
X139488674Y-95746535D01*
X139443339Y-95751000D01*
X138606661Y-95751000D01*
X138561326Y-95746535D01*
X138523633Y-95735101D01*
X138488897Y-95716534D01*
X138458452Y-95691548D01*
X138433466Y-95661103D01*
X138414899Y-95626367D01*
X138403465Y-95588674D01*
X138399000Y-95543339D01*
X138399000Y-94456661D01*
X138403465Y-94411326D01*
X138414899Y-94373633D01*
X138433466Y-94338897D01*
X138458452Y-94308452D01*
X138488897Y-94283466D01*
X138523633Y-94264899D01*
X138561326Y-94253465D01*
X138606661Y-94249000D01*
X139443339Y-94249000D01*
X139488674Y-94253465D01*
G37*
G36*
X137438674Y-94253465D02*
G01*
X137476367Y-94264899D01*
X137511103Y-94283466D01*
X137541548Y-94308452D01*
X137566534Y-94338897D01*
X137585101Y-94373633D01*
X137596535Y-94411326D01*
X137601000Y-94456661D01*
X137601000Y-95543339D01*
X137596535Y-95588674D01*
X137585101Y-95626367D01*
X137566534Y-95661103D01*
X137541548Y-95691548D01*
X137511103Y-95716534D01*
X137476367Y-95735101D01*
X137438674Y-95746535D01*
X137393339Y-95751000D01*
X136556661Y-95751000D01*
X136511326Y-95746535D01*
X136473633Y-95735101D01*
X136438897Y-95716534D01*
X136408452Y-95691548D01*
X136383466Y-95661103D01*
X136364899Y-95626367D01*
X136353465Y-95588674D01*
X136349000Y-95543339D01*
X136349000Y-94456661D01*
X136353465Y-94411326D01*
X136364899Y-94373633D01*
X136383466Y-94338897D01*
X136408452Y-94308452D01*
X136438897Y-94283466D01*
X136473633Y-94264899D01*
X136511326Y-94253465D01*
X136556661Y-94249000D01*
X137393339Y-94249000D01*
X137438674Y-94253465D01*
G37*
G36*
X129964499Y-93303445D02*
G01*
X130001995Y-93314820D01*
X130036554Y-93333292D01*
X130066847Y-93358153D01*
X130091708Y-93388446D01*
X130110180Y-93423005D01*
X130121555Y-93460501D01*
X130126000Y-93505638D01*
X130126000Y-94244362D01*
X130121555Y-94289499D01*
X130110180Y-94326995D01*
X130091708Y-94361554D01*
X130066847Y-94391847D01*
X130036554Y-94416708D01*
X130001995Y-94435180D01*
X129964499Y-94446555D01*
X129919362Y-94451000D01*
X129280638Y-94451000D01*
X129235501Y-94446555D01*
X129198005Y-94435180D01*
X129163446Y-94416708D01*
X129133153Y-94391847D01*
X129108292Y-94361554D01*
X129089820Y-94326995D01*
X129078445Y-94289499D01*
X129074000Y-94244362D01*
X129074000Y-93505638D01*
X129078445Y-93460501D01*
X129089820Y-93423005D01*
X129108292Y-93388446D01*
X129133153Y-93358153D01*
X129163446Y-93333292D01*
X129198005Y-93314820D01*
X129235501Y-93303445D01*
X129280638Y-93299000D01*
X129919362Y-93299000D01*
X129964499Y-93303445D01*
G37*
G36*
X127031560Y-91299064D02*
G01*
X127183027Y-91329193D01*
X127397045Y-91417842D01*
X127397046Y-91417843D01*
X127589654Y-91546539D01*
X127753461Y-91710346D01*
X127783724Y-91755638D01*
X127882158Y-91902955D01*
X127970807Y-92116973D01*
X127970807Y-92116975D01*
X128016000Y-92344173D01*
X128016000Y-92575827D01*
X128014351Y-92584115D01*
X127970807Y-92803027D01*
X127882158Y-93017045D01*
X127882157Y-93017046D01*
X127753461Y-93209654D01*
X127589654Y-93373461D01*
X127461249Y-93459258D01*
X127397045Y-93502158D01*
X127183027Y-93590807D01*
X127031560Y-93620936D01*
X126955827Y-93636000D01*
X126724173Y-93636000D01*
X126648440Y-93620936D01*
X126496973Y-93590807D01*
X126282955Y-93502158D01*
X126218751Y-93459258D01*
X126090346Y-93373461D01*
X125926539Y-93209654D01*
X125797843Y-93017046D01*
X125797842Y-93017045D01*
X125709193Y-92803027D01*
X125665649Y-92584115D01*
X125664000Y-92575827D01*
X125664000Y-92344173D01*
X125709193Y-92116975D01*
X125709193Y-92116973D01*
X125797842Y-91902955D01*
X125896276Y-91755638D01*
X125926539Y-91710346D01*
X126090346Y-91546539D01*
X126282954Y-91417843D01*
X126282955Y-91417842D01*
X126496973Y-91329193D01*
X126648440Y-91299064D01*
X126724173Y-91284000D01*
X126955827Y-91284000D01*
X127031560Y-91299064D01*
G37*
G36*
X121951560Y-91299064D02*
G01*
X122103027Y-91329193D01*
X122317045Y-91417842D01*
X122317046Y-91417843D01*
X122509654Y-91546539D01*
X122673461Y-91710346D01*
X122703724Y-91755638D01*
X122802158Y-91902955D01*
X122890807Y-92116973D01*
X122890807Y-92116975D01*
X122936000Y-92344173D01*
X122936000Y-92575827D01*
X122934351Y-92584115D01*
X122890807Y-92803027D01*
X122802158Y-93017045D01*
X122802157Y-93017046D01*
X122673461Y-93209654D01*
X122509654Y-93373461D01*
X122381249Y-93459258D01*
X122317045Y-93502158D01*
X122103027Y-93590807D01*
X121951560Y-93620936D01*
X121875827Y-93636000D01*
X121644173Y-93636000D01*
X121568440Y-93620936D01*
X121416973Y-93590807D01*
X121202955Y-93502158D01*
X121138751Y-93459258D01*
X121010346Y-93373461D01*
X120846539Y-93209654D01*
X120717843Y-93017046D01*
X120717842Y-93017045D01*
X120629193Y-92803027D01*
X120585649Y-92584115D01*
X120584000Y-92575827D01*
X120584000Y-92344173D01*
X120629193Y-92116975D01*
X120629193Y-92116973D01*
X120717842Y-91902955D01*
X120816276Y-91755638D01*
X120846539Y-91710346D01*
X121010346Y-91546539D01*
X121202954Y-91417843D01*
X121202955Y-91417842D01*
X121416973Y-91329193D01*
X121568440Y-91299064D01*
X121644173Y-91284000D01*
X121875827Y-91284000D01*
X121951560Y-91299064D01*
G37*
G36*
X148231560Y-91299064D02*
G01*
X148383027Y-91329193D01*
X148597045Y-91417842D01*
X148597046Y-91417843D01*
X148789654Y-91546539D01*
X148953461Y-91710346D01*
X148983724Y-91755638D01*
X149082158Y-91902955D01*
X149170807Y-92116973D01*
X149170807Y-92116975D01*
X149216000Y-92344173D01*
X149216000Y-92575827D01*
X149214351Y-92584115D01*
X149170807Y-92803027D01*
X149082158Y-93017045D01*
X149082157Y-93017046D01*
X148953461Y-93209654D01*
X148789654Y-93373461D01*
X148661249Y-93459258D01*
X148597045Y-93502158D01*
X148383027Y-93590807D01*
X148231560Y-93620936D01*
X148155827Y-93636000D01*
X147924173Y-93636000D01*
X147848440Y-93620936D01*
X147696973Y-93590807D01*
X147482955Y-93502158D01*
X147418751Y-93459258D01*
X147290346Y-93373461D01*
X147126539Y-93209654D01*
X146997843Y-93017046D01*
X146997842Y-93017045D01*
X146909193Y-92803027D01*
X146865649Y-92584115D01*
X146864000Y-92575827D01*
X146864000Y-92344173D01*
X146909193Y-92116975D01*
X146909193Y-92116973D01*
X146997842Y-91902955D01*
X147096276Y-91755638D01*
X147126539Y-91710346D01*
X147290346Y-91546539D01*
X147482954Y-91417843D01*
X147482955Y-91417842D01*
X147696973Y-91329193D01*
X147848440Y-91299064D01*
X147924173Y-91284000D01*
X148155827Y-91284000D01*
X148231560Y-91299064D01*
G37*
G36*
X143151560Y-91299064D02*
G01*
X143303027Y-91329193D01*
X143517045Y-91417842D01*
X143517046Y-91417843D01*
X143709654Y-91546539D01*
X143873461Y-91710346D01*
X143903724Y-91755638D01*
X144002158Y-91902955D01*
X144090807Y-92116973D01*
X144090807Y-92116975D01*
X144136000Y-92344173D01*
X144136000Y-92575827D01*
X144134351Y-92584115D01*
X144090807Y-92803027D01*
X144002158Y-93017045D01*
X144002157Y-93017046D01*
X143873461Y-93209654D01*
X143709654Y-93373461D01*
X143581249Y-93459258D01*
X143517045Y-93502158D01*
X143303027Y-93590807D01*
X143151560Y-93620936D01*
X143075827Y-93636000D01*
X142844173Y-93636000D01*
X142768440Y-93620936D01*
X142616973Y-93590807D01*
X142402955Y-93502158D01*
X142338751Y-93459258D01*
X142210346Y-93373461D01*
X142046539Y-93209654D01*
X141917843Y-93017046D01*
X141917842Y-93017045D01*
X141829193Y-92803027D01*
X141785649Y-92584115D01*
X141784000Y-92575827D01*
X141784000Y-92344173D01*
X141829193Y-92116975D01*
X141829193Y-92116973D01*
X141917842Y-91902955D01*
X142016276Y-91755638D01*
X142046539Y-91710346D01*
X142210346Y-91546539D01*
X142402954Y-91417843D01*
X142402955Y-91417842D01*
X142616973Y-91329193D01*
X142768440Y-91299064D01*
X142844173Y-91284000D01*
X143075827Y-91284000D01*
X143151560Y-91299064D01*
G37*
G36*
X140600562Y-90978181D02*
G01*
X140635481Y-90988774D01*
X140667663Y-91005976D01*
X140695873Y-91029127D01*
X140719024Y-91057337D01*
X140736226Y-91089519D01*
X140746819Y-91124438D01*
X140751000Y-91166895D01*
X140751000Y-92633105D01*
X140746819Y-92675562D01*
X140736226Y-92710481D01*
X140719024Y-92742663D01*
X140695873Y-92770873D01*
X140667663Y-92794024D01*
X140635481Y-92811226D01*
X140600562Y-92821819D01*
X140558105Y-92826000D01*
X139416895Y-92826000D01*
X139374438Y-92821819D01*
X139339519Y-92811226D01*
X139307337Y-92794024D01*
X139279127Y-92770873D01*
X139255976Y-92742663D01*
X139238774Y-92710481D01*
X139228181Y-92675562D01*
X139224000Y-92633105D01*
X139224000Y-91166895D01*
X139228181Y-91124438D01*
X139238774Y-91089519D01*
X139255976Y-91057337D01*
X139279127Y-91029127D01*
X139307337Y-91005976D01*
X139339519Y-90988774D01*
X139374438Y-90978181D01*
X139416895Y-90974000D01*
X140558105Y-90974000D01*
X140600562Y-90978181D01*
G37*
G36*
X137625562Y-90978181D02*
G01*
X137660481Y-90988774D01*
X137692663Y-91005976D01*
X137720873Y-91029127D01*
X137744024Y-91057337D01*
X137761226Y-91089519D01*
X137771819Y-91124438D01*
X137776000Y-91166895D01*
X137776000Y-92633105D01*
X137771819Y-92675562D01*
X137761226Y-92710481D01*
X137744024Y-92742663D01*
X137720873Y-92770873D01*
X137692663Y-92794024D01*
X137660481Y-92811226D01*
X137625562Y-92821819D01*
X137583105Y-92826000D01*
X136441895Y-92826000D01*
X136399438Y-92821819D01*
X136364519Y-92811226D01*
X136332337Y-92794024D01*
X136304127Y-92770873D01*
X136280976Y-92742663D01*
X136263774Y-92710481D01*
X136253181Y-92675562D01*
X136249000Y-92633105D01*
X136249000Y-91166895D01*
X136253181Y-91124438D01*
X136263774Y-91089519D01*
X136280976Y-91057337D01*
X136304127Y-91029127D01*
X136332337Y-91005976D01*
X136364519Y-90988774D01*
X136399438Y-90978181D01*
X136441895Y-90974000D01*
X137583105Y-90974000D01*
X137625562Y-90978181D01*
G37*
G36*
X135021000Y-92726000D02*
G01*
X134119000Y-92726000D01*
X134119000Y-90974000D01*
X135021000Y-90974000D01*
X135021000Y-92726000D01*
G37*
G36*
X132481000Y-92726000D02*
G01*
X131579000Y-92726000D01*
X131579000Y-90974000D01*
X132481000Y-90974000D01*
X132481000Y-92726000D01*
G37*
G36*
X129964499Y-91553445D02*
G01*
X130001995Y-91564820D01*
X130036554Y-91583292D01*
X130066847Y-91608153D01*
X130091708Y-91638446D01*
X130110180Y-91673005D01*
X130121555Y-91710501D01*
X130126000Y-91755638D01*
X130126000Y-92494362D01*
X130121555Y-92539499D01*
X130110180Y-92576995D01*
X130091708Y-92611554D01*
X130066847Y-92641847D01*
X130036554Y-92666708D01*
X130001995Y-92685180D01*
X129964499Y-92696555D01*
X129919362Y-92701000D01*
X129280638Y-92701000D01*
X129235501Y-92696555D01*
X129198005Y-92685180D01*
X129163446Y-92666708D01*
X129133153Y-92641847D01*
X129108292Y-92611554D01*
X129089820Y-92576995D01*
X129078445Y-92539499D01*
X129074000Y-92494362D01*
X129074000Y-91755638D01*
X129078445Y-91710501D01*
X129089820Y-91673005D01*
X129108292Y-91638446D01*
X129133153Y-91608153D01*
X129163446Y-91583292D01*
X129198005Y-91564820D01*
X129235501Y-91553445D01*
X129280638Y-91549000D01*
X129919362Y-91549000D01*
X129964499Y-91553445D01*
G37*
G36*
X135021000Y-89026000D02*
G01*
X134119000Y-89026000D01*
X134119000Y-87274000D01*
X135021000Y-87274000D01*
X135021000Y-89026000D01*
G37*
G36*
X132481000Y-89026000D02*
G01*
X131579000Y-89026000D01*
X131579000Y-87274000D01*
X132481000Y-87274000D01*
X132481000Y-89026000D01*
G37*
G36*
X129764499Y-87803445D02*
G01*
X129801995Y-87814820D01*
X129836554Y-87833292D01*
X129866847Y-87858153D01*
X129891708Y-87888446D01*
X129910180Y-87923005D01*
X129921555Y-87960501D01*
X129926000Y-88005638D01*
X129926000Y-88744362D01*
X129921555Y-88789499D01*
X129910180Y-88826995D01*
X129891708Y-88861554D01*
X129866847Y-88891847D01*
X129836554Y-88916708D01*
X129801995Y-88935180D01*
X129764499Y-88946555D01*
X129719362Y-88951000D01*
X129080638Y-88951000D01*
X129035501Y-88946555D01*
X128998005Y-88935180D01*
X128963446Y-88916708D01*
X128933153Y-88891847D01*
X128908292Y-88861554D01*
X128889820Y-88826995D01*
X128878445Y-88789499D01*
X128874000Y-88744362D01*
X128874000Y-88005638D01*
X128878445Y-87960501D01*
X128889820Y-87923005D01*
X128908292Y-87888446D01*
X128933153Y-87858153D01*
X128963446Y-87833292D01*
X128998005Y-87814820D01*
X129035501Y-87803445D01*
X129080638Y-87799000D01*
X129719362Y-87799000D01*
X129764499Y-87803445D01*
G37*
G36*
X137625562Y-86978181D02*
G01*
X137660481Y-86988774D01*
X137692663Y-87005976D01*
X137720873Y-87029127D01*
X137744024Y-87057337D01*
X137761226Y-87089519D01*
X137771819Y-87124438D01*
X137776000Y-87166895D01*
X137776000Y-88633105D01*
X137771819Y-88675562D01*
X137761226Y-88710481D01*
X137744024Y-88742663D01*
X137720873Y-88770873D01*
X137692663Y-88794024D01*
X137660481Y-88811226D01*
X137625562Y-88821819D01*
X137583105Y-88826000D01*
X136441895Y-88826000D01*
X136399438Y-88821819D01*
X136364519Y-88811226D01*
X136332337Y-88794024D01*
X136304127Y-88770873D01*
X136280976Y-88742663D01*
X136263774Y-88710481D01*
X136253181Y-88675562D01*
X136249000Y-88633105D01*
X136249000Y-87166895D01*
X136253181Y-87124438D01*
X136263774Y-87089519D01*
X136280976Y-87057337D01*
X136304127Y-87029127D01*
X136332337Y-87005976D01*
X136364519Y-86988774D01*
X136399438Y-86978181D01*
X136441895Y-86974000D01*
X137583105Y-86974000D01*
X137625562Y-86978181D01*
G37*
G36*
X140600562Y-86978181D02*
G01*
X140635481Y-86988774D01*
X140667663Y-87005976D01*
X140695873Y-87029127D01*
X140719024Y-87057337D01*
X140736226Y-87089519D01*
X140746819Y-87124438D01*
X140751000Y-87166895D01*
X140751000Y-88633105D01*
X140746819Y-88675562D01*
X140736226Y-88710481D01*
X140719024Y-88742663D01*
X140695873Y-88770873D01*
X140667663Y-88794024D01*
X140635481Y-88811226D01*
X140600562Y-88821819D01*
X140558105Y-88826000D01*
X139416895Y-88826000D01*
X139374438Y-88821819D01*
X139339519Y-88811226D01*
X139307337Y-88794024D01*
X139279127Y-88770873D01*
X139255976Y-88742663D01*
X139238774Y-88710481D01*
X139228181Y-88675562D01*
X139224000Y-88633105D01*
X139224000Y-87166895D01*
X139228181Y-87124438D01*
X139238774Y-87089519D01*
X139255976Y-87057337D01*
X139279127Y-87029127D01*
X139307337Y-87005976D01*
X139339519Y-86988774D01*
X139374438Y-86978181D01*
X139416895Y-86974000D01*
X140558105Y-86974000D01*
X140600562Y-86978181D01*
G37*
G36*
X121951560Y-86379064D02*
G01*
X122103027Y-86409193D01*
X122317045Y-86497842D01*
X122317046Y-86497843D01*
X122509654Y-86626539D01*
X122673461Y-86790346D01*
X122759258Y-86918751D01*
X122802158Y-86982955D01*
X122890807Y-87196973D01*
X122936000Y-87424174D01*
X122936000Y-87655826D01*
X122890807Y-87883027D01*
X122802158Y-88097045D01*
X122802157Y-88097046D01*
X122673461Y-88289654D01*
X122509654Y-88453461D01*
X122381249Y-88539258D01*
X122317045Y-88582158D01*
X122103027Y-88670807D01*
X121951560Y-88700936D01*
X121875827Y-88716000D01*
X121644173Y-88716000D01*
X121568440Y-88700936D01*
X121416973Y-88670807D01*
X121202955Y-88582158D01*
X121138751Y-88539258D01*
X121010346Y-88453461D01*
X120846539Y-88289654D01*
X120717843Y-88097046D01*
X120717842Y-88097045D01*
X120629193Y-87883027D01*
X120584000Y-87655826D01*
X120584000Y-87424174D01*
X120629193Y-87196973D01*
X120717842Y-86982955D01*
X120760742Y-86918751D01*
X120846539Y-86790346D01*
X121010346Y-86626539D01*
X121202954Y-86497843D01*
X121202955Y-86497842D01*
X121416973Y-86409193D01*
X121568440Y-86379064D01*
X121644173Y-86364000D01*
X121875827Y-86364000D01*
X121951560Y-86379064D01*
G37*
G36*
X127031560Y-86379064D02*
G01*
X127183027Y-86409193D01*
X127397045Y-86497842D01*
X127397046Y-86497843D01*
X127589654Y-86626539D01*
X127753461Y-86790346D01*
X127839258Y-86918751D01*
X127882158Y-86982955D01*
X127970807Y-87196973D01*
X128016000Y-87424174D01*
X128016000Y-87655826D01*
X127970807Y-87883027D01*
X127882158Y-88097045D01*
X127882157Y-88097046D01*
X127753461Y-88289654D01*
X127589654Y-88453461D01*
X127461249Y-88539258D01*
X127397045Y-88582158D01*
X127183027Y-88670807D01*
X127031560Y-88700936D01*
X126955827Y-88716000D01*
X126724173Y-88716000D01*
X126648440Y-88700936D01*
X126496973Y-88670807D01*
X126282955Y-88582158D01*
X126218751Y-88539258D01*
X126090346Y-88453461D01*
X125926539Y-88289654D01*
X125797843Y-88097046D01*
X125797842Y-88097045D01*
X125709193Y-87883027D01*
X125664000Y-87655826D01*
X125664000Y-87424174D01*
X125709193Y-87196973D01*
X125797842Y-86982955D01*
X125840742Y-86918751D01*
X125926539Y-86790346D01*
X126090346Y-86626539D01*
X126282954Y-86497843D01*
X126282955Y-86497842D01*
X126496973Y-86409193D01*
X126648440Y-86379064D01*
X126724173Y-86364000D01*
X126955827Y-86364000D01*
X127031560Y-86379064D01*
G37*
G36*
X143151560Y-86379064D02*
G01*
X143303027Y-86409193D01*
X143517045Y-86497842D01*
X143517046Y-86497843D01*
X143709654Y-86626539D01*
X143873461Y-86790346D01*
X143959258Y-86918751D01*
X144002158Y-86982955D01*
X144090807Y-87196973D01*
X144136000Y-87424174D01*
X144136000Y-87655826D01*
X144090807Y-87883027D01*
X144002158Y-88097045D01*
X144002157Y-88097046D01*
X143873461Y-88289654D01*
X143709654Y-88453461D01*
X143581249Y-88539258D01*
X143517045Y-88582158D01*
X143303027Y-88670807D01*
X143151560Y-88700936D01*
X143075827Y-88716000D01*
X142844173Y-88716000D01*
X142768440Y-88700936D01*
X142616973Y-88670807D01*
X142402955Y-88582158D01*
X142338751Y-88539258D01*
X142210346Y-88453461D01*
X142046539Y-88289654D01*
X141917843Y-88097046D01*
X141917842Y-88097045D01*
X141829193Y-87883027D01*
X141784000Y-87655826D01*
X141784000Y-87424174D01*
X141829193Y-87196973D01*
X141917842Y-86982955D01*
X141960742Y-86918751D01*
X142046539Y-86790346D01*
X142210346Y-86626539D01*
X142402954Y-86497843D01*
X142402955Y-86497842D01*
X142616973Y-86409193D01*
X142768440Y-86379064D01*
X142844173Y-86364000D01*
X143075827Y-86364000D01*
X143151560Y-86379064D01*
G37*
G36*
X148231560Y-86379064D02*
G01*
X148383027Y-86409193D01*
X148597045Y-86497842D01*
X148597046Y-86497843D01*
X148789654Y-86626539D01*
X148953461Y-86790346D01*
X149039258Y-86918751D01*
X149082158Y-86982955D01*
X149170807Y-87196973D01*
X149216000Y-87424174D01*
X149216000Y-87655826D01*
X149170807Y-87883027D01*
X149082158Y-88097045D01*
X149082157Y-88097046D01*
X148953461Y-88289654D01*
X148789654Y-88453461D01*
X148661249Y-88539258D01*
X148597045Y-88582158D01*
X148383027Y-88670807D01*
X148231560Y-88700936D01*
X148155827Y-88716000D01*
X147924173Y-88716000D01*
X147848440Y-88700936D01*
X147696973Y-88670807D01*
X147482955Y-88582158D01*
X147418751Y-88539258D01*
X147290346Y-88453461D01*
X147126539Y-88289654D01*
X146997843Y-88097046D01*
X146997842Y-88097045D01*
X146909193Y-87883027D01*
X146864000Y-87655826D01*
X146864000Y-87424174D01*
X146909193Y-87196973D01*
X146997842Y-86982955D01*
X147040742Y-86918751D01*
X147126539Y-86790346D01*
X147290346Y-86626539D01*
X147482954Y-86497843D01*
X147482955Y-86497842D01*
X147696973Y-86409193D01*
X147848440Y-86379064D01*
X147924173Y-86364000D01*
X148155827Y-86364000D01*
X148231560Y-86379064D01*
G37*
G36*
X129764499Y-86053445D02*
G01*
X129801995Y-86064820D01*
X129836554Y-86083292D01*
X129866847Y-86108153D01*
X129891708Y-86138446D01*
X129910180Y-86173005D01*
X129921555Y-86210501D01*
X129926000Y-86255638D01*
X129926000Y-86994362D01*
X129921555Y-87039499D01*
X129910180Y-87076995D01*
X129891708Y-87111554D01*
X129866847Y-87141847D01*
X129836554Y-87166708D01*
X129801995Y-87185180D01*
X129764499Y-87196555D01*
X129719362Y-87201000D01*
X129080638Y-87201000D01*
X129035501Y-87196555D01*
X128998005Y-87185180D01*
X128963446Y-87166708D01*
X128933153Y-87141847D01*
X128908292Y-87111554D01*
X128889820Y-87076995D01*
X128878445Y-87039499D01*
X128874000Y-86994362D01*
X128874000Y-86255638D01*
X128878445Y-86210501D01*
X128889820Y-86173005D01*
X128908292Y-86138446D01*
X128933153Y-86108153D01*
X128963446Y-86083292D01*
X128998005Y-86064820D01*
X129035501Y-86053445D01*
X129080638Y-86049000D01*
X129719362Y-86049000D01*
X129764499Y-86053445D01*
G37*
G36*
X124475271Y-83937783D02*
G01*
X124613858Y-83965350D01*
X124809677Y-84046461D01*
X124985910Y-84164216D01*
X125135784Y-84314090D01*
X125253539Y-84490323D01*
X125334650Y-84686142D01*
X125376000Y-84894023D01*
X125376000Y-85105977D01*
X125334650Y-85313858D01*
X125253539Y-85509677D01*
X125135784Y-85685910D01*
X124985910Y-85835784D01*
X124809677Y-85953539D01*
X124613858Y-86034650D01*
X124516312Y-86054053D01*
X124405978Y-86076000D01*
X124194022Y-86076000D01*
X124083688Y-86054053D01*
X123986142Y-86034650D01*
X123790323Y-85953539D01*
X123614090Y-85835784D01*
X123464216Y-85685910D01*
X123346461Y-85509677D01*
X123265350Y-85313858D01*
X123224000Y-85105977D01*
X123224000Y-84894023D01*
X123265350Y-84686142D01*
X123346461Y-84490323D01*
X123464216Y-84314090D01*
X123614090Y-84164216D01*
X123790323Y-84046461D01*
X123986142Y-83965350D01*
X124124729Y-83937783D01*
X124194022Y-83924000D01*
X124405978Y-83924000D01*
X124475271Y-83937783D01*
G37*
G36*
X145675271Y-83937783D02*
G01*
X145813858Y-83965350D01*
X146009677Y-84046461D01*
X146185910Y-84164216D01*
X146335784Y-84314090D01*
X146453539Y-84490323D01*
X146534650Y-84686142D01*
X146576000Y-84894023D01*
X146576000Y-85105977D01*
X146534650Y-85313858D01*
X146453539Y-85509677D01*
X146335784Y-85685910D01*
X146185910Y-85835784D01*
X146009677Y-85953539D01*
X145813858Y-86034650D01*
X145716312Y-86054053D01*
X145605978Y-86076000D01*
X145394022Y-86076000D01*
X145283688Y-86054053D01*
X145186142Y-86034650D01*
X144990323Y-85953539D01*
X144814090Y-85835784D01*
X144664216Y-85685910D01*
X144546461Y-85509677D01*
X144465350Y-85313858D01*
X144424000Y-85105977D01*
X144424000Y-84894023D01*
X144465350Y-84686142D01*
X144546461Y-84490323D01*
X144664216Y-84314090D01*
X144814090Y-84164216D01*
X144990323Y-84046461D01*
X145186142Y-83965350D01*
X145324729Y-83937783D01*
X145394022Y-83924000D01*
X145605978Y-83924000D01*
X145675271Y-83937783D01*
G37*
G36*
X137438674Y-84253465D02*
G01*
X137476367Y-84264899D01*
X137511103Y-84283466D01*
X137541548Y-84308452D01*
X137566534Y-84338897D01*
X137585101Y-84373633D01*
X137596535Y-84411326D01*
X137601000Y-84456661D01*
X137601000Y-85543339D01*
X137596535Y-85588674D01*
X137585101Y-85626367D01*
X137566534Y-85661103D01*
X137541548Y-85691548D01*
X137511103Y-85716534D01*
X137476367Y-85735101D01*
X137438674Y-85746535D01*
X137393339Y-85751000D01*
X136556661Y-85751000D01*
X136511326Y-85746535D01*
X136473633Y-85735101D01*
X136438897Y-85716534D01*
X136408452Y-85691548D01*
X136383466Y-85661103D01*
X136364899Y-85626367D01*
X136353465Y-85588674D01*
X136349000Y-85543339D01*
X136349000Y-84456661D01*
X136353465Y-84411326D01*
X136364899Y-84373633D01*
X136383466Y-84338897D01*
X136408452Y-84308452D01*
X136438897Y-84283466D01*
X136473633Y-84264899D01*
X136511326Y-84253465D01*
X136556661Y-84249000D01*
X137393339Y-84249000D01*
X137438674Y-84253465D01*
G37*
G36*
X139488674Y-84253465D02*
G01*
X139526367Y-84264899D01*
X139561103Y-84283466D01*
X139591548Y-84308452D01*
X139616534Y-84338897D01*
X139635101Y-84373633D01*
X139646535Y-84411326D01*
X139651000Y-84456661D01*
X139651000Y-85543339D01*
X139646535Y-85588674D01*
X139635101Y-85626367D01*
X139616534Y-85661103D01*
X139591548Y-85691548D01*
X139561103Y-85716534D01*
X139526367Y-85735101D01*
X139488674Y-85746535D01*
X139443339Y-85751000D01*
X138606661Y-85751000D01*
X138561326Y-85746535D01*
X138523633Y-85735101D01*
X138488897Y-85716534D01*
X138458452Y-85691548D01*
X138433466Y-85661103D01*
X138414899Y-85626367D01*
X138403465Y-85588674D01*
X138399000Y-85543339D01*
X138399000Y-84456661D01*
X138403465Y-84411326D01*
X138414899Y-84373633D01*
X138433466Y-84338897D01*
X138458452Y-84308452D01*
X138488897Y-84283466D01*
X138523633Y-84264899D01*
X138561326Y-84253465D01*
X138606661Y-84249000D01*
X139443339Y-84249000D01*
X139488674Y-84253465D01*
G37*
G36*
X129964499Y-83303445D02*
G01*
X130001995Y-83314820D01*
X130036554Y-83333292D01*
X130066847Y-83358153D01*
X130091708Y-83388446D01*
X130110180Y-83423005D01*
X130121555Y-83460501D01*
X130126000Y-83505638D01*
X130126000Y-84244362D01*
X130121555Y-84289499D01*
X130110180Y-84326995D01*
X130091708Y-84361554D01*
X130066847Y-84391847D01*
X130036554Y-84416708D01*
X130001995Y-84435180D01*
X129964499Y-84446555D01*
X129919362Y-84451000D01*
X129280638Y-84451000D01*
X129235501Y-84446555D01*
X129198005Y-84435180D01*
X129163446Y-84416708D01*
X129133153Y-84391847D01*
X129108292Y-84361554D01*
X129089820Y-84326995D01*
X129078445Y-84289499D01*
X129074000Y-84244362D01*
X129074000Y-83505638D01*
X129078445Y-83460501D01*
X129089820Y-83423005D01*
X129108292Y-83388446D01*
X129133153Y-83358153D01*
X129163446Y-83333292D01*
X129198005Y-83314820D01*
X129235501Y-83303445D01*
X129280638Y-83299000D01*
X129919362Y-83299000D01*
X129964499Y-83303445D01*
G37*
G36*
X148231560Y-81299064D02*
G01*
X148383027Y-81329193D01*
X148597045Y-81417842D01*
X148597046Y-81417843D01*
X148789654Y-81546539D01*
X148953461Y-81710346D01*
X148983724Y-81755638D01*
X149082158Y-81902955D01*
X149170807Y-82116973D01*
X149170807Y-82116975D01*
X149216000Y-82344173D01*
X149216000Y-82575827D01*
X149214351Y-82584115D01*
X149170807Y-82803027D01*
X149082158Y-83017045D01*
X149082157Y-83017046D01*
X148953461Y-83209654D01*
X148789654Y-83373461D01*
X148661249Y-83459258D01*
X148597045Y-83502158D01*
X148383027Y-83590807D01*
X148231560Y-83620936D01*
X148155827Y-83636000D01*
X147924173Y-83636000D01*
X147848440Y-83620936D01*
X147696973Y-83590807D01*
X147482955Y-83502158D01*
X147418751Y-83459258D01*
X147290346Y-83373461D01*
X147126539Y-83209654D01*
X146997843Y-83017046D01*
X146997842Y-83017045D01*
X146909193Y-82803027D01*
X146865649Y-82584115D01*
X146864000Y-82575827D01*
X146864000Y-82344173D01*
X146909193Y-82116975D01*
X146909193Y-82116973D01*
X146997842Y-81902955D01*
X147096276Y-81755638D01*
X147126539Y-81710346D01*
X147290346Y-81546539D01*
X147482954Y-81417843D01*
X147482955Y-81417842D01*
X147696973Y-81329193D01*
X147848440Y-81299064D01*
X147924173Y-81284000D01*
X148155827Y-81284000D01*
X148231560Y-81299064D01*
G37*
G36*
X143151560Y-81299064D02*
G01*
X143303027Y-81329193D01*
X143517045Y-81417842D01*
X143517046Y-81417843D01*
X143709654Y-81546539D01*
X143873461Y-81710346D01*
X143903724Y-81755638D01*
X144002158Y-81902955D01*
X144090807Y-82116973D01*
X144090807Y-82116975D01*
X144136000Y-82344173D01*
X144136000Y-82575827D01*
X144134351Y-82584115D01*
X144090807Y-82803027D01*
X144002158Y-83017045D01*
X144002157Y-83017046D01*
X143873461Y-83209654D01*
X143709654Y-83373461D01*
X143581249Y-83459258D01*
X143517045Y-83502158D01*
X143303027Y-83590807D01*
X143151560Y-83620936D01*
X143075827Y-83636000D01*
X142844173Y-83636000D01*
X142768440Y-83620936D01*
X142616973Y-83590807D01*
X142402955Y-83502158D01*
X142338751Y-83459258D01*
X142210346Y-83373461D01*
X142046539Y-83209654D01*
X141917843Y-83017046D01*
X141917842Y-83017045D01*
X141829193Y-82803027D01*
X141785649Y-82584115D01*
X141784000Y-82575827D01*
X141784000Y-82344173D01*
X141829193Y-82116975D01*
X141829193Y-82116973D01*
X141917842Y-81902955D01*
X142016276Y-81755638D01*
X142046539Y-81710346D01*
X142210346Y-81546539D01*
X142402954Y-81417843D01*
X142402955Y-81417842D01*
X142616973Y-81329193D01*
X142768440Y-81299064D01*
X142844173Y-81284000D01*
X143075827Y-81284000D01*
X143151560Y-81299064D01*
G37*
G36*
X127031560Y-81299064D02*
G01*
X127183027Y-81329193D01*
X127397045Y-81417842D01*
X127397046Y-81417843D01*
X127589654Y-81546539D01*
X127753461Y-81710346D01*
X127783724Y-81755638D01*
X127882158Y-81902955D01*
X127970807Y-82116973D01*
X127970807Y-82116975D01*
X128016000Y-82344173D01*
X128016000Y-82575827D01*
X128014351Y-82584115D01*
X127970807Y-82803027D01*
X127882158Y-83017045D01*
X127882157Y-83017046D01*
X127753461Y-83209654D01*
X127589654Y-83373461D01*
X127461249Y-83459258D01*
X127397045Y-83502158D01*
X127183027Y-83590807D01*
X127031560Y-83620936D01*
X126955827Y-83636000D01*
X126724173Y-83636000D01*
X126648440Y-83620936D01*
X126496973Y-83590807D01*
X126282955Y-83502158D01*
X126218751Y-83459258D01*
X126090346Y-83373461D01*
X125926539Y-83209654D01*
X125797843Y-83017046D01*
X125797842Y-83017045D01*
X125709193Y-82803027D01*
X125665649Y-82584115D01*
X125664000Y-82575827D01*
X125664000Y-82344173D01*
X125709193Y-82116975D01*
X125709193Y-82116973D01*
X125797842Y-81902955D01*
X125896276Y-81755638D01*
X125926539Y-81710346D01*
X126090346Y-81546539D01*
X126282954Y-81417843D01*
X126282955Y-81417842D01*
X126496973Y-81329193D01*
X126648440Y-81299064D01*
X126724173Y-81284000D01*
X126955827Y-81284000D01*
X127031560Y-81299064D01*
G37*
G36*
X121951560Y-81299064D02*
G01*
X122103027Y-81329193D01*
X122317045Y-81417842D01*
X122317046Y-81417843D01*
X122509654Y-81546539D01*
X122673461Y-81710346D01*
X122703724Y-81755638D01*
X122802158Y-81902955D01*
X122890807Y-82116973D01*
X122890807Y-82116975D01*
X122936000Y-82344173D01*
X122936000Y-82575827D01*
X122934351Y-82584115D01*
X122890807Y-82803027D01*
X122802158Y-83017045D01*
X122802157Y-83017046D01*
X122673461Y-83209654D01*
X122509654Y-83373461D01*
X122381249Y-83459258D01*
X122317045Y-83502158D01*
X122103027Y-83590807D01*
X121951560Y-83620936D01*
X121875827Y-83636000D01*
X121644173Y-83636000D01*
X121568440Y-83620936D01*
X121416973Y-83590807D01*
X121202955Y-83502158D01*
X121138751Y-83459258D01*
X121010346Y-83373461D01*
X120846539Y-83209654D01*
X120717843Y-83017046D01*
X120717842Y-83017045D01*
X120629193Y-82803027D01*
X120585649Y-82584115D01*
X120584000Y-82575827D01*
X120584000Y-82344173D01*
X120629193Y-82116975D01*
X120629193Y-82116973D01*
X120717842Y-81902955D01*
X120816276Y-81755638D01*
X120846539Y-81710346D01*
X121010346Y-81546539D01*
X121202954Y-81417843D01*
X121202955Y-81417842D01*
X121416973Y-81329193D01*
X121568440Y-81299064D01*
X121644173Y-81284000D01*
X121875827Y-81284000D01*
X121951560Y-81299064D01*
G37*
G36*
X137625562Y-80978181D02*
G01*
X137660481Y-80988774D01*
X137692663Y-81005976D01*
X137720873Y-81029127D01*
X137744024Y-81057337D01*
X137761226Y-81089519D01*
X137771819Y-81124438D01*
X137776000Y-81166895D01*
X137776000Y-82633105D01*
X137771819Y-82675562D01*
X137761226Y-82710481D01*
X137744024Y-82742663D01*
X137720873Y-82770873D01*
X137692663Y-82794024D01*
X137660481Y-82811226D01*
X137625562Y-82821819D01*
X137583105Y-82826000D01*
X136441895Y-82826000D01*
X136399438Y-82821819D01*
X136364519Y-82811226D01*
X136332337Y-82794024D01*
X136304127Y-82770873D01*
X136280976Y-82742663D01*
X136263774Y-82710481D01*
X136253181Y-82675562D01*
X136249000Y-82633105D01*
X136249000Y-81166895D01*
X136253181Y-81124438D01*
X136263774Y-81089519D01*
X136280976Y-81057337D01*
X136304127Y-81029127D01*
X136332337Y-81005976D01*
X136364519Y-80988774D01*
X136399438Y-80978181D01*
X136441895Y-80974000D01*
X137583105Y-80974000D01*
X137625562Y-80978181D01*
G37*
G36*
X140600562Y-80978181D02*
G01*
X140635481Y-80988774D01*
X140667663Y-81005976D01*
X140695873Y-81029127D01*
X140719024Y-81057337D01*
X140736226Y-81089519D01*
X140746819Y-81124438D01*
X140751000Y-81166895D01*
X140751000Y-82633105D01*
X140746819Y-82675562D01*
X140736226Y-82710481D01*
X140719024Y-82742663D01*
X140695873Y-82770873D01*
X140667663Y-82794024D01*
X140635481Y-82811226D01*
X140600562Y-82821819D01*
X140558105Y-82826000D01*
X139416895Y-82826000D01*
X139374438Y-82821819D01*
X139339519Y-82811226D01*
X139307337Y-82794024D01*
X139279127Y-82770873D01*
X139255976Y-82742663D01*
X139238774Y-82710481D01*
X139228181Y-82675562D01*
X139224000Y-82633105D01*
X139224000Y-81166895D01*
X139228181Y-81124438D01*
X139238774Y-81089519D01*
X139255976Y-81057337D01*
X139279127Y-81029127D01*
X139307337Y-81005976D01*
X139339519Y-80988774D01*
X139374438Y-80978181D01*
X139416895Y-80974000D01*
X140558105Y-80974000D01*
X140600562Y-80978181D01*
G37*
G36*
X135021000Y-82726000D02*
G01*
X134119000Y-82726000D01*
X134119000Y-80974000D01*
X135021000Y-80974000D01*
X135021000Y-82726000D01*
G37*
G36*
X132481000Y-82726000D02*
G01*
X131579000Y-82726000D01*
X131579000Y-80974000D01*
X132481000Y-80974000D01*
X132481000Y-82726000D01*
G37*
G36*
X129964499Y-81553445D02*
G01*
X130001995Y-81564820D01*
X130036554Y-81583292D01*
X130066847Y-81608153D01*
X130091708Y-81638446D01*
X130110180Y-81673005D01*
X130121555Y-81710501D01*
X130126000Y-81755638D01*
X130126000Y-82494362D01*
X130121555Y-82539499D01*
X130110180Y-82576995D01*
X130091708Y-82611554D01*
X130066847Y-82641847D01*
X130036554Y-82666708D01*
X130001995Y-82685180D01*
X129964499Y-82696555D01*
X129919362Y-82701000D01*
X129280638Y-82701000D01*
X129235501Y-82696555D01*
X129198005Y-82685180D01*
X129163446Y-82666708D01*
X129133153Y-82641847D01*
X129108292Y-82611554D01*
X129089820Y-82576995D01*
X129078445Y-82539499D01*
X129074000Y-82494362D01*
X129074000Y-81755638D01*
X129078445Y-81710501D01*
X129089820Y-81673005D01*
X129108292Y-81638446D01*
X129133153Y-81608153D01*
X129163446Y-81583292D01*
X129198005Y-81564820D01*
X129235501Y-81553445D01*
X129280638Y-81549000D01*
X129919362Y-81549000D01*
X129964499Y-81553445D01*
G37*
G36*
X135221000Y-79026000D02*
G01*
X134319000Y-79026000D01*
X134319000Y-77274000D01*
X135221000Y-77274000D01*
X135221000Y-79026000D01*
G37*
G36*
X132681000Y-79026000D02*
G01*
X131779000Y-79026000D01*
X131779000Y-77274000D01*
X132681000Y-77274000D01*
X132681000Y-79026000D01*
G37*
G36*
X129964499Y-77803445D02*
G01*
X130001995Y-77814820D01*
X130036554Y-77833292D01*
X130066847Y-77858153D01*
X130091708Y-77888446D01*
X130110180Y-77923005D01*
X130121555Y-77960501D01*
X130126000Y-78005638D01*
X130126000Y-78744362D01*
X130121555Y-78789499D01*
X130110180Y-78826995D01*
X130091708Y-78861554D01*
X130066847Y-78891847D01*
X130036554Y-78916708D01*
X130001995Y-78935180D01*
X129964499Y-78946555D01*
X129919362Y-78951000D01*
X129280638Y-78951000D01*
X129235501Y-78946555D01*
X129198005Y-78935180D01*
X129163446Y-78916708D01*
X129133153Y-78891847D01*
X129108292Y-78861554D01*
X129089820Y-78826995D01*
X129078445Y-78789499D01*
X129074000Y-78744362D01*
X129074000Y-78005638D01*
X129078445Y-77960501D01*
X129089820Y-77923005D01*
X129108292Y-77888446D01*
X129133153Y-77858153D01*
X129163446Y-77833292D01*
X129198005Y-77814820D01*
X129235501Y-77803445D01*
X129280638Y-77799000D01*
X129919362Y-77799000D01*
X129964499Y-77803445D01*
G37*
G36*
X137825562Y-76978181D02*
G01*
X137860481Y-76988774D01*
X137892663Y-77005976D01*
X137920873Y-77029127D01*
X137944024Y-77057337D01*
X137961226Y-77089519D01*
X137971819Y-77124438D01*
X137976000Y-77166895D01*
X137976000Y-78633105D01*
X137971819Y-78675562D01*
X137961226Y-78710481D01*
X137944024Y-78742663D01*
X137920873Y-78770873D01*
X137892663Y-78794024D01*
X137860481Y-78811226D01*
X137825562Y-78821819D01*
X137783105Y-78826000D01*
X136641895Y-78826000D01*
X136599438Y-78821819D01*
X136564519Y-78811226D01*
X136532337Y-78794024D01*
X136504127Y-78770873D01*
X136480976Y-78742663D01*
X136463774Y-78710481D01*
X136453181Y-78675562D01*
X136449000Y-78633105D01*
X136449000Y-77166895D01*
X136453181Y-77124438D01*
X136463774Y-77089519D01*
X136480976Y-77057337D01*
X136504127Y-77029127D01*
X136532337Y-77005976D01*
X136564519Y-76988774D01*
X136599438Y-76978181D01*
X136641895Y-76974000D01*
X137783105Y-76974000D01*
X137825562Y-76978181D01*
G37*
G36*
X140800562Y-76978181D02*
G01*
X140835481Y-76988774D01*
X140867663Y-77005976D01*
X140895873Y-77029127D01*
X140919024Y-77057337D01*
X140936226Y-77089519D01*
X140946819Y-77124438D01*
X140951000Y-77166895D01*
X140951000Y-78633105D01*
X140946819Y-78675562D01*
X140936226Y-78710481D01*
X140919024Y-78742663D01*
X140895873Y-78770873D01*
X140867663Y-78794024D01*
X140835481Y-78811226D01*
X140800562Y-78821819D01*
X140758105Y-78826000D01*
X139616895Y-78826000D01*
X139574438Y-78821819D01*
X139539519Y-78811226D01*
X139507337Y-78794024D01*
X139479127Y-78770873D01*
X139455976Y-78742663D01*
X139438774Y-78710481D01*
X139428181Y-78675562D01*
X139424000Y-78633105D01*
X139424000Y-77166895D01*
X139428181Y-77124438D01*
X139438774Y-77089519D01*
X139455976Y-77057337D01*
X139479127Y-77029127D01*
X139507337Y-77005976D01*
X139539519Y-76988774D01*
X139574438Y-76978181D01*
X139616895Y-76974000D01*
X140758105Y-76974000D01*
X140800562Y-76978181D01*
G37*
G36*
X122151560Y-76379064D02*
G01*
X122303027Y-76409193D01*
X122517045Y-76497842D01*
X122517046Y-76497843D01*
X122709654Y-76626539D01*
X122873461Y-76790346D01*
X122959258Y-76918751D01*
X123002158Y-76982955D01*
X123090807Y-77196973D01*
X123136000Y-77424174D01*
X123136000Y-77655826D01*
X123090807Y-77883027D01*
X123002158Y-78097045D01*
X123002157Y-78097046D01*
X122873461Y-78289654D01*
X122709654Y-78453461D01*
X122581249Y-78539258D01*
X122517045Y-78582158D01*
X122303027Y-78670807D01*
X122151560Y-78700936D01*
X122075827Y-78716000D01*
X121844173Y-78716000D01*
X121768440Y-78700936D01*
X121616973Y-78670807D01*
X121402955Y-78582158D01*
X121338751Y-78539258D01*
X121210346Y-78453461D01*
X121046539Y-78289654D01*
X120917843Y-78097046D01*
X120917842Y-78097045D01*
X120829193Y-77883027D01*
X120784000Y-77655826D01*
X120784000Y-77424174D01*
X120829193Y-77196973D01*
X120917842Y-76982955D01*
X120960742Y-76918751D01*
X121046539Y-76790346D01*
X121210346Y-76626539D01*
X121402954Y-76497843D01*
X121402955Y-76497842D01*
X121616973Y-76409193D01*
X121768440Y-76379064D01*
X121844173Y-76364000D01*
X122075827Y-76364000D01*
X122151560Y-76379064D01*
G37*
G36*
X148431560Y-76379064D02*
G01*
X148583027Y-76409193D01*
X148797045Y-76497842D01*
X148797046Y-76497843D01*
X148989654Y-76626539D01*
X149153461Y-76790346D01*
X149239258Y-76918751D01*
X149282158Y-76982955D01*
X149370807Y-77196973D01*
X149416000Y-77424174D01*
X149416000Y-77655826D01*
X149370807Y-77883027D01*
X149282158Y-78097045D01*
X149282157Y-78097046D01*
X149153461Y-78289654D01*
X148989654Y-78453461D01*
X148861249Y-78539258D01*
X148797045Y-78582158D01*
X148583027Y-78670807D01*
X148431560Y-78700936D01*
X148355827Y-78716000D01*
X148124173Y-78716000D01*
X148048440Y-78700936D01*
X147896973Y-78670807D01*
X147682955Y-78582158D01*
X147618751Y-78539258D01*
X147490346Y-78453461D01*
X147326539Y-78289654D01*
X147197843Y-78097046D01*
X147197842Y-78097045D01*
X147109193Y-77883027D01*
X147064000Y-77655826D01*
X147064000Y-77424174D01*
X147109193Y-77196973D01*
X147197842Y-76982955D01*
X147240742Y-76918751D01*
X147326539Y-76790346D01*
X147490346Y-76626539D01*
X147682954Y-76497843D01*
X147682955Y-76497842D01*
X147896973Y-76409193D01*
X148048440Y-76379064D01*
X148124173Y-76364000D01*
X148355827Y-76364000D01*
X148431560Y-76379064D01*
G37*
G36*
X143351560Y-76379064D02*
G01*
X143503027Y-76409193D01*
X143717045Y-76497842D01*
X143717046Y-76497843D01*
X143909654Y-76626539D01*
X144073461Y-76790346D01*
X144159258Y-76918751D01*
X144202158Y-76982955D01*
X144290807Y-77196973D01*
X144336000Y-77424174D01*
X144336000Y-77655826D01*
X144290807Y-77883027D01*
X144202158Y-78097045D01*
X144202157Y-78097046D01*
X144073461Y-78289654D01*
X143909654Y-78453461D01*
X143781249Y-78539258D01*
X143717045Y-78582158D01*
X143503027Y-78670807D01*
X143351560Y-78700936D01*
X143275827Y-78716000D01*
X143044173Y-78716000D01*
X142968440Y-78700936D01*
X142816973Y-78670807D01*
X142602955Y-78582158D01*
X142538751Y-78539258D01*
X142410346Y-78453461D01*
X142246539Y-78289654D01*
X142117843Y-78097046D01*
X142117842Y-78097045D01*
X142029193Y-77883027D01*
X141984000Y-77655826D01*
X141984000Y-77424174D01*
X142029193Y-77196973D01*
X142117842Y-76982955D01*
X142160742Y-76918751D01*
X142246539Y-76790346D01*
X142410346Y-76626539D01*
X142602954Y-76497843D01*
X142602955Y-76497842D01*
X142816973Y-76409193D01*
X142968440Y-76379064D01*
X143044173Y-76364000D01*
X143275827Y-76364000D01*
X143351560Y-76379064D01*
G37*
G36*
X127231560Y-76379064D02*
G01*
X127383027Y-76409193D01*
X127597045Y-76497842D01*
X127597046Y-76497843D01*
X127789654Y-76626539D01*
X127953461Y-76790346D01*
X128039258Y-76918751D01*
X128082158Y-76982955D01*
X128170807Y-77196973D01*
X128216000Y-77424174D01*
X128216000Y-77655826D01*
X128170807Y-77883027D01*
X128082158Y-78097045D01*
X128082157Y-78097046D01*
X127953461Y-78289654D01*
X127789654Y-78453461D01*
X127661249Y-78539258D01*
X127597045Y-78582158D01*
X127383027Y-78670807D01*
X127231560Y-78700936D01*
X127155827Y-78716000D01*
X126924173Y-78716000D01*
X126848440Y-78700936D01*
X126696973Y-78670807D01*
X126482955Y-78582158D01*
X126418751Y-78539258D01*
X126290346Y-78453461D01*
X126126539Y-78289654D01*
X125997843Y-78097046D01*
X125997842Y-78097045D01*
X125909193Y-77883027D01*
X125864000Y-77655826D01*
X125864000Y-77424174D01*
X125909193Y-77196973D01*
X125997842Y-76982955D01*
X126040742Y-76918751D01*
X126126539Y-76790346D01*
X126290346Y-76626539D01*
X126482954Y-76497843D01*
X126482955Y-76497842D01*
X126696973Y-76409193D01*
X126848440Y-76379064D01*
X126924173Y-76364000D01*
X127155827Y-76364000D01*
X127231560Y-76379064D01*
G37*
G36*
X129964499Y-76053445D02*
G01*
X130001995Y-76064820D01*
X130036554Y-76083292D01*
X130066847Y-76108153D01*
X130091708Y-76138446D01*
X130110180Y-76173005D01*
X130121555Y-76210501D01*
X130126000Y-76255638D01*
X130126000Y-76994362D01*
X130121555Y-77039499D01*
X130110180Y-77076995D01*
X130091708Y-77111554D01*
X130066847Y-77141847D01*
X130036554Y-77166708D01*
X130001995Y-77185180D01*
X129964499Y-77196555D01*
X129919362Y-77201000D01*
X129280638Y-77201000D01*
X129235501Y-77196555D01*
X129198005Y-77185180D01*
X129163446Y-77166708D01*
X129133153Y-77141847D01*
X129108292Y-77111554D01*
X129089820Y-77076995D01*
X129078445Y-77039499D01*
X129074000Y-76994362D01*
X129074000Y-76255638D01*
X129078445Y-76210501D01*
X129089820Y-76173005D01*
X129108292Y-76138446D01*
X129133153Y-76108153D01*
X129163446Y-76083292D01*
X129198005Y-76064820D01*
X129235501Y-76053445D01*
X129280638Y-76049000D01*
X129919362Y-76049000D01*
X129964499Y-76053445D01*
G37*
G36*
X145875271Y-73937783D02*
G01*
X146013858Y-73965350D01*
X146209677Y-74046461D01*
X146385910Y-74164216D01*
X146535784Y-74314090D01*
X146653539Y-74490323D01*
X146734650Y-74686142D01*
X146776000Y-74894023D01*
X146776000Y-75105977D01*
X146734650Y-75313858D01*
X146653539Y-75509677D01*
X146535784Y-75685910D01*
X146385910Y-75835784D01*
X146209677Y-75953539D01*
X146013858Y-76034650D01*
X145916312Y-76054053D01*
X145805978Y-76076000D01*
X145594022Y-76076000D01*
X145483688Y-76054053D01*
X145386142Y-76034650D01*
X145190323Y-75953539D01*
X145014090Y-75835784D01*
X144864216Y-75685910D01*
X144746461Y-75509677D01*
X144665350Y-75313858D01*
X144624000Y-75105977D01*
X144624000Y-74894023D01*
X144665350Y-74686142D01*
X144746461Y-74490323D01*
X144864216Y-74314090D01*
X145014090Y-74164216D01*
X145190323Y-74046461D01*
X145386142Y-73965350D01*
X145524729Y-73937783D01*
X145594022Y-73924000D01*
X145805978Y-73924000D01*
X145875271Y-73937783D01*
G37*
G36*
X124675271Y-73937783D02*
G01*
X124813858Y-73965350D01*
X125009677Y-74046461D01*
X125185910Y-74164216D01*
X125335784Y-74314090D01*
X125453539Y-74490323D01*
X125534650Y-74686142D01*
X125576000Y-74894023D01*
X125576000Y-75105977D01*
X125534650Y-75313858D01*
X125453539Y-75509677D01*
X125335784Y-75685910D01*
X125185910Y-75835784D01*
X125009677Y-75953539D01*
X124813858Y-76034650D01*
X124716312Y-76054053D01*
X124605978Y-76076000D01*
X124394022Y-76076000D01*
X124283688Y-76054053D01*
X124186142Y-76034650D01*
X123990323Y-75953539D01*
X123814090Y-75835784D01*
X123664216Y-75685910D01*
X123546461Y-75509677D01*
X123465350Y-75313858D01*
X123424000Y-75105977D01*
X123424000Y-74894023D01*
X123465350Y-74686142D01*
X123546461Y-74490323D01*
X123664216Y-74314090D01*
X123814090Y-74164216D01*
X123990323Y-74046461D01*
X124186142Y-73965350D01*
X124324729Y-73937783D01*
X124394022Y-73924000D01*
X124605978Y-73924000D01*
X124675271Y-73937783D01*
G37*
G36*
X139688674Y-74253465D02*
G01*
X139726367Y-74264899D01*
X139761103Y-74283466D01*
X139791548Y-74308452D01*
X139816534Y-74338897D01*
X139835101Y-74373633D01*
X139846535Y-74411326D01*
X139851000Y-74456661D01*
X139851000Y-75543339D01*
X139846535Y-75588674D01*
X139835101Y-75626367D01*
X139816534Y-75661103D01*
X139791548Y-75691548D01*
X139761103Y-75716534D01*
X139726367Y-75735101D01*
X139688674Y-75746535D01*
X139643339Y-75751000D01*
X138806661Y-75751000D01*
X138761326Y-75746535D01*
X138723633Y-75735101D01*
X138688897Y-75716534D01*
X138658452Y-75691548D01*
X138633466Y-75661103D01*
X138614899Y-75626367D01*
X138603465Y-75588674D01*
X138599000Y-75543339D01*
X138599000Y-74456661D01*
X138603465Y-74411326D01*
X138614899Y-74373633D01*
X138633466Y-74338897D01*
X138658452Y-74308452D01*
X138688897Y-74283466D01*
X138723633Y-74264899D01*
X138761326Y-74253465D01*
X138806661Y-74249000D01*
X139643339Y-74249000D01*
X139688674Y-74253465D01*
G37*
G36*
X137638674Y-74253465D02*
G01*
X137676367Y-74264899D01*
X137711103Y-74283466D01*
X137741548Y-74308452D01*
X137766534Y-74338897D01*
X137785101Y-74373633D01*
X137796535Y-74411326D01*
X137801000Y-74456661D01*
X137801000Y-75543339D01*
X137796535Y-75588674D01*
X137785101Y-75626367D01*
X137766534Y-75661103D01*
X137741548Y-75691548D01*
X137711103Y-75716534D01*
X137676367Y-75735101D01*
X137638674Y-75746535D01*
X137593339Y-75751000D01*
X136756661Y-75751000D01*
X136711326Y-75746535D01*
X136673633Y-75735101D01*
X136638897Y-75716534D01*
X136608452Y-75691548D01*
X136583466Y-75661103D01*
X136564899Y-75626367D01*
X136553465Y-75588674D01*
X136549000Y-75543339D01*
X136549000Y-74456661D01*
X136553465Y-74411326D01*
X136564899Y-74373633D01*
X136583466Y-74338897D01*
X136608452Y-74308452D01*
X136638897Y-74283466D01*
X136673633Y-74264899D01*
X136711326Y-74253465D01*
X136756661Y-74249000D01*
X137593339Y-74249000D01*
X137638674Y-74253465D01*
G37*
G36*
X130164499Y-73303445D02*
G01*
X130201995Y-73314820D01*
X130236554Y-73333292D01*
X130266847Y-73358153D01*
X130291708Y-73388446D01*
X130310180Y-73423005D01*
X130321555Y-73460501D01*
X130326000Y-73505638D01*
X130326000Y-74244362D01*
X130321555Y-74289499D01*
X130310180Y-74326995D01*
X130291708Y-74361554D01*
X130266847Y-74391847D01*
X130236554Y-74416708D01*
X130201995Y-74435180D01*
X130164499Y-74446555D01*
X130119362Y-74451000D01*
X129480638Y-74451000D01*
X129435501Y-74446555D01*
X129398005Y-74435180D01*
X129363446Y-74416708D01*
X129333153Y-74391847D01*
X129308292Y-74361554D01*
X129289820Y-74326995D01*
X129278445Y-74289499D01*
X129274000Y-74244362D01*
X129274000Y-73505638D01*
X129278445Y-73460501D01*
X129289820Y-73423005D01*
X129308292Y-73388446D01*
X129333153Y-73358153D01*
X129363446Y-73333292D01*
X129398005Y-73314820D01*
X129435501Y-73303445D01*
X129480638Y-73299000D01*
X130119362Y-73299000D01*
X130164499Y-73303445D01*
G37*
G36*
X122151560Y-71299064D02*
G01*
X122303027Y-71329193D01*
X122517045Y-71417842D01*
X122517046Y-71417843D01*
X122709654Y-71546539D01*
X122873461Y-71710346D01*
X122903724Y-71755638D01*
X123002158Y-71902955D01*
X123090807Y-72116973D01*
X123090807Y-72116975D01*
X123136000Y-72344173D01*
X123136000Y-72575827D01*
X123134351Y-72584115D01*
X123090807Y-72803027D01*
X123002158Y-73017045D01*
X123002157Y-73017046D01*
X122873461Y-73209654D01*
X122709654Y-73373461D01*
X122581249Y-73459258D01*
X122517045Y-73502158D01*
X122303027Y-73590807D01*
X122151560Y-73620936D01*
X122075827Y-73636000D01*
X121844173Y-73636000D01*
X121768440Y-73620936D01*
X121616973Y-73590807D01*
X121402955Y-73502158D01*
X121338751Y-73459258D01*
X121210346Y-73373461D01*
X121046539Y-73209654D01*
X120917843Y-73017046D01*
X120917842Y-73017045D01*
X120829193Y-72803027D01*
X120785649Y-72584115D01*
X120784000Y-72575827D01*
X120784000Y-72344173D01*
X120829193Y-72116975D01*
X120829193Y-72116973D01*
X120917842Y-71902955D01*
X121016276Y-71755638D01*
X121046539Y-71710346D01*
X121210346Y-71546539D01*
X121402954Y-71417843D01*
X121402955Y-71417842D01*
X121616973Y-71329193D01*
X121768440Y-71299064D01*
X121844173Y-71284000D01*
X122075827Y-71284000D01*
X122151560Y-71299064D01*
G37*
G36*
X143351560Y-71299064D02*
G01*
X143503027Y-71329193D01*
X143717045Y-71417842D01*
X143717046Y-71417843D01*
X143909654Y-71546539D01*
X144073461Y-71710346D01*
X144103724Y-71755638D01*
X144202158Y-71902955D01*
X144290807Y-72116973D01*
X144290807Y-72116975D01*
X144336000Y-72344173D01*
X144336000Y-72575827D01*
X144334351Y-72584115D01*
X144290807Y-72803027D01*
X144202158Y-73017045D01*
X144202157Y-73017046D01*
X144073461Y-73209654D01*
X143909654Y-73373461D01*
X143781249Y-73459258D01*
X143717045Y-73502158D01*
X143503027Y-73590807D01*
X143351560Y-73620936D01*
X143275827Y-73636000D01*
X143044173Y-73636000D01*
X142968440Y-73620936D01*
X142816973Y-73590807D01*
X142602955Y-73502158D01*
X142538751Y-73459258D01*
X142410346Y-73373461D01*
X142246539Y-73209654D01*
X142117843Y-73017046D01*
X142117842Y-73017045D01*
X142029193Y-72803027D01*
X141985649Y-72584115D01*
X141984000Y-72575827D01*
X141984000Y-72344173D01*
X142029193Y-72116975D01*
X142029193Y-72116973D01*
X142117842Y-71902955D01*
X142216276Y-71755638D01*
X142246539Y-71710346D01*
X142410346Y-71546539D01*
X142602954Y-71417843D01*
X142602955Y-71417842D01*
X142816973Y-71329193D01*
X142968440Y-71299064D01*
X143044173Y-71284000D01*
X143275827Y-71284000D01*
X143351560Y-71299064D01*
G37*
G36*
X127231560Y-71299064D02*
G01*
X127383027Y-71329193D01*
X127597045Y-71417842D01*
X127597046Y-71417843D01*
X127789654Y-71546539D01*
X127953461Y-71710346D01*
X127983724Y-71755638D01*
X128082158Y-71902955D01*
X128170807Y-72116973D01*
X128170807Y-72116975D01*
X128216000Y-72344173D01*
X128216000Y-72575827D01*
X128214351Y-72584115D01*
X128170807Y-72803027D01*
X128082158Y-73017045D01*
X128082157Y-73017046D01*
X127953461Y-73209654D01*
X127789654Y-73373461D01*
X127661249Y-73459258D01*
X127597045Y-73502158D01*
X127383027Y-73590807D01*
X127231560Y-73620936D01*
X127155827Y-73636000D01*
X126924173Y-73636000D01*
X126848440Y-73620936D01*
X126696973Y-73590807D01*
X126482955Y-73502158D01*
X126418751Y-73459258D01*
X126290346Y-73373461D01*
X126126539Y-73209654D01*
X125997843Y-73017046D01*
X125997842Y-73017045D01*
X125909193Y-72803027D01*
X125865649Y-72584115D01*
X125864000Y-72575827D01*
X125864000Y-72344173D01*
X125909193Y-72116975D01*
X125909193Y-72116973D01*
X125997842Y-71902955D01*
X126096276Y-71755638D01*
X126126539Y-71710346D01*
X126290346Y-71546539D01*
X126482954Y-71417843D01*
X126482955Y-71417842D01*
X126696973Y-71329193D01*
X126848440Y-71299064D01*
X126924173Y-71284000D01*
X127155827Y-71284000D01*
X127231560Y-71299064D01*
G37*
G36*
X148431560Y-71299064D02*
G01*
X148583027Y-71329193D01*
X148797045Y-71417842D01*
X148797046Y-71417843D01*
X148989654Y-71546539D01*
X149153461Y-71710346D01*
X149183724Y-71755638D01*
X149282158Y-71902955D01*
X149370807Y-72116973D01*
X149370807Y-72116975D01*
X149416000Y-72344173D01*
X149416000Y-72575827D01*
X149414351Y-72584115D01*
X149370807Y-72803027D01*
X149282158Y-73017045D01*
X149282157Y-73017046D01*
X149153461Y-73209654D01*
X148989654Y-73373461D01*
X148861249Y-73459258D01*
X148797045Y-73502158D01*
X148583027Y-73590807D01*
X148431560Y-73620936D01*
X148355827Y-73636000D01*
X148124173Y-73636000D01*
X148048440Y-73620936D01*
X147896973Y-73590807D01*
X147682955Y-73502158D01*
X147618751Y-73459258D01*
X147490346Y-73373461D01*
X147326539Y-73209654D01*
X147197843Y-73017046D01*
X147197842Y-73017045D01*
X147109193Y-72803027D01*
X147065649Y-72584115D01*
X147064000Y-72575827D01*
X147064000Y-72344173D01*
X147109193Y-72116975D01*
X147109193Y-72116973D01*
X147197842Y-71902955D01*
X147296276Y-71755638D01*
X147326539Y-71710346D01*
X147490346Y-71546539D01*
X147682954Y-71417843D01*
X147682955Y-71417842D01*
X147896973Y-71329193D01*
X148048440Y-71299064D01*
X148124173Y-71284000D01*
X148355827Y-71284000D01*
X148431560Y-71299064D01*
G37*
G36*
X137825562Y-70978181D02*
G01*
X137860481Y-70988774D01*
X137892663Y-71005976D01*
X137920873Y-71029127D01*
X137944024Y-71057337D01*
X137961226Y-71089519D01*
X137971819Y-71124438D01*
X137976000Y-71166895D01*
X137976000Y-72633105D01*
X137971819Y-72675562D01*
X137961226Y-72710481D01*
X137944024Y-72742663D01*
X137920873Y-72770873D01*
X137892663Y-72794024D01*
X137860481Y-72811226D01*
X137825562Y-72821819D01*
X137783105Y-72826000D01*
X136641895Y-72826000D01*
X136599438Y-72821819D01*
X136564519Y-72811226D01*
X136532337Y-72794024D01*
X136504127Y-72770873D01*
X136480976Y-72742663D01*
X136463774Y-72710481D01*
X136453181Y-72675562D01*
X136449000Y-72633105D01*
X136449000Y-71166895D01*
X136453181Y-71124438D01*
X136463774Y-71089519D01*
X136480976Y-71057337D01*
X136504127Y-71029127D01*
X136532337Y-71005976D01*
X136564519Y-70988774D01*
X136599438Y-70978181D01*
X136641895Y-70974000D01*
X137783105Y-70974000D01*
X137825562Y-70978181D01*
G37*
G36*
X140800562Y-70978181D02*
G01*
X140835481Y-70988774D01*
X140867663Y-71005976D01*
X140895873Y-71029127D01*
X140919024Y-71057337D01*
X140936226Y-71089519D01*
X140946819Y-71124438D01*
X140951000Y-71166895D01*
X140951000Y-72633105D01*
X140946819Y-72675562D01*
X140936226Y-72710481D01*
X140919024Y-72742663D01*
X140895873Y-72770873D01*
X140867663Y-72794024D01*
X140835481Y-72811226D01*
X140800562Y-72821819D01*
X140758105Y-72826000D01*
X139616895Y-72826000D01*
X139574438Y-72821819D01*
X139539519Y-72811226D01*
X139507337Y-72794024D01*
X139479127Y-72770873D01*
X139455976Y-72742663D01*
X139438774Y-72710481D01*
X139428181Y-72675562D01*
X139424000Y-72633105D01*
X139424000Y-71166895D01*
X139428181Y-71124438D01*
X139438774Y-71089519D01*
X139455976Y-71057337D01*
X139479127Y-71029127D01*
X139507337Y-71005976D01*
X139539519Y-70988774D01*
X139574438Y-70978181D01*
X139616895Y-70974000D01*
X140758105Y-70974000D01*
X140800562Y-70978181D01*
G37*
G36*
X132681000Y-72726000D02*
G01*
X131779000Y-72726000D01*
X131779000Y-70974000D01*
X132681000Y-70974000D01*
X132681000Y-72726000D01*
G37*
G36*
X135221000Y-72726000D02*
G01*
X134319000Y-72726000D01*
X134319000Y-70974000D01*
X135221000Y-70974000D01*
X135221000Y-72726000D01*
G37*
G36*
X130164499Y-71553445D02*
G01*
X130201995Y-71564820D01*
X130236554Y-71583292D01*
X130266847Y-71608153D01*
X130291708Y-71638446D01*
X130310180Y-71673005D01*
X130321555Y-71710501D01*
X130326000Y-71755638D01*
X130326000Y-72494362D01*
X130321555Y-72539499D01*
X130310180Y-72576995D01*
X130291708Y-72611554D01*
X130266847Y-72641847D01*
X130236554Y-72666708D01*
X130201995Y-72685180D01*
X130164499Y-72696555D01*
X130119362Y-72701000D01*
X129480638Y-72701000D01*
X129435501Y-72696555D01*
X129398005Y-72685180D01*
X129363446Y-72666708D01*
X129333153Y-72641847D01*
X129308292Y-72611554D01*
X129289820Y-72576995D01*
X129278445Y-72539499D01*
X129274000Y-72494362D01*
X129274000Y-71755638D01*
X129278445Y-71710501D01*
X129289820Y-71673005D01*
X129308292Y-71638446D01*
X129333153Y-71608153D01*
X129363446Y-71583292D01*
X129398005Y-71564820D01*
X129435501Y-71553445D01*
X129480638Y-71549000D01*
X130119362Y-71549000D01*
X130164499Y-71553445D01*
G37*
M02*
