M48
; DRILL file {KiCad (5.1.5-0)} date Friday, January 22, 2021 at 06:44:34 AM
; FORMAT={-:-/ absolute / inch / decimal}
; #@! TF.CreationDate,2021-01-22T06:44:34-07:00
; #@! TF.GenerationSoftware,Kicad,Pcbnew,(5.1.5-0)
FMAT,2
INCH
T1C0.0157
T2C0.0591
T3C0.0669
%
G90
G05
T1
X4.9016Y-6.128
X5.0748Y-6.1063
X5.1378Y-3.4803
X5.1378Y-3.874
X5.1378Y-4.2677
X5.1378Y-4.6614
X5.1378Y-5.0551
X5.1378Y-5.4488
X5.1378Y-5.8425
X5.1457Y-3.0866
X5.1969Y-6.1417
X5.2559Y-6.0
X5.3307Y-3.4134
X5.3307Y-3.8071
X5.3307Y-4.2008
X5.3307Y-4.5945
X5.3307Y-4.9882
X5.3307Y-5.3819
X5.3307Y-5.7756
X5.3386Y-3.0197
X5.3622Y-6.1575
X5.5235Y-5.9825
X5.5236Y-6.0612
X5.5236Y-6.0218
X5.5254Y-5.9431
X5.561Y-5.9606
X5.5906Y-5.9882
X5.6024Y-6.0276
X5.6299Y-6.0591
X5.6811Y-5.9213
X5.7402Y-6.1339
T2
X4.8937Y-5.7087
X4.8937Y-3.7402
X4.8937Y-5.315
X4.8937Y-4.5276
X5.7283Y-4.5276
X5.7283Y-3.3465
X5.7362Y-2.9528
X5.7283Y-4.1339
X5.7283Y-3.7402
X5.7283Y-4.9213
X5.7283Y-5.315
X4.8937Y-3.3465
X4.8937Y-4.1339
X4.8937Y-4.9213
X5.7283Y-5.7087
X4.9016Y-2.9528
T3
X5.6283Y-4.4276
X5.6283Y-4.6276
X5.8283Y-4.4276
X5.8283Y-4.6276
X5.6283Y-3.2465
X5.6283Y-3.4465
X5.8283Y-3.2465
X5.8283Y-3.4465
X5.6362Y-2.8528
X5.6362Y-3.0528
X5.8362Y-2.8528
X5.8362Y-3.0528
X5.6283Y-4.0339
X5.6283Y-4.2339
X5.8283Y-4.0339
X5.8283Y-4.2339
X5.6283Y-3.6402
X5.6283Y-3.8402
X5.8283Y-3.6402
X5.8283Y-3.8402
X5.6283Y-4.8213
X5.6283Y-5.0213
X5.8283Y-4.8213
X5.8283Y-5.0213
X5.6283Y-5.215
X5.6283Y-5.415
X5.8283Y-5.215
X5.8283Y-5.415
X4.7937Y-3.2465
X4.7937Y-3.4465
X4.9937Y-3.2465
X4.9937Y-3.4465
X4.7937Y-4.0339
X4.7937Y-4.2339
X4.9937Y-4.0339
X4.9937Y-4.2339
X4.7937Y-4.8213
X4.7937Y-5.0213
X4.9937Y-4.8213
X4.9937Y-5.0213
X5.6283Y-5.6087
X5.6283Y-5.8087
X5.8283Y-5.6087
X5.8283Y-5.8087
X4.8016Y-2.8528
X4.8016Y-3.0528
X5.0016Y-2.8528
X5.0016Y-3.0528
X4.7937Y-5.6087
X4.7937Y-5.8087
X4.9937Y-5.6087
X4.9937Y-5.8087
X4.7937Y-3.6402
X4.7937Y-3.8402
X4.9937Y-3.6402
X4.9937Y-3.8402
X4.7937Y-5.215
X4.7937Y-5.415
X4.9937Y-5.215
X4.9937Y-5.415
X4.7937Y-4.4276
X4.7937Y-4.6276
X4.9937Y-4.4276
X4.9937Y-4.6276
T0
M30
