G04 #@! TF.GenerationSoftware,KiCad,Pcbnew,(5.1.5-0)*
G04 #@! TF.CreationDate,2021-01-13T09:50:44-07:00*
G04 #@! TF.ProjectId,power_cui,706f7765-725f-4637-9569-2e6b69636164,rev?*
G04 #@! TF.SameCoordinates,Original*
G04 #@! TF.FileFunction,Soldermask,Top*
G04 #@! TF.FilePolarity,Negative*
%FSLAX46Y46*%
G04 Gerber Fmt 4.6, Leading zero omitted, Abs format (unit mm)*
G04 Created by KiCad (PCBNEW (5.1.5-0)) date 2021-01-13 09:50:44*
%MOMM*%
%LPD*%
G04 APERTURE LIST*
%ADD10C,0.100000*%
G04 APERTURE END LIST*
D10*
G36*
X98103097Y-132754069D02*
G01*
X98206032Y-132764207D01*
X98404146Y-132824305D01*
X98404149Y-132824306D01*
X98500975Y-132876061D01*
X98586729Y-132921897D01*
X98746765Y-133053235D01*
X98878103Y-133213271D01*
X98923939Y-133299025D01*
X98975694Y-133395851D01*
X98975695Y-133395854D01*
X99035793Y-133593968D01*
X99056085Y-133800000D01*
X99035793Y-134006032D01*
X98975695Y-134204146D01*
X98975694Y-134204149D01*
X98923939Y-134300975D01*
X98878103Y-134386729D01*
X98746765Y-134546765D01*
X98586729Y-134678103D01*
X98500975Y-134723939D01*
X98404149Y-134775694D01*
X98404146Y-134775695D01*
X98206032Y-134835793D01*
X98103097Y-134845931D01*
X98051631Y-134851000D01*
X95948369Y-134851000D01*
X95896903Y-134845931D01*
X95793968Y-134835793D01*
X95595854Y-134775695D01*
X95595851Y-134775694D01*
X95499025Y-134723939D01*
X95413271Y-134678103D01*
X95253235Y-134546765D01*
X95121897Y-134386729D01*
X95076061Y-134300975D01*
X95024306Y-134204149D01*
X95024305Y-134204146D01*
X94964207Y-134006032D01*
X94943915Y-133800000D01*
X94964207Y-133593968D01*
X95024305Y-133395854D01*
X95024306Y-133395851D01*
X95076061Y-133299025D01*
X95121897Y-133213271D01*
X95253235Y-133053235D01*
X95413271Y-132921897D01*
X95499025Y-132876061D01*
X95595851Y-132824306D01*
X95595854Y-132824305D01*
X95793968Y-132764207D01*
X95896903Y-132754069D01*
X95948369Y-132749000D01*
X98051631Y-132749000D01*
X98103097Y-132754069D01*
G37*
G36*
X152921000Y-132551000D02*
G01*
X152019000Y-132551000D01*
X152019000Y-131249000D01*
X152921000Y-131249000D01*
X152921000Y-132551000D01*
G37*
G36*
X150381000Y-132551000D02*
G01*
X149479000Y-132551000D01*
X149479000Y-131249000D01*
X150381000Y-131249000D01*
X150381000Y-132551000D01*
G37*
G36*
X147889499Y-131478445D02*
G01*
X147926995Y-131489820D01*
X147961554Y-131508292D01*
X147991847Y-131533153D01*
X148016708Y-131563446D01*
X148035180Y-131598005D01*
X148046555Y-131635501D01*
X148051000Y-131680638D01*
X148051000Y-132319362D01*
X148046555Y-132364499D01*
X148035180Y-132401995D01*
X148016708Y-132436554D01*
X147991847Y-132466847D01*
X147961554Y-132491708D01*
X147926995Y-132510180D01*
X147889499Y-132521555D01*
X147844362Y-132526000D01*
X147105638Y-132526000D01*
X147060501Y-132521555D01*
X147023005Y-132510180D01*
X146988446Y-132491708D01*
X146958153Y-132466847D01*
X146933292Y-132436554D01*
X146914820Y-132401995D01*
X146903445Y-132364499D01*
X146899000Y-132319362D01*
X146899000Y-131680638D01*
X146903445Y-131635501D01*
X146914820Y-131598005D01*
X146933292Y-131563446D01*
X146958153Y-131533153D01*
X146988446Y-131508292D01*
X147023005Y-131489820D01*
X147060501Y-131478445D01*
X147105638Y-131474000D01*
X147844362Y-131474000D01*
X147889499Y-131478445D01*
G37*
G36*
X146139499Y-131478445D02*
G01*
X146176995Y-131489820D01*
X146211554Y-131508292D01*
X146241847Y-131533153D01*
X146266708Y-131563446D01*
X146285180Y-131598005D01*
X146296555Y-131635501D01*
X146301000Y-131680638D01*
X146301000Y-132319362D01*
X146296555Y-132364499D01*
X146285180Y-132401995D01*
X146266708Y-132436554D01*
X146241847Y-132466847D01*
X146211554Y-132491708D01*
X146176995Y-132510180D01*
X146139499Y-132521555D01*
X146094362Y-132526000D01*
X145355638Y-132526000D01*
X145310501Y-132521555D01*
X145273005Y-132510180D01*
X145238446Y-132491708D01*
X145208153Y-132466847D01*
X145183292Y-132436554D01*
X145164820Y-132401995D01*
X145153445Y-132364499D01*
X145149000Y-132319362D01*
X145149000Y-131680638D01*
X145153445Y-131635501D01*
X145164820Y-131598005D01*
X145183292Y-131563446D01*
X145208153Y-131533153D01*
X145238446Y-131508292D01*
X145273005Y-131489820D01*
X145310501Y-131478445D01*
X145355638Y-131474000D01*
X146094362Y-131474000D01*
X146139499Y-131478445D01*
G37*
G36*
X100206032Y-126964207D02*
G01*
X100404146Y-127024305D01*
X100404149Y-127024306D01*
X100500975Y-127076061D01*
X100586729Y-127121897D01*
X100746765Y-127253235D01*
X100878103Y-127413271D01*
X100888639Y-127432983D01*
X100975694Y-127595851D01*
X100975695Y-127595854D01*
X101035793Y-127793968D01*
X101051000Y-127948370D01*
X101051000Y-130051630D01*
X101035793Y-130206032D01*
X100975695Y-130404145D01*
X100975694Y-130404149D01*
X100923939Y-130500975D01*
X100878103Y-130586729D01*
X100746765Y-130746765D01*
X100586729Y-130878103D01*
X100470030Y-130940479D01*
X100404148Y-130975694D01*
X100404145Y-130975695D01*
X100206031Y-131035793D01*
X100000000Y-131056085D01*
X99793968Y-131035793D01*
X99595854Y-130975695D01*
X99595851Y-130975694D01*
X99499025Y-130923939D01*
X99413271Y-130878103D01*
X99253235Y-130746765D01*
X99121897Y-130586729D01*
X99024307Y-130404149D01*
X99024306Y-130404148D01*
X99024305Y-130404145D01*
X98964207Y-130206031D01*
X98949000Y-130051629D01*
X98949001Y-127948370D01*
X98964208Y-127793968D01*
X99024306Y-127595854D01*
X99024307Y-127595851D01*
X99111362Y-127432983D01*
X99121898Y-127413271D01*
X99253236Y-127253235D01*
X99413272Y-127121897D01*
X99499026Y-127076061D01*
X99595852Y-127024306D01*
X99595855Y-127024305D01*
X99793969Y-126964207D01*
X100000000Y-126943915D01*
X100206032Y-126964207D01*
G37*
G36*
X94106032Y-126964207D02*
G01*
X94304146Y-127024305D01*
X94304149Y-127024306D01*
X94400975Y-127076061D01*
X94486729Y-127121897D01*
X94646765Y-127253235D01*
X94778103Y-127413271D01*
X94788639Y-127432983D01*
X94875694Y-127595851D01*
X94875695Y-127595854D01*
X94935793Y-127793968D01*
X94951000Y-127948370D01*
X94951000Y-130051630D01*
X94935793Y-130206032D01*
X94875695Y-130404145D01*
X94875694Y-130404149D01*
X94823939Y-130500975D01*
X94778103Y-130586729D01*
X94646765Y-130746765D01*
X94486729Y-130878103D01*
X94370030Y-130940479D01*
X94304148Y-130975694D01*
X94304145Y-130975695D01*
X94106031Y-131035793D01*
X93900000Y-131056085D01*
X93693968Y-131035793D01*
X93495854Y-130975695D01*
X93495851Y-130975694D01*
X93399025Y-130923939D01*
X93313271Y-130878103D01*
X93153235Y-130746765D01*
X93021897Y-130586729D01*
X92924307Y-130404149D01*
X92924306Y-130404148D01*
X92924305Y-130404145D01*
X92864207Y-130206031D01*
X92849000Y-130051629D01*
X92849001Y-127948370D01*
X92864208Y-127793968D01*
X92924306Y-127595854D01*
X92924307Y-127595851D01*
X93011362Y-127432983D01*
X93021898Y-127413271D01*
X93153236Y-127253235D01*
X93313272Y-127121897D01*
X93399026Y-127076061D01*
X93495852Y-127024306D01*
X93495855Y-127024305D01*
X93693969Y-126964207D01*
X93900000Y-126943915D01*
X94106032Y-126964207D01*
G37*
G36*
X105788674Y-128403465D02*
G01*
X105826367Y-128414899D01*
X105861103Y-128433466D01*
X105891548Y-128458452D01*
X105916534Y-128488897D01*
X105935101Y-128523633D01*
X105946535Y-128561326D01*
X105951000Y-128606661D01*
X105951000Y-129443339D01*
X105946535Y-129488674D01*
X105935101Y-129526367D01*
X105916534Y-129561103D01*
X105891548Y-129591548D01*
X105861103Y-129616534D01*
X105826367Y-129635101D01*
X105788674Y-129646535D01*
X105743339Y-129651000D01*
X104656661Y-129651000D01*
X104611326Y-129646535D01*
X104573633Y-129635101D01*
X104538897Y-129616534D01*
X104508452Y-129591548D01*
X104483466Y-129561103D01*
X104464899Y-129526367D01*
X104453465Y-129488674D01*
X104449000Y-129443339D01*
X104449000Y-128606661D01*
X104453465Y-128561326D01*
X104464899Y-128523633D01*
X104483466Y-128488897D01*
X104508452Y-128458452D01*
X104538897Y-128433466D01*
X104573633Y-128414899D01*
X104611326Y-128403465D01*
X104656661Y-128399000D01*
X105743339Y-128399000D01*
X105788674Y-128403465D01*
G37*
G36*
X145301000Y-128776000D02*
G01*
X144599000Y-128776000D01*
X144599000Y-128224000D01*
X145301000Y-128224000D01*
X145301000Y-128776000D01*
G37*
G36*
X147401000Y-128776000D02*
G01*
X146699000Y-128776000D01*
X146699000Y-128224000D01*
X147401000Y-128224000D01*
X147401000Y-128776000D01*
G37*
G36*
X105788674Y-126353465D02*
G01*
X105826367Y-126364899D01*
X105861103Y-126383466D01*
X105891548Y-126408452D01*
X105916534Y-126438897D01*
X105935101Y-126473633D01*
X105946535Y-126511326D01*
X105951000Y-126556661D01*
X105951000Y-127393339D01*
X105946535Y-127438674D01*
X105935101Y-127476367D01*
X105916534Y-127511103D01*
X105891548Y-127541548D01*
X105861103Y-127566534D01*
X105826367Y-127585101D01*
X105788674Y-127596535D01*
X105743339Y-127601000D01*
X104656661Y-127601000D01*
X104611326Y-127596535D01*
X104573633Y-127585101D01*
X104538897Y-127566534D01*
X104508452Y-127541548D01*
X104483466Y-127511103D01*
X104464899Y-127476367D01*
X104453465Y-127438674D01*
X104449000Y-127393339D01*
X104449000Y-126556661D01*
X104453465Y-126511326D01*
X104464899Y-126473633D01*
X104483466Y-126438897D01*
X104508452Y-126408452D01*
X104538897Y-126383466D01*
X104573633Y-126364899D01*
X104611326Y-126353465D01*
X104656661Y-126349000D01*
X105743339Y-126349000D01*
X105788674Y-126353465D01*
G37*
G36*
X152921000Y-126551000D02*
G01*
X152019000Y-126551000D01*
X152019000Y-125249000D01*
X152921000Y-125249000D01*
X152921000Y-126551000D01*
G37*
G36*
X150381000Y-126551000D02*
G01*
X149479000Y-126551000D01*
X149479000Y-125249000D01*
X150381000Y-125249000D01*
X150381000Y-126551000D01*
G37*
G36*
X147376000Y-126201000D02*
G01*
X146824000Y-126201000D01*
X146824000Y-125499000D01*
X147376000Y-125499000D01*
X147376000Y-126201000D01*
G37*
G36*
X147376000Y-124101000D02*
G01*
X146824000Y-124101000D01*
X146824000Y-123399000D01*
X147376000Y-123399000D01*
X147376000Y-124101000D01*
G37*
G36*
X152338855Y-121352140D02*
G01*
X152402618Y-121358420D01*
X152493404Y-121385960D01*
X152525336Y-121395646D01*
X152638425Y-121456094D01*
X152737554Y-121537446D01*
X152818906Y-121636575D01*
X152879354Y-121749664D01*
X152879355Y-121749668D01*
X152916580Y-121872382D01*
X152929149Y-122000000D01*
X152916580Y-122127618D01*
X152889040Y-122218404D01*
X152879354Y-122250336D01*
X152818906Y-122363425D01*
X152737554Y-122462554D01*
X152638425Y-122543906D01*
X152525336Y-122604354D01*
X152493404Y-122614040D01*
X152402618Y-122641580D01*
X152338855Y-122647860D01*
X152306974Y-122651000D01*
X151693026Y-122651000D01*
X151661145Y-122647860D01*
X151597382Y-122641580D01*
X151506596Y-122614040D01*
X151474664Y-122604354D01*
X151361575Y-122543906D01*
X151262446Y-122462554D01*
X151181094Y-122363425D01*
X151120646Y-122250336D01*
X151110960Y-122218404D01*
X151083420Y-122127618D01*
X151070851Y-122000000D01*
X151083420Y-121872382D01*
X151120645Y-121749668D01*
X151120646Y-121749664D01*
X151181094Y-121636575D01*
X151262446Y-121537446D01*
X151361575Y-121456094D01*
X151474664Y-121395646D01*
X151506596Y-121385960D01*
X151597382Y-121358420D01*
X151661145Y-121352140D01*
X151693026Y-121349000D01*
X152306974Y-121349000D01*
X152338855Y-121352140D01*
G37*
G36*
X152766242Y-119353404D02*
G01*
X152803337Y-119364657D01*
X152837515Y-119382925D01*
X152867481Y-119407519D01*
X152892075Y-119437485D01*
X152910343Y-119471663D01*
X152921596Y-119508758D01*
X152926000Y-119553474D01*
X152926000Y-120446526D01*
X152921596Y-120491242D01*
X152910343Y-120528337D01*
X152892075Y-120562515D01*
X152867481Y-120592481D01*
X152837515Y-120617075D01*
X152803337Y-120635343D01*
X152766242Y-120646596D01*
X152721526Y-120651000D01*
X151278474Y-120651000D01*
X151233758Y-120646596D01*
X151196663Y-120635343D01*
X151162485Y-120617075D01*
X151132519Y-120592481D01*
X151107925Y-120562515D01*
X151089657Y-120528337D01*
X151078404Y-120491242D01*
X151074000Y-120446526D01*
X151074000Y-119553474D01*
X151078404Y-119508758D01*
X151089657Y-119471663D01*
X151107925Y-119437485D01*
X151132519Y-119407519D01*
X151162485Y-119382925D01*
X151196663Y-119364657D01*
X151233758Y-119353404D01*
X151278474Y-119349000D01*
X152721526Y-119349000D01*
X152766242Y-119353404D01*
G37*
G36*
X95016536Y-114902800D02*
G01*
X95047738Y-114912265D01*
X95076486Y-114927631D01*
X95101687Y-114948313D01*
X95122369Y-114973514D01*
X95137735Y-115002262D01*
X95147200Y-115033464D01*
X95151000Y-115072046D01*
X95151000Y-116927954D01*
X95147200Y-116966536D01*
X95137735Y-116997738D01*
X95122369Y-117026486D01*
X95101687Y-117051687D01*
X95076486Y-117072369D01*
X95047738Y-117087735D01*
X95016536Y-117097200D01*
X94977954Y-117101000D01*
X90622046Y-117101000D01*
X90583464Y-117097200D01*
X90552262Y-117087735D01*
X90523514Y-117072369D01*
X90498313Y-117051687D01*
X90477631Y-117026486D01*
X90462265Y-116997738D01*
X90452800Y-116966536D01*
X90449000Y-116927954D01*
X90449000Y-115072046D01*
X90452800Y-115033464D01*
X90462265Y-115002262D01*
X90477631Y-114973514D01*
X90498313Y-114948313D01*
X90523514Y-114927631D01*
X90552262Y-114912265D01*
X90583464Y-114902800D01*
X90622046Y-114899000D01*
X94977954Y-114899000D01*
X95016536Y-114902800D01*
G37*
G36*
X103816536Y-114902800D02*
G01*
X103847738Y-114912265D01*
X103876486Y-114927631D01*
X103901687Y-114948313D01*
X103922369Y-114973514D01*
X103937735Y-115002262D01*
X103947200Y-115033464D01*
X103951000Y-115072046D01*
X103951000Y-116927954D01*
X103947200Y-116966536D01*
X103937735Y-116997738D01*
X103922369Y-117026486D01*
X103901687Y-117051687D01*
X103876486Y-117072369D01*
X103847738Y-117087735D01*
X103816536Y-117097200D01*
X103777954Y-117101000D01*
X99422046Y-117101000D01*
X99383464Y-117097200D01*
X99352262Y-117087735D01*
X99323514Y-117072369D01*
X99298313Y-117051687D01*
X99277631Y-117026486D01*
X99262265Y-116997738D01*
X99252800Y-116966536D01*
X99249000Y-116927954D01*
X99249000Y-115072046D01*
X99252800Y-115033464D01*
X99262265Y-115002262D01*
X99277631Y-114973514D01*
X99298313Y-114948313D01*
X99323514Y-114927631D01*
X99352262Y-114912265D01*
X99383464Y-114902800D01*
X99422046Y-114899000D01*
X103777954Y-114899000D01*
X103816536Y-114902800D01*
G37*
G36*
X130248228Y-115181703D02*
G01*
X130403100Y-115245853D01*
X130542481Y-115338985D01*
X130661015Y-115457519D01*
X130754147Y-115596900D01*
X130818297Y-115751772D01*
X130851000Y-115916184D01*
X130851000Y-116083816D01*
X130818297Y-116248228D01*
X130754147Y-116403100D01*
X130661015Y-116542481D01*
X130542481Y-116661015D01*
X130403100Y-116754147D01*
X130248228Y-116818297D01*
X130083816Y-116851000D01*
X129916184Y-116851000D01*
X129751772Y-116818297D01*
X129596900Y-116754147D01*
X129457519Y-116661015D01*
X129338985Y-116542481D01*
X129245853Y-116403100D01*
X129181703Y-116248228D01*
X129149000Y-116083816D01*
X129149000Y-115916184D01*
X129181703Y-115751772D01*
X129245853Y-115596900D01*
X129338985Y-115457519D01*
X129457519Y-115338985D01*
X129596900Y-115245853D01*
X129751772Y-115181703D01*
X129916184Y-115149000D01*
X130083816Y-115149000D01*
X130248228Y-115181703D01*
G37*
G36*
X135248228Y-115181703D02*
G01*
X135403100Y-115245853D01*
X135542481Y-115338985D01*
X135661015Y-115457519D01*
X135754147Y-115596900D01*
X135818297Y-115751772D01*
X135851000Y-115916184D01*
X135851000Y-116083816D01*
X135818297Y-116248228D01*
X135754147Y-116403100D01*
X135661015Y-116542481D01*
X135542481Y-116661015D01*
X135403100Y-116754147D01*
X135248228Y-116818297D01*
X135083816Y-116851000D01*
X134916184Y-116851000D01*
X134751772Y-116818297D01*
X134596900Y-116754147D01*
X134457519Y-116661015D01*
X134338985Y-116542481D01*
X134245853Y-116403100D01*
X134181703Y-116248228D01*
X134149000Y-116083816D01*
X134149000Y-115916184D01*
X134181703Y-115751772D01*
X134245853Y-115596900D01*
X134338985Y-115457519D01*
X134457519Y-115338985D01*
X134596900Y-115245853D01*
X134751772Y-115181703D01*
X134916184Y-115149000D01*
X135083816Y-115149000D01*
X135248228Y-115181703D01*
G37*
G36*
X152338855Y-113352140D02*
G01*
X152402618Y-113358420D01*
X152493404Y-113385960D01*
X152525336Y-113395646D01*
X152638425Y-113456094D01*
X152737554Y-113537446D01*
X152818906Y-113636575D01*
X152879354Y-113749664D01*
X152879355Y-113749668D01*
X152916580Y-113872382D01*
X152929149Y-114000000D01*
X152916580Y-114127618D01*
X152889040Y-114218404D01*
X152879354Y-114250336D01*
X152818906Y-114363425D01*
X152737554Y-114462554D01*
X152638425Y-114543906D01*
X152525336Y-114604354D01*
X152493404Y-114614040D01*
X152402618Y-114641580D01*
X152338855Y-114647860D01*
X152306974Y-114651000D01*
X151693026Y-114651000D01*
X151661145Y-114647860D01*
X151597382Y-114641580D01*
X151506596Y-114614040D01*
X151474664Y-114604354D01*
X151361575Y-114543906D01*
X151262446Y-114462554D01*
X151181094Y-114363425D01*
X151120646Y-114250336D01*
X151110960Y-114218404D01*
X151083420Y-114127618D01*
X151070851Y-114000000D01*
X151083420Y-113872382D01*
X151120645Y-113749668D01*
X151120646Y-113749664D01*
X151181094Y-113636575D01*
X151262446Y-113537446D01*
X151361575Y-113456094D01*
X151474664Y-113395646D01*
X151506596Y-113385960D01*
X151597382Y-113358420D01*
X151661145Y-113352140D01*
X151693026Y-113349000D01*
X152306974Y-113349000D01*
X152338855Y-113352140D01*
G37*
G36*
X152766242Y-111353404D02*
G01*
X152803337Y-111364657D01*
X152837515Y-111382925D01*
X152867481Y-111407519D01*
X152892075Y-111437485D01*
X152910343Y-111471663D01*
X152921596Y-111508758D01*
X152926000Y-111553474D01*
X152926000Y-112446526D01*
X152921596Y-112491242D01*
X152910343Y-112528337D01*
X152892075Y-112562515D01*
X152867481Y-112592481D01*
X152837515Y-112617075D01*
X152803337Y-112635343D01*
X152766242Y-112646596D01*
X152721526Y-112651000D01*
X151278474Y-112651000D01*
X151233758Y-112646596D01*
X151196663Y-112635343D01*
X151162485Y-112617075D01*
X151132519Y-112592481D01*
X151107925Y-112562515D01*
X151089657Y-112528337D01*
X151078404Y-112491242D01*
X151074000Y-112446526D01*
X151074000Y-111553474D01*
X151078404Y-111508758D01*
X151089657Y-111471663D01*
X151107925Y-111437485D01*
X151132519Y-111407519D01*
X151162485Y-111382925D01*
X151196663Y-111364657D01*
X151233758Y-111353404D01*
X151278474Y-111349000D01*
X152721526Y-111349000D01*
X152766242Y-111353404D01*
G37*
G36*
X102506564Y-106989389D02*
G01*
X102697833Y-107068615D01*
X102697835Y-107068616D01*
X102869973Y-107183635D01*
X103016365Y-107330027D01*
X103131385Y-107502167D01*
X103210611Y-107693436D01*
X103251000Y-107896484D01*
X103251000Y-108103516D01*
X103210611Y-108306564D01*
X103147354Y-108459280D01*
X103131384Y-108497835D01*
X103016365Y-108669973D01*
X102869973Y-108816365D01*
X102697835Y-108931384D01*
X102697834Y-108931385D01*
X102697833Y-108931385D01*
X102506564Y-109010611D01*
X102303516Y-109051000D01*
X102096484Y-109051000D01*
X101893436Y-109010611D01*
X101702167Y-108931385D01*
X101702166Y-108931385D01*
X101702165Y-108931384D01*
X101530027Y-108816365D01*
X101383635Y-108669973D01*
X101268616Y-108497835D01*
X101252646Y-108459280D01*
X101189389Y-108306564D01*
X101149000Y-108103516D01*
X101149000Y-107896484D01*
X101189389Y-107693436D01*
X101268615Y-107502167D01*
X101383635Y-107330027D01*
X101530027Y-107183635D01*
X101702165Y-107068616D01*
X101702167Y-107068615D01*
X101893436Y-106989389D01*
X102096484Y-106949000D01*
X102303516Y-106949000D01*
X102506564Y-106989389D01*
G37*
G36*
X148653820Y-105278103D02*
G01*
X148687985Y-105288467D01*
X148719464Y-105305293D01*
X148747060Y-105327940D01*
X148769707Y-105355536D01*
X148786533Y-105387015D01*
X148796897Y-105421180D01*
X148801000Y-105462842D01*
X148801000Y-108537158D01*
X148796897Y-108578820D01*
X148786533Y-108612985D01*
X148769707Y-108644464D01*
X148747060Y-108672060D01*
X148719464Y-108694707D01*
X148687985Y-108711533D01*
X148653820Y-108721897D01*
X148612158Y-108726000D01*
X147362842Y-108726000D01*
X147321180Y-108721897D01*
X147287015Y-108711533D01*
X147255536Y-108694707D01*
X147227940Y-108672060D01*
X147205293Y-108644464D01*
X147188467Y-108612985D01*
X147178103Y-108578820D01*
X147174000Y-108537158D01*
X147174000Y-105462842D01*
X147178103Y-105421180D01*
X147188467Y-105387015D01*
X147205293Y-105355536D01*
X147227940Y-105327940D01*
X147255536Y-105305293D01*
X147287015Y-105288467D01*
X147321180Y-105278103D01*
X147362842Y-105274000D01*
X148612158Y-105274000D01*
X148653820Y-105278103D01*
G37*
G36*
X142678820Y-105278103D02*
G01*
X142712985Y-105288467D01*
X142744464Y-105305293D01*
X142772060Y-105327940D01*
X142794707Y-105355536D01*
X142811533Y-105387015D01*
X142821897Y-105421180D01*
X142826000Y-105462842D01*
X142826000Y-108537158D01*
X142821897Y-108578820D01*
X142811533Y-108612985D01*
X142794707Y-108644464D01*
X142772060Y-108672060D01*
X142744464Y-108694707D01*
X142712985Y-108711533D01*
X142678820Y-108721897D01*
X142637158Y-108726000D01*
X141387842Y-108726000D01*
X141346180Y-108721897D01*
X141312015Y-108711533D01*
X141280536Y-108694707D01*
X141252940Y-108672060D01*
X141230293Y-108644464D01*
X141213467Y-108612985D01*
X141203103Y-108578820D01*
X141199000Y-108537158D01*
X141199000Y-105462842D01*
X141203103Y-105421180D01*
X141213467Y-105387015D01*
X141230293Y-105355536D01*
X141252940Y-105327940D01*
X141280536Y-105305293D01*
X141312015Y-105288467D01*
X141346180Y-105278103D01*
X141387842Y-105274000D01*
X142637158Y-105274000D01*
X142678820Y-105278103D01*
G37*
G36*
X151501000Y-107401000D02*
G01*
X150499000Y-107401000D01*
X150499000Y-106499000D01*
X151501000Y-106499000D01*
X151501000Y-107401000D01*
G37*
G36*
X92506564Y-104889389D02*
G01*
X92697833Y-104968615D01*
X92697835Y-104968616D01*
X92715450Y-104980386D01*
X92869973Y-105083635D01*
X93016365Y-105230027D01*
X93131385Y-105402167D01*
X93210611Y-105593436D01*
X93251000Y-105796484D01*
X93251000Y-106003516D01*
X93210611Y-106206564D01*
X93131385Y-106397833D01*
X93131384Y-106397835D01*
X93016365Y-106569973D01*
X92869973Y-106716365D01*
X92697835Y-106831384D01*
X92697834Y-106831385D01*
X92697833Y-106831385D01*
X92506564Y-106910611D01*
X92303516Y-106951000D01*
X92096484Y-106951000D01*
X91893436Y-106910611D01*
X91702167Y-106831385D01*
X91702166Y-106831385D01*
X91702165Y-106831384D01*
X91530027Y-106716365D01*
X91383635Y-106569973D01*
X91268616Y-106397835D01*
X91268615Y-106397833D01*
X91189389Y-106206564D01*
X91149000Y-106003516D01*
X91149000Y-105796484D01*
X91189389Y-105593436D01*
X91268615Y-105402167D01*
X91383635Y-105230027D01*
X91530027Y-105083635D01*
X91684550Y-104980386D01*
X91702165Y-104968616D01*
X91702167Y-104968615D01*
X91893436Y-104889389D01*
X92096484Y-104849000D01*
X92303516Y-104849000D01*
X92506564Y-104889389D01*
G37*
G36*
X153501000Y-106451000D02*
G01*
X152499000Y-106451000D01*
X152499000Y-105549000D01*
X153501000Y-105549000D01*
X153501000Y-106451000D01*
G37*
G36*
X118759999Y-104699737D02*
G01*
X118769608Y-104702652D01*
X118778472Y-104707390D01*
X118786237Y-104713763D01*
X118796448Y-104726206D01*
X118803378Y-104736575D01*
X118820705Y-104753902D01*
X118841080Y-104767515D01*
X118863720Y-104776891D01*
X118887753Y-104781671D01*
X118912257Y-104781670D01*
X118936290Y-104776888D01*
X118958929Y-104767510D01*
X118979302Y-104753895D01*
X118996629Y-104736568D01*
X119003558Y-104726198D01*
X119013763Y-104713763D01*
X119021528Y-104707390D01*
X119030392Y-104702652D01*
X119040001Y-104699737D01*
X119056140Y-104698148D01*
X119543861Y-104698148D01*
X119562199Y-104699954D01*
X119574450Y-104700556D01*
X119592869Y-104700556D01*
X119615149Y-104702750D01*
X119699233Y-104719476D01*
X119720660Y-104725976D01*
X119799858Y-104758780D01*
X119805303Y-104761691D01*
X119805309Y-104761693D01*
X119814169Y-104766429D01*
X119814173Y-104766432D01*
X119819614Y-104769340D01*
X119890899Y-104816971D01*
X119908204Y-104831172D01*
X119968828Y-104891796D01*
X119983029Y-104909101D01*
X120030660Y-104980386D01*
X120033568Y-104985827D01*
X120033571Y-104985831D01*
X120038307Y-104994691D01*
X120038309Y-104994697D01*
X120041220Y-105000142D01*
X120074024Y-105079340D01*
X120080524Y-105100767D01*
X120097250Y-105184851D01*
X120099444Y-105207131D01*
X120099444Y-105225550D01*
X120100046Y-105237801D01*
X120101852Y-105256139D01*
X120101852Y-105743862D01*
X120100046Y-105762199D01*
X120099444Y-105774450D01*
X120099444Y-105792869D01*
X120097250Y-105815149D01*
X120080524Y-105899233D01*
X120074024Y-105920660D01*
X120041220Y-105999858D01*
X120038309Y-106005303D01*
X120038307Y-106005309D01*
X120033571Y-106014169D01*
X120033568Y-106014173D01*
X120030660Y-106019614D01*
X119983029Y-106090899D01*
X119968828Y-106108204D01*
X119908204Y-106168828D01*
X119890899Y-106183029D01*
X119819614Y-106230660D01*
X119814173Y-106233568D01*
X119814169Y-106233571D01*
X119805309Y-106238307D01*
X119805303Y-106238309D01*
X119799858Y-106241220D01*
X119720660Y-106274024D01*
X119699233Y-106280524D01*
X119615149Y-106297250D01*
X119592869Y-106299444D01*
X119574450Y-106299444D01*
X119562199Y-106300046D01*
X119543862Y-106301852D01*
X119056140Y-106301852D01*
X119040001Y-106300263D01*
X119030392Y-106297348D01*
X119021528Y-106292610D01*
X119013763Y-106286237D01*
X119003552Y-106273794D01*
X118996622Y-106263425D01*
X118979295Y-106246098D01*
X118958920Y-106232485D01*
X118936280Y-106223109D01*
X118912247Y-106218329D01*
X118887743Y-106218330D01*
X118863710Y-106223112D01*
X118841071Y-106232490D01*
X118820698Y-106246105D01*
X118803371Y-106263432D01*
X118796442Y-106273802D01*
X118786237Y-106286237D01*
X118778472Y-106292610D01*
X118769608Y-106297348D01*
X118759999Y-106300263D01*
X118743860Y-106301852D01*
X118256138Y-106301852D01*
X118237801Y-106300046D01*
X118225550Y-106299444D01*
X118207131Y-106299444D01*
X118184851Y-106297250D01*
X118100767Y-106280524D01*
X118079340Y-106274024D01*
X118000142Y-106241220D01*
X117994697Y-106238309D01*
X117994691Y-106238307D01*
X117985831Y-106233571D01*
X117985827Y-106233568D01*
X117980386Y-106230660D01*
X117909101Y-106183029D01*
X117891796Y-106168828D01*
X117831172Y-106108204D01*
X117816971Y-106090899D01*
X117769340Y-106019614D01*
X117766432Y-106014173D01*
X117766429Y-106014169D01*
X117761693Y-106005309D01*
X117761691Y-106005303D01*
X117758780Y-105999858D01*
X117725976Y-105920660D01*
X117719476Y-105899233D01*
X117702750Y-105815149D01*
X117700556Y-105792869D01*
X117700556Y-105774450D01*
X117699954Y-105762199D01*
X117698148Y-105743862D01*
X117698148Y-105256139D01*
X117699954Y-105237801D01*
X117700556Y-105225550D01*
X117700556Y-105207131D01*
X117702750Y-105184851D01*
X117719476Y-105100767D01*
X117725976Y-105079340D01*
X117758780Y-105000142D01*
X117761691Y-104994697D01*
X117761693Y-104994691D01*
X117766429Y-104985831D01*
X117766432Y-104985827D01*
X117769340Y-104980386D01*
X117816971Y-104909101D01*
X117831172Y-104891796D01*
X117891796Y-104831172D01*
X117909101Y-104816971D01*
X117980386Y-104769340D01*
X117985827Y-104766432D01*
X117985831Y-104766429D01*
X117994691Y-104761693D01*
X117994697Y-104761691D01*
X118000142Y-104758780D01*
X118079340Y-104725976D01*
X118100767Y-104719476D01*
X118184851Y-104702750D01*
X118207131Y-104700556D01*
X118225550Y-104700556D01*
X118237801Y-104699954D01*
X118256139Y-104698148D01*
X118743860Y-104698148D01*
X118759999Y-104699737D01*
G37*
G36*
X151501000Y-105501000D02*
G01*
X150499000Y-105501000D01*
X150499000Y-104599000D01*
X151501000Y-104599000D01*
X151501000Y-105501000D01*
G37*
G36*
X144001000Y-104251000D02*
G01*
X135999000Y-104251000D01*
X135999000Y-101849000D01*
X144001000Y-101849000D01*
X144001000Y-104251000D01*
G37*
G36*
X90925562Y-100128181D02*
G01*
X90960481Y-100138774D01*
X90992663Y-100155976D01*
X91020873Y-100179127D01*
X91044024Y-100207337D01*
X91061226Y-100239519D01*
X91071819Y-100274438D01*
X91076000Y-100316895D01*
X91076000Y-102683105D01*
X91071819Y-102725562D01*
X91061226Y-102760481D01*
X91044024Y-102792663D01*
X91020873Y-102820873D01*
X90992663Y-102844024D01*
X90960481Y-102861226D01*
X90925562Y-102871819D01*
X90883105Y-102876000D01*
X89741895Y-102876000D01*
X89699438Y-102871819D01*
X89664519Y-102861226D01*
X89632337Y-102844024D01*
X89604127Y-102820873D01*
X89580976Y-102792663D01*
X89563774Y-102760481D01*
X89553181Y-102725562D01*
X89549000Y-102683105D01*
X89549000Y-100316895D01*
X89553181Y-100274438D01*
X89563774Y-100239519D01*
X89580976Y-100207337D01*
X89604127Y-100179127D01*
X89632337Y-100155976D01*
X89664519Y-100138774D01*
X89699438Y-100128181D01*
X89741895Y-100124000D01*
X90883105Y-100124000D01*
X90925562Y-100128181D01*
G37*
G36*
X93900562Y-100128181D02*
G01*
X93935481Y-100138774D01*
X93967663Y-100155976D01*
X93995873Y-100179127D01*
X94019024Y-100207337D01*
X94036226Y-100239519D01*
X94046819Y-100274438D01*
X94051000Y-100316895D01*
X94051000Y-102683105D01*
X94046819Y-102725562D01*
X94036226Y-102760481D01*
X94019024Y-102792663D01*
X93995873Y-102820873D01*
X93967663Y-102844024D01*
X93935481Y-102861226D01*
X93900562Y-102871819D01*
X93858105Y-102876000D01*
X92716895Y-102876000D01*
X92674438Y-102871819D01*
X92639519Y-102861226D01*
X92607337Y-102844024D01*
X92579127Y-102820873D01*
X92555976Y-102792663D01*
X92538774Y-102760481D01*
X92528181Y-102725562D01*
X92524000Y-102683105D01*
X92524000Y-100316895D01*
X92528181Y-100274438D01*
X92538774Y-100239519D01*
X92555976Y-100207337D01*
X92579127Y-100179127D01*
X92607337Y-100155976D01*
X92639519Y-100138774D01*
X92674438Y-100128181D01*
X92716895Y-100124000D01*
X93858105Y-100124000D01*
X93900562Y-100128181D01*
G37*
G36*
X116551000Y-101551000D02*
G01*
X113949000Y-101551000D01*
X113949000Y-99949000D01*
X116551000Y-99949000D01*
X116551000Y-101551000D01*
G37*
G36*
X125051000Y-101551000D02*
G01*
X122449000Y-101551000D01*
X122449000Y-99949000D01*
X125051000Y-99949000D01*
X125051000Y-101551000D01*
G37*
G36*
X134101000Y-101451000D02*
G01*
X130199000Y-101451000D01*
X130199000Y-98849000D01*
X134101000Y-98849000D01*
X134101000Y-101451000D01*
G37*
G36*
X147801000Y-101451000D02*
G01*
X143899000Y-101451000D01*
X143899000Y-98849000D01*
X147801000Y-98849000D01*
X147801000Y-101451000D01*
G37*
G36*
X152338855Y-99352140D02*
G01*
X152402618Y-99358420D01*
X152493404Y-99385960D01*
X152525336Y-99395646D01*
X152638425Y-99456094D01*
X152737554Y-99537446D01*
X152818906Y-99636575D01*
X152879354Y-99749664D01*
X152879355Y-99749668D01*
X152916580Y-99872382D01*
X152929149Y-100000000D01*
X152916580Y-100127618D01*
X152903982Y-100169148D01*
X152879354Y-100250336D01*
X152818906Y-100363425D01*
X152737554Y-100462554D01*
X152638425Y-100543906D01*
X152525336Y-100604354D01*
X152493404Y-100614040D01*
X152402618Y-100641580D01*
X152338855Y-100647860D01*
X152306974Y-100651000D01*
X151693026Y-100651000D01*
X151661145Y-100647860D01*
X151597382Y-100641580D01*
X151506596Y-100614040D01*
X151474664Y-100604354D01*
X151361575Y-100543906D01*
X151262446Y-100462554D01*
X151181094Y-100363425D01*
X151120646Y-100250336D01*
X151096018Y-100169148D01*
X151083420Y-100127618D01*
X151070851Y-100000000D01*
X151083420Y-99872382D01*
X151120645Y-99749668D01*
X151120646Y-99749664D01*
X151181094Y-99636575D01*
X151262446Y-99537446D01*
X151361575Y-99456094D01*
X151474664Y-99395646D01*
X151506596Y-99385960D01*
X151597382Y-99358420D01*
X151661145Y-99352140D01*
X151693026Y-99349000D01*
X152306974Y-99349000D01*
X152338855Y-99352140D01*
G37*
G36*
X94693604Y-97403347D02*
G01*
X94730144Y-97414432D01*
X94763821Y-97432433D01*
X94793341Y-97456659D01*
X94817567Y-97486179D01*
X94835568Y-97519856D01*
X94846653Y-97556396D01*
X94851000Y-97600538D01*
X94851000Y-98549462D01*
X94846653Y-98593604D01*
X94835568Y-98630144D01*
X94817567Y-98663821D01*
X94793341Y-98693341D01*
X94763821Y-98717567D01*
X94730144Y-98735568D01*
X94693604Y-98746653D01*
X94649462Y-98751000D01*
X92750538Y-98751000D01*
X92706396Y-98746653D01*
X92669856Y-98735568D01*
X92636179Y-98717567D01*
X92606659Y-98693341D01*
X92582433Y-98663821D01*
X92564432Y-98630144D01*
X92553347Y-98593604D01*
X92549000Y-98549462D01*
X92549000Y-97600538D01*
X92553347Y-97556396D01*
X92564432Y-97519856D01*
X92582433Y-97486179D01*
X92606659Y-97456659D01*
X92636179Y-97432433D01*
X92669856Y-97414432D01*
X92706396Y-97403347D01*
X92750538Y-97399000D01*
X94649462Y-97399000D01*
X94693604Y-97403347D01*
G37*
G36*
X152766242Y-97353404D02*
G01*
X152803337Y-97364657D01*
X152837515Y-97382925D01*
X152867481Y-97407519D01*
X152892075Y-97437485D01*
X152910343Y-97471663D01*
X152921596Y-97508758D01*
X152926000Y-97553474D01*
X152926000Y-98446526D01*
X152921596Y-98491242D01*
X152910343Y-98528337D01*
X152892075Y-98562515D01*
X152867481Y-98592481D01*
X152837515Y-98617075D01*
X152803337Y-98635343D01*
X152766242Y-98646596D01*
X152721526Y-98651000D01*
X151278474Y-98651000D01*
X151233758Y-98646596D01*
X151196663Y-98635343D01*
X151162485Y-98617075D01*
X151132519Y-98592481D01*
X151107925Y-98562515D01*
X151089657Y-98528337D01*
X151078404Y-98491242D01*
X151074000Y-98446526D01*
X151074000Y-97553474D01*
X151078404Y-97508758D01*
X151089657Y-97471663D01*
X151107925Y-97437485D01*
X151132519Y-97407519D01*
X151162485Y-97382925D01*
X151196663Y-97364657D01*
X151233758Y-97353404D01*
X151278474Y-97349000D01*
X152721526Y-97349000D01*
X152766242Y-97353404D01*
G37*
G36*
X125051000Y-98051000D02*
G01*
X122449000Y-98051000D01*
X122449000Y-96449000D01*
X125051000Y-96449000D01*
X125051000Y-98051000D01*
G37*
G36*
X116551000Y-98051000D02*
G01*
X113949000Y-98051000D01*
X113949000Y-96449000D01*
X116551000Y-96449000D01*
X116551000Y-98051000D01*
G37*
G36*
X147801000Y-97151000D02*
G01*
X143899000Y-97151000D01*
X143899000Y-94549000D01*
X147801000Y-94549000D01*
X147801000Y-97151000D01*
G37*
G36*
X134101000Y-97151000D02*
G01*
X130199000Y-97151000D01*
X130199000Y-94549000D01*
X134101000Y-94549000D01*
X134101000Y-97151000D01*
G37*
G36*
X94693604Y-95253347D02*
G01*
X94730144Y-95264432D01*
X94763821Y-95282433D01*
X94793341Y-95306659D01*
X94817567Y-95336179D01*
X94835568Y-95369856D01*
X94846653Y-95406396D01*
X94851000Y-95450538D01*
X94851000Y-96399462D01*
X94846653Y-96443604D01*
X94835568Y-96480144D01*
X94817567Y-96513821D01*
X94793341Y-96543341D01*
X94763821Y-96567567D01*
X94730144Y-96585568D01*
X94693604Y-96596653D01*
X94649462Y-96601000D01*
X92750538Y-96601000D01*
X92706396Y-96596653D01*
X92669856Y-96585568D01*
X92636179Y-96567567D01*
X92606659Y-96543341D01*
X92582433Y-96513821D01*
X92564432Y-96480144D01*
X92553347Y-96443604D01*
X92549000Y-96399462D01*
X92549000Y-95450538D01*
X92553347Y-95406396D01*
X92564432Y-95369856D01*
X92582433Y-95336179D01*
X92606659Y-95306659D01*
X92636179Y-95282433D01*
X92669856Y-95264432D01*
X92706396Y-95253347D01*
X92750538Y-95249000D01*
X94649462Y-95249000D01*
X94693604Y-95253347D01*
G37*
G36*
X144001000Y-94051000D02*
G01*
X140499000Y-94051000D01*
X140499000Y-91649000D01*
X144001000Y-91649000D01*
X144001000Y-94051000D01*
G37*
G36*
X127289499Y-92978445D02*
G01*
X127326995Y-92989820D01*
X127361554Y-93008292D01*
X127391847Y-93033153D01*
X127416708Y-93063446D01*
X127435180Y-93098005D01*
X127446555Y-93135501D01*
X127451000Y-93180638D01*
X127451000Y-93819362D01*
X127446555Y-93864499D01*
X127435180Y-93901995D01*
X127416708Y-93936554D01*
X127391847Y-93966847D01*
X127361554Y-93991708D01*
X127326995Y-94010180D01*
X127289499Y-94021555D01*
X127244362Y-94026000D01*
X126505638Y-94026000D01*
X126460501Y-94021555D01*
X126423005Y-94010180D01*
X126388446Y-93991708D01*
X126358153Y-93966847D01*
X126333292Y-93936554D01*
X126314820Y-93901995D01*
X126303445Y-93864499D01*
X126299000Y-93819362D01*
X126299000Y-93180638D01*
X126303445Y-93135501D01*
X126314820Y-93098005D01*
X126333292Y-93063446D01*
X126358153Y-93033153D01*
X126388446Y-93008292D01*
X126423005Y-92989820D01*
X126460501Y-92978445D01*
X126505638Y-92974000D01*
X127244362Y-92974000D01*
X127289499Y-92978445D01*
G37*
G36*
X125539499Y-92978445D02*
G01*
X125576995Y-92989820D01*
X125611554Y-93008292D01*
X125641847Y-93033153D01*
X125666708Y-93063446D01*
X125685180Y-93098005D01*
X125696555Y-93135501D01*
X125701000Y-93180638D01*
X125701000Y-93819362D01*
X125696555Y-93864499D01*
X125685180Y-93901995D01*
X125666708Y-93936554D01*
X125641847Y-93966847D01*
X125611554Y-93991708D01*
X125576995Y-94010180D01*
X125539499Y-94021555D01*
X125494362Y-94026000D01*
X124755638Y-94026000D01*
X124710501Y-94021555D01*
X124673005Y-94010180D01*
X124638446Y-93991708D01*
X124608153Y-93966847D01*
X124583292Y-93936554D01*
X124564820Y-93901995D01*
X124553445Y-93864499D01*
X124549000Y-93819362D01*
X124549000Y-93180638D01*
X124553445Y-93135501D01*
X124564820Y-93098005D01*
X124583292Y-93063446D01*
X124608153Y-93033153D01*
X124638446Y-93008292D01*
X124673005Y-92989820D01*
X124710501Y-92978445D01*
X124755638Y-92974000D01*
X125494362Y-92974000D01*
X125539499Y-92978445D01*
G37*
G36*
X118859999Y-92099737D02*
G01*
X118869608Y-92102652D01*
X118878472Y-92107390D01*
X118886237Y-92113763D01*
X118896448Y-92126206D01*
X118903378Y-92136575D01*
X118920705Y-92153902D01*
X118941080Y-92167515D01*
X118963720Y-92176891D01*
X118987753Y-92181671D01*
X119012257Y-92181670D01*
X119036290Y-92176888D01*
X119058929Y-92167510D01*
X119079302Y-92153895D01*
X119096629Y-92136568D01*
X119103558Y-92126198D01*
X119113763Y-92113763D01*
X119121528Y-92107390D01*
X119130392Y-92102652D01*
X119140001Y-92099737D01*
X119156140Y-92098148D01*
X119643861Y-92098148D01*
X119662199Y-92099954D01*
X119674450Y-92100556D01*
X119692869Y-92100556D01*
X119715149Y-92102750D01*
X119799233Y-92119476D01*
X119820660Y-92125976D01*
X119899858Y-92158780D01*
X119905303Y-92161691D01*
X119905309Y-92161693D01*
X119914169Y-92166429D01*
X119914173Y-92166432D01*
X119919614Y-92169340D01*
X119990899Y-92216971D01*
X120008204Y-92231172D01*
X120068828Y-92291796D01*
X120083029Y-92309101D01*
X120130660Y-92380386D01*
X120133568Y-92385827D01*
X120133571Y-92385831D01*
X120138307Y-92394691D01*
X120138309Y-92394697D01*
X120141220Y-92400142D01*
X120174024Y-92479340D01*
X120180524Y-92500767D01*
X120197250Y-92584851D01*
X120199444Y-92607131D01*
X120199444Y-92625550D01*
X120200046Y-92637801D01*
X120201852Y-92656139D01*
X120201852Y-93143862D01*
X120200046Y-93162199D01*
X120199444Y-93174450D01*
X120199444Y-93192869D01*
X120197250Y-93215149D01*
X120180524Y-93299233D01*
X120174024Y-93320660D01*
X120141220Y-93399858D01*
X120138309Y-93405303D01*
X120138307Y-93405309D01*
X120133571Y-93414169D01*
X120133568Y-93414173D01*
X120130660Y-93419614D01*
X120083029Y-93490899D01*
X120068828Y-93508204D01*
X120008204Y-93568828D01*
X119990899Y-93583029D01*
X119919614Y-93630660D01*
X119914173Y-93633568D01*
X119914169Y-93633571D01*
X119905309Y-93638307D01*
X119905303Y-93638309D01*
X119899858Y-93641220D01*
X119820660Y-93674024D01*
X119799233Y-93680524D01*
X119715149Y-93697250D01*
X119692869Y-93699444D01*
X119674450Y-93699444D01*
X119662199Y-93700046D01*
X119643862Y-93701852D01*
X119156140Y-93701852D01*
X119140001Y-93700263D01*
X119130392Y-93697348D01*
X119121528Y-93692610D01*
X119113763Y-93686237D01*
X119103552Y-93673794D01*
X119096622Y-93663425D01*
X119079295Y-93646098D01*
X119058920Y-93632485D01*
X119036280Y-93623109D01*
X119012247Y-93618329D01*
X118987743Y-93618330D01*
X118963710Y-93623112D01*
X118941071Y-93632490D01*
X118920698Y-93646105D01*
X118903371Y-93663432D01*
X118896442Y-93673802D01*
X118886237Y-93686237D01*
X118878472Y-93692610D01*
X118869608Y-93697348D01*
X118859999Y-93700263D01*
X118843860Y-93701852D01*
X118356138Y-93701852D01*
X118337801Y-93700046D01*
X118325550Y-93699444D01*
X118307131Y-93699444D01*
X118284851Y-93697250D01*
X118200767Y-93680524D01*
X118179340Y-93674024D01*
X118100142Y-93641220D01*
X118094697Y-93638309D01*
X118094691Y-93638307D01*
X118085831Y-93633571D01*
X118085827Y-93633568D01*
X118080386Y-93630660D01*
X118009101Y-93583029D01*
X117991796Y-93568828D01*
X117931172Y-93508204D01*
X117916971Y-93490899D01*
X117869340Y-93419614D01*
X117866432Y-93414173D01*
X117866429Y-93414169D01*
X117861693Y-93405309D01*
X117861691Y-93405303D01*
X117858780Y-93399858D01*
X117825976Y-93320660D01*
X117819476Y-93299233D01*
X117802750Y-93215149D01*
X117800556Y-93192869D01*
X117800556Y-93174450D01*
X117799954Y-93162199D01*
X117798148Y-93143862D01*
X117798148Y-92656139D01*
X117799954Y-92637801D01*
X117800556Y-92625550D01*
X117800556Y-92607131D01*
X117802750Y-92584851D01*
X117819476Y-92500767D01*
X117825976Y-92479340D01*
X117858780Y-92400142D01*
X117861691Y-92394697D01*
X117861693Y-92394691D01*
X117866429Y-92385831D01*
X117866432Y-92385827D01*
X117869340Y-92380386D01*
X117916971Y-92309101D01*
X117931172Y-92291796D01*
X117991796Y-92231172D01*
X118009101Y-92216971D01*
X118080386Y-92169340D01*
X118085827Y-92166432D01*
X118085831Y-92166429D01*
X118094691Y-92161693D01*
X118094697Y-92161691D01*
X118100142Y-92158780D01*
X118179340Y-92125976D01*
X118200767Y-92119476D01*
X118284851Y-92102750D01*
X118307131Y-92100556D01*
X118325550Y-92100556D01*
X118337801Y-92099954D01*
X118356139Y-92098148D01*
X118843860Y-92098148D01*
X118859999Y-92099737D01*
G37*
G36*
X109351560Y-90499064D02*
G01*
X109503027Y-90529193D01*
X109717045Y-90617842D01*
X109717046Y-90617843D01*
X109909654Y-90746539D01*
X110073461Y-90910346D01*
X110129370Y-90994020D01*
X110202158Y-91102955D01*
X110290807Y-91316973D01*
X110336000Y-91544174D01*
X110336000Y-91775826D01*
X110290807Y-92003027D01*
X110202158Y-92217045D01*
X110159258Y-92281249D01*
X110073461Y-92409654D01*
X109909654Y-92573461D01*
X109800199Y-92646596D01*
X109717045Y-92702158D01*
X109503027Y-92790807D01*
X109351560Y-92820936D01*
X109275827Y-92836000D01*
X109044173Y-92836000D01*
X108968440Y-92820936D01*
X108816973Y-92790807D01*
X108602955Y-92702158D01*
X108519801Y-92646596D01*
X108410346Y-92573461D01*
X108246539Y-92409654D01*
X108160742Y-92281249D01*
X108117842Y-92217045D01*
X108029193Y-92003027D01*
X107984000Y-91775826D01*
X107984000Y-91544174D01*
X108029193Y-91316973D01*
X108117842Y-91102955D01*
X108190630Y-90994020D01*
X108246539Y-90910346D01*
X108410346Y-90746539D01*
X108602954Y-90617843D01*
X108602955Y-90617842D01*
X108816973Y-90529193D01*
X108968440Y-90499064D01*
X109044173Y-90484000D01*
X109275827Y-90484000D01*
X109351560Y-90499064D01*
G37*
G36*
X115725562Y-91228181D02*
G01*
X115760481Y-91238774D01*
X115792663Y-91255976D01*
X115820873Y-91279127D01*
X115844024Y-91307337D01*
X115861226Y-91339519D01*
X115871819Y-91374438D01*
X115876000Y-91416895D01*
X115876000Y-92558105D01*
X115871819Y-92600562D01*
X115861226Y-92635481D01*
X115844024Y-92667663D01*
X115820873Y-92695873D01*
X115792663Y-92719024D01*
X115760481Y-92736226D01*
X115725562Y-92746819D01*
X115683105Y-92751000D01*
X113316895Y-92751000D01*
X113274438Y-92746819D01*
X113239519Y-92736226D01*
X113207337Y-92719024D01*
X113179127Y-92695873D01*
X113155976Y-92667663D01*
X113138774Y-92635481D01*
X113128181Y-92600562D01*
X113124000Y-92558105D01*
X113124000Y-91416895D01*
X113128181Y-91374438D01*
X113138774Y-91339519D01*
X113155976Y-91307337D01*
X113179127Y-91279127D01*
X113207337Y-91255976D01*
X113239519Y-91238774D01*
X113274438Y-91228181D01*
X113316895Y-91224000D01*
X115683105Y-91224000D01*
X115725562Y-91228181D01*
G37*
G36*
X151766242Y-91353404D02*
G01*
X151803337Y-91364657D01*
X151837515Y-91382925D01*
X151867481Y-91407519D01*
X151892075Y-91437485D01*
X151910343Y-91471663D01*
X151921596Y-91508758D01*
X151926000Y-91553474D01*
X151926000Y-92446526D01*
X151921596Y-92491242D01*
X151910343Y-92528337D01*
X151892075Y-92562515D01*
X151867481Y-92592481D01*
X151837515Y-92617075D01*
X151803337Y-92635343D01*
X151766242Y-92646596D01*
X151721526Y-92651000D01*
X150278474Y-92651000D01*
X150233758Y-92646596D01*
X150196663Y-92635343D01*
X150162485Y-92617075D01*
X150132519Y-92592481D01*
X150107925Y-92562515D01*
X150089657Y-92528337D01*
X150078404Y-92491242D01*
X150074000Y-92446526D01*
X150074000Y-91553474D01*
X150078404Y-91508758D01*
X150089657Y-91471663D01*
X150107925Y-91437485D01*
X150132519Y-91407519D01*
X150162485Y-91382925D01*
X150196663Y-91364657D01*
X150233758Y-91353404D01*
X150278474Y-91349000D01*
X151721526Y-91349000D01*
X151766242Y-91353404D01*
G37*
G36*
X133501000Y-92401000D02*
G01*
X132599000Y-92401000D01*
X132599000Y-91399000D01*
X133501000Y-91399000D01*
X133501000Y-92401000D01*
G37*
G36*
X135401000Y-92401000D02*
G01*
X134499000Y-92401000D01*
X134499000Y-91399000D01*
X135401000Y-91399000D01*
X135401000Y-92401000D01*
G37*
G36*
X124339499Y-90978445D02*
G01*
X124376995Y-90989820D01*
X124411554Y-91008292D01*
X124441847Y-91033153D01*
X124466708Y-91063446D01*
X124485180Y-91098005D01*
X124496555Y-91135501D01*
X124501000Y-91180638D01*
X124501000Y-91819362D01*
X124496555Y-91864499D01*
X124485180Y-91901995D01*
X124466708Y-91936554D01*
X124441847Y-91966847D01*
X124411554Y-91991708D01*
X124376995Y-92010180D01*
X124339499Y-92021555D01*
X124294362Y-92026000D01*
X123555638Y-92026000D01*
X123510501Y-92021555D01*
X123473005Y-92010180D01*
X123438446Y-91991708D01*
X123408153Y-91966847D01*
X123383292Y-91936554D01*
X123364820Y-91901995D01*
X123353445Y-91864499D01*
X123349000Y-91819362D01*
X123349000Y-91180638D01*
X123353445Y-91135501D01*
X123364820Y-91098005D01*
X123383292Y-91063446D01*
X123408153Y-91033153D01*
X123438446Y-91008292D01*
X123473005Y-90989820D01*
X123510501Y-90978445D01*
X123555638Y-90974000D01*
X124294362Y-90974000D01*
X124339499Y-90978445D01*
G37*
G36*
X126089499Y-90978445D02*
G01*
X126126995Y-90989820D01*
X126161554Y-91008292D01*
X126191847Y-91033153D01*
X126216708Y-91063446D01*
X126235180Y-91098005D01*
X126246555Y-91135501D01*
X126251000Y-91180638D01*
X126251000Y-91819362D01*
X126246555Y-91864499D01*
X126235180Y-91901995D01*
X126216708Y-91936554D01*
X126191847Y-91966847D01*
X126161554Y-91991708D01*
X126126995Y-92010180D01*
X126089499Y-92021555D01*
X126044362Y-92026000D01*
X125305638Y-92026000D01*
X125260501Y-92021555D01*
X125223005Y-92010180D01*
X125188446Y-91991708D01*
X125158153Y-91966847D01*
X125133292Y-91936554D01*
X125114820Y-91901995D01*
X125103445Y-91864499D01*
X125099000Y-91819362D01*
X125099000Y-91180638D01*
X125103445Y-91135501D01*
X125114820Y-91098005D01*
X125133292Y-91063446D01*
X125158153Y-91033153D01*
X125188446Y-91008292D01*
X125223005Y-90989820D01*
X125260501Y-90978445D01*
X125305638Y-90974000D01*
X126044362Y-90974000D01*
X126089499Y-90978445D01*
G37*
G36*
X128401000Y-91876000D02*
G01*
X127699000Y-91876000D01*
X127699000Y-91324000D01*
X128401000Y-91324000D01*
X128401000Y-91876000D01*
G37*
G36*
X130501000Y-91876000D02*
G01*
X129799000Y-91876000D01*
X129799000Y-91324000D01*
X130501000Y-91324000D01*
X130501000Y-91876000D01*
G37*
G36*
X151338855Y-89352140D02*
G01*
X151402618Y-89358420D01*
X151493404Y-89385960D01*
X151525336Y-89395646D01*
X151638425Y-89456094D01*
X151737554Y-89537446D01*
X151818906Y-89636575D01*
X151879354Y-89749664D01*
X151887343Y-89776000D01*
X151916580Y-89872382D01*
X151929149Y-90000000D01*
X151916580Y-90127618D01*
X151901903Y-90176000D01*
X151879354Y-90250336D01*
X151818906Y-90363425D01*
X151737554Y-90462554D01*
X151638425Y-90543906D01*
X151525336Y-90604354D01*
X151493404Y-90614040D01*
X151402618Y-90641580D01*
X151338855Y-90647860D01*
X151306974Y-90651000D01*
X150693026Y-90651000D01*
X150661145Y-90647860D01*
X150597382Y-90641580D01*
X150506596Y-90614040D01*
X150474664Y-90604354D01*
X150361575Y-90543906D01*
X150262446Y-90462554D01*
X150181094Y-90363425D01*
X150120646Y-90250336D01*
X150098097Y-90176000D01*
X150083420Y-90127618D01*
X150070851Y-90000000D01*
X150083420Y-89872382D01*
X150112657Y-89776000D01*
X150120646Y-89749664D01*
X150181094Y-89636575D01*
X150262446Y-89537446D01*
X150361575Y-89456094D01*
X150474664Y-89395646D01*
X150506596Y-89385960D01*
X150597382Y-89358420D01*
X150661145Y-89352140D01*
X150693026Y-89349000D01*
X151306974Y-89349000D01*
X151338855Y-89352140D01*
G37*
G36*
X134451000Y-90401000D02*
G01*
X133549000Y-90401000D01*
X133549000Y-89399000D01*
X134451000Y-89399000D01*
X134451000Y-90401000D01*
G37*
G36*
X127100562Y-87428181D02*
G01*
X127135481Y-87438774D01*
X127167663Y-87455976D01*
X127195873Y-87479127D01*
X127219024Y-87507337D01*
X127236226Y-87539519D01*
X127246819Y-87574438D01*
X127251000Y-87616895D01*
X127251000Y-89983105D01*
X127246819Y-90025562D01*
X127236226Y-90060481D01*
X127219024Y-90092663D01*
X127195873Y-90120873D01*
X127167663Y-90144024D01*
X127135481Y-90161226D01*
X127100562Y-90171819D01*
X127058105Y-90176000D01*
X125916895Y-90176000D01*
X125874438Y-90171819D01*
X125839519Y-90161226D01*
X125807337Y-90144024D01*
X125779127Y-90120873D01*
X125755976Y-90092663D01*
X125738774Y-90060481D01*
X125728181Y-90025562D01*
X125724000Y-89983105D01*
X125724000Y-87616895D01*
X125728181Y-87574438D01*
X125738774Y-87539519D01*
X125755976Y-87507337D01*
X125779127Y-87479127D01*
X125807337Y-87455976D01*
X125839519Y-87438774D01*
X125874438Y-87428181D01*
X125916895Y-87424000D01*
X127058105Y-87424000D01*
X127100562Y-87428181D01*
G37*
G36*
X124125562Y-87428181D02*
G01*
X124160481Y-87438774D01*
X124192663Y-87455976D01*
X124220873Y-87479127D01*
X124244024Y-87507337D01*
X124261226Y-87539519D01*
X124271819Y-87574438D01*
X124276000Y-87616895D01*
X124276000Y-89983105D01*
X124271819Y-90025562D01*
X124261226Y-90060481D01*
X124244024Y-90092663D01*
X124220873Y-90120873D01*
X124192663Y-90144024D01*
X124160481Y-90161226D01*
X124125562Y-90171819D01*
X124083105Y-90176000D01*
X122941895Y-90176000D01*
X122899438Y-90171819D01*
X122864519Y-90161226D01*
X122832337Y-90144024D01*
X122804127Y-90120873D01*
X122780976Y-90092663D01*
X122763774Y-90060481D01*
X122753181Y-90025562D01*
X122749000Y-89983105D01*
X122749000Y-87616895D01*
X122753181Y-87574438D01*
X122763774Y-87539519D01*
X122780976Y-87507337D01*
X122804127Y-87479127D01*
X122832337Y-87455976D01*
X122864519Y-87438774D01*
X122899438Y-87428181D01*
X122941895Y-87424000D01*
X124083105Y-87424000D01*
X124125562Y-87428181D01*
G37*
G36*
X129364499Y-88803445D02*
G01*
X129401995Y-88814820D01*
X129436554Y-88833292D01*
X129466847Y-88858153D01*
X129491708Y-88888446D01*
X129510180Y-88923005D01*
X129521555Y-88960501D01*
X129526000Y-89005638D01*
X129526000Y-89744362D01*
X129521555Y-89789499D01*
X129510180Y-89826995D01*
X129491708Y-89861554D01*
X129466847Y-89891847D01*
X129436554Y-89916708D01*
X129401995Y-89935180D01*
X129364499Y-89946555D01*
X129319362Y-89951000D01*
X128680638Y-89951000D01*
X128635501Y-89946555D01*
X128598005Y-89935180D01*
X128563446Y-89916708D01*
X128533153Y-89891847D01*
X128508292Y-89861554D01*
X128489820Y-89826995D01*
X128478445Y-89789499D01*
X128474000Y-89744362D01*
X128474000Y-89005638D01*
X128478445Y-88960501D01*
X128489820Y-88923005D01*
X128508292Y-88888446D01*
X128533153Y-88858153D01*
X128563446Y-88833292D01*
X128598005Y-88814820D01*
X128635501Y-88803445D01*
X128680638Y-88799000D01*
X129319362Y-88799000D01*
X129364499Y-88803445D01*
G37*
G36*
X115725562Y-88253181D02*
G01*
X115760481Y-88263774D01*
X115792663Y-88280976D01*
X115820873Y-88304127D01*
X115844024Y-88332337D01*
X115861226Y-88364519D01*
X115871819Y-88399438D01*
X115876000Y-88441895D01*
X115876000Y-89583105D01*
X115871819Y-89625562D01*
X115861226Y-89660481D01*
X115844024Y-89692663D01*
X115820873Y-89720873D01*
X115792663Y-89744024D01*
X115760481Y-89761226D01*
X115725562Y-89771819D01*
X115683105Y-89776000D01*
X113316895Y-89776000D01*
X113274438Y-89771819D01*
X113239519Y-89761226D01*
X113207337Y-89744024D01*
X113179127Y-89720873D01*
X113155976Y-89692663D01*
X113138774Y-89660481D01*
X113128181Y-89625562D01*
X113124000Y-89583105D01*
X113124000Y-88441895D01*
X113128181Y-88399438D01*
X113138774Y-88364519D01*
X113155976Y-88332337D01*
X113179127Y-88304127D01*
X113207337Y-88280976D01*
X113239519Y-88263774D01*
X113274438Y-88253181D01*
X113316895Y-88249000D01*
X115683105Y-88249000D01*
X115725562Y-88253181D01*
G37*
G36*
X145001000Y-88251000D02*
G01*
X136999000Y-88251000D01*
X136999000Y-85849000D01*
X145001000Y-85849000D01*
X145001000Y-88251000D01*
G37*
G36*
X129364499Y-87053445D02*
G01*
X129401995Y-87064820D01*
X129436554Y-87083292D01*
X129466847Y-87108153D01*
X129491708Y-87138446D01*
X129510180Y-87173005D01*
X129521555Y-87210501D01*
X129526000Y-87255638D01*
X129526000Y-87994362D01*
X129521555Y-88039499D01*
X129510180Y-88076995D01*
X129491708Y-88111554D01*
X129466847Y-88141847D01*
X129436554Y-88166708D01*
X129401995Y-88185180D01*
X129364499Y-88196555D01*
X129319362Y-88201000D01*
X128680638Y-88201000D01*
X128635501Y-88196555D01*
X128598005Y-88185180D01*
X128563446Y-88166708D01*
X128533153Y-88141847D01*
X128508292Y-88111554D01*
X128489820Y-88076995D01*
X128478445Y-88039499D01*
X128474000Y-87994362D01*
X128474000Y-87255638D01*
X128478445Y-87210501D01*
X128489820Y-87173005D01*
X128508292Y-87138446D01*
X128533153Y-87108153D01*
X128563446Y-87083292D01*
X128598005Y-87064820D01*
X128635501Y-87053445D01*
X128680638Y-87049000D01*
X129319362Y-87049000D01*
X129364499Y-87053445D01*
G37*
G36*
X118759999Y-85299737D02*
G01*
X118769608Y-85302652D01*
X118778472Y-85307390D01*
X118786237Y-85313763D01*
X118796448Y-85326206D01*
X118803378Y-85336575D01*
X118820705Y-85353902D01*
X118841080Y-85367515D01*
X118863720Y-85376891D01*
X118887753Y-85381671D01*
X118912257Y-85381670D01*
X118936290Y-85376888D01*
X118958929Y-85367510D01*
X118979302Y-85353895D01*
X118996629Y-85336568D01*
X119003558Y-85326198D01*
X119013763Y-85313763D01*
X119021528Y-85307390D01*
X119030392Y-85302652D01*
X119040001Y-85299737D01*
X119056140Y-85298148D01*
X119543861Y-85298148D01*
X119562199Y-85299954D01*
X119574450Y-85300556D01*
X119592869Y-85300556D01*
X119615149Y-85302750D01*
X119699233Y-85319476D01*
X119720660Y-85325976D01*
X119799858Y-85358780D01*
X119805303Y-85361691D01*
X119805309Y-85361693D01*
X119814169Y-85366429D01*
X119814173Y-85366432D01*
X119819614Y-85369340D01*
X119890899Y-85416971D01*
X119908204Y-85431172D01*
X119968828Y-85491796D01*
X119983029Y-85509101D01*
X120030660Y-85580386D01*
X120033568Y-85585827D01*
X120033571Y-85585831D01*
X120038307Y-85594691D01*
X120038309Y-85594697D01*
X120041220Y-85600142D01*
X120074024Y-85679340D01*
X120080524Y-85700767D01*
X120097250Y-85784851D01*
X120099444Y-85807131D01*
X120099444Y-85825550D01*
X120100046Y-85837801D01*
X120101852Y-85856139D01*
X120101852Y-86343862D01*
X120100046Y-86362199D01*
X120099444Y-86374450D01*
X120099444Y-86392869D01*
X120097250Y-86415149D01*
X120080524Y-86499233D01*
X120074024Y-86520660D01*
X120041220Y-86599858D01*
X120038309Y-86605303D01*
X120038307Y-86605309D01*
X120033571Y-86614169D01*
X120033568Y-86614173D01*
X120030660Y-86619614D01*
X119983029Y-86690899D01*
X119968828Y-86708204D01*
X119908204Y-86768828D01*
X119890899Y-86783029D01*
X119819614Y-86830660D01*
X119814173Y-86833568D01*
X119814169Y-86833571D01*
X119805309Y-86838307D01*
X119805303Y-86838309D01*
X119799858Y-86841220D01*
X119720660Y-86874024D01*
X119699233Y-86880524D01*
X119615149Y-86897250D01*
X119592869Y-86899444D01*
X119574450Y-86899444D01*
X119562199Y-86900046D01*
X119543862Y-86901852D01*
X119056140Y-86901852D01*
X119040001Y-86900263D01*
X119030392Y-86897348D01*
X119021528Y-86892610D01*
X119013763Y-86886237D01*
X119003552Y-86873794D01*
X118996622Y-86863425D01*
X118979295Y-86846098D01*
X118958920Y-86832485D01*
X118936280Y-86823109D01*
X118912247Y-86818329D01*
X118887743Y-86818330D01*
X118863710Y-86823112D01*
X118841071Y-86832490D01*
X118820698Y-86846105D01*
X118803371Y-86863432D01*
X118796442Y-86873802D01*
X118786237Y-86886237D01*
X118778472Y-86892610D01*
X118769608Y-86897348D01*
X118759999Y-86900263D01*
X118743860Y-86901852D01*
X118256138Y-86901852D01*
X118237801Y-86900046D01*
X118225550Y-86899444D01*
X118207131Y-86899444D01*
X118184851Y-86897250D01*
X118100767Y-86880524D01*
X118079340Y-86874024D01*
X118000142Y-86841220D01*
X117994697Y-86838309D01*
X117994691Y-86838307D01*
X117985831Y-86833571D01*
X117985827Y-86833568D01*
X117980386Y-86830660D01*
X117909101Y-86783029D01*
X117891796Y-86768828D01*
X117831172Y-86708204D01*
X117816971Y-86690899D01*
X117769340Y-86619614D01*
X117766432Y-86614173D01*
X117766429Y-86614169D01*
X117761693Y-86605309D01*
X117761691Y-86605303D01*
X117758780Y-86599858D01*
X117725976Y-86520660D01*
X117719476Y-86499233D01*
X117702750Y-86415149D01*
X117700556Y-86392869D01*
X117700556Y-86374450D01*
X117699954Y-86362199D01*
X117698148Y-86343862D01*
X117698148Y-85856139D01*
X117699954Y-85837801D01*
X117700556Y-85825550D01*
X117700556Y-85807131D01*
X117702750Y-85784851D01*
X117719476Y-85700767D01*
X117725976Y-85679340D01*
X117758780Y-85600142D01*
X117761691Y-85594697D01*
X117761693Y-85594691D01*
X117766429Y-85585831D01*
X117766432Y-85585827D01*
X117769340Y-85580386D01*
X117816971Y-85509101D01*
X117831172Y-85491796D01*
X117891796Y-85431172D01*
X117909101Y-85416971D01*
X117980386Y-85369340D01*
X117985827Y-85366432D01*
X117985831Y-85366429D01*
X117994691Y-85361693D01*
X117994697Y-85361691D01*
X118000142Y-85358780D01*
X118079340Y-85325976D01*
X118100767Y-85319476D01*
X118184851Y-85302750D01*
X118207131Y-85300556D01*
X118225550Y-85300556D01*
X118237801Y-85299954D01*
X118256139Y-85298148D01*
X118743860Y-85298148D01*
X118759999Y-85299737D01*
G37*
G36*
X148801000Y-85451000D02*
G01*
X144899000Y-85451000D01*
X144899000Y-82849000D01*
X148801000Y-82849000D01*
X148801000Y-85451000D01*
G37*
G36*
X135101000Y-85451000D02*
G01*
X131199000Y-85451000D01*
X131199000Y-82849000D01*
X135101000Y-82849000D01*
X135101000Y-85451000D01*
G37*
G36*
X154501000Y-85401000D02*
G01*
X153499000Y-85401000D01*
X153499000Y-84499000D01*
X154501000Y-84499000D01*
X154501000Y-85401000D01*
G37*
G36*
X89031560Y-82879064D02*
G01*
X89183027Y-82909193D01*
X89397045Y-82997842D01*
X89397046Y-82997843D01*
X89589654Y-83126539D01*
X89753461Y-83290346D01*
X89839258Y-83418751D01*
X89882158Y-83482955D01*
X89970807Y-83696973D01*
X90016000Y-83924174D01*
X90016000Y-84155826D01*
X89970807Y-84383027D01*
X89882158Y-84597045D01*
X89882157Y-84597046D01*
X89753461Y-84789654D01*
X89589654Y-84953461D01*
X89461249Y-85039258D01*
X89397045Y-85082158D01*
X89183027Y-85170807D01*
X89031560Y-85200936D01*
X88955827Y-85216000D01*
X88724173Y-85216000D01*
X88648440Y-85200936D01*
X88496973Y-85170807D01*
X88282955Y-85082158D01*
X88218751Y-85039258D01*
X88090346Y-84953461D01*
X87926539Y-84789654D01*
X87797843Y-84597046D01*
X87797842Y-84597045D01*
X87709193Y-84383027D01*
X87664000Y-84155826D01*
X87664000Y-83924174D01*
X87709193Y-83696973D01*
X87797842Y-83482955D01*
X87840742Y-83418751D01*
X87926539Y-83290346D01*
X88090346Y-83126539D01*
X88282954Y-82997843D01*
X88282955Y-82997842D01*
X88496973Y-82909193D01*
X88648440Y-82879064D01*
X88724173Y-82864000D01*
X88955827Y-82864000D01*
X89031560Y-82879064D01*
G37*
G36*
X152501000Y-84451000D02*
G01*
X151499000Y-84451000D01*
X151499000Y-83549000D01*
X152501000Y-83549000D01*
X152501000Y-84451000D01*
G37*
G36*
X154501000Y-83501000D02*
G01*
X153499000Y-83501000D01*
X153499000Y-82599000D01*
X154501000Y-82599000D01*
X154501000Y-83501000D01*
G37*
G36*
X109351560Y-80339064D02*
G01*
X109503027Y-80369193D01*
X109717045Y-80457842D01*
X109717046Y-80457843D01*
X109909654Y-80586539D01*
X110073461Y-80750346D01*
X110159258Y-80878751D01*
X110202158Y-80942955D01*
X110290807Y-81156973D01*
X110336000Y-81384174D01*
X110336000Y-81615826D01*
X110290807Y-81843027D01*
X110202158Y-82057045D01*
X110202157Y-82057046D01*
X110073461Y-82249654D01*
X109909654Y-82413461D01*
X109781249Y-82499258D01*
X109717045Y-82542158D01*
X109503027Y-82630807D01*
X109351560Y-82660936D01*
X109275827Y-82676000D01*
X109044173Y-82676000D01*
X108968440Y-82660936D01*
X108816973Y-82630807D01*
X108602955Y-82542158D01*
X108538751Y-82499258D01*
X108410346Y-82413461D01*
X108246539Y-82249654D01*
X108117843Y-82057046D01*
X108117842Y-82057045D01*
X108029193Y-81843027D01*
X107984000Y-81615826D01*
X107984000Y-81384174D01*
X108029193Y-81156973D01*
X108117842Y-80942955D01*
X108160742Y-80878751D01*
X108246539Y-80750346D01*
X108410346Y-80586539D01*
X108602954Y-80457843D01*
X108602955Y-80457842D01*
X108816973Y-80369193D01*
X108968440Y-80339064D01*
X109044173Y-80324000D01*
X109275827Y-80324000D01*
X109351560Y-80339064D01*
G37*
G36*
X116551000Y-82551000D02*
G01*
X113949000Y-82551000D01*
X113949000Y-80949000D01*
X116551000Y-80949000D01*
X116551000Y-82551000D01*
G37*
G36*
X125051000Y-82551000D02*
G01*
X122449000Y-82551000D01*
X122449000Y-80949000D01*
X125051000Y-80949000D01*
X125051000Y-82551000D01*
G37*
G36*
X148801000Y-81151000D02*
G01*
X144899000Y-81151000D01*
X144899000Y-78549000D01*
X148801000Y-78549000D01*
X148801000Y-81151000D01*
G37*
G36*
X135101000Y-81151000D02*
G01*
X131199000Y-81151000D01*
X131199000Y-78549000D01*
X135101000Y-78549000D01*
X135101000Y-81151000D01*
G37*
G36*
X90016000Y-80136000D02*
G01*
X87664000Y-80136000D01*
X87664000Y-77784000D01*
X90016000Y-77784000D01*
X90016000Y-80136000D01*
G37*
G36*
X151766242Y-78353404D02*
G01*
X151803337Y-78364657D01*
X151837515Y-78382925D01*
X151867481Y-78407519D01*
X151892075Y-78437485D01*
X151910343Y-78471663D01*
X151921596Y-78508758D01*
X151926000Y-78553474D01*
X151926000Y-79446526D01*
X151921596Y-79491242D01*
X151910343Y-79528337D01*
X151892075Y-79562515D01*
X151867481Y-79592481D01*
X151837515Y-79617075D01*
X151803337Y-79635343D01*
X151766242Y-79646596D01*
X151721526Y-79651000D01*
X150278474Y-79651000D01*
X150233758Y-79646596D01*
X150196663Y-79635343D01*
X150162485Y-79617075D01*
X150132519Y-79592481D01*
X150107925Y-79562515D01*
X150089657Y-79528337D01*
X150078404Y-79491242D01*
X150074000Y-79446526D01*
X150074000Y-78553474D01*
X150078404Y-78508758D01*
X150089657Y-78471663D01*
X150107925Y-78437485D01*
X150132519Y-78407519D01*
X150162485Y-78382925D01*
X150196663Y-78364657D01*
X150233758Y-78353404D01*
X150278474Y-78349000D01*
X151721526Y-78349000D01*
X151766242Y-78353404D01*
G37*
G36*
X125051000Y-79051000D02*
G01*
X122449000Y-79051000D01*
X122449000Y-77449000D01*
X125051000Y-77449000D01*
X125051000Y-79051000D01*
G37*
G36*
X116551000Y-79051000D02*
G01*
X113949000Y-79051000D01*
X113949000Y-77449000D01*
X116551000Y-77449000D01*
X116551000Y-79051000D01*
G37*
G36*
X145001000Y-78051000D02*
G01*
X141499000Y-78051000D01*
X141499000Y-75649000D01*
X145001000Y-75649000D01*
X145001000Y-78051000D01*
G37*
G36*
X151338855Y-76352140D02*
G01*
X151402618Y-76358420D01*
X151493404Y-76385960D01*
X151525336Y-76395646D01*
X151638425Y-76456094D01*
X151737554Y-76537446D01*
X151818906Y-76636575D01*
X151879354Y-76749664D01*
X151879355Y-76749668D01*
X151916580Y-76872382D01*
X151929149Y-77000000D01*
X151916580Y-77127618D01*
X151889040Y-77218404D01*
X151879354Y-77250336D01*
X151818906Y-77363425D01*
X151737554Y-77462554D01*
X151638425Y-77543906D01*
X151525336Y-77604354D01*
X151493404Y-77614040D01*
X151402618Y-77641580D01*
X151338855Y-77647860D01*
X151306974Y-77651000D01*
X150693026Y-77651000D01*
X150661145Y-77647860D01*
X150597382Y-77641580D01*
X150506596Y-77614040D01*
X150474664Y-77604354D01*
X150361575Y-77543906D01*
X150262446Y-77462554D01*
X150181094Y-77363425D01*
X150120646Y-77250336D01*
X150110960Y-77218404D01*
X150083420Y-77127618D01*
X150070851Y-77000000D01*
X150083420Y-76872382D01*
X150120645Y-76749668D01*
X150120646Y-76749664D01*
X150181094Y-76636575D01*
X150262446Y-76537446D01*
X150361575Y-76456094D01*
X150474664Y-76395646D01*
X150506596Y-76385960D01*
X150597382Y-76358420D01*
X150661145Y-76352140D01*
X150693026Y-76349000D01*
X151306974Y-76349000D01*
X151338855Y-76352140D01*
G37*
G36*
X118859999Y-72799737D02*
G01*
X118869608Y-72802652D01*
X118878472Y-72807390D01*
X118886237Y-72813763D01*
X118896448Y-72826206D01*
X118903378Y-72836575D01*
X118920705Y-72853902D01*
X118941080Y-72867515D01*
X118963720Y-72876891D01*
X118987753Y-72881671D01*
X119012257Y-72881670D01*
X119036290Y-72876888D01*
X119058929Y-72867510D01*
X119079302Y-72853895D01*
X119096629Y-72836568D01*
X119103558Y-72826198D01*
X119113763Y-72813763D01*
X119121528Y-72807390D01*
X119130392Y-72802652D01*
X119140001Y-72799737D01*
X119156140Y-72798148D01*
X119643861Y-72798148D01*
X119662199Y-72799954D01*
X119674450Y-72800556D01*
X119692869Y-72800556D01*
X119715149Y-72802750D01*
X119799233Y-72819476D01*
X119820660Y-72825976D01*
X119899858Y-72858780D01*
X119905303Y-72861691D01*
X119905309Y-72861693D01*
X119914169Y-72866429D01*
X119914173Y-72866432D01*
X119919614Y-72869340D01*
X119990899Y-72916971D01*
X120008204Y-72931172D01*
X120068828Y-72991796D01*
X120083029Y-73009101D01*
X120130660Y-73080386D01*
X120133568Y-73085827D01*
X120133571Y-73085831D01*
X120138307Y-73094691D01*
X120138309Y-73094697D01*
X120141220Y-73100142D01*
X120174024Y-73179340D01*
X120180524Y-73200767D01*
X120197250Y-73284851D01*
X120199444Y-73307131D01*
X120199444Y-73325550D01*
X120200046Y-73337801D01*
X120201852Y-73356139D01*
X120201852Y-73843862D01*
X120200046Y-73862199D01*
X120199444Y-73874450D01*
X120199444Y-73892869D01*
X120197250Y-73915149D01*
X120180524Y-73999233D01*
X120174024Y-74020660D01*
X120141220Y-74099858D01*
X120138309Y-74105303D01*
X120138307Y-74105309D01*
X120133571Y-74114169D01*
X120133568Y-74114173D01*
X120130660Y-74119614D01*
X120083029Y-74190899D01*
X120068828Y-74208204D01*
X120008204Y-74268828D01*
X119990899Y-74283029D01*
X119919614Y-74330660D01*
X119914173Y-74333568D01*
X119914169Y-74333571D01*
X119905309Y-74338307D01*
X119905303Y-74338309D01*
X119899858Y-74341220D01*
X119820660Y-74374024D01*
X119799233Y-74380524D01*
X119715149Y-74397250D01*
X119692869Y-74399444D01*
X119674450Y-74399444D01*
X119662199Y-74400046D01*
X119643862Y-74401852D01*
X119156140Y-74401852D01*
X119140001Y-74400263D01*
X119130392Y-74397348D01*
X119121528Y-74392610D01*
X119113763Y-74386237D01*
X119103552Y-74373794D01*
X119096622Y-74363425D01*
X119079295Y-74346098D01*
X119058920Y-74332485D01*
X119036280Y-74323109D01*
X119012247Y-74318329D01*
X118987743Y-74318330D01*
X118963710Y-74323112D01*
X118941071Y-74332490D01*
X118920698Y-74346105D01*
X118903371Y-74363432D01*
X118896442Y-74373802D01*
X118886237Y-74386237D01*
X118878472Y-74392610D01*
X118869608Y-74397348D01*
X118859999Y-74400263D01*
X118843860Y-74401852D01*
X118356138Y-74401852D01*
X118337801Y-74400046D01*
X118325550Y-74399444D01*
X118307131Y-74399444D01*
X118284851Y-74397250D01*
X118200767Y-74380524D01*
X118179340Y-74374024D01*
X118100142Y-74341220D01*
X118094697Y-74338309D01*
X118094691Y-74338307D01*
X118085831Y-74333571D01*
X118085827Y-74333568D01*
X118080386Y-74330660D01*
X118009101Y-74283029D01*
X117991796Y-74268828D01*
X117931172Y-74208204D01*
X117916971Y-74190899D01*
X117869340Y-74119614D01*
X117866432Y-74114173D01*
X117866429Y-74114169D01*
X117861693Y-74105309D01*
X117861691Y-74105303D01*
X117858780Y-74099858D01*
X117825976Y-74020660D01*
X117819476Y-73999233D01*
X117802750Y-73915149D01*
X117800556Y-73892869D01*
X117800556Y-73874450D01*
X117799954Y-73862199D01*
X117798148Y-73843862D01*
X117798148Y-73356139D01*
X117799954Y-73337801D01*
X117800556Y-73325550D01*
X117800556Y-73307131D01*
X117802750Y-73284851D01*
X117819476Y-73200767D01*
X117825976Y-73179340D01*
X117858780Y-73100142D01*
X117861691Y-73094697D01*
X117861693Y-73094691D01*
X117866429Y-73085831D01*
X117866432Y-73085827D01*
X117869340Y-73080386D01*
X117916971Y-73009101D01*
X117931172Y-72991796D01*
X117991796Y-72931172D01*
X118009101Y-72916971D01*
X118080386Y-72869340D01*
X118085827Y-72866432D01*
X118085831Y-72866429D01*
X118094691Y-72861693D01*
X118094697Y-72861691D01*
X118100142Y-72858780D01*
X118179340Y-72825976D01*
X118200767Y-72819476D01*
X118284851Y-72802750D01*
X118307131Y-72800556D01*
X118325550Y-72800556D01*
X118337801Y-72799954D01*
X118356139Y-72798148D01*
X118843860Y-72798148D01*
X118859999Y-72799737D01*
G37*
G36*
X145801000Y-74276000D02*
G01*
X145099000Y-74276000D01*
X145099000Y-73724000D01*
X145801000Y-73724000D01*
X145801000Y-74276000D01*
G37*
G36*
X147901000Y-74276000D02*
G01*
X147199000Y-74276000D01*
X147199000Y-73724000D01*
X147901000Y-73724000D01*
X147901000Y-74276000D01*
G37*
G36*
X89026727Y-70178103D02*
G01*
X89183027Y-70209193D01*
X89397045Y-70297842D01*
X89458120Y-70338651D01*
X89589654Y-70426539D01*
X89753461Y-70590346D01*
X89839258Y-70718751D01*
X89882158Y-70782955D01*
X89970807Y-70996973D01*
X90016000Y-71224174D01*
X90016000Y-71455826D01*
X89970807Y-71683027D01*
X89882158Y-71897045D01*
X89882157Y-71897046D01*
X89753461Y-72089654D01*
X89589654Y-72253461D01*
X89461249Y-72339258D01*
X89397045Y-72382158D01*
X89183027Y-72470807D01*
X89031560Y-72500936D01*
X88955827Y-72516000D01*
X88724173Y-72516000D01*
X88648440Y-72500936D01*
X88496973Y-72470807D01*
X88282955Y-72382158D01*
X88218751Y-72339258D01*
X88090346Y-72253461D01*
X87926539Y-72089654D01*
X87797843Y-71897046D01*
X87797842Y-71897045D01*
X87709193Y-71683027D01*
X87664000Y-71455826D01*
X87664000Y-71224174D01*
X87709193Y-70996973D01*
X87797842Y-70782955D01*
X87840742Y-70718751D01*
X87926539Y-70590346D01*
X88090346Y-70426539D01*
X88221880Y-70338651D01*
X88282955Y-70297842D01*
X88496973Y-70209193D01*
X88653273Y-70178103D01*
X88724173Y-70164000D01*
X88955827Y-70164000D01*
X89026727Y-70178103D01*
G37*
G36*
X109346727Y-70178103D02*
G01*
X109503027Y-70209193D01*
X109717045Y-70297842D01*
X109778120Y-70338651D01*
X109909654Y-70426539D01*
X110073461Y-70590346D01*
X110159258Y-70718751D01*
X110202158Y-70782955D01*
X110290807Y-70996973D01*
X110336000Y-71224174D01*
X110336000Y-71455826D01*
X110290807Y-71683027D01*
X110202158Y-71897045D01*
X110202157Y-71897046D01*
X110073461Y-72089654D01*
X109909654Y-72253461D01*
X109781249Y-72339258D01*
X109717045Y-72382158D01*
X109503027Y-72470807D01*
X109351560Y-72500936D01*
X109275827Y-72516000D01*
X109044173Y-72516000D01*
X108968440Y-72500936D01*
X108816973Y-72470807D01*
X108602955Y-72382158D01*
X108538751Y-72339258D01*
X108410346Y-72253461D01*
X108246539Y-72089654D01*
X108117843Y-71897046D01*
X108117842Y-71897045D01*
X108029193Y-71683027D01*
X107984000Y-71455826D01*
X107984000Y-71224174D01*
X108029193Y-70996973D01*
X108117842Y-70782955D01*
X108160742Y-70718751D01*
X108246539Y-70590346D01*
X108410346Y-70426539D01*
X108541880Y-70338651D01*
X108602955Y-70297842D01*
X108816973Y-70209193D01*
X108973273Y-70178103D01*
X109044173Y-70164000D01*
X109275827Y-70164000D01*
X109346727Y-70178103D01*
G37*
G36*
X115225562Y-70728181D02*
G01*
X115260481Y-70738774D01*
X115292663Y-70755976D01*
X115320873Y-70779127D01*
X115344024Y-70807337D01*
X115361226Y-70839519D01*
X115371819Y-70874438D01*
X115376000Y-70916895D01*
X115376000Y-72058105D01*
X115371819Y-72100562D01*
X115361226Y-72135481D01*
X115344024Y-72167663D01*
X115320873Y-72195873D01*
X115292663Y-72219024D01*
X115260481Y-72236226D01*
X115225562Y-72246819D01*
X115183105Y-72251000D01*
X112816895Y-72251000D01*
X112774438Y-72246819D01*
X112739519Y-72236226D01*
X112707337Y-72219024D01*
X112679127Y-72195873D01*
X112655976Y-72167663D01*
X112638774Y-72135481D01*
X112628181Y-72100562D01*
X112624000Y-72058105D01*
X112624000Y-70916895D01*
X112628181Y-70874438D01*
X112638774Y-70839519D01*
X112655976Y-70807337D01*
X112679127Y-70779127D01*
X112707337Y-70755976D01*
X112739519Y-70738774D01*
X112774438Y-70728181D01*
X112816895Y-70724000D01*
X115183105Y-70724000D01*
X115225562Y-70728181D01*
G37*
G36*
X147078820Y-70178103D02*
G01*
X147112985Y-70188467D01*
X147144464Y-70205293D01*
X147172060Y-70227940D01*
X147194707Y-70255536D01*
X147211533Y-70287015D01*
X147221897Y-70321180D01*
X147226000Y-70362842D01*
X147226000Y-71612158D01*
X147221897Y-71653820D01*
X147211533Y-71687985D01*
X147194707Y-71719464D01*
X147172060Y-71747060D01*
X147144464Y-71769707D01*
X147112985Y-71786533D01*
X147078820Y-71796897D01*
X147037158Y-71801000D01*
X143962842Y-71801000D01*
X143921180Y-71796897D01*
X143887015Y-71786533D01*
X143855536Y-71769707D01*
X143827940Y-71747060D01*
X143805293Y-71719464D01*
X143788467Y-71687985D01*
X143778103Y-71653820D01*
X143774000Y-71612158D01*
X143774000Y-70362842D01*
X143778103Y-70321180D01*
X143788467Y-70287015D01*
X143805293Y-70255536D01*
X143827940Y-70227940D01*
X143855536Y-70205293D01*
X143887015Y-70188467D01*
X143921180Y-70178103D01*
X143962842Y-70174000D01*
X147037158Y-70174000D01*
X147078820Y-70178103D01*
G37*
G36*
X153721000Y-71651000D02*
G01*
X152819000Y-71651000D01*
X152819000Y-70349000D01*
X153721000Y-70349000D01*
X153721000Y-71651000D01*
G37*
G36*
X151181000Y-71651000D02*
G01*
X150279000Y-71651000D01*
X150279000Y-70349000D01*
X151181000Y-70349000D01*
X151181000Y-71651000D01*
G37*
G36*
X115225562Y-67753181D02*
G01*
X115260481Y-67763774D01*
X115292663Y-67780976D01*
X115320873Y-67804127D01*
X115344024Y-67832337D01*
X115361226Y-67864519D01*
X115371819Y-67899438D01*
X115376000Y-67941895D01*
X115376000Y-69083105D01*
X115371819Y-69125562D01*
X115361226Y-69160481D01*
X115344024Y-69192663D01*
X115320873Y-69220873D01*
X115292663Y-69244024D01*
X115260481Y-69261226D01*
X115225562Y-69271819D01*
X115183105Y-69276000D01*
X112816895Y-69276000D01*
X112774438Y-69271819D01*
X112739519Y-69261226D01*
X112707337Y-69244024D01*
X112679127Y-69220873D01*
X112655976Y-69192663D01*
X112638774Y-69160481D01*
X112628181Y-69125562D01*
X112624000Y-69083105D01*
X112624000Y-67941895D01*
X112628181Y-67899438D01*
X112638774Y-67864519D01*
X112655976Y-67832337D01*
X112679127Y-67804127D01*
X112707337Y-67780976D01*
X112739519Y-67763774D01*
X112774438Y-67753181D01*
X112816895Y-67749000D01*
X115183105Y-67749000D01*
X115225562Y-67753181D01*
G37*
G36*
X130248228Y-64181703D02*
G01*
X130403100Y-64245853D01*
X130542481Y-64338985D01*
X130661015Y-64457519D01*
X130754147Y-64596900D01*
X130818297Y-64751772D01*
X130851000Y-64916184D01*
X130851000Y-65083816D01*
X130818297Y-65248228D01*
X130754147Y-65403100D01*
X130661015Y-65542481D01*
X130542481Y-65661015D01*
X130403100Y-65754147D01*
X130248228Y-65818297D01*
X130083816Y-65851000D01*
X129916184Y-65851000D01*
X129751772Y-65818297D01*
X129596900Y-65754147D01*
X129457519Y-65661015D01*
X129338985Y-65542481D01*
X129245853Y-65403100D01*
X129181703Y-65248228D01*
X129149000Y-65083816D01*
X129149000Y-64916184D01*
X129181703Y-64751772D01*
X129245853Y-64596900D01*
X129338985Y-64457519D01*
X129457519Y-64338985D01*
X129596900Y-64245853D01*
X129751772Y-64181703D01*
X129916184Y-64149000D01*
X130083816Y-64149000D01*
X130248228Y-64181703D01*
G37*
G36*
X135248228Y-64181703D02*
G01*
X135403100Y-64245853D01*
X135542481Y-64338985D01*
X135661015Y-64457519D01*
X135754147Y-64596900D01*
X135818297Y-64751772D01*
X135851000Y-64916184D01*
X135851000Y-65083816D01*
X135818297Y-65248228D01*
X135754147Y-65403100D01*
X135661015Y-65542481D01*
X135542481Y-65661015D01*
X135403100Y-65754147D01*
X135248228Y-65818297D01*
X135083816Y-65851000D01*
X134916184Y-65851000D01*
X134751772Y-65818297D01*
X134596900Y-65754147D01*
X134457519Y-65661015D01*
X134338985Y-65542481D01*
X134245853Y-65403100D01*
X134181703Y-65248228D01*
X134149000Y-65083816D01*
X134149000Y-64916184D01*
X134181703Y-64751772D01*
X134245853Y-64596900D01*
X134338985Y-64457519D01*
X134457519Y-64338985D01*
X134596900Y-64245853D01*
X134751772Y-64181703D01*
X134916184Y-64149000D01*
X135083816Y-64149000D01*
X135248228Y-64181703D01*
G37*
G36*
X147078820Y-64203103D02*
G01*
X147112985Y-64213467D01*
X147144464Y-64230293D01*
X147172060Y-64252940D01*
X147194707Y-64280536D01*
X147211533Y-64312015D01*
X147221897Y-64346180D01*
X147226000Y-64387842D01*
X147226000Y-65637158D01*
X147221897Y-65678820D01*
X147211533Y-65712985D01*
X147194707Y-65744464D01*
X147172060Y-65772060D01*
X147144464Y-65794707D01*
X147112985Y-65811533D01*
X147078820Y-65821897D01*
X147037158Y-65826000D01*
X143962842Y-65826000D01*
X143921180Y-65821897D01*
X143887015Y-65811533D01*
X143855536Y-65794707D01*
X143827940Y-65772060D01*
X143805293Y-65744464D01*
X143788467Y-65712985D01*
X143778103Y-65678820D01*
X143774000Y-65637158D01*
X143774000Y-64387842D01*
X143778103Y-64346180D01*
X143788467Y-64312015D01*
X143805293Y-64280536D01*
X143827940Y-64252940D01*
X143855536Y-64230293D01*
X143887015Y-64213467D01*
X143921180Y-64203103D01*
X143962842Y-64199000D01*
X147037158Y-64199000D01*
X147078820Y-64203103D01*
G37*
G36*
X153721000Y-65651000D02*
G01*
X152819000Y-65651000D01*
X152819000Y-64349000D01*
X153721000Y-64349000D01*
X153721000Y-65651000D01*
G37*
G36*
X151181000Y-65651000D02*
G01*
X150279000Y-65651000D01*
X150279000Y-64349000D01*
X151181000Y-64349000D01*
X151181000Y-65651000D01*
G37*
G36*
X153564499Y-62028445D02*
G01*
X153601995Y-62039820D01*
X153636554Y-62058292D01*
X153666847Y-62083153D01*
X153691708Y-62113446D01*
X153710180Y-62148005D01*
X153721555Y-62185501D01*
X153726000Y-62230638D01*
X153726000Y-62969362D01*
X153721555Y-63014499D01*
X153710180Y-63051995D01*
X153691708Y-63086554D01*
X153666847Y-63116847D01*
X153636554Y-63141708D01*
X153601995Y-63160180D01*
X153564499Y-63171555D01*
X153519362Y-63176000D01*
X152880638Y-63176000D01*
X152835501Y-63171555D01*
X152798005Y-63160180D01*
X152763446Y-63141708D01*
X152733153Y-63116847D01*
X152708292Y-63086554D01*
X152689820Y-63051995D01*
X152678445Y-63014499D01*
X152674000Y-62969362D01*
X152674000Y-62230638D01*
X152678445Y-62185501D01*
X152689820Y-62148005D01*
X152708292Y-62113446D01*
X152733153Y-62083153D01*
X152763446Y-62058292D01*
X152798005Y-62039820D01*
X152835501Y-62028445D01*
X152880638Y-62024000D01*
X153519362Y-62024000D01*
X153564499Y-62028445D01*
G37*
G36*
X147901000Y-62276000D02*
G01*
X147199000Y-62276000D01*
X147199000Y-61724000D01*
X147901000Y-61724000D01*
X147901000Y-62276000D01*
G37*
G36*
X145801000Y-62276000D02*
G01*
X145099000Y-62276000D01*
X145099000Y-61724000D01*
X145801000Y-61724000D01*
X145801000Y-62276000D01*
G37*
G36*
X153564499Y-60278445D02*
G01*
X153601995Y-60289820D01*
X153636554Y-60308292D01*
X153666847Y-60333153D01*
X153691708Y-60363446D01*
X153710180Y-60398005D01*
X153721555Y-60435501D01*
X153726000Y-60480638D01*
X153726000Y-61219362D01*
X153721555Y-61264499D01*
X153710180Y-61301995D01*
X153691708Y-61336554D01*
X153666847Y-61366847D01*
X153636554Y-61391708D01*
X153601995Y-61410180D01*
X153564499Y-61421555D01*
X153519362Y-61426000D01*
X152880638Y-61426000D01*
X152835501Y-61421555D01*
X152798005Y-61410180D01*
X152763446Y-61391708D01*
X152733153Y-61366847D01*
X152708292Y-61336554D01*
X152689820Y-61301995D01*
X152678445Y-61264499D01*
X152674000Y-61219362D01*
X152674000Y-60480638D01*
X152678445Y-60435501D01*
X152689820Y-60398005D01*
X152708292Y-60363446D01*
X152733153Y-60333153D01*
X152763446Y-60308292D01*
X152798005Y-60289820D01*
X152835501Y-60278445D01*
X152880638Y-60274000D01*
X153519362Y-60274000D01*
X153564499Y-60278445D01*
G37*
M02*
