G04 #@! TF.GenerationSoftware,KiCad,Pcbnew,(5.1.5-0)*
G04 #@! TF.CreationDate,2021-01-10T16:54:22-07:00*
G04 #@! TF.ProjectId,power_cui,706f7765-725f-4637-9569-2e6b69636164,rev?*
G04 #@! TF.SameCoordinates,Original*
G04 #@! TF.FileFunction,Legend,Top*
G04 #@! TF.FilePolarity,Positive*
%FSLAX46Y46*%
G04 Gerber Fmt 4.6, Leading zero omitted, Abs format (unit mm)*
G04 Created by KiCad (PCBNEW (5.1.5-0)) date 2021-01-10 16:54:22*
%MOMM*%
%LPD*%
G04 APERTURE LIST*
%ADD10C,0.150000*%
%ADD11C,0.400000*%
%ADD12C,0.127000*%
%ADD13C,0.120000*%
%ADD14C,0.200000*%
%ADD15C,0.254000*%
%ADD16C,0.015000*%
G04 APERTURE END LIST*
D10*
X96476190Y-148452380D02*
X95904761Y-148452380D01*
X96190476Y-148452380D02*
X96190476Y-147452380D01*
X96095238Y-147595238D01*
X96000000Y-147690476D01*
X95904761Y-147738095D01*
X97619047Y-147404761D02*
X96761904Y-148690476D01*
X97904761Y-147547619D02*
X97952380Y-147500000D01*
X98047619Y-147452380D01*
X98285714Y-147452380D01*
X98380952Y-147500000D01*
X98428571Y-147547619D01*
X98476190Y-147642857D01*
X98476190Y-147738095D01*
X98428571Y-147880952D01*
X97857142Y-148452380D01*
X98476190Y-148452380D01*
X99095238Y-147452380D02*
X99190476Y-147452380D01*
X99285714Y-147500000D01*
X99333333Y-147547619D01*
X99380952Y-147642857D01*
X99428571Y-147833333D01*
X99428571Y-148071428D01*
X99380952Y-148261904D01*
X99333333Y-148357142D01*
X99285714Y-148404761D01*
X99190476Y-148452380D01*
X99095238Y-148452380D01*
X99000000Y-148404761D01*
X98952380Y-148357142D01*
X98904761Y-148261904D01*
X98857142Y-148071428D01*
X98857142Y-147833333D01*
X98904761Y-147642857D01*
X98952380Y-147547619D01*
X99000000Y-147500000D01*
X99095238Y-147452380D01*
X99809523Y-147547619D02*
X99857142Y-147500000D01*
X99952380Y-147452380D01*
X100190476Y-147452380D01*
X100285714Y-147500000D01*
X100333333Y-147547619D01*
X100380952Y-147642857D01*
X100380952Y-147738095D01*
X100333333Y-147880952D01*
X99761904Y-148452380D01*
X100380952Y-148452380D01*
X101333333Y-148452380D02*
X100761904Y-148452380D01*
X101047619Y-148452380D02*
X101047619Y-147452380D01*
X100952380Y-147595238D01*
X100857142Y-147690476D01*
X100761904Y-147738095D01*
X102476190Y-148404761D02*
X102619047Y-148452380D01*
X102857142Y-148452380D01*
X102952380Y-148404761D01*
X103000000Y-148357142D01*
X103047619Y-148261904D01*
X103047619Y-148166666D01*
X103000000Y-148071428D01*
X102952380Y-148023809D01*
X102857142Y-147976190D01*
X102666666Y-147928571D01*
X102571428Y-147880952D01*
X102523809Y-147833333D01*
X102476190Y-147738095D01*
X102476190Y-147642857D01*
X102523809Y-147547619D01*
X102571428Y-147500000D01*
X102666666Y-147452380D01*
X102904761Y-147452380D01*
X103047619Y-147500000D01*
X103380952Y-147785714D02*
X103571428Y-148452380D01*
X103761904Y-147976190D01*
X103952380Y-148452380D01*
X104142857Y-147785714D01*
X104523809Y-148452380D02*
X104523809Y-147785714D01*
X104523809Y-147452380D02*
X104476190Y-147500000D01*
X104523809Y-147547619D01*
X104571428Y-147500000D01*
X104523809Y-147452380D01*
X104523809Y-147547619D01*
X104857142Y-147785714D02*
X105238095Y-147785714D01*
X105000000Y-147452380D02*
X105000000Y-148309523D01*
X105047619Y-148404761D01*
X105142857Y-148452380D01*
X105238095Y-148452380D01*
X106000000Y-148404761D02*
X105904761Y-148452380D01*
X105714285Y-148452380D01*
X105619047Y-148404761D01*
X105571428Y-148357142D01*
X105523809Y-148261904D01*
X105523809Y-147976190D01*
X105571428Y-147880952D01*
X105619047Y-147833333D01*
X105714285Y-147785714D01*
X105904761Y-147785714D01*
X106000000Y-147833333D01*
X106428571Y-148452380D02*
X106428571Y-147452380D01*
X106857142Y-148452380D02*
X106857142Y-147928571D01*
X106809523Y-147833333D01*
X106714285Y-147785714D01*
X106571428Y-147785714D01*
X106476190Y-147833333D01*
X106428571Y-147880952D01*
X107333333Y-148452380D02*
X107333333Y-147785714D01*
X107333333Y-147452380D02*
X107285714Y-147500000D01*
X107333333Y-147547619D01*
X107380952Y-147500000D01*
X107333333Y-147452380D01*
X107333333Y-147547619D01*
X107809523Y-147785714D02*
X107809523Y-148452380D01*
X107809523Y-147880952D02*
X107857142Y-147833333D01*
X107952380Y-147785714D01*
X108095238Y-147785714D01*
X108190476Y-147833333D01*
X108238095Y-147928571D01*
X108238095Y-148452380D01*
X109142857Y-147785714D02*
X109142857Y-148595238D01*
X109095238Y-148690476D01*
X109047619Y-148738095D01*
X108952380Y-148785714D01*
X108809523Y-148785714D01*
X108714285Y-148738095D01*
X109142857Y-148404761D02*
X109047619Y-148452380D01*
X108857142Y-148452380D01*
X108761904Y-148404761D01*
X108714285Y-148357142D01*
X108666666Y-148261904D01*
X108666666Y-147976190D01*
X108714285Y-147880952D01*
X108761904Y-147833333D01*
X108857142Y-147785714D01*
X109047619Y-147785714D01*
X109142857Y-147833333D01*
X110380952Y-148452380D02*
X110380952Y-147452380D01*
X110761904Y-147452380D01*
X110857142Y-147500000D01*
X110904761Y-147547619D01*
X110952380Y-147642857D01*
X110952380Y-147785714D01*
X110904761Y-147880952D01*
X110857142Y-147928571D01*
X110761904Y-147976190D01*
X110380952Y-147976190D01*
X111523809Y-148452380D02*
X111428571Y-148404761D01*
X111380952Y-148357142D01*
X111333333Y-148261904D01*
X111333333Y-147976190D01*
X111380952Y-147880952D01*
X111428571Y-147833333D01*
X111523809Y-147785714D01*
X111666666Y-147785714D01*
X111761904Y-147833333D01*
X111809523Y-147880952D01*
X111857142Y-147976190D01*
X111857142Y-148261904D01*
X111809523Y-148357142D01*
X111761904Y-148404761D01*
X111666666Y-148452380D01*
X111523809Y-148452380D01*
X112190476Y-147785714D02*
X112380952Y-148452380D01*
X112571428Y-147976190D01*
X112761904Y-148452380D01*
X112952380Y-147785714D01*
X113714285Y-148404761D02*
X113619047Y-148452380D01*
X113428571Y-148452380D01*
X113333333Y-148404761D01*
X113285714Y-148309523D01*
X113285714Y-147928571D01*
X113333333Y-147833333D01*
X113428571Y-147785714D01*
X113619047Y-147785714D01*
X113714285Y-147833333D01*
X113761904Y-147928571D01*
X113761904Y-148023809D01*
X113285714Y-148119047D01*
X114190476Y-148452380D02*
X114190476Y-147785714D01*
X114190476Y-147976190D02*
X114238095Y-147880952D01*
X114285714Y-147833333D01*
X114380952Y-147785714D01*
X114476190Y-147785714D01*
X115523809Y-148404761D02*
X115666666Y-148452380D01*
X115904761Y-148452380D01*
X116000000Y-148404761D01*
X116047619Y-148357142D01*
X116095238Y-148261904D01*
X116095238Y-148166666D01*
X116047619Y-148071428D01*
X116000000Y-148023809D01*
X115904761Y-147976190D01*
X115714285Y-147928571D01*
X115619047Y-147880952D01*
X115571428Y-147833333D01*
X115523809Y-147738095D01*
X115523809Y-147642857D01*
X115571428Y-147547619D01*
X115619047Y-147500000D01*
X115714285Y-147452380D01*
X115952380Y-147452380D01*
X116095238Y-147500000D01*
X116952380Y-147785714D02*
X116952380Y-148452380D01*
X116523809Y-147785714D02*
X116523809Y-148309523D01*
X116571428Y-148404761D01*
X116666666Y-148452380D01*
X116809523Y-148452380D01*
X116904761Y-148404761D01*
X116952380Y-148357142D01*
X117428571Y-147785714D02*
X117428571Y-148785714D01*
X117428571Y-147833333D02*
X117523809Y-147785714D01*
X117714285Y-147785714D01*
X117809523Y-147833333D01*
X117857142Y-147880952D01*
X117904761Y-147976190D01*
X117904761Y-148261904D01*
X117857142Y-148357142D01*
X117809523Y-148404761D01*
X117714285Y-148452380D01*
X117523809Y-148452380D01*
X117428571Y-148404761D01*
X118333333Y-147785714D02*
X118333333Y-148785714D01*
X118333333Y-147833333D02*
X118428571Y-147785714D01*
X118619047Y-147785714D01*
X118714285Y-147833333D01*
X118761904Y-147880952D01*
X118809523Y-147976190D01*
X118809523Y-148261904D01*
X118761904Y-148357142D01*
X118714285Y-148404761D01*
X118619047Y-148452380D01*
X118428571Y-148452380D01*
X118333333Y-148404761D01*
X119380952Y-148452380D02*
X119285714Y-148404761D01*
X119238095Y-148309523D01*
X119238095Y-147452380D01*
X119666666Y-147785714D02*
X119904761Y-148452380D01*
X120142857Y-147785714D02*
X119904761Y-148452380D01*
X119809523Y-148690476D01*
X119761904Y-148738095D01*
X119666666Y-148785714D01*
X121285714Y-148071428D02*
X122047619Y-148071428D01*
X121666666Y-148452380D02*
X121666666Y-147690476D01*
X123238095Y-148404761D02*
X123333333Y-148452380D01*
X123523809Y-148452380D01*
X123619047Y-148404761D01*
X123666666Y-148309523D01*
X123666666Y-148261904D01*
X123619047Y-148166666D01*
X123523809Y-148119047D01*
X123380952Y-148119047D01*
X123285714Y-148071428D01*
X123238095Y-147976190D01*
X123238095Y-147928571D01*
X123285714Y-147833333D01*
X123380952Y-147785714D01*
X123523809Y-147785714D01*
X123619047Y-147833333D01*
X124523809Y-147785714D02*
X124523809Y-148452380D01*
X124095238Y-147785714D02*
X124095238Y-148309523D01*
X124142857Y-148404761D01*
X124238095Y-148452380D01*
X124380952Y-148452380D01*
X124476190Y-148404761D01*
X124523809Y-148357142D01*
X124999999Y-147785714D02*
X124999999Y-148785714D01*
X124999999Y-147833333D02*
X125095238Y-147785714D01*
X125285714Y-147785714D01*
X125380952Y-147833333D01*
X125428571Y-147880952D01*
X125476190Y-147976190D01*
X125476190Y-148261904D01*
X125428571Y-148357142D01*
X125380952Y-148404761D01*
X125285714Y-148452380D01*
X125095238Y-148452380D01*
X124999999Y-148404761D01*
X126285714Y-148404761D02*
X126190476Y-148452380D01*
X125999999Y-148452380D01*
X125904761Y-148404761D01*
X125857142Y-148309523D01*
X125857142Y-147928571D01*
X125904761Y-147833333D01*
X125999999Y-147785714D01*
X126190476Y-147785714D01*
X126285714Y-147833333D01*
X126333333Y-147928571D01*
X126333333Y-148023809D01*
X125857142Y-148119047D01*
X126761904Y-148452380D02*
X126761904Y-147785714D01*
X126761904Y-147976190D02*
X126809523Y-147880952D01*
X126857142Y-147833333D01*
X126952380Y-147785714D01*
X127047619Y-147785714D01*
X128571428Y-148404761D02*
X128476190Y-148452380D01*
X128285714Y-148452380D01*
X128190476Y-148404761D01*
X128142857Y-148357142D01*
X128095238Y-148261904D01*
X128095238Y-147976190D01*
X128142857Y-147880952D01*
X128190476Y-147833333D01*
X128285714Y-147785714D01*
X128476190Y-147785714D01*
X128571428Y-147833333D01*
X129428571Y-148452380D02*
X129428571Y-147928571D01*
X129380952Y-147833333D01*
X129285714Y-147785714D01*
X129095238Y-147785714D01*
X128999999Y-147833333D01*
X129428571Y-148404761D02*
X129333333Y-148452380D01*
X129095238Y-148452380D01*
X128999999Y-148404761D01*
X128952380Y-148309523D01*
X128952380Y-148214285D01*
X128999999Y-148119047D01*
X129095238Y-148071428D01*
X129333333Y-148071428D01*
X129428571Y-148023809D01*
X129904761Y-147785714D02*
X129904761Y-148785714D01*
X129904761Y-147833333D02*
X130000000Y-147785714D01*
X130190476Y-147785714D01*
X130285714Y-147833333D01*
X130333333Y-147880952D01*
X130380952Y-147976190D01*
X130380952Y-148261904D01*
X130333333Y-148357142D01*
X130285714Y-148404761D01*
X130190476Y-148452380D01*
X130000000Y-148452380D01*
X129904761Y-148404761D01*
X131523809Y-148404761D02*
X131619047Y-148452380D01*
X131809523Y-148452380D01*
X131904761Y-148404761D01*
X131952380Y-148309523D01*
X131952380Y-148261904D01*
X131904761Y-148166666D01*
X131809523Y-148119047D01*
X131666666Y-148119047D01*
X131571428Y-148071428D01*
X131523809Y-147976190D01*
X131523809Y-147928571D01*
X131571428Y-147833333D01*
X131666666Y-147785714D01*
X131809523Y-147785714D01*
X131904761Y-147833333D01*
X132380952Y-148452380D02*
X132380952Y-147452380D01*
X132809523Y-148452380D02*
X132809523Y-147928571D01*
X132761904Y-147833333D01*
X132666666Y-147785714D01*
X132523809Y-147785714D01*
X132428571Y-147833333D01*
X132380952Y-147880952D01*
X133714285Y-147785714D02*
X133714285Y-148452380D01*
X133285714Y-147785714D02*
X133285714Y-148309523D01*
X133333333Y-148404761D01*
X133428571Y-148452380D01*
X133571428Y-148452380D01*
X133666666Y-148404761D01*
X133714285Y-148357142D01*
X134047619Y-147785714D02*
X134428571Y-147785714D01*
X134190476Y-147452380D02*
X134190476Y-148309523D01*
X134238095Y-148404761D01*
X134333333Y-148452380D01*
X134428571Y-148452380D01*
X135190476Y-148452380D02*
X135190476Y-147452380D01*
X135190476Y-148404761D02*
X135095238Y-148452380D01*
X134904761Y-148452380D01*
X134809523Y-148404761D01*
X134761904Y-148357142D01*
X134714285Y-148261904D01*
X134714285Y-147976190D01*
X134761904Y-147880952D01*
X134809523Y-147833333D01*
X134904761Y-147785714D01*
X135095238Y-147785714D01*
X135190476Y-147833333D01*
X135809523Y-148452380D02*
X135714285Y-148404761D01*
X135666666Y-148357142D01*
X135619047Y-148261904D01*
X135619047Y-147976190D01*
X135666666Y-147880952D01*
X135714285Y-147833333D01*
X135809523Y-147785714D01*
X135952380Y-147785714D01*
X136047619Y-147833333D01*
X136095238Y-147880952D01*
X136142857Y-147976190D01*
X136142857Y-148261904D01*
X136095238Y-148357142D01*
X136047619Y-148404761D01*
X135952380Y-148452380D01*
X135809523Y-148452380D01*
X136476190Y-147785714D02*
X136666666Y-148452380D01*
X136857142Y-147976190D01*
X137047619Y-148452380D01*
X137238095Y-147785714D01*
X137619047Y-147785714D02*
X137619047Y-148452380D01*
X137619047Y-147880952D02*
X137666666Y-147833333D01*
X137761904Y-147785714D01*
X137904761Y-147785714D01*
X137999999Y-147833333D01*
X138047619Y-147928571D01*
X138047619Y-148452380D01*
D11*
X101980000Y-128990000D02*
G75*
G03X101980000Y-128990000I-200000J0D01*
G01*
D12*
X85800000Y-134500000D02*
X85800000Y-133000000D01*
X85800000Y-133000000D02*
X85800000Y-125000000D01*
X85800000Y-125000000D02*
X85800000Y-123500000D01*
X85800000Y-123500000D02*
X100000000Y-123500000D01*
X80100000Y-133000000D02*
X80100000Y-125000000D01*
X80100000Y-125000000D02*
X85800000Y-125000000D01*
X80100000Y-133000000D02*
X85800000Y-133000000D01*
X94800000Y-134500000D02*
X85800000Y-134500000D01*
X100000000Y-134500000D02*
X99100000Y-134500000D01*
X100000000Y-131400000D02*
X100000000Y-134500000D01*
X100000000Y-123500000D02*
X100000000Y-126600000D01*
D13*
X148890000Y-94360000D02*
X150140000Y-94360000D01*
X148890000Y-93110000D02*
X148890000Y-94360000D01*
X153300000Y-91000000D02*
X152800000Y-91000000D01*
X152800000Y-90900000D02*
X153300000Y-90900000D01*
X152800000Y-91100000D02*
X152800000Y-90900000D01*
X153300000Y-91100000D02*
X152800000Y-91100000D01*
X151800000Y-87940000D02*
X151800000Y-88550000D01*
X150500000Y-87940000D02*
X150500000Y-88550000D01*
X151800000Y-94060000D02*
X151800000Y-93450000D01*
X150500000Y-94060000D02*
X150500000Y-93450000D01*
X149800000Y-90500000D02*
X149190000Y-90500000D01*
X149800000Y-88550000D02*
X149800000Y-90500000D01*
X153300000Y-88550000D02*
X149800000Y-88550000D01*
X153300000Y-93450000D02*
X153300000Y-88550000D01*
X149800000Y-93450000D02*
X153300000Y-93450000D01*
X149800000Y-91500000D02*
X149800000Y-93450000D01*
X149190000Y-91500000D02*
X149800000Y-91500000D01*
X149090000Y-92300000D02*
X149090000Y-92600000D01*
X148990000Y-92600000D02*
X149190000Y-92600000D01*
X148990000Y-92300000D02*
X148990000Y-92600000D01*
X149190000Y-92300000D02*
X148990000Y-92300000D01*
X149190000Y-87940000D02*
X149190000Y-94060000D01*
X153910000Y-87940000D02*
X149190000Y-87940000D01*
X153910000Y-94060000D02*
X153910000Y-87940000D01*
X149190000Y-94060000D02*
X153910000Y-94060000D01*
X127397936Y-91360000D02*
X128602064Y-91360000D01*
X127397936Y-88640000D02*
X128602064Y-88640000D01*
X143790000Y-65947936D02*
X143790000Y-70052064D01*
X147210000Y-65947936D02*
X147210000Y-70052064D01*
X145490000Y-90953733D02*
X145490000Y-91296267D01*
X146510000Y-90953733D02*
X146510000Y-91296267D01*
X152240000Y-82420000D02*
X153700000Y-82420000D01*
X152240000Y-85580000D02*
X154400000Y-85580000D01*
X152240000Y-85580000D02*
X152240000Y-84650000D01*
X152240000Y-82420000D02*
X152240000Y-83350000D01*
X152760000Y-107580000D02*
X151300000Y-107580000D01*
X152760000Y-104420000D02*
X150600000Y-104420000D01*
X152760000Y-104420000D02*
X152760000Y-105350000D01*
X152760000Y-107580000D02*
X152760000Y-106650000D01*
X153600000Y-53650000D02*
X153600000Y-73550000D01*
X153600000Y-73550000D02*
X148400000Y-73550000D01*
X148400000Y-73550000D02*
X148400000Y-53650000D01*
X148400000Y-53650000D02*
X153600000Y-53650000D01*
X148200000Y-54550000D02*
X148200000Y-53450000D01*
X148200000Y-53450000D02*
X149200000Y-53450000D01*
X149400000Y-145350000D02*
X149400000Y-125450000D01*
X149400000Y-125450000D02*
X154600000Y-125450000D01*
X154600000Y-125450000D02*
X154600000Y-145350000D01*
X154600000Y-145350000D02*
X149400000Y-145350000D01*
X154800000Y-144450000D02*
X154800000Y-145550000D01*
X154800000Y-145550000D02*
X153800000Y-145550000D01*
X154110000Y-117640000D02*
X152860000Y-117640000D01*
X154110000Y-118890000D02*
X154110000Y-117640000D01*
X149700000Y-121000000D02*
X150200000Y-121000000D01*
X150200000Y-121100000D02*
X149700000Y-121100000D01*
X150200000Y-120900000D02*
X150200000Y-121100000D01*
X149700000Y-120900000D02*
X150200000Y-120900000D01*
X151200000Y-124060000D02*
X151200000Y-123450000D01*
X152500000Y-124060000D02*
X152500000Y-123450000D01*
X151200000Y-117940000D02*
X151200000Y-118550000D01*
X152500000Y-117940000D02*
X152500000Y-118550000D01*
X153200000Y-121500000D02*
X153810000Y-121500000D01*
X153200000Y-123450000D02*
X153200000Y-121500000D01*
X149700000Y-123450000D02*
X153200000Y-123450000D01*
X149700000Y-118550000D02*
X149700000Y-123450000D01*
X153200000Y-118550000D02*
X149700000Y-118550000D01*
X153200000Y-120500000D02*
X153200000Y-118550000D01*
X153810000Y-120500000D02*
X153200000Y-120500000D01*
X153910000Y-119700000D02*
X153910000Y-119400000D01*
X154010000Y-119400000D02*
X153810000Y-119400000D01*
X154010000Y-119700000D02*
X154010000Y-119400000D01*
X153810000Y-119700000D02*
X154010000Y-119700000D01*
X153810000Y-124060000D02*
X153810000Y-117940000D01*
X149090000Y-124060000D02*
X153810000Y-124060000D01*
X149090000Y-117940000D02*
X149090000Y-124060000D01*
X153810000Y-117940000D02*
X149090000Y-117940000D01*
X148890000Y-81360000D02*
X150140000Y-81360000D01*
X148890000Y-80110000D02*
X148890000Y-81360000D01*
X153300000Y-78000000D02*
X152800000Y-78000000D01*
X152800000Y-77900000D02*
X153300000Y-77900000D01*
X152800000Y-78100000D02*
X152800000Y-77900000D01*
X153300000Y-78100000D02*
X152800000Y-78100000D01*
X151800000Y-74940000D02*
X151800000Y-75550000D01*
X150500000Y-74940000D02*
X150500000Y-75550000D01*
X151800000Y-81060000D02*
X151800000Y-80450000D01*
X150500000Y-81060000D02*
X150500000Y-80450000D01*
X149800000Y-77500000D02*
X149190000Y-77500000D01*
X149800000Y-75550000D02*
X149800000Y-77500000D01*
X153300000Y-75550000D02*
X149800000Y-75550000D01*
X153300000Y-80450000D02*
X153300000Y-75550000D01*
X149800000Y-80450000D02*
X153300000Y-80450000D01*
X149800000Y-78500000D02*
X149800000Y-80450000D01*
X149190000Y-78500000D02*
X149800000Y-78500000D01*
X149090000Y-79300000D02*
X149090000Y-79600000D01*
X148990000Y-79600000D02*
X149190000Y-79600000D01*
X148990000Y-79300000D02*
X148990000Y-79600000D01*
X149190000Y-79300000D02*
X148990000Y-79300000D01*
X149190000Y-74940000D02*
X149190000Y-81060000D01*
X153910000Y-74940000D02*
X149190000Y-74940000D01*
X153910000Y-81060000D02*
X153910000Y-74940000D01*
X149190000Y-81060000D02*
X153910000Y-81060000D01*
X154110000Y-109640000D02*
X152860000Y-109640000D01*
X154110000Y-110890000D02*
X154110000Y-109640000D01*
X149700000Y-113000000D02*
X150200000Y-113000000D01*
X150200000Y-113100000D02*
X149700000Y-113100000D01*
X150200000Y-112900000D02*
X150200000Y-113100000D01*
X149700000Y-112900000D02*
X150200000Y-112900000D01*
X151200000Y-116060000D02*
X151200000Y-115450000D01*
X152500000Y-116060000D02*
X152500000Y-115450000D01*
X151200000Y-109940000D02*
X151200000Y-110550000D01*
X152500000Y-109940000D02*
X152500000Y-110550000D01*
X153200000Y-113500000D02*
X153810000Y-113500000D01*
X153200000Y-115450000D02*
X153200000Y-113500000D01*
X149700000Y-115450000D02*
X153200000Y-115450000D01*
X149700000Y-110550000D02*
X149700000Y-115450000D01*
X153200000Y-110550000D02*
X149700000Y-110550000D01*
X153200000Y-112500000D02*
X153200000Y-110550000D01*
X153810000Y-112500000D02*
X153200000Y-112500000D01*
X153910000Y-111700000D02*
X153910000Y-111400000D01*
X154010000Y-111400000D02*
X153810000Y-111400000D01*
X154010000Y-111700000D02*
X154010000Y-111400000D01*
X153810000Y-111700000D02*
X154010000Y-111700000D01*
X153810000Y-116060000D02*
X153810000Y-109940000D01*
X149090000Y-116060000D02*
X153810000Y-116060000D01*
X149090000Y-109940000D02*
X149090000Y-116060000D01*
X153810000Y-109940000D02*
X149090000Y-109940000D01*
X154110000Y-95640000D02*
X152860000Y-95640000D01*
X154110000Y-96890000D02*
X154110000Y-95640000D01*
X149700000Y-99000000D02*
X150200000Y-99000000D01*
X150200000Y-99100000D02*
X149700000Y-99100000D01*
X150200000Y-98900000D02*
X150200000Y-99100000D01*
X149700000Y-98900000D02*
X150200000Y-98900000D01*
X151200000Y-102060000D02*
X151200000Y-101450000D01*
X152500000Y-102060000D02*
X152500000Y-101450000D01*
X151200000Y-95940000D02*
X151200000Y-96550000D01*
X152500000Y-95940000D02*
X152500000Y-96550000D01*
X153200000Y-99500000D02*
X153810000Y-99500000D01*
X153200000Y-101450000D02*
X153200000Y-99500000D01*
X149700000Y-101450000D02*
X153200000Y-101450000D01*
X149700000Y-96550000D02*
X149700000Y-101450000D01*
X153200000Y-96550000D02*
X149700000Y-96550000D01*
X153200000Y-98500000D02*
X153200000Y-96550000D01*
X153810000Y-98500000D02*
X153200000Y-98500000D01*
X153910000Y-97700000D02*
X153910000Y-97400000D01*
X154010000Y-97400000D02*
X153810000Y-97400000D01*
X154010000Y-97700000D02*
X154010000Y-97400000D01*
X153810000Y-97700000D02*
X154010000Y-97700000D01*
X153810000Y-102060000D02*
X153810000Y-95940000D01*
X149090000Y-102060000D02*
X153810000Y-102060000D01*
X149090000Y-95940000D02*
X149090000Y-102060000D01*
X153810000Y-95940000D02*
X149090000Y-95940000D01*
X145000000Y-73150000D02*
X147550000Y-73150000D01*
X145000000Y-74850000D02*
X147550000Y-74850000D01*
X145000000Y-73150000D02*
X145000000Y-74850000D01*
X146150000Y-133500000D02*
X146150000Y-130950000D01*
X147850000Y-133500000D02*
X147850000Y-130950000D01*
X146150000Y-133500000D02*
X147850000Y-133500000D01*
X147052064Y-105290000D02*
X142947936Y-105290000D01*
X147052064Y-108710000D02*
X142947936Y-108710000D01*
X145000000Y-61150000D02*
X147550000Y-61150000D01*
X145000000Y-62850000D02*
X147550000Y-62850000D01*
X145000000Y-61150000D02*
X145000000Y-62850000D01*
X148500000Y-138850000D02*
X145950000Y-138850000D01*
X148500000Y-137150000D02*
X145950000Y-137150000D01*
X148500000Y-138850000D02*
X148500000Y-137150000D01*
X143250000Y-65000000D02*
G75*
G03X143250000Y-65000000I-10750000J0D01*
G01*
X143250000Y-116000000D02*
G75*
G03X143250000Y-116000000I-10750000J0D01*
G01*
X92590000Y-96738748D02*
X92590000Y-97261252D01*
X94810000Y-96738748D02*
X94810000Y-97261252D01*
D12*
X111700000Y-94200000D02*
X86300000Y-94200000D01*
X86300000Y-94200000D02*
X86300000Y-68800000D01*
X86300000Y-68800000D02*
X111700000Y-68800000D01*
X111700000Y-68800000D02*
X111700000Y-94200000D01*
D14*
X85600000Y-78900000D02*
G75*
G03X85600000Y-78900000I-100000J0D01*
G01*
D10*
X107950000Y-109400000D02*
X107950000Y-104500000D01*
X86450000Y-109400000D02*
X86450000Y-104500000D01*
X107950000Y-109400000D02*
X86450000Y-109400000D01*
X107950000Y-104500000D02*
X86450000Y-104500000D01*
D13*
X104490000Y-127738748D02*
X104490000Y-128261252D01*
X105910000Y-127738748D02*
X105910000Y-128261252D01*
X102460000Y-111804437D02*
X101395563Y-110740000D01*
X102460000Y-120195563D02*
X101395563Y-121260000D01*
X102460000Y-120195563D02*
X102460000Y-117310000D01*
X102460000Y-111804437D02*
X102460000Y-114690000D01*
X101395563Y-110740000D02*
X91940000Y-110740000D01*
X101395563Y-121260000D02*
X91940000Y-121260000D01*
X91940000Y-121260000D02*
X91940000Y-117310000D01*
X91940000Y-110740000D02*
X91940000Y-114690000D01*
X112640000Y-69397936D02*
X112640000Y-70602064D01*
X115360000Y-69397936D02*
X115360000Y-70602064D01*
X115860000Y-91102064D02*
X115860000Y-89897936D01*
X113140000Y-91102064D02*
X113140000Y-89897936D01*
X92402064Y-100140000D02*
X91197936Y-100140000D01*
X92402064Y-102860000D02*
X91197936Y-102860000D01*
D15*
X129838000Y-95742000D02*
G75*
G03X129838000Y-95742000I-180000J0D01*
G01*
D14*
X145050000Y-97400000D02*
X145050000Y-98600000D01*
X132950000Y-97400000D02*
X132950000Y-98600000D01*
X132950000Y-102550000D02*
X135716000Y-102550000D01*
X132950000Y-93450000D02*
X140193000Y-93450000D01*
D15*
X130838000Y-79742000D02*
G75*
G03X130838000Y-79742000I-180000J0D01*
G01*
D14*
X146050000Y-81400000D02*
X146050000Y-82600000D01*
X133950000Y-81400000D02*
X133950000Y-82600000D01*
X133950000Y-86550000D02*
X136716000Y-86550000D01*
X133950000Y-77450000D02*
X141193000Y-77450000D01*
D13*
X118300000Y-103000000D02*
X119700000Y-103000000D01*
X120400000Y-103700000D02*
X120400000Y-104300000D01*
X119700000Y-105000000D02*
X118300000Y-105000000D01*
X117600000Y-104300000D02*
X117600000Y-103700000D01*
X117600000Y-103700000D02*
G75*
G02X118300000Y-103000000I700000J0D01*
G01*
X118300000Y-105000000D02*
G75*
G02X117600000Y-104300000I0J700000D01*
G01*
X120400000Y-104300000D02*
G75*
G02X119700000Y-105000000I-700000J0D01*
G01*
X119700000Y-103000000D02*
G75*
G02X120400000Y-103700000I0J-700000D01*
G01*
X118300000Y-93000000D02*
X119700000Y-93000000D01*
X120400000Y-93700000D02*
X120400000Y-94300000D01*
X119700000Y-95000000D02*
X118300000Y-95000000D01*
X117600000Y-94300000D02*
X117600000Y-93700000D01*
X117600000Y-93700000D02*
G75*
G02X118300000Y-93000000I700000J0D01*
G01*
X118300000Y-95000000D02*
G75*
G02X117600000Y-94300000I0J700000D01*
G01*
X120400000Y-94300000D02*
G75*
G02X119700000Y-95000000I-700000J0D01*
G01*
X119700000Y-93000000D02*
G75*
G02X120400000Y-93700000I0J-700000D01*
G01*
X118300000Y-84000000D02*
X119700000Y-84000000D01*
X120400000Y-84700000D02*
X120400000Y-85300000D01*
X119700000Y-86000000D02*
X118300000Y-86000000D01*
X117600000Y-85300000D02*
X117600000Y-84700000D01*
X117600000Y-84700000D02*
G75*
G02X118300000Y-84000000I700000J0D01*
G01*
X118300000Y-86000000D02*
G75*
G02X117600000Y-85300000I0J700000D01*
G01*
X120400000Y-85300000D02*
G75*
G02X119700000Y-86000000I-700000J0D01*
G01*
X119700000Y-84000000D02*
G75*
G02X120400000Y-84700000I0J-700000D01*
G01*
X118300000Y-74000000D02*
X119700000Y-74000000D01*
X120400000Y-74700000D02*
X120400000Y-75300000D01*
X119700000Y-76000000D02*
X118300000Y-76000000D01*
X117600000Y-75300000D02*
X117600000Y-74700000D01*
X117600000Y-74700000D02*
G75*
G02X118300000Y-74000000I700000J0D01*
G01*
X118300000Y-76000000D02*
G75*
G02X117600000Y-75300000I0J700000D01*
G01*
X120400000Y-75300000D02*
G75*
G02X119700000Y-76000000I-700000J0D01*
G01*
X119700000Y-74000000D02*
G75*
G02X120400000Y-74700000I0J-700000D01*
G01*
X123800000Y-98600000D02*
X123800000Y-99400000D01*
X114200000Y-98600000D02*
X114200000Y-99400000D01*
X114200000Y-101200000D02*
X114200000Y-102200000D01*
X114200000Y-102200000D02*
X123800000Y-102200000D01*
X123800000Y-102200000D02*
X123800000Y-101200000D01*
X123800000Y-96800000D02*
X123800000Y-95800000D01*
X123800000Y-95800000D02*
X114200000Y-95800000D01*
X123800000Y-79600000D02*
X123800000Y-80400000D01*
X114200000Y-79600000D02*
X114200000Y-80400000D01*
X114200000Y-82200000D02*
X114200000Y-83200000D01*
X114200000Y-83200000D02*
X123800000Y-83200000D01*
X123800000Y-83200000D02*
X123800000Y-82200000D01*
X123800000Y-77800000D02*
X123800000Y-76800000D01*
X123800000Y-76800000D02*
X114200000Y-76800000D01*
D16*
X96829483Y-135604193D02*
X96829483Y-136319649D01*
X96781786Y-136462740D01*
X96686392Y-136558134D01*
X96543301Y-136605831D01*
X96447907Y-136605831D01*
X97831121Y-136605831D02*
X97258757Y-136605831D01*
X97544939Y-136605831D02*
X97544939Y-135604193D01*
X97449545Y-135747285D01*
X97354151Y-135842679D01*
X97258757Y-135890376D01*
D10*
X147452380Y-89333333D02*
X148166666Y-89333333D01*
X148309523Y-89380952D01*
X148404761Y-89476190D01*
X148452380Y-89619047D01*
X148452380Y-89714285D01*
X147452380Y-88428571D02*
X147452380Y-88619047D01*
X147500000Y-88714285D01*
X147547619Y-88761904D01*
X147690476Y-88857142D01*
X147880952Y-88904761D01*
X148261904Y-88904761D01*
X148357142Y-88857142D01*
X148404761Y-88809523D01*
X148452380Y-88714285D01*
X148452380Y-88523809D01*
X148404761Y-88428571D01*
X148357142Y-88380952D01*
X148261904Y-88333333D01*
X148023809Y-88333333D01*
X147928571Y-88380952D01*
X147880952Y-88428571D01*
X147833333Y-88523809D01*
X147833333Y-88714285D01*
X147880952Y-88809523D01*
X147928571Y-88857142D01*
X148023809Y-88904761D01*
X127833333Y-88077142D02*
X127785714Y-88124761D01*
X127642857Y-88172380D01*
X127547619Y-88172380D01*
X127404761Y-88124761D01*
X127309523Y-88029523D01*
X127261904Y-87934285D01*
X127214285Y-87743809D01*
X127214285Y-87600952D01*
X127261904Y-87410476D01*
X127309523Y-87315238D01*
X127404761Y-87220000D01*
X127547619Y-87172380D01*
X127642857Y-87172380D01*
X127785714Y-87220000D01*
X127833333Y-87267619D01*
X128166666Y-87172380D02*
X128833333Y-87172380D01*
X128404761Y-88172380D01*
X148572380Y-68166666D02*
X148096190Y-68500000D01*
X148572380Y-68738095D02*
X147572380Y-68738095D01*
X147572380Y-68357142D01*
X147620000Y-68261904D01*
X147667619Y-68214285D01*
X147762857Y-68166666D01*
X147905714Y-68166666D01*
X148000952Y-68214285D01*
X148048571Y-68261904D01*
X148096190Y-68357142D01*
X148096190Y-68738095D01*
X147572380Y-67833333D02*
X147572380Y-67214285D01*
X147953333Y-67547619D01*
X147953333Y-67404761D01*
X148000952Y-67309523D01*
X148048571Y-67261904D01*
X148143809Y-67214285D01*
X148381904Y-67214285D01*
X148477142Y-67261904D01*
X148524761Y-67309523D01*
X148572380Y-67404761D01*
X148572380Y-67690476D01*
X148524761Y-67785714D01*
X148477142Y-67833333D01*
X147882380Y-91291666D02*
X147406190Y-91625000D01*
X147882380Y-91863095D02*
X146882380Y-91863095D01*
X146882380Y-91482142D01*
X146930000Y-91386904D01*
X146977619Y-91339285D01*
X147072857Y-91291666D01*
X147215714Y-91291666D01*
X147310952Y-91339285D01*
X147358571Y-91386904D01*
X147406190Y-91482142D01*
X147406190Y-91863095D01*
X146977619Y-90910714D02*
X146930000Y-90863095D01*
X146882380Y-90767857D01*
X146882380Y-90529761D01*
X146930000Y-90434523D01*
X146977619Y-90386904D01*
X147072857Y-90339285D01*
X147168095Y-90339285D01*
X147310952Y-90386904D01*
X147882380Y-90958333D01*
X147882380Y-90339285D01*
X152904761Y-87047619D02*
X152809523Y-87000000D01*
X152714285Y-86904761D01*
X152571428Y-86761904D01*
X152476190Y-86714285D01*
X152380952Y-86714285D01*
X152428571Y-86952380D02*
X152333333Y-86904761D01*
X152238095Y-86809523D01*
X152190476Y-86619047D01*
X152190476Y-86285714D01*
X152238095Y-86095238D01*
X152333333Y-86000000D01*
X152428571Y-85952380D01*
X152619047Y-85952380D01*
X152714285Y-86000000D01*
X152809523Y-86095238D01*
X152857142Y-86285714D01*
X152857142Y-86619047D01*
X152809523Y-86809523D01*
X152714285Y-86904761D01*
X152619047Y-86952380D01*
X152428571Y-86952380D01*
X153238095Y-86047619D02*
X153285714Y-86000000D01*
X153380952Y-85952380D01*
X153619047Y-85952380D01*
X153714285Y-86000000D01*
X153761904Y-86047619D01*
X153809523Y-86142857D01*
X153809523Y-86238095D01*
X153761904Y-86380952D01*
X153190476Y-86952380D01*
X153809523Y-86952380D01*
X151904761Y-104047619D02*
X151809523Y-104000000D01*
X151714285Y-103904761D01*
X151571428Y-103761904D01*
X151476190Y-103714285D01*
X151380952Y-103714285D01*
X151428571Y-103952380D02*
X151333333Y-103904761D01*
X151238095Y-103809523D01*
X151190476Y-103619047D01*
X151190476Y-103285714D01*
X151238095Y-103095238D01*
X151333333Y-103000000D01*
X151428571Y-102952380D01*
X151619047Y-102952380D01*
X151714285Y-103000000D01*
X151809523Y-103095238D01*
X151857142Y-103285714D01*
X151857142Y-103619047D01*
X151809523Y-103809523D01*
X151714285Y-103904761D01*
X151619047Y-103952380D01*
X151428571Y-103952380D01*
X152809523Y-103952380D02*
X152238095Y-103952380D01*
X152523809Y-103952380D02*
X152523809Y-102952380D01*
X152428571Y-103095238D01*
X152333333Y-103190476D01*
X152238095Y-103238095D01*
X155102380Y-64488095D02*
X154102380Y-64488095D01*
X155102380Y-63916666D02*
X154530952Y-64345238D01*
X154102380Y-63916666D02*
X154673809Y-64488095D01*
X154197619Y-63535714D02*
X154150000Y-63488095D01*
X154102380Y-63392857D01*
X154102380Y-63154761D01*
X154150000Y-63059523D01*
X154197619Y-63011904D01*
X154292857Y-62964285D01*
X154388095Y-62964285D01*
X154530952Y-63011904D01*
X155102380Y-63583333D01*
X155102380Y-62964285D01*
X148802380Y-135988095D02*
X147802380Y-135988095D01*
X148802380Y-135416666D02*
X148230952Y-135845238D01*
X147802380Y-135416666D02*
X148373809Y-135988095D01*
X148802380Y-134464285D02*
X148802380Y-135035714D01*
X148802380Y-134750000D02*
X147802380Y-134750000D01*
X147945238Y-134845238D01*
X148040476Y-134940476D01*
X148088095Y-135035714D01*
X154352380Y-121333333D02*
X155066666Y-121333333D01*
X155209523Y-121380952D01*
X155304761Y-121476190D01*
X155352380Y-121619047D01*
X155352380Y-121714285D01*
X154352380Y-120380952D02*
X154352380Y-120857142D01*
X154828571Y-120904761D01*
X154780952Y-120857142D01*
X154733333Y-120761904D01*
X154733333Y-120523809D01*
X154780952Y-120428571D01*
X154828571Y-120380952D01*
X154923809Y-120333333D01*
X155161904Y-120333333D01*
X155257142Y-120380952D01*
X155304761Y-120428571D01*
X155352380Y-120523809D01*
X155352380Y-120761904D01*
X155304761Y-120857142D01*
X155257142Y-120904761D01*
X147552380Y-78333333D02*
X148266666Y-78333333D01*
X148409523Y-78380952D01*
X148504761Y-78476190D01*
X148552380Y-78619047D01*
X148552380Y-78714285D01*
X147885714Y-77428571D02*
X148552380Y-77428571D01*
X147504761Y-77666666D02*
X148219047Y-77904761D01*
X148219047Y-77285714D01*
X154352380Y-113333333D02*
X155066666Y-113333333D01*
X155209523Y-113380952D01*
X155304761Y-113476190D01*
X155352380Y-113619047D01*
X155352380Y-113714285D01*
X154352380Y-112952380D02*
X154352380Y-112333333D01*
X154733333Y-112666666D01*
X154733333Y-112523809D01*
X154780952Y-112428571D01*
X154828571Y-112380952D01*
X154923809Y-112333333D01*
X155161904Y-112333333D01*
X155257142Y-112380952D01*
X155304761Y-112428571D01*
X155352380Y-112523809D01*
X155352380Y-112809523D01*
X155304761Y-112904761D01*
X155257142Y-112952380D01*
X154352380Y-99333333D02*
X155066666Y-99333333D01*
X155209523Y-99380952D01*
X155304761Y-99476190D01*
X155352380Y-99619047D01*
X155352380Y-99714285D01*
X154447619Y-98904761D02*
X154400000Y-98857142D01*
X154352380Y-98761904D01*
X154352380Y-98523809D01*
X154400000Y-98428571D01*
X154447619Y-98380952D01*
X154542857Y-98333333D01*
X154638095Y-98333333D01*
X154780952Y-98380952D01*
X155352380Y-98952380D01*
X155352380Y-98333333D01*
X142761904Y-73952380D02*
X142761904Y-72952380D01*
X143000000Y-72952380D01*
X143142857Y-73000000D01*
X143238095Y-73095238D01*
X143285714Y-73190476D01*
X143333333Y-73380952D01*
X143333333Y-73523809D01*
X143285714Y-73714285D01*
X143238095Y-73809523D01*
X143142857Y-73904761D01*
X143000000Y-73952380D01*
X142761904Y-73952380D01*
X144190476Y-73285714D02*
X144190476Y-73952380D01*
X143952380Y-72904761D02*
X143714285Y-73619047D01*
X144333333Y-73619047D01*
X145602380Y-132738095D02*
X144602380Y-132738095D01*
X144602380Y-132500000D01*
X144650000Y-132357142D01*
X144745238Y-132261904D01*
X144840476Y-132214285D01*
X145030952Y-132166666D01*
X145173809Y-132166666D01*
X145364285Y-132214285D01*
X145459523Y-132261904D01*
X145554761Y-132357142D01*
X145602380Y-132500000D01*
X145602380Y-132738095D01*
X144602380Y-131833333D02*
X144602380Y-131214285D01*
X144983333Y-131547619D01*
X144983333Y-131404761D01*
X145030952Y-131309523D01*
X145078571Y-131261904D01*
X145173809Y-131214285D01*
X145411904Y-131214285D01*
X145507142Y-131261904D01*
X145554761Y-131309523D01*
X145602380Y-131404761D01*
X145602380Y-131690476D01*
X145554761Y-131785714D01*
X145507142Y-131833333D01*
X144833333Y-110072380D02*
X144500000Y-109596190D01*
X144261904Y-110072380D02*
X144261904Y-109072380D01*
X144642857Y-109072380D01*
X144738095Y-109120000D01*
X144785714Y-109167619D01*
X144833333Y-109262857D01*
X144833333Y-109405714D01*
X144785714Y-109500952D01*
X144738095Y-109548571D01*
X144642857Y-109596190D01*
X144261904Y-109596190D01*
X145785714Y-110072380D02*
X145214285Y-110072380D01*
X145500000Y-110072380D02*
X145500000Y-109072380D01*
X145404761Y-109215238D01*
X145309523Y-109310476D01*
X145214285Y-109358095D01*
X145761904Y-60602380D02*
X145761904Y-59602380D01*
X146000000Y-59602380D01*
X146142857Y-59650000D01*
X146238095Y-59745238D01*
X146285714Y-59840476D01*
X146333333Y-60030952D01*
X146333333Y-60173809D01*
X146285714Y-60364285D01*
X146238095Y-60459523D01*
X146142857Y-60554761D01*
X146000000Y-60602380D01*
X145761904Y-60602380D01*
X146714285Y-59697619D02*
X146761904Y-59650000D01*
X146857142Y-59602380D01*
X147095238Y-59602380D01*
X147190476Y-59650000D01*
X147238095Y-59697619D01*
X147285714Y-59792857D01*
X147285714Y-59888095D01*
X147238095Y-60030952D01*
X146666666Y-60602380D01*
X147285714Y-60602380D01*
X146261904Y-140302380D02*
X146261904Y-139302380D01*
X146500000Y-139302380D01*
X146642857Y-139350000D01*
X146738095Y-139445238D01*
X146785714Y-139540476D01*
X146833333Y-139730952D01*
X146833333Y-139873809D01*
X146785714Y-140064285D01*
X146738095Y-140159523D01*
X146642857Y-140254761D01*
X146500000Y-140302380D01*
X146261904Y-140302380D01*
X147785714Y-140302380D02*
X147214285Y-140302380D01*
X147500000Y-140302380D02*
X147500000Y-139302380D01*
X147404761Y-139445238D01*
X147309523Y-139540476D01*
X147214285Y-139588095D01*
X132333333Y-59107142D02*
X132285714Y-59154761D01*
X132142857Y-59202380D01*
X132047619Y-59202380D01*
X131904761Y-59154761D01*
X131809523Y-59059523D01*
X131761904Y-58964285D01*
X131714285Y-58773809D01*
X131714285Y-58630952D01*
X131761904Y-58440476D01*
X131809523Y-58345238D01*
X131904761Y-58250000D01*
X132047619Y-58202380D01*
X132142857Y-58202380D01*
X132285714Y-58250000D01*
X132333333Y-58297619D01*
X133190476Y-58202380D02*
X133000000Y-58202380D01*
X132904761Y-58250000D01*
X132857142Y-58297619D01*
X132761904Y-58440476D01*
X132714285Y-58630952D01*
X132714285Y-59011904D01*
X132761904Y-59107142D01*
X132809523Y-59154761D01*
X132904761Y-59202380D01*
X133095238Y-59202380D01*
X133190476Y-59154761D01*
X133238095Y-59107142D01*
X133285714Y-59011904D01*
X133285714Y-58773809D01*
X133238095Y-58678571D01*
X133190476Y-58630952D01*
X133095238Y-58583333D01*
X132904761Y-58583333D01*
X132809523Y-58630952D01*
X132761904Y-58678571D01*
X132714285Y-58773809D01*
X132333333Y-122607142D02*
X132285714Y-122654761D01*
X132142857Y-122702380D01*
X132047619Y-122702380D01*
X131904761Y-122654761D01*
X131809523Y-122559523D01*
X131761904Y-122464285D01*
X131714285Y-122273809D01*
X131714285Y-122130952D01*
X131761904Y-121940476D01*
X131809523Y-121845238D01*
X131904761Y-121750000D01*
X132047619Y-121702380D01*
X132142857Y-121702380D01*
X132285714Y-121750000D01*
X132333333Y-121797619D01*
X133238095Y-121702380D02*
X132761904Y-121702380D01*
X132714285Y-122178571D01*
X132761904Y-122130952D01*
X132857142Y-122083333D01*
X133095238Y-122083333D01*
X133190476Y-122130952D01*
X133238095Y-122178571D01*
X133285714Y-122273809D01*
X133285714Y-122511904D01*
X133238095Y-122607142D01*
X133190476Y-122654761D01*
X133095238Y-122702380D01*
X132857142Y-122702380D01*
X132761904Y-122654761D01*
X132714285Y-122607142D01*
X96202380Y-97166666D02*
X96202380Y-97642857D01*
X95202380Y-97642857D01*
X96202380Y-96309523D02*
X96202380Y-96880952D01*
X96202380Y-96595238D02*
X95202380Y-96595238D01*
X95345238Y-96690476D01*
X95440476Y-96785714D01*
X95488095Y-96880952D01*
D16*
X84695892Y-92102956D02*
X85506640Y-92102956D01*
X85602022Y-92055265D01*
X85649713Y-92007574D01*
X85697404Y-91912192D01*
X85697404Y-91721428D01*
X85649713Y-91626046D01*
X85602022Y-91578355D01*
X85506640Y-91530664D01*
X84695892Y-91530664D01*
X85697404Y-90529152D02*
X85697404Y-91101444D01*
X85697404Y-90815298D02*
X84695892Y-90815298D01*
X84838966Y-90910680D01*
X84934348Y-91006062D01*
X84982039Y-91101444D01*
D10*
X96604761Y-103952380D02*
X96271428Y-103476190D01*
X96033333Y-103952380D02*
X96033333Y-102952380D01*
X96414285Y-102952380D01*
X96509523Y-103000000D01*
X96557142Y-103047619D01*
X96604761Y-103142857D01*
X96604761Y-103285714D01*
X96557142Y-103380952D01*
X96509523Y-103428571D01*
X96414285Y-103476190D01*
X96033333Y-103476190D01*
X96890476Y-102952380D02*
X97223809Y-103952380D01*
X97557142Y-102952380D01*
X98414285Y-103952380D02*
X97842857Y-103952380D01*
X98128571Y-103952380D02*
X98128571Y-102952380D01*
X98033333Y-103095238D01*
X97938095Y-103190476D01*
X97842857Y-103238095D01*
X106778571Y-128333333D02*
X106778571Y-128666666D01*
X107302380Y-128666666D02*
X106302380Y-128666666D01*
X106302380Y-128190476D01*
X107302380Y-127285714D02*
X107302380Y-127857142D01*
X107302380Y-127571428D02*
X106302380Y-127571428D01*
X106445238Y-127666666D01*
X106540476Y-127761904D01*
X106588095Y-127857142D01*
X97033333Y-122557142D02*
X96985714Y-122604761D01*
X96842857Y-122652380D01*
X96747619Y-122652380D01*
X96604761Y-122604761D01*
X96509523Y-122509523D01*
X96461904Y-122414285D01*
X96414285Y-122223809D01*
X96414285Y-122080952D01*
X96461904Y-121890476D01*
X96509523Y-121795238D01*
X96604761Y-121700000D01*
X96747619Y-121652380D01*
X96842857Y-121652380D01*
X96985714Y-121700000D01*
X97033333Y-121747619D01*
X97890476Y-121985714D02*
X97890476Y-122652380D01*
X97652380Y-121604761D02*
X97414285Y-122319047D01*
X98033333Y-122319047D01*
X116637142Y-70166666D02*
X116684761Y-70214285D01*
X116732380Y-70357142D01*
X116732380Y-70452380D01*
X116684761Y-70595238D01*
X116589523Y-70690476D01*
X116494285Y-70738095D01*
X116303809Y-70785714D01*
X116160952Y-70785714D01*
X115970476Y-70738095D01*
X115875238Y-70690476D01*
X115780000Y-70595238D01*
X115732380Y-70452380D01*
X115732380Y-70357142D01*
X115780000Y-70214285D01*
X115827619Y-70166666D01*
X115732380Y-69833333D02*
X115732380Y-69214285D01*
X116113333Y-69547619D01*
X116113333Y-69404761D01*
X116160952Y-69309523D01*
X116208571Y-69261904D01*
X116303809Y-69214285D01*
X116541904Y-69214285D01*
X116637142Y-69261904D01*
X116684761Y-69309523D01*
X116732380Y-69404761D01*
X116732380Y-69690476D01*
X116684761Y-69785714D01*
X116637142Y-69833333D01*
X112577142Y-90666666D02*
X112624761Y-90714285D01*
X112672380Y-90857142D01*
X112672380Y-90952380D01*
X112624761Y-91095238D01*
X112529523Y-91190476D01*
X112434285Y-91238095D01*
X112243809Y-91285714D01*
X112100952Y-91285714D01*
X111910476Y-91238095D01*
X111815238Y-91190476D01*
X111720000Y-91095238D01*
X111672380Y-90952380D01*
X111672380Y-90857142D01*
X111720000Y-90714285D01*
X111767619Y-90666666D01*
X111767619Y-90285714D02*
X111720000Y-90238095D01*
X111672380Y-90142857D01*
X111672380Y-89904761D01*
X111720000Y-89809523D01*
X111767619Y-89761904D01*
X111862857Y-89714285D01*
X111958095Y-89714285D01*
X112100952Y-89761904D01*
X112672380Y-90333333D01*
X112672380Y-89714285D01*
X91633333Y-104857142D02*
X91585714Y-104904761D01*
X91442857Y-104952380D01*
X91347619Y-104952380D01*
X91204761Y-104904761D01*
X91109523Y-104809523D01*
X91061904Y-104714285D01*
X91014285Y-104523809D01*
X91014285Y-104380952D01*
X91061904Y-104190476D01*
X91109523Y-104095238D01*
X91204761Y-104000000D01*
X91347619Y-103952380D01*
X91442857Y-103952380D01*
X91585714Y-104000000D01*
X91633333Y-104047619D01*
X92585714Y-104952380D02*
X92014285Y-104952380D01*
X92300000Y-104952380D02*
X92300000Y-103952380D01*
X92204761Y-104095238D01*
X92109523Y-104190476D01*
X92014285Y-104238095D01*
D15*
X137884499Y-97510215D02*
X137461165Y-97510215D01*
X137461165Y-98175453D02*
X137461165Y-96905453D01*
X138065927Y-96905453D01*
X139154499Y-98175453D02*
X138549737Y-98175453D01*
X138549737Y-96905453D01*
X140122118Y-97328787D02*
X140122118Y-98175453D01*
X139819737Y-96844977D02*
X139517356Y-97752120D01*
X140303546Y-97752120D01*
D10*
X134861904Y-76328571D02*
X134528571Y-76328571D01*
X134528571Y-76852380D02*
X134528571Y-75852380D01*
X135004761Y-75852380D01*
X135861904Y-76852380D02*
X135385714Y-76852380D01*
X135385714Y-75852380D01*
X136671428Y-75852380D02*
X136195238Y-75852380D01*
X136147619Y-76328571D01*
X136195238Y-76280952D01*
X136290476Y-76233333D01*
X136528571Y-76233333D01*
X136623809Y-76280952D01*
X136671428Y-76328571D01*
X136719047Y-76423809D01*
X136719047Y-76661904D01*
X136671428Y-76757142D01*
X136623809Y-76804761D01*
X136528571Y-76852380D01*
X136290476Y-76852380D01*
X136195238Y-76804761D01*
X136147619Y-76757142D01*
X115166666Y-103452380D02*
X115166666Y-104166666D01*
X115119047Y-104309523D01*
X115023809Y-104404761D01*
X114880952Y-104452380D01*
X114785714Y-104452380D01*
X115642857Y-104452380D02*
X115642857Y-103452380D01*
X116023809Y-103452380D01*
X116119047Y-103500000D01*
X116166666Y-103547619D01*
X116214285Y-103642857D01*
X116214285Y-103785714D01*
X116166666Y-103880952D01*
X116119047Y-103928571D01*
X116023809Y-103976190D01*
X115642857Y-103976190D01*
X117071428Y-103785714D02*
X117071428Y-104452380D01*
X116833333Y-103404761D02*
X116595238Y-104119047D01*
X117214285Y-104119047D01*
X121166666Y-93452380D02*
X121166666Y-94166666D01*
X121119047Y-94309523D01*
X121023809Y-94404761D01*
X120880952Y-94452380D01*
X120785714Y-94452380D01*
X121642857Y-94452380D02*
X121642857Y-93452380D01*
X122023809Y-93452380D01*
X122119047Y-93500000D01*
X122166666Y-93547619D01*
X122214285Y-93642857D01*
X122214285Y-93785714D01*
X122166666Y-93880952D01*
X122119047Y-93928571D01*
X122023809Y-93976190D01*
X121642857Y-93976190D01*
X122547619Y-93452380D02*
X123166666Y-93452380D01*
X122833333Y-93833333D01*
X122976190Y-93833333D01*
X123071428Y-93880952D01*
X123119047Y-93928571D01*
X123166666Y-94023809D01*
X123166666Y-94261904D01*
X123119047Y-94357142D01*
X123071428Y-94404761D01*
X122976190Y-94452380D01*
X122690476Y-94452380D01*
X122595238Y-94404761D01*
X122547619Y-94357142D01*
X122166666Y-84452380D02*
X122166666Y-85166666D01*
X122119047Y-85309523D01*
X122023809Y-85404761D01*
X121880952Y-85452380D01*
X121785714Y-85452380D01*
X122642857Y-85452380D02*
X122642857Y-84452380D01*
X123023809Y-84452380D01*
X123119047Y-84500000D01*
X123166666Y-84547619D01*
X123214285Y-84642857D01*
X123214285Y-84785714D01*
X123166666Y-84880952D01*
X123119047Y-84928571D01*
X123023809Y-84976190D01*
X122642857Y-84976190D01*
X123595238Y-84547619D02*
X123642857Y-84500000D01*
X123738095Y-84452380D01*
X123976190Y-84452380D01*
X124071428Y-84500000D01*
X124119047Y-84547619D01*
X124166666Y-84642857D01*
X124166666Y-84738095D01*
X124119047Y-84880952D01*
X123547619Y-85452380D01*
X124166666Y-85452380D01*
X118166666Y-72652380D02*
X118166666Y-73366666D01*
X118119047Y-73509523D01*
X118023809Y-73604761D01*
X117880952Y-73652380D01*
X117785714Y-73652380D01*
X118642857Y-73652380D02*
X118642857Y-72652380D01*
X119023809Y-72652380D01*
X119119047Y-72700000D01*
X119166666Y-72747619D01*
X119214285Y-72842857D01*
X119214285Y-72985714D01*
X119166666Y-73080952D01*
X119119047Y-73128571D01*
X119023809Y-73176190D01*
X118642857Y-73176190D01*
X120166666Y-73652380D02*
X119595238Y-73652380D01*
X119880952Y-73652380D02*
X119880952Y-72652380D01*
X119785714Y-72795238D01*
X119690476Y-72890476D01*
X119595238Y-72938095D01*
X114261904Y-94928571D02*
X113928571Y-94928571D01*
X113928571Y-95452380D02*
X113928571Y-94452380D01*
X114404761Y-94452380D01*
X115261904Y-95452380D02*
X114785714Y-95452380D01*
X114785714Y-94452380D01*
X115500000Y-94452380D02*
X116119047Y-94452380D01*
X115785714Y-94833333D01*
X115928571Y-94833333D01*
X116023809Y-94880952D01*
X116071428Y-94928571D01*
X116119047Y-95023809D01*
X116119047Y-95261904D01*
X116071428Y-95357142D01*
X116023809Y-95404761D01*
X115928571Y-95452380D01*
X115642857Y-95452380D01*
X115547619Y-95404761D01*
X115500000Y-95357142D01*
X114261904Y-75928571D02*
X113928571Y-75928571D01*
X113928571Y-76452380D02*
X113928571Y-75452380D01*
X114404761Y-75452380D01*
X115261904Y-76452380D02*
X114785714Y-76452380D01*
X114785714Y-75452380D01*
X115547619Y-75547619D02*
X115595238Y-75500000D01*
X115690476Y-75452380D01*
X115928571Y-75452380D01*
X116023809Y-75500000D01*
X116071428Y-75547619D01*
X116119047Y-75642857D01*
X116119047Y-75738095D01*
X116071428Y-75880952D01*
X115500000Y-76452380D01*
X116119047Y-76452380D01*
M02*
