G04 #@! TF.GenerationSoftware,KiCad,Pcbnew,(5.1.5-0)*
G04 #@! TF.CreationDate,2021-01-10T16:54:21-07:00*
G04 #@! TF.ProjectId,power_cui,706f7765-725f-4637-9569-2e6b69636164,rev?*
G04 #@! TF.SameCoordinates,Original*
G04 #@! TF.FileFunction,Copper,L1,Top*
G04 #@! TF.FilePolarity,Positive*
%FSLAX46Y46*%
G04 Gerber Fmt 4.6, Leading zero omitted, Abs format (unit mm)*
G04 Created by KiCad (PCBNEW (5.1.5-0)) date 2021-01-10 16:54:21*
%MOMM*%
%LPD*%
G04 APERTURE LIST*
%ADD10O,2.000000X4.000000*%
%ADD11O,4.000000X2.000000*%
%ADD12O,1.750000X1.200000*%
%ADD13C,0.100000*%
%ADD14R,0.900000X0.800000*%
%ADD15R,1.400000X1.400000*%
%ADD16C,1.400000*%
%ADD17R,0.600000X0.450000*%
%ADD18R,0.450000X0.600000*%
%ADD19C,1.600000*%
%ADD20R,2.250000X2.250000*%
%ADD21C,2.250000*%
%ADD22C,2.000000*%
%ADD23R,3.400000X2.300000*%
%ADD24R,7.900000X2.300000*%
%ADD25R,3.800000X2.500000*%
%ADD26R,4.000000X1.200000*%
%ADD27C,0.800000*%
%ADD28C,1.000000*%
%ADD29C,0.250000*%
%ADD30C,0.254000*%
G04 APERTURE END LIST*
D10*
X100000000Y-129000000D03*
D11*
X97000000Y-133800000D03*
D10*
X93900000Y-129000000D03*
D12*
X151000000Y-90000000D03*
G04 #@! TA.AperFunction,ComponentPad*
D13*
G36*
X151649505Y-91401204D02*
G01*
X151673773Y-91404804D01*
X151697572Y-91410765D01*
X151720671Y-91419030D01*
X151742850Y-91429520D01*
X151763893Y-91442132D01*
X151783599Y-91456747D01*
X151801777Y-91473223D01*
X151818253Y-91491401D01*
X151832868Y-91511107D01*
X151845480Y-91532150D01*
X151855970Y-91554329D01*
X151864235Y-91577428D01*
X151870196Y-91601227D01*
X151873796Y-91625495D01*
X151875000Y-91649999D01*
X151875000Y-92350001D01*
X151873796Y-92374505D01*
X151870196Y-92398773D01*
X151864235Y-92422572D01*
X151855970Y-92445671D01*
X151845480Y-92467850D01*
X151832868Y-92488893D01*
X151818253Y-92508599D01*
X151801777Y-92526777D01*
X151783599Y-92543253D01*
X151763893Y-92557868D01*
X151742850Y-92570480D01*
X151720671Y-92580970D01*
X151697572Y-92589235D01*
X151673773Y-92595196D01*
X151649505Y-92598796D01*
X151625001Y-92600000D01*
X150374999Y-92600000D01*
X150350495Y-92598796D01*
X150326227Y-92595196D01*
X150302428Y-92589235D01*
X150279329Y-92580970D01*
X150257150Y-92570480D01*
X150236107Y-92557868D01*
X150216401Y-92543253D01*
X150198223Y-92526777D01*
X150181747Y-92508599D01*
X150167132Y-92488893D01*
X150154520Y-92467850D01*
X150144030Y-92445671D01*
X150135765Y-92422572D01*
X150129804Y-92398773D01*
X150126204Y-92374505D01*
X150125000Y-92350001D01*
X150125000Y-91649999D01*
X150126204Y-91625495D01*
X150129804Y-91601227D01*
X150135765Y-91577428D01*
X150144030Y-91554329D01*
X150154520Y-91532150D01*
X150167132Y-91511107D01*
X150181747Y-91491401D01*
X150198223Y-91473223D01*
X150216401Y-91456747D01*
X150236107Y-91442132D01*
X150257150Y-91429520D01*
X150279329Y-91419030D01*
X150302428Y-91410765D01*
X150326227Y-91404804D01*
X150350495Y-91401204D01*
X150374999Y-91400000D01*
X151625001Y-91400000D01*
X151649505Y-91401204D01*
G37*
G04 #@! TD.AperFunction*
G04 #@! TA.AperFunction,SMDPad,CuDef*
G36*
X129974504Y-88676204D02*
G01*
X129998773Y-88679804D01*
X130022571Y-88685765D01*
X130045671Y-88694030D01*
X130067849Y-88704520D01*
X130088893Y-88717133D01*
X130108598Y-88731747D01*
X130126777Y-88748223D01*
X130143253Y-88766402D01*
X130157867Y-88786107D01*
X130170480Y-88807151D01*
X130180970Y-88829329D01*
X130189235Y-88852429D01*
X130195196Y-88876227D01*
X130198796Y-88900496D01*
X130200000Y-88925000D01*
X130200000Y-91075000D01*
X130198796Y-91099504D01*
X130195196Y-91123773D01*
X130189235Y-91147571D01*
X130180970Y-91170671D01*
X130170480Y-91192849D01*
X130157867Y-91213893D01*
X130143253Y-91233598D01*
X130126777Y-91251777D01*
X130108598Y-91268253D01*
X130088893Y-91282867D01*
X130067849Y-91295480D01*
X130045671Y-91305970D01*
X130022571Y-91314235D01*
X129998773Y-91320196D01*
X129974504Y-91323796D01*
X129950000Y-91325000D01*
X129025000Y-91325000D01*
X129000496Y-91323796D01*
X128976227Y-91320196D01*
X128952429Y-91314235D01*
X128929329Y-91305970D01*
X128907151Y-91295480D01*
X128886107Y-91282867D01*
X128866402Y-91268253D01*
X128848223Y-91251777D01*
X128831747Y-91233598D01*
X128817133Y-91213893D01*
X128804520Y-91192849D01*
X128794030Y-91170671D01*
X128785765Y-91147571D01*
X128779804Y-91123773D01*
X128776204Y-91099504D01*
X128775000Y-91075000D01*
X128775000Y-88925000D01*
X128776204Y-88900496D01*
X128779804Y-88876227D01*
X128785765Y-88852429D01*
X128794030Y-88829329D01*
X128804520Y-88807151D01*
X128817133Y-88786107D01*
X128831747Y-88766402D01*
X128848223Y-88748223D01*
X128866402Y-88731747D01*
X128886107Y-88717133D01*
X128907151Y-88704520D01*
X128929329Y-88694030D01*
X128952429Y-88685765D01*
X128976227Y-88679804D01*
X129000496Y-88676204D01*
X129025000Y-88675000D01*
X129950000Y-88675000D01*
X129974504Y-88676204D01*
G37*
G04 #@! TD.AperFunction*
G04 #@! TA.AperFunction,SMDPad,CuDef*
G36*
X126999504Y-88676204D02*
G01*
X127023773Y-88679804D01*
X127047571Y-88685765D01*
X127070671Y-88694030D01*
X127092849Y-88704520D01*
X127113893Y-88717133D01*
X127133598Y-88731747D01*
X127151777Y-88748223D01*
X127168253Y-88766402D01*
X127182867Y-88786107D01*
X127195480Y-88807151D01*
X127205970Y-88829329D01*
X127214235Y-88852429D01*
X127220196Y-88876227D01*
X127223796Y-88900496D01*
X127225000Y-88925000D01*
X127225000Y-91075000D01*
X127223796Y-91099504D01*
X127220196Y-91123773D01*
X127214235Y-91147571D01*
X127205970Y-91170671D01*
X127195480Y-91192849D01*
X127182867Y-91213893D01*
X127168253Y-91233598D01*
X127151777Y-91251777D01*
X127133598Y-91268253D01*
X127113893Y-91282867D01*
X127092849Y-91295480D01*
X127070671Y-91305970D01*
X127047571Y-91314235D01*
X127023773Y-91320196D01*
X126999504Y-91323796D01*
X126975000Y-91325000D01*
X126050000Y-91325000D01*
X126025496Y-91323796D01*
X126001227Y-91320196D01*
X125977429Y-91314235D01*
X125954329Y-91305970D01*
X125932151Y-91295480D01*
X125911107Y-91282867D01*
X125891402Y-91268253D01*
X125873223Y-91251777D01*
X125856747Y-91233598D01*
X125842133Y-91213893D01*
X125829520Y-91192849D01*
X125819030Y-91170671D01*
X125810765Y-91147571D01*
X125804804Y-91123773D01*
X125801204Y-91099504D01*
X125800000Y-91075000D01*
X125800000Y-88925000D01*
X125801204Y-88900496D01*
X125804804Y-88876227D01*
X125810765Y-88852429D01*
X125819030Y-88829329D01*
X125829520Y-88807151D01*
X125842133Y-88786107D01*
X125856747Y-88766402D01*
X125873223Y-88748223D01*
X125891402Y-88731747D01*
X125911107Y-88717133D01*
X125932151Y-88704520D01*
X125954329Y-88694030D01*
X125977429Y-88685765D01*
X126001227Y-88679804D01*
X126025496Y-88676204D01*
X126050000Y-88675000D01*
X126975000Y-88675000D01*
X126999504Y-88676204D01*
G37*
G04 #@! TD.AperFunction*
G04 #@! TA.AperFunction,SMDPad,CuDef*
G36*
X146949505Y-70226204D02*
G01*
X146973773Y-70229804D01*
X146997572Y-70235765D01*
X147020671Y-70244030D01*
X147042850Y-70254520D01*
X147063893Y-70267132D01*
X147083599Y-70281747D01*
X147101777Y-70298223D01*
X147118253Y-70316401D01*
X147132868Y-70336107D01*
X147145480Y-70357150D01*
X147155970Y-70379329D01*
X147164235Y-70402428D01*
X147170196Y-70426227D01*
X147173796Y-70450495D01*
X147175000Y-70474999D01*
X147175000Y-71500001D01*
X147173796Y-71524505D01*
X147170196Y-71548773D01*
X147164235Y-71572572D01*
X147155970Y-71595671D01*
X147145480Y-71617850D01*
X147132868Y-71638893D01*
X147118253Y-71658599D01*
X147101777Y-71676777D01*
X147083599Y-71693253D01*
X147063893Y-71707868D01*
X147042850Y-71720480D01*
X147020671Y-71730970D01*
X146997572Y-71739235D01*
X146973773Y-71745196D01*
X146949505Y-71748796D01*
X146925001Y-71750000D01*
X144074999Y-71750000D01*
X144050495Y-71748796D01*
X144026227Y-71745196D01*
X144002428Y-71739235D01*
X143979329Y-71730970D01*
X143957150Y-71720480D01*
X143936107Y-71707868D01*
X143916401Y-71693253D01*
X143898223Y-71676777D01*
X143881747Y-71658599D01*
X143867132Y-71638893D01*
X143854520Y-71617850D01*
X143844030Y-71595671D01*
X143835765Y-71572572D01*
X143829804Y-71548773D01*
X143826204Y-71524505D01*
X143825000Y-71500001D01*
X143825000Y-70474999D01*
X143826204Y-70450495D01*
X143829804Y-70426227D01*
X143835765Y-70402428D01*
X143844030Y-70379329D01*
X143854520Y-70357150D01*
X143867132Y-70336107D01*
X143881747Y-70316401D01*
X143898223Y-70298223D01*
X143916401Y-70281747D01*
X143936107Y-70267132D01*
X143957150Y-70254520D01*
X143979329Y-70244030D01*
X144002428Y-70235765D01*
X144026227Y-70229804D01*
X144050495Y-70226204D01*
X144074999Y-70225000D01*
X146925001Y-70225000D01*
X146949505Y-70226204D01*
G37*
G04 #@! TD.AperFunction*
G04 #@! TA.AperFunction,SMDPad,CuDef*
G36*
X146949505Y-64251204D02*
G01*
X146973773Y-64254804D01*
X146997572Y-64260765D01*
X147020671Y-64269030D01*
X147042850Y-64279520D01*
X147063893Y-64292132D01*
X147083599Y-64306747D01*
X147101777Y-64323223D01*
X147118253Y-64341401D01*
X147132868Y-64361107D01*
X147145480Y-64382150D01*
X147155970Y-64404329D01*
X147164235Y-64427428D01*
X147170196Y-64451227D01*
X147173796Y-64475495D01*
X147175000Y-64499999D01*
X147175000Y-65525001D01*
X147173796Y-65549505D01*
X147170196Y-65573773D01*
X147164235Y-65597572D01*
X147155970Y-65620671D01*
X147145480Y-65642850D01*
X147132868Y-65663893D01*
X147118253Y-65683599D01*
X147101777Y-65701777D01*
X147083599Y-65718253D01*
X147063893Y-65732868D01*
X147042850Y-65745480D01*
X147020671Y-65755970D01*
X146997572Y-65764235D01*
X146973773Y-65770196D01*
X146949505Y-65773796D01*
X146925001Y-65775000D01*
X144074999Y-65775000D01*
X144050495Y-65773796D01*
X144026227Y-65770196D01*
X144002428Y-65764235D01*
X143979329Y-65755970D01*
X143957150Y-65745480D01*
X143936107Y-65732868D01*
X143916401Y-65718253D01*
X143898223Y-65701777D01*
X143881747Y-65683599D01*
X143867132Y-65663893D01*
X143854520Y-65642850D01*
X143844030Y-65620671D01*
X143835765Y-65597572D01*
X143829804Y-65573773D01*
X143826204Y-65549505D01*
X143825000Y-65525001D01*
X143825000Y-64499999D01*
X143826204Y-64475495D01*
X143829804Y-64451227D01*
X143835765Y-64427428D01*
X143844030Y-64404329D01*
X143854520Y-64382150D01*
X143867132Y-64361107D01*
X143881747Y-64341401D01*
X143898223Y-64323223D01*
X143916401Y-64306747D01*
X143936107Y-64292132D01*
X143957150Y-64279520D01*
X143979329Y-64269030D01*
X144002428Y-64260765D01*
X144026227Y-64254804D01*
X144050495Y-64251204D01*
X144074999Y-64250000D01*
X146925001Y-64250000D01*
X146949505Y-64251204D01*
G37*
G04 #@! TD.AperFunction*
G04 #@! TA.AperFunction,SMDPad,CuDef*
G36*
X146260779Y-91476144D02*
G01*
X146283834Y-91479563D01*
X146306443Y-91485227D01*
X146328387Y-91493079D01*
X146349457Y-91503044D01*
X146369448Y-91515026D01*
X146388168Y-91528910D01*
X146405438Y-91544562D01*
X146421090Y-91561832D01*
X146434974Y-91580552D01*
X146446956Y-91600543D01*
X146456921Y-91621613D01*
X146464773Y-91643557D01*
X146470437Y-91666166D01*
X146473856Y-91689221D01*
X146475000Y-91712500D01*
X146475000Y-92287500D01*
X146473856Y-92310779D01*
X146470437Y-92333834D01*
X146464773Y-92356443D01*
X146456921Y-92378387D01*
X146446956Y-92399457D01*
X146434974Y-92419448D01*
X146421090Y-92438168D01*
X146405438Y-92455438D01*
X146388168Y-92471090D01*
X146369448Y-92484974D01*
X146349457Y-92496956D01*
X146328387Y-92506921D01*
X146306443Y-92514773D01*
X146283834Y-92520437D01*
X146260779Y-92523856D01*
X146237500Y-92525000D01*
X145762500Y-92525000D01*
X145739221Y-92523856D01*
X145716166Y-92520437D01*
X145693557Y-92514773D01*
X145671613Y-92506921D01*
X145650543Y-92496956D01*
X145630552Y-92484974D01*
X145611832Y-92471090D01*
X145594562Y-92455438D01*
X145578910Y-92438168D01*
X145565026Y-92419448D01*
X145553044Y-92399457D01*
X145543079Y-92378387D01*
X145535227Y-92356443D01*
X145529563Y-92333834D01*
X145526144Y-92310779D01*
X145525000Y-92287500D01*
X145525000Y-91712500D01*
X145526144Y-91689221D01*
X145529563Y-91666166D01*
X145535227Y-91643557D01*
X145543079Y-91621613D01*
X145553044Y-91600543D01*
X145565026Y-91580552D01*
X145578910Y-91561832D01*
X145594562Y-91544562D01*
X145611832Y-91528910D01*
X145630552Y-91515026D01*
X145650543Y-91503044D01*
X145671613Y-91493079D01*
X145693557Y-91485227D01*
X145716166Y-91479563D01*
X145739221Y-91476144D01*
X145762500Y-91475000D01*
X146237500Y-91475000D01*
X146260779Y-91476144D01*
G37*
G04 #@! TD.AperFunction*
G04 #@! TA.AperFunction,SMDPad,CuDef*
G36*
X146260779Y-89726144D02*
G01*
X146283834Y-89729563D01*
X146306443Y-89735227D01*
X146328387Y-89743079D01*
X146349457Y-89753044D01*
X146369448Y-89765026D01*
X146388168Y-89778910D01*
X146405438Y-89794562D01*
X146421090Y-89811832D01*
X146434974Y-89830552D01*
X146446956Y-89850543D01*
X146456921Y-89871613D01*
X146464773Y-89893557D01*
X146470437Y-89916166D01*
X146473856Y-89939221D01*
X146475000Y-89962500D01*
X146475000Y-90537500D01*
X146473856Y-90560779D01*
X146470437Y-90583834D01*
X146464773Y-90606443D01*
X146456921Y-90628387D01*
X146446956Y-90649457D01*
X146434974Y-90669448D01*
X146421090Y-90688168D01*
X146405438Y-90705438D01*
X146388168Y-90721090D01*
X146369448Y-90734974D01*
X146349457Y-90746956D01*
X146328387Y-90756921D01*
X146306443Y-90764773D01*
X146283834Y-90770437D01*
X146260779Y-90773856D01*
X146237500Y-90775000D01*
X145762500Y-90775000D01*
X145739221Y-90773856D01*
X145716166Y-90770437D01*
X145693557Y-90764773D01*
X145671613Y-90756921D01*
X145650543Y-90746956D01*
X145630552Y-90734974D01*
X145611832Y-90721090D01*
X145594562Y-90705438D01*
X145578910Y-90688168D01*
X145565026Y-90669448D01*
X145553044Y-90649457D01*
X145543079Y-90628387D01*
X145535227Y-90606443D01*
X145529563Y-90583834D01*
X145526144Y-90560779D01*
X145525000Y-90537500D01*
X145525000Y-89962500D01*
X145526144Y-89939221D01*
X145529563Y-89916166D01*
X145535227Y-89893557D01*
X145543079Y-89871613D01*
X145553044Y-89850543D01*
X145565026Y-89830552D01*
X145578910Y-89811832D01*
X145594562Y-89794562D01*
X145611832Y-89778910D01*
X145630552Y-89765026D01*
X145650543Y-89753044D01*
X145671613Y-89743079D01*
X145693557Y-89735227D01*
X145716166Y-89729563D01*
X145739221Y-89726144D01*
X145762500Y-89725000D01*
X146237500Y-89725000D01*
X146260779Y-89726144D01*
G37*
G04 #@! TD.AperFunction*
D14*
X152000000Y-84000000D03*
X154000000Y-83050000D03*
X154000000Y-84950000D03*
X153000000Y-106000000D03*
X151000000Y-106950000D03*
X151000000Y-105050000D03*
D15*
X151000000Y-56000000D03*
D16*
X151000000Y-61080000D03*
X151000000Y-66160000D03*
X151000000Y-71240000D03*
D15*
X152000000Y-143000000D03*
D16*
X152000000Y-137920000D03*
X152000000Y-132840000D03*
X152000000Y-127760000D03*
D12*
X152000000Y-122000000D03*
G04 #@! TA.AperFunction,ComponentPad*
D13*
G36*
X152649505Y-119401204D02*
G01*
X152673773Y-119404804D01*
X152697572Y-119410765D01*
X152720671Y-119419030D01*
X152742850Y-119429520D01*
X152763893Y-119442132D01*
X152783599Y-119456747D01*
X152801777Y-119473223D01*
X152818253Y-119491401D01*
X152832868Y-119511107D01*
X152845480Y-119532150D01*
X152855970Y-119554329D01*
X152864235Y-119577428D01*
X152870196Y-119601227D01*
X152873796Y-119625495D01*
X152875000Y-119649999D01*
X152875000Y-120350001D01*
X152873796Y-120374505D01*
X152870196Y-120398773D01*
X152864235Y-120422572D01*
X152855970Y-120445671D01*
X152845480Y-120467850D01*
X152832868Y-120488893D01*
X152818253Y-120508599D01*
X152801777Y-120526777D01*
X152783599Y-120543253D01*
X152763893Y-120557868D01*
X152742850Y-120570480D01*
X152720671Y-120580970D01*
X152697572Y-120589235D01*
X152673773Y-120595196D01*
X152649505Y-120598796D01*
X152625001Y-120600000D01*
X151374999Y-120600000D01*
X151350495Y-120598796D01*
X151326227Y-120595196D01*
X151302428Y-120589235D01*
X151279329Y-120580970D01*
X151257150Y-120570480D01*
X151236107Y-120557868D01*
X151216401Y-120543253D01*
X151198223Y-120526777D01*
X151181747Y-120508599D01*
X151167132Y-120488893D01*
X151154520Y-120467850D01*
X151144030Y-120445671D01*
X151135765Y-120422572D01*
X151129804Y-120398773D01*
X151126204Y-120374505D01*
X151125000Y-120350001D01*
X151125000Y-119649999D01*
X151126204Y-119625495D01*
X151129804Y-119601227D01*
X151135765Y-119577428D01*
X151144030Y-119554329D01*
X151154520Y-119532150D01*
X151167132Y-119511107D01*
X151181747Y-119491401D01*
X151198223Y-119473223D01*
X151216401Y-119456747D01*
X151236107Y-119442132D01*
X151257150Y-119429520D01*
X151279329Y-119419030D01*
X151302428Y-119410765D01*
X151326227Y-119404804D01*
X151350495Y-119401204D01*
X151374999Y-119400000D01*
X152625001Y-119400000D01*
X152649505Y-119401204D01*
G37*
G04 #@! TD.AperFunction*
D12*
X151000000Y-77000000D03*
G04 #@! TA.AperFunction,ComponentPad*
D13*
G36*
X151649505Y-78401204D02*
G01*
X151673773Y-78404804D01*
X151697572Y-78410765D01*
X151720671Y-78419030D01*
X151742850Y-78429520D01*
X151763893Y-78442132D01*
X151783599Y-78456747D01*
X151801777Y-78473223D01*
X151818253Y-78491401D01*
X151832868Y-78511107D01*
X151845480Y-78532150D01*
X151855970Y-78554329D01*
X151864235Y-78577428D01*
X151870196Y-78601227D01*
X151873796Y-78625495D01*
X151875000Y-78649999D01*
X151875000Y-79350001D01*
X151873796Y-79374505D01*
X151870196Y-79398773D01*
X151864235Y-79422572D01*
X151855970Y-79445671D01*
X151845480Y-79467850D01*
X151832868Y-79488893D01*
X151818253Y-79508599D01*
X151801777Y-79526777D01*
X151783599Y-79543253D01*
X151763893Y-79557868D01*
X151742850Y-79570480D01*
X151720671Y-79580970D01*
X151697572Y-79589235D01*
X151673773Y-79595196D01*
X151649505Y-79598796D01*
X151625001Y-79600000D01*
X150374999Y-79600000D01*
X150350495Y-79598796D01*
X150326227Y-79595196D01*
X150302428Y-79589235D01*
X150279329Y-79580970D01*
X150257150Y-79570480D01*
X150236107Y-79557868D01*
X150216401Y-79543253D01*
X150198223Y-79526777D01*
X150181747Y-79508599D01*
X150167132Y-79488893D01*
X150154520Y-79467850D01*
X150144030Y-79445671D01*
X150135765Y-79422572D01*
X150129804Y-79398773D01*
X150126204Y-79374505D01*
X150125000Y-79350001D01*
X150125000Y-78649999D01*
X150126204Y-78625495D01*
X150129804Y-78601227D01*
X150135765Y-78577428D01*
X150144030Y-78554329D01*
X150154520Y-78532150D01*
X150167132Y-78511107D01*
X150181747Y-78491401D01*
X150198223Y-78473223D01*
X150216401Y-78456747D01*
X150236107Y-78442132D01*
X150257150Y-78429520D01*
X150279329Y-78419030D01*
X150302428Y-78410765D01*
X150326227Y-78404804D01*
X150350495Y-78401204D01*
X150374999Y-78400000D01*
X151625001Y-78400000D01*
X151649505Y-78401204D01*
G37*
G04 #@! TD.AperFunction*
D12*
X152000000Y-114000000D03*
G04 #@! TA.AperFunction,ComponentPad*
D13*
G36*
X152649505Y-111401204D02*
G01*
X152673773Y-111404804D01*
X152697572Y-111410765D01*
X152720671Y-111419030D01*
X152742850Y-111429520D01*
X152763893Y-111442132D01*
X152783599Y-111456747D01*
X152801777Y-111473223D01*
X152818253Y-111491401D01*
X152832868Y-111511107D01*
X152845480Y-111532150D01*
X152855970Y-111554329D01*
X152864235Y-111577428D01*
X152870196Y-111601227D01*
X152873796Y-111625495D01*
X152875000Y-111649999D01*
X152875000Y-112350001D01*
X152873796Y-112374505D01*
X152870196Y-112398773D01*
X152864235Y-112422572D01*
X152855970Y-112445671D01*
X152845480Y-112467850D01*
X152832868Y-112488893D01*
X152818253Y-112508599D01*
X152801777Y-112526777D01*
X152783599Y-112543253D01*
X152763893Y-112557868D01*
X152742850Y-112570480D01*
X152720671Y-112580970D01*
X152697572Y-112589235D01*
X152673773Y-112595196D01*
X152649505Y-112598796D01*
X152625001Y-112600000D01*
X151374999Y-112600000D01*
X151350495Y-112598796D01*
X151326227Y-112595196D01*
X151302428Y-112589235D01*
X151279329Y-112580970D01*
X151257150Y-112570480D01*
X151236107Y-112557868D01*
X151216401Y-112543253D01*
X151198223Y-112526777D01*
X151181747Y-112508599D01*
X151167132Y-112488893D01*
X151154520Y-112467850D01*
X151144030Y-112445671D01*
X151135765Y-112422572D01*
X151129804Y-112398773D01*
X151126204Y-112374505D01*
X151125000Y-112350001D01*
X151125000Y-111649999D01*
X151126204Y-111625495D01*
X151129804Y-111601227D01*
X151135765Y-111577428D01*
X151144030Y-111554329D01*
X151154520Y-111532150D01*
X151167132Y-111511107D01*
X151181747Y-111491401D01*
X151198223Y-111473223D01*
X151216401Y-111456747D01*
X151236107Y-111442132D01*
X151257150Y-111429520D01*
X151279329Y-111419030D01*
X151302428Y-111410765D01*
X151326227Y-111404804D01*
X151350495Y-111401204D01*
X151374999Y-111400000D01*
X152625001Y-111400000D01*
X152649505Y-111401204D01*
G37*
G04 #@! TD.AperFunction*
D12*
X152000000Y-100000000D03*
G04 #@! TA.AperFunction,ComponentPad*
D13*
G36*
X152649505Y-97401204D02*
G01*
X152673773Y-97404804D01*
X152697572Y-97410765D01*
X152720671Y-97419030D01*
X152742850Y-97429520D01*
X152763893Y-97442132D01*
X152783599Y-97456747D01*
X152801777Y-97473223D01*
X152818253Y-97491401D01*
X152832868Y-97511107D01*
X152845480Y-97532150D01*
X152855970Y-97554329D01*
X152864235Y-97577428D01*
X152870196Y-97601227D01*
X152873796Y-97625495D01*
X152875000Y-97649999D01*
X152875000Y-98350001D01*
X152873796Y-98374505D01*
X152870196Y-98398773D01*
X152864235Y-98422572D01*
X152855970Y-98445671D01*
X152845480Y-98467850D01*
X152832868Y-98488893D01*
X152818253Y-98508599D01*
X152801777Y-98526777D01*
X152783599Y-98543253D01*
X152763893Y-98557868D01*
X152742850Y-98570480D01*
X152720671Y-98580970D01*
X152697572Y-98589235D01*
X152673773Y-98595196D01*
X152649505Y-98598796D01*
X152625001Y-98600000D01*
X151374999Y-98600000D01*
X151350495Y-98598796D01*
X151326227Y-98595196D01*
X151302428Y-98589235D01*
X151279329Y-98580970D01*
X151257150Y-98570480D01*
X151236107Y-98557868D01*
X151216401Y-98543253D01*
X151198223Y-98526777D01*
X151181747Y-98508599D01*
X151167132Y-98488893D01*
X151154520Y-98467850D01*
X151144030Y-98445671D01*
X151135765Y-98422572D01*
X151129804Y-98398773D01*
X151126204Y-98374505D01*
X151125000Y-98350001D01*
X151125000Y-97649999D01*
X151126204Y-97625495D01*
X151129804Y-97601227D01*
X151135765Y-97577428D01*
X151144030Y-97554329D01*
X151154520Y-97532150D01*
X151167132Y-97511107D01*
X151181747Y-97491401D01*
X151198223Y-97473223D01*
X151216401Y-97456747D01*
X151236107Y-97442132D01*
X151257150Y-97429520D01*
X151279329Y-97419030D01*
X151302428Y-97410765D01*
X151326227Y-97404804D01*
X151350495Y-97401204D01*
X151374999Y-97400000D01*
X152625001Y-97400000D01*
X152649505Y-97401204D01*
G37*
G04 #@! TD.AperFunction*
D17*
X147550000Y-74000000D03*
X145450000Y-74000000D03*
D18*
X147000000Y-130950000D03*
X147000000Y-133050000D03*
G04 #@! TA.AperFunction,SMDPad,CuDef*
D13*
G36*
X142549505Y-105326204D02*
G01*
X142573773Y-105329804D01*
X142597572Y-105335765D01*
X142620671Y-105344030D01*
X142642850Y-105354520D01*
X142663893Y-105367132D01*
X142683599Y-105381747D01*
X142701777Y-105398223D01*
X142718253Y-105416401D01*
X142732868Y-105436107D01*
X142745480Y-105457150D01*
X142755970Y-105479329D01*
X142764235Y-105502428D01*
X142770196Y-105526227D01*
X142773796Y-105550495D01*
X142775000Y-105574999D01*
X142775000Y-108425001D01*
X142773796Y-108449505D01*
X142770196Y-108473773D01*
X142764235Y-108497572D01*
X142755970Y-108520671D01*
X142745480Y-108542850D01*
X142732868Y-108563893D01*
X142718253Y-108583599D01*
X142701777Y-108601777D01*
X142683599Y-108618253D01*
X142663893Y-108632868D01*
X142642850Y-108645480D01*
X142620671Y-108655970D01*
X142597572Y-108664235D01*
X142573773Y-108670196D01*
X142549505Y-108673796D01*
X142525001Y-108675000D01*
X141499999Y-108675000D01*
X141475495Y-108673796D01*
X141451227Y-108670196D01*
X141427428Y-108664235D01*
X141404329Y-108655970D01*
X141382150Y-108645480D01*
X141361107Y-108632868D01*
X141341401Y-108618253D01*
X141323223Y-108601777D01*
X141306747Y-108583599D01*
X141292132Y-108563893D01*
X141279520Y-108542850D01*
X141269030Y-108520671D01*
X141260765Y-108497572D01*
X141254804Y-108473773D01*
X141251204Y-108449505D01*
X141250000Y-108425001D01*
X141250000Y-105574999D01*
X141251204Y-105550495D01*
X141254804Y-105526227D01*
X141260765Y-105502428D01*
X141269030Y-105479329D01*
X141279520Y-105457150D01*
X141292132Y-105436107D01*
X141306747Y-105416401D01*
X141323223Y-105398223D01*
X141341401Y-105381747D01*
X141361107Y-105367132D01*
X141382150Y-105354520D01*
X141404329Y-105344030D01*
X141427428Y-105335765D01*
X141451227Y-105329804D01*
X141475495Y-105326204D01*
X141499999Y-105325000D01*
X142525001Y-105325000D01*
X142549505Y-105326204D01*
G37*
G04 #@! TD.AperFunction*
G04 #@! TA.AperFunction,SMDPad,CuDef*
G36*
X148524505Y-105326204D02*
G01*
X148548773Y-105329804D01*
X148572572Y-105335765D01*
X148595671Y-105344030D01*
X148617850Y-105354520D01*
X148638893Y-105367132D01*
X148658599Y-105381747D01*
X148676777Y-105398223D01*
X148693253Y-105416401D01*
X148707868Y-105436107D01*
X148720480Y-105457150D01*
X148730970Y-105479329D01*
X148739235Y-105502428D01*
X148745196Y-105526227D01*
X148748796Y-105550495D01*
X148750000Y-105574999D01*
X148750000Y-108425001D01*
X148748796Y-108449505D01*
X148745196Y-108473773D01*
X148739235Y-108497572D01*
X148730970Y-108520671D01*
X148720480Y-108542850D01*
X148707868Y-108563893D01*
X148693253Y-108583599D01*
X148676777Y-108601777D01*
X148658599Y-108618253D01*
X148638893Y-108632868D01*
X148617850Y-108645480D01*
X148595671Y-108655970D01*
X148572572Y-108664235D01*
X148548773Y-108670196D01*
X148524505Y-108673796D01*
X148500001Y-108675000D01*
X147474999Y-108675000D01*
X147450495Y-108673796D01*
X147426227Y-108670196D01*
X147402428Y-108664235D01*
X147379329Y-108655970D01*
X147357150Y-108645480D01*
X147336107Y-108632868D01*
X147316401Y-108618253D01*
X147298223Y-108601777D01*
X147281747Y-108583599D01*
X147267132Y-108563893D01*
X147254520Y-108542850D01*
X147244030Y-108520671D01*
X147235765Y-108497572D01*
X147229804Y-108473773D01*
X147226204Y-108449505D01*
X147225000Y-108425001D01*
X147225000Y-105574999D01*
X147226204Y-105550495D01*
X147229804Y-105526227D01*
X147235765Y-105502428D01*
X147244030Y-105479329D01*
X147254520Y-105457150D01*
X147267132Y-105436107D01*
X147281747Y-105416401D01*
X147298223Y-105398223D01*
X147316401Y-105381747D01*
X147336107Y-105367132D01*
X147357150Y-105354520D01*
X147379329Y-105344030D01*
X147402428Y-105335765D01*
X147426227Y-105329804D01*
X147450495Y-105326204D01*
X147474999Y-105325000D01*
X148500001Y-105325000D01*
X148524505Y-105326204D01*
G37*
G04 #@! TD.AperFunction*
D17*
X147550000Y-62000000D03*
X145450000Y-62000000D03*
X145950000Y-138000000D03*
X148050000Y-138000000D03*
D19*
X135000000Y-65000000D03*
X130000000Y-65000000D03*
X130000000Y-116000000D03*
X135000000Y-116000000D03*
G04 #@! TA.AperFunction,SMDPad,CuDef*
D13*
G36*
X94574504Y-97451204D02*
G01*
X94598773Y-97454804D01*
X94622571Y-97460765D01*
X94645671Y-97469030D01*
X94667849Y-97479520D01*
X94688893Y-97492133D01*
X94708598Y-97506747D01*
X94726777Y-97523223D01*
X94743253Y-97541402D01*
X94757867Y-97561107D01*
X94770480Y-97582151D01*
X94780970Y-97604329D01*
X94789235Y-97627429D01*
X94795196Y-97651227D01*
X94798796Y-97675496D01*
X94800000Y-97700000D01*
X94800000Y-98450000D01*
X94798796Y-98474504D01*
X94795196Y-98498773D01*
X94789235Y-98522571D01*
X94780970Y-98545671D01*
X94770480Y-98567849D01*
X94757867Y-98588893D01*
X94743253Y-98608598D01*
X94726777Y-98626777D01*
X94708598Y-98643253D01*
X94688893Y-98657867D01*
X94667849Y-98670480D01*
X94645671Y-98680970D01*
X94622571Y-98689235D01*
X94598773Y-98695196D01*
X94574504Y-98698796D01*
X94550000Y-98700000D01*
X92850000Y-98700000D01*
X92825496Y-98698796D01*
X92801227Y-98695196D01*
X92777429Y-98689235D01*
X92754329Y-98680970D01*
X92732151Y-98670480D01*
X92711107Y-98657867D01*
X92691402Y-98643253D01*
X92673223Y-98626777D01*
X92656747Y-98608598D01*
X92642133Y-98588893D01*
X92629520Y-98567849D01*
X92619030Y-98545671D01*
X92610765Y-98522571D01*
X92604804Y-98498773D01*
X92601204Y-98474504D01*
X92600000Y-98450000D01*
X92600000Y-97700000D01*
X92601204Y-97675496D01*
X92604804Y-97651227D01*
X92610765Y-97627429D01*
X92619030Y-97604329D01*
X92629520Y-97582151D01*
X92642133Y-97561107D01*
X92656747Y-97541402D01*
X92673223Y-97523223D01*
X92691402Y-97506747D01*
X92711107Y-97492133D01*
X92732151Y-97479520D01*
X92754329Y-97469030D01*
X92777429Y-97460765D01*
X92801227Y-97454804D01*
X92825496Y-97451204D01*
X92850000Y-97450000D01*
X94550000Y-97450000D01*
X94574504Y-97451204D01*
G37*
G04 #@! TD.AperFunction*
G04 #@! TA.AperFunction,SMDPad,CuDef*
G36*
X94574504Y-95301204D02*
G01*
X94598773Y-95304804D01*
X94622571Y-95310765D01*
X94645671Y-95319030D01*
X94667849Y-95329520D01*
X94688893Y-95342133D01*
X94708598Y-95356747D01*
X94726777Y-95373223D01*
X94743253Y-95391402D01*
X94757867Y-95411107D01*
X94770480Y-95432151D01*
X94780970Y-95454329D01*
X94789235Y-95477429D01*
X94795196Y-95501227D01*
X94798796Y-95525496D01*
X94800000Y-95550000D01*
X94800000Y-96300000D01*
X94798796Y-96324504D01*
X94795196Y-96348773D01*
X94789235Y-96372571D01*
X94780970Y-96395671D01*
X94770480Y-96417849D01*
X94757867Y-96438893D01*
X94743253Y-96458598D01*
X94726777Y-96476777D01*
X94708598Y-96493253D01*
X94688893Y-96507867D01*
X94667849Y-96520480D01*
X94645671Y-96530970D01*
X94622571Y-96539235D01*
X94598773Y-96545196D01*
X94574504Y-96548796D01*
X94550000Y-96550000D01*
X92850000Y-96550000D01*
X92825496Y-96548796D01*
X92801227Y-96545196D01*
X92777429Y-96539235D01*
X92754329Y-96530970D01*
X92732151Y-96520480D01*
X92711107Y-96507867D01*
X92691402Y-96493253D01*
X92673223Y-96476777D01*
X92656747Y-96458598D01*
X92642133Y-96438893D01*
X92629520Y-96417849D01*
X92619030Y-96395671D01*
X92610765Y-96372571D01*
X92604804Y-96348773D01*
X92601204Y-96324504D01*
X92600000Y-96300000D01*
X92600000Y-95550000D01*
X92601204Y-95525496D01*
X92604804Y-95501227D01*
X92610765Y-95477429D01*
X92619030Y-95454329D01*
X92629520Y-95432151D01*
X92642133Y-95411107D01*
X92656747Y-95391402D01*
X92673223Y-95373223D01*
X92691402Y-95356747D01*
X92711107Y-95342133D01*
X92732151Y-95329520D01*
X92754329Y-95319030D01*
X92777429Y-95310765D01*
X92801227Y-95304804D01*
X92825496Y-95301204D01*
X92850000Y-95300000D01*
X94550000Y-95300000D01*
X94574504Y-95301204D01*
G37*
G04 #@! TD.AperFunction*
D20*
X88840000Y-78960000D03*
D21*
X88840000Y-84040000D03*
X109160000Y-91660000D03*
X109160000Y-81500000D03*
X109160000Y-71340000D03*
X88840000Y-71340000D03*
D22*
X92200000Y-105900000D03*
X102200000Y-108000000D03*
G04 #@! TA.AperFunction,SMDPad,CuDef*
D13*
G36*
X105674505Y-128451204D02*
G01*
X105698773Y-128454804D01*
X105722572Y-128460765D01*
X105745671Y-128469030D01*
X105767850Y-128479520D01*
X105788893Y-128492132D01*
X105808599Y-128506747D01*
X105826777Y-128523223D01*
X105843253Y-128541401D01*
X105857868Y-128561107D01*
X105870480Y-128582150D01*
X105880970Y-128604329D01*
X105889235Y-128627428D01*
X105895196Y-128651227D01*
X105898796Y-128675495D01*
X105900000Y-128699999D01*
X105900000Y-129350001D01*
X105898796Y-129374505D01*
X105895196Y-129398773D01*
X105889235Y-129422572D01*
X105880970Y-129445671D01*
X105870480Y-129467850D01*
X105857868Y-129488893D01*
X105843253Y-129508599D01*
X105826777Y-129526777D01*
X105808599Y-129543253D01*
X105788893Y-129557868D01*
X105767850Y-129570480D01*
X105745671Y-129580970D01*
X105722572Y-129589235D01*
X105698773Y-129595196D01*
X105674505Y-129598796D01*
X105650001Y-129600000D01*
X104749999Y-129600000D01*
X104725495Y-129598796D01*
X104701227Y-129595196D01*
X104677428Y-129589235D01*
X104654329Y-129580970D01*
X104632150Y-129570480D01*
X104611107Y-129557868D01*
X104591401Y-129543253D01*
X104573223Y-129526777D01*
X104556747Y-129508599D01*
X104542132Y-129488893D01*
X104529520Y-129467850D01*
X104519030Y-129445671D01*
X104510765Y-129422572D01*
X104504804Y-129398773D01*
X104501204Y-129374505D01*
X104500000Y-129350001D01*
X104500000Y-128699999D01*
X104501204Y-128675495D01*
X104504804Y-128651227D01*
X104510765Y-128627428D01*
X104519030Y-128604329D01*
X104529520Y-128582150D01*
X104542132Y-128561107D01*
X104556747Y-128541401D01*
X104573223Y-128523223D01*
X104591401Y-128506747D01*
X104611107Y-128492132D01*
X104632150Y-128479520D01*
X104654329Y-128469030D01*
X104677428Y-128460765D01*
X104701227Y-128454804D01*
X104725495Y-128451204D01*
X104749999Y-128450000D01*
X105650001Y-128450000D01*
X105674505Y-128451204D01*
G37*
G04 #@! TD.AperFunction*
G04 #@! TA.AperFunction,SMDPad,CuDef*
G36*
X105674505Y-126401204D02*
G01*
X105698773Y-126404804D01*
X105722572Y-126410765D01*
X105745671Y-126419030D01*
X105767850Y-126429520D01*
X105788893Y-126442132D01*
X105808599Y-126456747D01*
X105826777Y-126473223D01*
X105843253Y-126491401D01*
X105857868Y-126511107D01*
X105870480Y-126532150D01*
X105880970Y-126554329D01*
X105889235Y-126577428D01*
X105895196Y-126601227D01*
X105898796Y-126625495D01*
X105900000Y-126649999D01*
X105900000Y-127300001D01*
X105898796Y-127324505D01*
X105895196Y-127348773D01*
X105889235Y-127372572D01*
X105880970Y-127395671D01*
X105870480Y-127417850D01*
X105857868Y-127438893D01*
X105843253Y-127458599D01*
X105826777Y-127476777D01*
X105808599Y-127493253D01*
X105788893Y-127507868D01*
X105767850Y-127520480D01*
X105745671Y-127530970D01*
X105722572Y-127539235D01*
X105698773Y-127545196D01*
X105674505Y-127548796D01*
X105650001Y-127550000D01*
X104749999Y-127550000D01*
X104725495Y-127548796D01*
X104701227Y-127545196D01*
X104677428Y-127539235D01*
X104654329Y-127530970D01*
X104632150Y-127520480D01*
X104611107Y-127507868D01*
X104591401Y-127493253D01*
X104573223Y-127476777D01*
X104556747Y-127458599D01*
X104542132Y-127438893D01*
X104529520Y-127417850D01*
X104519030Y-127395671D01*
X104510765Y-127372572D01*
X104504804Y-127348773D01*
X104501204Y-127324505D01*
X104500000Y-127300001D01*
X104500000Y-126649999D01*
X104501204Y-126625495D01*
X104504804Y-126601227D01*
X104510765Y-126577428D01*
X104519030Y-126554329D01*
X104529520Y-126532150D01*
X104542132Y-126511107D01*
X104556747Y-126491401D01*
X104573223Y-126473223D01*
X104591401Y-126456747D01*
X104611107Y-126442132D01*
X104632150Y-126429520D01*
X104654329Y-126419030D01*
X104677428Y-126410765D01*
X104701227Y-126404804D01*
X104725495Y-126401204D01*
X104749999Y-126400000D01*
X105650001Y-126400000D01*
X105674505Y-126401204D01*
G37*
G04 #@! TD.AperFunction*
G04 #@! TA.AperFunction,SMDPad,CuDef*
G36*
X94874504Y-114951204D02*
G01*
X94898773Y-114954804D01*
X94922571Y-114960765D01*
X94945671Y-114969030D01*
X94967849Y-114979520D01*
X94988893Y-114992133D01*
X95008598Y-115006747D01*
X95026777Y-115023223D01*
X95043253Y-115041402D01*
X95057867Y-115061107D01*
X95070480Y-115082151D01*
X95080970Y-115104329D01*
X95089235Y-115127429D01*
X95095196Y-115151227D01*
X95098796Y-115175496D01*
X95100000Y-115200000D01*
X95100000Y-116800000D01*
X95098796Y-116824504D01*
X95095196Y-116848773D01*
X95089235Y-116872571D01*
X95080970Y-116895671D01*
X95070480Y-116917849D01*
X95057867Y-116938893D01*
X95043253Y-116958598D01*
X95026777Y-116976777D01*
X95008598Y-116993253D01*
X94988893Y-117007867D01*
X94967849Y-117020480D01*
X94945671Y-117030970D01*
X94922571Y-117039235D01*
X94898773Y-117045196D01*
X94874504Y-117048796D01*
X94850000Y-117050000D01*
X90750000Y-117050000D01*
X90725496Y-117048796D01*
X90701227Y-117045196D01*
X90677429Y-117039235D01*
X90654329Y-117030970D01*
X90632151Y-117020480D01*
X90611107Y-117007867D01*
X90591402Y-116993253D01*
X90573223Y-116976777D01*
X90556747Y-116958598D01*
X90542133Y-116938893D01*
X90529520Y-116917849D01*
X90519030Y-116895671D01*
X90510765Y-116872571D01*
X90504804Y-116848773D01*
X90501204Y-116824504D01*
X90500000Y-116800000D01*
X90500000Y-115200000D01*
X90501204Y-115175496D01*
X90504804Y-115151227D01*
X90510765Y-115127429D01*
X90519030Y-115104329D01*
X90529520Y-115082151D01*
X90542133Y-115061107D01*
X90556747Y-115041402D01*
X90573223Y-115023223D01*
X90591402Y-115006747D01*
X90611107Y-114992133D01*
X90632151Y-114979520D01*
X90654329Y-114969030D01*
X90677429Y-114960765D01*
X90701227Y-114954804D01*
X90725496Y-114951204D01*
X90750000Y-114950000D01*
X94850000Y-114950000D01*
X94874504Y-114951204D01*
G37*
G04 #@! TD.AperFunction*
G04 #@! TA.AperFunction,SMDPad,CuDef*
G36*
X103674504Y-114951204D02*
G01*
X103698773Y-114954804D01*
X103722571Y-114960765D01*
X103745671Y-114969030D01*
X103767849Y-114979520D01*
X103788893Y-114992133D01*
X103808598Y-115006747D01*
X103826777Y-115023223D01*
X103843253Y-115041402D01*
X103857867Y-115061107D01*
X103870480Y-115082151D01*
X103880970Y-115104329D01*
X103889235Y-115127429D01*
X103895196Y-115151227D01*
X103898796Y-115175496D01*
X103900000Y-115200000D01*
X103900000Y-116800000D01*
X103898796Y-116824504D01*
X103895196Y-116848773D01*
X103889235Y-116872571D01*
X103880970Y-116895671D01*
X103870480Y-116917849D01*
X103857867Y-116938893D01*
X103843253Y-116958598D01*
X103826777Y-116976777D01*
X103808598Y-116993253D01*
X103788893Y-117007867D01*
X103767849Y-117020480D01*
X103745671Y-117030970D01*
X103722571Y-117039235D01*
X103698773Y-117045196D01*
X103674504Y-117048796D01*
X103650000Y-117050000D01*
X99550000Y-117050000D01*
X99525496Y-117048796D01*
X99501227Y-117045196D01*
X99477429Y-117039235D01*
X99454329Y-117030970D01*
X99432151Y-117020480D01*
X99411107Y-117007867D01*
X99391402Y-116993253D01*
X99373223Y-116976777D01*
X99356747Y-116958598D01*
X99342133Y-116938893D01*
X99329520Y-116917849D01*
X99319030Y-116895671D01*
X99310765Y-116872571D01*
X99304804Y-116848773D01*
X99301204Y-116824504D01*
X99300000Y-116800000D01*
X99300000Y-115200000D01*
X99301204Y-115175496D01*
X99304804Y-115151227D01*
X99310765Y-115127429D01*
X99319030Y-115104329D01*
X99329520Y-115082151D01*
X99342133Y-115061107D01*
X99356747Y-115041402D01*
X99373223Y-115023223D01*
X99391402Y-115006747D01*
X99411107Y-114992133D01*
X99432151Y-114979520D01*
X99454329Y-114969030D01*
X99477429Y-114960765D01*
X99501227Y-114954804D01*
X99525496Y-114951204D01*
X99550000Y-114950000D01*
X103650000Y-114950000D01*
X103674504Y-114951204D01*
G37*
G04 #@! TD.AperFunction*
G04 #@! TA.AperFunction,SMDPad,CuDef*
G36*
X115099504Y-70776204D02*
G01*
X115123773Y-70779804D01*
X115147571Y-70785765D01*
X115170671Y-70794030D01*
X115192849Y-70804520D01*
X115213893Y-70817133D01*
X115233598Y-70831747D01*
X115251777Y-70848223D01*
X115268253Y-70866402D01*
X115282867Y-70886107D01*
X115295480Y-70907151D01*
X115305970Y-70929329D01*
X115314235Y-70952429D01*
X115320196Y-70976227D01*
X115323796Y-71000496D01*
X115325000Y-71025000D01*
X115325000Y-71950000D01*
X115323796Y-71974504D01*
X115320196Y-71998773D01*
X115314235Y-72022571D01*
X115305970Y-72045671D01*
X115295480Y-72067849D01*
X115282867Y-72088893D01*
X115268253Y-72108598D01*
X115251777Y-72126777D01*
X115233598Y-72143253D01*
X115213893Y-72157867D01*
X115192849Y-72170480D01*
X115170671Y-72180970D01*
X115147571Y-72189235D01*
X115123773Y-72195196D01*
X115099504Y-72198796D01*
X115075000Y-72200000D01*
X112925000Y-72200000D01*
X112900496Y-72198796D01*
X112876227Y-72195196D01*
X112852429Y-72189235D01*
X112829329Y-72180970D01*
X112807151Y-72170480D01*
X112786107Y-72157867D01*
X112766402Y-72143253D01*
X112748223Y-72126777D01*
X112731747Y-72108598D01*
X112717133Y-72088893D01*
X112704520Y-72067849D01*
X112694030Y-72045671D01*
X112685765Y-72022571D01*
X112679804Y-71998773D01*
X112676204Y-71974504D01*
X112675000Y-71950000D01*
X112675000Y-71025000D01*
X112676204Y-71000496D01*
X112679804Y-70976227D01*
X112685765Y-70952429D01*
X112694030Y-70929329D01*
X112704520Y-70907151D01*
X112717133Y-70886107D01*
X112731747Y-70866402D01*
X112748223Y-70848223D01*
X112766402Y-70831747D01*
X112786107Y-70817133D01*
X112807151Y-70804520D01*
X112829329Y-70794030D01*
X112852429Y-70785765D01*
X112876227Y-70779804D01*
X112900496Y-70776204D01*
X112925000Y-70775000D01*
X115075000Y-70775000D01*
X115099504Y-70776204D01*
G37*
G04 #@! TD.AperFunction*
G04 #@! TA.AperFunction,SMDPad,CuDef*
G36*
X115099504Y-67801204D02*
G01*
X115123773Y-67804804D01*
X115147571Y-67810765D01*
X115170671Y-67819030D01*
X115192849Y-67829520D01*
X115213893Y-67842133D01*
X115233598Y-67856747D01*
X115251777Y-67873223D01*
X115268253Y-67891402D01*
X115282867Y-67911107D01*
X115295480Y-67932151D01*
X115305970Y-67954329D01*
X115314235Y-67977429D01*
X115320196Y-68001227D01*
X115323796Y-68025496D01*
X115325000Y-68050000D01*
X115325000Y-68975000D01*
X115323796Y-68999504D01*
X115320196Y-69023773D01*
X115314235Y-69047571D01*
X115305970Y-69070671D01*
X115295480Y-69092849D01*
X115282867Y-69113893D01*
X115268253Y-69133598D01*
X115251777Y-69151777D01*
X115233598Y-69168253D01*
X115213893Y-69182867D01*
X115192849Y-69195480D01*
X115170671Y-69205970D01*
X115147571Y-69214235D01*
X115123773Y-69220196D01*
X115099504Y-69223796D01*
X115075000Y-69225000D01*
X112925000Y-69225000D01*
X112900496Y-69223796D01*
X112876227Y-69220196D01*
X112852429Y-69214235D01*
X112829329Y-69205970D01*
X112807151Y-69195480D01*
X112786107Y-69182867D01*
X112766402Y-69168253D01*
X112748223Y-69151777D01*
X112731747Y-69133598D01*
X112717133Y-69113893D01*
X112704520Y-69092849D01*
X112694030Y-69070671D01*
X112685765Y-69047571D01*
X112679804Y-69023773D01*
X112676204Y-68999504D01*
X112675000Y-68975000D01*
X112675000Y-68050000D01*
X112676204Y-68025496D01*
X112679804Y-68001227D01*
X112685765Y-67977429D01*
X112694030Y-67954329D01*
X112704520Y-67932151D01*
X112717133Y-67911107D01*
X112731747Y-67891402D01*
X112748223Y-67873223D01*
X112766402Y-67856747D01*
X112786107Y-67842133D01*
X112807151Y-67829520D01*
X112829329Y-67819030D01*
X112852429Y-67810765D01*
X112876227Y-67804804D01*
X112900496Y-67801204D01*
X112925000Y-67800000D01*
X115075000Y-67800000D01*
X115099504Y-67801204D01*
G37*
G04 #@! TD.AperFunction*
G04 #@! TA.AperFunction,SMDPad,CuDef*
G36*
X115599504Y-88301204D02*
G01*
X115623773Y-88304804D01*
X115647571Y-88310765D01*
X115670671Y-88319030D01*
X115692849Y-88329520D01*
X115713893Y-88342133D01*
X115733598Y-88356747D01*
X115751777Y-88373223D01*
X115768253Y-88391402D01*
X115782867Y-88411107D01*
X115795480Y-88432151D01*
X115805970Y-88454329D01*
X115814235Y-88477429D01*
X115820196Y-88501227D01*
X115823796Y-88525496D01*
X115825000Y-88550000D01*
X115825000Y-89475000D01*
X115823796Y-89499504D01*
X115820196Y-89523773D01*
X115814235Y-89547571D01*
X115805970Y-89570671D01*
X115795480Y-89592849D01*
X115782867Y-89613893D01*
X115768253Y-89633598D01*
X115751777Y-89651777D01*
X115733598Y-89668253D01*
X115713893Y-89682867D01*
X115692849Y-89695480D01*
X115670671Y-89705970D01*
X115647571Y-89714235D01*
X115623773Y-89720196D01*
X115599504Y-89723796D01*
X115575000Y-89725000D01*
X113425000Y-89725000D01*
X113400496Y-89723796D01*
X113376227Y-89720196D01*
X113352429Y-89714235D01*
X113329329Y-89705970D01*
X113307151Y-89695480D01*
X113286107Y-89682867D01*
X113266402Y-89668253D01*
X113248223Y-89651777D01*
X113231747Y-89633598D01*
X113217133Y-89613893D01*
X113204520Y-89592849D01*
X113194030Y-89570671D01*
X113185765Y-89547571D01*
X113179804Y-89523773D01*
X113176204Y-89499504D01*
X113175000Y-89475000D01*
X113175000Y-88550000D01*
X113176204Y-88525496D01*
X113179804Y-88501227D01*
X113185765Y-88477429D01*
X113194030Y-88454329D01*
X113204520Y-88432151D01*
X113217133Y-88411107D01*
X113231747Y-88391402D01*
X113248223Y-88373223D01*
X113266402Y-88356747D01*
X113286107Y-88342133D01*
X113307151Y-88329520D01*
X113329329Y-88319030D01*
X113352429Y-88310765D01*
X113376227Y-88304804D01*
X113400496Y-88301204D01*
X113425000Y-88300000D01*
X115575000Y-88300000D01*
X115599504Y-88301204D01*
G37*
G04 #@! TD.AperFunction*
G04 #@! TA.AperFunction,SMDPad,CuDef*
G36*
X115599504Y-91276204D02*
G01*
X115623773Y-91279804D01*
X115647571Y-91285765D01*
X115670671Y-91294030D01*
X115692849Y-91304520D01*
X115713893Y-91317133D01*
X115733598Y-91331747D01*
X115751777Y-91348223D01*
X115768253Y-91366402D01*
X115782867Y-91386107D01*
X115795480Y-91407151D01*
X115805970Y-91429329D01*
X115814235Y-91452429D01*
X115820196Y-91476227D01*
X115823796Y-91500496D01*
X115825000Y-91525000D01*
X115825000Y-92450000D01*
X115823796Y-92474504D01*
X115820196Y-92498773D01*
X115814235Y-92522571D01*
X115805970Y-92545671D01*
X115795480Y-92567849D01*
X115782867Y-92588893D01*
X115768253Y-92608598D01*
X115751777Y-92626777D01*
X115733598Y-92643253D01*
X115713893Y-92657867D01*
X115692849Y-92670480D01*
X115670671Y-92680970D01*
X115647571Y-92689235D01*
X115623773Y-92695196D01*
X115599504Y-92698796D01*
X115575000Y-92700000D01*
X113425000Y-92700000D01*
X113400496Y-92698796D01*
X113376227Y-92695196D01*
X113352429Y-92689235D01*
X113329329Y-92680970D01*
X113307151Y-92670480D01*
X113286107Y-92657867D01*
X113266402Y-92643253D01*
X113248223Y-92626777D01*
X113231747Y-92608598D01*
X113217133Y-92588893D01*
X113204520Y-92567849D01*
X113194030Y-92545671D01*
X113185765Y-92522571D01*
X113179804Y-92498773D01*
X113176204Y-92474504D01*
X113175000Y-92450000D01*
X113175000Y-91525000D01*
X113176204Y-91500496D01*
X113179804Y-91476227D01*
X113185765Y-91452429D01*
X113194030Y-91429329D01*
X113204520Y-91407151D01*
X113217133Y-91386107D01*
X113231747Y-91366402D01*
X113248223Y-91348223D01*
X113266402Y-91331747D01*
X113286107Y-91317133D01*
X113307151Y-91304520D01*
X113329329Y-91294030D01*
X113352429Y-91285765D01*
X113376227Y-91279804D01*
X113400496Y-91276204D01*
X113425000Y-91275000D01*
X115575000Y-91275000D01*
X115599504Y-91276204D01*
G37*
G04 #@! TD.AperFunction*
G04 #@! TA.AperFunction,SMDPad,CuDef*
G36*
X90799504Y-100176204D02*
G01*
X90823773Y-100179804D01*
X90847571Y-100185765D01*
X90870671Y-100194030D01*
X90892849Y-100204520D01*
X90913893Y-100217133D01*
X90933598Y-100231747D01*
X90951777Y-100248223D01*
X90968253Y-100266402D01*
X90982867Y-100286107D01*
X90995480Y-100307151D01*
X91005970Y-100329329D01*
X91014235Y-100352429D01*
X91020196Y-100376227D01*
X91023796Y-100400496D01*
X91025000Y-100425000D01*
X91025000Y-102575000D01*
X91023796Y-102599504D01*
X91020196Y-102623773D01*
X91014235Y-102647571D01*
X91005970Y-102670671D01*
X90995480Y-102692849D01*
X90982867Y-102713893D01*
X90968253Y-102733598D01*
X90951777Y-102751777D01*
X90933598Y-102768253D01*
X90913893Y-102782867D01*
X90892849Y-102795480D01*
X90870671Y-102805970D01*
X90847571Y-102814235D01*
X90823773Y-102820196D01*
X90799504Y-102823796D01*
X90775000Y-102825000D01*
X89850000Y-102825000D01*
X89825496Y-102823796D01*
X89801227Y-102820196D01*
X89777429Y-102814235D01*
X89754329Y-102805970D01*
X89732151Y-102795480D01*
X89711107Y-102782867D01*
X89691402Y-102768253D01*
X89673223Y-102751777D01*
X89656747Y-102733598D01*
X89642133Y-102713893D01*
X89629520Y-102692849D01*
X89619030Y-102670671D01*
X89610765Y-102647571D01*
X89604804Y-102623773D01*
X89601204Y-102599504D01*
X89600000Y-102575000D01*
X89600000Y-100425000D01*
X89601204Y-100400496D01*
X89604804Y-100376227D01*
X89610765Y-100352429D01*
X89619030Y-100329329D01*
X89629520Y-100307151D01*
X89642133Y-100286107D01*
X89656747Y-100266402D01*
X89673223Y-100248223D01*
X89691402Y-100231747D01*
X89711107Y-100217133D01*
X89732151Y-100204520D01*
X89754329Y-100194030D01*
X89777429Y-100185765D01*
X89801227Y-100179804D01*
X89825496Y-100176204D01*
X89850000Y-100175000D01*
X90775000Y-100175000D01*
X90799504Y-100176204D01*
G37*
G04 #@! TD.AperFunction*
G04 #@! TA.AperFunction,SMDPad,CuDef*
G36*
X93774504Y-100176204D02*
G01*
X93798773Y-100179804D01*
X93822571Y-100185765D01*
X93845671Y-100194030D01*
X93867849Y-100204520D01*
X93888893Y-100217133D01*
X93908598Y-100231747D01*
X93926777Y-100248223D01*
X93943253Y-100266402D01*
X93957867Y-100286107D01*
X93970480Y-100307151D01*
X93980970Y-100329329D01*
X93989235Y-100352429D01*
X93995196Y-100376227D01*
X93998796Y-100400496D01*
X94000000Y-100425000D01*
X94000000Y-102575000D01*
X93998796Y-102599504D01*
X93995196Y-102623773D01*
X93989235Y-102647571D01*
X93980970Y-102670671D01*
X93970480Y-102692849D01*
X93957867Y-102713893D01*
X93943253Y-102733598D01*
X93926777Y-102751777D01*
X93908598Y-102768253D01*
X93888893Y-102782867D01*
X93867849Y-102795480D01*
X93845671Y-102805970D01*
X93822571Y-102814235D01*
X93798773Y-102820196D01*
X93774504Y-102823796D01*
X93750000Y-102825000D01*
X92825000Y-102825000D01*
X92800496Y-102823796D01*
X92776227Y-102820196D01*
X92752429Y-102814235D01*
X92729329Y-102805970D01*
X92707151Y-102795480D01*
X92686107Y-102782867D01*
X92666402Y-102768253D01*
X92648223Y-102751777D01*
X92631747Y-102733598D01*
X92617133Y-102713893D01*
X92604520Y-102692849D01*
X92594030Y-102670671D01*
X92585765Y-102647571D01*
X92579804Y-102623773D01*
X92576204Y-102599504D01*
X92575000Y-102575000D01*
X92575000Y-100425000D01*
X92576204Y-100400496D01*
X92579804Y-100376227D01*
X92585765Y-100352429D01*
X92594030Y-100329329D01*
X92604520Y-100307151D01*
X92617133Y-100286107D01*
X92631747Y-100266402D01*
X92648223Y-100248223D01*
X92666402Y-100231747D01*
X92686107Y-100217133D01*
X92707151Y-100204520D01*
X92729329Y-100194030D01*
X92752429Y-100185765D01*
X92776227Y-100179804D01*
X92800496Y-100176204D01*
X92825000Y-100175000D01*
X93750000Y-100175000D01*
X93774504Y-100176204D01*
G37*
G04 #@! TD.AperFunction*
D23*
X142250000Y-92850000D03*
D24*
X140000000Y-103050000D03*
D25*
X145850000Y-100150000D03*
X132150000Y-100150000D03*
X145850000Y-95850000D03*
X132150000Y-95850000D03*
D23*
X143250000Y-76850000D03*
D24*
X141000000Y-87050000D03*
D25*
X146850000Y-84150000D03*
X133150000Y-84150000D03*
X146850000Y-79850000D03*
X133150000Y-79850000D03*
G04 #@! TA.AperFunction,SMDPad,CuDef*
D13*
G36*
X119650000Y-103250602D02*
G01*
X119674534Y-103250602D01*
X119723365Y-103255412D01*
X119771490Y-103264984D01*
X119818445Y-103279228D01*
X119863778Y-103298005D01*
X119907051Y-103321136D01*
X119947850Y-103348396D01*
X119985779Y-103379524D01*
X120020476Y-103414221D01*
X120051604Y-103452150D01*
X120078864Y-103492949D01*
X120101995Y-103536222D01*
X120120772Y-103581555D01*
X120135016Y-103628510D01*
X120144588Y-103676635D01*
X120149398Y-103725466D01*
X120149398Y-103750000D01*
X120150000Y-103750000D01*
X120150000Y-104250000D01*
X120149398Y-104250000D01*
X120149398Y-104274534D01*
X120144588Y-104323365D01*
X120135016Y-104371490D01*
X120120772Y-104418445D01*
X120101995Y-104463778D01*
X120078864Y-104507051D01*
X120051604Y-104547850D01*
X120020476Y-104585779D01*
X119985779Y-104620476D01*
X119947850Y-104651604D01*
X119907051Y-104678864D01*
X119863778Y-104701995D01*
X119818445Y-104720772D01*
X119771490Y-104735016D01*
X119723365Y-104744588D01*
X119674534Y-104749398D01*
X119650000Y-104749398D01*
X119650000Y-104750000D01*
X119150000Y-104750000D01*
X119150000Y-103250000D01*
X119650000Y-103250000D01*
X119650000Y-103250602D01*
G37*
G04 #@! TD.AperFunction*
G04 #@! TA.AperFunction,SMDPad,CuDef*
G36*
X118850000Y-104750000D02*
G01*
X118350000Y-104750000D01*
X118350000Y-104749398D01*
X118325466Y-104749398D01*
X118276635Y-104744588D01*
X118228510Y-104735016D01*
X118181555Y-104720772D01*
X118136222Y-104701995D01*
X118092949Y-104678864D01*
X118052150Y-104651604D01*
X118014221Y-104620476D01*
X117979524Y-104585779D01*
X117948396Y-104547850D01*
X117921136Y-104507051D01*
X117898005Y-104463778D01*
X117879228Y-104418445D01*
X117864984Y-104371490D01*
X117855412Y-104323365D01*
X117850602Y-104274534D01*
X117850602Y-104250000D01*
X117850000Y-104250000D01*
X117850000Y-103750000D01*
X117850602Y-103750000D01*
X117850602Y-103725466D01*
X117855412Y-103676635D01*
X117864984Y-103628510D01*
X117879228Y-103581555D01*
X117898005Y-103536222D01*
X117921136Y-103492949D01*
X117948396Y-103452150D01*
X117979524Y-103414221D01*
X118014221Y-103379524D01*
X118052150Y-103348396D01*
X118092949Y-103321136D01*
X118136222Y-103298005D01*
X118181555Y-103279228D01*
X118228510Y-103264984D01*
X118276635Y-103255412D01*
X118325466Y-103250602D01*
X118350000Y-103250602D01*
X118350000Y-103250000D01*
X118850000Y-103250000D01*
X118850000Y-104750000D01*
G37*
G04 #@! TD.AperFunction*
G04 #@! TA.AperFunction,SMDPad,CuDef*
G36*
X119650000Y-93250602D02*
G01*
X119674534Y-93250602D01*
X119723365Y-93255412D01*
X119771490Y-93264984D01*
X119818445Y-93279228D01*
X119863778Y-93298005D01*
X119907051Y-93321136D01*
X119947850Y-93348396D01*
X119985779Y-93379524D01*
X120020476Y-93414221D01*
X120051604Y-93452150D01*
X120078864Y-93492949D01*
X120101995Y-93536222D01*
X120120772Y-93581555D01*
X120135016Y-93628510D01*
X120144588Y-93676635D01*
X120149398Y-93725466D01*
X120149398Y-93750000D01*
X120150000Y-93750000D01*
X120150000Y-94250000D01*
X120149398Y-94250000D01*
X120149398Y-94274534D01*
X120144588Y-94323365D01*
X120135016Y-94371490D01*
X120120772Y-94418445D01*
X120101995Y-94463778D01*
X120078864Y-94507051D01*
X120051604Y-94547850D01*
X120020476Y-94585779D01*
X119985779Y-94620476D01*
X119947850Y-94651604D01*
X119907051Y-94678864D01*
X119863778Y-94701995D01*
X119818445Y-94720772D01*
X119771490Y-94735016D01*
X119723365Y-94744588D01*
X119674534Y-94749398D01*
X119650000Y-94749398D01*
X119650000Y-94750000D01*
X119150000Y-94750000D01*
X119150000Y-93250000D01*
X119650000Y-93250000D01*
X119650000Y-93250602D01*
G37*
G04 #@! TD.AperFunction*
G04 #@! TA.AperFunction,SMDPad,CuDef*
G36*
X118850000Y-94750000D02*
G01*
X118350000Y-94750000D01*
X118350000Y-94749398D01*
X118325466Y-94749398D01*
X118276635Y-94744588D01*
X118228510Y-94735016D01*
X118181555Y-94720772D01*
X118136222Y-94701995D01*
X118092949Y-94678864D01*
X118052150Y-94651604D01*
X118014221Y-94620476D01*
X117979524Y-94585779D01*
X117948396Y-94547850D01*
X117921136Y-94507051D01*
X117898005Y-94463778D01*
X117879228Y-94418445D01*
X117864984Y-94371490D01*
X117855412Y-94323365D01*
X117850602Y-94274534D01*
X117850602Y-94250000D01*
X117850000Y-94250000D01*
X117850000Y-93750000D01*
X117850602Y-93750000D01*
X117850602Y-93725466D01*
X117855412Y-93676635D01*
X117864984Y-93628510D01*
X117879228Y-93581555D01*
X117898005Y-93536222D01*
X117921136Y-93492949D01*
X117948396Y-93452150D01*
X117979524Y-93414221D01*
X118014221Y-93379524D01*
X118052150Y-93348396D01*
X118092949Y-93321136D01*
X118136222Y-93298005D01*
X118181555Y-93279228D01*
X118228510Y-93264984D01*
X118276635Y-93255412D01*
X118325466Y-93250602D01*
X118350000Y-93250602D01*
X118350000Y-93250000D01*
X118850000Y-93250000D01*
X118850000Y-94750000D01*
G37*
G04 #@! TD.AperFunction*
G04 #@! TA.AperFunction,SMDPad,CuDef*
G36*
X119650000Y-84250602D02*
G01*
X119674534Y-84250602D01*
X119723365Y-84255412D01*
X119771490Y-84264984D01*
X119818445Y-84279228D01*
X119863778Y-84298005D01*
X119907051Y-84321136D01*
X119947850Y-84348396D01*
X119985779Y-84379524D01*
X120020476Y-84414221D01*
X120051604Y-84452150D01*
X120078864Y-84492949D01*
X120101995Y-84536222D01*
X120120772Y-84581555D01*
X120135016Y-84628510D01*
X120144588Y-84676635D01*
X120149398Y-84725466D01*
X120149398Y-84750000D01*
X120150000Y-84750000D01*
X120150000Y-85250000D01*
X120149398Y-85250000D01*
X120149398Y-85274534D01*
X120144588Y-85323365D01*
X120135016Y-85371490D01*
X120120772Y-85418445D01*
X120101995Y-85463778D01*
X120078864Y-85507051D01*
X120051604Y-85547850D01*
X120020476Y-85585779D01*
X119985779Y-85620476D01*
X119947850Y-85651604D01*
X119907051Y-85678864D01*
X119863778Y-85701995D01*
X119818445Y-85720772D01*
X119771490Y-85735016D01*
X119723365Y-85744588D01*
X119674534Y-85749398D01*
X119650000Y-85749398D01*
X119650000Y-85750000D01*
X119150000Y-85750000D01*
X119150000Y-84250000D01*
X119650000Y-84250000D01*
X119650000Y-84250602D01*
G37*
G04 #@! TD.AperFunction*
G04 #@! TA.AperFunction,SMDPad,CuDef*
G36*
X118850000Y-85750000D02*
G01*
X118350000Y-85750000D01*
X118350000Y-85749398D01*
X118325466Y-85749398D01*
X118276635Y-85744588D01*
X118228510Y-85735016D01*
X118181555Y-85720772D01*
X118136222Y-85701995D01*
X118092949Y-85678864D01*
X118052150Y-85651604D01*
X118014221Y-85620476D01*
X117979524Y-85585779D01*
X117948396Y-85547850D01*
X117921136Y-85507051D01*
X117898005Y-85463778D01*
X117879228Y-85418445D01*
X117864984Y-85371490D01*
X117855412Y-85323365D01*
X117850602Y-85274534D01*
X117850602Y-85250000D01*
X117850000Y-85250000D01*
X117850000Y-84750000D01*
X117850602Y-84750000D01*
X117850602Y-84725466D01*
X117855412Y-84676635D01*
X117864984Y-84628510D01*
X117879228Y-84581555D01*
X117898005Y-84536222D01*
X117921136Y-84492949D01*
X117948396Y-84452150D01*
X117979524Y-84414221D01*
X118014221Y-84379524D01*
X118052150Y-84348396D01*
X118092949Y-84321136D01*
X118136222Y-84298005D01*
X118181555Y-84279228D01*
X118228510Y-84264984D01*
X118276635Y-84255412D01*
X118325466Y-84250602D01*
X118350000Y-84250602D01*
X118350000Y-84250000D01*
X118850000Y-84250000D01*
X118850000Y-85750000D01*
G37*
G04 #@! TD.AperFunction*
G04 #@! TA.AperFunction,SMDPad,CuDef*
G36*
X119650000Y-74250602D02*
G01*
X119674534Y-74250602D01*
X119723365Y-74255412D01*
X119771490Y-74264984D01*
X119818445Y-74279228D01*
X119863778Y-74298005D01*
X119907051Y-74321136D01*
X119947850Y-74348396D01*
X119985779Y-74379524D01*
X120020476Y-74414221D01*
X120051604Y-74452150D01*
X120078864Y-74492949D01*
X120101995Y-74536222D01*
X120120772Y-74581555D01*
X120135016Y-74628510D01*
X120144588Y-74676635D01*
X120149398Y-74725466D01*
X120149398Y-74750000D01*
X120150000Y-74750000D01*
X120150000Y-75250000D01*
X120149398Y-75250000D01*
X120149398Y-75274534D01*
X120144588Y-75323365D01*
X120135016Y-75371490D01*
X120120772Y-75418445D01*
X120101995Y-75463778D01*
X120078864Y-75507051D01*
X120051604Y-75547850D01*
X120020476Y-75585779D01*
X119985779Y-75620476D01*
X119947850Y-75651604D01*
X119907051Y-75678864D01*
X119863778Y-75701995D01*
X119818445Y-75720772D01*
X119771490Y-75735016D01*
X119723365Y-75744588D01*
X119674534Y-75749398D01*
X119650000Y-75749398D01*
X119650000Y-75750000D01*
X119150000Y-75750000D01*
X119150000Y-74250000D01*
X119650000Y-74250000D01*
X119650000Y-74250602D01*
G37*
G04 #@! TD.AperFunction*
G04 #@! TA.AperFunction,SMDPad,CuDef*
G36*
X118850000Y-75750000D02*
G01*
X118350000Y-75750000D01*
X118350000Y-75749398D01*
X118325466Y-75749398D01*
X118276635Y-75744588D01*
X118228510Y-75735016D01*
X118181555Y-75720772D01*
X118136222Y-75701995D01*
X118092949Y-75678864D01*
X118052150Y-75651604D01*
X118014221Y-75620476D01*
X117979524Y-75585779D01*
X117948396Y-75547850D01*
X117921136Y-75507051D01*
X117898005Y-75463778D01*
X117879228Y-75418445D01*
X117864984Y-75371490D01*
X117855412Y-75323365D01*
X117850602Y-75274534D01*
X117850602Y-75250000D01*
X117850000Y-75250000D01*
X117850000Y-74750000D01*
X117850602Y-74750000D01*
X117850602Y-74725466D01*
X117855412Y-74676635D01*
X117864984Y-74628510D01*
X117879228Y-74581555D01*
X117898005Y-74536222D01*
X117921136Y-74492949D01*
X117948396Y-74452150D01*
X117979524Y-74414221D01*
X118014221Y-74379524D01*
X118052150Y-74348396D01*
X118092949Y-74321136D01*
X118136222Y-74298005D01*
X118181555Y-74279228D01*
X118228510Y-74264984D01*
X118276635Y-74255412D01*
X118325466Y-74250602D01*
X118350000Y-74250602D01*
X118350000Y-74250000D01*
X118850000Y-74250000D01*
X118850000Y-75750000D01*
G37*
G04 #@! TD.AperFunction*
D26*
X123750000Y-97730000D03*
X123750000Y-100270000D03*
X114250000Y-100270000D03*
X114250000Y-97730000D03*
X123750000Y-78730000D03*
X123750000Y-81270000D03*
X114250000Y-81270000D03*
X114250000Y-78730000D03*
D27*
X91000000Y-98000000D03*
X91000000Y-96000000D03*
X153000000Y-108000000D03*
D28*
X92800000Y-106500000D02*
X92200000Y-105900000D01*
X92800000Y-116000000D02*
X92800000Y-106500000D01*
X95849999Y-119049999D02*
X92800000Y-116000000D01*
X95849999Y-127350001D02*
X95849999Y-119049999D01*
X94200000Y-129000000D02*
X95849999Y-127350001D01*
X92200000Y-105900000D02*
X90300000Y-104000000D01*
X90312500Y-103987500D02*
X90312500Y-101500000D01*
X90300000Y-104000000D02*
X90312500Y-103987500D01*
X90312500Y-98687500D02*
X91000000Y-98000000D01*
X90312500Y-101500000D02*
X90312500Y-98687500D01*
X90312500Y-98687500D02*
X90312500Y-96687500D01*
X90312500Y-96687500D02*
X91000000Y-96000000D01*
X101600000Y-108600000D02*
X102200000Y-108000000D01*
X101600000Y-116000000D02*
X101600000Y-108600000D01*
X105200000Y-119600000D02*
X101600000Y-116000000D01*
X105200000Y-126975000D02*
X105200000Y-119600000D01*
X99787500Y-108000000D02*
X93287500Y-101500000D01*
X102200000Y-108000000D02*
X99787500Y-108000000D01*
X93287500Y-98487500D02*
X93700000Y-98075000D01*
X93287500Y-101500000D02*
X93287500Y-98487500D01*
D29*
X115250000Y-100270000D02*
X115250000Y-103250000D01*
X116000000Y-104000000D02*
X118350000Y-104000000D01*
X115250000Y-103250000D02*
X116000000Y-104000000D01*
X115250000Y-81270000D02*
X115250000Y-83250000D01*
X117000000Y-85000000D02*
X118350000Y-85000000D01*
X115250000Y-83250000D02*
X117000000Y-85000000D01*
X122750000Y-81900000D02*
X122750000Y-81270000D01*
X119650000Y-85000000D02*
X122750000Y-81900000D01*
X122750000Y-81270000D02*
X126270000Y-81270000D01*
X129150000Y-84150000D02*
X133150000Y-84150000D01*
X126270000Y-81270000D02*
X129150000Y-84150000D01*
D28*
X126750000Y-81270000D02*
X129630000Y-84150000D01*
X129630000Y-84150000D02*
X133150000Y-84150000D01*
X123750000Y-81270000D02*
X126750000Y-81270000D01*
D29*
X115250000Y-78730000D02*
X115250000Y-76750000D01*
X117000000Y-75000000D02*
X118350000Y-75000000D01*
X115250000Y-76750000D02*
X117000000Y-75000000D01*
D28*
X113852500Y-71340000D02*
X114000000Y-71487500D01*
X109160000Y-71340000D02*
X113852500Y-71340000D01*
X114000000Y-78480000D02*
X114250000Y-78730000D01*
X114000000Y-71487500D02*
X114000000Y-78480000D01*
D29*
X122750000Y-100900000D02*
X122750000Y-100270000D01*
X119650000Y-104000000D02*
X122750000Y-100900000D01*
X122750000Y-100270000D02*
X132030000Y-100270000D01*
D28*
X132030000Y-100270000D02*
X132150000Y-100150000D01*
X123750000Y-100270000D02*
X132030000Y-100270000D01*
D29*
X115220000Y-97760000D02*
X115250000Y-97730000D01*
X115250000Y-97730000D02*
X115250000Y-94750000D01*
X116000000Y-94000000D02*
X118350000Y-94000000D01*
X115250000Y-94750000D02*
X116000000Y-94000000D01*
X115250000Y-97730000D02*
X112270000Y-97730000D01*
D28*
X114500000Y-97480000D02*
X114250000Y-97730000D01*
X114500000Y-91987500D02*
X114500000Y-97480000D01*
X109487500Y-91987500D02*
X109160000Y-91660000D01*
X114500000Y-91987500D02*
X109487500Y-91987500D01*
D29*
X122750000Y-78100000D02*
X122750000Y-78730000D01*
X119650000Y-75000000D02*
X122750000Y-78100000D01*
X122750000Y-78730000D02*
X127730000Y-78730000D01*
D28*
X132030000Y-78730000D02*
X133150000Y-79850000D01*
X123750000Y-78730000D02*
X132030000Y-78730000D01*
D29*
X122750000Y-97100000D02*
X122750000Y-97730000D01*
X119650000Y-94000000D02*
X122750000Y-97100000D01*
X122750000Y-97730000D02*
X126270000Y-97730000D01*
D28*
X126270000Y-97730000D02*
X126450000Y-97550000D01*
X123750000Y-97730000D02*
X126270000Y-97730000D01*
X128150000Y-95850000D02*
X126700000Y-97300000D01*
X132150000Y-95850000D02*
X128150000Y-95850000D01*
D29*
X126450000Y-97550000D02*
X126700000Y-97300000D01*
D28*
X100200000Y-129000000D02*
X105175000Y-129000000D01*
X148130000Y-137920000D02*
X148050000Y-138000000D01*
X152000000Y-137920000D02*
X148130000Y-137920000D01*
X151870000Y-137920000D02*
X147000000Y-133050000D01*
X152000000Y-137920000D02*
X151870000Y-137920000D01*
X152000000Y-143000000D02*
X152000000Y-137920000D01*
X135987500Y-116987500D02*
X135000000Y-116000000D01*
X146000000Y-137950000D02*
X145950000Y-138000000D01*
X142012500Y-108987500D02*
X135000000Y-116000000D01*
X142012500Y-107000000D02*
X142012500Y-108987500D01*
X135000000Y-116000000D02*
X144000000Y-125000000D01*
X144650000Y-138000000D02*
X145950000Y-138000000D01*
X144000000Y-137350000D02*
X144650000Y-138000000D01*
X144000000Y-125000000D02*
X144000000Y-137350000D01*
X145450000Y-64962500D02*
X145500000Y-65012500D01*
X145450000Y-62000000D02*
X145450000Y-64962500D01*
X145487500Y-65000000D02*
X145500000Y-65012500D01*
X135000000Y-65000000D02*
X145487500Y-65000000D01*
X152000000Y-98000000D02*
X151000000Y-98000000D01*
X148850000Y-95850000D02*
X145850000Y-95850000D01*
X151000000Y-98000000D02*
X148850000Y-95850000D01*
X145850000Y-92150000D02*
X146000000Y-92000000D01*
X145850000Y-95850000D02*
X145850000Y-92150000D01*
X152000000Y-98000000D02*
X151125000Y-98000000D01*
X148450001Y-100674999D02*
X148450001Y-108562499D01*
X151125000Y-98000000D02*
X148450001Y-100674999D01*
X147000000Y-129650000D02*
X147000000Y-130950000D01*
X147200010Y-107787490D02*
X147200010Y-129449990D01*
X147200010Y-129449990D02*
X147000000Y-129650000D01*
X147987500Y-107000000D02*
X147200010Y-107787490D01*
X146850000Y-75400000D02*
X145450000Y-74000000D01*
X146850000Y-79850000D02*
X146850000Y-75400000D01*
X145500000Y-73950000D02*
X145450000Y-74000000D01*
X145500000Y-70987500D02*
X145500000Y-73950000D01*
X147625000Y-62000000D02*
X147550000Y-62000000D01*
X148850000Y-71475000D02*
X148850000Y-63225000D01*
X148850000Y-63225000D02*
X147625000Y-62000000D01*
X147550000Y-72775000D02*
X148850000Y-71475000D01*
X147550000Y-74000000D02*
X147550000Y-72775000D01*
X147550000Y-59450000D02*
X151000000Y-56000000D01*
X147550000Y-62000000D02*
X147550000Y-59450000D01*
X152875000Y-120000000D02*
X152000000Y-120000000D01*
X153575010Y-120700010D02*
X152875000Y-120000000D01*
X153575010Y-126184990D02*
X153575010Y-120700010D01*
X152000000Y-127760000D02*
X153575010Y-126184990D01*
X152875000Y-112000000D02*
X152000000Y-112000000D01*
X153575010Y-112700010D02*
X152875000Y-112000000D01*
X153575010Y-120700010D02*
X153575010Y-112700010D01*
X151000000Y-71240000D02*
X151000000Y-77000000D01*
D29*
X153000000Y-106000000D02*
X153000000Y-108000000D01*
X152700000Y-67860000D02*
X151699999Y-66859999D01*
X152700000Y-83350000D02*
X152700000Y-67860000D01*
X151699999Y-66859999D02*
X151000000Y-66160000D01*
X152050000Y-84000000D02*
X152700000Y-83350000D01*
X152000000Y-84000000D02*
X152050000Y-84000000D01*
D28*
X146475000Y-90250000D02*
X146000000Y-90250000D01*
X148375000Y-90250000D02*
X146475000Y-90250000D01*
X150125000Y-92000000D02*
X148375000Y-90250000D01*
X151000000Y-92000000D02*
X150125000Y-92000000D01*
X129487500Y-90093980D02*
X129487500Y-90000000D01*
X129643520Y-90250000D02*
X129487500Y-90093980D01*
X146000000Y-90250000D02*
X129643520Y-90250000D01*
D29*
X154000000Y-89000000D02*
X154000000Y-84950000D01*
X151000000Y-92000000D02*
X154000000Y-89000000D01*
X151700000Y-105050000D02*
X154000000Y-102750000D01*
X151000000Y-105050000D02*
X151700000Y-105050000D01*
X154000000Y-95000000D02*
X151000000Y-92000000D01*
X154000000Y-102750000D02*
X154000000Y-95000000D01*
D28*
X93700000Y-95925000D02*
X93700000Y-86700000D01*
X91040000Y-84040000D02*
X88840000Y-84040000D01*
X93700000Y-86700000D02*
X91040000Y-84040000D01*
D30*
G36*
X154340001Y-82013985D02*
G01*
X154285750Y-82015000D01*
X154127000Y-82173750D01*
X154127000Y-82923000D01*
X154147000Y-82923000D01*
X154147000Y-83177000D01*
X154127000Y-83177000D01*
X154127000Y-83197000D01*
X153873000Y-83197000D01*
X153873000Y-83177000D01*
X153853000Y-83177000D01*
X153853000Y-82923000D01*
X153873000Y-82923000D01*
X153873000Y-82173750D01*
X153714250Y-82015000D01*
X153550000Y-82011928D01*
X153460000Y-82020792D01*
X153460000Y-67897323D01*
X153463676Y-67860000D01*
X153460000Y-67822677D01*
X153460000Y-67822667D01*
X153449003Y-67711014D01*
X153405546Y-67567753D01*
X153366644Y-67494973D01*
X153334974Y-67435723D01*
X153263799Y-67348997D01*
X153240001Y-67319999D01*
X153211003Y-67296201D01*
X152313645Y-66398844D01*
X152335000Y-66291486D01*
X152335000Y-66028514D01*
X152283696Y-65770595D01*
X152183061Y-65527641D01*
X152036962Y-65308987D01*
X151851013Y-65123038D01*
X151632359Y-64976939D01*
X151389405Y-64876304D01*
X151131486Y-64825000D01*
X150868514Y-64825000D01*
X150610595Y-64876304D01*
X150367641Y-64976939D01*
X150148987Y-65123038D01*
X149985000Y-65287025D01*
X149985000Y-63280752D01*
X149990491Y-63225000D01*
X149968577Y-63002501D01*
X149903676Y-62788553D01*
X149798284Y-62591377D01*
X149691989Y-62461856D01*
X149691987Y-62461854D01*
X149656449Y-62418551D01*
X149613146Y-62383013D01*
X148685000Y-61454869D01*
X148685000Y-60948514D01*
X149665000Y-60948514D01*
X149665000Y-61211486D01*
X149716304Y-61469405D01*
X149816939Y-61712359D01*
X149963038Y-61931013D01*
X150148987Y-62116962D01*
X150367641Y-62263061D01*
X150610595Y-62363696D01*
X150868514Y-62415000D01*
X151131486Y-62415000D01*
X151389405Y-62363696D01*
X151632359Y-62263061D01*
X151851013Y-62116962D01*
X152036962Y-61931013D01*
X152183061Y-61712359D01*
X152283696Y-61469405D01*
X152335000Y-61211486D01*
X152335000Y-60948514D01*
X152283696Y-60690595D01*
X152183061Y-60447641D01*
X152036962Y-60228987D01*
X151851013Y-60043038D01*
X151632359Y-59896939D01*
X151389405Y-59796304D01*
X151131486Y-59745000D01*
X150868514Y-59745000D01*
X150610595Y-59796304D01*
X150367641Y-59896939D01*
X150148987Y-60043038D01*
X149963038Y-60228987D01*
X149816939Y-60447641D01*
X149716304Y-60690595D01*
X149665000Y-60948514D01*
X148685000Y-60948514D01*
X148685000Y-59920131D01*
X151267060Y-57338072D01*
X151700000Y-57338072D01*
X151824482Y-57325812D01*
X151944180Y-57289502D01*
X152054494Y-57230537D01*
X152151185Y-57151185D01*
X152230537Y-57054494D01*
X152289502Y-56944180D01*
X152325812Y-56824482D01*
X152338072Y-56700000D01*
X152338072Y-55300000D01*
X152325812Y-55175518D01*
X152289502Y-55055820D01*
X152230537Y-54945506D01*
X152151185Y-54848815D01*
X152054494Y-54769463D01*
X151944180Y-54710498D01*
X151824482Y-54674188D01*
X151700000Y-54661928D01*
X150300000Y-54661928D01*
X150175518Y-54674188D01*
X150055820Y-54710498D01*
X149945506Y-54769463D01*
X149848815Y-54848815D01*
X149769463Y-54945506D01*
X149710498Y-55055820D01*
X149674188Y-55175518D01*
X149661928Y-55300000D01*
X149661928Y-55732940D01*
X146786860Y-58608009D01*
X146743552Y-58643551D01*
X146601717Y-58816377D01*
X146545384Y-58921770D01*
X146496324Y-59013554D01*
X146431423Y-59227502D01*
X146409509Y-59450000D01*
X146415001Y-59505761D01*
X146415000Y-61397651D01*
X146398284Y-61366377D01*
X146256449Y-61193551D01*
X146083623Y-61051716D01*
X145886446Y-60946324D01*
X145672498Y-60881423D01*
X145450000Y-60859509D01*
X145227501Y-60881423D01*
X145013553Y-60946324D01*
X144816377Y-61051716D01*
X144643551Y-61193551D01*
X144501716Y-61366377D01*
X144396324Y-61563554D01*
X144331423Y-61777502D01*
X144315000Y-61944249D01*
X144315001Y-63611928D01*
X144074999Y-63611928D01*
X143901745Y-63628992D01*
X143735149Y-63679528D01*
X143581613Y-63761595D01*
X143455614Y-63865000D01*
X135884284Y-63865000D01*
X135679727Y-63728320D01*
X135418574Y-63620147D01*
X135141335Y-63565000D01*
X134858665Y-63565000D01*
X134581426Y-63620147D01*
X134320273Y-63728320D01*
X134085241Y-63885363D01*
X133885363Y-64085241D01*
X133728320Y-64320273D01*
X133620147Y-64581426D01*
X133565000Y-64858665D01*
X133565000Y-65141335D01*
X133620147Y-65418574D01*
X133728320Y-65679727D01*
X133885363Y-65914759D01*
X134085241Y-66114637D01*
X134320273Y-66271680D01*
X134581426Y-66379853D01*
X134858665Y-66435000D01*
X135141335Y-66435000D01*
X135418574Y-66379853D01*
X135679727Y-66271680D01*
X135884284Y-66135000D01*
X143432297Y-66135000D01*
X143447038Y-66152962D01*
X143581613Y-66263405D01*
X143735149Y-66345472D01*
X143901745Y-66396008D01*
X144074999Y-66413072D01*
X146925001Y-66413072D01*
X147098255Y-66396008D01*
X147264851Y-66345472D01*
X147418387Y-66263405D01*
X147552962Y-66152962D01*
X147663405Y-66018387D01*
X147715001Y-65921859D01*
X147715000Y-70078140D01*
X147663405Y-69981613D01*
X147552962Y-69847038D01*
X147418387Y-69736595D01*
X147264851Y-69654528D01*
X147098255Y-69603992D01*
X146925001Y-69586928D01*
X144074999Y-69586928D01*
X143901745Y-69603992D01*
X143735149Y-69654528D01*
X143581613Y-69736595D01*
X143447038Y-69847038D01*
X143336595Y-69981613D01*
X143254528Y-70135149D01*
X143203992Y-70301745D01*
X143186928Y-70474999D01*
X143186928Y-71500001D01*
X143203992Y-71673255D01*
X143254528Y-71839851D01*
X143336595Y-71993387D01*
X143447038Y-72127962D01*
X143581613Y-72238405D01*
X143735149Y-72320472D01*
X143901745Y-72371008D01*
X144074999Y-72388072D01*
X144365000Y-72388072D01*
X144365001Y-73666812D01*
X144331423Y-73777502D01*
X144309509Y-74000000D01*
X144331423Y-74222498D01*
X144396324Y-74436446D01*
X144501717Y-74633622D01*
X144602519Y-74756449D01*
X144643552Y-74806448D01*
X144686854Y-74841985D01*
X144906890Y-75062022D01*
X143535750Y-75065000D01*
X143377000Y-75223750D01*
X143377000Y-76723000D01*
X145426250Y-76723000D01*
X145585000Y-76564250D01*
X145587919Y-75743051D01*
X145715001Y-75870133D01*
X145715000Y-77961928D01*
X145587937Y-77961928D01*
X145585000Y-77135750D01*
X145426250Y-76977000D01*
X143377000Y-76977000D01*
X143377000Y-78476250D01*
X143535750Y-78635000D01*
X144311928Y-78636686D01*
X144311928Y-81100000D01*
X144324188Y-81224482D01*
X144360498Y-81344180D01*
X144419463Y-81454494D01*
X144498815Y-81551185D01*
X144595506Y-81630537D01*
X144705820Y-81689502D01*
X144825518Y-81725812D01*
X144950000Y-81738072D01*
X148750000Y-81738072D01*
X148874482Y-81725812D01*
X148994180Y-81689502D01*
X149104494Y-81630537D01*
X149201185Y-81551185D01*
X149280537Y-81454494D01*
X149339502Y-81344180D01*
X149375812Y-81224482D01*
X149388072Y-81100000D01*
X149388072Y-79600000D01*
X149486928Y-79600000D01*
X149499188Y-79724482D01*
X149535498Y-79844180D01*
X149594463Y-79954494D01*
X149673815Y-80051185D01*
X149770506Y-80130537D01*
X149880820Y-80189502D01*
X150000518Y-80225812D01*
X150125000Y-80238072D01*
X150714250Y-80235000D01*
X150873000Y-80076250D01*
X150873000Y-79127000D01*
X149648750Y-79127000D01*
X149490000Y-79285750D01*
X149486928Y-79600000D01*
X149388072Y-79600000D01*
X149388072Y-78600000D01*
X149375812Y-78475518D01*
X149339502Y-78355820D01*
X149280537Y-78245506D01*
X149201185Y-78148815D01*
X149104494Y-78069463D01*
X148994180Y-78010498D01*
X148874482Y-77974188D01*
X148750000Y-77961928D01*
X147985000Y-77961928D01*
X147985000Y-75455751D01*
X147990491Y-75400000D01*
X147968577Y-75177501D01*
X147935686Y-75069074D01*
X147986446Y-75053676D01*
X148183623Y-74948284D01*
X148356449Y-74806449D01*
X148498284Y-74633623D01*
X148603676Y-74436447D01*
X148668577Y-74222499D01*
X148685000Y-74055752D01*
X148685000Y-73245132D01*
X149613146Y-72316987D01*
X149656449Y-72281449D01*
X149771404Y-72141377D01*
X149798284Y-72108623D01*
X149865000Y-71983805D01*
X149865001Y-76108134D01*
X149847498Y-76122498D01*
X149693167Y-76310551D01*
X149578489Y-76525099D01*
X149507870Y-76757898D01*
X149484025Y-77000000D01*
X149507870Y-77242102D01*
X149578489Y-77474901D01*
X149693167Y-77689449D01*
X149819436Y-77843309D01*
X149770506Y-77869463D01*
X149673815Y-77948815D01*
X149594463Y-78045506D01*
X149535498Y-78155820D01*
X149499188Y-78275518D01*
X149486928Y-78400000D01*
X149490000Y-78714250D01*
X149648750Y-78873000D01*
X150873000Y-78873000D01*
X150873000Y-78853000D01*
X151127000Y-78853000D01*
X151127000Y-78873000D01*
X151147000Y-78873000D01*
X151147000Y-79127000D01*
X151127000Y-79127000D01*
X151127000Y-80076250D01*
X151285750Y-80235000D01*
X151875000Y-80238072D01*
X151940000Y-80231670D01*
X151940000Y-82961928D01*
X151550000Y-82961928D01*
X151425518Y-82974188D01*
X151305820Y-83010498D01*
X151195506Y-83069463D01*
X151098815Y-83148815D01*
X151019463Y-83245506D01*
X150960498Y-83355820D01*
X150924188Y-83475518D01*
X150911928Y-83600000D01*
X150911928Y-84400000D01*
X150924188Y-84524482D01*
X150960498Y-84644180D01*
X151019463Y-84754494D01*
X151098815Y-84851185D01*
X151195506Y-84930537D01*
X151305820Y-84989502D01*
X151425518Y-85025812D01*
X151550000Y-85038072D01*
X152450000Y-85038072D01*
X152574482Y-85025812D01*
X152694180Y-84989502D01*
X152804494Y-84930537D01*
X152901185Y-84851185D01*
X152911928Y-84838095D01*
X152911928Y-85350000D01*
X152924188Y-85474482D01*
X152960498Y-85594180D01*
X153019463Y-85704494D01*
X153098815Y-85801185D01*
X153195506Y-85880537D01*
X153240001Y-85904320D01*
X153240000Y-88685198D01*
X152411131Y-89514068D01*
X152372421Y-89419467D01*
X152238078Y-89216526D01*
X152066725Y-89043693D01*
X151864946Y-88907610D01*
X151640496Y-88813507D01*
X151402000Y-88765000D01*
X151127000Y-88765000D01*
X151127000Y-89873000D01*
X151147000Y-89873000D01*
X151147000Y-90127000D01*
X151127000Y-90127000D01*
X151127000Y-90147000D01*
X150873000Y-90147000D01*
X150873000Y-90127000D01*
X150853000Y-90127000D01*
X150853000Y-89873000D01*
X150873000Y-89873000D01*
X150873000Y-88765000D01*
X150598000Y-88765000D01*
X150359504Y-88813507D01*
X150135054Y-88907610D01*
X149933275Y-89043693D01*
X149761922Y-89216526D01*
X149627579Y-89419467D01*
X149535409Y-89644718D01*
X149531538Y-89682391D01*
X149656268Y-89872998D01*
X149603130Y-89872998D01*
X149216995Y-89486864D01*
X149181449Y-89443551D01*
X149008623Y-89301716D01*
X148811447Y-89196324D01*
X148597499Y-89131423D01*
X148430752Y-89115000D01*
X148430751Y-89115000D01*
X148375000Y-89109509D01*
X148319249Y-89115000D01*
X146445396Y-89115000D01*
X146408316Y-89103752D01*
X146237500Y-89086928D01*
X145762500Y-89086928D01*
X145591684Y-89103752D01*
X145554604Y-89115000D01*
X130838072Y-89115000D01*
X130838072Y-88925000D01*
X130821008Y-88751746D01*
X130770472Y-88585150D01*
X130688405Y-88431614D01*
X130577962Y-88297038D01*
X130459721Y-88200000D01*
X136411928Y-88200000D01*
X136424188Y-88324482D01*
X136460498Y-88444180D01*
X136519463Y-88554494D01*
X136598815Y-88651185D01*
X136695506Y-88730537D01*
X136805820Y-88789502D01*
X136925518Y-88825812D01*
X137050000Y-88838072D01*
X140714250Y-88835000D01*
X140873000Y-88676250D01*
X140873000Y-87177000D01*
X141127000Y-87177000D01*
X141127000Y-88676250D01*
X141285750Y-88835000D01*
X144950000Y-88838072D01*
X145074482Y-88825812D01*
X145194180Y-88789502D01*
X145304494Y-88730537D01*
X145401185Y-88651185D01*
X145480537Y-88554494D01*
X145539502Y-88444180D01*
X145575812Y-88324482D01*
X145588072Y-88200000D01*
X145585000Y-87335750D01*
X145426250Y-87177000D01*
X141127000Y-87177000D01*
X140873000Y-87177000D01*
X136573750Y-87177000D01*
X136415000Y-87335750D01*
X136411928Y-88200000D01*
X130459721Y-88200000D01*
X130443386Y-88186595D01*
X130289850Y-88104528D01*
X130123254Y-88053992D01*
X129950000Y-88036928D01*
X129025000Y-88036928D01*
X128851746Y-88053992D01*
X128685150Y-88104528D01*
X128531614Y-88186595D01*
X128397038Y-88297038D01*
X128286595Y-88431614D01*
X128204528Y-88585150D01*
X128153992Y-88751746D01*
X128136928Y-88925000D01*
X128136928Y-91075000D01*
X128153992Y-91248254D01*
X128204528Y-91414850D01*
X128286595Y-91568386D01*
X128397038Y-91702962D01*
X128531614Y-91813405D01*
X128685150Y-91895472D01*
X128851746Y-91946008D01*
X129025000Y-91963072D01*
X129950000Y-91963072D01*
X130123254Y-91946008D01*
X130289850Y-91895472D01*
X130443386Y-91813405D01*
X130577962Y-91702962D01*
X130688405Y-91568386D01*
X130770472Y-91414850D01*
X130779527Y-91385000D01*
X139998353Y-91385000D01*
X139960498Y-91455820D01*
X139924188Y-91575518D01*
X139911928Y-91700000D01*
X139915000Y-92564250D01*
X140073750Y-92723000D01*
X142123000Y-92723000D01*
X142123000Y-92703000D01*
X142377000Y-92703000D01*
X142377000Y-92723000D01*
X144426250Y-92723000D01*
X144585000Y-92564250D01*
X144588072Y-91700000D01*
X144575812Y-91575518D01*
X144539502Y-91455820D01*
X144501647Y-91385000D01*
X144951282Y-91385000D01*
X144917123Y-91497604D01*
X144901717Y-91516377D01*
X144870106Y-91575518D01*
X144796324Y-91713554D01*
X144731423Y-91927502D01*
X144709509Y-92150000D01*
X144715001Y-92205761D01*
X144715001Y-93961928D01*
X144587937Y-93961928D01*
X144585000Y-93135750D01*
X144426250Y-92977000D01*
X142377000Y-92977000D01*
X142377000Y-94476250D01*
X142535750Y-94635000D01*
X143311928Y-94636686D01*
X143311928Y-97100000D01*
X143324188Y-97224482D01*
X143360498Y-97344180D01*
X143419463Y-97454494D01*
X143498815Y-97551185D01*
X143595506Y-97630537D01*
X143705820Y-97689502D01*
X143825518Y-97725812D01*
X143950000Y-97738072D01*
X147750000Y-97738072D01*
X147874482Y-97725812D01*
X147994180Y-97689502D01*
X148104494Y-97630537D01*
X148201185Y-97551185D01*
X148280537Y-97454494D01*
X148339502Y-97344180D01*
X148375812Y-97224482D01*
X148388072Y-97100000D01*
X148388072Y-96993203D01*
X149457368Y-98062500D01*
X148387331Y-99132538D01*
X148388072Y-98900000D01*
X148375812Y-98775518D01*
X148339502Y-98655820D01*
X148280537Y-98545506D01*
X148201185Y-98448815D01*
X148104494Y-98369463D01*
X147994180Y-98310498D01*
X147874482Y-98274188D01*
X147750000Y-98261928D01*
X146135750Y-98265000D01*
X145977000Y-98423750D01*
X145977000Y-100023000D01*
X145997000Y-100023000D01*
X145997000Y-100277000D01*
X145977000Y-100277000D01*
X145977000Y-101876250D01*
X146135750Y-102035000D01*
X147315001Y-102037244D01*
X147315002Y-104702686D01*
X147301745Y-104703992D01*
X147135149Y-104754528D01*
X146981613Y-104836595D01*
X146847038Y-104947038D01*
X146736595Y-105081613D01*
X146654528Y-105235149D01*
X146603992Y-105401745D01*
X146586928Y-105574999D01*
X146586928Y-106795441D01*
X146436874Y-106945495D01*
X146393561Y-106981041D01*
X146251726Y-107153867D01*
X146152116Y-107340226D01*
X146146334Y-107351044D01*
X146081433Y-107564992D01*
X146059519Y-107787490D01*
X146065010Y-107843241D01*
X146065011Y-129000177D01*
X146051716Y-129016377D01*
X145946325Y-129213553D01*
X145946324Y-129213554D01*
X145881423Y-129427502D01*
X145859509Y-129650000D01*
X145865000Y-129705751D01*
X145865000Y-131005752D01*
X145881423Y-131172499D01*
X145946324Y-131386447D01*
X146051717Y-131583623D01*
X146193552Y-131756449D01*
X146366378Y-131898284D01*
X146556677Y-132000000D01*
X146366378Y-132101717D01*
X146193552Y-132243552D01*
X146051717Y-132416378D01*
X145946324Y-132613554D01*
X145881423Y-132827502D01*
X145859509Y-133050000D01*
X145881423Y-133272498D01*
X145946324Y-133486446D01*
X146051717Y-133683622D01*
X146158012Y-133813143D01*
X149129868Y-136785000D01*
X148185751Y-136785000D01*
X148129999Y-136779509D01*
X148074248Y-136785000D01*
X147907501Y-136801423D01*
X147693553Y-136866324D01*
X147496377Y-136971716D01*
X147323551Y-137113551D01*
X147288004Y-137156865D01*
X147208012Y-137236857D01*
X147101717Y-137366378D01*
X147038363Y-137484904D01*
X146948284Y-137316377D01*
X146806449Y-137143551D01*
X146633623Y-137001716D01*
X146436447Y-136896324D01*
X146222499Y-136831423D01*
X146000000Y-136809509D01*
X145777502Y-136831423D01*
X145666814Y-136865000D01*
X145135000Y-136865000D01*
X145135000Y-125055751D01*
X145140491Y-124999999D01*
X145118577Y-124777501D01*
X145053676Y-124563553D01*
X144948284Y-124366377D01*
X144806449Y-124193551D01*
X144763141Y-124158009D01*
X136829492Y-116224361D01*
X136829488Y-116224356D01*
X136605132Y-116000000D01*
X142775646Y-109829487D01*
X142818949Y-109793949D01*
X142893598Y-109702990D01*
X142960784Y-109621123D01*
X143066176Y-109423947D01*
X143131077Y-109209999D01*
X143145979Y-109058693D01*
X143152962Y-109052962D01*
X143263405Y-108918387D01*
X143345472Y-108764851D01*
X143396008Y-108598255D01*
X143413072Y-108425001D01*
X143413072Y-105574999D01*
X143396008Y-105401745D01*
X143345472Y-105235149D01*
X143263405Y-105081613D01*
X143152962Y-104947038D01*
X143019236Y-104837292D01*
X143950000Y-104838072D01*
X144074482Y-104825812D01*
X144194180Y-104789502D01*
X144304494Y-104730537D01*
X144401185Y-104651185D01*
X144480537Y-104554494D01*
X144539502Y-104444180D01*
X144575812Y-104324482D01*
X144588072Y-104200000D01*
X144585000Y-103335750D01*
X144426250Y-103177000D01*
X140127000Y-103177000D01*
X140127000Y-104676250D01*
X140285750Y-104835000D01*
X141008463Y-104835606D01*
X141006613Y-104836595D01*
X140872038Y-104947038D01*
X140761595Y-105081613D01*
X140679528Y-105235149D01*
X140628992Y-105401745D01*
X140611928Y-105574999D01*
X140611928Y-108425001D01*
X140628992Y-108598255D01*
X140668004Y-108726863D01*
X134822719Y-114572150D01*
X134581426Y-114620147D01*
X134320273Y-114728320D01*
X134085241Y-114885363D01*
X133885363Y-115085241D01*
X133728320Y-115320273D01*
X133620147Y-115581426D01*
X133565000Y-115858665D01*
X133565000Y-116141335D01*
X133620147Y-116418574D01*
X133728320Y-116679727D01*
X133885363Y-116914759D01*
X134085241Y-117114637D01*
X134320273Y-117271680D01*
X134581426Y-117379853D01*
X134822718Y-117427850D01*
X135224356Y-117829488D01*
X135224361Y-117829492D01*
X142865000Y-125470132D01*
X142865001Y-137294239D01*
X142859509Y-137350000D01*
X142881423Y-137572498D01*
X142946324Y-137786446D01*
X142987910Y-137864248D01*
X143051717Y-137983623D01*
X143193552Y-138156449D01*
X143236860Y-138191991D01*
X143808004Y-138763135D01*
X143843551Y-138806449D01*
X144016376Y-138948283D01*
X144016377Y-138948284D01*
X144213553Y-139053676D01*
X144427501Y-139118577D01*
X144650000Y-139140491D01*
X144705752Y-139135000D01*
X145894249Y-139135000D01*
X145950000Y-139140491D01*
X146005751Y-139135000D01*
X146005752Y-139135000D01*
X146172499Y-139118577D01*
X146386447Y-139053676D01*
X146583623Y-138948284D01*
X146756449Y-138806449D01*
X146791993Y-138763139D01*
X146841989Y-138713143D01*
X146948284Y-138583622D01*
X147011637Y-138465095D01*
X147101717Y-138633622D01*
X147243552Y-138806448D01*
X147416378Y-138948283D01*
X147613554Y-139053676D01*
X147827502Y-139118577D01*
X148050000Y-139140491D01*
X148272498Y-139118577D01*
X148482081Y-139055000D01*
X150865001Y-139055000D01*
X150865000Y-141835532D01*
X150848815Y-141848815D01*
X150769463Y-141945506D01*
X150710498Y-142055820D01*
X150674188Y-142175518D01*
X150661928Y-142300000D01*
X150661928Y-143700000D01*
X150674188Y-143824482D01*
X150710498Y-143944180D01*
X150769463Y-144054494D01*
X150848815Y-144151185D01*
X150945506Y-144230537D01*
X151055820Y-144289502D01*
X151175518Y-144325812D01*
X151300000Y-144338072D01*
X152700000Y-144338072D01*
X152824482Y-144325812D01*
X152944180Y-144289502D01*
X153054494Y-144230537D01*
X153151185Y-144151185D01*
X153230537Y-144054494D01*
X153289502Y-143944180D01*
X153325812Y-143824482D01*
X153338072Y-143700000D01*
X153338072Y-142300000D01*
X153325812Y-142175518D01*
X153289502Y-142055820D01*
X153230537Y-141945506D01*
X153151185Y-141848815D01*
X153135000Y-141835532D01*
X153135000Y-138624288D01*
X153183061Y-138552359D01*
X153283696Y-138309405D01*
X153335000Y-138051486D01*
X153335000Y-137788514D01*
X153283696Y-137530595D01*
X153183061Y-137287641D01*
X153036962Y-137068987D01*
X152851013Y-136883038D01*
X152632359Y-136736939D01*
X152389405Y-136636304D01*
X152142279Y-136587147D01*
X148263646Y-132708514D01*
X150665000Y-132708514D01*
X150665000Y-132971486D01*
X150716304Y-133229405D01*
X150816939Y-133472359D01*
X150963038Y-133691013D01*
X151148987Y-133876962D01*
X151367641Y-134023061D01*
X151610595Y-134123696D01*
X151868514Y-134175000D01*
X152131486Y-134175000D01*
X152389405Y-134123696D01*
X152632359Y-134023061D01*
X152851013Y-133876962D01*
X153036962Y-133691013D01*
X153183061Y-133472359D01*
X153283696Y-133229405D01*
X153335000Y-132971486D01*
X153335000Y-132708514D01*
X153283696Y-132450595D01*
X153183061Y-132207641D01*
X153036962Y-131988987D01*
X152851013Y-131803038D01*
X152632359Y-131656939D01*
X152389405Y-131556304D01*
X152131486Y-131505000D01*
X151868514Y-131505000D01*
X151610595Y-131556304D01*
X151367641Y-131656939D01*
X151148987Y-131803038D01*
X150963038Y-131988987D01*
X150816939Y-132207641D01*
X150716304Y-132450595D01*
X150665000Y-132708514D01*
X148263646Y-132708514D01*
X147763143Y-132208012D01*
X147633622Y-132101717D01*
X147443324Y-132000000D01*
X147633623Y-131898284D01*
X147806449Y-131756449D01*
X147948284Y-131583623D01*
X148053676Y-131386447D01*
X148118577Y-131172499D01*
X148135000Y-131005752D01*
X148135000Y-130099812D01*
X148148294Y-130083613D01*
X148253686Y-129886437D01*
X148318587Y-129672489D01*
X148335010Y-129505742D01*
X148335010Y-129505741D01*
X148340501Y-129449990D01*
X148335010Y-129394238D01*
X148335010Y-122317609D01*
X150531538Y-122317609D01*
X150535409Y-122355282D01*
X150627579Y-122580533D01*
X150761922Y-122783474D01*
X150933275Y-122956307D01*
X151135054Y-123092390D01*
X151359504Y-123186493D01*
X151598000Y-123235000D01*
X151873000Y-123235000D01*
X151873000Y-122127000D01*
X150656269Y-122127000D01*
X150531538Y-122317609D01*
X148335010Y-122317609D01*
X148335010Y-114317609D01*
X150531538Y-114317609D01*
X150535409Y-114355282D01*
X150627579Y-114580533D01*
X150761922Y-114783474D01*
X150933275Y-114956307D01*
X151135054Y-115092390D01*
X151359504Y-115186493D01*
X151598000Y-115235000D01*
X151873000Y-115235000D01*
X151873000Y-114127000D01*
X150656269Y-114127000D01*
X150531538Y-114317609D01*
X148335010Y-114317609D01*
X148335010Y-109691664D01*
X148450001Y-109702990D01*
X148672500Y-109681076D01*
X148886448Y-109616175D01*
X149083624Y-109510783D01*
X149256450Y-109368948D01*
X149398285Y-109196122D01*
X149503677Y-108998946D01*
X149568578Y-108784998D01*
X149585001Y-108618251D01*
X149585001Y-107350000D01*
X149911928Y-107350000D01*
X149924188Y-107474482D01*
X149960498Y-107594180D01*
X150019463Y-107704494D01*
X150098815Y-107801185D01*
X150195506Y-107880537D01*
X150305820Y-107939502D01*
X150425518Y-107975812D01*
X150550000Y-107988072D01*
X150714250Y-107985000D01*
X150873000Y-107826250D01*
X150873000Y-107077000D01*
X151127000Y-107077000D01*
X151127000Y-107826250D01*
X151285750Y-107985000D01*
X151450000Y-107988072D01*
X151574482Y-107975812D01*
X151694180Y-107939502D01*
X151804494Y-107880537D01*
X151901185Y-107801185D01*
X151980537Y-107704494D01*
X152039502Y-107594180D01*
X152075812Y-107474482D01*
X152088072Y-107350000D01*
X152085000Y-107235750D01*
X151926250Y-107077000D01*
X151127000Y-107077000D01*
X150873000Y-107077000D01*
X150073750Y-107077000D01*
X149915000Y-107235750D01*
X149911928Y-107350000D01*
X149585001Y-107350000D01*
X149585001Y-101145130D01*
X150603130Y-100127002D01*
X150656268Y-100127002D01*
X150531538Y-100317609D01*
X150535409Y-100355282D01*
X150627579Y-100580533D01*
X150761922Y-100783474D01*
X150933275Y-100956307D01*
X151135054Y-101092390D01*
X151359504Y-101186493D01*
X151598000Y-101235000D01*
X151873000Y-101235000D01*
X151873000Y-100127000D01*
X151853000Y-100127000D01*
X151853000Y-99873000D01*
X151873000Y-99873000D01*
X151873000Y-99853000D01*
X152127000Y-99853000D01*
X152127000Y-99873000D01*
X152147000Y-99873000D01*
X152147000Y-100127000D01*
X152127000Y-100127000D01*
X152127000Y-101235000D01*
X152402000Y-101235000D01*
X152640496Y-101186493D01*
X152864946Y-101092390D01*
X153066725Y-100956307D01*
X153238078Y-100783474D01*
X153240000Y-100780570D01*
X153240000Y-102435198D01*
X151633199Y-104042000D01*
X151574482Y-104024188D01*
X151450000Y-104011928D01*
X150550000Y-104011928D01*
X150425518Y-104024188D01*
X150305820Y-104060498D01*
X150195506Y-104119463D01*
X150098815Y-104198815D01*
X150019463Y-104295506D01*
X149960498Y-104405820D01*
X149924188Y-104525518D01*
X149911928Y-104650000D01*
X149911928Y-105450000D01*
X149924188Y-105574482D01*
X149960498Y-105694180D01*
X150019463Y-105804494D01*
X150098815Y-105901185D01*
X150195506Y-105980537D01*
X150231918Y-106000000D01*
X150195506Y-106019463D01*
X150098815Y-106098815D01*
X150019463Y-106195506D01*
X149960498Y-106305820D01*
X149924188Y-106425518D01*
X149911928Y-106550000D01*
X149915000Y-106664250D01*
X150073750Y-106823000D01*
X150873000Y-106823000D01*
X150873000Y-106803000D01*
X151127000Y-106803000D01*
X151127000Y-106823000D01*
X151926250Y-106823000D01*
X152010857Y-106738393D01*
X152019463Y-106754494D01*
X152098815Y-106851185D01*
X152195506Y-106930537D01*
X152240000Y-106954320D01*
X152240001Y-107296288D01*
X152196063Y-107340226D01*
X152082795Y-107509744D01*
X152004774Y-107698102D01*
X151965000Y-107898061D01*
X151965000Y-108101939D01*
X152004774Y-108301898D01*
X152082795Y-108490256D01*
X152196063Y-108659774D01*
X152340226Y-108803937D01*
X152509744Y-108917205D01*
X152698102Y-108995226D01*
X152898061Y-109035000D01*
X153101939Y-109035000D01*
X153301898Y-108995226D01*
X153490256Y-108917205D01*
X153659774Y-108803937D01*
X153803937Y-108659774D01*
X153917205Y-108490256D01*
X153995226Y-108301898D01*
X154035000Y-108101939D01*
X154035000Y-107898061D01*
X153995226Y-107698102D01*
X153917205Y-107509744D01*
X153803937Y-107340226D01*
X153760000Y-107296289D01*
X153760000Y-106954320D01*
X153804494Y-106930537D01*
X153901185Y-106851185D01*
X153980537Y-106754494D01*
X154039502Y-106644180D01*
X154075812Y-106524482D01*
X154088072Y-106400000D01*
X154088072Y-105600000D01*
X154075812Y-105475518D01*
X154039502Y-105355820D01*
X153980537Y-105245506D01*
X153901185Y-105148815D01*
X153804494Y-105069463D01*
X153694180Y-105010498D01*
X153574482Y-104974188D01*
X153450000Y-104961928D01*
X152862873Y-104961928D01*
X154340000Y-103484801D01*
X154340000Y-111859537D01*
X154338150Y-111858018D01*
X153716995Y-111236864D01*
X153681449Y-111193551D01*
X153508623Y-111051716D01*
X153311447Y-110946324D01*
X153097499Y-110881423D01*
X153053907Y-110877130D01*
X152964851Y-110829528D01*
X152798255Y-110778992D01*
X152625001Y-110761928D01*
X151374999Y-110761928D01*
X151201745Y-110778992D01*
X151035149Y-110829528D01*
X150881613Y-110911595D01*
X150747038Y-111022038D01*
X150636595Y-111156613D01*
X150554528Y-111310149D01*
X150503992Y-111476745D01*
X150486928Y-111649999D01*
X150486928Y-112350001D01*
X150503992Y-112523255D01*
X150554528Y-112689851D01*
X150636595Y-112843387D01*
X150747038Y-112977962D01*
X150881613Y-113088405D01*
X150886406Y-113090967D01*
X150761922Y-113216526D01*
X150627579Y-113419467D01*
X150535409Y-113644718D01*
X150531538Y-113682391D01*
X150656269Y-113873000D01*
X151873000Y-113873000D01*
X151873000Y-113853000D01*
X152127000Y-113853000D01*
X152127000Y-113873000D01*
X152147000Y-113873000D01*
X152147000Y-114127000D01*
X152127000Y-114127000D01*
X152127000Y-115235000D01*
X152402000Y-115235000D01*
X152440011Y-115227269D01*
X152440010Y-118761928D01*
X151374999Y-118761928D01*
X151201745Y-118778992D01*
X151035149Y-118829528D01*
X150881613Y-118911595D01*
X150747038Y-119022038D01*
X150636595Y-119156613D01*
X150554528Y-119310149D01*
X150503992Y-119476745D01*
X150486928Y-119649999D01*
X150486928Y-120350001D01*
X150503992Y-120523255D01*
X150554528Y-120689851D01*
X150636595Y-120843387D01*
X150747038Y-120977962D01*
X150881613Y-121088405D01*
X150886406Y-121090967D01*
X150761922Y-121216526D01*
X150627579Y-121419467D01*
X150535409Y-121644718D01*
X150531538Y-121682391D01*
X150656269Y-121873000D01*
X151873000Y-121873000D01*
X151873000Y-121853000D01*
X152127000Y-121853000D01*
X152127000Y-121873000D01*
X152147000Y-121873000D01*
X152147000Y-122127000D01*
X152127000Y-122127000D01*
X152127000Y-123235000D01*
X152402000Y-123235000D01*
X152440011Y-123227269D01*
X152440010Y-125714857D01*
X151695442Y-126459427D01*
X151610595Y-126476304D01*
X151367641Y-126576939D01*
X151148987Y-126723038D01*
X150963038Y-126908987D01*
X150816939Y-127127641D01*
X150716304Y-127370595D01*
X150665000Y-127628514D01*
X150665000Y-127891486D01*
X150716304Y-128149405D01*
X150816939Y-128392359D01*
X150963038Y-128611013D01*
X151148987Y-128796962D01*
X151367641Y-128943061D01*
X151610595Y-129043696D01*
X151868514Y-129095000D01*
X152131486Y-129095000D01*
X152389405Y-129043696D01*
X152632359Y-128943061D01*
X152851013Y-128796962D01*
X153036962Y-128611013D01*
X153183061Y-128392359D01*
X153283696Y-128149405D01*
X153300573Y-128064558D01*
X154338156Y-127026977D01*
X154340000Y-127025463D01*
X154340000Y-149340000D01*
X119127000Y-149340000D01*
X119127000Y-116992702D01*
X129186903Y-116992702D01*
X129258486Y-117236671D01*
X129513996Y-117357571D01*
X129788184Y-117426300D01*
X130070512Y-117440217D01*
X130350130Y-117398787D01*
X130616292Y-117303603D01*
X130741514Y-117236671D01*
X130813097Y-116992702D01*
X130000000Y-116179605D01*
X129186903Y-116992702D01*
X119127000Y-116992702D01*
X119127000Y-116070512D01*
X128559783Y-116070512D01*
X128601213Y-116350130D01*
X128696397Y-116616292D01*
X128763329Y-116741514D01*
X129007298Y-116813097D01*
X129820395Y-116000000D01*
X130179605Y-116000000D01*
X130992702Y-116813097D01*
X131236671Y-116741514D01*
X131357571Y-116486004D01*
X131426300Y-116211816D01*
X131440217Y-115929488D01*
X131398787Y-115649870D01*
X131303603Y-115383708D01*
X131236671Y-115258486D01*
X130992702Y-115186903D01*
X130179605Y-116000000D01*
X129820395Y-116000000D01*
X129007298Y-115186903D01*
X128763329Y-115258486D01*
X128642429Y-115513996D01*
X128573700Y-115788184D01*
X128559783Y-116070512D01*
X119127000Y-116070512D01*
X119127000Y-115007298D01*
X129186903Y-115007298D01*
X130000000Y-115820395D01*
X130813097Y-115007298D01*
X130741514Y-114763329D01*
X130486004Y-114642429D01*
X130211816Y-114573700D01*
X129929488Y-114559783D01*
X129649870Y-114601213D01*
X129383708Y-114696397D01*
X129258486Y-114763329D01*
X129186903Y-115007298D01*
X119127000Y-115007298D01*
X119127000Y-105385807D01*
X119150000Y-105388072D01*
X119650000Y-105388072D01*
X119674450Y-105385664D01*
X119699009Y-105385664D01*
X119823490Y-105373404D01*
X119919623Y-105354282D01*
X120039319Y-105317973D01*
X120129875Y-105280464D01*
X120240192Y-105221498D01*
X120321691Y-105167042D01*
X120418382Y-105087690D01*
X120487690Y-105018382D01*
X120567042Y-104921691D01*
X120621498Y-104840192D01*
X120680464Y-104729875D01*
X120717973Y-104639319D01*
X120754282Y-104519623D01*
X120773404Y-104423490D01*
X120785664Y-104299009D01*
X120785664Y-104274450D01*
X120788072Y-104250000D01*
X120788072Y-104200000D01*
X135411928Y-104200000D01*
X135424188Y-104324482D01*
X135460498Y-104444180D01*
X135519463Y-104554494D01*
X135598815Y-104651185D01*
X135695506Y-104730537D01*
X135805820Y-104789502D01*
X135925518Y-104825812D01*
X136050000Y-104838072D01*
X139714250Y-104835000D01*
X139873000Y-104676250D01*
X139873000Y-103177000D01*
X135573750Y-103177000D01*
X135415000Y-103335750D01*
X135411928Y-104200000D01*
X120788072Y-104200000D01*
X120788072Y-103936729D01*
X123216730Y-101508072D01*
X125750000Y-101508072D01*
X125874482Y-101495812D01*
X125994180Y-101459502D01*
X126096144Y-101405000D01*
X129612420Y-101405000D01*
X129624188Y-101524482D01*
X129660498Y-101644180D01*
X129719463Y-101754494D01*
X129798815Y-101851185D01*
X129895506Y-101930537D01*
X130005820Y-101989502D01*
X130125518Y-102025812D01*
X130250000Y-102038072D01*
X134050000Y-102038072D01*
X134174482Y-102025812D01*
X134294180Y-101989502D01*
X134404494Y-101930537D01*
X134441703Y-101900000D01*
X135411928Y-101900000D01*
X135415000Y-102764250D01*
X135573750Y-102923000D01*
X139873000Y-102923000D01*
X139873000Y-101423750D01*
X140127000Y-101423750D01*
X140127000Y-102923000D01*
X144426250Y-102923000D01*
X144585000Y-102764250D01*
X144587586Y-102036859D01*
X145564250Y-102035000D01*
X145723000Y-101876250D01*
X145723000Y-100277000D01*
X143473750Y-100277000D01*
X143315000Y-100435750D01*
X143312366Y-101262463D01*
X140285750Y-101265000D01*
X140127000Y-101423750D01*
X139873000Y-101423750D01*
X139714250Y-101265000D01*
X136050000Y-101261928D01*
X135925518Y-101274188D01*
X135805820Y-101310498D01*
X135695506Y-101369463D01*
X135598815Y-101448815D01*
X135519463Y-101545506D01*
X135460498Y-101655820D01*
X135424188Y-101775518D01*
X135411928Y-101900000D01*
X134441703Y-101900000D01*
X134501185Y-101851185D01*
X134580537Y-101754494D01*
X134639502Y-101644180D01*
X134675812Y-101524482D01*
X134688072Y-101400000D01*
X134688072Y-98900000D01*
X143311928Y-98900000D01*
X143315000Y-99864250D01*
X143473750Y-100023000D01*
X145723000Y-100023000D01*
X145723000Y-98423750D01*
X145564250Y-98265000D01*
X143950000Y-98261928D01*
X143825518Y-98274188D01*
X143705820Y-98310498D01*
X143595506Y-98369463D01*
X143498815Y-98448815D01*
X143419463Y-98545506D01*
X143360498Y-98655820D01*
X143324188Y-98775518D01*
X143311928Y-98900000D01*
X134688072Y-98900000D01*
X134675812Y-98775518D01*
X134639502Y-98655820D01*
X134580537Y-98545506D01*
X134501185Y-98448815D01*
X134404494Y-98369463D01*
X134294180Y-98310498D01*
X134174482Y-98274188D01*
X134050000Y-98261928D01*
X130250000Y-98261928D01*
X130125518Y-98274188D01*
X130005820Y-98310498D01*
X129895506Y-98369463D01*
X129798815Y-98448815D01*
X129719463Y-98545506D01*
X129660498Y-98655820D01*
X129624188Y-98775518D01*
X129611928Y-98900000D01*
X129611928Y-99135000D01*
X126096144Y-99135000D01*
X125994180Y-99080498D01*
X125874482Y-99044188D01*
X125750000Y-99031928D01*
X121750000Y-99031928D01*
X121625518Y-99044188D01*
X121505820Y-99080498D01*
X121395506Y-99139463D01*
X121298815Y-99218815D01*
X121219463Y-99315506D01*
X121160498Y-99425820D01*
X121124188Y-99545518D01*
X121111928Y-99670000D01*
X121111928Y-100870000D01*
X121124188Y-100994482D01*
X121160498Y-101114180D01*
X121219463Y-101224494D01*
X121278620Y-101296578D01*
X119927186Y-102648012D01*
X119919623Y-102645718D01*
X119823490Y-102626596D01*
X119699009Y-102614336D01*
X119674450Y-102614336D01*
X119650000Y-102611928D01*
X119150000Y-102611928D01*
X119127000Y-102614193D01*
X119127000Y-95385807D01*
X119150000Y-95388072D01*
X119650000Y-95388072D01*
X119674450Y-95385664D01*
X119699009Y-95385664D01*
X119823490Y-95373404D01*
X119919623Y-95354282D01*
X119927186Y-95351988D01*
X121278620Y-96703422D01*
X121219463Y-96775506D01*
X121160498Y-96885820D01*
X121124188Y-97005518D01*
X121111928Y-97130000D01*
X121111928Y-98330000D01*
X121124188Y-98454482D01*
X121160498Y-98574180D01*
X121219463Y-98684494D01*
X121298815Y-98781185D01*
X121395506Y-98860537D01*
X121505820Y-98919502D01*
X121625518Y-98955812D01*
X121750000Y-98968072D01*
X125750000Y-98968072D01*
X125874482Y-98955812D01*
X125994180Y-98919502D01*
X126096144Y-98865000D01*
X126214249Y-98865000D01*
X126270000Y-98870491D01*
X126325751Y-98865000D01*
X126325752Y-98865000D01*
X126492499Y-98848577D01*
X126706447Y-98783676D01*
X126903623Y-98678284D01*
X127076449Y-98536449D01*
X127111996Y-98493135D01*
X127291988Y-98313143D01*
X127369139Y-98219135D01*
X127463143Y-98141988D01*
X128620133Y-96985000D01*
X129611928Y-96985000D01*
X129611928Y-97100000D01*
X129624188Y-97224482D01*
X129660498Y-97344180D01*
X129719463Y-97454494D01*
X129798815Y-97551185D01*
X129895506Y-97630537D01*
X130005820Y-97689502D01*
X130125518Y-97725812D01*
X130250000Y-97738072D01*
X134050000Y-97738072D01*
X134174482Y-97725812D01*
X134294180Y-97689502D01*
X134404494Y-97630537D01*
X134501185Y-97551185D01*
X134580537Y-97454494D01*
X134639502Y-97344180D01*
X134675812Y-97224482D01*
X134688072Y-97100000D01*
X134688072Y-94600000D01*
X134675812Y-94475518D01*
X134639502Y-94355820D01*
X134580537Y-94245506D01*
X134501185Y-94148815D01*
X134404494Y-94069463D01*
X134294180Y-94010498D01*
X134259573Y-94000000D01*
X139911928Y-94000000D01*
X139924188Y-94124482D01*
X139960498Y-94244180D01*
X140019463Y-94354494D01*
X140098815Y-94451185D01*
X140195506Y-94530537D01*
X140305820Y-94589502D01*
X140425518Y-94625812D01*
X140550000Y-94638072D01*
X141964250Y-94635000D01*
X142123000Y-94476250D01*
X142123000Y-92977000D01*
X140073750Y-92977000D01*
X139915000Y-93135750D01*
X139911928Y-94000000D01*
X134259573Y-94000000D01*
X134174482Y-93974188D01*
X134050000Y-93961928D01*
X130250000Y-93961928D01*
X130125518Y-93974188D01*
X130005820Y-94010498D01*
X129895506Y-94069463D01*
X129798815Y-94148815D01*
X129719463Y-94245506D01*
X129660498Y-94355820D01*
X129624188Y-94475518D01*
X129611928Y-94600000D01*
X129611928Y-94715000D01*
X128205752Y-94715000D01*
X128150000Y-94709509D01*
X127927501Y-94731423D01*
X127713553Y-94796324D01*
X127516377Y-94901716D01*
X127386856Y-95008011D01*
X127386855Y-95008012D01*
X127343551Y-95043551D01*
X127308013Y-95086854D01*
X125886911Y-96507958D01*
X125874482Y-96504188D01*
X125750000Y-96491928D01*
X123216730Y-96491928D01*
X120788072Y-94063271D01*
X120788072Y-93750000D01*
X120785664Y-93725550D01*
X120785664Y-93700991D01*
X120773404Y-93576510D01*
X120754282Y-93480377D01*
X120717973Y-93360681D01*
X120680464Y-93270125D01*
X120621498Y-93159808D01*
X120567042Y-93078309D01*
X120487690Y-92981618D01*
X120418382Y-92912310D01*
X120321691Y-92832958D01*
X120240192Y-92778502D01*
X120129875Y-92719536D01*
X120039319Y-92682027D01*
X119919623Y-92645718D01*
X119823490Y-92626596D01*
X119699009Y-92614336D01*
X119674450Y-92614336D01*
X119650000Y-92611928D01*
X119150000Y-92611928D01*
X119127000Y-92614193D01*
X119127000Y-91325000D01*
X125161928Y-91325000D01*
X125174188Y-91449482D01*
X125210498Y-91569180D01*
X125269463Y-91679494D01*
X125348815Y-91776185D01*
X125445506Y-91855537D01*
X125555820Y-91914502D01*
X125675518Y-91950812D01*
X125800000Y-91963072D01*
X126226750Y-91960000D01*
X126385500Y-91801250D01*
X126385500Y-90127000D01*
X126639500Y-90127000D01*
X126639500Y-91801250D01*
X126798250Y-91960000D01*
X127225000Y-91963072D01*
X127349482Y-91950812D01*
X127469180Y-91914502D01*
X127579494Y-91855537D01*
X127676185Y-91776185D01*
X127755537Y-91679494D01*
X127814502Y-91569180D01*
X127850812Y-91449482D01*
X127863072Y-91325000D01*
X127860000Y-90285750D01*
X127701250Y-90127000D01*
X126639500Y-90127000D01*
X126385500Y-90127000D01*
X125323750Y-90127000D01*
X125165000Y-90285750D01*
X125161928Y-91325000D01*
X119127000Y-91325000D01*
X119127000Y-88675000D01*
X125161928Y-88675000D01*
X125165000Y-89714250D01*
X125323750Y-89873000D01*
X126385500Y-89873000D01*
X126385500Y-88198750D01*
X126639500Y-88198750D01*
X126639500Y-89873000D01*
X127701250Y-89873000D01*
X127860000Y-89714250D01*
X127863072Y-88675000D01*
X127850812Y-88550518D01*
X127814502Y-88430820D01*
X127755537Y-88320506D01*
X127676185Y-88223815D01*
X127579494Y-88144463D01*
X127469180Y-88085498D01*
X127349482Y-88049188D01*
X127225000Y-88036928D01*
X126798250Y-88040000D01*
X126639500Y-88198750D01*
X126385500Y-88198750D01*
X126226750Y-88040000D01*
X125800000Y-88036928D01*
X125675518Y-88049188D01*
X125555820Y-88085498D01*
X125445506Y-88144463D01*
X125348815Y-88223815D01*
X125269463Y-88320506D01*
X125210498Y-88430820D01*
X125174188Y-88550518D01*
X125161928Y-88675000D01*
X119127000Y-88675000D01*
X119127000Y-86385807D01*
X119150000Y-86388072D01*
X119650000Y-86388072D01*
X119674450Y-86385664D01*
X119699009Y-86385664D01*
X119823490Y-86373404D01*
X119919623Y-86354282D01*
X120039319Y-86317973D01*
X120129875Y-86280464D01*
X120240192Y-86221498D01*
X120321691Y-86167042D01*
X120418382Y-86087690D01*
X120487690Y-86018382D01*
X120567042Y-85921691D01*
X120621498Y-85840192D01*
X120680464Y-85729875D01*
X120717973Y-85639319D01*
X120754282Y-85519623D01*
X120773404Y-85423490D01*
X120785664Y-85299009D01*
X120785664Y-85274450D01*
X120788072Y-85250000D01*
X120788072Y-84936729D01*
X123216730Y-82508072D01*
X125750000Y-82508072D01*
X125874482Y-82495812D01*
X125994180Y-82459502D01*
X126096144Y-82405000D01*
X126279869Y-82405000D01*
X128788009Y-84913141D01*
X128823551Y-84956449D01*
X128996377Y-85098284D01*
X129193553Y-85203676D01*
X129407501Y-85268577D01*
X129629999Y-85290491D01*
X129685751Y-85285000D01*
X130611928Y-85285000D01*
X130611928Y-85400000D01*
X130624188Y-85524482D01*
X130660498Y-85644180D01*
X130719463Y-85754494D01*
X130798815Y-85851185D01*
X130895506Y-85930537D01*
X131005820Y-85989502D01*
X131125518Y-86025812D01*
X131250000Y-86038072D01*
X135050000Y-86038072D01*
X135174482Y-86025812D01*
X135294180Y-85989502D01*
X135404494Y-85930537D01*
X135441703Y-85900000D01*
X136411928Y-85900000D01*
X136415000Y-86764250D01*
X136573750Y-86923000D01*
X140873000Y-86923000D01*
X140873000Y-85423750D01*
X141127000Y-85423750D01*
X141127000Y-86923000D01*
X145426250Y-86923000D01*
X145585000Y-86764250D01*
X145587586Y-86036859D01*
X146564250Y-86035000D01*
X146723000Y-85876250D01*
X146723000Y-84277000D01*
X146977000Y-84277000D01*
X146977000Y-85876250D01*
X147135750Y-86035000D01*
X148750000Y-86038072D01*
X148874482Y-86025812D01*
X148994180Y-85989502D01*
X149104494Y-85930537D01*
X149201185Y-85851185D01*
X149280537Y-85754494D01*
X149339502Y-85644180D01*
X149375812Y-85524482D01*
X149388072Y-85400000D01*
X149385000Y-84435750D01*
X149226250Y-84277000D01*
X146977000Y-84277000D01*
X146723000Y-84277000D01*
X144473750Y-84277000D01*
X144315000Y-84435750D01*
X144312366Y-85262463D01*
X141285750Y-85265000D01*
X141127000Y-85423750D01*
X140873000Y-85423750D01*
X140714250Y-85265000D01*
X137050000Y-85261928D01*
X136925518Y-85274188D01*
X136805820Y-85310498D01*
X136695506Y-85369463D01*
X136598815Y-85448815D01*
X136519463Y-85545506D01*
X136460498Y-85655820D01*
X136424188Y-85775518D01*
X136411928Y-85900000D01*
X135441703Y-85900000D01*
X135501185Y-85851185D01*
X135580537Y-85754494D01*
X135639502Y-85644180D01*
X135675812Y-85524482D01*
X135688072Y-85400000D01*
X135688072Y-82900000D01*
X144311928Y-82900000D01*
X144315000Y-83864250D01*
X144473750Y-84023000D01*
X146723000Y-84023000D01*
X146723000Y-82423750D01*
X146977000Y-82423750D01*
X146977000Y-84023000D01*
X149226250Y-84023000D01*
X149385000Y-83864250D01*
X149388072Y-82900000D01*
X149375812Y-82775518D01*
X149339502Y-82655820D01*
X149280537Y-82545506D01*
X149201185Y-82448815D01*
X149104494Y-82369463D01*
X148994180Y-82310498D01*
X148874482Y-82274188D01*
X148750000Y-82261928D01*
X147135750Y-82265000D01*
X146977000Y-82423750D01*
X146723000Y-82423750D01*
X146564250Y-82265000D01*
X144950000Y-82261928D01*
X144825518Y-82274188D01*
X144705820Y-82310498D01*
X144595506Y-82369463D01*
X144498815Y-82448815D01*
X144419463Y-82545506D01*
X144360498Y-82655820D01*
X144324188Y-82775518D01*
X144311928Y-82900000D01*
X135688072Y-82900000D01*
X135675812Y-82775518D01*
X135639502Y-82655820D01*
X135580537Y-82545506D01*
X135501185Y-82448815D01*
X135404494Y-82369463D01*
X135294180Y-82310498D01*
X135174482Y-82274188D01*
X135050000Y-82261928D01*
X131250000Y-82261928D01*
X131125518Y-82274188D01*
X131005820Y-82310498D01*
X130895506Y-82369463D01*
X130798815Y-82448815D01*
X130719463Y-82545506D01*
X130660498Y-82655820D01*
X130624188Y-82775518D01*
X130611928Y-82900000D01*
X130611928Y-83015000D01*
X130100132Y-83015000D01*
X127591996Y-80506865D01*
X127556449Y-80463551D01*
X127383623Y-80321716D01*
X127186447Y-80216324D01*
X126972499Y-80151423D01*
X126805752Y-80135000D01*
X126805751Y-80135000D01*
X126750000Y-80129509D01*
X126694249Y-80135000D01*
X126096144Y-80135000D01*
X125994180Y-80080498D01*
X125874482Y-80044188D01*
X125750000Y-80031928D01*
X121750000Y-80031928D01*
X121625518Y-80044188D01*
X121505820Y-80080498D01*
X121395506Y-80139463D01*
X121298815Y-80218815D01*
X121219463Y-80315506D01*
X121160498Y-80425820D01*
X121124188Y-80545518D01*
X121111928Y-80670000D01*
X121111928Y-81870000D01*
X121124188Y-81994482D01*
X121160498Y-82114180D01*
X121219463Y-82224494D01*
X121278620Y-82296578D01*
X119927186Y-83648012D01*
X119919623Y-83645718D01*
X119823490Y-83626596D01*
X119699009Y-83614336D01*
X119674450Y-83614336D01*
X119650000Y-83611928D01*
X119150000Y-83611928D01*
X119127000Y-83614193D01*
X119127000Y-76385807D01*
X119150000Y-76388072D01*
X119650000Y-76388072D01*
X119674450Y-76385664D01*
X119699009Y-76385664D01*
X119823490Y-76373404D01*
X119919623Y-76354282D01*
X119927186Y-76351988D01*
X121278620Y-77703422D01*
X121219463Y-77775506D01*
X121160498Y-77885820D01*
X121124188Y-78005518D01*
X121111928Y-78130000D01*
X121111928Y-79330000D01*
X121124188Y-79454482D01*
X121160498Y-79574180D01*
X121219463Y-79684494D01*
X121298815Y-79781185D01*
X121395506Y-79860537D01*
X121505820Y-79919502D01*
X121625518Y-79955812D01*
X121750000Y-79968072D01*
X125750000Y-79968072D01*
X125874482Y-79955812D01*
X125994180Y-79919502D01*
X126096144Y-79865000D01*
X130611928Y-79865000D01*
X130611928Y-81100000D01*
X130624188Y-81224482D01*
X130660498Y-81344180D01*
X130719463Y-81454494D01*
X130798815Y-81551185D01*
X130895506Y-81630537D01*
X131005820Y-81689502D01*
X131125518Y-81725812D01*
X131250000Y-81738072D01*
X135050000Y-81738072D01*
X135174482Y-81725812D01*
X135294180Y-81689502D01*
X135404494Y-81630537D01*
X135501185Y-81551185D01*
X135580537Y-81454494D01*
X135639502Y-81344180D01*
X135675812Y-81224482D01*
X135688072Y-81100000D01*
X135688072Y-78600000D01*
X135675812Y-78475518D01*
X135639502Y-78355820D01*
X135580537Y-78245506D01*
X135501185Y-78148815D01*
X135404494Y-78069463D01*
X135294180Y-78010498D01*
X135259573Y-78000000D01*
X140911928Y-78000000D01*
X140924188Y-78124482D01*
X140960498Y-78244180D01*
X141019463Y-78354494D01*
X141098815Y-78451185D01*
X141195506Y-78530537D01*
X141305820Y-78589502D01*
X141425518Y-78625812D01*
X141550000Y-78638072D01*
X142964250Y-78635000D01*
X143123000Y-78476250D01*
X143123000Y-76977000D01*
X141073750Y-76977000D01*
X140915000Y-77135750D01*
X140911928Y-78000000D01*
X135259573Y-78000000D01*
X135174482Y-77974188D01*
X135050000Y-77961928D01*
X132867944Y-77961928D01*
X132836449Y-77923551D01*
X132663623Y-77781716D01*
X132466447Y-77676324D01*
X132252499Y-77611423D01*
X132085752Y-77595000D01*
X132085751Y-77595000D01*
X132030000Y-77589509D01*
X131974249Y-77595000D01*
X126096144Y-77595000D01*
X125994180Y-77540498D01*
X125874482Y-77504188D01*
X125750000Y-77491928D01*
X123216730Y-77491928D01*
X121424802Y-75700000D01*
X140911928Y-75700000D01*
X140915000Y-76564250D01*
X141073750Y-76723000D01*
X143123000Y-76723000D01*
X143123000Y-75223750D01*
X142964250Y-75065000D01*
X141550000Y-75061928D01*
X141425518Y-75074188D01*
X141305820Y-75110498D01*
X141195506Y-75169463D01*
X141098815Y-75248815D01*
X141019463Y-75345506D01*
X140960498Y-75455820D01*
X140924188Y-75575518D01*
X140911928Y-75700000D01*
X121424802Y-75700000D01*
X120788072Y-75063271D01*
X120788072Y-74750000D01*
X120785664Y-74725550D01*
X120785664Y-74700991D01*
X120773404Y-74576510D01*
X120754282Y-74480377D01*
X120717973Y-74360681D01*
X120680464Y-74270125D01*
X120621498Y-74159808D01*
X120567042Y-74078309D01*
X120487690Y-73981618D01*
X120418382Y-73912310D01*
X120321691Y-73832958D01*
X120240192Y-73778502D01*
X120129875Y-73719536D01*
X120039319Y-73682027D01*
X119919623Y-73645718D01*
X119823490Y-73626596D01*
X119699009Y-73614336D01*
X119674450Y-73614336D01*
X119650000Y-73611928D01*
X119150000Y-73611928D01*
X119127000Y-73614193D01*
X119127000Y-65992702D01*
X129186903Y-65992702D01*
X129258486Y-66236671D01*
X129513996Y-66357571D01*
X129788184Y-66426300D01*
X130070512Y-66440217D01*
X130350130Y-66398787D01*
X130616292Y-66303603D01*
X130741514Y-66236671D01*
X130813097Y-65992702D01*
X130000000Y-65179605D01*
X129186903Y-65992702D01*
X119127000Y-65992702D01*
X119127000Y-65070512D01*
X128559783Y-65070512D01*
X128601213Y-65350130D01*
X128696397Y-65616292D01*
X128763329Y-65741514D01*
X129007298Y-65813097D01*
X129820395Y-65000000D01*
X130179605Y-65000000D01*
X130992702Y-65813097D01*
X131236671Y-65741514D01*
X131357571Y-65486004D01*
X131426300Y-65211816D01*
X131440217Y-64929488D01*
X131398787Y-64649870D01*
X131303603Y-64383708D01*
X131236671Y-64258486D01*
X130992702Y-64186903D01*
X130179605Y-65000000D01*
X129820395Y-65000000D01*
X129007298Y-64186903D01*
X128763329Y-64258486D01*
X128642429Y-64513996D01*
X128573700Y-64788184D01*
X128559783Y-65070512D01*
X119127000Y-65070512D01*
X119127000Y-64007298D01*
X129186903Y-64007298D01*
X130000000Y-64820395D01*
X130813097Y-64007298D01*
X130741514Y-63763329D01*
X130486004Y-63642429D01*
X130211816Y-63573700D01*
X129929488Y-63559783D01*
X129649870Y-63601213D01*
X129383708Y-63696397D01*
X129258486Y-63763329D01*
X129186903Y-64007298D01*
X119127000Y-64007298D01*
X119127000Y-50660000D01*
X154340001Y-50660000D01*
X154340001Y-82013985D01*
G37*
X154340001Y-82013985D02*
X154285750Y-82015000D01*
X154127000Y-82173750D01*
X154127000Y-82923000D01*
X154147000Y-82923000D01*
X154147000Y-83177000D01*
X154127000Y-83177000D01*
X154127000Y-83197000D01*
X153873000Y-83197000D01*
X153873000Y-83177000D01*
X153853000Y-83177000D01*
X153853000Y-82923000D01*
X153873000Y-82923000D01*
X153873000Y-82173750D01*
X153714250Y-82015000D01*
X153550000Y-82011928D01*
X153460000Y-82020792D01*
X153460000Y-67897323D01*
X153463676Y-67860000D01*
X153460000Y-67822677D01*
X153460000Y-67822667D01*
X153449003Y-67711014D01*
X153405546Y-67567753D01*
X153366644Y-67494973D01*
X153334974Y-67435723D01*
X153263799Y-67348997D01*
X153240001Y-67319999D01*
X153211003Y-67296201D01*
X152313645Y-66398844D01*
X152335000Y-66291486D01*
X152335000Y-66028514D01*
X152283696Y-65770595D01*
X152183061Y-65527641D01*
X152036962Y-65308987D01*
X151851013Y-65123038D01*
X151632359Y-64976939D01*
X151389405Y-64876304D01*
X151131486Y-64825000D01*
X150868514Y-64825000D01*
X150610595Y-64876304D01*
X150367641Y-64976939D01*
X150148987Y-65123038D01*
X149985000Y-65287025D01*
X149985000Y-63280752D01*
X149990491Y-63225000D01*
X149968577Y-63002501D01*
X149903676Y-62788553D01*
X149798284Y-62591377D01*
X149691989Y-62461856D01*
X149691987Y-62461854D01*
X149656449Y-62418551D01*
X149613146Y-62383013D01*
X148685000Y-61454869D01*
X148685000Y-60948514D01*
X149665000Y-60948514D01*
X149665000Y-61211486D01*
X149716304Y-61469405D01*
X149816939Y-61712359D01*
X149963038Y-61931013D01*
X150148987Y-62116962D01*
X150367641Y-62263061D01*
X150610595Y-62363696D01*
X150868514Y-62415000D01*
X151131486Y-62415000D01*
X151389405Y-62363696D01*
X151632359Y-62263061D01*
X151851013Y-62116962D01*
X152036962Y-61931013D01*
X152183061Y-61712359D01*
X152283696Y-61469405D01*
X152335000Y-61211486D01*
X152335000Y-60948514D01*
X152283696Y-60690595D01*
X152183061Y-60447641D01*
X152036962Y-60228987D01*
X151851013Y-60043038D01*
X151632359Y-59896939D01*
X151389405Y-59796304D01*
X151131486Y-59745000D01*
X150868514Y-59745000D01*
X150610595Y-59796304D01*
X150367641Y-59896939D01*
X150148987Y-60043038D01*
X149963038Y-60228987D01*
X149816939Y-60447641D01*
X149716304Y-60690595D01*
X149665000Y-60948514D01*
X148685000Y-60948514D01*
X148685000Y-59920131D01*
X151267060Y-57338072D01*
X151700000Y-57338072D01*
X151824482Y-57325812D01*
X151944180Y-57289502D01*
X152054494Y-57230537D01*
X152151185Y-57151185D01*
X152230537Y-57054494D01*
X152289502Y-56944180D01*
X152325812Y-56824482D01*
X152338072Y-56700000D01*
X152338072Y-55300000D01*
X152325812Y-55175518D01*
X152289502Y-55055820D01*
X152230537Y-54945506D01*
X152151185Y-54848815D01*
X152054494Y-54769463D01*
X151944180Y-54710498D01*
X151824482Y-54674188D01*
X151700000Y-54661928D01*
X150300000Y-54661928D01*
X150175518Y-54674188D01*
X150055820Y-54710498D01*
X149945506Y-54769463D01*
X149848815Y-54848815D01*
X149769463Y-54945506D01*
X149710498Y-55055820D01*
X149674188Y-55175518D01*
X149661928Y-55300000D01*
X149661928Y-55732940D01*
X146786860Y-58608009D01*
X146743552Y-58643551D01*
X146601717Y-58816377D01*
X146545384Y-58921770D01*
X146496324Y-59013554D01*
X146431423Y-59227502D01*
X146409509Y-59450000D01*
X146415001Y-59505761D01*
X146415000Y-61397651D01*
X146398284Y-61366377D01*
X146256449Y-61193551D01*
X146083623Y-61051716D01*
X145886446Y-60946324D01*
X145672498Y-60881423D01*
X145450000Y-60859509D01*
X145227501Y-60881423D01*
X145013553Y-60946324D01*
X144816377Y-61051716D01*
X144643551Y-61193551D01*
X144501716Y-61366377D01*
X144396324Y-61563554D01*
X144331423Y-61777502D01*
X144315000Y-61944249D01*
X144315001Y-63611928D01*
X144074999Y-63611928D01*
X143901745Y-63628992D01*
X143735149Y-63679528D01*
X143581613Y-63761595D01*
X143455614Y-63865000D01*
X135884284Y-63865000D01*
X135679727Y-63728320D01*
X135418574Y-63620147D01*
X135141335Y-63565000D01*
X134858665Y-63565000D01*
X134581426Y-63620147D01*
X134320273Y-63728320D01*
X134085241Y-63885363D01*
X133885363Y-64085241D01*
X133728320Y-64320273D01*
X133620147Y-64581426D01*
X133565000Y-64858665D01*
X133565000Y-65141335D01*
X133620147Y-65418574D01*
X133728320Y-65679727D01*
X133885363Y-65914759D01*
X134085241Y-66114637D01*
X134320273Y-66271680D01*
X134581426Y-66379853D01*
X134858665Y-66435000D01*
X135141335Y-66435000D01*
X135418574Y-66379853D01*
X135679727Y-66271680D01*
X135884284Y-66135000D01*
X143432297Y-66135000D01*
X143447038Y-66152962D01*
X143581613Y-66263405D01*
X143735149Y-66345472D01*
X143901745Y-66396008D01*
X144074999Y-66413072D01*
X146925001Y-66413072D01*
X147098255Y-66396008D01*
X147264851Y-66345472D01*
X147418387Y-66263405D01*
X147552962Y-66152962D01*
X147663405Y-66018387D01*
X147715001Y-65921859D01*
X147715000Y-70078140D01*
X147663405Y-69981613D01*
X147552962Y-69847038D01*
X147418387Y-69736595D01*
X147264851Y-69654528D01*
X147098255Y-69603992D01*
X146925001Y-69586928D01*
X144074999Y-69586928D01*
X143901745Y-69603992D01*
X143735149Y-69654528D01*
X143581613Y-69736595D01*
X143447038Y-69847038D01*
X143336595Y-69981613D01*
X143254528Y-70135149D01*
X143203992Y-70301745D01*
X143186928Y-70474999D01*
X143186928Y-71500001D01*
X143203992Y-71673255D01*
X143254528Y-71839851D01*
X143336595Y-71993387D01*
X143447038Y-72127962D01*
X143581613Y-72238405D01*
X143735149Y-72320472D01*
X143901745Y-72371008D01*
X144074999Y-72388072D01*
X144365000Y-72388072D01*
X144365001Y-73666812D01*
X144331423Y-73777502D01*
X144309509Y-74000000D01*
X144331423Y-74222498D01*
X144396324Y-74436446D01*
X144501717Y-74633622D01*
X144602519Y-74756449D01*
X144643552Y-74806448D01*
X144686854Y-74841985D01*
X144906890Y-75062022D01*
X143535750Y-75065000D01*
X143377000Y-75223750D01*
X143377000Y-76723000D01*
X145426250Y-76723000D01*
X145585000Y-76564250D01*
X145587919Y-75743051D01*
X145715001Y-75870133D01*
X145715000Y-77961928D01*
X145587937Y-77961928D01*
X145585000Y-77135750D01*
X145426250Y-76977000D01*
X143377000Y-76977000D01*
X143377000Y-78476250D01*
X143535750Y-78635000D01*
X144311928Y-78636686D01*
X144311928Y-81100000D01*
X144324188Y-81224482D01*
X144360498Y-81344180D01*
X144419463Y-81454494D01*
X144498815Y-81551185D01*
X144595506Y-81630537D01*
X144705820Y-81689502D01*
X144825518Y-81725812D01*
X144950000Y-81738072D01*
X148750000Y-81738072D01*
X148874482Y-81725812D01*
X148994180Y-81689502D01*
X149104494Y-81630537D01*
X149201185Y-81551185D01*
X149280537Y-81454494D01*
X149339502Y-81344180D01*
X149375812Y-81224482D01*
X149388072Y-81100000D01*
X149388072Y-79600000D01*
X149486928Y-79600000D01*
X149499188Y-79724482D01*
X149535498Y-79844180D01*
X149594463Y-79954494D01*
X149673815Y-80051185D01*
X149770506Y-80130537D01*
X149880820Y-80189502D01*
X150000518Y-80225812D01*
X150125000Y-80238072D01*
X150714250Y-80235000D01*
X150873000Y-80076250D01*
X150873000Y-79127000D01*
X149648750Y-79127000D01*
X149490000Y-79285750D01*
X149486928Y-79600000D01*
X149388072Y-79600000D01*
X149388072Y-78600000D01*
X149375812Y-78475518D01*
X149339502Y-78355820D01*
X149280537Y-78245506D01*
X149201185Y-78148815D01*
X149104494Y-78069463D01*
X148994180Y-78010498D01*
X148874482Y-77974188D01*
X148750000Y-77961928D01*
X147985000Y-77961928D01*
X147985000Y-75455751D01*
X147990491Y-75400000D01*
X147968577Y-75177501D01*
X147935686Y-75069074D01*
X147986446Y-75053676D01*
X148183623Y-74948284D01*
X148356449Y-74806449D01*
X148498284Y-74633623D01*
X148603676Y-74436447D01*
X148668577Y-74222499D01*
X148685000Y-74055752D01*
X148685000Y-73245132D01*
X149613146Y-72316987D01*
X149656449Y-72281449D01*
X149771404Y-72141377D01*
X149798284Y-72108623D01*
X149865000Y-71983805D01*
X149865001Y-76108134D01*
X149847498Y-76122498D01*
X149693167Y-76310551D01*
X149578489Y-76525099D01*
X149507870Y-76757898D01*
X149484025Y-77000000D01*
X149507870Y-77242102D01*
X149578489Y-77474901D01*
X149693167Y-77689449D01*
X149819436Y-77843309D01*
X149770506Y-77869463D01*
X149673815Y-77948815D01*
X149594463Y-78045506D01*
X149535498Y-78155820D01*
X149499188Y-78275518D01*
X149486928Y-78400000D01*
X149490000Y-78714250D01*
X149648750Y-78873000D01*
X150873000Y-78873000D01*
X150873000Y-78853000D01*
X151127000Y-78853000D01*
X151127000Y-78873000D01*
X151147000Y-78873000D01*
X151147000Y-79127000D01*
X151127000Y-79127000D01*
X151127000Y-80076250D01*
X151285750Y-80235000D01*
X151875000Y-80238072D01*
X151940000Y-80231670D01*
X151940000Y-82961928D01*
X151550000Y-82961928D01*
X151425518Y-82974188D01*
X151305820Y-83010498D01*
X151195506Y-83069463D01*
X151098815Y-83148815D01*
X151019463Y-83245506D01*
X150960498Y-83355820D01*
X150924188Y-83475518D01*
X150911928Y-83600000D01*
X150911928Y-84400000D01*
X150924188Y-84524482D01*
X150960498Y-84644180D01*
X151019463Y-84754494D01*
X151098815Y-84851185D01*
X151195506Y-84930537D01*
X151305820Y-84989502D01*
X151425518Y-85025812D01*
X151550000Y-85038072D01*
X152450000Y-85038072D01*
X152574482Y-85025812D01*
X152694180Y-84989502D01*
X152804494Y-84930537D01*
X152901185Y-84851185D01*
X152911928Y-84838095D01*
X152911928Y-85350000D01*
X152924188Y-85474482D01*
X152960498Y-85594180D01*
X153019463Y-85704494D01*
X153098815Y-85801185D01*
X153195506Y-85880537D01*
X153240001Y-85904320D01*
X153240000Y-88685198D01*
X152411131Y-89514068D01*
X152372421Y-89419467D01*
X152238078Y-89216526D01*
X152066725Y-89043693D01*
X151864946Y-88907610D01*
X151640496Y-88813507D01*
X151402000Y-88765000D01*
X151127000Y-88765000D01*
X151127000Y-89873000D01*
X151147000Y-89873000D01*
X151147000Y-90127000D01*
X151127000Y-90127000D01*
X151127000Y-90147000D01*
X150873000Y-90147000D01*
X150873000Y-90127000D01*
X150853000Y-90127000D01*
X150853000Y-89873000D01*
X150873000Y-89873000D01*
X150873000Y-88765000D01*
X150598000Y-88765000D01*
X150359504Y-88813507D01*
X150135054Y-88907610D01*
X149933275Y-89043693D01*
X149761922Y-89216526D01*
X149627579Y-89419467D01*
X149535409Y-89644718D01*
X149531538Y-89682391D01*
X149656268Y-89872998D01*
X149603130Y-89872998D01*
X149216995Y-89486864D01*
X149181449Y-89443551D01*
X149008623Y-89301716D01*
X148811447Y-89196324D01*
X148597499Y-89131423D01*
X148430752Y-89115000D01*
X148430751Y-89115000D01*
X148375000Y-89109509D01*
X148319249Y-89115000D01*
X146445396Y-89115000D01*
X146408316Y-89103752D01*
X146237500Y-89086928D01*
X145762500Y-89086928D01*
X145591684Y-89103752D01*
X145554604Y-89115000D01*
X130838072Y-89115000D01*
X130838072Y-88925000D01*
X130821008Y-88751746D01*
X130770472Y-88585150D01*
X130688405Y-88431614D01*
X130577962Y-88297038D01*
X130459721Y-88200000D01*
X136411928Y-88200000D01*
X136424188Y-88324482D01*
X136460498Y-88444180D01*
X136519463Y-88554494D01*
X136598815Y-88651185D01*
X136695506Y-88730537D01*
X136805820Y-88789502D01*
X136925518Y-88825812D01*
X137050000Y-88838072D01*
X140714250Y-88835000D01*
X140873000Y-88676250D01*
X140873000Y-87177000D01*
X141127000Y-87177000D01*
X141127000Y-88676250D01*
X141285750Y-88835000D01*
X144950000Y-88838072D01*
X145074482Y-88825812D01*
X145194180Y-88789502D01*
X145304494Y-88730537D01*
X145401185Y-88651185D01*
X145480537Y-88554494D01*
X145539502Y-88444180D01*
X145575812Y-88324482D01*
X145588072Y-88200000D01*
X145585000Y-87335750D01*
X145426250Y-87177000D01*
X141127000Y-87177000D01*
X140873000Y-87177000D01*
X136573750Y-87177000D01*
X136415000Y-87335750D01*
X136411928Y-88200000D01*
X130459721Y-88200000D01*
X130443386Y-88186595D01*
X130289850Y-88104528D01*
X130123254Y-88053992D01*
X129950000Y-88036928D01*
X129025000Y-88036928D01*
X128851746Y-88053992D01*
X128685150Y-88104528D01*
X128531614Y-88186595D01*
X128397038Y-88297038D01*
X128286595Y-88431614D01*
X128204528Y-88585150D01*
X128153992Y-88751746D01*
X128136928Y-88925000D01*
X128136928Y-91075000D01*
X128153992Y-91248254D01*
X128204528Y-91414850D01*
X128286595Y-91568386D01*
X128397038Y-91702962D01*
X128531614Y-91813405D01*
X128685150Y-91895472D01*
X128851746Y-91946008D01*
X129025000Y-91963072D01*
X129950000Y-91963072D01*
X130123254Y-91946008D01*
X130289850Y-91895472D01*
X130443386Y-91813405D01*
X130577962Y-91702962D01*
X130688405Y-91568386D01*
X130770472Y-91414850D01*
X130779527Y-91385000D01*
X139998353Y-91385000D01*
X139960498Y-91455820D01*
X139924188Y-91575518D01*
X139911928Y-91700000D01*
X139915000Y-92564250D01*
X140073750Y-92723000D01*
X142123000Y-92723000D01*
X142123000Y-92703000D01*
X142377000Y-92703000D01*
X142377000Y-92723000D01*
X144426250Y-92723000D01*
X144585000Y-92564250D01*
X144588072Y-91700000D01*
X144575812Y-91575518D01*
X144539502Y-91455820D01*
X144501647Y-91385000D01*
X144951282Y-91385000D01*
X144917123Y-91497604D01*
X144901717Y-91516377D01*
X144870106Y-91575518D01*
X144796324Y-91713554D01*
X144731423Y-91927502D01*
X144709509Y-92150000D01*
X144715001Y-92205761D01*
X144715001Y-93961928D01*
X144587937Y-93961928D01*
X144585000Y-93135750D01*
X144426250Y-92977000D01*
X142377000Y-92977000D01*
X142377000Y-94476250D01*
X142535750Y-94635000D01*
X143311928Y-94636686D01*
X143311928Y-97100000D01*
X143324188Y-97224482D01*
X143360498Y-97344180D01*
X143419463Y-97454494D01*
X143498815Y-97551185D01*
X143595506Y-97630537D01*
X143705820Y-97689502D01*
X143825518Y-97725812D01*
X143950000Y-97738072D01*
X147750000Y-97738072D01*
X147874482Y-97725812D01*
X147994180Y-97689502D01*
X148104494Y-97630537D01*
X148201185Y-97551185D01*
X148280537Y-97454494D01*
X148339502Y-97344180D01*
X148375812Y-97224482D01*
X148388072Y-97100000D01*
X148388072Y-96993203D01*
X149457368Y-98062500D01*
X148387331Y-99132538D01*
X148388072Y-98900000D01*
X148375812Y-98775518D01*
X148339502Y-98655820D01*
X148280537Y-98545506D01*
X148201185Y-98448815D01*
X148104494Y-98369463D01*
X147994180Y-98310498D01*
X147874482Y-98274188D01*
X147750000Y-98261928D01*
X146135750Y-98265000D01*
X145977000Y-98423750D01*
X145977000Y-100023000D01*
X145997000Y-100023000D01*
X145997000Y-100277000D01*
X145977000Y-100277000D01*
X145977000Y-101876250D01*
X146135750Y-102035000D01*
X147315001Y-102037244D01*
X147315002Y-104702686D01*
X147301745Y-104703992D01*
X147135149Y-104754528D01*
X146981613Y-104836595D01*
X146847038Y-104947038D01*
X146736595Y-105081613D01*
X146654528Y-105235149D01*
X146603992Y-105401745D01*
X146586928Y-105574999D01*
X146586928Y-106795441D01*
X146436874Y-106945495D01*
X146393561Y-106981041D01*
X146251726Y-107153867D01*
X146152116Y-107340226D01*
X146146334Y-107351044D01*
X146081433Y-107564992D01*
X146059519Y-107787490D01*
X146065010Y-107843241D01*
X146065011Y-129000177D01*
X146051716Y-129016377D01*
X145946325Y-129213553D01*
X145946324Y-129213554D01*
X145881423Y-129427502D01*
X145859509Y-129650000D01*
X145865000Y-129705751D01*
X145865000Y-131005752D01*
X145881423Y-131172499D01*
X145946324Y-131386447D01*
X146051717Y-131583623D01*
X146193552Y-131756449D01*
X146366378Y-131898284D01*
X146556677Y-132000000D01*
X146366378Y-132101717D01*
X146193552Y-132243552D01*
X146051717Y-132416378D01*
X145946324Y-132613554D01*
X145881423Y-132827502D01*
X145859509Y-133050000D01*
X145881423Y-133272498D01*
X145946324Y-133486446D01*
X146051717Y-133683622D01*
X146158012Y-133813143D01*
X149129868Y-136785000D01*
X148185751Y-136785000D01*
X148129999Y-136779509D01*
X148074248Y-136785000D01*
X147907501Y-136801423D01*
X147693553Y-136866324D01*
X147496377Y-136971716D01*
X147323551Y-137113551D01*
X147288004Y-137156865D01*
X147208012Y-137236857D01*
X147101717Y-137366378D01*
X147038363Y-137484904D01*
X146948284Y-137316377D01*
X146806449Y-137143551D01*
X146633623Y-137001716D01*
X146436447Y-136896324D01*
X146222499Y-136831423D01*
X146000000Y-136809509D01*
X145777502Y-136831423D01*
X145666814Y-136865000D01*
X145135000Y-136865000D01*
X145135000Y-125055751D01*
X145140491Y-124999999D01*
X145118577Y-124777501D01*
X145053676Y-124563553D01*
X144948284Y-124366377D01*
X144806449Y-124193551D01*
X144763141Y-124158009D01*
X136829492Y-116224361D01*
X136829488Y-116224356D01*
X136605132Y-116000000D01*
X142775646Y-109829487D01*
X142818949Y-109793949D01*
X142893598Y-109702990D01*
X142960784Y-109621123D01*
X143066176Y-109423947D01*
X143131077Y-109209999D01*
X143145979Y-109058693D01*
X143152962Y-109052962D01*
X143263405Y-108918387D01*
X143345472Y-108764851D01*
X143396008Y-108598255D01*
X143413072Y-108425001D01*
X143413072Y-105574999D01*
X143396008Y-105401745D01*
X143345472Y-105235149D01*
X143263405Y-105081613D01*
X143152962Y-104947038D01*
X143019236Y-104837292D01*
X143950000Y-104838072D01*
X144074482Y-104825812D01*
X144194180Y-104789502D01*
X144304494Y-104730537D01*
X144401185Y-104651185D01*
X144480537Y-104554494D01*
X144539502Y-104444180D01*
X144575812Y-104324482D01*
X144588072Y-104200000D01*
X144585000Y-103335750D01*
X144426250Y-103177000D01*
X140127000Y-103177000D01*
X140127000Y-104676250D01*
X140285750Y-104835000D01*
X141008463Y-104835606D01*
X141006613Y-104836595D01*
X140872038Y-104947038D01*
X140761595Y-105081613D01*
X140679528Y-105235149D01*
X140628992Y-105401745D01*
X140611928Y-105574999D01*
X140611928Y-108425001D01*
X140628992Y-108598255D01*
X140668004Y-108726863D01*
X134822719Y-114572150D01*
X134581426Y-114620147D01*
X134320273Y-114728320D01*
X134085241Y-114885363D01*
X133885363Y-115085241D01*
X133728320Y-115320273D01*
X133620147Y-115581426D01*
X133565000Y-115858665D01*
X133565000Y-116141335D01*
X133620147Y-116418574D01*
X133728320Y-116679727D01*
X133885363Y-116914759D01*
X134085241Y-117114637D01*
X134320273Y-117271680D01*
X134581426Y-117379853D01*
X134822718Y-117427850D01*
X135224356Y-117829488D01*
X135224361Y-117829492D01*
X142865000Y-125470132D01*
X142865001Y-137294239D01*
X142859509Y-137350000D01*
X142881423Y-137572498D01*
X142946324Y-137786446D01*
X142987910Y-137864248D01*
X143051717Y-137983623D01*
X143193552Y-138156449D01*
X143236860Y-138191991D01*
X143808004Y-138763135D01*
X143843551Y-138806449D01*
X144016376Y-138948283D01*
X144016377Y-138948284D01*
X144213553Y-139053676D01*
X144427501Y-139118577D01*
X144650000Y-139140491D01*
X144705752Y-139135000D01*
X145894249Y-139135000D01*
X145950000Y-139140491D01*
X146005751Y-139135000D01*
X146005752Y-139135000D01*
X146172499Y-139118577D01*
X146386447Y-139053676D01*
X146583623Y-138948284D01*
X146756449Y-138806449D01*
X146791993Y-138763139D01*
X146841989Y-138713143D01*
X146948284Y-138583622D01*
X147011637Y-138465095D01*
X147101717Y-138633622D01*
X147243552Y-138806448D01*
X147416378Y-138948283D01*
X147613554Y-139053676D01*
X147827502Y-139118577D01*
X148050000Y-139140491D01*
X148272498Y-139118577D01*
X148482081Y-139055000D01*
X150865001Y-139055000D01*
X150865000Y-141835532D01*
X150848815Y-141848815D01*
X150769463Y-141945506D01*
X150710498Y-142055820D01*
X150674188Y-142175518D01*
X150661928Y-142300000D01*
X150661928Y-143700000D01*
X150674188Y-143824482D01*
X150710498Y-143944180D01*
X150769463Y-144054494D01*
X150848815Y-144151185D01*
X150945506Y-144230537D01*
X151055820Y-144289502D01*
X151175518Y-144325812D01*
X151300000Y-144338072D01*
X152700000Y-144338072D01*
X152824482Y-144325812D01*
X152944180Y-144289502D01*
X153054494Y-144230537D01*
X153151185Y-144151185D01*
X153230537Y-144054494D01*
X153289502Y-143944180D01*
X153325812Y-143824482D01*
X153338072Y-143700000D01*
X153338072Y-142300000D01*
X153325812Y-142175518D01*
X153289502Y-142055820D01*
X153230537Y-141945506D01*
X153151185Y-141848815D01*
X153135000Y-141835532D01*
X153135000Y-138624288D01*
X153183061Y-138552359D01*
X153283696Y-138309405D01*
X153335000Y-138051486D01*
X153335000Y-137788514D01*
X153283696Y-137530595D01*
X153183061Y-137287641D01*
X153036962Y-137068987D01*
X152851013Y-136883038D01*
X152632359Y-136736939D01*
X152389405Y-136636304D01*
X152142279Y-136587147D01*
X148263646Y-132708514D01*
X150665000Y-132708514D01*
X150665000Y-132971486D01*
X150716304Y-133229405D01*
X150816939Y-133472359D01*
X150963038Y-133691013D01*
X151148987Y-133876962D01*
X151367641Y-134023061D01*
X151610595Y-134123696D01*
X151868514Y-134175000D01*
X152131486Y-134175000D01*
X152389405Y-134123696D01*
X152632359Y-134023061D01*
X152851013Y-133876962D01*
X153036962Y-133691013D01*
X153183061Y-133472359D01*
X153283696Y-133229405D01*
X153335000Y-132971486D01*
X153335000Y-132708514D01*
X153283696Y-132450595D01*
X153183061Y-132207641D01*
X153036962Y-131988987D01*
X152851013Y-131803038D01*
X152632359Y-131656939D01*
X152389405Y-131556304D01*
X152131486Y-131505000D01*
X151868514Y-131505000D01*
X151610595Y-131556304D01*
X151367641Y-131656939D01*
X151148987Y-131803038D01*
X150963038Y-131988987D01*
X150816939Y-132207641D01*
X150716304Y-132450595D01*
X150665000Y-132708514D01*
X148263646Y-132708514D01*
X147763143Y-132208012D01*
X147633622Y-132101717D01*
X147443324Y-132000000D01*
X147633623Y-131898284D01*
X147806449Y-131756449D01*
X147948284Y-131583623D01*
X148053676Y-131386447D01*
X148118577Y-131172499D01*
X148135000Y-131005752D01*
X148135000Y-130099812D01*
X148148294Y-130083613D01*
X148253686Y-129886437D01*
X148318587Y-129672489D01*
X148335010Y-129505742D01*
X148335010Y-129505741D01*
X148340501Y-129449990D01*
X148335010Y-129394238D01*
X148335010Y-122317609D01*
X150531538Y-122317609D01*
X150535409Y-122355282D01*
X150627579Y-122580533D01*
X150761922Y-122783474D01*
X150933275Y-122956307D01*
X151135054Y-123092390D01*
X151359504Y-123186493D01*
X151598000Y-123235000D01*
X151873000Y-123235000D01*
X151873000Y-122127000D01*
X150656269Y-122127000D01*
X150531538Y-122317609D01*
X148335010Y-122317609D01*
X148335010Y-114317609D01*
X150531538Y-114317609D01*
X150535409Y-114355282D01*
X150627579Y-114580533D01*
X150761922Y-114783474D01*
X150933275Y-114956307D01*
X151135054Y-115092390D01*
X151359504Y-115186493D01*
X151598000Y-115235000D01*
X151873000Y-115235000D01*
X151873000Y-114127000D01*
X150656269Y-114127000D01*
X150531538Y-114317609D01*
X148335010Y-114317609D01*
X148335010Y-109691664D01*
X148450001Y-109702990D01*
X148672500Y-109681076D01*
X148886448Y-109616175D01*
X149083624Y-109510783D01*
X149256450Y-109368948D01*
X149398285Y-109196122D01*
X149503677Y-108998946D01*
X149568578Y-108784998D01*
X149585001Y-108618251D01*
X149585001Y-107350000D01*
X149911928Y-107350000D01*
X149924188Y-107474482D01*
X149960498Y-107594180D01*
X150019463Y-107704494D01*
X150098815Y-107801185D01*
X150195506Y-107880537D01*
X150305820Y-107939502D01*
X150425518Y-107975812D01*
X150550000Y-107988072D01*
X150714250Y-107985000D01*
X150873000Y-107826250D01*
X150873000Y-107077000D01*
X151127000Y-107077000D01*
X151127000Y-107826250D01*
X151285750Y-107985000D01*
X151450000Y-107988072D01*
X151574482Y-107975812D01*
X151694180Y-107939502D01*
X151804494Y-107880537D01*
X151901185Y-107801185D01*
X151980537Y-107704494D01*
X152039502Y-107594180D01*
X152075812Y-107474482D01*
X152088072Y-107350000D01*
X152085000Y-107235750D01*
X151926250Y-107077000D01*
X151127000Y-107077000D01*
X150873000Y-107077000D01*
X150073750Y-107077000D01*
X149915000Y-107235750D01*
X149911928Y-107350000D01*
X149585001Y-107350000D01*
X149585001Y-101145130D01*
X150603130Y-100127002D01*
X150656268Y-100127002D01*
X150531538Y-100317609D01*
X150535409Y-100355282D01*
X150627579Y-100580533D01*
X150761922Y-100783474D01*
X150933275Y-100956307D01*
X151135054Y-101092390D01*
X151359504Y-101186493D01*
X151598000Y-101235000D01*
X151873000Y-101235000D01*
X151873000Y-100127000D01*
X151853000Y-100127000D01*
X151853000Y-99873000D01*
X151873000Y-99873000D01*
X151873000Y-99853000D01*
X152127000Y-99853000D01*
X152127000Y-99873000D01*
X152147000Y-99873000D01*
X152147000Y-100127000D01*
X152127000Y-100127000D01*
X152127000Y-101235000D01*
X152402000Y-101235000D01*
X152640496Y-101186493D01*
X152864946Y-101092390D01*
X153066725Y-100956307D01*
X153238078Y-100783474D01*
X153240000Y-100780570D01*
X153240000Y-102435198D01*
X151633199Y-104042000D01*
X151574482Y-104024188D01*
X151450000Y-104011928D01*
X150550000Y-104011928D01*
X150425518Y-104024188D01*
X150305820Y-104060498D01*
X150195506Y-104119463D01*
X150098815Y-104198815D01*
X150019463Y-104295506D01*
X149960498Y-104405820D01*
X149924188Y-104525518D01*
X149911928Y-104650000D01*
X149911928Y-105450000D01*
X149924188Y-105574482D01*
X149960498Y-105694180D01*
X150019463Y-105804494D01*
X150098815Y-105901185D01*
X150195506Y-105980537D01*
X150231918Y-106000000D01*
X150195506Y-106019463D01*
X150098815Y-106098815D01*
X150019463Y-106195506D01*
X149960498Y-106305820D01*
X149924188Y-106425518D01*
X149911928Y-106550000D01*
X149915000Y-106664250D01*
X150073750Y-106823000D01*
X150873000Y-106823000D01*
X150873000Y-106803000D01*
X151127000Y-106803000D01*
X151127000Y-106823000D01*
X151926250Y-106823000D01*
X152010857Y-106738393D01*
X152019463Y-106754494D01*
X152098815Y-106851185D01*
X152195506Y-106930537D01*
X152240000Y-106954320D01*
X152240001Y-107296288D01*
X152196063Y-107340226D01*
X152082795Y-107509744D01*
X152004774Y-107698102D01*
X151965000Y-107898061D01*
X151965000Y-108101939D01*
X152004774Y-108301898D01*
X152082795Y-108490256D01*
X152196063Y-108659774D01*
X152340226Y-108803937D01*
X152509744Y-108917205D01*
X152698102Y-108995226D01*
X152898061Y-109035000D01*
X153101939Y-109035000D01*
X153301898Y-108995226D01*
X153490256Y-108917205D01*
X153659774Y-108803937D01*
X153803937Y-108659774D01*
X153917205Y-108490256D01*
X153995226Y-108301898D01*
X154035000Y-108101939D01*
X154035000Y-107898061D01*
X153995226Y-107698102D01*
X153917205Y-107509744D01*
X153803937Y-107340226D01*
X153760000Y-107296289D01*
X153760000Y-106954320D01*
X153804494Y-106930537D01*
X153901185Y-106851185D01*
X153980537Y-106754494D01*
X154039502Y-106644180D01*
X154075812Y-106524482D01*
X154088072Y-106400000D01*
X154088072Y-105600000D01*
X154075812Y-105475518D01*
X154039502Y-105355820D01*
X153980537Y-105245506D01*
X153901185Y-105148815D01*
X153804494Y-105069463D01*
X153694180Y-105010498D01*
X153574482Y-104974188D01*
X153450000Y-104961928D01*
X152862873Y-104961928D01*
X154340000Y-103484801D01*
X154340000Y-111859537D01*
X154338150Y-111858018D01*
X153716995Y-111236864D01*
X153681449Y-111193551D01*
X153508623Y-111051716D01*
X153311447Y-110946324D01*
X153097499Y-110881423D01*
X153053907Y-110877130D01*
X152964851Y-110829528D01*
X152798255Y-110778992D01*
X152625001Y-110761928D01*
X151374999Y-110761928D01*
X151201745Y-110778992D01*
X151035149Y-110829528D01*
X150881613Y-110911595D01*
X150747038Y-111022038D01*
X150636595Y-111156613D01*
X150554528Y-111310149D01*
X150503992Y-111476745D01*
X150486928Y-111649999D01*
X150486928Y-112350001D01*
X150503992Y-112523255D01*
X150554528Y-112689851D01*
X150636595Y-112843387D01*
X150747038Y-112977962D01*
X150881613Y-113088405D01*
X150886406Y-113090967D01*
X150761922Y-113216526D01*
X150627579Y-113419467D01*
X150535409Y-113644718D01*
X150531538Y-113682391D01*
X150656269Y-113873000D01*
X151873000Y-113873000D01*
X151873000Y-113853000D01*
X152127000Y-113853000D01*
X152127000Y-113873000D01*
X152147000Y-113873000D01*
X152147000Y-114127000D01*
X152127000Y-114127000D01*
X152127000Y-115235000D01*
X152402000Y-115235000D01*
X152440011Y-115227269D01*
X152440010Y-118761928D01*
X151374999Y-118761928D01*
X151201745Y-118778992D01*
X151035149Y-118829528D01*
X150881613Y-118911595D01*
X150747038Y-119022038D01*
X150636595Y-119156613D01*
X150554528Y-119310149D01*
X150503992Y-119476745D01*
X150486928Y-119649999D01*
X150486928Y-120350001D01*
X150503992Y-120523255D01*
X150554528Y-120689851D01*
X150636595Y-120843387D01*
X150747038Y-120977962D01*
X150881613Y-121088405D01*
X150886406Y-121090967D01*
X150761922Y-121216526D01*
X150627579Y-121419467D01*
X150535409Y-121644718D01*
X150531538Y-121682391D01*
X150656269Y-121873000D01*
X151873000Y-121873000D01*
X151873000Y-121853000D01*
X152127000Y-121853000D01*
X152127000Y-121873000D01*
X152147000Y-121873000D01*
X152147000Y-122127000D01*
X152127000Y-122127000D01*
X152127000Y-123235000D01*
X152402000Y-123235000D01*
X152440011Y-123227269D01*
X152440010Y-125714857D01*
X151695442Y-126459427D01*
X151610595Y-126476304D01*
X151367641Y-126576939D01*
X151148987Y-126723038D01*
X150963038Y-126908987D01*
X150816939Y-127127641D01*
X150716304Y-127370595D01*
X150665000Y-127628514D01*
X150665000Y-127891486D01*
X150716304Y-128149405D01*
X150816939Y-128392359D01*
X150963038Y-128611013D01*
X151148987Y-128796962D01*
X151367641Y-128943061D01*
X151610595Y-129043696D01*
X151868514Y-129095000D01*
X152131486Y-129095000D01*
X152389405Y-129043696D01*
X152632359Y-128943061D01*
X152851013Y-128796962D01*
X153036962Y-128611013D01*
X153183061Y-128392359D01*
X153283696Y-128149405D01*
X153300573Y-128064558D01*
X154338156Y-127026977D01*
X154340000Y-127025463D01*
X154340000Y-149340000D01*
X119127000Y-149340000D01*
X119127000Y-116992702D01*
X129186903Y-116992702D01*
X129258486Y-117236671D01*
X129513996Y-117357571D01*
X129788184Y-117426300D01*
X130070512Y-117440217D01*
X130350130Y-117398787D01*
X130616292Y-117303603D01*
X130741514Y-117236671D01*
X130813097Y-116992702D01*
X130000000Y-116179605D01*
X129186903Y-116992702D01*
X119127000Y-116992702D01*
X119127000Y-116070512D01*
X128559783Y-116070512D01*
X128601213Y-116350130D01*
X128696397Y-116616292D01*
X128763329Y-116741514D01*
X129007298Y-116813097D01*
X129820395Y-116000000D01*
X130179605Y-116000000D01*
X130992702Y-116813097D01*
X131236671Y-116741514D01*
X131357571Y-116486004D01*
X131426300Y-116211816D01*
X131440217Y-115929488D01*
X131398787Y-115649870D01*
X131303603Y-115383708D01*
X131236671Y-115258486D01*
X130992702Y-115186903D01*
X130179605Y-116000000D01*
X129820395Y-116000000D01*
X129007298Y-115186903D01*
X128763329Y-115258486D01*
X128642429Y-115513996D01*
X128573700Y-115788184D01*
X128559783Y-116070512D01*
X119127000Y-116070512D01*
X119127000Y-115007298D01*
X129186903Y-115007298D01*
X130000000Y-115820395D01*
X130813097Y-115007298D01*
X130741514Y-114763329D01*
X130486004Y-114642429D01*
X130211816Y-114573700D01*
X129929488Y-114559783D01*
X129649870Y-114601213D01*
X129383708Y-114696397D01*
X129258486Y-114763329D01*
X129186903Y-115007298D01*
X119127000Y-115007298D01*
X119127000Y-105385807D01*
X119150000Y-105388072D01*
X119650000Y-105388072D01*
X119674450Y-105385664D01*
X119699009Y-105385664D01*
X119823490Y-105373404D01*
X119919623Y-105354282D01*
X120039319Y-105317973D01*
X120129875Y-105280464D01*
X120240192Y-105221498D01*
X120321691Y-105167042D01*
X120418382Y-105087690D01*
X120487690Y-105018382D01*
X120567042Y-104921691D01*
X120621498Y-104840192D01*
X120680464Y-104729875D01*
X120717973Y-104639319D01*
X120754282Y-104519623D01*
X120773404Y-104423490D01*
X120785664Y-104299009D01*
X120785664Y-104274450D01*
X120788072Y-104250000D01*
X120788072Y-104200000D01*
X135411928Y-104200000D01*
X135424188Y-104324482D01*
X135460498Y-104444180D01*
X135519463Y-104554494D01*
X135598815Y-104651185D01*
X135695506Y-104730537D01*
X135805820Y-104789502D01*
X135925518Y-104825812D01*
X136050000Y-104838072D01*
X139714250Y-104835000D01*
X139873000Y-104676250D01*
X139873000Y-103177000D01*
X135573750Y-103177000D01*
X135415000Y-103335750D01*
X135411928Y-104200000D01*
X120788072Y-104200000D01*
X120788072Y-103936729D01*
X123216730Y-101508072D01*
X125750000Y-101508072D01*
X125874482Y-101495812D01*
X125994180Y-101459502D01*
X126096144Y-101405000D01*
X129612420Y-101405000D01*
X129624188Y-101524482D01*
X129660498Y-101644180D01*
X129719463Y-101754494D01*
X129798815Y-101851185D01*
X129895506Y-101930537D01*
X130005820Y-101989502D01*
X130125518Y-102025812D01*
X130250000Y-102038072D01*
X134050000Y-102038072D01*
X134174482Y-102025812D01*
X134294180Y-101989502D01*
X134404494Y-101930537D01*
X134441703Y-101900000D01*
X135411928Y-101900000D01*
X135415000Y-102764250D01*
X135573750Y-102923000D01*
X139873000Y-102923000D01*
X139873000Y-101423750D01*
X140127000Y-101423750D01*
X140127000Y-102923000D01*
X144426250Y-102923000D01*
X144585000Y-102764250D01*
X144587586Y-102036859D01*
X145564250Y-102035000D01*
X145723000Y-101876250D01*
X145723000Y-100277000D01*
X143473750Y-100277000D01*
X143315000Y-100435750D01*
X143312366Y-101262463D01*
X140285750Y-101265000D01*
X140127000Y-101423750D01*
X139873000Y-101423750D01*
X139714250Y-101265000D01*
X136050000Y-101261928D01*
X135925518Y-101274188D01*
X135805820Y-101310498D01*
X135695506Y-101369463D01*
X135598815Y-101448815D01*
X135519463Y-101545506D01*
X135460498Y-101655820D01*
X135424188Y-101775518D01*
X135411928Y-101900000D01*
X134441703Y-101900000D01*
X134501185Y-101851185D01*
X134580537Y-101754494D01*
X134639502Y-101644180D01*
X134675812Y-101524482D01*
X134688072Y-101400000D01*
X134688072Y-98900000D01*
X143311928Y-98900000D01*
X143315000Y-99864250D01*
X143473750Y-100023000D01*
X145723000Y-100023000D01*
X145723000Y-98423750D01*
X145564250Y-98265000D01*
X143950000Y-98261928D01*
X143825518Y-98274188D01*
X143705820Y-98310498D01*
X143595506Y-98369463D01*
X143498815Y-98448815D01*
X143419463Y-98545506D01*
X143360498Y-98655820D01*
X143324188Y-98775518D01*
X143311928Y-98900000D01*
X134688072Y-98900000D01*
X134675812Y-98775518D01*
X134639502Y-98655820D01*
X134580537Y-98545506D01*
X134501185Y-98448815D01*
X134404494Y-98369463D01*
X134294180Y-98310498D01*
X134174482Y-98274188D01*
X134050000Y-98261928D01*
X130250000Y-98261928D01*
X130125518Y-98274188D01*
X130005820Y-98310498D01*
X129895506Y-98369463D01*
X129798815Y-98448815D01*
X129719463Y-98545506D01*
X129660498Y-98655820D01*
X129624188Y-98775518D01*
X129611928Y-98900000D01*
X129611928Y-99135000D01*
X126096144Y-99135000D01*
X125994180Y-99080498D01*
X125874482Y-99044188D01*
X125750000Y-99031928D01*
X121750000Y-99031928D01*
X121625518Y-99044188D01*
X121505820Y-99080498D01*
X121395506Y-99139463D01*
X121298815Y-99218815D01*
X121219463Y-99315506D01*
X121160498Y-99425820D01*
X121124188Y-99545518D01*
X121111928Y-99670000D01*
X121111928Y-100870000D01*
X121124188Y-100994482D01*
X121160498Y-101114180D01*
X121219463Y-101224494D01*
X121278620Y-101296578D01*
X119927186Y-102648012D01*
X119919623Y-102645718D01*
X119823490Y-102626596D01*
X119699009Y-102614336D01*
X119674450Y-102614336D01*
X119650000Y-102611928D01*
X119150000Y-102611928D01*
X119127000Y-102614193D01*
X119127000Y-95385807D01*
X119150000Y-95388072D01*
X119650000Y-95388072D01*
X119674450Y-95385664D01*
X119699009Y-95385664D01*
X119823490Y-95373404D01*
X119919623Y-95354282D01*
X119927186Y-95351988D01*
X121278620Y-96703422D01*
X121219463Y-96775506D01*
X121160498Y-96885820D01*
X121124188Y-97005518D01*
X121111928Y-97130000D01*
X121111928Y-98330000D01*
X121124188Y-98454482D01*
X121160498Y-98574180D01*
X121219463Y-98684494D01*
X121298815Y-98781185D01*
X121395506Y-98860537D01*
X121505820Y-98919502D01*
X121625518Y-98955812D01*
X121750000Y-98968072D01*
X125750000Y-98968072D01*
X125874482Y-98955812D01*
X125994180Y-98919502D01*
X126096144Y-98865000D01*
X126214249Y-98865000D01*
X126270000Y-98870491D01*
X126325751Y-98865000D01*
X126325752Y-98865000D01*
X126492499Y-98848577D01*
X126706447Y-98783676D01*
X126903623Y-98678284D01*
X127076449Y-98536449D01*
X127111996Y-98493135D01*
X127291988Y-98313143D01*
X127369139Y-98219135D01*
X127463143Y-98141988D01*
X128620133Y-96985000D01*
X129611928Y-96985000D01*
X129611928Y-97100000D01*
X129624188Y-97224482D01*
X129660498Y-97344180D01*
X129719463Y-97454494D01*
X129798815Y-97551185D01*
X129895506Y-97630537D01*
X130005820Y-97689502D01*
X130125518Y-97725812D01*
X130250000Y-97738072D01*
X134050000Y-97738072D01*
X134174482Y-97725812D01*
X134294180Y-97689502D01*
X134404494Y-97630537D01*
X134501185Y-97551185D01*
X134580537Y-97454494D01*
X134639502Y-97344180D01*
X134675812Y-97224482D01*
X134688072Y-97100000D01*
X134688072Y-94600000D01*
X134675812Y-94475518D01*
X134639502Y-94355820D01*
X134580537Y-94245506D01*
X134501185Y-94148815D01*
X134404494Y-94069463D01*
X134294180Y-94010498D01*
X134259573Y-94000000D01*
X139911928Y-94000000D01*
X139924188Y-94124482D01*
X139960498Y-94244180D01*
X140019463Y-94354494D01*
X140098815Y-94451185D01*
X140195506Y-94530537D01*
X140305820Y-94589502D01*
X140425518Y-94625812D01*
X140550000Y-94638072D01*
X141964250Y-94635000D01*
X142123000Y-94476250D01*
X142123000Y-92977000D01*
X140073750Y-92977000D01*
X139915000Y-93135750D01*
X139911928Y-94000000D01*
X134259573Y-94000000D01*
X134174482Y-93974188D01*
X134050000Y-93961928D01*
X130250000Y-93961928D01*
X130125518Y-93974188D01*
X130005820Y-94010498D01*
X129895506Y-94069463D01*
X129798815Y-94148815D01*
X129719463Y-94245506D01*
X129660498Y-94355820D01*
X129624188Y-94475518D01*
X129611928Y-94600000D01*
X129611928Y-94715000D01*
X128205752Y-94715000D01*
X128150000Y-94709509D01*
X127927501Y-94731423D01*
X127713553Y-94796324D01*
X127516377Y-94901716D01*
X127386856Y-95008011D01*
X127386855Y-95008012D01*
X127343551Y-95043551D01*
X127308013Y-95086854D01*
X125886911Y-96507958D01*
X125874482Y-96504188D01*
X125750000Y-96491928D01*
X123216730Y-96491928D01*
X120788072Y-94063271D01*
X120788072Y-93750000D01*
X120785664Y-93725550D01*
X120785664Y-93700991D01*
X120773404Y-93576510D01*
X120754282Y-93480377D01*
X120717973Y-93360681D01*
X120680464Y-93270125D01*
X120621498Y-93159808D01*
X120567042Y-93078309D01*
X120487690Y-92981618D01*
X120418382Y-92912310D01*
X120321691Y-92832958D01*
X120240192Y-92778502D01*
X120129875Y-92719536D01*
X120039319Y-92682027D01*
X119919623Y-92645718D01*
X119823490Y-92626596D01*
X119699009Y-92614336D01*
X119674450Y-92614336D01*
X119650000Y-92611928D01*
X119150000Y-92611928D01*
X119127000Y-92614193D01*
X119127000Y-91325000D01*
X125161928Y-91325000D01*
X125174188Y-91449482D01*
X125210498Y-91569180D01*
X125269463Y-91679494D01*
X125348815Y-91776185D01*
X125445506Y-91855537D01*
X125555820Y-91914502D01*
X125675518Y-91950812D01*
X125800000Y-91963072D01*
X126226750Y-91960000D01*
X126385500Y-91801250D01*
X126385500Y-90127000D01*
X126639500Y-90127000D01*
X126639500Y-91801250D01*
X126798250Y-91960000D01*
X127225000Y-91963072D01*
X127349482Y-91950812D01*
X127469180Y-91914502D01*
X127579494Y-91855537D01*
X127676185Y-91776185D01*
X127755537Y-91679494D01*
X127814502Y-91569180D01*
X127850812Y-91449482D01*
X127863072Y-91325000D01*
X127860000Y-90285750D01*
X127701250Y-90127000D01*
X126639500Y-90127000D01*
X126385500Y-90127000D01*
X125323750Y-90127000D01*
X125165000Y-90285750D01*
X125161928Y-91325000D01*
X119127000Y-91325000D01*
X119127000Y-88675000D01*
X125161928Y-88675000D01*
X125165000Y-89714250D01*
X125323750Y-89873000D01*
X126385500Y-89873000D01*
X126385500Y-88198750D01*
X126639500Y-88198750D01*
X126639500Y-89873000D01*
X127701250Y-89873000D01*
X127860000Y-89714250D01*
X127863072Y-88675000D01*
X127850812Y-88550518D01*
X127814502Y-88430820D01*
X127755537Y-88320506D01*
X127676185Y-88223815D01*
X127579494Y-88144463D01*
X127469180Y-88085498D01*
X127349482Y-88049188D01*
X127225000Y-88036928D01*
X126798250Y-88040000D01*
X126639500Y-88198750D01*
X126385500Y-88198750D01*
X126226750Y-88040000D01*
X125800000Y-88036928D01*
X125675518Y-88049188D01*
X125555820Y-88085498D01*
X125445506Y-88144463D01*
X125348815Y-88223815D01*
X125269463Y-88320506D01*
X125210498Y-88430820D01*
X125174188Y-88550518D01*
X125161928Y-88675000D01*
X119127000Y-88675000D01*
X119127000Y-86385807D01*
X119150000Y-86388072D01*
X119650000Y-86388072D01*
X119674450Y-86385664D01*
X119699009Y-86385664D01*
X119823490Y-86373404D01*
X119919623Y-86354282D01*
X120039319Y-86317973D01*
X120129875Y-86280464D01*
X120240192Y-86221498D01*
X120321691Y-86167042D01*
X120418382Y-86087690D01*
X120487690Y-86018382D01*
X120567042Y-85921691D01*
X120621498Y-85840192D01*
X120680464Y-85729875D01*
X120717973Y-85639319D01*
X120754282Y-85519623D01*
X120773404Y-85423490D01*
X120785664Y-85299009D01*
X120785664Y-85274450D01*
X120788072Y-85250000D01*
X120788072Y-84936729D01*
X123216730Y-82508072D01*
X125750000Y-82508072D01*
X125874482Y-82495812D01*
X125994180Y-82459502D01*
X126096144Y-82405000D01*
X126279869Y-82405000D01*
X128788009Y-84913141D01*
X128823551Y-84956449D01*
X128996377Y-85098284D01*
X129193553Y-85203676D01*
X129407501Y-85268577D01*
X129629999Y-85290491D01*
X129685751Y-85285000D01*
X130611928Y-85285000D01*
X130611928Y-85400000D01*
X130624188Y-85524482D01*
X130660498Y-85644180D01*
X130719463Y-85754494D01*
X130798815Y-85851185D01*
X130895506Y-85930537D01*
X131005820Y-85989502D01*
X131125518Y-86025812D01*
X131250000Y-86038072D01*
X135050000Y-86038072D01*
X135174482Y-86025812D01*
X135294180Y-85989502D01*
X135404494Y-85930537D01*
X135441703Y-85900000D01*
X136411928Y-85900000D01*
X136415000Y-86764250D01*
X136573750Y-86923000D01*
X140873000Y-86923000D01*
X140873000Y-85423750D01*
X141127000Y-85423750D01*
X141127000Y-86923000D01*
X145426250Y-86923000D01*
X145585000Y-86764250D01*
X145587586Y-86036859D01*
X146564250Y-86035000D01*
X146723000Y-85876250D01*
X146723000Y-84277000D01*
X146977000Y-84277000D01*
X146977000Y-85876250D01*
X147135750Y-86035000D01*
X148750000Y-86038072D01*
X148874482Y-86025812D01*
X148994180Y-85989502D01*
X149104494Y-85930537D01*
X149201185Y-85851185D01*
X149280537Y-85754494D01*
X149339502Y-85644180D01*
X149375812Y-85524482D01*
X149388072Y-85400000D01*
X149385000Y-84435750D01*
X149226250Y-84277000D01*
X146977000Y-84277000D01*
X146723000Y-84277000D01*
X144473750Y-84277000D01*
X144315000Y-84435750D01*
X144312366Y-85262463D01*
X141285750Y-85265000D01*
X141127000Y-85423750D01*
X140873000Y-85423750D01*
X140714250Y-85265000D01*
X137050000Y-85261928D01*
X136925518Y-85274188D01*
X136805820Y-85310498D01*
X136695506Y-85369463D01*
X136598815Y-85448815D01*
X136519463Y-85545506D01*
X136460498Y-85655820D01*
X136424188Y-85775518D01*
X136411928Y-85900000D01*
X135441703Y-85900000D01*
X135501185Y-85851185D01*
X135580537Y-85754494D01*
X135639502Y-85644180D01*
X135675812Y-85524482D01*
X135688072Y-85400000D01*
X135688072Y-82900000D01*
X144311928Y-82900000D01*
X144315000Y-83864250D01*
X144473750Y-84023000D01*
X146723000Y-84023000D01*
X146723000Y-82423750D01*
X146977000Y-82423750D01*
X146977000Y-84023000D01*
X149226250Y-84023000D01*
X149385000Y-83864250D01*
X149388072Y-82900000D01*
X149375812Y-82775518D01*
X149339502Y-82655820D01*
X149280537Y-82545506D01*
X149201185Y-82448815D01*
X149104494Y-82369463D01*
X148994180Y-82310498D01*
X148874482Y-82274188D01*
X148750000Y-82261928D01*
X147135750Y-82265000D01*
X146977000Y-82423750D01*
X146723000Y-82423750D01*
X146564250Y-82265000D01*
X144950000Y-82261928D01*
X144825518Y-82274188D01*
X144705820Y-82310498D01*
X144595506Y-82369463D01*
X144498815Y-82448815D01*
X144419463Y-82545506D01*
X144360498Y-82655820D01*
X144324188Y-82775518D01*
X144311928Y-82900000D01*
X135688072Y-82900000D01*
X135675812Y-82775518D01*
X135639502Y-82655820D01*
X135580537Y-82545506D01*
X135501185Y-82448815D01*
X135404494Y-82369463D01*
X135294180Y-82310498D01*
X135174482Y-82274188D01*
X135050000Y-82261928D01*
X131250000Y-82261928D01*
X131125518Y-82274188D01*
X131005820Y-82310498D01*
X130895506Y-82369463D01*
X130798815Y-82448815D01*
X130719463Y-82545506D01*
X130660498Y-82655820D01*
X130624188Y-82775518D01*
X130611928Y-82900000D01*
X130611928Y-83015000D01*
X130100132Y-83015000D01*
X127591996Y-80506865D01*
X127556449Y-80463551D01*
X127383623Y-80321716D01*
X127186447Y-80216324D01*
X126972499Y-80151423D01*
X126805752Y-80135000D01*
X126805751Y-80135000D01*
X126750000Y-80129509D01*
X126694249Y-80135000D01*
X126096144Y-80135000D01*
X125994180Y-80080498D01*
X125874482Y-80044188D01*
X125750000Y-80031928D01*
X121750000Y-80031928D01*
X121625518Y-80044188D01*
X121505820Y-80080498D01*
X121395506Y-80139463D01*
X121298815Y-80218815D01*
X121219463Y-80315506D01*
X121160498Y-80425820D01*
X121124188Y-80545518D01*
X121111928Y-80670000D01*
X121111928Y-81870000D01*
X121124188Y-81994482D01*
X121160498Y-82114180D01*
X121219463Y-82224494D01*
X121278620Y-82296578D01*
X119927186Y-83648012D01*
X119919623Y-83645718D01*
X119823490Y-83626596D01*
X119699009Y-83614336D01*
X119674450Y-83614336D01*
X119650000Y-83611928D01*
X119150000Y-83611928D01*
X119127000Y-83614193D01*
X119127000Y-76385807D01*
X119150000Y-76388072D01*
X119650000Y-76388072D01*
X119674450Y-76385664D01*
X119699009Y-76385664D01*
X119823490Y-76373404D01*
X119919623Y-76354282D01*
X119927186Y-76351988D01*
X121278620Y-77703422D01*
X121219463Y-77775506D01*
X121160498Y-77885820D01*
X121124188Y-78005518D01*
X121111928Y-78130000D01*
X121111928Y-79330000D01*
X121124188Y-79454482D01*
X121160498Y-79574180D01*
X121219463Y-79684494D01*
X121298815Y-79781185D01*
X121395506Y-79860537D01*
X121505820Y-79919502D01*
X121625518Y-79955812D01*
X121750000Y-79968072D01*
X125750000Y-79968072D01*
X125874482Y-79955812D01*
X125994180Y-79919502D01*
X126096144Y-79865000D01*
X130611928Y-79865000D01*
X130611928Y-81100000D01*
X130624188Y-81224482D01*
X130660498Y-81344180D01*
X130719463Y-81454494D01*
X130798815Y-81551185D01*
X130895506Y-81630537D01*
X131005820Y-81689502D01*
X131125518Y-81725812D01*
X131250000Y-81738072D01*
X135050000Y-81738072D01*
X135174482Y-81725812D01*
X135294180Y-81689502D01*
X135404494Y-81630537D01*
X135501185Y-81551185D01*
X135580537Y-81454494D01*
X135639502Y-81344180D01*
X135675812Y-81224482D01*
X135688072Y-81100000D01*
X135688072Y-78600000D01*
X135675812Y-78475518D01*
X135639502Y-78355820D01*
X135580537Y-78245506D01*
X135501185Y-78148815D01*
X135404494Y-78069463D01*
X135294180Y-78010498D01*
X135259573Y-78000000D01*
X140911928Y-78000000D01*
X140924188Y-78124482D01*
X140960498Y-78244180D01*
X141019463Y-78354494D01*
X141098815Y-78451185D01*
X141195506Y-78530537D01*
X141305820Y-78589502D01*
X141425518Y-78625812D01*
X141550000Y-78638072D01*
X142964250Y-78635000D01*
X143123000Y-78476250D01*
X143123000Y-76977000D01*
X141073750Y-76977000D01*
X140915000Y-77135750D01*
X140911928Y-78000000D01*
X135259573Y-78000000D01*
X135174482Y-77974188D01*
X135050000Y-77961928D01*
X132867944Y-77961928D01*
X132836449Y-77923551D01*
X132663623Y-77781716D01*
X132466447Y-77676324D01*
X132252499Y-77611423D01*
X132085752Y-77595000D01*
X132085751Y-77595000D01*
X132030000Y-77589509D01*
X131974249Y-77595000D01*
X126096144Y-77595000D01*
X125994180Y-77540498D01*
X125874482Y-77504188D01*
X125750000Y-77491928D01*
X123216730Y-77491928D01*
X121424802Y-75700000D01*
X140911928Y-75700000D01*
X140915000Y-76564250D01*
X141073750Y-76723000D01*
X143123000Y-76723000D01*
X143123000Y-75223750D01*
X142964250Y-75065000D01*
X141550000Y-75061928D01*
X141425518Y-75074188D01*
X141305820Y-75110498D01*
X141195506Y-75169463D01*
X141098815Y-75248815D01*
X141019463Y-75345506D01*
X140960498Y-75455820D01*
X140924188Y-75575518D01*
X140911928Y-75700000D01*
X121424802Y-75700000D01*
X120788072Y-75063271D01*
X120788072Y-74750000D01*
X120785664Y-74725550D01*
X120785664Y-74700991D01*
X120773404Y-74576510D01*
X120754282Y-74480377D01*
X120717973Y-74360681D01*
X120680464Y-74270125D01*
X120621498Y-74159808D01*
X120567042Y-74078309D01*
X120487690Y-73981618D01*
X120418382Y-73912310D01*
X120321691Y-73832958D01*
X120240192Y-73778502D01*
X120129875Y-73719536D01*
X120039319Y-73682027D01*
X119919623Y-73645718D01*
X119823490Y-73626596D01*
X119699009Y-73614336D01*
X119674450Y-73614336D01*
X119650000Y-73611928D01*
X119150000Y-73611928D01*
X119127000Y-73614193D01*
X119127000Y-65992702D01*
X129186903Y-65992702D01*
X129258486Y-66236671D01*
X129513996Y-66357571D01*
X129788184Y-66426300D01*
X130070512Y-66440217D01*
X130350130Y-66398787D01*
X130616292Y-66303603D01*
X130741514Y-66236671D01*
X130813097Y-65992702D01*
X130000000Y-65179605D01*
X129186903Y-65992702D01*
X119127000Y-65992702D01*
X119127000Y-65070512D01*
X128559783Y-65070512D01*
X128601213Y-65350130D01*
X128696397Y-65616292D01*
X128763329Y-65741514D01*
X129007298Y-65813097D01*
X129820395Y-65000000D01*
X130179605Y-65000000D01*
X130992702Y-65813097D01*
X131236671Y-65741514D01*
X131357571Y-65486004D01*
X131426300Y-65211816D01*
X131440217Y-64929488D01*
X131398787Y-64649870D01*
X131303603Y-64383708D01*
X131236671Y-64258486D01*
X130992702Y-64186903D01*
X130179605Y-65000000D01*
X129820395Y-65000000D01*
X129007298Y-64186903D01*
X128763329Y-64258486D01*
X128642429Y-64513996D01*
X128573700Y-64788184D01*
X128559783Y-65070512D01*
X119127000Y-65070512D01*
X119127000Y-64007298D01*
X129186903Y-64007298D01*
X130000000Y-64820395D01*
X130813097Y-64007298D01*
X130741514Y-63763329D01*
X130486004Y-63642429D01*
X130211816Y-63573700D01*
X129929488Y-63559783D01*
X129649870Y-63601213D01*
X129383708Y-63696397D01*
X129258486Y-63763329D01*
X129186903Y-64007298D01*
X119127000Y-64007298D01*
X119127000Y-50660000D01*
X154340001Y-50660000D01*
X154340001Y-82013985D01*
G36*
X117596226Y-73900322D02*
G01*
X117581618Y-73912310D01*
X117512310Y-73981618D01*
X117432958Y-74078309D01*
X117378502Y-74159808D01*
X117335638Y-74240000D01*
X117037325Y-74240000D01*
X117000000Y-74236324D01*
X116962675Y-74240000D01*
X116962667Y-74240000D01*
X116851014Y-74250997D01*
X116707753Y-74294454D01*
X116575724Y-74365026D01*
X116459999Y-74459999D01*
X116436201Y-74488997D01*
X115135000Y-75790199D01*
X115135000Y-72832163D01*
X115248254Y-72821008D01*
X115414850Y-72770472D01*
X115568386Y-72688405D01*
X115702962Y-72577962D01*
X115813405Y-72443386D01*
X115895472Y-72289850D01*
X115946008Y-72123254D01*
X115963072Y-71950000D01*
X115963072Y-71025000D01*
X115946008Y-70851746D01*
X115895472Y-70685150D01*
X115813405Y-70531614D01*
X115702962Y-70397038D01*
X115568386Y-70286595D01*
X115414850Y-70204528D01*
X115248254Y-70153992D01*
X115075000Y-70136928D01*
X112925000Y-70136928D01*
X112751746Y-70153992D01*
X112585150Y-70204528D01*
X112584267Y-70205000D01*
X110514016Y-70205000D01*
X110281935Y-69972919D01*
X109993673Y-69780308D01*
X109673373Y-69647636D01*
X109333345Y-69580000D01*
X108986655Y-69580000D01*
X108646627Y-69647636D01*
X108326327Y-69780308D01*
X108038065Y-69972919D01*
X107792919Y-70218065D01*
X107600308Y-70506327D01*
X107467636Y-70826627D01*
X107400000Y-71166655D01*
X107400000Y-71513345D01*
X107467636Y-71853373D01*
X107600308Y-72173673D01*
X107792919Y-72461935D01*
X108038065Y-72707081D01*
X108326327Y-72899692D01*
X108646627Y-73032364D01*
X108986655Y-73100000D01*
X109333345Y-73100000D01*
X109673373Y-73032364D01*
X109993673Y-72899692D01*
X110281935Y-72707081D01*
X110514016Y-72475000D01*
X112212540Y-72475000D01*
X112297038Y-72577962D01*
X112431614Y-72688405D01*
X112585150Y-72770472D01*
X112751746Y-72821008D01*
X112865000Y-72832163D01*
X112865001Y-77491928D01*
X112250000Y-77491928D01*
X112125518Y-77504188D01*
X112005820Y-77540498D01*
X111895506Y-77599463D01*
X111798815Y-77678815D01*
X111719463Y-77775506D01*
X111660498Y-77885820D01*
X111624188Y-78005518D01*
X111611928Y-78130000D01*
X111611928Y-79330000D01*
X111624188Y-79454482D01*
X111660498Y-79574180D01*
X111719463Y-79684494D01*
X111798815Y-79781185D01*
X111895506Y-79860537D01*
X112005820Y-79919502D01*
X112125518Y-79955812D01*
X112250000Y-79968072D01*
X116250000Y-79968072D01*
X116374482Y-79955812D01*
X116494180Y-79919502D01*
X116604494Y-79860537D01*
X116701185Y-79781185D01*
X116780537Y-79684494D01*
X116839502Y-79574180D01*
X116875812Y-79454482D01*
X116888072Y-79330000D01*
X116888072Y-78130000D01*
X116875812Y-78005518D01*
X116839502Y-77885820D01*
X116780537Y-77775506D01*
X116701185Y-77678815D01*
X116604494Y-77599463D01*
X116494180Y-77540498D01*
X116374482Y-77504188D01*
X116250000Y-77491928D01*
X116010000Y-77491928D01*
X116010000Y-77064801D01*
X117314802Y-75760000D01*
X117335638Y-75760000D01*
X117378502Y-75840192D01*
X117432958Y-75921691D01*
X117512310Y-76018382D01*
X117581618Y-76087690D01*
X117596226Y-76099678D01*
X117596226Y-92900322D01*
X117581618Y-92912310D01*
X117512310Y-92981618D01*
X117432958Y-93078309D01*
X117378502Y-93159808D01*
X117335638Y-93240000D01*
X116037322Y-93240000D01*
X115999999Y-93236324D01*
X115973933Y-93238891D01*
X116068386Y-93188405D01*
X116202962Y-93077962D01*
X116313405Y-92943386D01*
X116395472Y-92789850D01*
X116446008Y-92623254D01*
X116463072Y-92450000D01*
X116463072Y-91525000D01*
X116446008Y-91351746D01*
X116395472Y-91185150D01*
X116313405Y-91031614D01*
X116202962Y-90897038D01*
X116068386Y-90786595D01*
X115914850Y-90704528D01*
X115748254Y-90653992D01*
X115575000Y-90636928D01*
X113425000Y-90636928D01*
X113251746Y-90653992D01*
X113085150Y-90704528D01*
X112931614Y-90786595D01*
X112851308Y-90852500D01*
X110730533Y-90852500D01*
X110719692Y-90826327D01*
X110527081Y-90538065D01*
X110281935Y-90292919D01*
X109993673Y-90100308D01*
X109673373Y-89967636D01*
X109333345Y-89900000D01*
X108986655Y-89900000D01*
X108646627Y-89967636D01*
X108326327Y-90100308D01*
X108038065Y-90292919D01*
X107792919Y-90538065D01*
X107600308Y-90826327D01*
X107467636Y-91146627D01*
X107400000Y-91486655D01*
X107400000Y-91833345D01*
X107467636Y-92173373D01*
X107600308Y-92493673D01*
X107792919Y-92781935D01*
X108038065Y-93027081D01*
X108326327Y-93219692D01*
X108646627Y-93352364D01*
X108986655Y-93420000D01*
X109333345Y-93420000D01*
X109673373Y-93352364D01*
X109993673Y-93219692D01*
X110139131Y-93122500D01*
X112851308Y-93122500D01*
X112931614Y-93188405D01*
X113085150Y-93270472D01*
X113251746Y-93321008D01*
X113365000Y-93332163D01*
X113365001Y-96491928D01*
X112250000Y-96491928D01*
X112125518Y-96504188D01*
X112005820Y-96540498D01*
X111895506Y-96599463D01*
X111798815Y-96678815D01*
X111719463Y-96775506D01*
X111660498Y-96885820D01*
X111624188Y-97005518D01*
X111611928Y-97130000D01*
X111611928Y-97348937D01*
X111564454Y-97437753D01*
X111520997Y-97581014D01*
X111506323Y-97730000D01*
X111520997Y-97878986D01*
X111564454Y-98022247D01*
X111611928Y-98111063D01*
X111611928Y-98330000D01*
X111624188Y-98454482D01*
X111660498Y-98574180D01*
X111719463Y-98684494D01*
X111798815Y-98781185D01*
X111895506Y-98860537D01*
X112005820Y-98919502D01*
X112125518Y-98955812D01*
X112250000Y-98968072D01*
X116250000Y-98968072D01*
X116374482Y-98955812D01*
X116494180Y-98919502D01*
X116604494Y-98860537D01*
X116701185Y-98781185D01*
X116780537Y-98684494D01*
X116839502Y-98574180D01*
X116875812Y-98454482D01*
X116888072Y-98330000D01*
X116888072Y-97130000D01*
X116875812Y-97005518D01*
X116839502Y-96885820D01*
X116780537Y-96775506D01*
X116701185Y-96678815D01*
X116604494Y-96599463D01*
X116494180Y-96540498D01*
X116374482Y-96504188D01*
X116250000Y-96491928D01*
X116010000Y-96491928D01*
X116010000Y-95064801D01*
X116314802Y-94760000D01*
X117335638Y-94760000D01*
X117378502Y-94840192D01*
X117432958Y-94921691D01*
X117512310Y-95018382D01*
X117581618Y-95087690D01*
X117596226Y-95099678D01*
X117596226Y-103873000D01*
X100850226Y-103873000D01*
X100850226Y-100870000D01*
X111611928Y-100870000D01*
X111624188Y-100994482D01*
X111660498Y-101114180D01*
X111719463Y-101224494D01*
X111798815Y-101321185D01*
X111895506Y-101400537D01*
X112005820Y-101459502D01*
X112125518Y-101495812D01*
X112250000Y-101508072D01*
X113964250Y-101505000D01*
X114123000Y-101346250D01*
X114123000Y-100397000D01*
X114377000Y-100397000D01*
X114377000Y-101346250D01*
X114535750Y-101505000D01*
X116250000Y-101508072D01*
X116374482Y-101495812D01*
X116494180Y-101459502D01*
X116604494Y-101400537D01*
X116701185Y-101321185D01*
X116780537Y-101224494D01*
X116839502Y-101114180D01*
X116875812Y-100994482D01*
X116888072Y-100870000D01*
X116885000Y-100555750D01*
X116726250Y-100397000D01*
X114377000Y-100397000D01*
X114123000Y-100397000D01*
X111773750Y-100397000D01*
X111615000Y-100555750D01*
X111611928Y-100870000D01*
X100850226Y-100870000D01*
X100850226Y-99670000D01*
X111611928Y-99670000D01*
X111615000Y-99984250D01*
X111773750Y-100143000D01*
X114123000Y-100143000D01*
X114123000Y-99193750D01*
X114377000Y-99193750D01*
X114377000Y-100143000D01*
X116726250Y-100143000D01*
X116885000Y-99984250D01*
X116888072Y-99670000D01*
X116875812Y-99545518D01*
X116839502Y-99425820D01*
X116780537Y-99315506D01*
X116701185Y-99218815D01*
X116604494Y-99139463D01*
X116494180Y-99080498D01*
X116374482Y-99044188D01*
X116250000Y-99031928D01*
X114535750Y-99035000D01*
X114377000Y-99193750D01*
X114123000Y-99193750D01*
X113964250Y-99035000D01*
X112250000Y-99031928D01*
X112125518Y-99044188D01*
X112005820Y-99080498D01*
X111895506Y-99139463D01*
X111798815Y-99218815D01*
X111719463Y-99315506D01*
X111660498Y-99425820D01*
X111624188Y-99545518D01*
X111611928Y-99670000D01*
X100850226Y-99670000D01*
X100850226Y-89725000D01*
X112536928Y-89725000D01*
X112549188Y-89849482D01*
X112585498Y-89969180D01*
X112644463Y-90079494D01*
X112723815Y-90176185D01*
X112820506Y-90255537D01*
X112930820Y-90314502D01*
X113050518Y-90350812D01*
X113175000Y-90363072D01*
X114214250Y-90360000D01*
X114373000Y-90201250D01*
X114373000Y-89139500D01*
X114627000Y-89139500D01*
X114627000Y-90201250D01*
X114785750Y-90360000D01*
X115825000Y-90363072D01*
X115949482Y-90350812D01*
X116069180Y-90314502D01*
X116179494Y-90255537D01*
X116276185Y-90176185D01*
X116355537Y-90079494D01*
X116414502Y-89969180D01*
X116450812Y-89849482D01*
X116463072Y-89725000D01*
X116460000Y-89298250D01*
X116301250Y-89139500D01*
X114627000Y-89139500D01*
X114373000Y-89139500D01*
X112698750Y-89139500D01*
X112540000Y-89298250D01*
X112536928Y-89725000D01*
X100850226Y-89725000D01*
X100850226Y-88300000D01*
X112536928Y-88300000D01*
X112540000Y-88726750D01*
X112698750Y-88885500D01*
X114373000Y-88885500D01*
X114373000Y-87823750D01*
X114627000Y-87823750D01*
X114627000Y-88885500D01*
X116301250Y-88885500D01*
X116460000Y-88726750D01*
X116463072Y-88300000D01*
X116450812Y-88175518D01*
X116414502Y-88055820D01*
X116355537Y-87945506D01*
X116276185Y-87848815D01*
X116179494Y-87769463D01*
X116069180Y-87710498D01*
X115949482Y-87674188D01*
X115825000Y-87661928D01*
X114785750Y-87665000D01*
X114627000Y-87823750D01*
X114373000Y-87823750D01*
X114214250Y-87665000D01*
X113175000Y-87661928D01*
X113050518Y-87674188D01*
X112930820Y-87710498D01*
X112820506Y-87769463D01*
X112723815Y-87848815D01*
X112644463Y-87945506D01*
X112585498Y-88055820D01*
X112549188Y-88175518D01*
X112536928Y-88300000D01*
X100850226Y-88300000D01*
X100850226Y-82724531D01*
X108115074Y-82724531D01*
X108225921Y-83001714D01*
X108536840Y-83155089D01*
X108871705Y-83244860D01*
X109217650Y-83267576D01*
X109561380Y-83222366D01*
X109889685Y-83110966D01*
X110094079Y-83001714D01*
X110204926Y-82724531D01*
X109160000Y-81679605D01*
X108115074Y-82724531D01*
X100850226Y-82724531D01*
X100850226Y-81557650D01*
X107392424Y-81557650D01*
X107437634Y-81901380D01*
X107549034Y-82229685D01*
X107658286Y-82434079D01*
X107935469Y-82544926D01*
X108980395Y-81500000D01*
X109339605Y-81500000D01*
X110384531Y-82544926D01*
X110661714Y-82434079D01*
X110815089Y-82123160D01*
X110882956Y-81870000D01*
X111611928Y-81870000D01*
X111624188Y-81994482D01*
X111660498Y-82114180D01*
X111719463Y-82224494D01*
X111798815Y-82321185D01*
X111895506Y-82400537D01*
X112005820Y-82459502D01*
X112125518Y-82495812D01*
X112250000Y-82508072D01*
X113964250Y-82505000D01*
X114123000Y-82346250D01*
X114123000Y-81397000D01*
X114377000Y-81397000D01*
X114377000Y-82346250D01*
X114535750Y-82505000D01*
X116250000Y-82508072D01*
X116374482Y-82495812D01*
X116494180Y-82459502D01*
X116604494Y-82400537D01*
X116701185Y-82321185D01*
X116780537Y-82224494D01*
X116839502Y-82114180D01*
X116875812Y-81994482D01*
X116888072Y-81870000D01*
X116885000Y-81555750D01*
X116726250Y-81397000D01*
X114377000Y-81397000D01*
X114123000Y-81397000D01*
X111773750Y-81397000D01*
X111615000Y-81555750D01*
X111611928Y-81870000D01*
X110882956Y-81870000D01*
X110904860Y-81788295D01*
X110927576Y-81442350D01*
X110882366Y-81098620D01*
X110770966Y-80770315D01*
X110717346Y-80670000D01*
X111611928Y-80670000D01*
X111615000Y-80984250D01*
X111773750Y-81143000D01*
X114123000Y-81143000D01*
X114123000Y-80193750D01*
X114377000Y-80193750D01*
X114377000Y-81143000D01*
X116726250Y-81143000D01*
X116885000Y-80984250D01*
X116888072Y-80670000D01*
X116875812Y-80545518D01*
X116839502Y-80425820D01*
X116780537Y-80315506D01*
X116701185Y-80218815D01*
X116604494Y-80139463D01*
X116494180Y-80080498D01*
X116374482Y-80044188D01*
X116250000Y-80031928D01*
X114535750Y-80035000D01*
X114377000Y-80193750D01*
X114123000Y-80193750D01*
X113964250Y-80035000D01*
X112250000Y-80031928D01*
X112125518Y-80044188D01*
X112005820Y-80080498D01*
X111895506Y-80139463D01*
X111798815Y-80218815D01*
X111719463Y-80315506D01*
X111660498Y-80425820D01*
X111624188Y-80545518D01*
X111611928Y-80670000D01*
X110717346Y-80670000D01*
X110661714Y-80565921D01*
X110384531Y-80455074D01*
X109339605Y-81500000D01*
X108980395Y-81500000D01*
X107935469Y-80455074D01*
X107658286Y-80565921D01*
X107504911Y-80876840D01*
X107415140Y-81211705D01*
X107392424Y-81557650D01*
X100850226Y-81557650D01*
X100850226Y-80275469D01*
X108115074Y-80275469D01*
X109160000Y-81320395D01*
X110204926Y-80275469D01*
X110094079Y-79998286D01*
X109783160Y-79844911D01*
X109448295Y-79755140D01*
X109102350Y-79732424D01*
X108758620Y-79777634D01*
X108430315Y-79889034D01*
X108225921Y-79998286D01*
X108115074Y-80275469D01*
X100850226Y-80275469D01*
X100850226Y-69225000D01*
X112036928Y-69225000D01*
X112049188Y-69349482D01*
X112085498Y-69469180D01*
X112144463Y-69579494D01*
X112223815Y-69676185D01*
X112320506Y-69755537D01*
X112430820Y-69814502D01*
X112550518Y-69850812D01*
X112675000Y-69863072D01*
X113714250Y-69860000D01*
X113873000Y-69701250D01*
X113873000Y-68639500D01*
X114127000Y-68639500D01*
X114127000Y-69701250D01*
X114285750Y-69860000D01*
X115325000Y-69863072D01*
X115449482Y-69850812D01*
X115569180Y-69814502D01*
X115679494Y-69755537D01*
X115776185Y-69676185D01*
X115855537Y-69579494D01*
X115914502Y-69469180D01*
X115950812Y-69349482D01*
X115963072Y-69225000D01*
X115960000Y-68798250D01*
X115801250Y-68639500D01*
X114127000Y-68639500D01*
X113873000Y-68639500D01*
X112198750Y-68639500D01*
X112040000Y-68798250D01*
X112036928Y-69225000D01*
X100850226Y-69225000D01*
X100850226Y-67800000D01*
X112036928Y-67800000D01*
X112040000Y-68226750D01*
X112198750Y-68385500D01*
X113873000Y-68385500D01*
X113873000Y-67323750D01*
X114127000Y-67323750D01*
X114127000Y-68385500D01*
X115801250Y-68385500D01*
X115960000Y-68226750D01*
X115963072Y-67800000D01*
X115950812Y-67675518D01*
X115914502Y-67555820D01*
X115855537Y-67445506D01*
X115776185Y-67348815D01*
X115679494Y-67269463D01*
X115569180Y-67210498D01*
X115449482Y-67174188D01*
X115325000Y-67161928D01*
X114285750Y-67165000D01*
X114127000Y-67323750D01*
X113873000Y-67323750D01*
X113714250Y-67165000D01*
X112675000Y-67161928D01*
X112550518Y-67174188D01*
X112430820Y-67210498D01*
X112320506Y-67269463D01*
X112223815Y-67348815D01*
X112144463Y-67445506D01*
X112085498Y-67555820D01*
X112049188Y-67675518D01*
X112036928Y-67800000D01*
X100850226Y-67800000D01*
X100850226Y-67127000D01*
X117596226Y-67127000D01*
X117596226Y-73900322D01*
G37*
X117596226Y-73900322D02*
X117581618Y-73912310D01*
X117512310Y-73981618D01*
X117432958Y-74078309D01*
X117378502Y-74159808D01*
X117335638Y-74240000D01*
X117037325Y-74240000D01*
X117000000Y-74236324D01*
X116962675Y-74240000D01*
X116962667Y-74240000D01*
X116851014Y-74250997D01*
X116707753Y-74294454D01*
X116575724Y-74365026D01*
X116459999Y-74459999D01*
X116436201Y-74488997D01*
X115135000Y-75790199D01*
X115135000Y-72832163D01*
X115248254Y-72821008D01*
X115414850Y-72770472D01*
X115568386Y-72688405D01*
X115702962Y-72577962D01*
X115813405Y-72443386D01*
X115895472Y-72289850D01*
X115946008Y-72123254D01*
X115963072Y-71950000D01*
X115963072Y-71025000D01*
X115946008Y-70851746D01*
X115895472Y-70685150D01*
X115813405Y-70531614D01*
X115702962Y-70397038D01*
X115568386Y-70286595D01*
X115414850Y-70204528D01*
X115248254Y-70153992D01*
X115075000Y-70136928D01*
X112925000Y-70136928D01*
X112751746Y-70153992D01*
X112585150Y-70204528D01*
X112584267Y-70205000D01*
X110514016Y-70205000D01*
X110281935Y-69972919D01*
X109993673Y-69780308D01*
X109673373Y-69647636D01*
X109333345Y-69580000D01*
X108986655Y-69580000D01*
X108646627Y-69647636D01*
X108326327Y-69780308D01*
X108038065Y-69972919D01*
X107792919Y-70218065D01*
X107600308Y-70506327D01*
X107467636Y-70826627D01*
X107400000Y-71166655D01*
X107400000Y-71513345D01*
X107467636Y-71853373D01*
X107600308Y-72173673D01*
X107792919Y-72461935D01*
X108038065Y-72707081D01*
X108326327Y-72899692D01*
X108646627Y-73032364D01*
X108986655Y-73100000D01*
X109333345Y-73100000D01*
X109673373Y-73032364D01*
X109993673Y-72899692D01*
X110281935Y-72707081D01*
X110514016Y-72475000D01*
X112212540Y-72475000D01*
X112297038Y-72577962D01*
X112431614Y-72688405D01*
X112585150Y-72770472D01*
X112751746Y-72821008D01*
X112865000Y-72832163D01*
X112865001Y-77491928D01*
X112250000Y-77491928D01*
X112125518Y-77504188D01*
X112005820Y-77540498D01*
X111895506Y-77599463D01*
X111798815Y-77678815D01*
X111719463Y-77775506D01*
X111660498Y-77885820D01*
X111624188Y-78005518D01*
X111611928Y-78130000D01*
X111611928Y-79330000D01*
X111624188Y-79454482D01*
X111660498Y-79574180D01*
X111719463Y-79684494D01*
X111798815Y-79781185D01*
X111895506Y-79860537D01*
X112005820Y-79919502D01*
X112125518Y-79955812D01*
X112250000Y-79968072D01*
X116250000Y-79968072D01*
X116374482Y-79955812D01*
X116494180Y-79919502D01*
X116604494Y-79860537D01*
X116701185Y-79781185D01*
X116780537Y-79684494D01*
X116839502Y-79574180D01*
X116875812Y-79454482D01*
X116888072Y-79330000D01*
X116888072Y-78130000D01*
X116875812Y-78005518D01*
X116839502Y-77885820D01*
X116780537Y-77775506D01*
X116701185Y-77678815D01*
X116604494Y-77599463D01*
X116494180Y-77540498D01*
X116374482Y-77504188D01*
X116250000Y-77491928D01*
X116010000Y-77491928D01*
X116010000Y-77064801D01*
X117314802Y-75760000D01*
X117335638Y-75760000D01*
X117378502Y-75840192D01*
X117432958Y-75921691D01*
X117512310Y-76018382D01*
X117581618Y-76087690D01*
X117596226Y-76099678D01*
X117596226Y-92900322D01*
X117581618Y-92912310D01*
X117512310Y-92981618D01*
X117432958Y-93078309D01*
X117378502Y-93159808D01*
X117335638Y-93240000D01*
X116037322Y-93240000D01*
X115999999Y-93236324D01*
X115973933Y-93238891D01*
X116068386Y-93188405D01*
X116202962Y-93077962D01*
X116313405Y-92943386D01*
X116395472Y-92789850D01*
X116446008Y-92623254D01*
X116463072Y-92450000D01*
X116463072Y-91525000D01*
X116446008Y-91351746D01*
X116395472Y-91185150D01*
X116313405Y-91031614D01*
X116202962Y-90897038D01*
X116068386Y-90786595D01*
X115914850Y-90704528D01*
X115748254Y-90653992D01*
X115575000Y-90636928D01*
X113425000Y-90636928D01*
X113251746Y-90653992D01*
X113085150Y-90704528D01*
X112931614Y-90786595D01*
X112851308Y-90852500D01*
X110730533Y-90852500D01*
X110719692Y-90826327D01*
X110527081Y-90538065D01*
X110281935Y-90292919D01*
X109993673Y-90100308D01*
X109673373Y-89967636D01*
X109333345Y-89900000D01*
X108986655Y-89900000D01*
X108646627Y-89967636D01*
X108326327Y-90100308D01*
X108038065Y-90292919D01*
X107792919Y-90538065D01*
X107600308Y-90826327D01*
X107467636Y-91146627D01*
X107400000Y-91486655D01*
X107400000Y-91833345D01*
X107467636Y-92173373D01*
X107600308Y-92493673D01*
X107792919Y-92781935D01*
X108038065Y-93027081D01*
X108326327Y-93219692D01*
X108646627Y-93352364D01*
X108986655Y-93420000D01*
X109333345Y-93420000D01*
X109673373Y-93352364D01*
X109993673Y-93219692D01*
X110139131Y-93122500D01*
X112851308Y-93122500D01*
X112931614Y-93188405D01*
X113085150Y-93270472D01*
X113251746Y-93321008D01*
X113365000Y-93332163D01*
X113365001Y-96491928D01*
X112250000Y-96491928D01*
X112125518Y-96504188D01*
X112005820Y-96540498D01*
X111895506Y-96599463D01*
X111798815Y-96678815D01*
X111719463Y-96775506D01*
X111660498Y-96885820D01*
X111624188Y-97005518D01*
X111611928Y-97130000D01*
X111611928Y-97348937D01*
X111564454Y-97437753D01*
X111520997Y-97581014D01*
X111506323Y-97730000D01*
X111520997Y-97878986D01*
X111564454Y-98022247D01*
X111611928Y-98111063D01*
X111611928Y-98330000D01*
X111624188Y-98454482D01*
X111660498Y-98574180D01*
X111719463Y-98684494D01*
X111798815Y-98781185D01*
X111895506Y-98860537D01*
X112005820Y-98919502D01*
X112125518Y-98955812D01*
X112250000Y-98968072D01*
X116250000Y-98968072D01*
X116374482Y-98955812D01*
X116494180Y-98919502D01*
X116604494Y-98860537D01*
X116701185Y-98781185D01*
X116780537Y-98684494D01*
X116839502Y-98574180D01*
X116875812Y-98454482D01*
X116888072Y-98330000D01*
X116888072Y-97130000D01*
X116875812Y-97005518D01*
X116839502Y-96885820D01*
X116780537Y-96775506D01*
X116701185Y-96678815D01*
X116604494Y-96599463D01*
X116494180Y-96540498D01*
X116374482Y-96504188D01*
X116250000Y-96491928D01*
X116010000Y-96491928D01*
X116010000Y-95064801D01*
X116314802Y-94760000D01*
X117335638Y-94760000D01*
X117378502Y-94840192D01*
X117432958Y-94921691D01*
X117512310Y-95018382D01*
X117581618Y-95087690D01*
X117596226Y-95099678D01*
X117596226Y-103873000D01*
X100850226Y-103873000D01*
X100850226Y-100870000D01*
X111611928Y-100870000D01*
X111624188Y-100994482D01*
X111660498Y-101114180D01*
X111719463Y-101224494D01*
X111798815Y-101321185D01*
X111895506Y-101400537D01*
X112005820Y-101459502D01*
X112125518Y-101495812D01*
X112250000Y-101508072D01*
X113964250Y-101505000D01*
X114123000Y-101346250D01*
X114123000Y-100397000D01*
X114377000Y-100397000D01*
X114377000Y-101346250D01*
X114535750Y-101505000D01*
X116250000Y-101508072D01*
X116374482Y-101495812D01*
X116494180Y-101459502D01*
X116604494Y-101400537D01*
X116701185Y-101321185D01*
X116780537Y-101224494D01*
X116839502Y-101114180D01*
X116875812Y-100994482D01*
X116888072Y-100870000D01*
X116885000Y-100555750D01*
X116726250Y-100397000D01*
X114377000Y-100397000D01*
X114123000Y-100397000D01*
X111773750Y-100397000D01*
X111615000Y-100555750D01*
X111611928Y-100870000D01*
X100850226Y-100870000D01*
X100850226Y-99670000D01*
X111611928Y-99670000D01*
X111615000Y-99984250D01*
X111773750Y-100143000D01*
X114123000Y-100143000D01*
X114123000Y-99193750D01*
X114377000Y-99193750D01*
X114377000Y-100143000D01*
X116726250Y-100143000D01*
X116885000Y-99984250D01*
X116888072Y-99670000D01*
X116875812Y-99545518D01*
X116839502Y-99425820D01*
X116780537Y-99315506D01*
X116701185Y-99218815D01*
X116604494Y-99139463D01*
X116494180Y-99080498D01*
X116374482Y-99044188D01*
X116250000Y-99031928D01*
X114535750Y-99035000D01*
X114377000Y-99193750D01*
X114123000Y-99193750D01*
X113964250Y-99035000D01*
X112250000Y-99031928D01*
X112125518Y-99044188D01*
X112005820Y-99080498D01*
X111895506Y-99139463D01*
X111798815Y-99218815D01*
X111719463Y-99315506D01*
X111660498Y-99425820D01*
X111624188Y-99545518D01*
X111611928Y-99670000D01*
X100850226Y-99670000D01*
X100850226Y-89725000D01*
X112536928Y-89725000D01*
X112549188Y-89849482D01*
X112585498Y-89969180D01*
X112644463Y-90079494D01*
X112723815Y-90176185D01*
X112820506Y-90255537D01*
X112930820Y-90314502D01*
X113050518Y-90350812D01*
X113175000Y-90363072D01*
X114214250Y-90360000D01*
X114373000Y-90201250D01*
X114373000Y-89139500D01*
X114627000Y-89139500D01*
X114627000Y-90201250D01*
X114785750Y-90360000D01*
X115825000Y-90363072D01*
X115949482Y-90350812D01*
X116069180Y-90314502D01*
X116179494Y-90255537D01*
X116276185Y-90176185D01*
X116355537Y-90079494D01*
X116414502Y-89969180D01*
X116450812Y-89849482D01*
X116463072Y-89725000D01*
X116460000Y-89298250D01*
X116301250Y-89139500D01*
X114627000Y-89139500D01*
X114373000Y-89139500D01*
X112698750Y-89139500D01*
X112540000Y-89298250D01*
X112536928Y-89725000D01*
X100850226Y-89725000D01*
X100850226Y-88300000D01*
X112536928Y-88300000D01*
X112540000Y-88726750D01*
X112698750Y-88885500D01*
X114373000Y-88885500D01*
X114373000Y-87823750D01*
X114627000Y-87823750D01*
X114627000Y-88885500D01*
X116301250Y-88885500D01*
X116460000Y-88726750D01*
X116463072Y-88300000D01*
X116450812Y-88175518D01*
X116414502Y-88055820D01*
X116355537Y-87945506D01*
X116276185Y-87848815D01*
X116179494Y-87769463D01*
X116069180Y-87710498D01*
X115949482Y-87674188D01*
X115825000Y-87661928D01*
X114785750Y-87665000D01*
X114627000Y-87823750D01*
X114373000Y-87823750D01*
X114214250Y-87665000D01*
X113175000Y-87661928D01*
X113050518Y-87674188D01*
X112930820Y-87710498D01*
X112820506Y-87769463D01*
X112723815Y-87848815D01*
X112644463Y-87945506D01*
X112585498Y-88055820D01*
X112549188Y-88175518D01*
X112536928Y-88300000D01*
X100850226Y-88300000D01*
X100850226Y-82724531D01*
X108115074Y-82724531D01*
X108225921Y-83001714D01*
X108536840Y-83155089D01*
X108871705Y-83244860D01*
X109217650Y-83267576D01*
X109561380Y-83222366D01*
X109889685Y-83110966D01*
X110094079Y-83001714D01*
X110204926Y-82724531D01*
X109160000Y-81679605D01*
X108115074Y-82724531D01*
X100850226Y-82724531D01*
X100850226Y-81557650D01*
X107392424Y-81557650D01*
X107437634Y-81901380D01*
X107549034Y-82229685D01*
X107658286Y-82434079D01*
X107935469Y-82544926D01*
X108980395Y-81500000D01*
X109339605Y-81500000D01*
X110384531Y-82544926D01*
X110661714Y-82434079D01*
X110815089Y-82123160D01*
X110882956Y-81870000D01*
X111611928Y-81870000D01*
X111624188Y-81994482D01*
X111660498Y-82114180D01*
X111719463Y-82224494D01*
X111798815Y-82321185D01*
X111895506Y-82400537D01*
X112005820Y-82459502D01*
X112125518Y-82495812D01*
X112250000Y-82508072D01*
X113964250Y-82505000D01*
X114123000Y-82346250D01*
X114123000Y-81397000D01*
X114377000Y-81397000D01*
X114377000Y-82346250D01*
X114535750Y-82505000D01*
X116250000Y-82508072D01*
X116374482Y-82495812D01*
X116494180Y-82459502D01*
X116604494Y-82400537D01*
X116701185Y-82321185D01*
X116780537Y-82224494D01*
X116839502Y-82114180D01*
X116875812Y-81994482D01*
X116888072Y-81870000D01*
X116885000Y-81555750D01*
X116726250Y-81397000D01*
X114377000Y-81397000D01*
X114123000Y-81397000D01*
X111773750Y-81397000D01*
X111615000Y-81555750D01*
X111611928Y-81870000D01*
X110882956Y-81870000D01*
X110904860Y-81788295D01*
X110927576Y-81442350D01*
X110882366Y-81098620D01*
X110770966Y-80770315D01*
X110717346Y-80670000D01*
X111611928Y-80670000D01*
X111615000Y-80984250D01*
X111773750Y-81143000D01*
X114123000Y-81143000D01*
X114123000Y-80193750D01*
X114377000Y-80193750D01*
X114377000Y-81143000D01*
X116726250Y-81143000D01*
X116885000Y-80984250D01*
X116888072Y-80670000D01*
X116875812Y-80545518D01*
X116839502Y-80425820D01*
X116780537Y-80315506D01*
X116701185Y-80218815D01*
X116604494Y-80139463D01*
X116494180Y-80080498D01*
X116374482Y-80044188D01*
X116250000Y-80031928D01*
X114535750Y-80035000D01*
X114377000Y-80193750D01*
X114123000Y-80193750D01*
X113964250Y-80035000D01*
X112250000Y-80031928D01*
X112125518Y-80044188D01*
X112005820Y-80080498D01*
X111895506Y-80139463D01*
X111798815Y-80218815D01*
X111719463Y-80315506D01*
X111660498Y-80425820D01*
X111624188Y-80545518D01*
X111611928Y-80670000D01*
X110717346Y-80670000D01*
X110661714Y-80565921D01*
X110384531Y-80455074D01*
X109339605Y-81500000D01*
X108980395Y-81500000D01*
X107935469Y-80455074D01*
X107658286Y-80565921D01*
X107504911Y-80876840D01*
X107415140Y-81211705D01*
X107392424Y-81557650D01*
X100850226Y-81557650D01*
X100850226Y-80275469D01*
X108115074Y-80275469D01*
X109160000Y-81320395D01*
X110204926Y-80275469D01*
X110094079Y-79998286D01*
X109783160Y-79844911D01*
X109448295Y-79755140D01*
X109102350Y-79732424D01*
X108758620Y-79777634D01*
X108430315Y-79889034D01*
X108225921Y-79998286D01*
X108115074Y-80275469D01*
X100850226Y-80275469D01*
X100850226Y-69225000D01*
X112036928Y-69225000D01*
X112049188Y-69349482D01*
X112085498Y-69469180D01*
X112144463Y-69579494D01*
X112223815Y-69676185D01*
X112320506Y-69755537D01*
X112430820Y-69814502D01*
X112550518Y-69850812D01*
X112675000Y-69863072D01*
X113714250Y-69860000D01*
X113873000Y-69701250D01*
X113873000Y-68639500D01*
X114127000Y-68639500D01*
X114127000Y-69701250D01*
X114285750Y-69860000D01*
X115325000Y-69863072D01*
X115449482Y-69850812D01*
X115569180Y-69814502D01*
X115679494Y-69755537D01*
X115776185Y-69676185D01*
X115855537Y-69579494D01*
X115914502Y-69469180D01*
X115950812Y-69349482D01*
X115963072Y-69225000D01*
X115960000Y-68798250D01*
X115801250Y-68639500D01*
X114127000Y-68639500D01*
X113873000Y-68639500D01*
X112198750Y-68639500D01*
X112040000Y-68798250D01*
X112036928Y-69225000D01*
X100850226Y-69225000D01*
X100850226Y-67800000D01*
X112036928Y-67800000D01*
X112040000Y-68226750D01*
X112198750Y-68385500D01*
X113873000Y-68385500D01*
X113873000Y-67323750D01*
X114127000Y-67323750D01*
X114127000Y-68385500D01*
X115801250Y-68385500D01*
X115960000Y-68226750D01*
X115963072Y-67800000D01*
X115950812Y-67675518D01*
X115914502Y-67555820D01*
X115855537Y-67445506D01*
X115776185Y-67348815D01*
X115679494Y-67269463D01*
X115569180Y-67210498D01*
X115449482Y-67174188D01*
X115325000Y-67161928D01*
X114285750Y-67165000D01*
X114127000Y-67323750D01*
X113873000Y-67323750D01*
X113714250Y-67165000D01*
X112675000Y-67161928D01*
X112550518Y-67174188D01*
X112430820Y-67210498D01*
X112320506Y-67269463D01*
X112223815Y-67348815D01*
X112144463Y-67445506D01*
X112085498Y-67555820D01*
X112049188Y-67675518D01*
X112036928Y-67800000D01*
X100850226Y-67800000D01*
X100850226Y-67127000D01*
X117596226Y-67127000D01*
X117596226Y-73900322D01*
M02*
