M48
; DRILL file {KiCad (5.1.5-0)} date Sunday, January 10, 2021 at 04:54:09 PM
; FORMAT={-:-/ absolute / inch / decimal}
; #@! TF.CreationDate,2021-01-10T16:54:09-07:00
; #@! TF.GenerationSoftware,Kicad,Pcbnew,(5.1.5-0)
FMAT,2
INCH
T1C0.0157
T2C0.0276
T3C0.0295
T4C0.0315
T5C0.0394
T6C0.0591
%
G90
G05
T1
X3.5827Y-3.7795
X3.5827Y-3.8583
X6.0236Y-4.252
T2
X5.9843Y-5.0299
X5.9843Y-5.2299
X5.9843Y-5.4299
X5.9843Y-5.6299
X5.9449Y-2.2047
X5.9449Y-2.4047
X5.9449Y-2.6047
X5.9449Y-2.8047
T3
X5.9843Y-4.4094
X5.9843Y-4.4882
X5.9449Y-3.0315
X5.9449Y-3.1102
X5.9843Y-3.8583
X5.9843Y-3.937
X5.9843Y-4.7244
X5.9843Y-4.8031
X5.9449Y-3.5433
X5.9449Y-3.622
T4
X5.1181Y-4.5669
X5.315Y-4.5669
X5.1181Y-2.5591
X5.315Y-2.5591
T5
X3.6299Y-4.1693
X4.0236Y-4.252
T6
X3.4976Y-2.8087
X3.4976Y-3.1087
X3.4976Y-3.3087
X4.2976Y-2.8087
X4.2976Y-3.2087
X4.2976Y-3.6087
T2
G00X3.6969Y-5.124
M15
G01X3.6969Y-5.0335
M16
G05
G00X3.8642Y-5.2677
M15
G01X3.7736Y-5.2677
M16
G05
G00X3.937Y-5.124
M15
G01X3.937Y-5.0335
M16
G05
T0
M30
