G04 #@! TF.GenerationSoftware,KiCad,Pcbnew,(5.1.5-0)*
G04 #@! TF.CreationDate,2021-01-10T16:54:22-07:00*
G04 #@! TF.ProjectId,power_cui,706f7765-725f-4637-9569-2e6b69636164,rev?*
G04 #@! TF.SameCoordinates,Original*
G04 #@! TF.FileFunction,Paste,Top*
G04 #@! TF.FilePolarity,Positive*
%FSLAX46Y46*%
G04 Gerber Fmt 4.6, Leading zero omitted, Abs format (unit mm)*
G04 Created by KiCad (PCBNEW (5.1.5-0)) date 2021-01-10 16:54:22*
%MOMM*%
%LPD*%
G04 APERTURE LIST*
%ADD10C,0.100000*%
%ADD11R,0.900000X0.800000*%
%ADD12R,0.600000X0.450000*%
%ADD13R,0.450000X0.600000*%
%ADD14R,3.400000X2.300000*%
%ADD15R,7.900000X2.300000*%
%ADD16R,3.800000X2.500000*%
%ADD17R,4.000000X1.200000*%
G04 APERTURE END LIST*
D10*
G36*
X129974504Y-88676204D02*
G01*
X129998773Y-88679804D01*
X130022571Y-88685765D01*
X130045671Y-88694030D01*
X130067849Y-88704520D01*
X130088893Y-88717133D01*
X130108598Y-88731747D01*
X130126777Y-88748223D01*
X130143253Y-88766402D01*
X130157867Y-88786107D01*
X130170480Y-88807151D01*
X130180970Y-88829329D01*
X130189235Y-88852429D01*
X130195196Y-88876227D01*
X130198796Y-88900496D01*
X130200000Y-88925000D01*
X130200000Y-91075000D01*
X130198796Y-91099504D01*
X130195196Y-91123773D01*
X130189235Y-91147571D01*
X130180970Y-91170671D01*
X130170480Y-91192849D01*
X130157867Y-91213893D01*
X130143253Y-91233598D01*
X130126777Y-91251777D01*
X130108598Y-91268253D01*
X130088893Y-91282867D01*
X130067849Y-91295480D01*
X130045671Y-91305970D01*
X130022571Y-91314235D01*
X129998773Y-91320196D01*
X129974504Y-91323796D01*
X129950000Y-91325000D01*
X129025000Y-91325000D01*
X129000496Y-91323796D01*
X128976227Y-91320196D01*
X128952429Y-91314235D01*
X128929329Y-91305970D01*
X128907151Y-91295480D01*
X128886107Y-91282867D01*
X128866402Y-91268253D01*
X128848223Y-91251777D01*
X128831747Y-91233598D01*
X128817133Y-91213893D01*
X128804520Y-91192849D01*
X128794030Y-91170671D01*
X128785765Y-91147571D01*
X128779804Y-91123773D01*
X128776204Y-91099504D01*
X128775000Y-91075000D01*
X128775000Y-88925000D01*
X128776204Y-88900496D01*
X128779804Y-88876227D01*
X128785765Y-88852429D01*
X128794030Y-88829329D01*
X128804520Y-88807151D01*
X128817133Y-88786107D01*
X128831747Y-88766402D01*
X128848223Y-88748223D01*
X128866402Y-88731747D01*
X128886107Y-88717133D01*
X128907151Y-88704520D01*
X128929329Y-88694030D01*
X128952429Y-88685765D01*
X128976227Y-88679804D01*
X129000496Y-88676204D01*
X129025000Y-88675000D01*
X129950000Y-88675000D01*
X129974504Y-88676204D01*
G37*
G36*
X126999504Y-88676204D02*
G01*
X127023773Y-88679804D01*
X127047571Y-88685765D01*
X127070671Y-88694030D01*
X127092849Y-88704520D01*
X127113893Y-88717133D01*
X127133598Y-88731747D01*
X127151777Y-88748223D01*
X127168253Y-88766402D01*
X127182867Y-88786107D01*
X127195480Y-88807151D01*
X127205970Y-88829329D01*
X127214235Y-88852429D01*
X127220196Y-88876227D01*
X127223796Y-88900496D01*
X127225000Y-88925000D01*
X127225000Y-91075000D01*
X127223796Y-91099504D01*
X127220196Y-91123773D01*
X127214235Y-91147571D01*
X127205970Y-91170671D01*
X127195480Y-91192849D01*
X127182867Y-91213893D01*
X127168253Y-91233598D01*
X127151777Y-91251777D01*
X127133598Y-91268253D01*
X127113893Y-91282867D01*
X127092849Y-91295480D01*
X127070671Y-91305970D01*
X127047571Y-91314235D01*
X127023773Y-91320196D01*
X126999504Y-91323796D01*
X126975000Y-91325000D01*
X126050000Y-91325000D01*
X126025496Y-91323796D01*
X126001227Y-91320196D01*
X125977429Y-91314235D01*
X125954329Y-91305970D01*
X125932151Y-91295480D01*
X125911107Y-91282867D01*
X125891402Y-91268253D01*
X125873223Y-91251777D01*
X125856747Y-91233598D01*
X125842133Y-91213893D01*
X125829520Y-91192849D01*
X125819030Y-91170671D01*
X125810765Y-91147571D01*
X125804804Y-91123773D01*
X125801204Y-91099504D01*
X125800000Y-91075000D01*
X125800000Y-88925000D01*
X125801204Y-88900496D01*
X125804804Y-88876227D01*
X125810765Y-88852429D01*
X125819030Y-88829329D01*
X125829520Y-88807151D01*
X125842133Y-88786107D01*
X125856747Y-88766402D01*
X125873223Y-88748223D01*
X125891402Y-88731747D01*
X125911107Y-88717133D01*
X125932151Y-88704520D01*
X125954329Y-88694030D01*
X125977429Y-88685765D01*
X126001227Y-88679804D01*
X126025496Y-88676204D01*
X126050000Y-88675000D01*
X126975000Y-88675000D01*
X126999504Y-88676204D01*
G37*
G36*
X146949505Y-70226204D02*
G01*
X146973773Y-70229804D01*
X146997572Y-70235765D01*
X147020671Y-70244030D01*
X147042850Y-70254520D01*
X147063893Y-70267132D01*
X147083599Y-70281747D01*
X147101777Y-70298223D01*
X147118253Y-70316401D01*
X147132868Y-70336107D01*
X147145480Y-70357150D01*
X147155970Y-70379329D01*
X147164235Y-70402428D01*
X147170196Y-70426227D01*
X147173796Y-70450495D01*
X147175000Y-70474999D01*
X147175000Y-71500001D01*
X147173796Y-71524505D01*
X147170196Y-71548773D01*
X147164235Y-71572572D01*
X147155970Y-71595671D01*
X147145480Y-71617850D01*
X147132868Y-71638893D01*
X147118253Y-71658599D01*
X147101777Y-71676777D01*
X147083599Y-71693253D01*
X147063893Y-71707868D01*
X147042850Y-71720480D01*
X147020671Y-71730970D01*
X146997572Y-71739235D01*
X146973773Y-71745196D01*
X146949505Y-71748796D01*
X146925001Y-71750000D01*
X144074999Y-71750000D01*
X144050495Y-71748796D01*
X144026227Y-71745196D01*
X144002428Y-71739235D01*
X143979329Y-71730970D01*
X143957150Y-71720480D01*
X143936107Y-71707868D01*
X143916401Y-71693253D01*
X143898223Y-71676777D01*
X143881747Y-71658599D01*
X143867132Y-71638893D01*
X143854520Y-71617850D01*
X143844030Y-71595671D01*
X143835765Y-71572572D01*
X143829804Y-71548773D01*
X143826204Y-71524505D01*
X143825000Y-71500001D01*
X143825000Y-70474999D01*
X143826204Y-70450495D01*
X143829804Y-70426227D01*
X143835765Y-70402428D01*
X143844030Y-70379329D01*
X143854520Y-70357150D01*
X143867132Y-70336107D01*
X143881747Y-70316401D01*
X143898223Y-70298223D01*
X143916401Y-70281747D01*
X143936107Y-70267132D01*
X143957150Y-70254520D01*
X143979329Y-70244030D01*
X144002428Y-70235765D01*
X144026227Y-70229804D01*
X144050495Y-70226204D01*
X144074999Y-70225000D01*
X146925001Y-70225000D01*
X146949505Y-70226204D01*
G37*
G36*
X146949505Y-64251204D02*
G01*
X146973773Y-64254804D01*
X146997572Y-64260765D01*
X147020671Y-64269030D01*
X147042850Y-64279520D01*
X147063893Y-64292132D01*
X147083599Y-64306747D01*
X147101777Y-64323223D01*
X147118253Y-64341401D01*
X147132868Y-64361107D01*
X147145480Y-64382150D01*
X147155970Y-64404329D01*
X147164235Y-64427428D01*
X147170196Y-64451227D01*
X147173796Y-64475495D01*
X147175000Y-64499999D01*
X147175000Y-65525001D01*
X147173796Y-65549505D01*
X147170196Y-65573773D01*
X147164235Y-65597572D01*
X147155970Y-65620671D01*
X147145480Y-65642850D01*
X147132868Y-65663893D01*
X147118253Y-65683599D01*
X147101777Y-65701777D01*
X147083599Y-65718253D01*
X147063893Y-65732868D01*
X147042850Y-65745480D01*
X147020671Y-65755970D01*
X146997572Y-65764235D01*
X146973773Y-65770196D01*
X146949505Y-65773796D01*
X146925001Y-65775000D01*
X144074999Y-65775000D01*
X144050495Y-65773796D01*
X144026227Y-65770196D01*
X144002428Y-65764235D01*
X143979329Y-65755970D01*
X143957150Y-65745480D01*
X143936107Y-65732868D01*
X143916401Y-65718253D01*
X143898223Y-65701777D01*
X143881747Y-65683599D01*
X143867132Y-65663893D01*
X143854520Y-65642850D01*
X143844030Y-65620671D01*
X143835765Y-65597572D01*
X143829804Y-65573773D01*
X143826204Y-65549505D01*
X143825000Y-65525001D01*
X143825000Y-64499999D01*
X143826204Y-64475495D01*
X143829804Y-64451227D01*
X143835765Y-64427428D01*
X143844030Y-64404329D01*
X143854520Y-64382150D01*
X143867132Y-64361107D01*
X143881747Y-64341401D01*
X143898223Y-64323223D01*
X143916401Y-64306747D01*
X143936107Y-64292132D01*
X143957150Y-64279520D01*
X143979329Y-64269030D01*
X144002428Y-64260765D01*
X144026227Y-64254804D01*
X144050495Y-64251204D01*
X144074999Y-64250000D01*
X146925001Y-64250000D01*
X146949505Y-64251204D01*
G37*
G36*
X146260779Y-91476144D02*
G01*
X146283834Y-91479563D01*
X146306443Y-91485227D01*
X146328387Y-91493079D01*
X146349457Y-91503044D01*
X146369448Y-91515026D01*
X146388168Y-91528910D01*
X146405438Y-91544562D01*
X146421090Y-91561832D01*
X146434974Y-91580552D01*
X146446956Y-91600543D01*
X146456921Y-91621613D01*
X146464773Y-91643557D01*
X146470437Y-91666166D01*
X146473856Y-91689221D01*
X146475000Y-91712500D01*
X146475000Y-92287500D01*
X146473856Y-92310779D01*
X146470437Y-92333834D01*
X146464773Y-92356443D01*
X146456921Y-92378387D01*
X146446956Y-92399457D01*
X146434974Y-92419448D01*
X146421090Y-92438168D01*
X146405438Y-92455438D01*
X146388168Y-92471090D01*
X146369448Y-92484974D01*
X146349457Y-92496956D01*
X146328387Y-92506921D01*
X146306443Y-92514773D01*
X146283834Y-92520437D01*
X146260779Y-92523856D01*
X146237500Y-92525000D01*
X145762500Y-92525000D01*
X145739221Y-92523856D01*
X145716166Y-92520437D01*
X145693557Y-92514773D01*
X145671613Y-92506921D01*
X145650543Y-92496956D01*
X145630552Y-92484974D01*
X145611832Y-92471090D01*
X145594562Y-92455438D01*
X145578910Y-92438168D01*
X145565026Y-92419448D01*
X145553044Y-92399457D01*
X145543079Y-92378387D01*
X145535227Y-92356443D01*
X145529563Y-92333834D01*
X145526144Y-92310779D01*
X145525000Y-92287500D01*
X145525000Y-91712500D01*
X145526144Y-91689221D01*
X145529563Y-91666166D01*
X145535227Y-91643557D01*
X145543079Y-91621613D01*
X145553044Y-91600543D01*
X145565026Y-91580552D01*
X145578910Y-91561832D01*
X145594562Y-91544562D01*
X145611832Y-91528910D01*
X145630552Y-91515026D01*
X145650543Y-91503044D01*
X145671613Y-91493079D01*
X145693557Y-91485227D01*
X145716166Y-91479563D01*
X145739221Y-91476144D01*
X145762500Y-91475000D01*
X146237500Y-91475000D01*
X146260779Y-91476144D01*
G37*
G36*
X146260779Y-89726144D02*
G01*
X146283834Y-89729563D01*
X146306443Y-89735227D01*
X146328387Y-89743079D01*
X146349457Y-89753044D01*
X146369448Y-89765026D01*
X146388168Y-89778910D01*
X146405438Y-89794562D01*
X146421090Y-89811832D01*
X146434974Y-89830552D01*
X146446956Y-89850543D01*
X146456921Y-89871613D01*
X146464773Y-89893557D01*
X146470437Y-89916166D01*
X146473856Y-89939221D01*
X146475000Y-89962500D01*
X146475000Y-90537500D01*
X146473856Y-90560779D01*
X146470437Y-90583834D01*
X146464773Y-90606443D01*
X146456921Y-90628387D01*
X146446956Y-90649457D01*
X146434974Y-90669448D01*
X146421090Y-90688168D01*
X146405438Y-90705438D01*
X146388168Y-90721090D01*
X146369448Y-90734974D01*
X146349457Y-90746956D01*
X146328387Y-90756921D01*
X146306443Y-90764773D01*
X146283834Y-90770437D01*
X146260779Y-90773856D01*
X146237500Y-90775000D01*
X145762500Y-90775000D01*
X145739221Y-90773856D01*
X145716166Y-90770437D01*
X145693557Y-90764773D01*
X145671613Y-90756921D01*
X145650543Y-90746956D01*
X145630552Y-90734974D01*
X145611832Y-90721090D01*
X145594562Y-90705438D01*
X145578910Y-90688168D01*
X145565026Y-90669448D01*
X145553044Y-90649457D01*
X145543079Y-90628387D01*
X145535227Y-90606443D01*
X145529563Y-90583834D01*
X145526144Y-90560779D01*
X145525000Y-90537500D01*
X145525000Y-89962500D01*
X145526144Y-89939221D01*
X145529563Y-89916166D01*
X145535227Y-89893557D01*
X145543079Y-89871613D01*
X145553044Y-89850543D01*
X145565026Y-89830552D01*
X145578910Y-89811832D01*
X145594562Y-89794562D01*
X145611832Y-89778910D01*
X145630552Y-89765026D01*
X145650543Y-89753044D01*
X145671613Y-89743079D01*
X145693557Y-89735227D01*
X145716166Y-89729563D01*
X145739221Y-89726144D01*
X145762500Y-89725000D01*
X146237500Y-89725000D01*
X146260779Y-89726144D01*
G37*
D11*
X152000000Y-84000000D03*
X154000000Y-83050000D03*
X154000000Y-84950000D03*
X153000000Y-106000000D03*
X151000000Y-106950000D03*
X151000000Y-105050000D03*
D12*
X147550000Y-74000000D03*
X145450000Y-74000000D03*
D13*
X147000000Y-130950000D03*
X147000000Y-133050000D03*
D10*
G36*
X142549505Y-105326204D02*
G01*
X142573773Y-105329804D01*
X142597572Y-105335765D01*
X142620671Y-105344030D01*
X142642850Y-105354520D01*
X142663893Y-105367132D01*
X142683599Y-105381747D01*
X142701777Y-105398223D01*
X142718253Y-105416401D01*
X142732868Y-105436107D01*
X142745480Y-105457150D01*
X142755970Y-105479329D01*
X142764235Y-105502428D01*
X142770196Y-105526227D01*
X142773796Y-105550495D01*
X142775000Y-105574999D01*
X142775000Y-108425001D01*
X142773796Y-108449505D01*
X142770196Y-108473773D01*
X142764235Y-108497572D01*
X142755970Y-108520671D01*
X142745480Y-108542850D01*
X142732868Y-108563893D01*
X142718253Y-108583599D01*
X142701777Y-108601777D01*
X142683599Y-108618253D01*
X142663893Y-108632868D01*
X142642850Y-108645480D01*
X142620671Y-108655970D01*
X142597572Y-108664235D01*
X142573773Y-108670196D01*
X142549505Y-108673796D01*
X142525001Y-108675000D01*
X141499999Y-108675000D01*
X141475495Y-108673796D01*
X141451227Y-108670196D01*
X141427428Y-108664235D01*
X141404329Y-108655970D01*
X141382150Y-108645480D01*
X141361107Y-108632868D01*
X141341401Y-108618253D01*
X141323223Y-108601777D01*
X141306747Y-108583599D01*
X141292132Y-108563893D01*
X141279520Y-108542850D01*
X141269030Y-108520671D01*
X141260765Y-108497572D01*
X141254804Y-108473773D01*
X141251204Y-108449505D01*
X141250000Y-108425001D01*
X141250000Y-105574999D01*
X141251204Y-105550495D01*
X141254804Y-105526227D01*
X141260765Y-105502428D01*
X141269030Y-105479329D01*
X141279520Y-105457150D01*
X141292132Y-105436107D01*
X141306747Y-105416401D01*
X141323223Y-105398223D01*
X141341401Y-105381747D01*
X141361107Y-105367132D01*
X141382150Y-105354520D01*
X141404329Y-105344030D01*
X141427428Y-105335765D01*
X141451227Y-105329804D01*
X141475495Y-105326204D01*
X141499999Y-105325000D01*
X142525001Y-105325000D01*
X142549505Y-105326204D01*
G37*
G36*
X148524505Y-105326204D02*
G01*
X148548773Y-105329804D01*
X148572572Y-105335765D01*
X148595671Y-105344030D01*
X148617850Y-105354520D01*
X148638893Y-105367132D01*
X148658599Y-105381747D01*
X148676777Y-105398223D01*
X148693253Y-105416401D01*
X148707868Y-105436107D01*
X148720480Y-105457150D01*
X148730970Y-105479329D01*
X148739235Y-105502428D01*
X148745196Y-105526227D01*
X148748796Y-105550495D01*
X148750000Y-105574999D01*
X148750000Y-108425001D01*
X148748796Y-108449505D01*
X148745196Y-108473773D01*
X148739235Y-108497572D01*
X148730970Y-108520671D01*
X148720480Y-108542850D01*
X148707868Y-108563893D01*
X148693253Y-108583599D01*
X148676777Y-108601777D01*
X148658599Y-108618253D01*
X148638893Y-108632868D01*
X148617850Y-108645480D01*
X148595671Y-108655970D01*
X148572572Y-108664235D01*
X148548773Y-108670196D01*
X148524505Y-108673796D01*
X148500001Y-108675000D01*
X147474999Y-108675000D01*
X147450495Y-108673796D01*
X147426227Y-108670196D01*
X147402428Y-108664235D01*
X147379329Y-108655970D01*
X147357150Y-108645480D01*
X147336107Y-108632868D01*
X147316401Y-108618253D01*
X147298223Y-108601777D01*
X147281747Y-108583599D01*
X147267132Y-108563893D01*
X147254520Y-108542850D01*
X147244030Y-108520671D01*
X147235765Y-108497572D01*
X147229804Y-108473773D01*
X147226204Y-108449505D01*
X147225000Y-108425001D01*
X147225000Y-105574999D01*
X147226204Y-105550495D01*
X147229804Y-105526227D01*
X147235765Y-105502428D01*
X147244030Y-105479329D01*
X147254520Y-105457150D01*
X147267132Y-105436107D01*
X147281747Y-105416401D01*
X147298223Y-105398223D01*
X147316401Y-105381747D01*
X147336107Y-105367132D01*
X147357150Y-105354520D01*
X147379329Y-105344030D01*
X147402428Y-105335765D01*
X147426227Y-105329804D01*
X147450495Y-105326204D01*
X147474999Y-105325000D01*
X148500001Y-105325000D01*
X148524505Y-105326204D01*
G37*
D12*
X147550000Y-62000000D03*
X145450000Y-62000000D03*
X145950000Y-138000000D03*
X148050000Y-138000000D03*
D10*
G36*
X94574504Y-97451204D02*
G01*
X94598773Y-97454804D01*
X94622571Y-97460765D01*
X94645671Y-97469030D01*
X94667849Y-97479520D01*
X94688893Y-97492133D01*
X94708598Y-97506747D01*
X94726777Y-97523223D01*
X94743253Y-97541402D01*
X94757867Y-97561107D01*
X94770480Y-97582151D01*
X94780970Y-97604329D01*
X94789235Y-97627429D01*
X94795196Y-97651227D01*
X94798796Y-97675496D01*
X94800000Y-97700000D01*
X94800000Y-98450000D01*
X94798796Y-98474504D01*
X94795196Y-98498773D01*
X94789235Y-98522571D01*
X94780970Y-98545671D01*
X94770480Y-98567849D01*
X94757867Y-98588893D01*
X94743253Y-98608598D01*
X94726777Y-98626777D01*
X94708598Y-98643253D01*
X94688893Y-98657867D01*
X94667849Y-98670480D01*
X94645671Y-98680970D01*
X94622571Y-98689235D01*
X94598773Y-98695196D01*
X94574504Y-98698796D01*
X94550000Y-98700000D01*
X92850000Y-98700000D01*
X92825496Y-98698796D01*
X92801227Y-98695196D01*
X92777429Y-98689235D01*
X92754329Y-98680970D01*
X92732151Y-98670480D01*
X92711107Y-98657867D01*
X92691402Y-98643253D01*
X92673223Y-98626777D01*
X92656747Y-98608598D01*
X92642133Y-98588893D01*
X92629520Y-98567849D01*
X92619030Y-98545671D01*
X92610765Y-98522571D01*
X92604804Y-98498773D01*
X92601204Y-98474504D01*
X92600000Y-98450000D01*
X92600000Y-97700000D01*
X92601204Y-97675496D01*
X92604804Y-97651227D01*
X92610765Y-97627429D01*
X92619030Y-97604329D01*
X92629520Y-97582151D01*
X92642133Y-97561107D01*
X92656747Y-97541402D01*
X92673223Y-97523223D01*
X92691402Y-97506747D01*
X92711107Y-97492133D01*
X92732151Y-97479520D01*
X92754329Y-97469030D01*
X92777429Y-97460765D01*
X92801227Y-97454804D01*
X92825496Y-97451204D01*
X92850000Y-97450000D01*
X94550000Y-97450000D01*
X94574504Y-97451204D01*
G37*
G36*
X94574504Y-95301204D02*
G01*
X94598773Y-95304804D01*
X94622571Y-95310765D01*
X94645671Y-95319030D01*
X94667849Y-95329520D01*
X94688893Y-95342133D01*
X94708598Y-95356747D01*
X94726777Y-95373223D01*
X94743253Y-95391402D01*
X94757867Y-95411107D01*
X94770480Y-95432151D01*
X94780970Y-95454329D01*
X94789235Y-95477429D01*
X94795196Y-95501227D01*
X94798796Y-95525496D01*
X94800000Y-95550000D01*
X94800000Y-96300000D01*
X94798796Y-96324504D01*
X94795196Y-96348773D01*
X94789235Y-96372571D01*
X94780970Y-96395671D01*
X94770480Y-96417849D01*
X94757867Y-96438893D01*
X94743253Y-96458598D01*
X94726777Y-96476777D01*
X94708598Y-96493253D01*
X94688893Y-96507867D01*
X94667849Y-96520480D01*
X94645671Y-96530970D01*
X94622571Y-96539235D01*
X94598773Y-96545196D01*
X94574504Y-96548796D01*
X94550000Y-96550000D01*
X92850000Y-96550000D01*
X92825496Y-96548796D01*
X92801227Y-96545196D01*
X92777429Y-96539235D01*
X92754329Y-96530970D01*
X92732151Y-96520480D01*
X92711107Y-96507867D01*
X92691402Y-96493253D01*
X92673223Y-96476777D01*
X92656747Y-96458598D01*
X92642133Y-96438893D01*
X92629520Y-96417849D01*
X92619030Y-96395671D01*
X92610765Y-96372571D01*
X92604804Y-96348773D01*
X92601204Y-96324504D01*
X92600000Y-96300000D01*
X92600000Y-95550000D01*
X92601204Y-95525496D01*
X92604804Y-95501227D01*
X92610765Y-95477429D01*
X92619030Y-95454329D01*
X92629520Y-95432151D01*
X92642133Y-95411107D01*
X92656747Y-95391402D01*
X92673223Y-95373223D01*
X92691402Y-95356747D01*
X92711107Y-95342133D01*
X92732151Y-95329520D01*
X92754329Y-95319030D01*
X92777429Y-95310765D01*
X92801227Y-95304804D01*
X92825496Y-95301204D01*
X92850000Y-95300000D01*
X94550000Y-95300000D01*
X94574504Y-95301204D01*
G37*
G36*
X105674505Y-128451204D02*
G01*
X105698773Y-128454804D01*
X105722572Y-128460765D01*
X105745671Y-128469030D01*
X105767850Y-128479520D01*
X105788893Y-128492132D01*
X105808599Y-128506747D01*
X105826777Y-128523223D01*
X105843253Y-128541401D01*
X105857868Y-128561107D01*
X105870480Y-128582150D01*
X105880970Y-128604329D01*
X105889235Y-128627428D01*
X105895196Y-128651227D01*
X105898796Y-128675495D01*
X105900000Y-128699999D01*
X105900000Y-129350001D01*
X105898796Y-129374505D01*
X105895196Y-129398773D01*
X105889235Y-129422572D01*
X105880970Y-129445671D01*
X105870480Y-129467850D01*
X105857868Y-129488893D01*
X105843253Y-129508599D01*
X105826777Y-129526777D01*
X105808599Y-129543253D01*
X105788893Y-129557868D01*
X105767850Y-129570480D01*
X105745671Y-129580970D01*
X105722572Y-129589235D01*
X105698773Y-129595196D01*
X105674505Y-129598796D01*
X105650001Y-129600000D01*
X104749999Y-129600000D01*
X104725495Y-129598796D01*
X104701227Y-129595196D01*
X104677428Y-129589235D01*
X104654329Y-129580970D01*
X104632150Y-129570480D01*
X104611107Y-129557868D01*
X104591401Y-129543253D01*
X104573223Y-129526777D01*
X104556747Y-129508599D01*
X104542132Y-129488893D01*
X104529520Y-129467850D01*
X104519030Y-129445671D01*
X104510765Y-129422572D01*
X104504804Y-129398773D01*
X104501204Y-129374505D01*
X104500000Y-129350001D01*
X104500000Y-128699999D01*
X104501204Y-128675495D01*
X104504804Y-128651227D01*
X104510765Y-128627428D01*
X104519030Y-128604329D01*
X104529520Y-128582150D01*
X104542132Y-128561107D01*
X104556747Y-128541401D01*
X104573223Y-128523223D01*
X104591401Y-128506747D01*
X104611107Y-128492132D01*
X104632150Y-128479520D01*
X104654329Y-128469030D01*
X104677428Y-128460765D01*
X104701227Y-128454804D01*
X104725495Y-128451204D01*
X104749999Y-128450000D01*
X105650001Y-128450000D01*
X105674505Y-128451204D01*
G37*
G36*
X105674505Y-126401204D02*
G01*
X105698773Y-126404804D01*
X105722572Y-126410765D01*
X105745671Y-126419030D01*
X105767850Y-126429520D01*
X105788893Y-126442132D01*
X105808599Y-126456747D01*
X105826777Y-126473223D01*
X105843253Y-126491401D01*
X105857868Y-126511107D01*
X105870480Y-126532150D01*
X105880970Y-126554329D01*
X105889235Y-126577428D01*
X105895196Y-126601227D01*
X105898796Y-126625495D01*
X105900000Y-126649999D01*
X105900000Y-127300001D01*
X105898796Y-127324505D01*
X105895196Y-127348773D01*
X105889235Y-127372572D01*
X105880970Y-127395671D01*
X105870480Y-127417850D01*
X105857868Y-127438893D01*
X105843253Y-127458599D01*
X105826777Y-127476777D01*
X105808599Y-127493253D01*
X105788893Y-127507868D01*
X105767850Y-127520480D01*
X105745671Y-127530970D01*
X105722572Y-127539235D01*
X105698773Y-127545196D01*
X105674505Y-127548796D01*
X105650001Y-127550000D01*
X104749999Y-127550000D01*
X104725495Y-127548796D01*
X104701227Y-127545196D01*
X104677428Y-127539235D01*
X104654329Y-127530970D01*
X104632150Y-127520480D01*
X104611107Y-127507868D01*
X104591401Y-127493253D01*
X104573223Y-127476777D01*
X104556747Y-127458599D01*
X104542132Y-127438893D01*
X104529520Y-127417850D01*
X104519030Y-127395671D01*
X104510765Y-127372572D01*
X104504804Y-127348773D01*
X104501204Y-127324505D01*
X104500000Y-127300001D01*
X104500000Y-126649999D01*
X104501204Y-126625495D01*
X104504804Y-126601227D01*
X104510765Y-126577428D01*
X104519030Y-126554329D01*
X104529520Y-126532150D01*
X104542132Y-126511107D01*
X104556747Y-126491401D01*
X104573223Y-126473223D01*
X104591401Y-126456747D01*
X104611107Y-126442132D01*
X104632150Y-126429520D01*
X104654329Y-126419030D01*
X104677428Y-126410765D01*
X104701227Y-126404804D01*
X104725495Y-126401204D01*
X104749999Y-126400000D01*
X105650001Y-126400000D01*
X105674505Y-126401204D01*
G37*
G36*
X94874504Y-114951204D02*
G01*
X94898773Y-114954804D01*
X94922571Y-114960765D01*
X94945671Y-114969030D01*
X94967849Y-114979520D01*
X94988893Y-114992133D01*
X95008598Y-115006747D01*
X95026777Y-115023223D01*
X95043253Y-115041402D01*
X95057867Y-115061107D01*
X95070480Y-115082151D01*
X95080970Y-115104329D01*
X95089235Y-115127429D01*
X95095196Y-115151227D01*
X95098796Y-115175496D01*
X95100000Y-115200000D01*
X95100000Y-116800000D01*
X95098796Y-116824504D01*
X95095196Y-116848773D01*
X95089235Y-116872571D01*
X95080970Y-116895671D01*
X95070480Y-116917849D01*
X95057867Y-116938893D01*
X95043253Y-116958598D01*
X95026777Y-116976777D01*
X95008598Y-116993253D01*
X94988893Y-117007867D01*
X94967849Y-117020480D01*
X94945671Y-117030970D01*
X94922571Y-117039235D01*
X94898773Y-117045196D01*
X94874504Y-117048796D01*
X94850000Y-117050000D01*
X90750000Y-117050000D01*
X90725496Y-117048796D01*
X90701227Y-117045196D01*
X90677429Y-117039235D01*
X90654329Y-117030970D01*
X90632151Y-117020480D01*
X90611107Y-117007867D01*
X90591402Y-116993253D01*
X90573223Y-116976777D01*
X90556747Y-116958598D01*
X90542133Y-116938893D01*
X90529520Y-116917849D01*
X90519030Y-116895671D01*
X90510765Y-116872571D01*
X90504804Y-116848773D01*
X90501204Y-116824504D01*
X90500000Y-116800000D01*
X90500000Y-115200000D01*
X90501204Y-115175496D01*
X90504804Y-115151227D01*
X90510765Y-115127429D01*
X90519030Y-115104329D01*
X90529520Y-115082151D01*
X90542133Y-115061107D01*
X90556747Y-115041402D01*
X90573223Y-115023223D01*
X90591402Y-115006747D01*
X90611107Y-114992133D01*
X90632151Y-114979520D01*
X90654329Y-114969030D01*
X90677429Y-114960765D01*
X90701227Y-114954804D01*
X90725496Y-114951204D01*
X90750000Y-114950000D01*
X94850000Y-114950000D01*
X94874504Y-114951204D01*
G37*
G36*
X103674504Y-114951204D02*
G01*
X103698773Y-114954804D01*
X103722571Y-114960765D01*
X103745671Y-114969030D01*
X103767849Y-114979520D01*
X103788893Y-114992133D01*
X103808598Y-115006747D01*
X103826777Y-115023223D01*
X103843253Y-115041402D01*
X103857867Y-115061107D01*
X103870480Y-115082151D01*
X103880970Y-115104329D01*
X103889235Y-115127429D01*
X103895196Y-115151227D01*
X103898796Y-115175496D01*
X103900000Y-115200000D01*
X103900000Y-116800000D01*
X103898796Y-116824504D01*
X103895196Y-116848773D01*
X103889235Y-116872571D01*
X103880970Y-116895671D01*
X103870480Y-116917849D01*
X103857867Y-116938893D01*
X103843253Y-116958598D01*
X103826777Y-116976777D01*
X103808598Y-116993253D01*
X103788893Y-117007867D01*
X103767849Y-117020480D01*
X103745671Y-117030970D01*
X103722571Y-117039235D01*
X103698773Y-117045196D01*
X103674504Y-117048796D01*
X103650000Y-117050000D01*
X99550000Y-117050000D01*
X99525496Y-117048796D01*
X99501227Y-117045196D01*
X99477429Y-117039235D01*
X99454329Y-117030970D01*
X99432151Y-117020480D01*
X99411107Y-117007867D01*
X99391402Y-116993253D01*
X99373223Y-116976777D01*
X99356747Y-116958598D01*
X99342133Y-116938893D01*
X99329520Y-116917849D01*
X99319030Y-116895671D01*
X99310765Y-116872571D01*
X99304804Y-116848773D01*
X99301204Y-116824504D01*
X99300000Y-116800000D01*
X99300000Y-115200000D01*
X99301204Y-115175496D01*
X99304804Y-115151227D01*
X99310765Y-115127429D01*
X99319030Y-115104329D01*
X99329520Y-115082151D01*
X99342133Y-115061107D01*
X99356747Y-115041402D01*
X99373223Y-115023223D01*
X99391402Y-115006747D01*
X99411107Y-114992133D01*
X99432151Y-114979520D01*
X99454329Y-114969030D01*
X99477429Y-114960765D01*
X99501227Y-114954804D01*
X99525496Y-114951204D01*
X99550000Y-114950000D01*
X103650000Y-114950000D01*
X103674504Y-114951204D01*
G37*
G36*
X115099504Y-70776204D02*
G01*
X115123773Y-70779804D01*
X115147571Y-70785765D01*
X115170671Y-70794030D01*
X115192849Y-70804520D01*
X115213893Y-70817133D01*
X115233598Y-70831747D01*
X115251777Y-70848223D01*
X115268253Y-70866402D01*
X115282867Y-70886107D01*
X115295480Y-70907151D01*
X115305970Y-70929329D01*
X115314235Y-70952429D01*
X115320196Y-70976227D01*
X115323796Y-71000496D01*
X115325000Y-71025000D01*
X115325000Y-71950000D01*
X115323796Y-71974504D01*
X115320196Y-71998773D01*
X115314235Y-72022571D01*
X115305970Y-72045671D01*
X115295480Y-72067849D01*
X115282867Y-72088893D01*
X115268253Y-72108598D01*
X115251777Y-72126777D01*
X115233598Y-72143253D01*
X115213893Y-72157867D01*
X115192849Y-72170480D01*
X115170671Y-72180970D01*
X115147571Y-72189235D01*
X115123773Y-72195196D01*
X115099504Y-72198796D01*
X115075000Y-72200000D01*
X112925000Y-72200000D01*
X112900496Y-72198796D01*
X112876227Y-72195196D01*
X112852429Y-72189235D01*
X112829329Y-72180970D01*
X112807151Y-72170480D01*
X112786107Y-72157867D01*
X112766402Y-72143253D01*
X112748223Y-72126777D01*
X112731747Y-72108598D01*
X112717133Y-72088893D01*
X112704520Y-72067849D01*
X112694030Y-72045671D01*
X112685765Y-72022571D01*
X112679804Y-71998773D01*
X112676204Y-71974504D01*
X112675000Y-71950000D01*
X112675000Y-71025000D01*
X112676204Y-71000496D01*
X112679804Y-70976227D01*
X112685765Y-70952429D01*
X112694030Y-70929329D01*
X112704520Y-70907151D01*
X112717133Y-70886107D01*
X112731747Y-70866402D01*
X112748223Y-70848223D01*
X112766402Y-70831747D01*
X112786107Y-70817133D01*
X112807151Y-70804520D01*
X112829329Y-70794030D01*
X112852429Y-70785765D01*
X112876227Y-70779804D01*
X112900496Y-70776204D01*
X112925000Y-70775000D01*
X115075000Y-70775000D01*
X115099504Y-70776204D01*
G37*
G36*
X115099504Y-67801204D02*
G01*
X115123773Y-67804804D01*
X115147571Y-67810765D01*
X115170671Y-67819030D01*
X115192849Y-67829520D01*
X115213893Y-67842133D01*
X115233598Y-67856747D01*
X115251777Y-67873223D01*
X115268253Y-67891402D01*
X115282867Y-67911107D01*
X115295480Y-67932151D01*
X115305970Y-67954329D01*
X115314235Y-67977429D01*
X115320196Y-68001227D01*
X115323796Y-68025496D01*
X115325000Y-68050000D01*
X115325000Y-68975000D01*
X115323796Y-68999504D01*
X115320196Y-69023773D01*
X115314235Y-69047571D01*
X115305970Y-69070671D01*
X115295480Y-69092849D01*
X115282867Y-69113893D01*
X115268253Y-69133598D01*
X115251777Y-69151777D01*
X115233598Y-69168253D01*
X115213893Y-69182867D01*
X115192849Y-69195480D01*
X115170671Y-69205970D01*
X115147571Y-69214235D01*
X115123773Y-69220196D01*
X115099504Y-69223796D01*
X115075000Y-69225000D01*
X112925000Y-69225000D01*
X112900496Y-69223796D01*
X112876227Y-69220196D01*
X112852429Y-69214235D01*
X112829329Y-69205970D01*
X112807151Y-69195480D01*
X112786107Y-69182867D01*
X112766402Y-69168253D01*
X112748223Y-69151777D01*
X112731747Y-69133598D01*
X112717133Y-69113893D01*
X112704520Y-69092849D01*
X112694030Y-69070671D01*
X112685765Y-69047571D01*
X112679804Y-69023773D01*
X112676204Y-68999504D01*
X112675000Y-68975000D01*
X112675000Y-68050000D01*
X112676204Y-68025496D01*
X112679804Y-68001227D01*
X112685765Y-67977429D01*
X112694030Y-67954329D01*
X112704520Y-67932151D01*
X112717133Y-67911107D01*
X112731747Y-67891402D01*
X112748223Y-67873223D01*
X112766402Y-67856747D01*
X112786107Y-67842133D01*
X112807151Y-67829520D01*
X112829329Y-67819030D01*
X112852429Y-67810765D01*
X112876227Y-67804804D01*
X112900496Y-67801204D01*
X112925000Y-67800000D01*
X115075000Y-67800000D01*
X115099504Y-67801204D01*
G37*
G36*
X115599504Y-88301204D02*
G01*
X115623773Y-88304804D01*
X115647571Y-88310765D01*
X115670671Y-88319030D01*
X115692849Y-88329520D01*
X115713893Y-88342133D01*
X115733598Y-88356747D01*
X115751777Y-88373223D01*
X115768253Y-88391402D01*
X115782867Y-88411107D01*
X115795480Y-88432151D01*
X115805970Y-88454329D01*
X115814235Y-88477429D01*
X115820196Y-88501227D01*
X115823796Y-88525496D01*
X115825000Y-88550000D01*
X115825000Y-89475000D01*
X115823796Y-89499504D01*
X115820196Y-89523773D01*
X115814235Y-89547571D01*
X115805970Y-89570671D01*
X115795480Y-89592849D01*
X115782867Y-89613893D01*
X115768253Y-89633598D01*
X115751777Y-89651777D01*
X115733598Y-89668253D01*
X115713893Y-89682867D01*
X115692849Y-89695480D01*
X115670671Y-89705970D01*
X115647571Y-89714235D01*
X115623773Y-89720196D01*
X115599504Y-89723796D01*
X115575000Y-89725000D01*
X113425000Y-89725000D01*
X113400496Y-89723796D01*
X113376227Y-89720196D01*
X113352429Y-89714235D01*
X113329329Y-89705970D01*
X113307151Y-89695480D01*
X113286107Y-89682867D01*
X113266402Y-89668253D01*
X113248223Y-89651777D01*
X113231747Y-89633598D01*
X113217133Y-89613893D01*
X113204520Y-89592849D01*
X113194030Y-89570671D01*
X113185765Y-89547571D01*
X113179804Y-89523773D01*
X113176204Y-89499504D01*
X113175000Y-89475000D01*
X113175000Y-88550000D01*
X113176204Y-88525496D01*
X113179804Y-88501227D01*
X113185765Y-88477429D01*
X113194030Y-88454329D01*
X113204520Y-88432151D01*
X113217133Y-88411107D01*
X113231747Y-88391402D01*
X113248223Y-88373223D01*
X113266402Y-88356747D01*
X113286107Y-88342133D01*
X113307151Y-88329520D01*
X113329329Y-88319030D01*
X113352429Y-88310765D01*
X113376227Y-88304804D01*
X113400496Y-88301204D01*
X113425000Y-88300000D01*
X115575000Y-88300000D01*
X115599504Y-88301204D01*
G37*
G36*
X115599504Y-91276204D02*
G01*
X115623773Y-91279804D01*
X115647571Y-91285765D01*
X115670671Y-91294030D01*
X115692849Y-91304520D01*
X115713893Y-91317133D01*
X115733598Y-91331747D01*
X115751777Y-91348223D01*
X115768253Y-91366402D01*
X115782867Y-91386107D01*
X115795480Y-91407151D01*
X115805970Y-91429329D01*
X115814235Y-91452429D01*
X115820196Y-91476227D01*
X115823796Y-91500496D01*
X115825000Y-91525000D01*
X115825000Y-92450000D01*
X115823796Y-92474504D01*
X115820196Y-92498773D01*
X115814235Y-92522571D01*
X115805970Y-92545671D01*
X115795480Y-92567849D01*
X115782867Y-92588893D01*
X115768253Y-92608598D01*
X115751777Y-92626777D01*
X115733598Y-92643253D01*
X115713893Y-92657867D01*
X115692849Y-92670480D01*
X115670671Y-92680970D01*
X115647571Y-92689235D01*
X115623773Y-92695196D01*
X115599504Y-92698796D01*
X115575000Y-92700000D01*
X113425000Y-92700000D01*
X113400496Y-92698796D01*
X113376227Y-92695196D01*
X113352429Y-92689235D01*
X113329329Y-92680970D01*
X113307151Y-92670480D01*
X113286107Y-92657867D01*
X113266402Y-92643253D01*
X113248223Y-92626777D01*
X113231747Y-92608598D01*
X113217133Y-92588893D01*
X113204520Y-92567849D01*
X113194030Y-92545671D01*
X113185765Y-92522571D01*
X113179804Y-92498773D01*
X113176204Y-92474504D01*
X113175000Y-92450000D01*
X113175000Y-91525000D01*
X113176204Y-91500496D01*
X113179804Y-91476227D01*
X113185765Y-91452429D01*
X113194030Y-91429329D01*
X113204520Y-91407151D01*
X113217133Y-91386107D01*
X113231747Y-91366402D01*
X113248223Y-91348223D01*
X113266402Y-91331747D01*
X113286107Y-91317133D01*
X113307151Y-91304520D01*
X113329329Y-91294030D01*
X113352429Y-91285765D01*
X113376227Y-91279804D01*
X113400496Y-91276204D01*
X113425000Y-91275000D01*
X115575000Y-91275000D01*
X115599504Y-91276204D01*
G37*
G36*
X90799504Y-100176204D02*
G01*
X90823773Y-100179804D01*
X90847571Y-100185765D01*
X90870671Y-100194030D01*
X90892849Y-100204520D01*
X90913893Y-100217133D01*
X90933598Y-100231747D01*
X90951777Y-100248223D01*
X90968253Y-100266402D01*
X90982867Y-100286107D01*
X90995480Y-100307151D01*
X91005970Y-100329329D01*
X91014235Y-100352429D01*
X91020196Y-100376227D01*
X91023796Y-100400496D01*
X91025000Y-100425000D01*
X91025000Y-102575000D01*
X91023796Y-102599504D01*
X91020196Y-102623773D01*
X91014235Y-102647571D01*
X91005970Y-102670671D01*
X90995480Y-102692849D01*
X90982867Y-102713893D01*
X90968253Y-102733598D01*
X90951777Y-102751777D01*
X90933598Y-102768253D01*
X90913893Y-102782867D01*
X90892849Y-102795480D01*
X90870671Y-102805970D01*
X90847571Y-102814235D01*
X90823773Y-102820196D01*
X90799504Y-102823796D01*
X90775000Y-102825000D01*
X89850000Y-102825000D01*
X89825496Y-102823796D01*
X89801227Y-102820196D01*
X89777429Y-102814235D01*
X89754329Y-102805970D01*
X89732151Y-102795480D01*
X89711107Y-102782867D01*
X89691402Y-102768253D01*
X89673223Y-102751777D01*
X89656747Y-102733598D01*
X89642133Y-102713893D01*
X89629520Y-102692849D01*
X89619030Y-102670671D01*
X89610765Y-102647571D01*
X89604804Y-102623773D01*
X89601204Y-102599504D01*
X89600000Y-102575000D01*
X89600000Y-100425000D01*
X89601204Y-100400496D01*
X89604804Y-100376227D01*
X89610765Y-100352429D01*
X89619030Y-100329329D01*
X89629520Y-100307151D01*
X89642133Y-100286107D01*
X89656747Y-100266402D01*
X89673223Y-100248223D01*
X89691402Y-100231747D01*
X89711107Y-100217133D01*
X89732151Y-100204520D01*
X89754329Y-100194030D01*
X89777429Y-100185765D01*
X89801227Y-100179804D01*
X89825496Y-100176204D01*
X89850000Y-100175000D01*
X90775000Y-100175000D01*
X90799504Y-100176204D01*
G37*
G36*
X93774504Y-100176204D02*
G01*
X93798773Y-100179804D01*
X93822571Y-100185765D01*
X93845671Y-100194030D01*
X93867849Y-100204520D01*
X93888893Y-100217133D01*
X93908598Y-100231747D01*
X93926777Y-100248223D01*
X93943253Y-100266402D01*
X93957867Y-100286107D01*
X93970480Y-100307151D01*
X93980970Y-100329329D01*
X93989235Y-100352429D01*
X93995196Y-100376227D01*
X93998796Y-100400496D01*
X94000000Y-100425000D01*
X94000000Y-102575000D01*
X93998796Y-102599504D01*
X93995196Y-102623773D01*
X93989235Y-102647571D01*
X93980970Y-102670671D01*
X93970480Y-102692849D01*
X93957867Y-102713893D01*
X93943253Y-102733598D01*
X93926777Y-102751777D01*
X93908598Y-102768253D01*
X93888893Y-102782867D01*
X93867849Y-102795480D01*
X93845671Y-102805970D01*
X93822571Y-102814235D01*
X93798773Y-102820196D01*
X93774504Y-102823796D01*
X93750000Y-102825000D01*
X92825000Y-102825000D01*
X92800496Y-102823796D01*
X92776227Y-102820196D01*
X92752429Y-102814235D01*
X92729329Y-102805970D01*
X92707151Y-102795480D01*
X92686107Y-102782867D01*
X92666402Y-102768253D01*
X92648223Y-102751777D01*
X92631747Y-102733598D01*
X92617133Y-102713893D01*
X92604520Y-102692849D01*
X92594030Y-102670671D01*
X92585765Y-102647571D01*
X92579804Y-102623773D01*
X92576204Y-102599504D01*
X92575000Y-102575000D01*
X92575000Y-100425000D01*
X92576204Y-100400496D01*
X92579804Y-100376227D01*
X92585765Y-100352429D01*
X92594030Y-100329329D01*
X92604520Y-100307151D01*
X92617133Y-100286107D01*
X92631747Y-100266402D01*
X92648223Y-100248223D01*
X92666402Y-100231747D01*
X92686107Y-100217133D01*
X92707151Y-100204520D01*
X92729329Y-100194030D01*
X92752429Y-100185765D01*
X92776227Y-100179804D01*
X92800496Y-100176204D01*
X92825000Y-100175000D01*
X93750000Y-100175000D01*
X93774504Y-100176204D01*
G37*
D14*
X142250000Y-92850000D03*
D15*
X140000000Y-103050000D03*
D16*
X145850000Y-100150000D03*
X132150000Y-100150000D03*
X145850000Y-95850000D03*
X132150000Y-95850000D03*
D14*
X143250000Y-76850000D03*
D15*
X141000000Y-87050000D03*
D16*
X146850000Y-84150000D03*
X133150000Y-84150000D03*
X146850000Y-79850000D03*
X133150000Y-79850000D03*
D17*
X123750000Y-97730000D03*
X123750000Y-100270000D03*
X114250000Y-100270000D03*
X114250000Y-97730000D03*
X123750000Y-78730000D03*
X123750000Y-81270000D03*
X114250000Y-81270000D03*
X114250000Y-78730000D03*
M02*
