M48
; DRILL file {KiCad (5.1.5-0)} date Sunday, January 24, 2021 at 11:48:27 AM
; FORMAT={-:-/ absolute / inch / decimal}
; #@! TF.CreationDate,2021-01-24T11:48:27-07:00
; #@! TF.GenerationSoftware,Kicad,Pcbnew,(5.1.5-0)
FMAT,2
INCH
T1C0.0157
T2C0.0276
T3C0.0295
T4C0.0315
T5C0.0394
T6C0.0591
%
G90
G05
T1
X3.5827Y-3.7795
X3.5827Y-3.8583
X3.937Y-4.8425
X5.3701Y-3.622
X5.374Y-4.2008
X5.7087Y-5.0079
X5.8543Y-4.9134
X6.0354Y-2.3465
X6.0502Y-3.2205
T2
X4.4724Y-4.4882
X4.4724Y-4.5882
X4.4724Y-4.6882
X4.4724Y-4.7882
T3
X5.9449Y-3.5433
X5.9449Y-3.622
X4.8425Y-5.1181
X4.8425Y-5.1969
X5.9843Y-3.8583
X5.9843Y-3.937
X5.9843Y-4.7244
X5.9843Y-4.8031
X5.9843Y-4.4094
X5.9843Y-4.4882
X5.9449Y-3.0315
X5.9449Y-3.1102
T4
X5.0394Y-4.6063
X5.2362Y-4.6063
X5.1181Y-2.5591
X5.315Y-2.5591
T5
X3.6299Y-4.1693
X4.0236Y-4.252
T6
X3.4976Y-2.8087
X3.4976Y-3.1087
X3.4976Y-3.3087
X4.2976Y-2.8087
X4.2976Y-3.2087
X4.2976Y-3.6087
T2
G00X3.6772Y-2.0925
M15
G01X3.6772Y-2.002
M16
G05
G00X3.8445Y-2.2362
M15
G01X3.7539Y-2.2362
M16
G05
G00X3.9173Y-2.0925
M15
G01X3.9173Y-2.002
M16
G05
T0
M30
