G04 #@! TF.GenerationSoftware,KiCad,Pcbnew,(5.1.5-0)*
G04 #@! TF.CreationDate,2021-01-24T11:48:24-07:00*
G04 #@! TF.ProjectId,power_cui,706f7765-725f-4637-9569-2e6b69636164,rev?*
G04 #@! TF.SameCoordinates,Original*
G04 #@! TF.FileFunction,Legend,Top*
G04 #@! TF.FilePolarity,Positive*
%FSLAX46Y46*%
G04 Gerber Fmt 4.6, Leading zero omitted, Abs format (unit mm)*
G04 Created by KiCad (PCBNEW (5.1.5-0)) date 2021-01-24 11:48:24*
%MOMM*%
%LPD*%
G04 APERTURE LIST*
%ADD10C,0.150000*%
%ADD11C,0.120000*%
%ADD12C,0.100000*%
%ADD13C,0.400000*%
%ADD14C,0.127000*%
%ADD15C,0.200000*%
%ADD16C,0.254000*%
%ADD17C,0.015000*%
G04 APERTURE END LIST*
D10*
X96476190Y-148452380D02*
X95904761Y-148452380D01*
X96190476Y-148452380D02*
X96190476Y-147452380D01*
X96095238Y-147595238D01*
X96000000Y-147690476D01*
X95904761Y-147738095D01*
X97619047Y-147404761D02*
X96761904Y-148690476D01*
X97904761Y-147547619D02*
X97952380Y-147500000D01*
X98047619Y-147452380D01*
X98285714Y-147452380D01*
X98380952Y-147500000D01*
X98428571Y-147547619D01*
X98476190Y-147642857D01*
X98476190Y-147738095D01*
X98428571Y-147880952D01*
X97857142Y-148452380D01*
X98476190Y-148452380D01*
X99095238Y-147452380D02*
X99190476Y-147452380D01*
X99285714Y-147500000D01*
X99333333Y-147547619D01*
X99380952Y-147642857D01*
X99428571Y-147833333D01*
X99428571Y-148071428D01*
X99380952Y-148261904D01*
X99333333Y-148357142D01*
X99285714Y-148404761D01*
X99190476Y-148452380D01*
X99095238Y-148452380D01*
X99000000Y-148404761D01*
X98952380Y-148357142D01*
X98904761Y-148261904D01*
X98857142Y-148071428D01*
X98857142Y-147833333D01*
X98904761Y-147642857D01*
X98952380Y-147547619D01*
X99000000Y-147500000D01*
X99095238Y-147452380D01*
X99809523Y-147547619D02*
X99857142Y-147500000D01*
X99952380Y-147452380D01*
X100190476Y-147452380D01*
X100285714Y-147500000D01*
X100333333Y-147547619D01*
X100380952Y-147642857D01*
X100380952Y-147738095D01*
X100333333Y-147880952D01*
X99761904Y-148452380D01*
X100380952Y-148452380D01*
X101333333Y-148452380D02*
X100761904Y-148452380D01*
X101047619Y-148452380D02*
X101047619Y-147452380D01*
X100952380Y-147595238D01*
X100857142Y-147690476D01*
X100761904Y-147738095D01*
X102476190Y-148404761D02*
X102619047Y-148452380D01*
X102857142Y-148452380D01*
X102952380Y-148404761D01*
X103000000Y-148357142D01*
X103047619Y-148261904D01*
X103047619Y-148166666D01*
X103000000Y-148071428D01*
X102952380Y-148023809D01*
X102857142Y-147976190D01*
X102666666Y-147928571D01*
X102571428Y-147880952D01*
X102523809Y-147833333D01*
X102476190Y-147738095D01*
X102476190Y-147642857D01*
X102523809Y-147547619D01*
X102571428Y-147500000D01*
X102666666Y-147452380D01*
X102904761Y-147452380D01*
X103047619Y-147500000D01*
X103380952Y-147785714D02*
X103571428Y-148452380D01*
X103761904Y-147976190D01*
X103952380Y-148452380D01*
X104142857Y-147785714D01*
X104523809Y-148452380D02*
X104523809Y-147785714D01*
X104523809Y-147452380D02*
X104476190Y-147500000D01*
X104523809Y-147547619D01*
X104571428Y-147500000D01*
X104523809Y-147452380D01*
X104523809Y-147547619D01*
X104857142Y-147785714D02*
X105238095Y-147785714D01*
X105000000Y-147452380D02*
X105000000Y-148309523D01*
X105047619Y-148404761D01*
X105142857Y-148452380D01*
X105238095Y-148452380D01*
X106000000Y-148404761D02*
X105904761Y-148452380D01*
X105714285Y-148452380D01*
X105619047Y-148404761D01*
X105571428Y-148357142D01*
X105523809Y-148261904D01*
X105523809Y-147976190D01*
X105571428Y-147880952D01*
X105619047Y-147833333D01*
X105714285Y-147785714D01*
X105904761Y-147785714D01*
X106000000Y-147833333D01*
X106428571Y-148452380D02*
X106428571Y-147452380D01*
X106857142Y-148452380D02*
X106857142Y-147928571D01*
X106809523Y-147833333D01*
X106714285Y-147785714D01*
X106571428Y-147785714D01*
X106476190Y-147833333D01*
X106428571Y-147880952D01*
X107333333Y-148452380D02*
X107333333Y-147785714D01*
X107333333Y-147452380D02*
X107285714Y-147500000D01*
X107333333Y-147547619D01*
X107380952Y-147500000D01*
X107333333Y-147452380D01*
X107333333Y-147547619D01*
X107809523Y-147785714D02*
X107809523Y-148452380D01*
X107809523Y-147880952D02*
X107857142Y-147833333D01*
X107952380Y-147785714D01*
X108095238Y-147785714D01*
X108190476Y-147833333D01*
X108238095Y-147928571D01*
X108238095Y-148452380D01*
X109142857Y-147785714D02*
X109142857Y-148595238D01*
X109095238Y-148690476D01*
X109047619Y-148738095D01*
X108952380Y-148785714D01*
X108809523Y-148785714D01*
X108714285Y-148738095D01*
X109142857Y-148404761D02*
X109047619Y-148452380D01*
X108857142Y-148452380D01*
X108761904Y-148404761D01*
X108714285Y-148357142D01*
X108666666Y-148261904D01*
X108666666Y-147976190D01*
X108714285Y-147880952D01*
X108761904Y-147833333D01*
X108857142Y-147785714D01*
X109047619Y-147785714D01*
X109142857Y-147833333D01*
X110380952Y-148452380D02*
X110380952Y-147452380D01*
X110761904Y-147452380D01*
X110857142Y-147500000D01*
X110904761Y-147547619D01*
X110952380Y-147642857D01*
X110952380Y-147785714D01*
X110904761Y-147880952D01*
X110857142Y-147928571D01*
X110761904Y-147976190D01*
X110380952Y-147976190D01*
X111523809Y-148452380D02*
X111428571Y-148404761D01*
X111380952Y-148357142D01*
X111333333Y-148261904D01*
X111333333Y-147976190D01*
X111380952Y-147880952D01*
X111428571Y-147833333D01*
X111523809Y-147785714D01*
X111666666Y-147785714D01*
X111761904Y-147833333D01*
X111809523Y-147880952D01*
X111857142Y-147976190D01*
X111857142Y-148261904D01*
X111809523Y-148357142D01*
X111761904Y-148404761D01*
X111666666Y-148452380D01*
X111523809Y-148452380D01*
X112190476Y-147785714D02*
X112380952Y-148452380D01*
X112571428Y-147976190D01*
X112761904Y-148452380D01*
X112952380Y-147785714D01*
X113714285Y-148404761D02*
X113619047Y-148452380D01*
X113428571Y-148452380D01*
X113333333Y-148404761D01*
X113285714Y-148309523D01*
X113285714Y-147928571D01*
X113333333Y-147833333D01*
X113428571Y-147785714D01*
X113619047Y-147785714D01*
X113714285Y-147833333D01*
X113761904Y-147928571D01*
X113761904Y-148023809D01*
X113285714Y-148119047D01*
X114190476Y-148452380D02*
X114190476Y-147785714D01*
X114190476Y-147976190D02*
X114238095Y-147880952D01*
X114285714Y-147833333D01*
X114380952Y-147785714D01*
X114476190Y-147785714D01*
X115523809Y-148404761D02*
X115666666Y-148452380D01*
X115904761Y-148452380D01*
X116000000Y-148404761D01*
X116047619Y-148357142D01*
X116095238Y-148261904D01*
X116095238Y-148166666D01*
X116047619Y-148071428D01*
X116000000Y-148023809D01*
X115904761Y-147976190D01*
X115714285Y-147928571D01*
X115619047Y-147880952D01*
X115571428Y-147833333D01*
X115523809Y-147738095D01*
X115523809Y-147642857D01*
X115571428Y-147547619D01*
X115619047Y-147500000D01*
X115714285Y-147452380D01*
X115952380Y-147452380D01*
X116095238Y-147500000D01*
X116952380Y-147785714D02*
X116952380Y-148452380D01*
X116523809Y-147785714D02*
X116523809Y-148309523D01*
X116571428Y-148404761D01*
X116666666Y-148452380D01*
X116809523Y-148452380D01*
X116904761Y-148404761D01*
X116952380Y-148357142D01*
X117428571Y-147785714D02*
X117428571Y-148785714D01*
X117428571Y-147833333D02*
X117523809Y-147785714D01*
X117714285Y-147785714D01*
X117809523Y-147833333D01*
X117857142Y-147880952D01*
X117904761Y-147976190D01*
X117904761Y-148261904D01*
X117857142Y-148357142D01*
X117809523Y-148404761D01*
X117714285Y-148452380D01*
X117523809Y-148452380D01*
X117428571Y-148404761D01*
X118333333Y-147785714D02*
X118333333Y-148785714D01*
X118333333Y-147833333D02*
X118428571Y-147785714D01*
X118619047Y-147785714D01*
X118714285Y-147833333D01*
X118761904Y-147880952D01*
X118809523Y-147976190D01*
X118809523Y-148261904D01*
X118761904Y-148357142D01*
X118714285Y-148404761D01*
X118619047Y-148452380D01*
X118428571Y-148452380D01*
X118333333Y-148404761D01*
X119380952Y-148452380D02*
X119285714Y-148404761D01*
X119238095Y-148309523D01*
X119238095Y-147452380D01*
X119666666Y-147785714D02*
X119904761Y-148452380D01*
X120142857Y-147785714D02*
X119904761Y-148452380D01*
X119809523Y-148690476D01*
X119761904Y-148738095D01*
X119666666Y-148785714D01*
X121285714Y-148071428D02*
X122047619Y-148071428D01*
X121666666Y-148452380D02*
X121666666Y-147690476D01*
X123238095Y-148404761D02*
X123333333Y-148452380D01*
X123523809Y-148452380D01*
X123619047Y-148404761D01*
X123666666Y-148309523D01*
X123666666Y-148261904D01*
X123619047Y-148166666D01*
X123523809Y-148119047D01*
X123380952Y-148119047D01*
X123285714Y-148071428D01*
X123238095Y-147976190D01*
X123238095Y-147928571D01*
X123285714Y-147833333D01*
X123380952Y-147785714D01*
X123523809Y-147785714D01*
X123619047Y-147833333D01*
X124523809Y-147785714D02*
X124523809Y-148452380D01*
X124095238Y-147785714D02*
X124095238Y-148309523D01*
X124142857Y-148404761D01*
X124238095Y-148452380D01*
X124380952Y-148452380D01*
X124476190Y-148404761D01*
X124523809Y-148357142D01*
X124999999Y-147785714D02*
X124999999Y-148785714D01*
X124999999Y-147833333D02*
X125095238Y-147785714D01*
X125285714Y-147785714D01*
X125380952Y-147833333D01*
X125428571Y-147880952D01*
X125476190Y-147976190D01*
X125476190Y-148261904D01*
X125428571Y-148357142D01*
X125380952Y-148404761D01*
X125285714Y-148452380D01*
X125095238Y-148452380D01*
X124999999Y-148404761D01*
X126285714Y-148404761D02*
X126190476Y-148452380D01*
X125999999Y-148452380D01*
X125904761Y-148404761D01*
X125857142Y-148309523D01*
X125857142Y-147928571D01*
X125904761Y-147833333D01*
X125999999Y-147785714D01*
X126190476Y-147785714D01*
X126285714Y-147833333D01*
X126333333Y-147928571D01*
X126333333Y-148023809D01*
X125857142Y-148119047D01*
X126761904Y-148452380D02*
X126761904Y-147785714D01*
X126761904Y-147976190D02*
X126809523Y-147880952D01*
X126857142Y-147833333D01*
X126952380Y-147785714D01*
X127047619Y-147785714D01*
X128571428Y-148404761D02*
X128476190Y-148452380D01*
X128285714Y-148452380D01*
X128190476Y-148404761D01*
X128142857Y-148357142D01*
X128095238Y-148261904D01*
X128095238Y-147976190D01*
X128142857Y-147880952D01*
X128190476Y-147833333D01*
X128285714Y-147785714D01*
X128476190Y-147785714D01*
X128571428Y-147833333D01*
X129428571Y-148452380D02*
X129428571Y-147928571D01*
X129380952Y-147833333D01*
X129285714Y-147785714D01*
X129095238Y-147785714D01*
X128999999Y-147833333D01*
X129428571Y-148404761D02*
X129333333Y-148452380D01*
X129095238Y-148452380D01*
X128999999Y-148404761D01*
X128952380Y-148309523D01*
X128952380Y-148214285D01*
X128999999Y-148119047D01*
X129095238Y-148071428D01*
X129333333Y-148071428D01*
X129428571Y-148023809D01*
X129904761Y-147785714D02*
X129904761Y-148785714D01*
X129904761Y-147833333D02*
X130000000Y-147785714D01*
X130190476Y-147785714D01*
X130285714Y-147833333D01*
X130333333Y-147880952D01*
X130380952Y-147976190D01*
X130380952Y-148261904D01*
X130333333Y-148357142D01*
X130285714Y-148404761D01*
X130190476Y-148452380D01*
X130000000Y-148452380D01*
X129904761Y-148404761D01*
X131523809Y-148404761D02*
X131619047Y-148452380D01*
X131809523Y-148452380D01*
X131904761Y-148404761D01*
X131952380Y-148309523D01*
X131952380Y-148261904D01*
X131904761Y-148166666D01*
X131809523Y-148119047D01*
X131666666Y-148119047D01*
X131571428Y-148071428D01*
X131523809Y-147976190D01*
X131523809Y-147928571D01*
X131571428Y-147833333D01*
X131666666Y-147785714D01*
X131809523Y-147785714D01*
X131904761Y-147833333D01*
X132380952Y-148452380D02*
X132380952Y-147452380D01*
X132809523Y-148452380D02*
X132809523Y-147928571D01*
X132761904Y-147833333D01*
X132666666Y-147785714D01*
X132523809Y-147785714D01*
X132428571Y-147833333D01*
X132380952Y-147880952D01*
X133714285Y-147785714D02*
X133714285Y-148452380D01*
X133285714Y-147785714D02*
X133285714Y-148309523D01*
X133333333Y-148404761D01*
X133428571Y-148452380D01*
X133571428Y-148452380D01*
X133666666Y-148404761D01*
X133714285Y-148357142D01*
X134047619Y-147785714D02*
X134428571Y-147785714D01*
X134190476Y-147452380D02*
X134190476Y-148309523D01*
X134238095Y-148404761D01*
X134333333Y-148452380D01*
X134428571Y-148452380D01*
X135190476Y-148452380D02*
X135190476Y-147452380D01*
X135190476Y-148404761D02*
X135095238Y-148452380D01*
X134904761Y-148452380D01*
X134809523Y-148404761D01*
X134761904Y-148357142D01*
X134714285Y-148261904D01*
X134714285Y-147976190D01*
X134761904Y-147880952D01*
X134809523Y-147833333D01*
X134904761Y-147785714D01*
X135095238Y-147785714D01*
X135190476Y-147833333D01*
X135809523Y-148452380D02*
X135714285Y-148404761D01*
X135666666Y-148357142D01*
X135619047Y-148261904D01*
X135619047Y-147976190D01*
X135666666Y-147880952D01*
X135714285Y-147833333D01*
X135809523Y-147785714D01*
X135952380Y-147785714D01*
X136047619Y-147833333D01*
X136095238Y-147880952D01*
X136142857Y-147976190D01*
X136142857Y-148261904D01*
X136095238Y-148357142D01*
X136047619Y-148404761D01*
X135952380Y-148452380D01*
X135809523Y-148452380D01*
X136476190Y-147785714D02*
X136666666Y-148452380D01*
X136857142Y-147976190D01*
X137047619Y-148452380D01*
X137238095Y-147785714D01*
X137619047Y-147785714D02*
X137619047Y-148452380D01*
X137619047Y-147880952D02*
X137666666Y-147833333D01*
X137761904Y-147785714D01*
X137904761Y-147785714D01*
X137999999Y-147833333D01*
X138047619Y-147928571D01*
X138047619Y-148452380D01*
D11*
X144390000Y-63100000D02*
X144390000Y-57090000D01*
X151210000Y-60850000D02*
X151210000Y-57090000D01*
X144390000Y-57090000D02*
X145650000Y-57090000D01*
X151210000Y-57090000D02*
X149950000Y-57090000D01*
X152190000Y-56528733D02*
X152190000Y-56871267D01*
X153210000Y-56528733D02*
X153210000Y-56871267D01*
X142128733Y-56910000D02*
X142471267Y-56910000D01*
X142128733Y-55890000D02*
X142471267Y-55890000D01*
X141490000Y-113200000D02*
X141490000Y-107190000D01*
X148310000Y-110950000D02*
X148310000Y-107190000D01*
X141490000Y-107190000D02*
X142750000Y-107190000D01*
X148310000Y-107190000D02*
X147050000Y-107190000D01*
X145550000Y-65900000D02*
X145550000Y-68450000D01*
X143850000Y-65900000D02*
X143850000Y-68450000D01*
X145550000Y-65900000D02*
X143850000Y-65900000D01*
X137500000Y-106150000D02*
X140050000Y-106150000D01*
X137500000Y-107850000D02*
X140050000Y-107850000D01*
X137500000Y-106150000D02*
X137500000Y-107850000D01*
X112150000Y-111730000D02*
X112150000Y-112930000D01*
X113350000Y-111730000D02*
X112150000Y-111730000D01*
X118690000Y-123700000D02*
X112350000Y-123700000D01*
X112350000Y-111930000D02*
X112350000Y-123700000D01*
X118690000Y-111930000D02*
X112350000Y-111930000D01*
X118690000Y-111930000D02*
X118690000Y-123700000D01*
X102300000Y-129700000D02*
X102300000Y-127400000D01*
X109700000Y-129700000D02*
X102300000Y-129700000D01*
X109700000Y-127400000D02*
X109700000Y-129700000D01*
X109700000Y-122300000D02*
X109700000Y-124600000D01*
X102300000Y-122300000D02*
X109700000Y-122300000D01*
X102300000Y-124600000D02*
X102300000Y-122300000D01*
X120890000Y-134360000D02*
X122140000Y-134360000D01*
X120890000Y-133110000D02*
X120890000Y-134360000D01*
X125300000Y-131000000D02*
X124800000Y-131000000D01*
X124800000Y-130900000D02*
X125300000Y-130900000D01*
X124800000Y-131100000D02*
X124800000Y-130900000D01*
X125300000Y-131100000D02*
X124800000Y-131100000D01*
X123800000Y-127940000D02*
X123800000Y-128550000D01*
X122500000Y-127940000D02*
X122500000Y-128550000D01*
X123800000Y-134060000D02*
X123800000Y-133450000D01*
X122500000Y-134060000D02*
X122500000Y-133450000D01*
X121800000Y-130500000D02*
X121190000Y-130500000D01*
X121800000Y-128550000D02*
X121800000Y-130500000D01*
X125300000Y-128550000D02*
X121800000Y-128550000D01*
X125300000Y-133450000D02*
X125300000Y-128550000D01*
X121800000Y-133450000D02*
X125300000Y-133450000D01*
X121800000Y-131500000D02*
X121800000Y-133450000D01*
X121190000Y-131500000D02*
X121800000Y-131500000D01*
X121090000Y-132300000D02*
X121090000Y-132600000D01*
X120990000Y-132600000D02*
X121190000Y-132600000D01*
X120990000Y-132300000D02*
X120990000Y-132600000D01*
X121190000Y-132300000D02*
X120990000Y-132300000D01*
X121190000Y-127940000D02*
X121190000Y-134060000D01*
X125910000Y-127940000D02*
X121190000Y-127940000D01*
X125910000Y-134060000D02*
X125910000Y-127940000D01*
X121190000Y-134060000D02*
X125910000Y-134060000D01*
X113871267Y-110090000D02*
X113528733Y-110090000D01*
X113871267Y-111110000D02*
X113528733Y-111110000D01*
X112571267Y-124490000D02*
X112228733Y-124490000D01*
X112571267Y-125510000D02*
X112228733Y-125510000D01*
X98602064Y-124640000D02*
X97397936Y-124640000D01*
X98602064Y-127360000D02*
X97397936Y-127360000D01*
D12*
X116000000Y-95500000D02*
X124000000Y-95500000D01*
X116000000Y-102500000D02*
X123500000Y-102500000D01*
X113500000Y-101500000D02*
X113500000Y-101500000D01*
X113400000Y-101500000D02*
X113400000Y-101500000D01*
X113400000Y-101500000D02*
G75*
G02X113500000Y-101500000I50000J0D01*
G01*
X113500000Y-101500000D02*
G75*
G02X113400000Y-101500000I-50000J0D01*
G01*
D11*
X124628733Y-92010000D02*
X124971267Y-92010000D01*
X124628733Y-90990000D02*
X124971267Y-90990000D01*
X126171267Y-92990000D02*
X125828733Y-92990000D01*
X126171267Y-94010000D02*
X125828733Y-94010000D01*
X135580000Y-90140000D02*
X135580000Y-91600000D01*
X132420000Y-90140000D02*
X132420000Y-92300000D01*
X132420000Y-90140000D02*
X133350000Y-90140000D01*
X135580000Y-90140000D02*
X134650000Y-90140000D01*
D12*
X116000000Y-76500000D02*
X124000000Y-76500000D01*
X116000000Y-83500000D02*
X123500000Y-83500000D01*
X113500000Y-82500000D02*
X113500000Y-82500000D01*
X113400000Y-82500000D02*
X113400000Y-82500000D01*
X113400000Y-82500000D02*
G75*
G02X113500000Y-82500000I50000J0D01*
G01*
X113500000Y-82500000D02*
G75*
G02X113400000Y-82500000I-50000J0D01*
G01*
D11*
X127600000Y-90750000D02*
X130150000Y-90750000D01*
X127600000Y-92450000D02*
X130150000Y-92450000D01*
X127600000Y-90750000D02*
X127600000Y-92450000D01*
X143250000Y-65000000D02*
G75*
G03X143250000Y-65000000I-10750000J0D01*
G01*
X141250000Y-117000000D02*
G75*
G03X141250000Y-117000000I-10750000J0D01*
G01*
X151820000Y-126550000D02*
X150580000Y-126550000D01*
X151820000Y-131250000D02*
X150580000Y-131250000D01*
X149250000Y-131250000D02*
X148900000Y-131250000D01*
X148900000Y-131250000D02*
X148900000Y-126550000D01*
X148900000Y-126550000D02*
X149250000Y-126550000D01*
X149250000Y-131250000D02*
X149250000Y-132500000D01*
X153150000Y-131250000D02*
X153500000Y-131250000D01*
X153500000Y-131250000D02*
X153500000Y-126550000D01*
X153500000Y-126550000D02*
X153150000Y-126550000D01*
X146428733Y-132510000D02*
X146771267Y-132510000D01*
X146428733Y-131490000D02*
X146771267Y-131490000D01*
X151380000Y-70350000D02*
X152620000Y-70350000D01*
X151380000Y-65650000D02*
X152620000Y-65650000D01*
X153950000Y-65650000D02*
X154300000Y-65650000D01*
X154300000Y-65650000D02*
X154300000Y-70350000D01*
X154300000Y-70350000D02*
X153950000Y-70350000D01*
X153950000Y-65650000D02*
X153950000Y-64400000D01*
X150050000Y-65650000D02*
X149700000Y-65650000D01*
X149700000Y-65650000D02*
X149700000Y-70350000D01*
X149700000Y-70350000D02*
X150050000Y-70350000D01*
X152690000Y-61553733D02*
X152690000Y-61896267D01*
X153710000Y-61553733D02*
X153710000Y-61896267D01*
D13*
X101480000Y-51990000D02*
G75*
G03X101480000Y-51990000I-200000J0D01*
G01*
D14*
X85300000Y-57500000D02*
X85300000Y-56000000D01*
X85300000Y-56000000D02*
X85300000Y-48000000D01*
X85300000Y-48000000D02*
X85300000Y-46500000D01*
X85300000Y-46500000D02*
X99500000Y-46500000D01*
X79600000Y-56000000D02*
X79600000Y-48000000D01*
X79600000Y-48000000D02*
X85300000Y-48000000D01*
X79600000Y-56000000D02*
X85300000Y-56000000D01*
X94300000Y-57500000D02*
X85300000Y-57500000D01*
X99500000Y-57500000D02*
X98600000Y-57500000D01*
X99500000Y-54400000D02*
X99500000Y-57500000D01*
X99500000Y-46500000D02*
X99500000Y-49600000D01*
D11*
X148890000Y-94360000D02*
X150140000Y-94360000D01*
X148890000Y-93110000D02*
X148890000Y-94360000D01*
X153300000Y-91000000D02*
X152800000Y-91000000D01*
X152800000Y-90900000D02*
X153300000Y-90900000D01*
X152800000Y-91100000D02*
X152800000Y-90900000D01*
X153300000Y-91100000D02*
X152800000Y-91100000D01*
X151800000Y-87940000D02*
X151800000Y-88550000D01*
X150500000Y-87940000D02*
X150500000Y-88550000D01*
X151800000Y-94060000D02*
X151800000Y-93450000D01*
X150500000Y-94060000D02*
X150500000Y-93450000D01*
X149800000Y-90500000D02*
X149190000Y-90500000D01*
X149800000Y-88550000D02*
X149800000Y-90500000D01*
X153300000Y-88550000D02*
X149800000Y-88550000D01*
X153300000Y-93450000D02*
X153300000Y-88550000D01*
X149800000Y-93450000D02*
X153300000Y-93450000D01*
X149800000Y-91500000D02*
X149800000Y-93450000D01*
X149190000Y-91500000D02*
X149800000Y-91500000D01*
X149090000Y-92300000D02*
X149090000Y-92600000D01*
X148990000Y-92600000D02*
X149190000Y-92600000D01*
X148990000Y-92300000D02*
X148990000Y-92600000D01*
X149190000Y-92300000D02*
X148990000Y-92300000D01*
X149190000Y-87940000D02*
X149190000Y-94060000D01*
X153910000Y-87940000D02*
X149190000Y-87940000D01*
X153910000Y-94060000D02*
X153910000Y-87940000D01*
X149190000Y-94060000D02*
X153910000Y-94060000D01*
X124397936Y-90160000D02*
X125602064Y-90160000D01*
X124397936Y-87440000D02*
X125602064Y-87440000D01*
X128490000Y-88328733D02*
X128490000Y-88671267D01*
X129510000Y-88328733D02*
X129510000Y-88671267D01*
X152240000Y-82420000D02*
X153700000Y-82420000D01*
X152240000Y-85580000D02*
X154400000Y-85580000D01*
X152240000Y-85580000D02*
X152240000Y-84650000D01*
X152240000Y-82420000D02*
X152240000Y-83350000D01*
X152760000Y-107580000D02*
X151300000Y-107580000D01*
X152760000Y-104420000D02*
X150600000Y-104420000D01*
X152760000Y-104420000D02*
X152760000Y-105350000D01*
X152760000Y-107580000D02*
X152760000Y-106650000D01*
X154110000Y-117640000D02*
X152860000Y-117640000D01*
X154110000Y-118890000D02*
X154110000Y-117640000D01*
X149700000Y-121000000D02*
X150200000Y-121000000D01*
X150200000Y-121100000D02*
X149700000Y-121100000D01*
X150200000Y-120900000D02*
X150200000Y-121100000D01*
X149700000Y-120900000D02*
X150200000Y-120900000D01*
X151200000Y-124060000D02*
X151200000Y-123450000D01*
X152500000Y-124060000D02*
X152500000Y-123450000D01*
X151200000Y-117940000D02*
X151200000Y-118550000D01*
X152500000Y-117940000D02*
X152500000Y-118550000D01*
X153200000Y-121500000D02*
X153810000Y-121500000D01*
X153200000Y-123450000D02*
X153200000Y-121500000D01*
X149700000Y-123450000D02*
X153200000Y-123450000D01*
X149700000Y-118550000D02*
X149700000Y-123450000D01*
X153200000Y-118550000D02*
X149700000Y-118550000D01*
X153200000Y-120500000D02*
X153200000Y-118550000D01*
X153810000Y-120500000D02*
X153200000Y-120500000D01*
X153910000Y-119700000D02*
X153910000Y-119400000D01*
X154010000Y-119400000D02*
X153810000Y-119400000D01*
X154010000Y-119700000D02*
X154010000Y-119400000D01*
X153810000Y-119700000D02*
X154010000Y-119700000D01*
X153810000Y-124060000D02*
X153810000Y-117940000D01*
X149090000Y-124060000D02*
X153810000Y-124060000D01*
X149090000Y-117940000D02*
X149090000Y-124060000D01*
X153810000Y-117940000D02*
X149090000Y-117940000D01*
X148890000Y-81360000D02*
X150140000Y-81360000D01*
X148890000Y-80110000D02*
X148890000Y-81360000D01*
X153300000Y-78000000D02*
X152800000Y-78000000D01*
X152800000Y-77900000D02*
X153300000Y-77900000D01*
X152800000Y-78100000D02*
X152800000Y-77900000D01*
X153300000Y-78100000D02*
X152800000Y-78100000D01*
X151800000Y-74940000D02*
X151800000Y-75550000D01*
X150500000Y-74940000D02*
X150500000Y-75550000D01*
X151800000Y-81060000D02*
X151800000Y-80450000D01*
X150500000Y-81060000D02*
X150500000Y-80450000D01*
X149800000Y-77500000D02*
X149190000Y-77500000D01*
X149800000Y-75550000D02*
X149800000Y-77500000D01*
X153300000Y-75550000D02*
X149800000Y-75550000D01*
X153300000Y-80450000D02*
X153300000Y-75550000D01*
X149800000Y-80450000D02*
X153300000Y-80450000D01*
X149800000Y-78500000D02*
X149800000Y-80450000D01*
X149190000Y-78500000D02*
X149800000Y-78500000D01*
X149090000Y-79300000D02*
X149090000Y-79600000D01*
X148990000Y-79600000D02*
X149190000Y-79600000D01*
X148990000Y-79300000D02*
X148990000Y-79600000D01*
X149190000Y-79300000D02*
X148990000Y-79300000D01*
X149190000Y-74940000D02*
X149190000Y-81060000D01*
X153910000Y-74940000D02*
X149190000Y-74940000D01*
X153910000Y-81060000D02*
X153910000Y-74940000D01*
X149190000Y-81060000D02*
X153910000Y-81060000D01*
X154110000Y-109640000D02*
X152860000Y-109640000D01*
X154110000Y-110890000D02*
X154110000Y-109640000D01*
X149700000Y-113000000D02*
X150200000Y-113000000D01*
X150200000Y-113100000D02*
X149700000Y-113100000D01*
X150200000Y-112900000D02*
X150200000Y-113100000D01*
X149700000Y-112900000D02*
X150200000Y-112900000D01*
X151200000Y-116060000D02*
X151200000Y-115450000D01*
X152500000Y-116060000D02*
X152500000Y-115450000D01*
X151200000Y-109940000D02*
X151200000Y-110550000D01*
X152500000Y-109940000D02*
X152500000Y-110550000D01*
X153200000Y-113500000D02*
X153810000Y-113500000D01*
X153200000Y-115450000D02*
X153200000Y-113500000D01*
X149700000Y-115450000D02*
X153200000Y-115450000D01*
X149700000Y-110550000D02*
X149700000Y-115450000D01*
X153200000Y-110550000D02*
X149700000Y-110550000D01*
X153200000Y-112500000D02*
X153200000Y-110550000D01*
X153810000Y-112500000D02*
X153200000Y-112500000D01*
X153910000Y-111700000D02*
X153910000Y-111400000D01*
X154010000Y-111400000D02*
X153810000Y-111400000D01*
X154010000Y-111700000D02*
X154010000Y-111400000D01*
X153810000Y-111700000D02*
X154010000Y-111700000D01*
X153810000Y-116060000D02*
X153810000Y-109940000D01*
X149090000Y-116060000D02*
X153810000Y-116060000D01*
X149090000Y-109940000D02*
X149090000Y-116060000D01*
X153810000Y-109940000D02*
X149090000Y-109940000D01*
X154110000Y-95640000D02*
X152860000Y-95640000D01*
X154110000Y-96890000D02*
X154110000Y-95640000D01*
X149700000Y-99000000D02*
X150200000Y-99000000D01*
X150200000Y-99100000D02*
X149700000Y-99100000D01*
X150200000Y-98900000D02*
X150200000Y-99100000D01*
X149700000Y-98900000D02*
X150200000Y-98900000D01*
X151200000Y-102060000D02*
X151200000Y-101450000D01*
X152500000Y-102060000D02*
X152500000Y-101450000D01*
X151200000Y-95940000D02*
X151200000Y-96550000D01*
X152500000Y-95940000D02*
X152500000Y-96550000D01*
X153200000Y-99500000D02*
X153810000Y-99500000D01*
X153200000Y-101450000D02*
X153200000Y-99500000D01*
X149700000Y-101450000D02*
X153200000Y-101450000D01*
X149700000Y-96550000D02*
X149700000Y-101450000D01*
X153200000Y-96550000D02*
X149700000Y-96550000D01*
X153200000Y-98500000D02*
X153200000Y-96550000D01*
X153810000Y-98500000D02*
X153200000Y-98500000D01*
X153910000Y-97700000D02*
X153910000Y-97400000D01*
X154010000Y-97400000D02*
X153810000Y-97400000D01*
X154010000Y-97700000D02*
X154010000Y-97400000D01*
X153810000Y-97700000D02*
X154010000Y-97700000D01*
X153810000Y-102060000D02*
X153810000Y-95940000D01*
X149090000Y-102060000D02*
X153810000Y-102060000D01*
X149090000Y-95940000D02*
X149090000Y-102060000D01*
X153810000Y-95940000D02*
X149090000Y-95940000D01*
X145000000Y-73150000D02*
X147550000Y-73150000D01*
X145000000Y-74850000D02*
X147550000Y-74850000D01*
X145000000Y-73150000D02*
X145000000Y-74850000D01*
X146250000Y-126300000D02*
X146250000Y-123750000D01*
X147950000Y-126300000D02*
X147950000Y-123750000D01*
X146250000Y-126300000D02*
X147950000Y-126300000D01*
X144100000Y-70250000D02*
X146650000Y-70250000D01*
X144100000Y-71950000D02*
X146650000Y-71950000D01*
X144100000Y-70250000D02*
X144100000Y-71950000D01*
X147500000Y-129350000D02*
X144950000Y-129350000D01*
X147500000Y-127650000D02*
X144950000Y-127650000D01*
X147500000Y-129350000D02*
X147500000Y-127650000D01*
X92590000Y-96738748D02*
X92590000Y-97261252D01*
X94810000Y-96738748D02*
X94810000Y-97261252D01*
D14*
X111700000Y-94200000D02*
X86300000Y-94200000D01*
X86300000Y-94200000D02*
X86300000Y-68800000D01*
X86300000Y-68800000D02*
X111700000Y-68800000D01*
X111700000Y-68800000D02*
X111700000Y-94200000D01*
D15*
X85600000Y-78900000D02*
G75*
G03X85600000Y-78900000I-100000J0D01*
G01*
D10*
X107950000Y-109400000D02*
X107950000Y-104500000D01*
X86450000Y-109400000D02*
X86450000Y-104500000D01*
X107950000Y-109400000D02*
X86450000Y-109400000D01*
X107950000Y-104500000D02*
X86450000Y-104500000D01*
D11*
X97738748Y-62710000D02*
X98261252Y-62710000D01*
X97738748Y-61290000D02*
X98261252Y-61290000D01*
X102460000Y-111804437D02*
X101395563Y-110740000D01*
X102460000Y-120195563D02*
X101395563Y-121260000D01*
X102460000Y-120195563D02*
X102460000Y-117310000D01*
X102460000Y-111804437D02*
X102460000Y-114690000D01*
X101395563Y-110740000D02*
X91940000Y-110740000D01*
X101395563Y-121260000D02*
X91940000Y-121260000D01*
X91940000Y-121260000D02*
X91940000Y-117310000D01*
X91940000Y-110740000D02*
X91940000Y-114690000D01*
X112640000Y-69397936D02*
X112640000Y-70602064D01*
X115360000Y-69397936D02*
X115360000Y-70602064D01*
X115860000Y-91102064D02*
X115860000Y-89897936D01*
X113140000Y-91102064D02*
X113140000Y-89897936D01*
X92402064Y-100140000D02*
X91197936Y-100140000D01*
X92402064Y-102860000D02*
X91197936Y-102860000D01*
D16*
X129838000Y-95742000D02*
G75*
G03X129838000Y-95742000I-180000J0D01*
G01*
D15*
X145050000Y-97400000D02*
X145050000Y-98600000D01*
X132950000Y-97400000D02*
X132950000Y-98600000D01*
X132950000Y-102550000D02*
X135716000Y-102550000D01*
X132950000Y-93450000D02*
X140193000Y-93450000D01*
D16*
X130838000Y-79742000D02*
G75*
G03X130838000Y-79742000I-180000J0D01*
G01*
D15*
X146050000Y-81400000D02*
X146050000Y-82600000D01*
X133950000Y-81400000D02*
X133950000Y-82600000D01*
X133950000Y-86550000D02*
X136716000Y-86550000D01*
X133950000Y-77450000D02*
X141193000Y-77450000D01*
D11*
X118200000Y-104500000D02*
X119600000Y-104500000D01*
X120300000Y-105200000D02*
X120300000Y-105800000D01*
X119600000Y-106500000D02*
X118200000Y-106500000D01*
X117500000Y-105800000D02*
X117500000Y-105200000D01*
X117500000Y-105200000D02*
G75*
G02X118200000Y-104500000I700000J0D01*
G01*
X118200000Y-106500000D02*
G75*
G02X117500000Y-105800000I0J700000D01*
G01*
X120300000Y-105800000D02*
G75*
G02X119600000Y-106500000I-700000J0D01*
G01*
X119600000Y-104500000D02*
G75*
G02X120300000Y-105200000I0J-700000D01*
G01*
X118300000Y-91900000D02*
X119700000Y-91900000D01*
X120400000Y-92600000D02*
X120400000Y-93200000D01*
X119700000Y-93900000D02*
X118300000Y-93900000D01*
X117600000Y-93200000D02*
X117600000Y-92600000D01*
X117600000Y-92600000D02*
G75*
G02X118300000Y-91900000I700000J0D01*
G01*
X118300000Y-93900000D02*
G75*
G02X117600000Y-93200000I0J700000D01*
G01*
X120400000Y-93200000D02*
G75*
G02X119700000Y-93900000I-700000J0D01*
G01*
X119700000Y-91900000D02*
G75*
G02X120400000Y-92600000I0J-700000D01*
G01*
X118200000Y-85100000D02*
X119600000Y-85100000D01*
X120300000Y-85800000D02*
X120300000Y-86400000D01*
X119600000Y-87100000D02*
X118200000Y-87100000D01*
X117500000Y-86400000D02*
X117500000Y-85800000D01*
X117500000Y-85800000D02*
G75*
G02X118200000Y-85100000I700000J0D01*
G01*
X118200000Y-87100000D02*
G75*
G02X117500000Y-86400000I0J700000D01*
G01*
X120300000Y-86400000D02*
G75*
G02X119600000Y-87100000I-700000J0D01*
G01*
X119600000Y-85100000D02*
G75*
G02X120300000Y-85800000I0J-700000D01*
G01*
X118300000Y-72600000D02*
X119700000Y-72600000D01*
X120400000Y-73300000D02*
X120400000Y-73900000D01*
X119700000Y-74600000D02*
X118300000Y-74600000D01*
X117600000Y-73900000D02*
X117600000Y-73300000D01*
X117600000Y-73300000D02*
G75*
G02X118300000Y-72600000I700000J0D01*
G01*
X118300000Y-74600000D02*
G75*
G02X117600000Y-73900000I0J700000D01*
G01*
X120400000Y-73900000D02*
G75*
G02X119700000Y-74600000I-700000J0D01*
G01*
X119700000Y-72600000D02*
G75*
G02X120400000Y-73300000I0J-700000D01*
G01*
D10*
X143847619Y-59095238D02*
X143800000Y-59190476D01*
X143704761Y-59285714D01*
X143561904Y-59428571D01*
X143514285Y-59523809D01*
X143514285Y-59619047D01*
X143752380Y-59571428D02*
X143704761Y-59666666D01*
X143609523Y-59761904D01*
X143419047Y-59809523D01*
X143085714Y-59809523D01*
X142895238Y-59761904D01*
X142800000Y-59666666D01*
X142752380Y-59571428D01*
X142752380Y-59380952D01*
X142800000Y-59285714D01*
X142895238Y-59190476D01*
X143085714Y-59142857D01*
X143419047Y-59142857D01*
X143609523Y-59190476D01*
X143704761Y-59285714D01*
X143752380Y-59380952D01*
X143752380Y-59571428D01*
X143085714Y-58285714D02*
X143752380Y-58285714D01*
X142704761Y-58523809D02*
X143419047Y-58761904D01*
X143419047Y-58142857D01*
X154752380Y-58366666D02*
X154276190Y-58700000D01*
X154752380Y-58938095D02*
X153752380Y-58938095D01*
X153752380Y-58557142D01*
X153800000Y-58461904D01*
X153847619Y-58414285D01*
X153942857Y-58366666D01*
X154085714Y-58366666D01*
X154180952Y-58414285D01*
X154228571Y-58461904D01*
X154276190Y-58557142D01*
X154276190Y-58938095D01*
X153752380Y-58033333D02*
X153752380Y-57414285D01*
X154133333Y-57747619D01*
X154133333Y-57604761D01*
X154180952Y-57509523D01*
X154228571Y-57461904D01*
X154323809Y-57414285D01*
X154561904Y-57414285D01*
X154657142Y-57461904D01*
X154704761Y-57509523D01*
X154752380Y-57604761D01*
X154752380Y-57890476D01*
X154704761Y-57985714D01*
X154657142Y-58033333D01*
X141433333Y-55452380D02*
X141100000Y-54976190D01*
X140861904Y-55452380D02*
X140861904Y-54452380D01*
X141242857Y-54452380D01*
X141338095Y-54500000D01*
X141385714Y-54547619D01*
X141433333Y-54642857D01*
X141433333Y-54785714D01*
X141385714Y-54880952D01*
X141338095Y-54928571D01*
X141242857Y-54976190D01*
X140861904Y-54976190D01*
X142385714Y-55452380D02*
X141814285Y-55452380D01*
X142100000Y-55452380D02*
X142100000Y-54452380D01*
X142004761Y-54595238D01*
X141909523Y-54690476D01*
X141814285Y-54738095D01*
X140947619Y-109195238D02*
X140900000Y-109290476D01*
X140804761Y-109385714D01*
X140661904Y-109528571D01*
X140614285Y-109623809D01*
X140614285Y-109719047D01*
X140852380Y-109671428D02*
X140804761Y-109766666D01*
X140709523Y-109861904D01*
X140519047Y-109909523D01*
X140185714Y-109909523D01*
X139995238Y-109861904D01*
X139900000Y-109766666D01*
X139852380Y-109671428D01*
X139852380Y-109480952D01*
X139900000Y-109385714D01*
X139995238Y-109290476D01*
X140185714Y-109242857D01*
X140519047Y-109242857D01*
X140709523Y-109290476D01*
X140804761Y-109385714D01*
X140852380Y-109480952D01*
X140852380Y-109671428D01*
X139852380Y-108338095D02*
X139852380Y-108814285D01*
X140328571Y-108861904D01*
X140280952Y-108814285D01*
X140233333Y-108719047D01*
X140233333Y-108480952D01*
X140280952Y-108385714D01*
X140328571Y-108338095D01*
X140423809Y-108290476D01*
X140661904Y-108290476D01*
X140757142Y-108338095D01*
X140804761Y-108385714D01*
X140852380Y-108480952D01*
X140852380Y-108719047D01*
X140804761Y-108814285D01*
X140757142Y-108861904D01*
X147452380Y-68238095D02*
X146452380Y-68238095D01*
X146452380Y-68000000D01*
X146500000Y-67857142D01*
X146595238Y-67761904D01*
X146690476Y-67714285D01*
X146880952Y-67666666D01*
X147023809Y-67666666D01*
X147214285Y-67714285D01*
X147309523Y-67761904D01*
X147404761Y-67857142D01*
X147452380Y-68000000D01*
X147452380Y-68238095D01*
X146452380Y-67333333D02*
X146452380Y-66666666D01*
X147452380Y-67095238D01*
X138261904Y-105602380D02*
X138261904Y-104602380D01*
X138500000Y-104602380D01*
X138642857Y-104650000D01*
X138738095Y-104745238D01*
X138785714Y-104840476D01*
X138833333Y-105030952D01*
X138833333Y-105173809D01*
X138785714Y-105364285D01*
X138738095Y-105459523D01*
X138642857Y-105554761D01*
X138500000Y-105602380D01*
X138261904Y-105602380D01*
X139690476Y-104602380D02*
X139500000Y-104602380D01*
X139404761Y-104650000D01*
X139357142Y-104697619D01*
X139261904Y-104840476D01*
X139214285Y-105030952D01*
X139214285Y-105411904D01*
X139261904Y-105507142D01*
X139309523Y-105554761D01*
X139404761Y-105602380D01*
X139595238Y-105602380D01*
X139690476Y-105554761D01*
X139738095Y-105507142D01*
X139785714Y-105411904D01*
X139785714Y-105173809D01*
X139738095Y-105078571D01*
X139690476Y-105030952D01*
X139595238Y-104983333D01*
X139404761Y-104983333D01*
X139309523Y-105030952D01*
X139261904Y-105078571D01*
X139214285Y-105173809D01*
X110038095Y-111752380D02*
X110038095Y-112561904D01*
X110085714Y-112657142D01*
X110133333Y-112704761D01*
X110228571Y-112752380D01*
X110419047Y-112752380D01*
X110514285Y-112704761D01*
X110561904Y-112657142D01*
X110609523Y-112561904D01*
X110609523Y-111752380D01*
X111514285Y-112085714D02*
X111514285Y-112752380D01*
X111276190Y-111704761D02*
X111038095Y-112419047D01*
X111657142Y-112419047D01*
X105833333Y-130902380D02*
X105357142Y-130902380D01*
X105357142Y-129902380D01*
X106119047Y-129997619D02*
X106166666Y-129950000D01*
X106261904Y-129902380D01*
X106500000Y-129902380D01*
X106595238Y-129950000D01*
X106642857Y-129997619D01*
X106690476Y-130092857D01*
X106690476Y-130188095D01*
X106642857Y-130330952D01*
X106071428Y-130902380D01*
X106690476Y-130902380D01*
X119552380Y-131333333D02*
X120266666Y-131333333D01*
X120409523Y-131380952D01*
X120504761Y-131476190D01*
X120552380Y-131619047D01*
X120552380Y-131714285D01*
X119552380Y-130952380D02*
X119552380Y-130285714D01*
X120552380Y-130714285D01*
X113157142Y-109357142D02*
X113109523Y-109404761D01*
X112966666Y-109452380D01*
X112871428Y-109452380D01*
X112728571Y-109404761D01*
X112633333Y-109309523D01*
X112585714Y-109214285D01*
X112538095Y-109023809D01*
X112538095Y-108880952D01*
X112585714Y-108690476D01*
X112633333Y-108595238D01*
X112728571Y-108500000D01*
X112871428Y-108452380D01*
X112966666Y-108452380D01*
X113109523Y-108500000D01*
X113157142Y-108547619D01*
X114109523Y-109452380D02*
X113538095Y-109452380D01*
X113823809Y-109452380D02*
X113823809Y-108452380D01*
X113728571Y-108595238D01*
X113633333Y-108690476D01*
X113538095Y-108738095D01*
X114728571Y-108452380D02*
X114823809Y-108452380D01*
X114919047Y-108500000D01*
X114966666Y-108547619D01*
X115014285Y-108642857D01*
X115061904Y-108833333D01*
X115061904Y-109071428D01*
X115014285Y-109261904D01*
X114966666Y-109357142D01*
X114919047Y-109404761D01*
X114823809Y-109452380D01*
X114728571Y-109452380D01*
X114633333Y-109404761D01*
X114585714Y-109357142D01*
X114538095Y-109261904D01*
X114490476Y-109071428D01*
X114490476Y-108833333D01*
X114538095Y-108642857D01*
X114585714Y-108547619D01*
X114633333Y-108500000D01*
X114728571Y-108452380D01*
X112233333Y-126787142D02*
X112185714Y-126834761D01*
X112042857Y-126882380D01*
X111947619Y-126882380D01*
X111804761Y-126834761D01*
X111709523Y-126739523D01*
X111661904Y-126644285D01*
X111614285Y-126453809D01*
X111614285Y-126310952D01*
X111661904Y-126120476D01*
X111709523Y-126025238D01*
X111804761Y-125930000D01*
X111947619Y-125882380D01*
X112042857Y-125882380D01*
X112185714Y-125930000D01*
X112233333Y-125977619D01*
X112709523Y-126882380D02*
X112900000Y-126882380D01*
X112995238Y-126834761D01*
X113042857Y-126787142D01*
X113138095Y-126644285D01*
X113185714Y-126453809D01*
X113185714Y-126072857D01*
X113138095Y-125977619D01*
X113090476Y-125930000D01*
X112995238Y-125882380D01*
X112804761Y-125882380D01*
X112709523Y-125930000D01*
X112661904Y-125977619D01*
X112614285Y-126072857D01*
X112614285Y-126310952D01*
X112661904Y-126406190D01*
X112709523Y-126453809D01*
X112804761Y-126501428D01*
X112995238Y-126501428D01*
X113090476Y-126453809D01*
X113138095Y-126406190D01*
X113185714Y-126310952D01*
X97833333Y-128637142D02*
X97785714Y-128684761D01*
X97642857Y-128732380D01*
X97547619Y-128732380D01*
X97404761Y-128684761D01*
X97309523Y-128589523D01*
X97261904Y-128494285D01*
X97214285Y-128303809D01*
X97214285Y-128160952D01*
X97261904Y-127970476D01*
X97309523Y-127875238D01*
X97404761Y-127780000D01*
X97547619Y-127732380D01*
X97642857Y-127732380D01*
X97785714Y-127780000D01*
X97833333Y-127827619D01*
X98404761Y-128160952D02*
X98309523Y-128113333D01*
X98261904Y-128065714D01*
X98214285Y-127970476D01*
X98214285Y-127922857D01*
X98261904Y-127827619D01*
X98309523Y-127780000D01*
X98404761Y-127732380D01*
X98595238Y-127732380D01*
X98690476Y-127780000D01*
X98738095Y-127827619D01*
X98785714Y-127922857D01*
X98785714Y-127970476D01*
X98738095Y-128065714D01*
X98690476Y-128113333D01*
X98595238Y-128160952D01*
X98404761Y-128160952D01*
X98309523Y-128208571D01*
X98261904Y-128256190D01*
X98214285Y-128351428D01*
X98214285Y-128541904D01*
X98261904Y-128637142D01*
X98309523Y-128684761D01*
X98404761Y-128732380D01*
X98595238Y-128732380D01*
X98690476Y-128684761D01*
X98738095Y-128637142D01*
X98785714Y-128541904D01*
X98785714Y-128351428D01*
X98738095Y-128256190D01*
X98690476Y-128208571D01*
X98595238Y-128160952D01*
D16*
X118262619Y-98909285D02*
X117839285Y-98909285D01*
X117839285Y-99574523D02*
X117839285Y-98304523D01*
X118444047Y-98304523D01*
X119532619Y-99574523D02*
X118927857Y-99574523D01*
X118927857Y-98304523D01*
X120621190Y-99574523D02*
X119895476Y-99574523D01*
X120258333Y-99574523D02*
X120258333Y-98304523D01*
X120137380Y-98485952D01*
X120016428Y-98606904D01*
X119895476Y-98667380D01*
D10*
X121933333Y-91952380D02*
X121600000Y-91476190D01*
X121361904Y-91952380D02*
X121361904Y-90952380D01*
X121742857Y-90952380D01*
X121838095Y-91000000D01*
X121885714Y-91047619D01*
X121933333Y-91142857D01*
X121933333Y-91285714D01*
X121885714Y-91380952D01*
X121838095Y-91428571D01*
X121742857Y-91476190D01*
X121361904Y-91476190D01*
X122266666Y-90952380D02*
X122933333Y-90952380D01*
X122504761Y-91952380D01*
X126133333Y-95352380D02*
X125800000Y-94876190D01*
X125561904Y-95352380D02*
X125561904Y-94352380D01*
X125942857Y-94352380D01*
X126038095Y-94400000D01*
X126085714Y-94447619D01*
X126133333Y-94542857D01*
X126133333Y-94685714D01*
X126085714Y-94780952D01*
X126038095Y-94828571D01*
X125942857Y-94876190D01*
X125561904Y-94876190D01*
X126990476Y-94352380D02*
X126800000Y-94352380D01*
X126704761Y-94400000D01*
X126657142Y-94447619D01*
X126561904Y-94590476D01*
X126514285Y-94780952D01*
X126514285Y-95161904D01*
X126561904Y-95257142D01*
X126609523Y-95304761D01*
X126704761Y-95352380D01*
X126895238Y-95352380D01*
X126990476Y-95304761D01*
X127038095Y-95257142D01*
X127085714Y-95161904D01*
X127085714Y-94923809D01*
X127038095Y-94828571D01*
X126990476Y-94780952D01*
X126895238Y-94733333D01*
X126704761Y-94733333D01*
X126609523Y-94780952D01*
X126561904Y-94828571D01*
X126514285Y-94923809D01*
X133347619Y-88095238D02*
X133300000Y-88190476D01*
X133204761Y-88285714D01*
X133061904Y-88428571D01*
X133014285Y-88523809D01*
X133014285Y-88619047D01*
X133252380Y-88571428D02*
X133204761Y-88666666D01*
X133109523Y-88761904D01*
X132919047Y-88809523D01*
X132585714Y-88809523D01*
X132395238Y-88761904D01*
X132300000Y-88666666D01*
X132252380Y-88571428D01*
X132252380Y-88380952D01*
X132300000Y-88285714D01*
X132395238Y-88190476D01*
X132585714Y-88142857D01*
X132919047Y-88142857D01*
X133109523Y-88190476D01*
X133204761Y-88285714D01*
X133252380Y-88380952D01*
X133252380Y-88571428D01*
X132252380Y-87809523D02*
X132252380Y-87190476D01*
X132633333Y-87523809D01*
X132633333Y-87380952D01*
X132680952Y-87285714D01*
X132728571Y-87238095D01*
X132823809Y-87190476D01*
X133061904Y-87190476D01*
X133157142Y-87238095D01*
X133204761Y-87285714D01*
X133252380Y-87380952D01*
X133252380Y-87666666D01*
X133204761Y-87761904D01*
X133157142Y-87809523D01*
D16*
X118262619Y-79909285D02*
X117839285Y-79909285D01*
X117839285Y-80574523D02*
X117839285Y-79304523D01*
X118444047Y-79304523D01*
X119532619Y-80574523D02*
X118927857Y-80574523D01*
X118927857Y-79304523D01*
X119895476Y-79425476D02*
X119955952Y-79365000D01*
X120076904Y-79304523D01*
X120379285Y-79304523D01*
X120500238Y-79365000D01*
X120560714Y-79425476D01*
X120621190Y-79546428D01*
X120621190Y-79667380D01*
X120560714Y-79848809D01*
X119835000Y-80574523D01*
X120621190Y-80574523D01*
D10*
X129261904Y-93752380D02*
X129261904Y-92752380D01*
X129500000Y-92752380D01*
X129642857Y-92800000D01*
X129738095Y-92895238D01*
X129785714Y-92990476D01*
X129833333Y-93180952D01*
X129833333Y-93323809D01*
X129785714Y-93514285D01*
X129738095Y-93609523D01*
X129642857Y-93704761D01*
X129500000Y-93752380D01*
X129261904Y-93752380D01*
X130738095Y-92752380D02*
X130261904Y-92752380D01*
X130214285Y-93228571D01*
X130261904Y-93180952D01*
X130357142Y-93133333D01*
X130595238Y-93133333D01*
X130690476Y-93180952D01*
X130738095Y-93228571D01*
X130785714Y-93323809D01*
X130785714Y-93561904D01*
X130738095Y-93657142D01*
X130690476Y-93704761D01*
X130595238Y-93752380D01*
X130357142Y-93752380D01*
X130261904Y-93704761D01*
X130214285Y-93657142D01*
X132333333Y-59107142D02*
X132285714Y-59154761D01*
X132142857Y-59202380D01*
X132047619Y-59202380D01*
X131904761Y-59154761D01*
X131809523Y-59059523D01*
X131761904Y-58964285D01*
X131714285Y-58773809D01*
X131714285Y-58630952D01*
X131761904Y-58440476D01*
X131809523Y-58345238D01*
X131904761Y-58250000D01*
X132047619Y-58202380D01*
X132142857Y-58202380D01*
X132285714Y-58250000D01*
X132333333Y-58297619D01*
X133190476Y-58202380D02*
X133000000Y-58202380D01*
X132904761Y-58250000D01*
X132857142Y-58297619D01*
X132761904Y-58440476D01*
X132714285Y-58630952D01*
X132714285Y-59011904D01*
X132761904Y-59107142D01*
X132809523Y-59154761D01*
X132904761Y-59202380D01*
X133095238Y-59202380D01*
X133190476Y-59154761D01*
X133238095Y-59107142D01*
X133285714Y-59011904D01*
X133285714Y-58773809D01*
X133238095Y-58678571D01*
X133190476Y-58630952D01*
X133095238Y-58583333D01*
X132904761Y-58583333D01*
X132809523Y-58630952D01*
X132761904Y-58678571D01*
X132714285Y-58773809D01*
X120419047Y-65071428D02*
X121180952Y-65071428D01*
X120800000Y-65452380D02*
X120800000Y-64690476D01*
X143819047Y-65071428D02*
X144580952Y-65071428D01*
X130333333Y-123607142D02*
X130285714Y-123654761D01*
X130142857Y-123702380D01*
X130047619Y-123702380D01*
X129904761Y-123654761D01*
X129809523Y-123559523D01*
X129761904Y-123464285D01*
X129714285Y-123273809D01*
X129714285Y-123130952D01*
X129761904Y-122940476D01*
X129809523Y-122845238D01*
X129904761Y-122750000D01*
X130047619Y-122702380D01*
X130142857Y-122702380D01*
X130285714Y-122750000D01*
X130333333Y-122797619D01*
X131238095Y-122702380D02*
X130761904Y-122702380D01*
X130714285Y-123178571D01*
X130761904Y-123130952D01*
X130857142Y-123083333D01*
X131095238Y-123083333D01*
X131190476Y-123130952D01*
X131238095Y-123178571D01*
X131285714Y-123273809D01*
X131285714Y-123511904D01*
X131238095Y-123607142D01*
X131190476Y-123654761D01*
X131095238Y-123702380D01*
X130857142Y-123702380D01*
X130761904Y-123654761D01*
X130714285Y-123607142D01*
X141819047Y-117071428D02*
X142580952Y-117071428D01*
X142200000Y-117452380D02*
X142200000Y-116690476D01*
X118419047Y-117071428D02*
X119180952Y-117071428D01*
X147552380Y-131061904D02*
X148361904Y-131061904D01*
X148457142Y-131014285D01*
X148504761Y-130966666D01*
X148552380Y-130871428D01*
X148552380Y-130680952D01*
X148504761Y-130585714D01*
X148457142Y-130538095D01*
X148361904Y-130490476D01*
X147552380Y-130490476D01*
X147552380Y-130109523D02*
X147552380Y-129490476D01*
X147933333Y-129823809D01*
X147933333Y-129680952D01*
X147980952Y-129585714D01*
X148028571Y-129538095D01*
X148123809Y-129490476D01*
X148361904Y-129490476D01*
X148457142Y-129538095D01*
X148504761Y-129585714D01*
X148552380Y-129680952D01*
X148552380Y-129966666D01*
X148504761Y-130061904D01*
X148457142Y-130109523D01*
X143533333Y-132652380D02*
X143200000Y-132176190D01*
X142961904Y-132652380D02*
X142961904Y-131652380D01*
X143342857Y-131652380D01*
X143438095Y-131700000D01*
X143485714Y-131747619D01*
X143533333Y-131842857D01*
X143533333Y-131985714D01*
X143485714Y-132080952D01*
X143438095Y-132128571D01*
X143342857Y-132176190D01*
X142961904Y-132176190D01*
X144438095Y-131652380D02*
X143961904Y-131652380D01*
X143914285Y-132128571D01*
X143961904Y-132080952D01*
X144057142Y-132033333D01*
X144295238Y-132033333D01*
X144390476Y-132080952D01*
X144438095Y-132128571D01*
X144485714Y-132223809D01*
X144485714Y-132461904D01*
X144438095Y-132557142D01*
X144390476Y-132604761D01*
X144295238Y-132652380D01*
X144057142Y-132652380D01*
X143961904Y-132604761D01*
X143914285Y-132557142D01*
X154952380Y-68761904D02*
X155761904Y-68761904D01*
X155857142Y-68714285D01*
X155904761Y-68666666D01*
X155952380Y-68571428D01*
X155952380Y-68380952D01*
X155904761Y-68285714D01*
X155857142Y-68238095D01*
X155761904Y-68190476D01*
X154952380Y-68190476D01*
X155047619Y-67761904D02*
X155000000Y-67714285D01*
X154952380Y-67619047D01*
X154952380Y-67380952D01*
X155000000Y-67285714D01*
X155047619Y-67238095D01*
X155142857Y-67190476D01*
X155238095Y-67190476D01*
X155380952Y-67238095D01*
X155952380Y-67809523D01*
X155952380Y-67190476D01*
X155082380Y-61891666D02*
X154606190Y-62225000D01*
X155082380Y-62463095D02*
X154082380Y-62463095D01*
X154082380Y-62082142D01*
X154130000Y-61986904D01*
X154177619Y-61939285D01*
X154272857Y-61891666D01*
X154415714Y-61891666D01*
X154510952Y-61939285D01*
X154558571Y-61986904D01*
X154606190Y-62082142D01*
X154606190Y-62463095D01*
X154415714Y-61034523D02*
X155082380Y-61034523D01*
X154034761Y-61272619D02*
X154749047Y-61510714D01*
X154749047Y-60891666D01*
D17*
X96329483Y-58604193D02*
X96329483Y-59319649D01*
X96281786Y-59462740D01*
X96186392Y-59558134D01*
X96043301Y-59605831D01*
X95947907Y-59605831D01*
X97331121Y-59605831D02*
X96758757Y-59605831D01*
X97044939Y-59605831D02*
X97044939Y-58604193D01*
X96949545Y-58747285D01*
X96854151Y-58842679D01*
X96758757Y-58890376D01*
D10*
X147452380Y-89333333D02*
X148166666Y-89333333D01*
X148309523Y-89380952D01*
X148404761Y-89476190D01*
X148452380Y-89619047D01*
X148452380Y-89714285D01*
X147452380Y-88428571D02*
X147452380Y-88619047D01*
X147500000Y-88714285D01*
X147547619Y-88761904D01*
X147690476Y-88857142D01*
X147880952Y-88904761D01*
X148261904Y-88904761D01*
X148357142Y-88857142D01*
X148404761Y-88809523D01*
X148452380Y-88714285D01*
X148452380Y-88523809D01*
X148404761Y-88428571D01*
X148357142Y-88380952D01*
X148261904Y-88333333D01*
X148023809Y-88333333D01*
X147928571Y-88380952D01*
X147880952Y-88428571D01*
X147833333Y-88523809D01*
X147833333Y-88714285D01*
X147880952Y-88809523D01*
X147928571Y-88857142D01*
X148023809Y-88904761D01*
X124833333Y-86877142D02*
X124785714Y-86924761D01*
X124642857Y-86972380D01*
X124547619Y-86972380D01*
X124404761Y-86924761D01*
X124309523Y-86829523D01*
X124261904Y-86734285D01*
X124214285Y-86543809D01*
X124214285Y-86400952D01*
X124261904Y-86210476D01*
X124309523Y-86115238D01*
X124404761Y-86020000D01*
X124547619Y-85972380D01*
X124642857Y-85972380D01*
X124785714Y-86020000D01*
X124833333Y-86067619D01*
X125166666Y-85972380D02*
X125833333Y-85972380D01*
X125404761Y-86972380D01*
X127952380Y-87666666D02*
X127476190Y-88000000D01*
X127952380Y-88238095D02*
X126952380Y-88238095D01*
X126952380Y-87857142D01*
X127000000Y-87761904D01*
X127047619Y-87714285D01*
X127142857Y-87666666D01*
X127285714Y-87666666D01*
X127380952Y-87714285D01*
X127428571Y-87761904D01*
X127476190Y-87857142D01*
X127476190Y-88238095D01*
X127047619Y-87285714D02*
X127000000Y-87238095D01*
X126952380Y-87142857D01*
X126952380Y-86904761D01*
X127000000Y-86809523D01*
X127047619Y-86761904D01*
X127142857Y-86714285D01*
X127238095Y-86714285D01*
X127380952Y-86761904D01*
X127952380Y-87333333D01*
X127952380Y-86714285D01*
X152904761Y-87047619D02*
X152809523Y-87000000D01*
X152714285Y-86904761D01*
X152571428Y-86761904D01*
X152476190Y-86714285D01*
X152380952Y-86714285D01*
X152428571Y-86952380D02*
X152333333Y-86904761D01*
X152238095Y-86809523D01*
X152190476Y-86619047D01*
X152190476Y-86285714D01*
X152238095Y-86095238D01*
X152333333Y-86000000D01*
X152428571Y-85952380D01*
X152619047Y-85952380D01*
X152714285Y-86000000D01*
X152809523Y-86095238D01*
X152857142Y-86285714D01*
X152857142Y-86619047D01*
X152809523Y-86809523D01*
X152714285Y-86904761D01*
X152619047Y-86952380D01*
X152428571Y-86952380D01*
X153238095Y-86047619D02*
X153285714Y-86000000D01*
X153380952Y-85952380D01*
X153619047Y-85952380D01*
X153714285Y-86000000D01*
X153761904Y-86047619D01*
X153809523Y-86142857D01*
X153809523Y-86238095D01*
X153761904Y-86380952D01*
X153190476Y-86952380D01*
X153809523Y-86952380D01*
X151904761Y-104047619D02*
X151809523Y-104000000D01*
X151714285Y-103904761D01*
X151571428Y-103761904D01*
X151476190Y-103714285D01*
X151380952Y-103714285D01*
X151428571Y-103952380D02*
X151333333Y-103904761D01*
X151238095Y-103809523D01*
X151190476Y-103619047D01*
X151190476Y-103285714D01*
X151238095Y-103095238D01*
X151333333Y-103000000D01*
X151428571Y-102952380D01*
X151619047Y-102952380D01*
X151714285Y-103000000D01*
X151809523Y-103095238D01*
X151857142Y-103285714D01*
X151857142Y-103619047D01*
X151809523Y-103809523D01*
X151714285Y-103904761D01*
X151619047Y-103952380D01*
X151428571Y-103952380D01*
X152809523Y-103952380D02*
X152238095Y-103952380D01*
X152523809Y-103952380D02*
X152523809Y-102952380D01*
X152428571Y-103095238D01*
X152333333Y-103190476D01*
X152238095Y-103238095D01*
X154352380Y-121333333D02*
X155066666Y-121333333D01*
X155209523Y-121380952D01*
X155304761Y-121476190D01*
X155352380Y-121619047D01*
X155352380Y-121714285D01*
X154352380Y-120380952D02*
X154352380Y-120857142D01*
X154828571Y-120904761D01*
X154780952Y-120857142D01*
X154733333Y-120761904D01*
X154733333Y-120523809D01*
X154780952Y-120428571D01*
X154828571Y-120380952D01*
X154923809Y-120333333D01*
X155161904Y-120333333D01*
X155257142Y-120380952D01*
X155304761Y-120428571D01*
X155352380Y-120523809D01*
X155352380Y-120761904D01*
X155304761Y-120857142D01*
X155257142Y-120904761D01*
X147552380Y-78333333D02*
X148266666Y-78333333D01*
X148409523Y-78380952D01*
X148504761Y-78476190D01*
X148552380Y-78619047D01*
X148552380Y-78714285D01*
X147885714Y-77428571D02*
X148552380Y-77428571D01*
X147504761Y-77666666D02*
X148219047Y-77904761D01*
X148219047Y-77285714D01*
X154352380Y-113333333D02*
X155066666Y-113333333D01*
X155209523Y-113380952D01*
X155304761Y-113476190D01*
X155352380Y-113619047D01*
X155352380Y-113714285D01*
X154352380Y-112952380D02*
X154352380Y-112333333D01*
X154733333Y-112666666D01*
X154733333Y-112523809D01*
X154780952Y-112428571D01*
X154828571Y-112380952D01*
X154923809Y-112333333D01*
X155161904Y-112333333D01*
X155257142Y-112380952D01*
X155304761Y-112428571D01*
X155352380Y-112523809D01*
X155352380Y-112809523D01*
X155304761Y-112904761D01*
X155257142Y-112952380D01*
X154352380Y-99333333D02*
X155066666Y-99333333D01*
X155209523Y-99380952D01*
X155304761Y-99476190D01*
X155352380Y-99619047D01*
X155352380Y-99714285D01*
X154447619Y-98904761D02*
X154400000Y-98857142D01*
X154352380Y-98761904D01*
X154352380Y-98523809D01*
X154400000Y-98428571D01*
X154447619Y-98380952D01*
X154542857Y-98333333D01*
X154638095Y-98333333D01*
X154780952Y-98380952D01*
X155352380Y-98952380D01*
X155352380Y-98333333D01*
X142761904Y-73952380D02*
X142761904Y-72952380D01*
X143000000Y-72952380D01*
X143142857Y-73000000D01*
X143238095Y-73095238D01*
X143285714Y-73190476D01*
X143333333Y-73380952D01*
X143333333Y-73523809D01*
X143285714Y-73714285D01*
X143238095Y-73809523D01*
X143142857Y-73904761D01*
X143000000Y-73952380D01*
X142761904Y-73952380D01*
X144190476Y-73285714D02*
X144190476Y-73952380D01*
X143952380Y-72904761D02*
X143714285Y-73619047D01*
X144333333Y-73619047D01*
X145702380Y-125538095D02*
X144702380Y-125538095D01*
X144702380Y-125300000D01*
X144750000Y-125157142D01*
X144845238Y-125061904D01*
X144940476Y-125014285D01*
X145130952Y-124966666D01*
X145273809Y-124966666D01*
X145464285Y-125014285D01*
X145559523Y-125061904D01*
X145654761Y-125157142D01*
X145702380Y-125300000D01*
X145702380Y-125538095D01*
X144702380Y-124633333D02*
X144702380Y-124014285D01*
X145083333Y-124347619D01*
X145083333Y-124204761D01*
X145130952Y-124109523D01*
X145178571Y-124061904D01*
X145273809Y-124014285D01*
X145511904Y-124014285D01*
X145607142Y-124061904D01*
X145654761Y-124109523D01*
X145702380Y-124204761D01*
X145702380Y-124490476D01*
X145654761Y-124585714D01*
X145607142Y-124633333D01*
X147761904Y-71652380D02*
X147761904Y-70652380D01*
X148000000Y-70652380D01*
X148142857Y-70700000D01*
X148238095Y-70795238D01*
X148285714Y-70890476D01*
X148333333Y-71080952D01*
X148333333Y-71223809D01*
X148285714Y-71414285D01*
X148238095Y-71509523D01*
X148142857Y-71604761D01*
X148000000Y-71652380D01*
X147761904Y-71652380D01*
X148714285Y-70747619D02*
X148761904Y-70700000D01*
X148857142Y-70652380D01*
X149095238Y-70652380D01*
X149190476Y-70700000D01*
X149238095Y-70747619D01*
X149285714Y-70842857D01*
X149285714Y-70938095D01*
X149238095Y-71080952D01*
X148666666Y-71652380D01*
X149285714Y-71652380D01*
X142561904Y-128952380D02*
X142561904Y-127952380D01*
X142800000Y-127952380D01*
X142942857Y-128000000D01*
X143038095Y-128095238D01*
X143085714Y-128190476D01*
X143133333Y-128380952D01*
X143133333Y-128523809D01*
X143085714Y-128714285D01*
X143038095Y-128809523D01*
X142942857Y-128904761D01*
X142800000Y-128952380D01*
X142561904Y-128952380D01*
X144085714Y-128952380D02*
X143514285Y-128952380D01*
X143800000Y-128952380D02*
X143800000Y-127952380D01*
X143704761Y-128095238D01*
X143609523Y-128190476D01*
X143514285Y-128238095D01*
X96202380Y-97166666D02*
X96202380Y-97642857D01*
X95202380Y-97642857D01*
X96202380Y-96309523D02*
X96202380Y-96880952D01*
X96202380Y-96595238D02*
X95202380Y-96595238D01*
X95345238Y-96690476D01*
X95440476Y-96785714D01*
X95488095Y-96880952D01*
D17*
X84695892Y-92102956D02*
X85506640Y-92102956D01*
X85602022Y-92055265D01*
X85649713Y-92007574D01*
X85697404Y-91912192D01*
X85697404Y-91721428D01*
X85649713Y-91626046D01*
X85602022Y-91578355D01*
X85506640Y-91530664D01*
X84695892Y-91530664D01*
X85697404Y-90529152D02*
X85697404Y-91101444D01*
X85697404Y-90815298D02*
X84695892Y-90815298D01*
X84838966Y-90910680D01*
X84934348Y-91006062D01*
X84982039Y-91101444D01*
D10*
X96604761Y-103952380D02*
X96271428Y-103476190D01*
X96033333Y-103952380D02*
X96033333Y-102952380D01*
X96414285Y-102952380D01*
X96509523Y-103000000D01*
X96557142Y-103047619D01*
X96604761Y-103142857D01*
X96604761Y-103285714D01*
X96557142Y-103380952D01*
X96509523Y-103428571D01*
X96414285Y-103476190D01*
X96033333Y-103476190D01*
X96890476Y-102952380D02*
X97223809Y-103952380D01*
X97557142Y-102952380D01*
X98414285Y-103952380D02*
X97842857Y-103952380D01*
X98128571Y-103952380D02*
X98128571Y-102952380D01*
X98033333Y-103095238D01*
X97938095Y-103190476D01*
X97842857Y-103238095D01*
X97666666Y-60278571D02*
X97333333Y-60278571D01*
X97333333Y-60802380D02*
X97333333Y-59802380D01*
X97809523Y-59802380D01*
X98714285Y-60802380D02*
X98142857Y-60802380D01*
X98428571Y-60802380D02*
X98428571Y-59802380D01*
X98333333Y-59945238D01*
X98238095Y-60040476D01*
X98142857Y-60088095D01*
X97033333Y-122557142D02*
X96985714Y-122604761D01*
X96842857Y-122652380D01*
X96747619Y-122652380D01*
X96604761Y-122604761D01*
X96509523Y-122509523D01*
X96461904Y-122414285D01*
X96414285Y-122223809D01*
X96414285Y-122080952D01*
X96461904Y-121890476D01*
X96509523Y-121795238D01*
X96604761Y-121700000D01*
X96747619Y-121652380D01*
X96842857Y-121652380D01*
X96985714Y-121700000D01*
X97033333Y-121747619D01*
X97890476Y-121985714D02*
X97890476Y-122652380D01*
X97652380Y-121604761D02*
X97414285Y-122319047D01*
X98033333Y-122319047D01*
X116637142Y-70166666D02*
X116684761Y-70214285D01*
X116732380Y-70357142D01*
X116732380Y-70452380D01*
X116684761Y-70595238D01*
X116589523Y-70690476D01*
X116494285Y-70738095D01*
X116303809Y-70785714D01*
X116160952Y-70785714D01*
X115970476Y-70738095D01*
X115875238Y-70690476D01*
X115780000Y-70595238D01*
X115732380Y-70452380D01*
X115732380Y-70357142D01*
X115780000Y-70214285D01*
X115827619Y-70166666D01*
X115732380Y-69833333D02*
X115732380Y-69214285D01*
X116113333Y-69547619D01*
X116113333Y-69404761D01*
X116160952Y-69309523D01*
X116208571Y-69261904D01*
X116303809Y-69214285D01*
X116541904Y-69214285D01*
X116637142Y-69261904D01*
X116684761Y-69309523D01*
X116732380Y-69404761D01*
X116732380Y-69690476D01*
X116684761Y-69785714D01*
X116637142Y-69833333D01*
X112577142Y-90666666D02*
X112624761Y-90714285D01*
X112672380Y-90857142D01*
X112672380Y-90952380D01*
X112624761Y-91095238D01*
X112529523Y-91190476D01*
X112434285Y-91238095D01*
X112243809Y-91285714D01*
X112100952Y-91285714D01*
X111910476Y-91238095D01*
X111815238Y-91190476D01*
X111720000Y-91095238D01*
X111672380Y-90952380D01*
X111672380Y-90857142D01*
X111720000Y-90714285D01*
X111767619Y-90666666D01*
X111767619Y-90285714D02*
X111720000Y-90238095D01*
X111672380Y-90142857D01*
X111672380Y-89904761D01*
X111720000Y-89809523D01*
X111767619Y-89761904D01*
X111862857Y-89714285D01*
X111958095Y-89714285D01*
X112100952Y-89761904D01*
X112672380Y-90333333D01*
X112672380Y-89714285D01*
X91633333Y-104857142D02*
X91585714Y-104904761D01*
X91442857Y-104952380D01*
X91347619Y-104952380D01*
X91204761Y-104904761D01*
X91109523Y-104809523D01*
X91061904Y-104714285D01*
X91014285Y-104523809D01*
X91014285Y-104380952D01*
X91061904Y-104190476D01*
X91109523Y-104095238D01*
X91204761Y-104000000D01*
X91347619Y-103952380D01*
X91442857Y-103952380D01*
X91585714Y-104000000D01*
X91633333Y-104047619D01*
X92585714Y-104952380D02*
X92014285Y-104952380D01*
X92300000Y-104952380D02*
X92300000Y-103952380D01*
X92204761Y-104095238D01*
X92109523Y-104190476D01*
X92014285Y-104238095D01*
D16*
X137884499Y-97510215D02*
X137461165Y-97510215D01*
X137461165Y-98175453D02*
X137461165Y-96905453D01*
X138065927Y-96905453D01*
X139154499Y-98175453D02*
X138549737Y-98175453D01*
X138549737Y-96905453D01*
X140122118Y-97328787D02*
X140122118Y-98175453D01*
X139819737Y-96844977D02*
X139517356Y-97752120D01*
X140303546Y-97752120D01*
D10*
X134861904Y-76328571D02*
X134528571Y-76328571D01*
X134528571Y-76852380D02*
X134528571Y-75852380D01*
X135004761Y-75852380D01*
X135861904Y-76852380D02*
X135385714Y-76852380D01*
X135385714Y-75852380D01*
X136671428Y-75852380D02*
X136195238Y-75852380D01*
X136147619Y-76328571D01*
X136195238Y-76280952D01*
X136290476Y-76233333D01*
X136528571Y-76233333D01*
X136623809Y-76280952D01*
X136671428Y-76328571D01*
X136719047Y-76423809D01*
X136719047Y-76661904D01*
X136671428Y-76757142D01*
X136623809Y-76804761D01*
X136528571Y-76852380D01*
X136290476Y-76852380D01*
X136195238Y-76804761D01*
X136147619Y-76757142D01*
X115066666Y-104952380D02*
X115066666Y-105666666D01*
X115019047Y-105809523D01*
X114923809Y-105904761D01*
X114780952Y-105952380D01*
X114685714Y-105952380D01*
X115542857Y-105952380D02*
X115542857Y-104952380D01*
X115923809Y-104952380D01*
X116019047Y-105000000D01*
X116066666Y-105047619D01*
X116114285Y-105142857D01*
X116114285Y-105285714D01*
X116066666Y-105380952D01*
X116019047Y-105428571D01*
X115923809Y-105476190D01*
X115542857Y-105476190D01*
X116971428Y-105285714D02*
X116971428Y-105952380D01*
X116733333Y-104904761D02*
X116495238Y-105619047D01*
X117114285Y-105619047D01*
X121166666Y-92352380D02*
X121166666Y-93066666D01*
X121119047Y-93209523D01*
X121023809Y-93304761D01*
X120880952Y-93352380D01*
X120785714Y-93352380D01*
X121642857Y-93352380D02*
X121642857Y-92352380D01*
X122023809Y-92352380D01*
X122119047Y-92400000D01*
X122166666Y-92447619D01*
X122214285Y-92542857D01*
X122214285Y-92685714D01*
X122166666Y-92780952D01*
X122119047Y-92828571D01*
X122023809Y-92876190D01*
X121642857Y-92876190D01*
X122547619Y-92352380D02*
X123166666Y-92352380D01*
X122833333Y-92733333D01*
X122976190Y-92733333D01*
X123071428Y-92780952D01*
X123119047Y-92828571D01*
X123166666Y-92923809D01*
X123166666Y-93161904D01*
X123119047Y-93257142D01*
X123071428Y-93304761D01*
X122976190Y-93352380D01*
X122690476Y-93352380D01*
X122595238Y-93304761D01*
X122547619Y-93257142D01*
X122066666Y-85552380D02*
X122066666Y-86266666D01*
X122019047Y-86409523D01*
X121923809Y-86504761D01*
X121780952Y-86552380D01*
X121685714Y-86552380D01*
X122542857Y-86552380D02*
X122542857Y-85552380D01*
X122923809Y-85552380D01*
X123019047Y-85600000D01*
X123066666Y-85647619D01*
X123114285Y-85742857D01*
X123114285Y-85885714D01*
X123066666Y-85980952D01*
X123019047Y-86028571D01*
X122923809Y-86076190D01*
X122542857Y-86076190D01*
X123495238Y-85647619D02*
X123542857Y-85600000D01*
X123638095Y-85552380D01*
X123876190Y-85552380D01*
X123971428Y-85600000D01*
X124019047Y-85647619D01*
X124066666Y-85742857D01*
X124066666Y-85838095D01*
X124019047Y-85980952D01*
X123447619Y-86552380D01*
X124066666Y-86552380D01*
X118166666Y-71252380D02*
X118166666Y-71966666D01*
X118119047Y-72109523D01*
X118023809Y-72204761D01*
X117880952Y-72252380D01*
X117785714Y-72252380D01*
X118642857Y-72252380D02*
X118642857Y-71252380D01*
X119023809Y-71252380D01*
X119119047Y-71300000D01*
X119166666Y-71347619D01*
X119214285Y-71442857D01*
X119214285Y-71585714D01*
X119166666Y-71680952D01*
X119119047Y-71728571D01*
X119023809Y-71776190D01*
X118642857Y-71776190D01*
X120166666Y-72252380D02*
X119595238Y-72252380D01*
X119880952Y-72252380D02*
X119880952Y-71252380D01*
X119785714Y-71395238D01*
X119690476Y-71490476D01*
X119595238Y-71538095D01*
M02*
