G04 #@! TF.GenerationSoftware,KiCad,Pcbnew,(5.1.5-0)*
G04 #@! TF.CreationDate,2021-01-21T21:28:00-07:00*
G04 #@! TF.ProjectId,supercap,73757065-7263-4617-902e-6b696361645f,rev?*
G04 #@! TF.SameCoordinates,Original*
G04 #@! TF.FileFunction,Soldermask,Bot*
G04 #@! TF.FilePolarity,Negative*
%FSLAX46Y46*%
G04 Gerber Fmt 4.6, Leading zero omitted, Abs format (unit mm)*
G04 Created by KiCad (PCBNEW (5.1.5-0)) date 2021-01-21 21:28:00*
%MOMM*%
%LPD*%
G04 APERTURE LIST*
%ADD10C,0.100000*%
G04 APERTURE END LIST*
D10*
G36*
X133248228Y-136581703D02*
G01*
X133403100Y-136645853D01*
X133542481Y-136738985D01*
X133661015Y-136857519D01*
X133754147Y-136996900D01*
X133818297Y-137151772D01*
X133851000Y-137316184D01*
X133851000Y-137483816D01*
X133818297Y-137648228D01*
X133754147Y-137803100D01*
X133661015Y-137942481D01*
X133542481Y-138061015D01*
X133403100Y-138154147D01*
X133248228Y-138218297D01*
X133083816Y-138251000D01*
X132916184Y-138251000D01*
X132751772Y-138218297D01*
X132596900Y-138154147D01*
X132457519Y-138061015D01*
X132338985Y-137942481D01*
X132245853Y-137803100D01*
X132181703Y-137648228D01*
X132149000Y-137483816D01*
X132149000Y-137316184D01*
X132181703Y-137151772D01*
X132245853Y-136996900D01*
X132338985Y-136857519D01*
X132457519Y-136738985D01*
X132596900Y-136645853D01*
X132751772Y-136581703D01*
X132916184Y-136549000D01*
X133083816Y-136549000D01*
X133248228Y-136581703D01*
G37*
G36*
X133248228Y-131581703D02*
G01*
X133403100Y-131645853D01*
X133542481Y-131738985D01*
X133661015Y-131857519D01*
X133754147Y-131996900D01*
X133818297Y-132151772D01*
X133851000Y-132316184D01*
X133851000Y-132483816D01*
X133818297Y-132648228D01*
X133754147Y-132803100D01*
X133661015Y-132942481D01*
X133542481Y-133061015D01*
X133403100Y-133154147D01*
X133248228Y-133218297D01*
X133083816Y-133251000D01*
X132916184Y-133251000D01*
X132751772Y-133218297D01*
X132596900Y-133154147D01*
X132457519Y-133061015D01*
X132338985Y-132942481D01*
X132245853Y-132803100D01*
X132181703Y-132648228D01*
X132149000Y-132483816D01*
X132149000Y-132316184D01*
X132181703Y-132151772D01*
X132245853Y-131996900D01*
X132338985Y-131857519D01*
X132457519Y-131738985D01*
X132596900Y-131645853D01*
X132751772Y-131581703D01*
X132916184Y-131549000D01*
X133083816Y-131549000D01*
X133248228Y-131581703D01*
G37*
G36*
X124816242Y-114353404D02*
G01*
X124853337Y-114364657D01*
X124887515Y-114382925D01*
X124917481Y-114407519D01*
X124942075Y-114437485D01*
X124960343Y-114471663D01*
X124971596Y-114508758D01*
X124976000Y-114553474D01*
X124976000Y-115446526D01*
X124971596Y-115491242D01*
X124960343Y-115528337D01*
X124942075Y-115562515D01*
X124917481Y-115592481D01*
X124887515Y-115617075D01*
X124853337Y-115635343D01*
X124816242Y-115646596D01*
X124771526Y-115651000D01*
X123328474Y-115651000D01*
X123283758Y-115646596D01*
X123246663Y-115635343D01*
X123212485Y-115617075D01*
X123182519Y-115592481D01*
X123157925Y-115562515D01*
X123139657Y-115528337D01*
X123128404Y-115491242D01*
X123124000Y-115446526D01*
X123124000Y-114553474D01*
X123128404Y-114508758D01*
X123139657Y-114471663D01*
X123157925Y-114437485D01*
X123182519Y-114407519D01*
X123212485Y-114382925D01*
X123246663Y-114364657D01*
X123283758Y-114353404D01*
X123328474Y-114349000D01*
X124771526Y-114349000D01*
X124816242Y-114353404D01*
G37*
G36*
X124388855Y-112352140D02*
G01*
X124452618Y-112358420D01*
X124543404Y-112385960D01*
X124575336Y-112395646D01*
X124688425Y-112456094D01*
X124787554Y-112537446D01*
X124868906Y-112636575D01*
X124929354Y-112749664D01*
X124929355Y-112749668D01*
X124966580Y-112872382D01*
X124979149Y-113000000D01*
X124966580Y-113127618D01*
X124939040Y-113218404D01*
X124929354Y-113250336D01*
X124868906Y-113363425D01*
X124787554Y-113462554D01*
X124688425Y-113543906D01*
X124575336Y-113604354D01*
X124543404Y-113614040D01*
X124452618Y-113641580D01*
X124388855Y-113647860D01*
X124356974Y-113651000D01*
X123743026Y-113651000D01*
X123711145Y-113647860D01*
X123647382Y-113641580D01*
X123556596Y-113614040D01*
X123524664Y-113604354D01*
X123411575Y-113543906D01*
X123312446Y-113462554D01*
X123231094Y-113363425D01*
X123170646Y-113250336D01*
X123160960Y-113218404D01*
X123133420Y-113127618D01*
X123120851Y-113000000D01*
X123133420Y-112872382D01*
X123170645Y-112749668D01*
X123170646Y-112749664D01*
X123231094Y-112636575D01*
X123312446Y-112537446D01*
X123411575Y-112456094D01*
X123524664Y-112395646D01*
X123556596Y-112385960D01*
X123647382Y-112358420D01*
X123711145Y-112352140D01*
X123743026Y-112349000D01*
X124356974Y-112349000D01*
X124388855Y-112352140D01*
G37*
G36*
X141927617Y-108483420D02*
G01*
X142008399Y-108507925D01*
X142050335Y-108520646D01*
X142163424Y-108581094D01*
X142262554Y-108662447D01*
X142343906Y-108761575D01*
X142404354Y-108874664D01*
X142414040Y-108906596D01*
X142441580Y-108997382D01*
X142451000Y-109093027D01*
X142451000Y-109706973D01*
X142441580Y-109802618D01*
X142414040Y-109893404D01*
X142404354Y-109925336D01*
X142343906Y-110038425D01*
X142262554Y-110137554D01*
X142163425Y-110218906D01*
X142050336Y-110279354D01*
X142018404Y-110289040D01*
X141927618Y-110316580D01*
X141800000Y-110329149D01*
X141672383Y-110316580D01*
X141581597Y-110289040D01*
X141549665Y-110279354D01*
X141436576Y-110218906D01*
X141337447Y-110137554D01*
X141256096Y-110038427D01*
X141256095Y-110038425D01*
X141195647Y-109925336D01*
X141195645Y-109925333D01*
X141183237Y-109884427D01*
X141158420Y-109802618D01*
X141149000Y-109706973D01*
X141149000Y-109093028D01*
X141158420Y-108997383D01*
X141195645Y-108874669D01*
X141195646Y-108874665D01*
X141256094Y-108761576D01*
X141337447Y-108662446D01*
X141436575Y-108581094D01*
X141549664Y-108520646D01*
X141591600Y-108507925D01*
X141672382Y-108483420D01*
X141800000Y-108470851D01*
X141927617Y-108483420D01*
G37*
G36*
X140291242Y-108478404D02*
G01*
X140328337Y-108489657D01*
X140362515Y-108507925D01*
X140392481Y-108532519D01*
X140417075Y-108562485D01*
X140435343Y-108596663D01*
X140446596Y-108633758D01*
X140451000Y-108678474D01*
X140451000Y-110121526D01*
X140446596Y-110166242D01*
X140435343Y-110203337D01*
X140417075Y-110237515D01*
X140392481Y-110267481D01*
X140362515Y-110292075D01*
X140328337Y-110310343D01*
X140291242Y-110321596D01*
X140246526Y-110326000D01*
X139353474Y-110326000D01*
X139308758Y-110321596D01*
X139271663Y-110310343D01*
X139237485Y-110292075D01*
X139207519Y-110267481D01*
X139182925Y-110237515D01*
X139164657Y-110203337D01*
X139153404Y-110166242D01*
X139149000Y-110121526D01*
X139149000Y-108678474D01*
X139153404Y-108633758D01*
X139164657Y-108596663D01*
X139182925Y-108562485D01*
X139207519Y-108532519D01*
X139237485Y-108507925D01*
X139271663Y-108489657D01*
X139308758Y-108478404D01*
X139353474Y-108474000D01*
X140246526Y-108474000D01*
X140291242Y-108478404D01*
G37*
G36*
X141927617Y-101383420D02*
G01*
X142008399Y-101407925D01*
X142050335Y-101420646D01*
X142163424Y-101481094D01*
X142262554Y-101562447D01*
X142343906Y-101661575D01*
X142404354Y-101774664D01*
X142414040Y-101806596D01*
X142441580Y-101897382D01*
X142451000Y-101993027D01*
X142451000Y-102606973D01*
X142441580Y-102702618D01*
X142414040Y-102793404D01*
X142404354Y-102825336D01*
X142343906Y-102938425D01*
X142262554Y-103037554D01*
X142163425Y-103118906D01*
X142050336Y-103179354D01*
X142018404Y-103189040D01*
X141927618Y-103216580D01*
X141800000Y-103229149D01*
X141672383Y-103216580D01*
X141581597Y-103189040D01*
X141549665Y-103179354D01*
X141436576Y-103118906D01*
X141337447Y-103037554D01*
X141256096Y-102938427D01*
X141256095Y-102938425D01*
X141195647Y-102825336D01*
X141195645Y-102825333D01*
X141183237Y-102784427D01*
X141158420Y-102702618D01*
X141149000Y-102606973D01*
X141149000Y-101993028D01*
X141158420Y-101897383D01*
X141195645Y-101774669D01*
X141195646Y-101774665D01*
X141256094Y-101661576D01*
X141337447Y-101562446D01*
X141436575Y-101481094D01*
X141549664Y-101420646D01*
X141591600Y-101407925D01*
X141672382Y-101383420D01*
X141800000Y-101370851D01*
X141927617Y-101383420D01*
G37*
G36*
X140291242Y-101378404D02*
G01*
X140328337Y-101389657D01*
X140362515Y-101407925D01*
X140392481Y-101432519D01*
X140417075Y-101462485D01*
X140435343Y-101496663D01*
X140446596Y-101533758D01*
X140451000Y-101578474D01*
X140451000Y-103021526D01*
X140446596Y-103066242D01*
X140435343Y-103103337D01*
X140417075Y-103137515D01*
X140392481Y-103167481D01*
X140362515Y-103192075D01*
X140328337Y-103210343D01*
X140291242Y-103221596D01*
X140246526Y-103226000D01*
X139353474Y-103226000D01*
X139308758Y-103221596D01*
X139271663Y-103210343D01*
X139237485Y-103192075D01*
X139207519Y-103167481D01*
X139182925Y-103137515D01*
X139164657Y-103103337D01*
X139153404Y-103066242D01*
X139149000Y-103021526D01*
X139149000Y-101578474D01*
X139153404Y-101533758D01*
X139164657Y-101496663D01*
X139182925Y-101462485D01*
X139207519Y-101432519D01*
X139237485Y-101407925D01*
X139271663Y-101389657D01*
X139308758Y-101378404D01*
X139353474Y-101374000D01*
X140246526Y-101374000D01*
X140291242Y-101378404D01*
G37*
G36*
X139727618Y-84383420D02*
G01*
X139808400Y-84407925D01*
X139850336Y-84420646D01*
X139963425Y-84481094D01*
X140062554Y-84562446D01*
X140143906Y-84661575D01*
X140204354Y-84774664D01*
X140204355Y-84774668D01*
X140241580Y-84897382D01*
X140251000Y-84993027D01*
X140251000Y-85606973D01*
X140241580Y-85702618D01*
X140223410Y-85762515D01*
X140204354Y-85825336D01*
X140143906Y-85938425D01*
X140062554Y-86037553D01*
X139963424Y-86118906D01*
X139850335Y-86179354D01*
X139818403Y-86189040D01*
X139727617Y-86216580D01*
X139600000Y-86229149D01*
X139472382Y-86216580D01*
X139381596Y-86189040D01*
X139349664Y-86179354D01*
X139236575Y-86118906D01*
X139137447Y-86037554D01*
X139056094Y-85938424D01*
X138995646Y-85825335D01*
X138966863Y-85730449D01*
X138958420Y-85702617D01*
X138949000Y-85606972D01*
X138949000Y-84993027D01*
X138958420Y-84897382D01*
X138995645Y-84774668D01*
X138995645Y-84774667D01*
X139030875Y-84708758D01*
X139056095Y-84661574D01*
X139069493Y-84645249D01*
X139137447Y-84562446D01*
X139236576Y-84481094D01*
X139349665Y-84420646D01*
X139391601Y-84407925D01*
X139472383Y-84383420D01*
X139600000Y-84370851D01*
X139727618Y-84383420D01*
G37*
G36*
X142091242Y-84378404D02*
G01*
X142128337Y-84389657D01*
X142162515Y-84407925D01*
X142192481Y-84432519D01*
X142217075Y-84462485D01*
X142235343Y-84496663D01*
X142246596Y-84533758D01*
X142251000Y-84578474D01*
X142251000Y-86021526D01*
X142246596Y-86066242D01*
X142235343Y-86103337D01*
X142217075Y-86137515D01*
X142192481Y-86167481D01*
X142162515Y-86192075D01*
X142128337Y-86210343D01*
X142091242Y-86221596D01*
X142046526Y-86226000D01*
X141153474Y-86226000D01*
X141108758Y-86221596D01*
X141071663Y-86210343D01*
X141037485Y-86192075D01*
X141007519Y-86167481D01*
X140982925Y-86137515D01*
X140964657Y-86103337D01*
X140953404Y-86066242D01*
X140949000Y-86021526D01*
X140949000Y-84578474D01*
X140953404Y-84533758D01*
X140964657Y-84496663D01*
X140982925Y-84462485D01*
X141007519Y-84432519D01*
X141037485Y-84407925D01*
X141071663Y-84389657D01*
X141108758Y-84378404D01*
X141153474Y-84374000D01*
X142046526Y-84374000D01*
X142091242Y-84378404D01*
G37*
G36*
X124066242Y-84553404D02*
G01*
X124103337Y-84564657D01*
X124137515Y-84582925D01*
X124167481Y-84607519D01*
X124192075Y-84637485D01*
X124210343Y-84671663D01*
X124221596Y-84708758D01*
X124226000Y-84753474D01*
X124226000Y-85646526D01*
X124221596Y-85691242D01*
X124210343Y-85728337D01*
X124192075Y-85762515D01*
X124167481Y-85792481D01*
X124137515Y-85817075D01*
X124103337Y-85835343D01*
X124066242Y-85846596D01*
X124021526Y-85851000D01*
X122578474Y-85851000D01*
X122533758Y-85846596D01*
X122496663Y-85835343D01*
X122462485Y-85817075D01*
X122432519Y-85792481D01*
X122407925Y-85762515D01*
X122389657Y-85728337D01*
X122378404Y-85691242D01*
X122374000Y-85646526D01*
X122374000Y-84753474D01*
X122378404Y-84708758D01*
X122389657Y-84671663D01*
X122407925Y-84637485D01*
X122432519Y-84607519D01*
X122462485Y-84582925D01*
X122496663Y-84564657D01*
X122533758Y-84553404D01*
X122578474Y-84549000D01*
X124021526Y-84549000D01*
X124066242Y-84553404D01*
G37*
G36*
X123638855Y-82552140D02*
G01*
X123702618Y-82558420D01*
X123793404Y-82585960D01*
X123825336Y-82595646D01*
X123938425Y-82656094D01*
X124037554Y-82737446D01*
X124118906Y-82836575D01*
X124179354Y-82949664D01*
X124179355Y-82949668D01*
X124216580Y-83072382D01*
X124229149Y-83200000D01*
X124216580Y-83327618D01*
X124189040Y-83418404D01*
X124179354Y-83450336D01*
X124118906Y-83563425D01*
X124037554Y-83662554D01*
X123938425Y-83743906D01*
X123825336Y-83804354D01*
X123793404Y-83814040D01*
X123702618Y-83841580D01*
X123638855Y-83847860D01*
X123606974Y-83851000D01*
X122993026Y-83851000D01*
X122961145Y-83847860D01*
X122897382Y-83841580D01*
X122806596Y-83814040D01*
X122774664Y-83804354D01*
X122661575Y-83743906D01*
X122562446Y-83662554D01*
X122481094Y-83563425D01*
X122420646Y-83450336D01*
X122410960Y-83418404D01*
X122383420Y-83327618D01*
X122370851Y-83200000D01*
X122383420Y-83072382D01*
X122420645Y-82949668D01*
X122420646Y-82949664D01*
X122481094Y-82836575D01*
X122562446Y-82737446D01*
X122661575Y-82656094D01*
X122774664Y-82595646D01*
X122806596Y-82585960D01*
X122897382Y-82558420D01*
X122961145Y-82552140D01*
X122993026Y-82549000D01*
X123606974Y-82549000D01*
X123638855Y-82552140D01*
G37*
G36*
X132998228Y-65831703D02*
G01*
X133153100Y-65895853D01*
X133292481Y-65988985D01*
X133411015Y-66107519D01*
X133504147Y-66246900D01*
X133568297Y-66401772D01*
X133601000Y-66566184D01*
X133601000Y-66733816D01*
X133568297Y-66898228D01*
X133504147Y-67053100D01*
X133411015Y-67192481D01*
X133292481Y-67311015D01*
X133153100Y-67404147D01*
X132998228Y-67468297D01*
X132833816Y-67501000D01*
X132666184Y-67501000D01*
X132501772Y-67468297D01*
X132346900Y-67404147D01*
X132207519Y-67311015D01*
X132088985Y-67192481D01*
X131995853Y-67053100D01*
X131931703Y-66898228D01*
X131899000Y-66733816D01*
X131899000Y-66566184D01*
X131931703Y-66401772D01*
X131995853Y-66246900D01*
X132088985Y-66107519D01*
X132207519Y-65988985D01*
X132346900Y-65895853D01*
X132501772Y-65831703D01*
X132666184Y-65799000D01*
X132833816Y-65799000D01*
X132998228Y-65831703D01*
G37*
G36*
X132998228Y-60831703D02*
G01*
X133153100Y-60895853D01*
X133292481Y-60988985D01*
X133411015Y-61107519D01*
X133504147Y-61246900D01*
X133568297Y-61401772D01*
X133601000Y-61566184D01*
X133601000Y-61733816D01*
X133568297Y-61898228D01*
X133504147Y-62053100D01*
X133411015Y-62192481D01*
X133292481Y-62311015D01*
X133153100Y-62404147D01*
X132998228Y-62468297D01*
X132833816Y-62501000D01*
X132666184Y-62501000D01*
X132501772Y-62468297D01*
X132346900Y-62404147D01*
X132207519Y-62311015D01*
X132088985Y-62192481D01*
X131995853Y-62053100D01*
X131931703Y-61898228D01*
X131899000Y-61733816D01*
X131899000Y-61566184D01*
X131931703Y-61401772D01*
X131995853Y-61246900D01*
X132088985Y-61107519D01*
X132207519Y-60988985D01*
X132346900Y-60895853D01*
X132501772Y-60831703D01*
X132666184Y-60799000D01*
X132833816Y-60799000D01*
X132998228Y-60831703D01*
G37*
M02*
