G04 #@! TF.GenerationSoftware,KiCad,Pcbnew,(5.1.5-0)*
G04 #@! TF.CreationDate,2021-01-21T21:28:00-07:00*
G04 #@! TF.ProjectId,supercap,73757065-7263-4617-902e-6b696361645f,rev?*
G04 #@! TF.SameCoordinates,Original*
G04 #@! TF.FileFunction,Copper,L2,Bot*
G04 #@! TF.FilePolarity,Positive*
%FSLAX46Y46*%
G04 Gerber Fmt 4.6, Leading zero omitted, Abs format (unit mm)*
G04 Created by KiCad (PCBNEW (5.1.5-0)) date 2021-01-21 21:28:00*
%MOMM*%
%LPD*%
G04 APERTURE LIST*
%ADD10O,1.750000X1.200000*%
%ADD11C,0.100000*%
%ADD12C,1.600000*%
%ADD13O,1.200000X1.750000*%
%ADD14C,0.800000*%
%ADD15C,0.250000*%
%ADD16C,0.254000*%
G04 APERTURE END LIST*
D10*
X123300000Y-83200000D03*
G04 #@! TA.AperFunction,ComponentPad*
D11*
G36*
X123949505Y-84601204D02*
G01*
X123973773Y-84604804D01*
X123997572Y-84610765D01*
X124020671Y-84619030D01*
X124042850Y-84629520D01*
X124063893Y-84642132D01*
X124083599Y-84656747D01*
X124101777Y-84673223D01*
X124118253Y-84691401D01*
X124132868Y-84711107D01*
X124145480Y-84732150D01*
X124155970Y-84754329D01*
X124164235Y-84777428D01*
X124170196Y-84801227D01*
X124173796Y-84825495D01*
X124175000Y-84849999D01*
X124175000Y-85550001D01*
X124173796Y-85574505D01*
X124170196Y-85598773D01*
X124164235Y-85622572D01*
X124155970Y-85645671D01*
X124145480Y-85667850D01*
X124132868Y-85688893D01*
X124118253Y-85708599D01*
X124101777Y-85726777D01*
X124083599Y-85743253D01*
X124063893Y-85757868D01*
X124042850Y-85770480D01*
X124020671Y-85780970D01*
X123997572Y-85789235D01*
X123973773Y-85795196D01*
X123949505Y-85798796D01*
X123925001Y-85800000D01*
X122674999Y-85800000D01*
X122650495Y-85798796D01*
X122626227Y-85795196D01*
X122602428Y-85789235D01*
X122579329Y-85780970D01*
X122557150Y-85770480D01*
X122536107Y-85757868D01*
X122516401Y-85743253D01*
X122498223Y-85726777D01*
X122481747Y-85708599D01*
X122467132Y-85688893D01*
X122454520Y-85667850D01*
X122444030Y-85645671D01*
X122435765Y-85622572D01*
X122429804Y-85598773D01*
X122426204Y-85574505D01*
X122425000Y-85550001D01*
X122425000Y-84849999D01*
X122426204Y-84825495D01*
X122429804Y-84801227D01*
X122435765Y-84777428D01*
X122444030Y-84754329D01*
X122454520Y-84732150D01*
X122467132Y-84711107D01*
X122481747Y-84691401D01*
X122498223Y-84673223D01*
X122516401Y-84656747D01*
X122536107Y-84642132D01*
X122557150Y-84629520D01*
X122579329Y-84619030D01*
X122602428Y-84610765D01*
X122626227Y-84604804D01*
X122650495Y-84601204D01*
X122674999Y-84600000D01*
X123925001Y-84600000D01*
X123949505Y-84601204D01*
G37*
G04 #@! TD.AperFunction*
D10*
X124050000Y-113000000D03*
G04 #@! TA.AperFunction,ComponentPad*
D11*
G36*
X124699505Y-114401204D02*
G01*
X124723773Y-114404804D01*
X124747572Y-114410765D01*
X124770671Y-114419030D01*
X124792850Y-114429520D01*
X124813893Y-114442132D01*
X124833599Y-114456747D01*
X124851777Y-114473223D01*
X124868253Y-114491401D01*
X124882868Y-114511107D01*
X124895480Y-114532150D01*
X124905970Y-114554329D01*
X124914235Y-114577428D01*
X124920196Y-114601227D01*
X124923796Y-114625495D01*
X124925000Y-114649999D01*
X124925000Y-115350001D01*
X124923796Y-115374505D01*
X124920196Y-115398773D01*
X124914235Y-115422572D01*
X124905970Y-115445671D01*
X124895480Y-115467850D01*
X124882868Y-115488893D01*
X124868253Y-115508599D01*
X124851777Y-115526777D01*
X124833599Y-115543253D01*
X124813893Y-115557868D01*
X124792850Y-115570480D01*
X124770671Y-115580970D01*
X124747572Y-115589235D01*
X124723773Y-115595196D01*
X124699505Y-115598796D01*
X124675001Y-115600000D01*
X123424999Y-115600000D01*
X123400495Y-115598796D01*
X123376227Y-115595196D01*
X123352428Y-115589235D01*
X123329329Y-115580970D01*
X123307150Y-115570480D01*
X123286107Y-115557868D01*
X123266401Y-115543253D01*
X123248223Y-115526777D01*
X123231747Y-115508599D01*
X123217132Y-115488893D01*
X123204520Y-115467850D01*
X123194030Y-115445671D01*
X123185765Y-115422572D01*
X123179804Y-115398773D01*
X123176204Y-115374505D01*
X123175000Y-115350001D01*
X123175000Y-114649999D01*
X123176204Y-114625495D01*
X123179804Y-114601227D01*
X123185765Y-114577428D01*
X123194030Y-114554329D01*
X123204520Y-114532150D01*
X123217132Y-114511107D01*
X123231747Y-114491401D01*
X123248223Y-114473223D01*
X123266401Y-114456747D01*
X123286107Y-114442132D01*
X123307150Y-114429520D01*
X123329329Y-114419030D01*
X123352428Y-114410765D01*
X123376227Y-114404804D01*
X123400495Y-114401204D01*
X123424999Y-114400000D01*
X124675001Y-114400000D01*
X124699505Y-114401204D01*
G37*
G04 #@! TD.AperFunction*
D12*
X132750000Y-66650000D03*
X132750000Y-61650000D03*
X133000000Y-137400000D03*
X133000000Y-132400000D03*
D13*
X141800000Y-102300000D03*
G04 #@! TA.AperFunction,ComponentPad*
D11*
G36*
X140174505Y-101426204D02*
G01*
X140198773Y-101429804D01*
X140222572Y-101435765D01*
X140245671Y-101444030D01*
X140267850Y-101454520D01*
X140288893Y-101467132D01*
X140308599Y-101481747D01*
X140326777Y-101498223D01*
X140343253Y-101516401D01*
X140357868Y-101536107D01*
X140370480Y-101557150D01*
X140380970Y-101579329D01*
X140389235Y-101602428D01*
X140395196Y-101626227D01*
X140398796Y-101650495D01*
X140400000Y-101674999D01*
X140400000Y-102925001D01*
X140398796Y-102949505D01*
X140395196Y-102973773D01*
X140389235Y-102997572D01*
X140380970Y-103020671D01*
X140370480Y-103042850D01*
X140357868Y-103063893D01*
X140343253Y-103083599D01*
X140326777Y-103101777D01*
X140308599Y-103118253D01*
X140288893Y-103132868D01*
X140267850Y-103145480D01*
X140245671Y-103155970D01*
X140222572Y-103164235D01*
X140198773Y-103170196D01*
X140174505Y-103173796D01*
X140150001Y-103175000D01*
X139449999Y-103175000D01*
X139425495Y-103173796D01*
X139401227Y-103170196D01*
X139377428Y-103164235D01*
X139354329Y-103155970D01*
X139332150Y-103145480D01*
X139311107Y-103132868D01*
X139291401Y-103118253D01*
X139273223Y-103101777D01*
X139256747Y-103083599D01*
X139242132Y-103063893D01*
X139229520Y-103042850D01*
X139219030Y-103020671D01*
X139210765Y-102997572D01*
X139204804Y-102973773D01*
X139201204Y-102949505D01*
X139200000Y-102925001D01*
X139200000Y-101674999D01*
X139201204Y-101650495D01*
X139204804Y-101626227D01*
X139210765Y-101602428D01*
X139219030Y-101579329D01*
X139229520Y-101557150D01*
X139242132Y-101536107D01*
X139256747Y-101516401D01*
X139273223Y-101498223D01*
X139291401Y-101481747D01*
X139311107Y-101467132D01*
X139332150Y-101454520D01*
X139354329Y-101444030D01*
X139377428Y-101435765D01*
X139401227Y-101429804D01*
X139425495Y-101426204D01*
X139449999Y-101425000D01*
X140150001Y-101425000D01*
X140174505Y-101426204D01*
G37*
G04 #@! TD.AperFunction*
D13*
X139600000Y-85300000D03*
G04 #@! TA.AperFunction,ComponentPad*
D11*
G36*
X141974505Y-84426204D02*
G01*
X141998773Y-84429804D01*
X142022572Y-84435765D01*
X142045671Y-84444030D01*
X142067850Y-84454520D01*
X142088893Y-84467132D01*
X142108599Y-84481747D01*
X142126777Y-84498223D01*
X142143253Y-84516401D01*
X142157868Y-84536107D01*
X142170480Y-84557150D01*
X142180970Y-84579329D01*
X142189235Y-84602428D01*
X142195196Y-84626227D01*
X142198796Y-84650495D01*
X142200000Y-84674999D01*
X142200000Y-85925001D01*
X142198796Y-85949505D01*
X142195196Y-85973773D01*
X142189235Y-85997572D01*
X142180970Y-86020671D01*
X142170480Y-86042850D01*
X142157868Y-86063893D01*
X142143253Y-86083599D01*
X142126777Y-86101777D01*
X142108599Y-86118253D01*
X142088893Y-86132868D01*
X142067850Y-86145480D01*
X142045671Y-86155970D01*
X142022572Y-86164235D01*
X141998773Y-86170196D01*
X141974505Y-86173796D01*
X141950001Y-86175000D01*
X141249999Y-86175000D01*
X141225495Y-86173796D01*
X141201227Y-86170196D01*
X141177428Y-86164235D01*
X141154329Y-86155970D01*
X141132150Y-86145480D01*
X141111107Y-86132868D01*
X141091401Y-86118253D01*
X141073223Y-86101777D01*
X141056747Y-86083599D01*
X141042132Y-86063893D01*
X141029520Y-86042850D01*
X141019030Y-86020671D01*
X141010765Y-85997572D01*
X141004804Y-85973773D01*
X141001204Y-85949505D01*
X141000000Y-85925001D01*
X141000000Y-84674999D01*
X141001204Y-84650495D01*
X141004804Y-84626227D01*
X141010765Y-84602428D01*
X141019030Y-84579329D01*
X141029520Y-84557150D01*
X141042132Y-84536107D01*
X141056747Y-84516401D01*
X141073223Y-84498223D01*
X141091401Y-84481747D01*
X141111107Y-84467132D01*
X141132150Y-84454520D01*
X141154329Y-84444030D01*
X141177428Y-84435765D01*
X141201227Y-84429804D01*
X141225495Y-84426204D01*
X141249999Y-84425000D01*
X141950001Y-84425000D01*
X141974505Y-84426204D01*
G37*
G04 #@! TD.AperFunction*
D13*
X141800000Y-109400000D03*
G04 #@! TA.AperFunction,ComponentPad*
D11*
G36*
X140174505Y-108526204D02*
G01*
X140198773Y-108529804D01*
X140222572Y-108535765D01*
X140245671Y-108544030D01*
X140267850Y-108554520D01*
X140288893Y-108567132D01*
X140308599Y-108581747D01*
X140326777Y-108598223D01*
X140343253Y-108616401D01*
X140357868Y-108636107D01*
X140370480Y-108657150D01*
X140380970Y-108679329D01*
X140389235Y-108702428D01*
X140395196Y-108726227D01*
X140398796Y-108750495D01*
X140400000Y-108774999D01*
X140400000Y-110025001D01*
X140398796Y-110049505D01*
X140395196Y-110073773D01*
X140389235Y-110097572D01*
X140380970Y-110120671D01*
X140370480Y-110142850D01*
X140357868Y-110163893D01*
X140343253Y-110183599D01*
X140326777Y-110201777D01*
X140308599Y-110218253D01*
X140288893Y-110232868D01*
X140267850Y-110245480D01*
X140245671Y-110255970D01*
X140222572Y-110264235D01*
X140198773Y-110270196D01*
X140174505Y-110273796D01*
X140150001Y-110275000D01*
X139449999Y-110275000D01*
X139425495Y-110273796D01*
X139401227Y-110270196D01*
X139377428Y-110264235D01*
X139354329Y-110255970D01*
X139332150Y-110245480D01*
X139311107Y-110232868D01*
X139291401Y-110218253D01*
X139273223Y-110201777D01*
X139256747Y-110183599D01*
X139242132Y-110163893D01*
X139229520Y-110142850D01*
X139219030Y-110120671D01*
X139210765Y-110097572D01*
X139204804Y-110073773D01*
X139201204Y-110049505D01*
X139200000Y-110025001D01*
X139200000Y-108774999D01*
X139201204Y-108750495D01*
X139204804Y-108726227D01*
X139210765Y-108702428D01*
X139219030Y-108679329D01*
X139229520Y-108657150D01*
X139242132Y-108636107D01*
X139256747Y-108616401D01*
X139273223Y-108598223D01*
X139291401Y-108581747D01*
X139311107Y-108567132D01*
X139332150Y-108554520D01*
X139354329Y-108544030D01*
X139377428Y-108535765D01*
X139401227Y-108529804D01*
X139425495Y-108526204D01*
X139449999Y-108525000D01*
X140150001Y-108525000D01*
X140174505Y-108526204D01*
G37*
G04 #@! TD.AperFunction*
D14*
X125000000Y-109900000D03*
X144000000Y-79800000D03*
X143500000Y-128200000D03*
X142500000Y-113900000D03*
X143100000Y-76500000D03*
X143200000Y-98700000D03*
X125900000Y-105600000D03*
D15*
X144000000Y-127700000D02*
X143500000Y-128200000D01*
X144000000Y-79800000D02*
X144000000Y-127700000D01*
X143200000Y-98700000D02*
X143100000Y-76500000D01*
X143129622Y-106429622D02*
X143200000Y-98700000D01*
X143100000Y-113300000D02*
X143100000Y-109600000D01*
X142500000Y-113900000D02*
X143100000Y-113300000D01*
X143100000Y-109600000D02*
X143129622Y-106429622D01*
X143100000Y-109683161D02*
X143100000Y-109600000D01*
X142500000Y-113900000D02*
X142500000Y-147300000D01*
X142500000Y-147300000D02*
X121900000Y-147300000D01*
X121900000Y-147300000D02*
X121900000Y-107500000D01*
X124000000Y-107500000D02*
X125900000Y-105600000D01*
X121900000Y-107500000D02*
X124000000Y-107500000D01*
D16*
G36*
X144340001Y-78820557D02*
G01*
X144301898Y-78804774D01*
X144101939Y-78765000D01*
X143898061Y-78765000D01*
X143870235Y-78770535D01*
X143863163Y-77200548D01*
X143903937Y-77159774D01*
X144017205Y-76990256D01*
X144095226Y-76801898D01*
X144135000Y-76601939D01*
X144135000Y-76398061D01*
X144095226Y-76198102D01*
X144017205Y-76009744D01*
X143903937Y-75840226D01*
X143759774Y-75696063D01*
X143590256Y-75582795D01*
X143401898Y-75504774D01*
X143201939Y-75465000D01*
X142998061Y-75465000D01*
X142798102Y-75504774D01*
X142609744Y-75582795D01*
X142440226Y-75696063D01*
X142296063Y-75840226D01*
X142182795Y-76009744D01*
X142104774Y-76198102D01*
X142065000Y-76398061D01*
X142065000Y-76601939D01*
X142104774Y-76801898D01*
X142182795Y-76990256D01*
X142296063Y-77159774D01*
X142343177Y-77206888D01*
X142372938Y-83813887D01*
X142324482Y-83799188D01*
X142200000Y-83786928D01*
X141885750Y-83790000D01*
X141727000Y-83948750D01*
X141727000Y-85173000D01*
X141747000Y-85173000D01*
X141747000Y-85427000D01*
X141727000Y-85427000D01*
X141727000Y-86651250D01*
X141885750Y-86810000D01*
X142200000Y-86813072D01*
X142324482Y-86800812D01*
X142386308Y-86782057D01*
X142436837Y-97999452D01*
X142396063Y-98040226D01*
X142282795Y-98209744D01*
X142204774Y-98398102D01*
X142165000Y-98598061D01*
X142165000Y-98801939D01*
X142204774Y-99001898D01*
X142282795Y-99190256D01*
X142396063Y-99359774D01*
X142433620Y-99397331D01*
X142419452Y-100953343D01*
X142380533Y-100927579D01*
X142155282Y-100835409D01*
X142117609Y-100831538D01*
X141927000Y-100956269D01*
X141927000Y-102173000D01*
X141947000Y-102173000D01*
X141947000Y-102427000D01*
X141927000Y-102427000D01*
X141927000Y-103643731D01*
X142117609Y-103768462D01*
X142155282Y-103764591D01*
X142380533Y-103672421D01*
X142394781Y-103662989D01*
X142369668Y-106421144D01*
X142354757Y-108017032D01*
X142155282Y-107935409D01*
X142117609Y-107931538D01*
X141927000Y-108056269D01*
X141927000Y-109273000D01*
X141947000Y-109273000D01*
X141947000Y-109527000D01*
X141927000Y-109527000D01*
X141927000Y-110743731D01*
X142117609Y-110868462D01*
X142155282Y-110864591D01*
X142340001Y-110789006D01*
X142340000Y-112876549D01*
X142198102Y-112904774D01*
X142009744Y-112982795D01*
X141840226Y-113096063D01*
X141696063Y-113240226D01*
X141582795Y-113409744D01*
X141504774Y-113598102D01*
X141465000Y-113798061D01*
X141465000Y-114001939D01*
X141504774Y-114201898D01*
X141582795Y-114390256D01*
X141696063Y-114559774D01*
X141740000Y-114603711D01*
X141740001Y-146540000D01*
X122660000Y-146540000D01*
X122660000Y-138392702D01*
X132186903Y-138392702D01*
X132258486Y-138636671D01*
X132513996Y-138757571D01*
X132788184Y-138826300D01*
X133070512Y-138840217D01*
X133350130Y-138798787D01*
X133616292Y-138703603D01*
X133741514Y-138636671D01*
X133813097Y-138392702D01*
X133000000Y-137579605D01*
X132186903Y-138392702D01*
X122660000Y-138392702D01*
X122660000Y-137470512D01*
X131559783Y-137470512D01*
X131601213Y-137750130D01*
X131696397Y-138016292D01*
X131763329Y-138141514D01*
X132007298Y-138213097D01*
X132820395Y-137400000D01*
X133179605Y-137400000D01*
X133992702Y-138213097D01*
X134236671Y-138141514D01*
X134357571Y-137886004D01*
X134426300Y-137611816D01*
X134440217Y-137329488D01*
X134398787Y-137049870D01*
X134303603Y-136783708D01*
X134236671Y-136658486D01*
X133992702Y-136586903D01*
X133179605Y-137400000D01*
X132820395Y-137400000D01*
X132007298Y-136586903D01*
X131763329Y-136658486D01*
X131642429Y-136913996D01*
X131573700Y-137188184D01*
X131559783Y-137470512D01*
X122660000Y-137470512D01*
X122660000Y-136407298D01*
X132186903Y-136407298D01*
X133000000Y-137220395D01*
X133813097Y-136407298D01*
X133741514Y-136163329D01*
X133486004Y-136042429D01*
X133211816Y-135973700D01*
X132929488Y-135959783D01*
X132649870Y-136001213D01*
X132383708Y-136096397D01*
X132258486Y-136163329D01*
X132186903Y-136407298D01*
X122660000Y-136407298D01*
X122660000Y-132258665D01*
X131565000Y-132258665D01*
X131565000Y-132541335D01*
X131620147Y-132818574D01*
X131728320Y-133079727D01*
X131885363Y-133314759D01*
X132085241Y-133514637D01*
X132320273Y-133671680D01*
X132581426Y-133779853D01*
X132858665Y-133835000D01*
X133141335Y-133835000D01*
X133418574Y-133779853D01*
X133679727Y-133671680D01*
X133914759Y-133514637D01*
X134114637Y-133314759D01*
X134271680Y-133079727D01*
X134379853Y-132818574D01*
X134435000Y-132541335D01*
X134435000Y-132258665D01*
X134379853Y-131981426D01*
X134271680Y-131720273D01*
X134114637Y-131485241D01*
X133914759Y-131285363D01*
X133679727Y-131128320D01*
X133418574Y-131020147D01*
X133141335Y-130965000D01*
X132858665Y-130965000D01*
X132581426Y-131020147D01*
X132320273Y-131128320D01*
X132085241Y-131285363D01*
X131885363Y-131485241D01*
X131728320Y-131720273D01*
X131620147Y-131981426D01*
X131565000Y-132258665D01*
X122660000Y-132258665D01*
X122660000Y-115793631D01*
X122686595Y-115843387D01*
X122797038Y-115977962D01*
X122931613Y-116088405D01*
X123085149Y-116170472D01*
X123251745Y-116221008D01*
X123424999Y-116238072D01*
X124675001Y-116238072D01*
X124848255Y-116221008D01*
X125014851Y-116170472D01*
X125168387Y-116088405D01*
X125302962Y-115977962D01*
X125413405Y-115843387D01*
X125495472Y-115689851D01*
X125546008Y-115523255D01*
X125563072Y-115350001D01*
X125563072Y-114649999D01*
X125546008Y-114476745D01*
X125495472Y-114310149D01*
X125413405Y-114156613D01*
X125302962Y-114022038D01*
X125168387Y-113911595D01*
X125163594Y-113909033D01*
X125288078Y-113783474D01*
X125422421Y-113580533D01*
X125514591Y-113355282D01*
X125518462Y-113317609D01*
X125393731Y-113127000D01*
X124177000Y-113127000D01*
X124177000Y-113147000D01*
X123923000Y-113147000D01*
X123923000Y-113127000D01*
X123903000Y-113127000D01*
X123903000Y-112873000D01*
X123923000Y-112873000D01*
X123923000Y-111765000D01*
X124177000Y-111765000D01*
X124177000Y-112873000D01*
X125393731Y-112873000D01*
X125518462Y-112682391D01*
X125514591Y-112644718D01*
X125422421Y-112419467D01*
X125288078Y-112216526D01*
X125116725Y-112043693D01*
X124914946Y-111907610D01*
X124690496Y-111813507D01*
X124452000Y-111765000D01*
X124177000Y-111765000D01*
X123923000Y-111765000D01*
X123648000Y-111765000D01*
X123409504Y-111813507D01*
X123185054Y-111907610D01*
X122983275Y-112043693D01*
X122811922Y-112216526D01*
X122677579Y-112419467D01*
X122660000Y-112462428D01*
X122660000Y-108774999D01*
X138561928Y-108774999D01*
X138561928Y-110025001D01*
X138578992Y-110198255D01*
X138629528Y-110364851D01*
X138711595Y-110518387D01*
X138822038Y-110652962D01*
X138956613Y-110763405D01*
X139110149Y-110845472D01*
X139276745Y-110896008D01*
X139449999Y-110913072D01*
X140150001Y-110913072D01*
X140323255Y-110896008D01*
X140489851Y-110845472D01*
X140643387Y-110763405D01*
X140777962Y-110652962D01*
X140888405Y-110518387D01*
X140890967Y-110513594D01*
X141016526Y-110638078D01*
X141219467Y-110772421D01*
X141444718Y-110864591D01*
X141482391Y-110868462D01*
X141673000Y-110743731D01*
X141673000Y-109527000D01*
X141653000Y-109527000D01*
X141653000Y-109273000D01*
X141673000Y-109273000D01*
X141673000Y-108056269D01*
X141482391Y-107931538D01*
X141444718Y-107935409D01*
X141219467Y-108027579D01*
X141016526Y-108161922D01*
X140890967Y-108286406D01*
X140888405Y-108281613D01*
X140777962Y-108147038D01*
X140643387Y-108036595D01*
X140489851Y-107954528D01*
X140323255Y-107903992D01*
X140150001Y-107886928D01*
X139449999Y-107886928D01*
X139276745Y-107903992D01*
X139110149Y-107954528D01*
X138956613Y-108036595D01*
X138822038Y-108147038D01*
X138711595Y-108281613D01*
X138629528Y-108435149D01*
X138578992Y-108601745D01*
X138561928Y-108774999D01*
X122660000Y-108774999D01*
X122660000Y-108260000D01*
X123962678Y-108260000D01*
X124000000Y-108263676D01*
X124037322Y-108260000D01*
X124037333Y-108260000D01*
X124148986Y-108249003D01*
X124292247Y-108205546D01*
X124424276Y-108134974D01*
X124540001Y-108040001D01*
X124563804Y-108010997D01*
X125939802Y-106635000D01*
X126001939Y-106635000D01*
X126201898Y-106595226D01*
X126390256Y-106517205D01*
X126559774Y-106403937D01*
X126703937Y-106259774D01*
X126817205Y-106090256D01*
X126895226Y-105901898D01*
X126935000Y-105701939D01*
X126935000Y-105498061D01*
X126895226Y-105298102D01*
X126817205Y-105109744D01*
X126703937Y-104940226D01*
X126559774Y-104796063D01*
X126390256Y-104682795D01*
X126201898Y-104604774D01*
X126001939Y-104565000D01*
X125798061Y-104565000D01*
X125598102Y-104604774D01*
X125409744Y-104682795D01*
X125240226Y-104796063D01*
X125096063Y-104940226D01*
X124982795Y-105109744D01*
X124904774Y-105298102D01*
X124865000Y-105498061D01*
X124865000Y-105560198D01*
X123685199Y-106740000D01*
X121937333Y-106740000D01*
X121900000Y-106736323D01*
X121862667Y-106740000D01*
X121751014Y-106750997D01*
X121607753Y-106794454D01*
X121475724Y-106865026D01*
X121359999Y-106959999D01*
X121265026Y-107075724D01*
X121194454Y-107207753D01*
X121150997Y-107351014D01*
X121136323Y-107500000D01*
X121140001Y-107537343D01*
X121140000Y-147262667D01*
X121136323Y-147300000D01*
X121150997Y-147448986D01*
X121194454Y-147592247D01*
X121265026Y-147724276D01*
X121359999Y-147840001D01*
X121475724Y-147934974D01*
X121607753Y-148005546D01*
X121751014Y-148049003D01*
X121900000Y-148063677D01*
X121937333Y-148060000D01*
X142462667Y-148060000D01*
X142500000Y-148063677D01*
X142648986Y-148049003D01*
X142792247Y-148005546D01*
X142924276Y-147934974D01*
X143040001Y-147840001D01*
X143134974Y-147724276D01*
X143205546Y-147592247D01*
X143249003Y-147448986D01*
X143260000Y-147337333D01*
X143260000Y-147337332D01*
X143263677Y-147300000D01*
X143260000Y-147262667D01*
X143260000Y-129207538D01*
X143398061Y-129235000D01*
X143601939Y-129235000D01*
X143801898Y-129195226D01*
X143990256Y-129117205D01*
X144159774Y-129003937D01*
X144303937Y-128859774D01*
X144340000Y-128805801D01*
X144340000Y-149340000D01*
X120660000Y-149340000D01*
X120660000Y-101674999D01*
X138561928Y-101674999D01*
X138561928Y-102925001D01*
X138578992Y-103098255D01*
X138629528Y-103264851D01*
X138711595Y-103418387D01*
X138822038Y-103552962D01*
X138956613Y-103663405D01*
X139110149Y-103745472D01*
X139276745Y-103796008D01*
X139449999Y-103813072D01*
X140150001Y-103813072D01*
X140323255Y-103796008D01*
X140489851Y-103745472D01*
X140643387Y-103663405D01*
X140777962Y-103552962D01*
X140888405Y-103418387D01*
X140890967Y-103413594D01*
X141016526Y-103538078D01*
X141219467Y-103672421D01*
X141444718Y-103764591D01*
X141482391Y-103768462D01*
X141673000Y-103643731D01*
X141673000Y-102427000D01*
X141653000Y-102427000D01*
X141653000Y-102173000D01*
X141673000Y-102173000D01*
X141673000Y-100956269D01*
X141482391Y-100831538D01*
X141444718Y-100835409D01*
X141219467Y-100927579D01*
X141016526Y-101061922D01*
X140890967Y-101186406D01*
X140888405Y-101181613D01*
X140777962Y-101047038D01*
X140643387Y-100936595D01*
X140489851Y-100854528D01*
X140323255Y-100803992D01*
X140150001Y-100786928D01*
X139449999Y-100786928D01*
X139276745Y-100803992D01*
X139110149Y-100854528D01*
X138956613Y-100936595D01*
X138822038Y-101047038D01*
X138711595Y-101181613D01*
X138629528Y-101335149D01*
X138578992Y-101501745D01*
X138561928Y-101674999D01*
X120660000Y-101674999D01*
X120660000Y-85800000D01*
X121786928Y-85800000D01*
X121799188Y-85924482D01*
X121835498Y-86044180D01*
X121894463Y-86154494D01*
X121973815Y-86251185D01*
X122070506Y-86330537D01*
X122180820Y-86389502D01*
X122300518Y-86425812D01*
X122425000Y-86438072D01*
X123014250Y-86435000D01*
X123173000Y-86276250D01*
X123173000Y-85327000D01*
X123427000Y-85327000D01*
X123427000Y-86276250D01*
X123585750Y-86435000D01*
X124175000Y-86438072D01*
X124299482Y-86425812D01*
X124419180Y-86389502D01*
X124529494Y-86330537D01*
X124626185Y-86251185D01*
X124705537Y-86154494D01*
X124764502Y-86044180D01*
X124800812Y-85924482D01*
X124813072Y-85800000D01*
X124810000Y-85485750D01*
X124651250Y-85327000D01*
X123427000Y-85327000D01*
X123173000Y-85327000D01*
X121948750Y-85327000D01*
X121790000Y-85485750D01*
X121786928Y-85800000D01*
X120660000Y-85800000D01*
X120660000Y-83200000D01*
X121784025Y-83200000D01*
X121807870Y-83442102D01*
X121878489Y-83674901D01*
X121993167Y-83889449D01*
X122119436Y-84043309D01*
X122070506Y-84069463D01*
X121973815Y-84148815D01*
X121894463Y-84245506D01*
X121835498Y-84355820D01*
X121799188Y-84475518D01*
X121786928Y-84600000D01*
X121790000Y-84914250D01*
X121948750Y-85073000D01*
X123173000Y-85073000D01*
X123173000Y-85053000D01*
X123427000Y-85053000D01*
X123427000Y-85073000D01*
X124651250Y-85073000D01*
X124759915Y-84964335D01*
X138365000Y-84964335D01*
X138365000Y-85635664D01*
X138382870Y-85817101D01*
X138453489Y-86049900D01*
X138568167Y-86264448D01*
X138722498Y-86452502D01*
X138910551Y-86606833D01*
X139125099Y-86721511D01*
X139357898Y-86792130D01*
X139600000Y-86815975D01*
X139842101Y-86792130D01*
X140074900Y-86721511D01*
X140289448Y-86606833D01*
X140443309Y-86480564D01*
X140469463Y-86529494D01*
X140548815Y-86626185D01*
X140645506Y-86705537D01*
X140755820Y-86764502D01*
X140875518Y-86800812D01*
X141000000Y-86813072D01*
X141314250Y-86810000D01*
X141473000Y-86651250D01*
X141473000Y-85427000D01*
X141453000Y-85427000D01*
X141453000Y-85173000D01*
X141473000Y-85173000D01*
X141473000Y-83948750D01*
X141314250Y-83790000D01*
X141000000Y-83786928D01*
X140875518Y-83799188D01*
X140755820Y-83835498D01*
X140645506Y-83894463D01*
X140548815Y-83973815D01*
X140469463Y-84070506D01*
X140443309Y-84119436D01*
X140289449Y-83993167D01*
X140074901Y-83878489D01*
X139842102Y-83807870D01*
X139600000Y-83784025D01*
X139357899Y-83807870D01*
X139125100Y-83878489D01*
X138910552Y-83993167D01*
X138722499Y-84147498D01*
X138568168Y-84335551D01*
X138453489Y-84550099D01*
X138382870Y-84782898D01*
X138365000Y-84964335D01*
X124759915Y-84964335D01*
X124810000Y-84914250D01*
X124813072Y-84600000D01*
X124800812Y-84475518D01*
X124764502Y-84355820D01*
X124705537Y-84245506D01*
X124626185Y-84148815D01*
X124529494Y-84069463D01*
X124480564Y-84043309D01*
X124606833Y-83889449D01*
X124721511Y-83674901D01*
X124792130Y-83442102D01*
X124815975Y-83200000D01*
X124792130Y-82957898D01*
X124721511Y-82725099D01*
X124606833Y-82510551D01*
X124452502Y-82322498D01*
X124264449Y-82168167D01*
X124049901Y-82053489D01*
X123817102Y-81982870D01*
X123635665Y-81965000D01*
X122964335Y-81965000D01*
X122782898Y-81982870D01*
X122550099Y-82053489D01*
X122335551Y-82168167D01*
X122147498Y-82322498D01*
X121993167Y-82510551D01*
X121878489Y-82725099D01*
X121807870Y-82957898D01*
X121784025Y-83200000D01*
X120660000Y-83200000D01*
X120660000Y-66508665D01*
X131315000Y-66508665D01*
X131315000Y-66791335D01*
X131370147Y-67068574D01*
X131478320Y-67329727D01*
X131635363Y-67564759D01*
X131835241Y-67764637D01*
X132070273Y-67921680D01*
X132331426Y-68029853D01*
X132608665Y-68085000D01*
X132891335Y-68085000D01*
X133168574Y-68029853D01*
X133429727Y-67921680D01*
X133664759Y-67764637D01*
X133864637Y-67564759D01*
X134021680Y-67329727D01*
X134129853Y-67068574D01*
X134185000Y-66791335D01*
X134185000Y-66508665D01*
X134129853Y-66231426D01*
X134021680Y-65970273D01*
X133864637Y-65735241D01*
X133664759Y-65535363D01*
X133429727Y-65378320D01*
X133168574Y-65270147D01*
X132891335Y-65215000D01*
X132608665Y-65215000D01*
X132331426Y-65270147D01*
X132070273Y-65378320D01*
X131835241Y-65535363D01*
X131635363Y-65735241D01*
X131478320Y-65970273D01*
X131370147Y-66231426D01*
X131315000Y-66508665D01*
X120660000Y-66508665D01*
X120660000Y-62642702D01*
X131936903Y-62642702D01*
X132008486Y-62886671D01*
X132263996Y-63007571D01*
X132538184Y-63076300D01*
X132820512Y-63090217D01*
X133100130Y-63048787D01*
X133366292Y-62953603D01*
X133491514Y-62886671D01*
X133563097Y-62642702D01*
X132750000Y-61829605D01*
X131936903Y-62642702D01*
X120660000Y-62642702D01*
X120660000Y-61720512D01*
X131309783Y-61720512D01*
X131351213Y-62000130D01*
X131446397Y-62266292D01*
X131513329Y-62391514D01*
X131757298Y-62463097D01*
X132570395Y-61650000D01*
X132929605Y-61650000D01*
X133742702Y-62463097D01*
X133986671Y-62391514D01*
X134107571Y-62136004D01*
X134176300Y-61861816D01*
X134190217Y-61579488D01*
X134148787Y-61299870D01*
X134053603Y-61033708D01*
X133986671Y-60908486D01*
X133742702Y-60836903D01*
X132929605Y-61650000D01*
X132570395Y-61650000D01*
X131757298Y-60836903D01*
X131513329Y-60908486D01*
X131392429Y-61163996D01*
X131323700Y-61438184D01*
X131309783Y-61720512D01*
X120660000Y-61720512D01*
X120660000Y-60657298D01*
X131936903Y-60657298D01*
X132750000Y-61470395D01*
X133563097Y-60657298D01*
X133491514Y-60413329D01*
X133236004Y-60292429D01*
X132961816Y-60223700D01*
X132679488Y-60209783D01*
X132399870Y-60251213D01*
X132133708Y-60346397D01*
X132008486Y-60413329D01*
X131936903Y-60657298D01*
X120660000Y-60657298D01*
X120660000Y-50660000D01*
X144340001Y-50660000D01*
X144340001Y-78820557D01*
G37*
X144340001Y-78820557D02*
X144301898Y-78804774D01*
X144101939Y-78765000D01*
X143898061Y-78765000D01*
X143870235Y-78770535D01*
X143863163Y-77200548D01*
X143903937Y-77159774D01*
X144017205Y-76990256D01*
X144095226Y-76801898D01*
X144135000Y-76601939D01*
X144135000Y-76398061D01*
X144095226Y-76198102D01*
X144017205Y-76009744D01*
X143903937Y-75840226D01*
X143759774Y-75696063D01*
X143590256Y-75582795D01*
X143401898Y-75504774D01*
X143201939Y-75465000D01*
X142998061Y-75465000D01*
X142798102Y-75504774D01*
X142609744Y-75582795D01*
X142440226Y-75696063D01*
X142296063Y-75840226D01*
X142182795Y-76009744D01*
X142104774Y-76198102D01*
X142065000Y-76398061D01*
X142065000Y-76601939D01*
X142104774Y-76801898D01*
X142182795Y-76990256D01*
X142296063Y-77159774D01*
X142343177Y-77206888D01*
X142372938Y-83813887D01*
X142324482Y-83799188D01*
X142200000Y-83786928D01*
X141885750Y-83790000D01*
X141727000Y-83948750D01*
X141727000Y-85173000D01*
X141747000Y-85173000D01*
X141747000Y-85427000D01*
X141727000Y-85427000D01*
X141727000Y-86651250D01*
X141885750Y-86810000D01*
X142200000Y-86813072D01*
X142324482Y-86800812D01*
X142386308Y-86782057D01*
X142436837Y-97999452D01*
X142396063Y-98040226D01*
X142282795Y-98209744D01*
X142204774Y-98398102D01*
X142165000Y-98598061D01*
X142165000Y-98801939D01*
X142204774Y-99001898D01*
X142282795Y-99190256D01*
X142396063Y-99359774D01*
X142433620Y-99397331D01*
X142419452Y-100953343D01*
X142380533Y-100927579D01*
X142155282Y-100835409D01*
X142117609Y-100831538D01*
X141927000Y-100956269D01*
X141927000Y-102173000D01*
X141947000Y-102173000D01*
X141947000Y-102427000D01*
X141927000Y-102427000D01*
X141927000Y-103643731D01*
X142117609Y-103768462D01*
X142155282Y-103764591D01*
X142380533Y-103672421D01*
X142394781Y-103662989D01*
X142369668Y-106421144D01*
X142354757Y-108017032D01*
X142155282Y-107935409D01*
X142117609Y-107931538D01*
X141927000Y-108056269D01*
X141927000Y-109273000D01*
X141947000Y-109273000D01*
X141947000Y-109527000D01*
X141927000Y-109527000D01*
X141927000Y-110743731D01*
X142117609Y-110868462D01*
X142155282Y-110864591D01*
X142340001Y-110789006D01*
X142340000Y-112876549D01*
X142198102Y-112904774D01*
X142009744Y-112982795D01*
X141840226Y-113096063D01*
X141696063Y-113240226D01*
X141582795Y-113409744D01*
X141504774Y-113598102D01*
X141465000Y-113798061D01*
X141465000Y-114001939D01*
X141504774Y-114201898D01*
X141582795Y-114390256D01*
X141696063Y-114559774D01*
X141740000Y-114603711D01*
X141740001Y-146540000D01*
X122660000Y-146540000D01*
X122660000Y-138392702D01*
X132186903Y-138392702D01*
X132258486Y-138636671D01*
X132513996Y-138757571D01*
X132788184Y-138826300D01*
X133070512Y-138840217D01*
X133350130Y-138798787D01*
X133616292Y-138703603D01*
X133741514Y-138636671D01*
X133813097Y-138392702D01*
X133000000Y-137579605D01*
X132186903Y-138392702D01*
X122660000Y-138392702D01*
X122660000Y-137470512D01*
X131559783Y-137470512D01*
X131601213Y-137750130D01*
X131696397Y-138016292D01*
X131763329Y-138141514D01*
X132007298Y-138213097D01*
X132820395Y-137400000D01*
X133179605Y-137400000D01*
X133992702Y-138213097D01*
X134236671Y-138141514D01*
X134357571Y-137886004D01*
X134426300Y-137611816D01*
X134440217Y-137329488D01*
X134398787Y-137049870D01*
X134303603Y-136783708D01*
X134236671Y-136658486D01*
X133992702Y-136586903D01*
X133179605Y-137400000D01*
X132820395Y-137400000D01*
X132007298Y-136586903D01*
X131763329Y-136658486D01*
X131642429Y-136913996D01*
X131573700Y-137188184D01*
X131559783Y-137470512D01*
X122660000Y-137470512D01*
X122660000Y-136407298D01*
X132186903Y-136407298D01*
X133000000Y-137220395D01*
X133813097Y-136407298D01*
X133741514Y-136163329D01*
X133486004Y-136042429D01*
X133211816Y-135973700D01*
X132929488Y-135959783D01*
X132649870Y-136001213D01*
X132383708Y-136096397D01*
X132258486Y-136163329D01*
X132186903Y-136407298D01*
X122660000Y-136407298D01*
X122660000Y-132258665D01*
X131565000Y-132258665D01*
X131565000Y-132541335D01*
X131620147Y-132818574D01*
X131728320Y-133079727D01*
X131885363Y-133314759D01*
X132085241Y-133514637D01*
X132320273Y-133671680D01*
X132581426Y-133779853D01*
X132858665Y-133835000D01*
X133141335Y-133835000D01*
X133418574Y-133779853D01*
X133679727Y-133671680D01*
X133914759Y-133514637D01*
X134114637Y-133314759D01*
X134271680Y-133079727D01*
X134379853Y-132818574D01*
X134435000Y-132541335D01*
X134435000Y-132258665D01*
X134379853Y-131981426D01*
X134271680Y-131720273D01*
X134114637Y-131485241D01*
X133914759Y-131285363D01*
X133679727Y-131128320D01*
X133418574Y-131020147D01*
X133141335Y-130965000D01*
X132858665Y-130965000D01*
X132581426Y-131020147D01*
X132320273Y-131128320D01*
X132085241Y-131285363D01*
X131885363Y-131485241D01*
X131728320Y-131720273D01*
X131620147Y-131981426D01*
X131565000Y-132258665D01*
X122660000Y-132258665D01*
X122660000Y-115793631D01*
X122686595Y-115843387D01*
X122797038Y-115977962D01*
X122931613Y-116088405D01*
X123085149Y-116170472D01*
X123251745Y-116221008D01*
X123424999Y-116238072D01*
X124675001Y-116238072D01*
X124848255Y-116221008D01*
X125014851Y-116170472D01*
X125168387Y-116088405D01*
X125302962Y-115977962D01*
X125413405Y-115843387D01*
X125495472Y-115689851D01*
X125546008Y-115523255D01*
X125563072Y-115350001D01*
X125563072Y-114649999D01*
X125546008Y-114476745D01*
X125495472Y-114310149D01*
X125413405Y-114156613D01*
X125302962Y-114022038D01*
X125168387Y-113911595D01*
X125163594Y-113909033D01*
X125288078Y-113783474D01*
X125422421Y-113580533D01*
X125514591Y-113355282D01*
X125518462Y-113317609D01*
X125393731Y-113127000D01*
X124177000Y-113127000D01*
X124177000Y-113147000D01*
X123923000Y-113147000D01*
X123923000Y-113127000D01*
X123903000Y-113127000D01*
X123903000Y-112873000D01*
X123923000Y-112873000D01*
X123923000Y-111765000D01*
X124177000Y-111765000D01*
X124177000Y-112873000D01*
X125393731Y-112873000D01*
X125518462Y-112682391D01*
X125514591Y-112644718D01*
X125422421Y-112419467D01*
X125288078Y-112216526D01*
X125116725Y-112043693D01*
X124914946Y-111907610D01*
X124690496Y-111813507D01*
X124452000Y-111765000D01*
X124177000Y-111765000D01*
X123923000Y-111765000D01*
X123648000Y-111765000D01*
X123409504Y-111813507D01*
X123185054Y-111907610D01*
X122983275Y-112043693D01*
X122811922Y-112216526D01*
X122677579Y-112419467D01*
X122660000Y-112462428D01*
X122660000Y-108774999D01*
X138561928Y-108774999D01*
X138561928Y-110025001D01*
X138578992Y-110198255D01*
X138629528Y-110364851D01*
X138711595Y-110518387D01*
X138822038Y-110652962D01*
X138956613Y-110763405D01*
X139110149Y-110845472D01*
X139276745Y-110896008D01*
X139449999Y-110913072D01*
X140150001Y-110913072D01*
X140323255Y-110896008D01*
X140489851Y-110845472D01*
X140643387Y-110763405D01*
X140777962Y-110652962D01*
X140888405Y-110518387D01*
X140890967Y-110513594D01*
X141016526Y-110638078D01*
X141219467Y-110772421D01*
X141444718Y-110864591D01*
X141482391Y-110868462D01*
X141673000Y-110743731D01*
X141673000Y-109527000D01*
X141653000Y-109527000D01*
X141653000Y-109273000D01*
X141673000Y-109273000D01*
X141673000Y-108056269D01*
X141482391Y-107931538D01*
X141444718Y-107935409D01*
X141219467Y-108027579D01*
X141016526Y-108161922D01*
X140890967Y-108286406D01*
X140888405Y-108281613D01*
X140777962Y-108147038D01*
X140643387Y-108036595D01*
X140489851Y-107954528D01*
X140323255Y-107903992D01*
X140150001Y-107886928D01*
X139449999Y-107886928D01*
X139276745Y-107903992D01*
X139110149Y-107954528D01*
X138956613Y-108036595D01*
X138822038Y-108147038D01*
X138711595Y-108281613D01*
X138629528Y-108435149D01*
X138578992Y-108601745D01*
X138561928Y-108774999D01*
X122660000Y-108774999D01*
X122660000Y-108260000D01*
X123962678Y-108260000D01*
X124000000Y-108263676D01*
X124037322Y-108260000D01*
X124037333Y-108260000D01*
X124148986Y-108249003D01*
X124292247Y-108205546D01*
X124424276Y-108134974D01*
X124540001Y-108040001D01*
X124563804Y-108010997D01*
X125939802Y-106635000D01*
X126001939Y-106635000D01*
X126201898Y-106595226D01*
X126390256Y-106517205D01*
X126559774Y-106403937D01*
X126703937Y-106259774D01*
X126817205Y-106090256D01*
X126895226Y-105901898D01*
X126935000Y-105701939D01*
X126935000Y-105498061D01*
X126895226Y-105298102D01*
X126817205Y-105109744D01*
X126703937Y-104940226D01*
X126559774Y-104796063D01*
X126390256Y-104682795D01*
X126201898Y-104604774D01*
X126001939Y-104565000D01*
X125798061Y-104565000D01*
X125598102Y-104604774D01*
X125409744Y-104682795D01*
X125240226Y-104796063D01*
X125096063Y-104940226D01*
X124982795Y-105109744D01*
X124904774Y-105298102D01*
X124865000Y-105498061D01*
X124865000Y-105560198D01*
X123685199Y-106740000D01*
X121937333Y-106740000D01*
X121900000Y-106736323D01*
X121862667Y-106740000D01*
X121751014Y-106750997D01*
X121607753Y-106794454D01*
X121475724Y-106865026D01*
X121359999Y-106959999D01*
X121265026Y-107075724D01*
X121194454Y-107207753D01*
X121150997Y-107351014D01*
X121136323Y-107500000D01*
X121140001Y-107537343D01*
X121140000Y-147262667D01*
X121136323Y-147300000D01*
X121150997Y-147448986D01*
X121194454Y-147592247D01*
X121265026Y-147724276D01*
X121359999Y-147840001D01*
X121475724Y-147934974D01*
X121607753Y-148005546D01*
X121751014Y-148049003D01*
X121900000Y-148063677D01*
X121937333Y-148060000D01*
X142462667Y-148060000D01*
X142500000Y-148063677D01*
X142648986Y-148049003D01*
X142792247Y-148005546D01*
X142924276Y-147934974D01*
X143040001Y-147840001D01*
X143134974Y-147724276D01*
X143205546Y-147592247D01*
X143249003Y-147448986D01*
X143260000Y-147337333D01*
X143260000Y-147337332D01*
X143263677Y-147300000D01*
X143260000Y-147262667D01*
X143260000Y-129207538D01*
X143398061Y-129235000D01*
X143601939Y-129235000D01*
X143801898Y-129195226D01*
X143990256Y-129117205D01*
X144159774Y-129003937D01*
X144303937Y-128859774D01*
X144340000Y-128805801D01*
X144340000Y-149340000D01*
X120660000Y-149340000D01*
X120660000Y-101674999D01*
X138561928Y-101674999D01*
X138561928Y-102925001D01*
X138578992Y-103098255D01*
X138629528Y-103264851D01*
X138711595Y-103418387D01*
X138822038Y-103552962D01*
X138956613Y-103663405D01*
X139110149Y-103745472D01*
X139276745Y-103796008D01*
X139449999Y-103813072D01*
X140150001Y-103813072D01*
X140323255Y-103796008D01*
X140489851Y-103745472D01*
X140643387Y-103663405D01*
X140777962Y-103552962D01*
X140888405Y-103418387D01*
X140890967Y-103413594D01*
X141016526Y-103538078D01*
X141219467Y-103672421D01*
X141444718Y-103764591D01*
X141482391Y-103768462D01*
X141673000Y-103643731D01*
X141673000Y-102427000D01*
X141653000Y-102427000D01*
X141653000Y-102173000D01*
X141673000Y-102173000D01*
X141673000Y-100956269D01*
X141482391Y-100831538D01*
X141444718Y-100835409D01*
X141219467Y-100927579D01*
X141016526Y-101061922D01*
X140890967Y-101186406D01*
X140888405Y-101181613D01*
X140777962Y-101047038D01*
X140643387Y-100936595D01*
X140489851Y-100854528D01*
X140323255Y-100803992D01*
X140150001Y-100786928D01*
X139449999Y-100786928D01*
X139276745Y-100803992D01*
X139110149Y-100854528D01*
X138956613Y-100936595D01*
X138822038Y-101047038D01*
X138711595Y-101181613D01*
X138629528Y-101335149D01*
X138578992Y-101501745D01*
X138561928Y-101674999D01*
X120660000Y-101674999D01*
X120660000Y-85800000D01*
X121786928Y-85800000D01*
X121799188Y-85924482D01*
X121835498Y-86044180D01*
X121894463Y-86154494D01*
X121973815Y-86251185D01*
X122070506Y-86330537D01*
X122180820Y-86389502D01*
X122300518Y-86425812D01*
X122425000Y-86438072D01*
X123014250Y-86435000D01*
X123173000Y-86276250D01*
X123173000Y-85327000D01*
X123427000Y-85327000D01*
X123427000Y-86276250D01*
X123585750Y-86435000D01*
X124175000Y-86438072D01*
X124299482Y-86425812D01*
X124419180Y-86389502D01*
X124529494Y-86330537D01*
X124626185Y-86251185D01*
X124705537Y-86154494D01*
X124764502Y-86044180D01*
X124800812Y-85924482D01*
X124813072Y-85800000D01*
X124810000Y-85485750D01*
X124651250Y-85327000D01*
X123427000Y-85327000D01*
X123173000Y-85327000D01*
X121948750Y-85327000D01*
X121790000Y-85485750D01*
X121786928Y-85800000D01*
X120660000Y-85800000D01*
X120660000Y-83200000D01*
X121784025Y-83200000D01*
X121807870Y-83442102D01*
X121878489Y-83674901D01*
X121993167Y-83889449D01*
X122119436Y-84043309D01*
X122070506Y-84069463D01*
X121973815Y-84148815D01*
X121894463Y-84245506D01*
X121835498Y-84355820D01*
X121799188Y-84475518D01*
X121786928Y-84600000D01*
X121790000Y-84914250D01*
X121948750Y-85073000D01*
X123173000Y-85073000D01*
X123173000Y-85053000D01*
X123427000Y-85053000D01*
X123427000Y-85073000D01*
X124651250Y-85073000D01*
X124759915Y-84964335D01*
X138365000Y-84964335D01*
X138365000Y-85635664D01*
X138382870Y-85817101D01*
X138453489Y-86049900D01*
X138568167Y-86264448D01*
X138722498Y-86452502D01*
X138910551Y-86606833D01*
X139125099Y-86721511D01*
X139357898Y-86792130D01*
X139600000Y-86815975D01*
X139842101Y-86792130D01*
X140074900Y-86721511D01*
X140289448Y-86606833D01*
X140443309Y-86480564D01*
X140469463Y-86529494D01*
X140548815Y-86626185D01*
X140645506Y-86705537D01*
X140755820Y-86764502D01*
X140875518Y-86800812D01*
X141000000Y-86813072D01*
X141314250Y-86810000D01*
X141473000Y-86651250D01*
X141473000Y-85427000D01*
X141453000Y-85427000D01*
X141453000Y-85173000D01*
X141473000Y-85173000D01*
X141473000Y-83948750D01*
X141314250Y-83790000D01*
X141000000Y-83786928D01*
X140875518Y-83799188D01*
X140755820Y-83835498D01*
X140645506Y-83894463D01*
X140548815Y-83973815D01*
X140469463Y-84070506D01*
X140443309Y-84119436D01*
X140289449Y-83993167D01*
X140074901Y-83878489D01*
X139842102Y-83807870D01*
X139600000Y-83784025D01*
X139357899Y-83807870D01*
X139125100Y-83878489D01*
X138910552Y-83993167D01*
X138722499Y-84147498D01*
X138568168Y-84335551D01*
X138453489Y-84550099D01*
X138382870Y-84782898D01*
X138365000Y-84964335D01*
X124759915Y-84964335D01*
X124810000Y-84914250D01*
X124813072Y-84600000D01*
X124800812Y-84475518D01*
X124764502Y-84355820D01*
X124705537Y-84245506D01*
X124626185Y-84148815D01*
X124529494Y-84069463D01*
X124480564Y-84043309D01*
X124606833Y-83889449D01*
X124721511Y-83674901D01*
X124792130Y-83442102D01*
X124815975Y-83200000D01*
X124792130Y-82957898D01*
X124721511Y-82725099D01*
X124606833Y-82510551D01*
X124452502Y-82322498D01*
X124264449Y-82168167D01*
X124049901Y-82053489D01*
X123817102Y-81982870D01*
X123635665Y-81965000D01*
X122964335Y-81965000D01*
X122782898Y-81982870D01*
X122550099Y-82053489D01*
X122335551Y-82168167D01*
X122147498Y-82322498D01*
X121993167Y-82510551D01*
X121878489Y-82725099D01*
X121807870Y-82957898D01*
X121784025Y-83200000D01*
X120660000Y-83200000D01*
X120660000Y-66508665D01*
X131315000Y-66508665D01*
X131315000Y-66791335D01*
X131370147Y-67068574D01*
X131478320Y-67329727D01*
X131635363Y-67564759D01*
X131835241Y-67764637D01*
X132070273Y-67921680D01*
X132331426Y-68029853D01*
X132608665Y-68085000D01*
X132891335Y-68085000D01*
X133168574Y-68029853D01*
X133429727Y-67921680D01*
X133664759Y-67764637D01*
X133864637Y-67564759D01*
X134021680Y-67329727D01*
X134129853Y-67068574D01*
X134185000Y-66791335D01*
X134185000Y-66508665D01*
X134129853Y-66231426D01*
X134021680Y-65970273D01*
X133864637Y-65735241D01*
X133664759Y-65535363D01*
X133429727Y-65378320D01*
X133168574Y-65270147D01*
X132891335Y-65215000D01*
X132608665Y-65215000D01*
X132331426Y-65270147D01*
X132070273Y-65378320D01*
X131835241Y-65535363D01*
X131635363Y-65735241D01*
X131478320Y-65970273D01*
X131370147Y-66231426D01*
X131315000Y-66508665D01*
X120660000Y-66508665D01*
X120660000Y-62642702D01*
X131936903Y-62642702D01*
X132008486Y-62886671D01*
X132263996Y-63007571D01*
X132538184Y-63076300D01*
X132820512Y-63090217D01*
X133100130Y-63048787D01*
X133366292Y-62953603D01*
X133491514Y-62886671D01*
X133563097Y-62642702D01*
X132750000Y-61829605D01*
X131936903Y-62642702D01*
X120660000Y-62642702D01*
X120660000Y-61720512D01*
X131309783Y-61720512D01*
X131351213Y-62000130D01*
X131446397Y-62266292D01*
X131513329Y-62391514D01*
X131757298Y-62463097D01*
X132570395Y-61650000D01*
X132929605Y-61650000D01*
X133742702Y-62463097D01*
X133986671Y-62391514D01*
X134107571Y-62136004D01*
X134176300Y-61861816D01*
X134190217Y-61579488D01*
X134148787Y-61299870D01*
X134053603Y-61033708D01*
X133986671Y-60908486D01*
X133742702Y-60836903D01*
X132929605Y-61650000D01*
X132570395Y-61650000D01*
X131757298Y-60836903D01*
X131513329Y-60908486D01*
X131392429Y-61163996D01*
X131323700Y-61438184D01*
X131309783Y-61720512D01*
X120660000Y-61720512D01*
X120660000Y-60657298D01*
X131936903Y-60657298D01*
X132750000Y-61470395D01*
X133563097Y-60657298D01*
X133491514Y-60413329D01*
X133236004Y-60292429D01*
X132961816Y-60223700D01*
X132679488Y-60209783D01*
X132399870Y-60251213D01*
X132133708Y-60346397D01*
X132008486Y-60413329D01*
X131936903Y-60657298D01*
X120660000Y-60657298D01*
X120660000Y-50660000D01*
X144340001Y-50660000D01*
X144340001Y-78820557D01*
M02*
