G04 #@! TF.GenerationSoftware,KiCad,Pcbnew,(5.1.5-0)*
G04 #@! TF.CreationDate,2021-01-21T21:28:00-07:00*
G04 #@! TF.ProjectId,supercap,73757065-7263-4617-902e-6b696361645f,rev?*
G04 #@! TF.SameCoordinates,Original*
G04 #@! TF.FileFunction,Paste,Top*
G04 #@! TF.FilePolarity,Positive*
%FSLAX46Y46*%
G04 Gerber Fmt 4.6, Leading zero omitted, Abs format (unit mm)*
G04 Created by KiCad (PCBNEW (5.1.5-0)) date 2021-01-21 21:28:00*
%MOMM*%
%LPD*%
G04 APERTURE LIST*
%ADD10R,0.800000X1.200000*%
%ADD11C,0.100000*%
%ADD12R,0.900000X0.800000*%
%ADD13R,0.450000X0.600000*%
%ADD14R,1.200000X0.800000*%
%ADD15R,0.600000X0.450000*%
G04 APERTURE END LIST*
D10*
X130420000Y-92900000D03*
X130420000Y-98900000D03*
X127880000Y-98900000D03*
X127880000Y-92900000D03*
D11*
G36*
X123285779Y-98426144D02*
G01*
X123308834Y-98429563D01*
X123331443Y-98435227D01*
X123353387Y-98443079D01*
X123374457Y-98453044D01*
X123394448Y-98465026D01*
X123413168Y-98478910D01*
X123430438Y-98494562D01*
X123446090Y-98511832D01*
X123459974Y-98530552D01*
X123471956Y-98550543D01*
X123481921Y-98571613D01*
X123489773Y-98593557D01*
X123495437Y-98616166D01*
X123498856Y-98639221D01*
X123500000Y-98662500D01*
X123500000Y-99137500D01*
X123498856Y-99160779D01*
X123495437Y-99183834D01*
X123489773Y-99206443D01*
X123481921Y-99228387D01*
X123471956Y-99249457D01*
X123459974Y-99269448D01*
X123446090Y-99288168D01*
X123430438Y-99305438D01*
X123413168Y-99321090D01*
X123394448Y-99334974D01*
X123374457Y-99346956D01*
X123353387Y-99356921D01*
X123331443Y-99364773D01*
X123308834Y-99370437D01*
X123285779Y-99373856D01*
X123262500Y-99375000D01*
X122687500Y-99375000D01*
X122664221Y-99373856D01*
X122641166Y-99370437D01*
X122618557Y-99364773D01*
X122596613Y-99356921D01*
X122575543Y-99346956D01*
X122555552Y-99334974D01*
X122536832Y-99321090D01*
X122519562Y-99305438D01*
X122503910Y-99288168D01*
X122490026Y-99269448D01*
X122478044Y-99249457D01*
X122468079Y-99228387D01*
X122460227Y-99206443D01*
X122454563Y-99183834D01*
X122451144Y-99160779D01*
X122450000Y-99137500D01*
X122450000Y-98662500D01*
X122451144Y-98639221D01*
X122454563Y-98616166D01*
X122460227Y-98593557D01*
X122468079Y-98571613D01*
X122478044Y-98550543D01*
X122490026Y-98530552D01*
X122503910Y-98511832D01*
X122519562Y-98494562D01*
X122536832Y-98478910D01*
X122555552Y-98465026D01*
X122575543Y-98453044D01*
X122596613Y-98443079D01*
X122618557Y-98435227D01*
X122641166Y-98429563D01*
X122664221Y-98426144D01*
X122687500Y-98425000D01*
X123262500Y-98425000D01*
X123285779Y-98426144D01*
G37*
G36*
X125035779Y-98426144D02*
G01*
X125058834Y-98429563D01*
X125081443Y-98435227D01*
X125103387Y-98443079D01*
X125124457Y-98453044D01*
X125144448Y-98465026D01*
X125163168Y-98478910D01*
X125180438Y-98494562D01*
X125196090Y-98511832D01*
X125209974Y-98530552D01*
X125221956Y-98550543D01*
X125231921Y-98571613D01*
X125239773Y-98593557D01*
X125245437Y-98616166D01*
X125248856Y-98639221D01*
X125250000Y-98662500D01*
X125250000Y-99137500D01*
X125248856Y-99160779D01*
X125245437Y-99183834D01*
X125239773Y-99206443D01*
X125231921Y-99228387D01*
X125221956Y-99249457D01*
X125209974Y-99269448D01*
X125196090Y-99288168D01*
X125180438Y-99305438D01*
X125163168Y-99321090D01*
X125144448Y-99334974D01*
X125124457Y-99346956D01*
X125103387Y-99356921D01*
X125081443Y-99364773D01*
X125058834Y-99370437D01*
X125035779Y-99373856D01*
X125012500Y-99375000D01*
X124437500Y-99375000D01*
X124414221Y-99373856D01*
X124391166Y-99370437D01*
X124368557Y-99364773D01*
X124346613Y-99356921D01*
X124325543Y-99346956D01*
X124305552Y-99334974D01*
X124286832Y-99321090D01*
X124269562Y-99305438D01*
X124253910Y-99288168D01*
X124240026Y-99269448D01*
X124228044Y-99249457D01*
X124218079Y-99228387D01*
X124210227Y-99206443D01*
X124204563Y-99183834D01*
X124201144Y-99160779D01*
X124200000Y-99137500D01*
X124200000Y-98662500D01*
X124201144Y-98639221D01*
X124204563Y-98616166D01*
X124210227Y-98593557D01*
X124218079Y-98571613D01*
X124228044Y-98550543D01*
X124240026Y-98530552D01*
X124253910Y-98511832D01*
X124269562Y-98494562D01*
X124286832Y-98478910D01*
X124305552Y-98465026D01*
X124325543Y-98453044D01*
X124346613Y-98443079D01*
X124368557Y-98435227D01*
X124391166Y-98429563D01*
X124414221Y-98426144D01*
X124437500Y-98425000D01*
X125012500Y-98425000D01*
X125035779Y-98426144D01*
G37*
G36*
X143624505Y-94651204D02*
G01*
X143648773Y-94654804D01*
X143672572Y-94660765D01*
X143695671Y-94669030D01*
X143717850Y-94679520D01*
X143738893Y-94692132D01*
X143758599Y-94706747D01*
X143776777Y-94723223D01*
X143793253Y-94741401D01*
X143807868Y-94761107D01*
X143820480Y-94782150D01*
X143830970Y-94804329D01*
X143839235Y-94827428D01*
X143845196Y-94851227D01*
X143848796Y-94875495D01*
X143850000Y-94899999D01*
X143850000Y-95600001D01*
X143848796Y-95624505D01*
X143845196Y-95648773D01*
X143839235Y-95672572D01*
X143830970Y-95695671D01*
X143820480Y-95717850D01*
X143807868Y-95738893D01*
X143793253Y-95758599D01*
X143776777Y-95776777D01*
X143758599Y-95793253D01*
X143738893Y-95807868D01*
X143717850Y-95820480D01*
X143695671Y-95830970D01*
X143672572Y-95839235D01*
X143648773Y-95845196D01*
X143624505Y-95848796D01*
X143600001Y-95850000D01*
X142299999Y-95850000D01*
X142275495Y-95848796D01*
X142251227Y-95845196D01*
X142227428Y-95839235D01*
X142204329Y-95830970D01*
X142182150Y-95820480D01*
X142161107Y-95807868D01*
X142141401Y-95793253D01*
X142123223Y-95776777D01*
X142106747Y-95758599D01*
X142092132Y-95738893D01*
X142079520Y-95717850D01*
X142069030Y-95695671D01*
X142060765Y-95672572D01*
X142054804Y-95648773D01*
X142051204Y-95624505D01*
X142050000Y-95600001D01*
X142050000Y-94899999D01*
X142051204Y-94875495D01*
X142054804Y-94851227D01*
X142060765Y-94827428D01*
X142069030Y-94804329D01*
X142079520Y-94782150D01*
X142092132Y-94761107D01*
X142106747Y-94741401D01*
X142123223Y-94723223D01*
X142141401Y-94706747D01*
X142161107Y-94692132D01*
X142182150Y-94679520D01*
X142204329Y-94669030D01*
X142227428Y-94660765D01*
X142251227Y-94654804D01*
X142275495Y-94651204D01*
X142299999Y-94650000D01*
X143600001Y-94650000D01*
X143624505Y-94651204D01*
G37*
G36*
X143624505Y-89051204D02*
G01*
X143648773Y-89054804D01*
X143672572Y-89060765D01*
X143695671Y-89069030D01*
X143717850Y-89079520D01*
X143738893Y-89092132D01*
X143758599Y-89106747D01*
X143776777Y-89123223D01*
X143793253Y-89141401D01*
X143807868Y-89161107D01*
X143820480Y-89182150D01*
X143830970Y-89204329D01*
X143839235Y-89227428D01*
X143845196Y-89251227D01*
X143848796Y-89275495D01*
X143850000Y-89299999D01*
X143850000Y-90000001D01*
X143848796Y-90024505D01*
X143845196Y-90048773D01*
X143839235Y-90072572D01*
X143830970Y-90095671D01*
X143820480Y-90117850D01*
X143807868Y-90138893D01*
X143793253Y-90158599D01*
X143776777Y-90176777D01*
X143758599Y-90193253D01*
X143738893Y-90207868D01*
X143717850Y-90220480D01*
X143695671Y-90230970D01*
X143672572Y-90239235D01*
X143648773Y-90245196D01*
X143624505Y-90248796D01*
X143600001Y-90250000D01*
X142299999Y-90250000D01*
X142275495Y-90248796D01*
X142251227Y-90245196D01*
X142227428Y-90239235D01*
X142204329Y-90230970D01*
X142182150Y-90220480D01*
X142161107Y-90207868D01*
X142141401Y-90193253D01*
X142123223Y-90176777D01*
X142106747Y-90158599D01*
X142092132Y-90138893D01*
X142079520Y-90117850D01*
X142069030Y-90095671D01*
X142060765Y-90072572D01*
X142054804Y-90048773D01*
X142051204Y-90024505D01*
X142050000Y-90000001D01*
X142050000Y-89299999D01*
X142051204Y-89275495D01*
X142054804Y-89251227D01*
X142060765Y-89227428D01*
X142069030Y-89204329D01*
X142079520Y-89182150D01*
X142092132Y-89161107D01*
X142106747Y-89141401D01*
X142123223Y-89123223D01*
X142141401Y-89106747D01*
X142161107Y-89092132D01*
X142182150Y-89079520D01*
X142204329Y-89069030D01*
X142227428Y-89060765D01*
X142251227Y-89054804D01*
X142275495Y-89051204D01*
X142299999Y-89050000D01*
X143600001Y-89050000D01*
X143624505Y-89051204D01*
G37*
G36*
X141064703Y-93650722D02*
G01*
X141079264Y-93652882D01*
X141093543Y-93656459D01*
X141107403Y-93661418D01*
X141120710Y-93667712D01*
X141133336Y-93675280D01*
X141145159Y-93684048D01*
X141156066Y-93693934D01*
X141165952Y-93704841D01*
X141174720Y-93716664D01*
X141182288Y-93729290D01*
X141188582Y-93742597D01*
X141193541Y-93756457D01*
X141197118Y-93770736D01*
X141199278Y-93785297D01*
X141200000Y-93800000D01*
X141200000Y-94100000D01*
X141199278Y-94114703D01*
X141197118Y-94129264D01*
X141193541Y-94143543D01*
X141188582Y-94157403D01*
X141182288Y-94170710D01*
X141174720Y-94183336D01*
X141165952Y-94195159D01*
X141156066Y-94206066D01*
X141145159Y-94215952D01*
X141133336Y-94224720D01*
X141120710Y-94232288D01*
X141107403Y-94238582D01*
X141093543Y-94243541D01*
X141079264Y-94247118D01*
X141064703Y-94249278D01*
X141050000Y-94250000D01*
X139800000Y-94250000D01*
X139785297Y-94249278D01*
X139770736Y-94247118D01*
X139756457Y-94243541D01*
X139742597Y-94238582D01*
X139729290Y-94232288D01*
X139716664Y-94224720D01*
X139704841Y-94215952D01*
X139693934Y-94206066D01*
X139684048Y-94195159D01*
X139675280Y-94183336D01*
X139667712Y-94170710D01*
X139661418Y-94157403D01*
X139656459Y-94143543D01*
X139652882Y-94129264D01*
X139650722Y-94114703D01*
X139650000Y-94100000D01*
X139650000Y-93800000D01*
X139650722Y-93785297D01*
X139652882Y-93770736D01*
X139656459Y-93756457D01*
X139661418Y-93742597D01*
X139667712Y-93729290D01*
X139675280Y-93716664D01*
X139684048Y-93704841D01*
X139693934Y-93693934D01*
X139704841Y-93684048D01*
X139716664Y-93675280D01*
X139729290Y-93667712D01*
X139742597Y-93661418D01*
X139756457Y-93656459D01*
X139770736Y-93652882D01*
X139785297Y-93650722D01*
X139800000Y-93650000D01*
X141050000Y-93650000D01*
X141064703Y-93650722D01*
G37*
G36*
X141064703Y-92650722D02*
G01*
X141079264Y-92652882D01*
X141093543Y-92656459D01*
X141107403Y-92661418D01*
X141120710Y-92667712D01*
X141133336Y-92675280D01*
X141145159Y-92684048D01*
X141156066Y-92693934D01*
X141165952Y-92704841D01*
X141174720Y-92716664D01*
X141182288Y-92729290D01*
X141188582Y-92742597D01*
X141193541Y-92756457D01*
X141197118Y-92770736D01*
X141199278Y-92785297D01*
X141200000Y-92800000D01*
X141200000Y-93100000D01*
X141199278Y-93114703D01*
X141197118Y-93129264D01*
X141193541Y-93143543D01*
X141188582Y-93157403D01*
X141182288Y-93170710D01*
X141174720Y-93183336D01*
X141165952Y-93195159D01*
X141156066Y-93206066D01*
X141145159Y-93215952D01*
X141133336Y-93224720D01*
X141120710Y-93232288D01*
X141107403Y-93238582D01*
X141093543Y-93243541D01*
X141079264Y-93247118D01*
X141064703Y-93249278D01*
X141050000Y-93250000D01*
X139800000Y-93250000D01*
X139785297Y-93249278D01*
X139770736Y-93247118D01*
X139756457Y-93243541D01*
X139742597Y-93238582D01*
X139729290Y-93232288D01*
X139716664Y-93224720D01*
X139704841Y-93215952D01*
X139693934Y-93206066D01*
X139684048Y-93195159D01*
X139675280Y-93183336D01*
X139667712Y-93170710D01*
X139661418Y-93157403D01*
X139656459Y-93143543D01*
X139652882Y-93129264D01*
X139650722Y-93114703D01*
X139650000Y-93100000D01*
X139650000Y-92800000D01*
X139650722Y-92785297D01*
X139652882Y-92770736D01*
X139656459Y-92756457D01*
X139661418Y-92742597D01*
X139667712Y-92729290D01*
X139675280Y-92716664D01*
X139684048Y-92704841D01*
X139693934Y-92693934D01*
X139704841Y-92684048D01*
X139716664Y-92675280D01*
X139729290Y-92667712D01*
X139742597Y-92661418D01*
X139756457Y-92656459D01*
X139770736Y-92652882D01*
X139785297Y-92650722D01*
X139800000Y-92650000D01*
X141050000Y-92650000D01*
X141064703Y-92650722D01*
G37*
G36*
X141064703Y-91650722D02*
G01*
X141079264Y-91652882D01*
X141093543Y-91656459D01*
X141107403Y-91661418D01*
X141120710Y-91667712D01*
X141133336Y-91675280D01*
X141145159Y-91684048D01*
X141156066Y-91693934D01*
X141165952Y-91704841D01*
X141174720Y-91716664D01*
X141182288Y-91729290D01*
X141188582Y-91742597D01*
X141193541Y-91756457D01*
X141197118Y-91770736D01*
X141199278Y-91785297D01*
X141200000Y-91800000D01*
X141200000Y-92100000D01*
X141199278Y-92114703D01*
X141197118Y-92129264D01*
X141193541Y-92143543D01*
X141188582Y-92157403D01*
X141182288Y-92170710D01*
X141174720Y-92183336D01*
X141165952Y-92195159D01*
X141156066Y-92206066D01*
X141145159Y-92215952D01*
X141133336Y-92224720D01*
X141120710Y-92232288D01*
X141107403Y-92238582D01*
X141093543Y-92243541D01*
X141079264Y-92247118D01*
X141064703Y-92249278D01*
X141050000Y-92250000D01*
X139800000Y-92250000D01*
X139785297Y-92249278D01*
X139770736Y-92247118D01*
X139756457Y-92243541D01*
X139742597Y-92238582D01*
X139729290Y-92232288D01*
X139716664Y-92224720D01*
X139704841Y-92215952D01*
X139693934Y-92206066D01*
X139684048Y-92195159D01*
X139675280Y-92183336D01*
X139667712Y-92170710D01*
X139661418Y-92157403D01*
X139656459Y-92143543D01*
X139652882Y-92129264D01*
X139650722Y-92114703D01*
X139650000Y-92100000D01*
X139650000Y-91800000D01*
X139650722Y-91785297D01*
X139652882Y-91770736D01*
X139656459Y-91756457D01*
X139661418Y-91742597D01*
X139667712Y-91729290D01*
X139675280Y-91716664D01*
X139684048Y-91704841D01*
X139693934Y-91693934D01*
X139704841Y-91684048D01*
X139716664Y-91675280D01*
X139729290Y-91667712D01*
X139742597Y-91661418D01*
X139756457Y-91656459D01*
X139770736Y-91652882D01*
X139785297Y-91650722D01*
X139800000Y-91650000D01*
X141050000Y-91650000D01*
X141064703Y-91650722D01*
G37*
G36*
X141064703Y-90650722D02*
G01*
X141079264Y-90652882D01*
X141093543Y-90656459D01*
X141107403Y-90661418D01*
X141120710Y-90667712D01*
X141133336Y-90675280D01*
X141145159Y-90684048D01*
X141156066Y-90693934D01*
X141165952Y-90704841D01*
X141174720Y-90716664D01*
X141182288Y-90729290D01*
X141188582Y-90742597D01*
X141193541Y-90756457D01*
X141197118Y-90770736D01*
X141199278Y-90785297D01*
X141200000Y-90800000D01*
X141200000Y-91100000D01*
X141199278Y-91114703D01*
X141197118Y-91129264D01*
X141193541Y-91143543D01*
X141188582Y-91157403D01*
X141182288Y-91170710D01*
X141174720Y-91183336D01*
X141165952Y-91195159D01*
X141156066Y-91206066D01*
X141145159Y-91215952D01*
X141133336Y-91224720D01*
X141120710Y-91232288D01*
X141107403Y-91238582D01*
X141093543Y-91243541D01*
X141079264Y-91247118D01*
X141064703Y-91249278D01*
X141050000Y-91250000D01*
X139800000Y-91250000D01*
X139785297Y-91249278D01*
X139770736Y-91247118D01*
X139756457Y-91243541D01*
X139742597Y-91238582D01*
X139729290Y-91232288D01*
X139716664Y-91224720D01*
X139704841Y-91215952D01*
X139693934Y-91206066D01*
X139684048Y-91195159D01*
X139675280Y-91183336D01*
X139667712Y-91170710D01*
X139661418Y-91157403D01*
X139656459Y-91143543D01*
X139652882Y-91129264D01*
X139650722Y-91114703D01*
X139650000Y-91100000D01*
X139650000Y-90800000D01*
X139650722Y-90785297D01*
X139652882Y-90770736D01*
X139656459Y-90756457D01*
X139661418Y-90742597D01*
X139667712Y-90729290D01*
X139675280Y-90716664D01*
X139684048Y-90704841D01*
X139693934Y-90693934D01*
X139704841Y-90684048D01*
X139716664Y-90675280D01*
X139729290Y-90667712D01*
X139742597Y-90661418D01*
X139756457Y-90656459D01*
X139770736Y-90652882D01*
X139785297Y-90650722D01*
X139800000Y-90650000D01*
X141050000Y-90650000D01*
X141064703Y-90650722D01*
G37*
G36*
X134324505Y-89051204D02*
G01*
X134348773Y-89054804D01*
X134372572Y-89060765D01*
X134395671Y-89069030D01*
X134417850Y-89079520D01*
X134438893Y-89092132D01*
X134458599Y-89106747D01*
X134476777Y-89123223D01*
X134493253Y-89141401D01*
X134507868Y-89161107D01*
X134520480Y-89182150D01*
X134530970Y-89204329D01*
X134539235Y-89227428D01*
X134545196Y-89251227D01*
X134548796Y-89275495D01*
X134550000Y-89299999D01*
X134550000Y-90000001D01*
X134548796Y-90024505D01*
X134545196Y-90048773D01*
X134539235Y-90072572D01*
X134530970Y-90095671D01*
X134520480Y-90117850D01*
X134507868Y-90138893D01*
X134493253Y-90158599D01*
X134476777Y-90176777D01*
X134458599Y-90193253D01*
X134438893Y-90207868D01*
X134417850Y-90220480D01*
X134395671Y-90230970D01*
X134372572Y-90239235D01*
X134348773Y-90245196D01*
X134324505Y-90248796D01*
X134300001Y-90250000D01*
X132999999Y-90250000D01*
X132975495Y-90248796D01*
X132951227Y-90245196D01*
X132927428Y-90239235D01*
X132904329Y-90230970D01*
X132882150Y-90220480D01*
X132861107Y-90207868D01*
X132841401Y-90193253D01*
X132823223Y-90176777D01*
X132806747Y-90158599D01*
X132792132Y-90138893D01*
X132779520Y-90117850D01*
X132769030Y-90095671D01*
X132760765Y-90072572D01*
X132754804Y-90048773D01*
X132751204Y-90024505D01*
X132750000Y-90000001D01*
X132750000Y-89299999D01*
X132751204Y-89275495D01*
X132754804Y-89251227D01*
X132760765Y-89227428D01*
X132769030Y-89204329D01*
X132779520Y-89182150D01*
X132792132Y-89161107D01*
X132806747Y-89141401D01*
X132823223Y-89123223D01*
X132841401Y-89106747D01*
X132861107Y-89092132D01*
X132882150Y-89079520D01*
X132904329Y-89069030D01*
X132927428Y-89060765D01*
X132951227Y-89054804D01*
X132975495Y-89051204D01*
X132999999Y-89050000D01*
X134300001Y-89050000D01*
X134324505Y-89051204D01*
G37*
G36*
X134324505Y-94651204D02*
G01*
X134348773Y-94654804D01*
X134372572Y-94660765D01*
X134395671Y-94669030D01*
X134417850Y-94679520D01*
X134438893Y-94692132D01*
X134458599Y-94706747D01*
X134476777Y-94723223D01*
X134493253Y-94741401D01*
X134507868Y-94761107D01*
X134520480Y-94782150D01*
X134530970Y-94804329D01*
X134539235Y-94827428D01*
X134545196Y-94851227D01*
X134548796Y-94875495D01*
X134550000Y-94899999D01*
X134550000Y-95600001D01*
X134548796Y-95624505D01*
X134545196Y-95648773D01*
X134539235Y-95672572D01*
X134530970Y-95695671D01*
X134520480Y-95717850D01*
X134507868Y-95738893D01*
X134493253Y-95758599D01*
X134476777Y-95776777D01*
X134458599Y-95793253D01*
X134438893Y-95807868D01*
X134417850Y-95820480D01*
X134395671Y-95830970D01*
X134372572Y-95839235D01*
X134348773Y-95845196D01*
X134324505Y-95848796D01*
X134300001Y-95850000D01*
X132999999Y-95850000D01*
X132975495Y-95848796D01*
X132951227Y-95845196D01*
X132927428Y-95839235D01*
X132904329Y-95830970D01*
X132882150Y-95820480D01*
X132861107Y-95807868D01*
X132841401Y-95793253D01*
X132823223Y-95776777D01*
X132806747Y-95758599D01*
X132792132Y-95738893D01*
X132779520Y-95717850D01*
X132769030Y-95695671D01*
X132760765Y-95672572D01*
X132754804Y-95648773D01*
X132751204Y-95624505D01*
X132750000Y-95600001D01*
X132750000Y-94899999D01*
X132751204Y-94875495D01*
X132754804Y-94851227D01*
X132760765Y-94827428D01*
X132769030Y-94804329D01*
X132779520Y-94782150D01*
X132792132Y-94761107D01*
X132806747Y-94741401D01*
X132823223Y-94723223D01*
X132841401Y-94706747D01*
X132861107Y-94692132D01*
X132882150Y-94679520D01*
X132904329Y-94669030D01*
X132927428Y-94660765D01*
X132951227Y-94654804D01*
X132975495Y-94651204D01*
X132999999Y-94650000D01*
X134300001Y-94650000D01*
X134324505Y-94651204D01*
G37*
G36*
X136814703Y-90650722D02*
G01*
X136829264Y-90652882D01*
X136843543Y-90656459D01*
X136857403Y-90661418D01*
X136870710Y-90667712D01*
X136883336Y-90675280D01*
X136895159Y-90684048D01*
X136906066Y-90693934D01*
X136915952Y-90704841D01*
X136924720Y-90716664D01*
X136932288Y-90729290D01*
X136938582Y-90742597D01*
X136943541Y-90756457D01*
X136947118Y-90770736D01*
X136949278Y-90785297D01*
X136950000Y-90800000D01*
X136950000Y-91100000D01*
X136949278Y-91114703D01*
X136947118Y-91129264D01*
X136943541Y-91143543D01*
X136938582Y-91157403D01*
X136932288Y-91170710D01*
X136924720Y-91183336D01*
X136915952Y-91195159D01*
X136906066Y-91206066D01*
X136895159Y-91215952D01*
X136883336Y-91224720D01*
X136870710Y-91232288D01*
X136857403Y-91238582D01*
X136843543Y-91243541D01*
X136829264Y-91247118D01*
X136814703Y-91249278D01*
X136800000Y-91250000D01*
X135550000Y-91250000D01*
X135535297Y-91249278D01*
X135520736Y-91247118D01*
X135506457Y-91243541D01*
X135492597Y-91238582D01*
X135479290Y-91232288D01*
X135466664Y-91224720D01*
X135454841Y-91215952D01*
X135443934Y-91206066D01*
X135434048Y-91195159D01*
X135425280Y-91183336D01*
X135417712Y-91170710D01*
X135411418Y-91157403D01*
X135406459Y-91143543D01*
X135402882Y-91129264D01*
X135400722Y-91114703D01*
X135400000Y-91100000D01*
X135400000Y-90800000D01*
X135400722Y-90785297D01*
X135402882Y-90770736D01*
X135406459Y-90756457D01*
X135411418Y-90742597D01*
X135417712Y-90729290D01*
X135425280Y-90716664D01*
X135434048Y-90704841D01*
X135443934Y-90693934D01*
X135454841Y-90684048D01*
X135466664Y-90675280D01*
X135479290Y-90667712D01*
X135492597Y-90661418D01*
X135506457Y-90656459D01*
X135520736Y-90652882D01*
X135535297Y-90650722D01*
X135550000Y-90650000D01*
X136800000Y-90650000D01*
X136814703Y-90650722D01*
G37*
G36*
X136814703Y-91650722D02*
G01*
X136829264Y-91652882D01*
X136843543Y-91656459D01*
X136857403Y-91661418D01*
X136870710Y-91667712D01*
X136883336Y-91675280D01*
X136895159Y-91684048D01*
X136906066Y-91693934D01*
X136915952Y-91704841D01*
X136924720Y-91716664D01*
X136932288Y-91729290D01*
X136938582Y-91742597D01*
X136943541Y-91756457D01*
X136947118Y-91770736D01*
X136949278Y-91785297D01*
X136950000Y-91800000D01*
X136950000Y-92100000D01*
X136949278Y-92114703D01*
X136947118Y-92129264D01*
X136943541Y-92143543D01*
X136938582Y-92157403D01*
X136932288Y-92170710D01*
X136924720Y-92183336D01*
X136915952Y-92195159D01*
X136906066Y-92206066D01*
X136895159Y-92215952D01*
X136883336Y-92224720D01*
X136870710Y-92232288D01*
X136857403Y-92238582D01*
X136843543Y-92243541D01*
X136829264Y-92247118D01*
X136814703Y-92249278D01*
X136800000Y-92250000D01*
X135550000Y-92250000D01*
X135535297Y-92249278D01*
X135520736Y-92247118D01*
X135506457Y-92243541D01*
X135492597Y-92238582D01*
X135479290Y-92232288D01*
X135466664Y-92224720D01*
X135454841Y-92215952D01*
X135443934Y-92206066D01*
X135434048Y-92195159D01*
X135425280Y-92183336D01*
X135417712Y-92170710D01*
X135411418Y-92157403D01*
X135406459Y-92143543D01*
X135402882Y-92129264D01*
X135400722Y-92114703D01*
X135400000Y-92100000D01*
X135400000Y-91800000D01*
X135400722Y-91785297D01*
X135402882Y-91770736D01*
X135406459Y-91756457D01*
X135411418Y-91742597D01*
X135417712Y-91729290D01*
X135425280Y-91716664D01*
X135434048Y-91704841D01*
X135443934Y-91693934D01*
X135454841Y-91684048D01*
X135466664Y-91675280D01*
X135479290Y-91667712D01*
X135492597Y-91661418D01*
X135506457Y-91656459D01*
X135520736Y-91652882D01*
X135535297Y-91650722D01*
X135550000Y-91650000D01*
X136800000Y-91650000D01*
X136814703Y-91650722D01*
G37*
G36*
X136814703Y-92650722D02*
G01*
X136829264Y-92652882D01*
X136843543Y-92656459D01*
X136857403Y-92661418D01*
X136870710Y-92667712D01*
X136883336Y-92675280D01*
X136895159Y-92684048D01*
X136906066Y-92693934D01*
X136915952Y-92704841D01*
X136924720Y-92716664D01*
X136932288Y-92729290D01*
X136938582Y-92742597D01*
X136943541Y-92756457D01*
X136947118Y-92770736D01*
X136949278Y-92785297D01*
X136950000Y-92800000D01*
X136950000Y-93100000D01*
X136949278Y-93114703D01*
X136947118Y-93129264D01*
X136943541Y-93143543D01*
X136938582Y-93157403D01*
X136932288Y-93170710D01*
X136924720Y-93183336D01*
X136915952Y-93195159D01*
X136906066Y-93206066D01*
X136895159Y-93215952D01*
X136883336Y-93224720D01*
X136870710Y-93232288D01*
X136857403Y-93238582D01*
X136843543Y-93243541D01*
X136829264Y-93247118D01*
X136814703Y-93249278D01*
X136800000Y-93250000D01*
X135550000Y-93250000D01*
X135535297Y-93249278D01*
X135520736Y-93247118D01*
X135506457Y-93243541D01*
X135492597Y-93238582D01*
X135479290Y-93232288D01*
X135466664Y-93224720D01*
X135454841Y-93215952D01*
X135443934Y-93206066D01*
X135434048Y-93195159D01*
X135425280Y-93183336D01*
X135417712Y-93170710D01*
X135411418Y-93157403D01*
X135406459Y-93143543D01*
X135402882Y-93129264D01*
X135400722Y-93114703D01*
X135400000Y-93100000D01*
X135400000Y-92800000D01*
X135400722Y-92785297D01*
X135402882Y-92770736D01*
X135406459Y-92756457D01*
X135411418Y-92742597D01*
X135417712Y-92729290D01*
X135425280Y-92716664D01*
X135434048Y-92704841D01*
X135443934Y-92693934D01*
X135454841Y-92684048D01*
X135466664Y-92675280D01*
X135479290Y-92667712D01*
X135492597Y-92661418D01*
X135506457Y-92656459D01*
X135520736Y-92652882D01*
X135535297Y-92650722D01*
X135550000Y-92650000D01*
X136800000Y-92650000D01*
X136814703Y-92650722D01*
G37*
G36*
X136814703Y-93650722D02*
G01*
X136829264Y-93652882D01*
X136843543Y-93656459D01*
X136857403Y-93661418D01*
X136870710Y-93667712D01*
X136883336Y-93675280D01*
X136895159Y-93684048D01*
X136906066Y-93693934D01*
X136915952Y-93704841D01*
X136924720Y-93716664D01*
X136932288Y-93729290D01*
X136938582Y-93742597D01*
X136943541Y-93756457D01*
X136947118Y-93770736D01*
X136949278Y-93785297D01*
X136950000Y-93800000D01*
X136950000Y-94100000D01*
X136949278Y-94114703D01*
X136947118Y-94129264D01*
X136943541Y-94143543D01*
X136938582Y-94157403D01*
X136932288Y-94170710D01*
X136924720Y-94183336D01*
X136915952Y-94195159D01*
X136906066Y-94206066D01*
X136895159Y-94215952D01*
X136883336Y-94224720D01*
X136870710Y-94232288D01*
X136857403Y-94238582D01*
X136843543Y-94243541D01*
X136829264Y-94247118D01*
X136814703Y-94249278D01*
X136800000Y-94250000D01*
X135550000Y-94250000D01*
X135535297Y-94249278D01*
X135520736Y-94247118D01*
X135506457Y-94243541D01*
X135492597Y-94238582D01*
X135479290Y-94232288D01*
X135466664Y-94224720D01*
X135454841Y-94215952D01*
X135443934Y-94206066D01*
X135434048Y-94195159D01*
X135425280Y-94183336D01*
X135417712Y-94170710D01*
X135411418Y-94157403D01*
X135406459Y-94143543D01*
X135402882Y-94129264D01*
X135400722Y-94114703D01*
X135400000Y-94100000D01*
X135400000Y-93800000D01*
X135400722Y-93785297D01*
X135402882Y-93770736D01*
X135406459Y-93756457D01*
X135411418Y-93742597D01*
X135417712Y-93729290D01*
X135425280Y-93716664D01*
X135434048Y-93704841D01*
X135443934Y-93693934D01*
X135454841Y-93684048D01*
X135466664Y-93675280D01*
X135479290Y-93667712D01*
X135492597Y-93661418D01*
X135506457Y-93656459D01*
X135520736Y-93652882D01*
X135535297Y-93650722D01*
X135550000Y-93650000D01*
X136800000Y-93650000D01*
X136814703Y-93650722D01*
G37*
G36*
X122924505Y-89001204D02*
G01*
X122948773Y-89004804D01*
X122972572Y-89010765D01*
X122995671Y-89019030D01*
X123017850Y-89029520D01*
X123038893Y-89042132D01*
X123058599Y-89056747D01*
X123076777Y-89073223D01*
X123093253Y-89091401D01*
X123107868Y-89111107D01*
X123120480Y-89132150D01*
X123130970Y-89154329D01*
X123139235Y-89177428D01*
X123145196Y-89201227D01*
X123148796Y-89225495D01*
X123150000Y-89249999D01*
X123150000Y-89950001D01*
X123148796Y-89974505D01*
X123145196Y-89998773D01*
X123139235Y-90022572D01*
X123130970Y-90045671D01*
X123120480Y-90067850D01*
X123107868Y-90088893D01*
X123093253Y-90108599D01*
X123076777Y-90126777D01*
X123058599Y-90143253D01*
X123038893Y-90157868D01*
X123017850Y-90170480D01*
X122995671Y-90180970D01*
X122972572Y-90189235D01*
X122948773Y-90195196D01*
X122924505Y-90198796D01*
X122900001Y-90200000D01*
X121599999Y-90200000D01*
X121575495Y-90198796D01*
X121551227Y-90195196D01*
X121527428Y-90189235D01*
X121504329Y-90180970D01*
X121482150Y-90170480D01*
X121461107Y-90157868D01*
X121441401Y-90143253D01*
X121423223Y-90126777D01*
X121406747Y-90108599D01*
X121392132Y-90088893D01*
X121379520Y-90067850D01*
X121369030Y-90045671D01*
X121360765Y-90022572D01*
X121354804Y-89998773D01*
X121351204Y-89974505D01*
X121350000Y-89950001D01*
X121350000Y-89249999D01*
X121351204Y-89225495D01*
X121354804Y-89201227D01*
X121360765Y-89177428D01*
X121369030Y-89154329D01*
X121379520Y-89132150D01*
X121392132Y-89111107D01*
X121406747Y-89091401D01*
X121423223Y-89073223D01*
X121441401Y-89056747D01*
X121461107Y-89042132D01*
X121482150Y-89029520D01*
X121504329Y-89019030D01*
X121527428Y-89010765D01*
X121551227Y-89004804D01*
X121575495Y-89001204D01*
X121599999Y-89000000D01*
X122900001Y-89000000D01*
X122924505Y-89001204D01*
G37*
G36*
X122924505Y-94601204D02*
G01*
X122948773Y-94604804D01*
X122972572Y-94610765D01*
X122995671Y-94619030D01*
X123017850Y-94629520D01*
X123038893Y-94642132D01*
X123058599Y-94656747D01*
X123076777Y-94673223D01*
X123093253Y-94691401D01*
X123107868Y-94711107D01*
X123120480Y-94732150D01*
X123130970Y-94754329D01*
X123139235Y-94777428D01*
X123145196Y-94801227D01*
X123148796Y-94825495D01*
X123150000Y-94849999D01*
X123150000Y-95550001D01*
X123148796Y-95574505D01*
X123145196Y-95598773D01*
X123139235Y-95622572D01*
X123130970Y-95645671D01*
X123120480Y-95667850D01*
X123107868Y-95688893D01*
X123093253Y-95708599D01*
X123076777Y-95726777D01*
X123058599Y-95743253D01*
X123038893Y-95757868D01*
X123017850Y-95770480D01*
X122995671Y-95780970D01*
X122972572Y-95789235D01*
X122948773Y-95795196D01*
X122924505Y-95798796D01*
X122900001Y-95800000D01*
X121599999Y-95800000D01*
X121575495Y-95798796D01*
X121551227Y-95795196D01*
X121527428Y-95789235D01*
X121504329Y-95780970D01*
X121482150Y-95770480D01*
X121461107Y-95757868D01*
X121441401Y-95743253D01*
X121423223Y-95726777D01*
X121406747Y-95708599D01*
X121392132Y-95688893D01*
X121379520Y-95667850D01*
X121369030Y-95645671D01*
X121360765Y-95622572D01*
X121354804Y-95598773D01*
X121351204Y-95574505D01*
X121350000Y-95550001D01*
X121350000Y-94849999D01*
X121351204Y-94825495D01*
X121354804Y-94801227D01*
X121360765Y-94777428D01*
X121369030Y-94754329D01*
X121379520Y-94732150D01*
X121392132Y-94711107D01*
X121406747Y-94691401D01*
X121423223Y-94673223D01*
X121441401Y-94656747D01*
X121461107Y-94642132D01*
X121482150Y-94629520D01*
X121504329Y-94619030D01*
X121527428Y-94610765D01*
X121551227Y-94604804D01*
X121575495Y-94601204D01*
X121599999Y-94600000D01*
X122900001Y-94600000D01*
X122924505Y-94601204D01*
G37*
G36*
X125414703Y-90600722D02*
G01*
X125429264Y-90602882D01*
X125443543Y-90606459D01*
X125457403Y-90611418D01*
X125470710Y-90617712D01*
X125483336Y-90625280D01*
X125495159Y-90634048D01*
X125506066Y-90643934D01*
X125515952Y-90654841D01*
X125524720Y-90666664D01*
X125532288Y-90679290D01*
X125538582Y-90692597D01*
X125543541Y-90706457D01*
X125547118Y-90720736D01*
X125549278Y-90735297D01*
X125550000Y-90750000D01*
X125550000Y-91050000D01*
X125549278Y-91064703D01*
X125547118Y-91079264D01*
X125543541Y-91093543D01*
X125538582Y-91107403D01*
X125532288Y-91120710D01*
X125524720Y-91133336D01*
X125515952Y-91145159D01*
X125506066Y-91156066D01*
X125495159Y-91165952D01*
X125483336Y-91174720D01*
X125470710Y-91182288D01*
X125457403Y-91188582D01*
X125443543Y-91193541D01*
X125429264Y-91197118D01*
X125414703Y-91199278D01*
X125400000Y-91200000D01*
X124150000Y-91200000D01*
X124135297Y-91199278D01*
X124120736Y-91197118D01*
X124106457Y-91193541D01*
X124092597Y-91188582D01*
X124079290Y-91182288D01*
X124066664Y-91174720D01*
X124054841Y-91165952D01*
X124043934Y-91156066D01*
X124034048Y-91145159D01*
X124025280Y-91133336D01*
X124017712Y-91120710D01*
X124011418Y-91107403D01*
X124006459Y-91093543D01*
X124002882Y-91079264D01*
X124000722Y-91064703D01*
X124000000Y-91050000D01*
X124000000Y-90750000D01*
X124000722Y-90735297D01*
X124002882Y-90720736D01*
X124006459Y-90706457D01*
X124011418Y-90692597D01*
X124017712Y-90679290D01*
X124025280Y-90666664D01*
X124034048Y-90654841D01*
X124043934Y-90643934D01*
X124054841Y-90634048D01*
X124066664Y-90625280D01*
X124079290Y-90617712D01*
X124092597Y-90611418D01*
X124106457Y-90606459D01*
X124120736Y-90602882D01*
X124135297Y-90600722D01*
X124150000Y-90600000D01*
X125400000Y-90600000D01*
X125414703Y-90600722D01*
G37*
G36*
X125414703Y-91600722D02*
G01*
X125429264Y-91602882D01*
X125443543Y-91606459D01*
X125457403Y-91611418D01*
X125470710Y-91617712D01*
X125483336Y-91625280D01*
X125495159Y-91634048D01*
X125506066Y-91643934D01*
X125515952Y-91654841D01*
X125524720Y-91666664D01*
X125532288Y-91679290D01*
X125538582Y-91692597D01*
X125543541Y-91706457D01*
X125547118Y-91720736D01*
X125549278Y-91735297D01*
X125550000Y-91750000D01*
X125550000Y-92050000D01*
X125549278Y-92064703D01*
X125547118Y-92079264D01*
X125543541Y-92093543D01*
X125538582Y-92107403D01*
X125532288Y-92120710D01*
X125524720Y-92133336D01*
X125515952Y-92145159D01*
X125506066Y-92156066D01*
X125495159Y-92165952D01*
X125483336Y-92174720D01*
X125470710Y-92182288D01*
X125457403Y-92188582D01*
X125443543Y-92193541D01*
X125429264Y-92197118D01*
X125414703Y-92199278D01*
X125400000Y-92200000D01*
X124150000Y-92200000D01*
X124135297Y-92199278D01*
X124120736Y-92197118D01*
X124106457Y-92193541D01*
X124092597Y-92188582D01*
X124079290Y-92182288D01*
X124066664Y-92174720D01*
X124054841Y-92165952D01*
X124043934Y-92156066D01*
X124034048Y-92145159D01*
X124025280Y-92133336D01*
X124017712Y-92120710D01*
X124011418Y-92107403D01*
X124006459Y-92093543D01*
X124002882Y-92079264D01*
X124000722Y-92064703D01*
X124000000Y-92050000D01*
X124000000Y-91750000D01*
X124000722Y-91735297D01*
X124002882Y-91720736D01*
X124006459Y-91706457D01*
X124011418Y-91692597D01*
X124017712Y-91679290D01*
X124025280Y-91666664D01*
X124034048Y-91654841D01*
X124043934Y-91643934D01*
X124054841Y-91634048D01*
X124066664Y-91625280D01*
X124079290Y-91617712D01*
X124092597Y-91611418D01*
X124106457Y-91606459D01*
X124120736Y-91602882D01*
X124135297Y-91600722D01*
X124150000Y-91600000D01*
X125400000Y-91600000D01*
X125414703Y-91600722D01*
G37*
G36*
X125414703Y-92600722D02*
G01*
X125429264Y-92602882D01*
X125443543Y-92606459D01*
X125457403Y-92611418D01*
X125470710Y-92617712D01*
X125483336Y-92625280D01*
X125495159Y-92634048D01*
X125506066Y-92643934D01*
X125515952Y-92654841D01*
X125524720Y-92666664D01*
X125532288Y-92679290D01*
X125538582Y-92692597D01*
X125543541Y-92706457D01*
X125547118Y-92720736D01*
X125549278Y-92735297D01*
X125550000Y-92750000D01*
X125550000Y-93050000D01*
X125549278Y-93064703D01*
X125547118Y-93079264D01*
X125543541Y-93093543D01*
X125538582Y-93107403D01*
X125532288Y-93120710D01*
X125524720Y-93133336D01*
X125515952Y-93145159D01*
X125506066Y-93156066D01*
X125495159Y-93165952D01*
X125483336Y-93174720D01*
X125470710Y-93182288D01*
X125457403Y-93188582D01*
X125443543Y-93193541D01*
X125429264Y-93197118D01*
X125414703Y-93199278D01*
X125400000Y-93200000D01*
X124150000Y-93200000D01*
X124135297Y-93199278D01*
X124120736Y-93197118D01*
X124106457Y-93193541D01*
X124092597Y-93188582D01*
X124079290Y-93182288D01*
X124066664Y-93174720D01*
X124054841Y-93165952D01*
X124043934Y-93156066D01*
X124034048Y-93145159D01*
X124025280Y-93133336D01*
X124017712Y-93120710D01*
X124011418Y-93107403D01*
X124006459Y-93093543D01*
X124002882Y-93079264D01*
X124000722Y-93064703D01*
X124000000Y-93050000D01*
X124000000Y-92750000D01*
X124000722Y-92735297D01*
X124002882Y-92720736D01*
X124006459Y-92706457D01*
X124011418Y-92692597D01*
X124017712Y-92679290D01*
X124025280Y-92666664D01*
X124034048Y-92654841D01*
X124043934Y-92643934D01*
X124054841Y-92634048D01*
X124066664Y-92625280D01*
X124079290Y-92617712D01*
X124092597Y-92611418D01*
X124106457Y-92606459D01*
X124120736Y-92602882D01*
X124135297Y-92600722D01*
X124150000Y-92600000D01*
X125400000Y-92600000D01*
X125414703Y-92600722D01*
G37*
G36*
X125414703Y-93600722D02*
G01*
X125429264Y-93602882D01*
X125443543Y-93606459D01*
X125457403Y-93611418D01*
X125470710Y-93617712D01*
X125483336Y-93625280D01*
X125495159Y-93634048D01*
X125506066Y-93643934D01*
X125515952Y-93654841D01*
X125524720Y-93666664D01*
X125532288Y-93679290D01*
X125538582Y-93692597D01*
X125543541Y-93706457D01*
X125547118Y-93720736D01*
X125549278Y-93735297D01*
X125550000Y-93750000D01*
X125550000Y-94050000D01*
X125549278Y-94064703D01*
X125547118Y-94079264D01*
X125543541Y-94093543D01*
X125538582Y-94107403D01*
X125532288Y-94120710D01*
X125524720Y-94133336D01*
X125515952Y-94145159D01*
X125506066Y-94156066D01*
X125495159Y-94165952D01*
X125483336Y-94174720D01*
X125470710Y-94182288D01*
X125457403Y-94188582D01*
X125443543Y-94193541D01*
X125429264Y-94197118D01*
X125414703Y-94199278D01*
X125400000Y-94200000D01*
X124150000Y-94200000D01*
X124135297Y-94199278D01*
X124120736Y-94197118D01*
X124106457Y-94193541D01*
X124092597Y-94188582D01*
X124079290Y-94182288D01*
X124066664Y-94174720D01*
X124054841Y-94165952D01*
X124043934Y-94156066D01*
X124034048Y-94145159D01*
X124025280Y-94133336D01*
X124017712Y-94120710D01*
X124011418Y-94107403D01*
X124006459Y-94093543D01*
X124002882Y-94079264D01*
X124000722Y-94064703D01*
X124000000Y-94050000D01*
X124000000Y-93750000D01*
X124000722Y-93735297D01*
X124002882Y-93720736D01*
X124006459Y-93706457D01*
X124011418Y-93692597D01*
X124017712Y-93679290D01*
X124025280Y-93666664D01*
X124034048Y-93654841D01*
X124043934Y-93643934D01*
X124054841Y-93634048D01*
X124066664Y-93625280D01*
X124079290Y-93617712D01*
X124092597Y-93611418D01*
X124106457Y-93606459D01*
X124120736Y-93602882D01*
X124135297Y-93600722D01*
X124150000Y-93600000D01*
X125400000Y-93600000D01*
X125414703Y-93600722D01*
G37*
G36*
X128860779Y-106351144D02*
G01*
X128883834Y-106354563D01*
X128906443Y-106360227D01*
X128928387Y-106368079D01*
X128949457Y-106378044D01*
X128969448Y-106390026D01*
X128988168Y-106403910D01*
X129005438Y-106419562D01*
X129021090Y-106436832D01*
X129034974Y-106455552D01*
X129046956Y-106475543D01*
X129056921Y-106496613D01*
X129064773Y-106518557D01*
X129070437Y-106541166D01*
X129073856Y-106564221D01*
X129075000Y-106587500D01*
X129075000Y-107162500D01*
X129073856Y-107185779D01*
X129070437Y-107208834D01*
X129064773Y-107231443D01*
X129056921Y-107253387D01*
X129046956Y-107274457D01*
X129034974Y-107294448D01*
X129021090Y-107313168D01*
X129005438Y-107330438D01*
X128988168Y-107346090D01*
X128969448Y-107359974D01*
X128949457Y-107371956D01*
X128928387Y-107381921D01*
X128906443Y-107389773D01*
X128883834Y-107395437D01*
X128860779Y-107398856D01*
X128837500Y-107400000D01*
X128362500Y-107400000D01*
X128339221Y-107398856D01*
X128316166Y-107395437D01*
X128293557Y-107389773D01*
X128271613Y-107381921D01*
X128250543Y-107371956D01*
X128230552Y-107359974D01*
X128211832Y-107346090D01*
X128194562Y-107330438D01*
X128178910Y-107313168D01*
X128165026Y-107294448D01*
X128153044Y-107274457D01*
X128143079Y-107253387D01*
X128135227Y-107231443D01*
X128129563Y-107208834D01*
X128126144Y-107185779D01*
X128125000Y-107162500D01*
X128125000Y-106587500D01*
X128126144Y-106564221D01*
X128129563Y-106541166D01*
X128135227Y-106518557D01*
X128143079Y-106496613D01*
X128153044Y-106475543D01*
X128165026Y-106455552D01*
X128178910Y-106436832D01*
X128194562Y-106419562D01*
X128211832Y-106403910D01*
X128230552Y-106390026D01*
X128250543Y-106378044D01*
X128271613Y-106368079D01*
X128293557Y-106360227D01*
X128316166Y-106354563D01*
X128339221Y-106351144D01*
X128362500Y-106350000D01*
X128837500Y-106350000D01*
X128860779Y-106351144D01*
G37*
G36*
X128860779Y-104601144D02*
G01*
X128883834Y-104604563D01*
X128906443Y-104610227D01*
X128928387Y-104618079D01*
X128949457Y-104628044D01*
X128969448Y-104640026D01*
X128988168Y-104653910D01*
X129005438Y-104669562D01*
X129021090Y-104686832D01*
X129034974Y-104705552D01*
X129046956Y-104725543D01*
X129056921Y-104746613D01*
X129064773Y-104768557D01*
X129070437Y-104791166D01*
X129073856Y-104814221D01*
X129075000Y-104837500D01*
X129075000Y-105412500D01*
X129073856Y-105435779D01*
X129070437Y-105458834D01*
X129064773Y-105481443D01*
X129056921Y-105503387D01*
X129046956Y-105524457D01*
X129034974Y-105544448D01*
X129021090Y-105563168D01*
X129005438Y-105580438D01*
X128988168Y-105596090D01*
X128969448Y-105609974D01*
X128949457Y-105621956D01*
X128928387Y-105631921D01*
X128906443Y-105639773D01*
X128883834Y-105645437D01*
X128860779Y-105648856D01*
X128837500Y-105650000D01*
X128362500Y-105650000D01*
X128339221Y-105648856D01*
X128316166Y-105645437D01*
X128293557Y-105639773D01*
X128271613Y-105631921D01*
X128250543Y-105621956D01*
X128230552Y-105609974D01*
X128211832Y-105596090D01*
X128194562Y-105580438D01*
X128178910Y-105563168D01*
X128165026Y-105544448D01*
X128153044Y-105524457D01*
X128143079Y-105503387D01*
X128135227Y-105481443D01*
X128129563Y-105458834D01*
X128126144Y-105435779D01*
X128125000Y-105412500D01*
X128125000Y-104837500D01*
X128126144Y-104814221D01*
X128129563Y-104791166D01*
X128135227Y-104768557D01*
X128143079Y-104746613D01*
X128153044Y-104725543D01*
X128165026Y-104705552D01*
X128178910Y-104686832D01*
X128194562Y-104669562D01*
X128211832Y-104653910D01*
X128230552Y-104640026D01*
X128250543Y-104628044D01*
X128271613Y-104618079D01*
X128293557Y-104610227D01*
X128316166Y-104604563D01*
X128339221Y-104601144D01*
X128362500Y-104600000D01*
X128837500Y-104600000D01*
X128860779Y-104601144D01*
G37*
G36*
X125335779Y-108276144D02*
G01*
X125358834Y-108279563D01*
X125381443Y-108285227D01*
X125403387Y-108293079D01*
X125424457Y-108303044D01*
X125444448Y-108315026D01*
X125463168Y-108328910D01*
X125480438Y-108344562D01*
X125496090Y-108361832D01*
X125509974Y-108380552D01*
X125521956Y-108400543D01*
X125531921Y-108421613D01*
X125539773Y-108443557D01*
X125545437Y-108466166D01*
X125548856Y-108489221D01*
X125550000Y-108512500D01*
X125550000Y-108987500D01*
X125548856Y-109010779D01*
X125545437Y-109033834D01*
X125539773Y-109056443D01*
X125531921Y-109078387D01*
X125521956Y-109099457D01*
X125509974Y-109119448D01*
X125496090Y-109138168D01*
X125480438Y-109155438D01*
X125463168Y-109171090D01*
X125444448Y-109184974D01*
X125424457Y-109196956D01*
X125403387Y-109206921D01*
X125381443Y-109214773D01*
X125358834Y-109220437D01*
X125335779Y-109223856D01*
X125312500Y-109225000D01*
X124737500Y-109225000D01*
X124714221Y-109223856D01*
X124691166Y-109220437D01*
X124668557Y-109214773D01*
X124646613Y-109206921D01*
X124625543Y-109196956D01*
X124605552Y-109184974D01*
X124586832Y-109171090D01*
X124569562Y-109155438D01*
X124553910Y-109138168D01*
X124540026Y-109119448D01*
X124528044Y-109099457D01*
X124518079Y-109078387D01*
X124510227Y-109056443D01*
X124504563Y-109033834D01*
X124501144Y-109010779D01*
X124500000Y-108987500D01*
X124500000Y-108512500D01*
X124501144Y-108489221D01*
X124504563Y-108466166D01*
X124510227Y-108443557D01*
X124518079Y-108421613D01*
X124528044Y-108400543D01*
X124540026Y-108380552D01*
X124553910Y-108361832D01*
X124569562Y-108344562D01*
X124586832Y-108328910D01*
X124605552Y-108315026D01*
X124625543Y-108303044D01*
X124646613Y-108293079D01*
X124668557Y-108285227D01*
X124691166Y-108279563D01*
X124714221Y-108276144D01*
X124737500Y-108275000D01*
X125312500Y-108275000D01*
X125335779Y-108276144D01*
G37*
G36*
X127085779Y-108276144D02*
G01*
X127108834Y-108279563D01*
X127131443Y-108285227D01*
X127153387Y-108293079D01*
X127174457Y-108303044D01*
X127194448Y-108315026D01*
X127213168Y-108328910D01*
X127230438Y-108344562D01*
X127246090Y-108361832D01*
X127259974Y-108380552D01*
X127271956Y-108400543D01*
X127281921Y-108421613D01*
X127289773Y-108443557D01*
X127295437Y-108466166D01*
X127298856Y-108489221D01*
X127300000Y-108512500D01*
X127300000Y-108987500D01*
X127298856Y-109010779D01*
X127295437Y-109033834D01*
X127289773Y-109056443D01*
X127281921Y-109078387D01*
X127271956Y-109099457D01*
X127259974Y-109119448D01*
X127246090Y-109138168D01*
X127230438Y-109155438D01*
X127213168Y-109171090D01*
X127194448Y-109184974D01*
X127174457Y-109196956D01*
X127153387Y-109206921D01*
X127131443Y-109214773D01*
X127108834Y-109220437D01*
X127085779Y-109223856D01*
X127062500Y-109225000D01*
X126487500Y-109225000D01*
X126464221Y-109223856D01*
X126441166Y-109220437D01*
X126418557Y-109214773D01*
X126396613Y-109206921D01*
X126375543Y-109196956D01*
X126355552Y-109184974D01*
X126336832Y-109171090D01*
X126319562Y-109155438D01*
X126303910Y-109138168D01*
X126290026Y-109119448D01*
X126278044Y-109099457D01*
X126268079Y-109078387D01*
X126260227Y-109056443D01*
X126254563Y-109033834D01*
X126251144Y-109010779D01*
X126250000Y-108987500D01*
X126250000Y-108512500D01*
X126251144Y-108489221D01*
X126254563Y-108466166D01*
X126260227Y-108443557D01*
X126268079Y-108421613D01*
X126278044Y-108400543D01*
X126290026Y-108380552D01*
X126303910Y-108361832D01*
X126319562Y-108344562D01*
X126336832Y-108328910D01*
X126355552Y-108315026D01*
X126375543Y-108303044D01*
X126396613Y-108293079D01*
X126418557Y-108285227D01*
X126441166Y-108279563D01*
X126464221Y-108276144D01*
X126487500Y-108275000D01*
X127062500Y-108275000D01*
X127085779Y-108276144D01*
G37*
D12*
X131100000Y-109950000D03*
X129100000Y-110900000D03*
X129100000Y-109000000D03*
D13*
X132400000Y-107150000D03*
X132400000Y-105050000D03*
D14*
X137250000Y-119930000D03*
X143250000Y-119930000D03*
X143250000Y-122470000D03*
X137250000Y-122470000D03*
D11*
G36*
X143710779Y-124201144D02*
G01*
X143733834Y-124204563D01*
X143756443Y-124210227D01*
X143778387Y-124218079D01*
X143799457Y-124228044D01*
X143819448Y-124240026D01*
X143838168Y-124253910D01*
X143855438Y-124269562D01*
X143871090Y-124286832D01*
X143884974Y-124305552D01*
X143896956Y-124325543D01*
X143906921Y-124346613D01*
X143914773Y-124368557D01*
X143920437Y-124391166D01*
X143923856Y-124414221D01*
X143925000Y-124437500D01*
X143925000Y-125012500D01*
X143923856Y-125035779D01*
X143920437Y-125058834D01*
X143914773Y-125081443D01*
X143906921Y-125103387D01*
X143896956Y-125124457D01*
X143884974Y-125144448D01*
X143871090Y-125163168D01*
X143855438Y-125180438D01*
X143838168Y-125196090D01*
X143819448Y-125209974D01*
X143799457Y-125221956D01*
X143778387Y-125231921D01*
X143756443Y-125239773D01*
X143733834Y-125245437D01*
X143710779Y-125248856D01*
X143687500Y-125250000D01*
X143212500Y-125250000D01*
X143189221Y-125248856D01*
X143166166Y-125245437D01*
X143143557Y-125239773D01*
X143121613Y-125231921D01*
X143100543Y-125221956D01*
X143080552Y-125209974D01*
X143061832Y-125196090D01*
X143044562Y-125180438D01*
X143028910Y-125163168D01*
X143015026Y-125144448D01*
X143003044Y-125124457D01*
X142993079Y-125103387D01*
X142985227Y-125081443D01*
X142979563Y-125058834D01*
X142976144Y-125035779D01*
X142975000Y-125012500D01*
X142975000Y-124437500D01*
X142976144Y-124414221D01*
X142979563Y-124391166D01*
X142985227Y-124368557D01*
X142993079Y-124346613D01*
X143003044Y-124325543D01*
X143015026Y-124305552D01*
X143028910Y-124286832D01*
X143044562Y-124269562D01*
X143061832Y-124253910D01*
X143080552Y-124240026D01*
X143100543Y-124228044D01*
X143121613Y-124218079D01*
X143143557Y-124210227D01*
X143166166Y-124204563D01*
X143189221Y-124201144D01*
X143212500Y-124200000D01*
X143687500Y-124200000D01*
X143710779Y-124201144D01*
G37*
G36*
X143710779Y-125951144D02*
G01*
X143733834Y-125954563D01*
X143756443Y-125960227D01*
X143778387Y-125968079D01*
X143799457Y-125978044D01*
X143819448Y-125990026D01*
X143838168Y-126003910D01*
X143855438Y-126019562D01*
X143871090Y-126036832D01*
X143884974Y-126055552D01*
X143896956Y-126075543D01*
X143906921Y-126096613D01*
X143914773Y-126118557D01*
X143920437Y-126141166D01*
X143923856Y-126164221D01*
X143925000Y-126187500D01*
X143925000Y-126762500D01*
X143923856Y-126785779D01*
X143920437Y-126808834D01*
X143914773Y-126831443D01*
X143906921Y-126853387D01*
X143896956Y-126874457D01*
X143884974Y-126894448D01*
X143871090Y-126913168D01*
X143855438Y-126930438D01*
X143838168Y-126946090D01*
X143819448Y-126959974D01*
X143799457Y-126971956D01*
X143778387Y-126981921D01*
X143756443Y-126989773D01*
X143733834Y-126995437D01*
X143710779Y-126998856D01*
X143687500Y-127000000D01*
X143212500Y-127000000D01*
X143189221Y-126998856D01*
X143166166Y-126995437D01*
X143143557Y-126989773D01*
X143121613Y-126981921D01*
X143100543Y-126971956D01*
X143080552Y-126959974D01*
X143061832Y-126946090D01*
X143044562Y-126930438D01*
X143028910Y-126913168D01*
X143015026Y-126894448D01*
X143003044Y-126874457D01*
X142993079Y-126853387D01*
X142985227Y-126831443D01*
X142979563Y-126808834D01*
X142976144Y-126785779D01*
X142975000Y-126762500D01*
X142975000Y-126187500D01*
X142976144Y-126164221D01*
X142979563Y-126141166D01*
X142985227Y-126118557D01*
X142993079Y-126096613D01*
X143003044Y-126075543D01*
X143015026Y-126055552D01*
X143028910Y-126036832D01*
X143044562Y-126019562D01*
X143061832Y-126003910D01*
X143080552Y-125990026D01*
X143100543Y-125978044D01*
X143121613Y-125968079D01*
X143143557Y-125960227D01*
X143166166Y-125954563D01*
X143189221Y-125951144D01*
X143212500Y-125950000D01*
X143687500Y-125950000D01*
X143710779Y-125951144D01*
G37*
D14*
X132900000Y-77730000D03*
X138900000Y-77730000D03*
X138900000Y-80270000D03*
X132900000Y-80270000D03*
D11*
G36*
X141935779Y-78176144D02*
G01*
X141958834Y-78179563D01*
X141981443Y-78185227D01*
X142003387Y-78193079D01*
X142024457Y-78203044D01*
X142044448Y-78215026D01*
X142063168Y-78228910D01*
X142080438Y-78244562D01*
X142096090Y-78261832D01*
X142109974Y-78280552D01*
X142121956Y-78300543D01*
X142131921Y-78321613D01*
X142139773Y-78343557D01*
X142145437Y-78366166D01*
X142148856Y-78389221D01*
X142150000Y-78412500D01*
X142150000Y-78887500D01*
X142148856Y-78910779D01*
X142145437Y-78933834D01*
X142139773Y-78956443D01*
X142131921Y-78978387D01*
X142121956Y-78999457D01*
X142109974Y-79019448D01*
X142096090Y-79038168D01*
X142080438Y-79055438D01*
X142063168Y-79071090D01*
X142044448Y-79084974D01*
X142024457Y-79096956D01*
X142003387Y-79106921D01*
X141981443Y-79114773D01*
X141958834Y-79120437D01*
X141935779Y-79123856D01*
X141912500Y-79125000D01*
X141337500Y-79125000D01*
X141314221Y-79123856D01*
X141291166Y-79120437D01*
X141268557Y-79114773D01*
X141246613Y-79106921D01*
X141225543Y-79096956D01*
X141205552Y-79084974D01*
X141186832Y-79071090D01*
X141169562Y-79055438D01*
X141153910Y-79038168D01*
X141140026Y-79019448D01*
X141128044Y-78999457D01*
X141118079Y-78978387D01*
X141110227Y-78956443D01*
X141104563Y-78933834D01*
X141101144Y-78910779D01*
X141100000Y-78887500D01*
X141100000Y-78412500D01*
X141101144Y-78389221D01*
X141104563Y-78366166D01*
X141110227Y-78343557D01*
X141118079Y-78321613D01*
X141128044Y-78300543D01*
X141140026Y-78280552D01*
X141153910Y-78261832D01*
X141169562Y-78244562D01*
X141186832Y-78228910D01*
X141205552Y-78215026D01*
X141225543Y-78203044D01*
X141246613Y-78193079D01*
X141268557Y-78185227D01*
X141291166Y-78179563D01*
X141314221Y-78176144D01*
X141337500Y-78175000D01*
X141912500Y-78175000D01*
X141935779Y-78176144D01*
G37*
G36*
X143685779Y-78176144D02*
G01*
X143708834Y-78179563D01*
X143731443Y-78185227D01*
X143753387Y-78193079D01*
X143774457Y-78203044D01*
X143794448Y-78215026D01*
X143813168Y-78228910D01*
X143830438Y-78244562D01*
X143846090Y-78261832D01*
X143859974Y-78280552D01*
X143871956Y-78300543D01*
X143881921Y-78321613D01*
X143889773Y-78343557D01*
X143895437Y-78366166D01*
X143898856Y-78389221D01*
X143900000Y-78412500D01*
X143900000Y-78887500D01*
X143898856Y-78910779D01*
X143895437Y-78933834D01*
X143889773Y-78956443D01*
X143881921Y-78978387D01*
X143871956Y-78999457D01*
X143859974Y-79019448D01*
X143846090Y-79038168D01*
X143830438Y-79055438D01*
X143813168Y-79071090D01*
X143794448Y-79084974D01*
X143774457Y-79096956D01*
X143753387Y-79106921D01*
X143731443Y-79114773D01*
X143708834Y-79120437D01*
X143685779Y-79123856D01*
X143662500Y-79125000D01*
X143087500Y-79125000D01*
X143064221Y-79123856D01*
X143041166Y-79120437D01*
X143018557Y-79114773D01*
X142996613Y-79106921D01*
X142975543Y-79096956D01*
X142955552Y-79084974D01*
X142936832Y-79071090D01*
X142919562Y-79055438D01*
X142903910Y-79038168D01*
X142890026Y-79019448D01*
X142878044Y-78999457D01*
X142868079Y-78978387D01*
X142860227Y-78956443D01*
X142854563Y-78933834D01*
X142851144Y-78910779D01*
X142850000Y-78887500D01*
X142850000Y-78412500D01*
X142851144Y-78389221D01*
X142854563Y-78366166D01*
X142860227Y-78343557D01*
X142868079Y-78321613D01*
X142878044Y-78300543D01*
X142890026Y-78280552D01*
X142903910Y-78261832D01*
X142919562Y-78244562D01*
X142936832Y-78228910D01*
X142955552Y-78215026D01*
X142975543Y-78203044D01*
X142996613Y-78193079D01*
X143018557Y-78185227D01*
X143041166Y-78179563D01*
X143064221Y-78176144D01*
X143087500Y-78175000D01*
X143662500Y-78175000D01*
X143685779Y-78176144D01*
G37*
G36*
X126999504Y-105976204D02*
G01*
X127023773Y-105979804D01*
X127047571Y-105985765D01*
X127070671Y-105994030D01*
X127092849Y-106004520D01*
X127113893Y-106017133D01*
X127133598Y-106031747D01*
X127151777Y-106048223D01*
X127168253Y-106066402D01*
X127182867Y-106086107D01*
X127195480Y-106107151D01*
X127205970Y-106129329D01*
X127214235Y-106152429D01*
X127220196Y-106176227D01*
X127223796Y-106200496D01*
X127225000Y-106225000D01*
X127225000Y-107150000D01*
X127223796Y-107174504D01*
X127220196Y-107198773D01*
X127214235Y-107222571D01*
X127205970Y-107245671D01*
X127195480Y-107267849D01*
X127182867Y-107288893D01*
X127168253Y-107308598D01*
X127151777Y-107326777D01*
X127133598Y-107343253D01*
X127113893Y-107357867D01*
X127092849Y-107370480D01*
X127070671Y-107380970D01*
X127047571Y-107389235D01*
X127023773Y-107395196D01*
X126999504Y-107398796D01*
X126975000Y-107400000D01*
X124825000Y-107400000D01*
X124800496Y-107398796D01*
X124776227Y-107395196D01*
X124752429Y-107389235D01*
X124729329Y-107380970D01*
X124707151Y-107370480D01*
X124686107Y-107357867D01*
X124666402Y-107343253D01*
X124648223Y-107326777D01*
X124631747Y-107308598D01*
X124617133Y-107288893D01*
X124604520Y-107267849D01*
X124594030Y-107245671D01*
X124585765Y-107222571D01*
X124579804Y-107198773D01*
X124576204Y-107174504D01*
X124575000Y-107150000D01*
X124575000Y-106225000D01*
X124576204Y-106200496D01*
X124579804Y-106176227D01*
X124585765Y-106152429D01*
X124594030Y-106129329D01*
X124604520Y-106107151D01*
X124617133Y-106086107D01*
X124631747Y-106066402D01*
X124648223Y-106048223D01*
X124666402Y-106031747D01*
X124686107Y-106017133D01*
X124707151Y-106004520D01*
X124729329Y-105994030D01*
X124752429Y-105985765D01*
X124776227Y-105979804D01*
X124800496Y-105976204D01*
X124825000Y-105975000D01*
X126975000Y-105975000D01*
X126999504Y-105976204D01*
G37*
G36*
X126999504Y-103001204D02*
G01*
X127023773Y-103004804D01*
X127047571Y-103010765D01*
X127070671Y-103019030D01*
X127092849Y-103029520D01*
X127113893Y-103042133D01*
X127133598Y-103056747D01*
X127151777Y-103073223D01*
X127168253Y-103091402D01*
X127182867Y-103111107D01*
X127195480Y-103132151D01*
X127205970Y-103154329D01*
X127214235Y-103177429D01*
X127220196Y-103201227D01*
X127223796Y-103225496D01*
X127225000Y-103250000D01*
X127225000Y-104175000D01*
X127223796Y-104199504D01*
X127220196Y-104223773D01*
X127214235Y-104247571D01*
X127205970Y-104270671D01*
X127195480Y-104292849D01*
X127182867Y-104313893D01*
X127168253Y-104333598D01*
X127151777Y-104351777D01*
X127133598Y-104368253D01*
X127113893Y-104382867D01*
X127092849Y-104395480D01*
X127070671Y-104405970D01*
X127047571Y-104414235D01*
X127023773Y-104420196D01*
X126999504Y-104423796D01*
X126975000Y-104425000D01*
X124825000Y-104425000D01*
X124800496Y-104423796D01*
X124776227Y-104420196D01*
X124752429Y-104414235D01*
X124729329Y-104405970D01*
X124707151Y-104395480D01*
X124686107Y-104382867D01*
X124666402Y-104368253D01*
X124648223Y-104351777D01*
X124631747Y-104333598D01*
X124617133Y-104313893D01*
X124604520Y-104292849D01*
X124594030Y-104270671D01*
X124585765Y-104247571D01*
X124579804Y-104223773D01*
X124576204Y-104199504D01*
X124575000Y-104175000D01*
X124575000Y-103250000D01*
X124576204Y-103225496D01*
X124579804Y-103201227D01*
X124585765Y-103177429D01*
X124594030Y-103154329D01*
X124604520Y-103132151D01*
X124617133Y-103111107D01*
X124631747Y-103091402D01*
X124648223Y-103073223D01*
X124666402Y-103056747D01*
X124686107Y-103042133D01*
X124707151Y-103029520D01*
X124729329Y-103019030D01*
X124752429Y-103010765D01*
X124776227Y-103004804D01*
X124800496Y-103001204D01*
X124825000Y-103000000D01*
X126975000Y-103000000D01*
X126999504Y-103001204D01*
G37*
G36*
X124149505Y-78126204D02*
G01*
X124173773Y-78129804D01*
X124197572Y-78135765D01*
X124220671Y-78144030D01*
X124242850Y-78154520D01*
X124263893Y-78167132D01*
X124283599Y-78181747D01*
X124301777Y-78198223D01*
X124318253Y-78216401D01*
X124332868Y-78236107D01*
X124345480Y-78257150D01*
X124355970Y-78279329D01*
X124364235Y-78302428D01*
X124370196Y-78326227D01*
X124373796Y-78350495D01*
X124375000Y-78374999D01*
X124375000Y-79400001D01*
X124373796Y-79424505D01*
X124370196Y-79448773D01*
X124364235Y-79472572D01*
X124355970Y-79495671D01*
X124345480Y-79517850D01*
X124332868Y-79538893D01*
X124318253Y-79558599D01*
X124301777Y-79576777D01*
X124283599Y-79593253D01*
X124263893Y-79607868D01*
X124242850Y-79620480D01*
X124220671Y-79630970D01*
X124197572Y-79639235D01*
X124173773Y-79645196D01*
X124149505Y-79648796D01*
X124125001Y-79650000D01*
X121274999Y-79650000D01*
X121250495Y-79648796D01*
X121226227Y-79645196D01*
X121202428Y-79639235D01*
X121179329Y-79630970D01*
X121157150Y-79620480D01*
X121136107Y-79607868D01*
X121116401Y-79593253D01*
X121098223Y-79576777D01*
X121081747Y-79558599D01*
X121067132Y-79538893D01*
X121054520Y-79517850D01*
X121044030Y-79495671D01*
X121035765Y-79472572D01*
X121029804Y-79448773D01*
X121026204Y-79424505D01*
X121025000Y-79400001D01*
X121025000Y-78374999D01*
X121026204Y-78350495D01*
X121029804Y-78326227D01*
X121035765Y-78302428D01*
X121044030Y-78279329D01*
X121054520Y-78257150D01*
X121067132Y-78236107D01*
X121081747Y-78216401D01*
X121098223Y-78198223D01*
X121116401Y-78181747D01*
X121136107Y-78167132D01*
X121157150Y-78154520D01*
X121179329Y-78144030D01*
X121202428Y-78135765D01*
X121226227Y-78129804D01*
X121250495Y-78126204D01*
X121274999Y-78125000D01*
X124125001Y-78125000D01*
X124149505Y-78126204D01*
G37*
G36*
X124149505Y-72151204D02*
G01*
X124173773Y-72154804D01*
X124197572Y-72160765D01*
X124220671Y-72169030D01*
X124242850Y-72179520D01*
X124263893Y-72192132D01*
X124283599Y-72206747D01*
X124301777Y-72223223D01*
X124318253Y-72241401D01*
X124332868Y-72261107D01*
X124345480Y-72282150D01*
X124355970Y-72304329D01*
X124364235Y-72327428D01*
X124370196Y-72351227D01*
X124373796Y-72375495D01*
X124375000Y-72399999D01*
X124375000Y-73425001D01*
X124373796Y-73449505D01*
X124370196Y-73473773D01*
X124364235Y-73497572D01*
X124355970Y-73520671D01*
X124345480Y-73542850D01*
X124332868Y-73563893D01*
X124318253Y-73583599D01*
X124301777Y-73601777D01*
X124283599Y-73618253D01*
X124263893Y-73632868D01*
X124242850Y-73645480D01*
X124220671Y-73655970D01*
X124197572Y-73664235D01*
X124173773Y-73670196D01*
X124149505Y-73673796D01*
X124125001Y-73675000D01*
X121274999Y-73675000D01*
X121250495Y-73673796D01*
X121226227Y-73670196D01*
X121202428Y-73664235D01*
X121179329Y-73655970D01*
X121157150Y-73645480D01*
X121136107Y-73632868D01*
X121116401Y-73618253D01*
X121098223Y-73601777D01*
X121081747Y-73583599D01*
X121067132Y-73563893D01*
X121054520Y-73542850D01*
X121044030Y-73520671D01*
X121035765Y-73497572D01*
X121029804Y-73473773D01*
X121026204Y-73449505D01*
X121025000Y-73425001D01*
X121025000Y-72399999D01*
X121026204Y-72375495D01*
X121029804Y-72351227D01*
X121035765Y-72327428D01*
X121044030Y-72304329D01*
X121054520Y-72282150D01*
X121067132Y-72261107D01*
X121081747Y-72241401D01*
X121098223Y-72223223D01*
X121116401Y-72206747D01*
X121136107Y-72192132D01*
X121157150Y-72179520D01*
X121179329Y-72169030D01*
X121202428Y-72160765D01*
X121226227Y-72154804D01*
X121250495Y-72151204D01*
X121274999Y-72150000D01*
X124125001Y-72150000D01*
X124149505Y-72151204D01*
G37*
G36*
X130660779Y-104601144D02*
G01*
X130683834Y-104604563D01*
X130706443Y-104610227D01*
X130728387Y-104618079D01*
X130749457Y-104628044D01*
X130769448Y-104640026D01*
X130788168Y-104653910D01*
X130805438Y-104669562D01*
X130821090Y-104686832D01*
X130834974Y-104705552D01*
X130846956Y-104725543D01*
X130856921Y-104746613D01*
X130864773Y-104768557D01*
X130870437Y-104791166D01*
X130873856Y-104814221D01*
X130875000Y-104837500D01*
X130875000Y-105412500D01*
X130873856Y-105435779D01*
X130870437Y-105458834D01*
X130864773Y-105481443D01*
X130856921Y-105503387D01*
X130846956Y-105524457D01*
X130834974Y-105544448D01*
X130821090Y-105563168D01*
X130805438Y-105580438D01*
X130788168Y-105596090D01*
X130769448Y-105609974D01*
X130749457Y-105621956D01*
X130728387Y-105631921D01*
X130706443Y-105639773D01*
X130683834Y-105645437D01*
X130660779Y-105648856D01*
X130637500Y-105650000D01*
X130162500Y-105650000D01*
X130139221Y-105648856D01*
X130116166Y-105645437D01*
X130093557Y-105639773D01*
X130071613Y-105631921D01*
X130050543Y-105621956D01*
X130030552Y-105609974D01*
X130011832Y-105596090D01*
X129994562Y-105580438D01*
X129978910Y-105563168D01*
X129965026Y-105544448D01*
X129953044Y-105524457D01*
X129943079Y-105503387D01*
X129935227Y-105481443D01*
X129929563Y-105458834D01*
X129926144Y-105435779D01*
X129925000Y-105412500D01*
X129925000Y-104837500D01*
X129926144Y-104814221D01*
X129929563Y-104791166D01*
X129935227Y-104768557D01*
X129943079Y-104746613D01*
X129953044Y-104725543D01*
X129965026Y-104705552D01*
X129978910Y-104686832D01*
X129994562Y-104669562D01*
X130011832Y-104653910D01*
X130030552Y-104640026D01*
X130050543Y-104628044D01*
X130071613Y-104618079D01*
X130093557Y-104610227D01*
X130116166Y-104604563D01*
X130139221Y-104601144D01*
X130162500Y-104600000D01*
X130637500Y-104600000D01*
X130660779Y-104601144D01*
G37*
G36*
X130660779Y-106351144D02*
G01*
X130683834Y-106354563D01*
X130706443Y-106360227D01*
X130728387Y-106368079D01*
X130749457Y-106378044D01*
X130769448Y-106390026D01*
X130788168Y-106403910D01*
X130805438Y-106419562D01*
X130821090Y-106436832D01*
X130834974Y-106455552D01*
X130846956Y-106475543D01*
X130856921Y-106496613D01*
X130864773Y-106518557D01*
X130870437Y-106541166D01*
X130873856Y-106564221D01*
X130875000Y-106587500D01*
X130875000Y-107162500D01*
X130873856Y-107185779D01*
X130870437Y-107208834D01*
X130864773Y-107231443D01*
X130856921Y-107253387D01*
X130846956Y-107274457D01*
X130834974Y-107294448D01*
X130821090Y-107313168D01*
X130805438Y-107330438D01*
X130788168Y-107346090D01*
X130769448Y-107359974D01*
X130749457Y-107371956D01*
X130728387Y-107381921D01*
X130706443Y-107389773D01*
X130683834Y-107395437D01*
X130660779Y-107398856D01*
X130637500Y-107400000D01*
X130162500Y-107400000D01*
X130139221Y-107398856D01*
X130116166Y-107395437D01*
X130093557Y-107389773D01*
X130071613Y-107381921D01*
X130050543Y-107371956D01*
X130030552Y-107359974D01*
X130011832Y-107346090D01*
X129994562Y-107330438D01*
X129978910Y-107313168D01*
X129965026Y-107294448D01*
X129953044Y-107274457D01*
X129943079Y-107253387D01*
X129935227Y-107231443D01*
X129929563Y-107208834D01*
X129926144Y-107185779D01*
X129925000Y-107162500D01*
X129925000Y-106587500D01*
X129926144Y-106564221D01*
X129929563Y-106541166D01*
X129935227Y-106518557D01*
X129943079Y-106496613D01*
X129953044Y-106475543D01*
X129965026Y-106455552D01*
X129978910Y-106436832D01*
X129994562Y-106419562D01*
X130011832Y-106403910D01*
X130030552Y-106390026D01*
X130050543Y-106378044D01*
X130071613Y-106368079D01*
X130093557Y-106360227D01*
X130116166Y-106354563D01*
X130139221Y-106351144D01*
X130162500Y-106350000D01*
X130637500Y-106350000D01*
X130660779Y-106351144D01*
G37*
D12*
X141700000Y-73800000D03*
X143700000Y-72850000D03*
X143700000Y-74750000D03*
X143200000Y-116550000D03*
X141200000Y-117500000D03*
X141200000Y-115600000D03*
D15*
X130250000Y-78700000D03*
X128150000Y-78700000D03*
X127900000Y-119450000D03*
X130000000Y-119450000D03*
D11*
G36*
X125449505Y-124626204D02*
G01*
X125473773Y-124629804D01*
X125497572Y-124635765D01*
X125520671Y-124644030D01*
X125542850Y-124654520D01*
X125563893Y-124667132D01*
X125583599Y-124681747D01*
X125601777Y-124698223D01*
X125618253Y-124716401D01*
X125632868Y-124736107D01*
X125645480Y-124757150D01*
X125655970Y-124779329D01*
X125664235Y-124802428D01*
X125670196Y-124826227D01*
X125673796Y-124850495D01*
X125675000Y-124874999D01*
X125675000Y-125900001D01*
X125673796Y-125924505D01*
X125670196Y-125948773D01*
X125664235Y-125972572D01*
X125655970Y-125995671D01*
X125645480Y-126017850D01*
X125632868Y-126038893D01*
X125618253Y-126058599D01*
X125601777Y-126076777D01*
X125583599Y-126093253D01*
X125563893Y-126107868D01*
X125542850Y-126120480D01*
X125520671Y-126130970D01*
X125497572Y-126139235D01*
X125473773Y-126145196D01*
X125449505Y-126148796D01*
X125425001Y-126150000D01*
X122574999Y-126150000D01*
X122550495Y-126148796D01*
X122526227Y-126145196D01*
X122502428Y-126139235D01*
X122479329Y-126130970D01*
X122457150Y-126120480D01*
X122436107Y-126107868D01*
X122416401Y-126093253D01*
X122398223Y-126076777D01*
X122381747Y-126058599D01*
X122367132Y-126038893D01*
X122354520Y-126017850D01*
X122344030Y-125995671D01*
X122335765Y-125972572D01*
X122329804Y-125948773D01*
X122326204Y-125924505D01*
X122325000Y-125900001D01*
X122325000Y-124874999D01*
X122326204Y-124850495D01*
X122329804Y-124826227D01*
X122335765Y-124802428D01*
X122344030Y-124779329D01*
X122354520Y-124757150D01*
X122367132Y-124736107D01*
X122381747Y-124716401D01*
X122398223Y-124698223D01*
X122416401Y-124681747D01*
X122436107Y-124667132D01*
X122457150Y-124654520D01*
X122479329Y-124644030D01*
X122502428Y-124635765D01*
X122526227Y-124629804D01*
X122550495Y-124626204D01*
X122574999Y-124625000D01*
X125425001Y-124625000D01*
X125449505Y-124626204D01*
G37*
G36*
X125449505Y-118651204D02*
G01*
X125473773Y-118654804D01*
X125497572Y-118660765D01*
X125520671Y-118669030D01*
X125542850Y-118679520D01*
X125563893Y-118692132D01*
X125583599Y-118706747D01*
X125601777Y-118723223D01*
X125618253Y-118741401D01*
X125632868Y-118761107D01*
X125645480Y-118782150D01*
X125655970Y-118804329D01*
X125664235Y-118827428D01*
X125670196Y-118851227D01*
X125673796Y-118875495D01*
X125675000Y-118899999D01*
X125675000Y-119925001D01*
X125673796Y-119949505D01*
X125670196Y-119973773D01*
X125664235Y-119997572D01*
X125655970Y-120020671D01*
X125645480Y-120042850D01*
X125632868Y-120063893D01*
X125618253Y-120083599D01*
X125601777Y-120101777D01*
X125583599Y-120118253D01*
X125563893Y-120132868D01*
X125542850Y-120145480D01*
X125520671Y-120155970D01*
X125497572Y-120164235D01*
X125473773Y-120170196D01*
X125449505Y-120173796D01*
X125425001Y-120175000D01*
X122574999Y-120175000D01*
X122550495Y-120173796D01*
X122526227Y-120170196D01*
X122502428Y-120164235D01*
X122479329Y-120155970D01*
X122457150Y-120145480D01*
X122436107Y-120132868D01*
X122416401Y-120118253D01*
X122398223Y-120101777D01*
X122381747Y-120083599D01*
X122367132Y-120063893D01*
X122354520Y-120042850D01*
X122344030Y-120020671D01*
X122335765Y-119997572D01*
X122329804Y-119973773D01*
X122326204Y-119949505D01*
X122325000Y-119925001D01*
X122325000Y-118899999D01*
X122326204Y-118875495D01*
X122329804Y-118851227D01*
X122335765Y-118827428D01*
X122344030Y-118804329D01*
X122354520Y-118782150D01*
X122367132Y-118761107D01*
X122381747Y-118741401D01*
X122398223Y-118723223D01*
X122416401Y-118706747D01*
X122436107Y-118692132D01*
X122457150Y-118679520D01*
X122479329Y-118669030D01*
X122502428Y-118660765D01*
X122526227Y-118654804D01*
X122550495Y-118651204D01*
X122574999Y-118650000D01*
X125425001Y-118650000D01*
X125449505Y-118651204D01*
G37*
D15*
X130250000Y-76250000D03*
X128150000Y-76250000D03*
D13*
X132650000Y-121600000D03*
X132650000Y-119500000D03*
M02*
