G04 #@! TF.GenerationSoftware,KiCad,Pcbnew,(5.1.5-0)*
G04 #@! TF.CreationDate,2021-01-10T19:51:38-07:00*
G04 #@! TF.ProjectId,switch_board,73776974-6368-45f6-926f-6172642e6b69,rev?*
G04 #@! TF.SameCoordinates,Original*
G04 #@! TF.FileFunction,Legend,Top*
G04 #@! TF.FilePolarity,Positive*
%FSLAX46Y46*%
G04 Gerber Fmt 4.6, Leading zero omitted, Abs format (unit mm)*
G04 Created by KiCad (PCBNEW (5.1.5-0)) date 2021-01-10 19:51:38*
%MOMM*%
%LPD*%
G04 APERTURE LIST*
%ADD10C,0.120000*%
%ADD11C,0.150000*%
G04 APERTURE END LIST*
D10*
X131315000Y-104060000D02*
X131315000Y-107940000D01*
X135785000Y-109110000D02*
X135785000Y-108060000D01*
X133285000Y-109110000D02*
X135785000Y-109110000D01*
X135785000Y-103940000D02*
X136775000Y-103940000D01*
X135785000Y-102890000D02*
X135785000Y-103940000D01*
X133285000Y-102890000D02*
X135785000Y-102890000D01*
X137360000Y-124860000D02*
X137360000Y-126675000D01*
X137115000Y-124860000D02*
X137360000Y-124860000D01*
X137115000Y-121000000D02*
X137115000Y-124860000D01*
X137115000Y-117140000D02*
X137360000Y-117140000D01*
X137115000Y-121000000D02*
X137115000Y-117140000D01*
X148885000Y-124860000D02*
X148640000Y-124860000D01*
X148885000Y-121000000D02*
X148885000Y-124860000D01*
X148885000Y-117140000D02*
X148640000Y-117140000D01*
X148885000Y-121000000D02*
X148885000Y-117140000D01*
X154490000Y-120828733D02*
X154490000Y-121171267D01*
X155510000Y-120828733D02*
X155510000Y-121171267D01*
X154490000Y-110828733D02*
X154490000Y-111171267D01*
X155510000Y-110828733D02*
X155510000Y-111171267D01*
X154490000Y-100828733D02*
X154490000Y-101171267D01*
X155510000Y-100828733D02*
X155510000Y-101171267D01*
X154490000Y-90828733D02*
X154490000Y-91171267D01*
X155510000Y-90828733D02*
X155510000Y-91171267D01*
X154490000Y-80828733D02*
X154490000Y-81171267D01*
X155510000Y-80828733D02*
X155510000Y-81171267D01*
X154490000Y-70828733D02*
X154490000Y-71171267D01*
X155510000Y-70828733D02*
X155510000Y-71171267D01*
X154490000Y-60828733D02*
X154490000Y-61171267D01*
X155510000Y-60828733D02*
X155510000Y-61171267D01*
X176278733Y-19900000D02*
X176621267Y-19900000D01*
X176278733Y-18880000D02*
X176621267Y-18880000D01*
X176278733Y-22410000D02*
X176621267Y-22410000D01*
X176278733Y-21390000D02*
X176621267Y-21390000D01*
X154490000Y-50828733D02*
X154490000Y-51171267D01*
X155510000Y-50828733D02*
X155510000Y-51171267D01*
X168760000Y-126580000D02*
X167300000Y-126580000D01*
X168760000Y-123420000D02*
X166600000Y-123420000D01*
X168760000Y-123420000D02*
X168760000Y-124350000D01*
X168760000Y-126580000D02*
X168760000Y-125650000D01*
X168760000Y-116580000D02*
X167300000Y-116580000D01*
X168760000Y-113420000D02*
X166600000Y-113420000D01*
X168760000Y-113420000D02*
X168760000Y-114350000D01*
X168760000Y-116580000D02*
X168760000Y-115650000D01*
X168760000Y-106580000D02*
X167300000Y-106580000D01*
X168760000Y-103420000D02*
X166600000Y-103420000D01*
X168760000Y-103420000D02*
X168760000Y-104350000D01*
X168760000Y-106580000D02*
X168760000Y-105650000D01*
X168760000Y-96580000D02*
X167300000Y-96580000D01*
X168760000Y-93420000D02*
X166600000Y-93420000D01*
X168760000Y-93420000D02*
X168760000Y-94350000D01*
X168760000Y-96580000D02*
X168760000Y-95650000D01*
X168760000Y-86580000D02*
X167300000Y-86580000D01*
X168760000Y-83420000D02*
X166600000Y-83420000D01*
X168760000Y-83420000D02*
X168760000Y-84350000D01*
X168760000Y-86580000D02*
X168760000Y-85650000D01*
X168760000Y-76580000D02*
X167300000Y-76580000D01*
X168760000Y-73420000D02*
X166600000Y-73420000D01*
X168760000Y-73420000D02*
X168760000Y-74350000D01*
X168760000Y-76580000D02*
X168760000Y-75650000D01*
X168760000Y-66580000D02*
X167300000Y-66580000D01*
X168760000Y-63420000D02*
X166600000Y-63420000D01*
X168760000Y-63420000D02*
X168760000Y-64350000D01*
X168760000Y-66580000D02*
X168760000Y-65650000D01*
X168760000Y-56580000D02*
X167300000Y-56580000D01*
X168760000Y-53420000D02*
X166600000Y-53420000D01*
X168760000Y-53420000D02*
X168760000Y-54350000D01*
X168760000Y-56580000D02*
X168760000Y-55650000D01*
X157650000Y-117400000D02*
X177550000Y-117400000D01*
X177550000Y-117400000D02*
X177550000Y-122600000D01*
X177550000Y-122600000D02*
X157650000Y-122600000D01*
X157650000Y-122600000D02*
X157650000Y-117400000D01*
X158550000Y-122800000D02*
X157450000Y-122800000D01*
X157450000Y-122800000D02*
X157450000Y-121800000D01*
X157650000Y-107400000D02*
X177550000Y-107400000D01*
X177550000Y-107400000D02*
X177550000Y-112600000D01*
X177550000Y-112600000D02*
X157650000Y-112600000D01*
X157650000Y-112600000D02*
X157650000Y-107400000D01*
X158550000Y-112800000D02*
X157450000Y-112800000D01*
X157450000Y-112800000D02*
X157450000Y-111800000D01*
X157650000Y-97400000D02*
X177550000Y-97400000D01*
X177550000Y-97400000D02*
X177550000Y-102600000D01*
X177550000Y-102600000D02*
X157650000Y-102600000D01*
X157650000Y-102600000D02*
X157650000Y-97400000D01*
X158550000Y-102800000D02*
X157450000Y-102800000D01*
X157450000Y-102800000D02*
X157450000Y-101800000D01*
X157650000Y-87400000D02*
X177550000Y-87400000D01*
X177550000Y-87400000D02*
X177550000Y-92600000D01*
X177550000Y-92600000D02*
X157650000Y-92600000D01*
X157650000Y-92600000D02*
X157650000Y-87400000D01*
X158550000Y-92800000D02*
X157450000Y-92800000D01*
X157450000Y-92800000D02*
X157450000Y-91800000D01*
X157650000Y-77400000D02*
X177550000Y-77400000D01*
X177550000Y-77400000D02*
X177550000Y-82600000D01*
X177550000Y-82600000D02*
X157650000Y-82600000D01*
X157650000Y-82600000D02*
X157650000Y-77400000D01*
X158550000Y-82800000D02*
X157450000Y-82800000D01*
X157450000Y-82800000D02*
X157450000Y-81800000D01*
X157650000Y-67400000D02*
X177550000Y-67400000D01*
X177550000Y-67400000D02*
X177550000Y-72600000D01*
X177550000Y-72600000D02*
X157650000Y-72600000D01*
X157650000Y-72600000D02*
X157650000Y-67400000D01*
X158550000Y-72800000D02*
X157450000Y-72800000D01*
X157450000Y-72800000D02*
X157450000Y-71800000D01*
X157650000Y-57400000D02*
X177550000Y-57400000D01*
X177550000Y-57400000D02*
X177550000Y-62600000D01*
X177550000Y-62600000D02*
X157650000Y-62600000D01*
X157650000Y-62600000D02*
X157650000Y-57400000D01*
X158550000Y-62800000D02*
X157450000Y-62800000D01*
X157450000Y-62800000D02*
X157450000Y-61800000D01*
X157650000Y-47400000D02*
X177550000Y-47400000D01*
X177550000Y-47400000D02*
X177550000Y-52600000D01*
X177550000Y-52600000D02*
X157650000Y-52600000D01*
X157650000Y-52600000D02*
X157650000Y-47400000D01*
X158550000Y-52800000D02*
X157450000Y-52800000D01*
X157450000Y-52800000D02*
X157450000Y-51800000D01*
X153640000Y-17500000D02*
X153640000Y-18750000D01*
X154890000Y-17500000D02*
X153640000Y-17500000D01*
X161000000Y-21910000D02*
X161000000Y-21410000D01*
X161100000Y-21410000D02*
X161100000Y-21910000D01*
X160900000Y-21410000D02*
X161100000Y-21410000D01*
X160900000Y-21910000D02*
X160900000Y-21410000D01*
X159000000Y-21910000D02*
X159000000Y-21410000D01*
X159100000Y-21410000D02*
X159100000Y-21910000D01*
X158900000Y-21410000D02*
X159100000Y-21410000D01*
X158900000Y-21910000D02*
X158900000Y-21410000D01*
X157000000Y-21910000D02*
X157000000Y-21410000D01*
X157100000Y-21410000D02*
X157100000Y-21910000D01*
X156900000Y-21410000D02*
X157100000Y-21410000D01*
X156900000Y-21910000D02*
X156900000Y-21410000D01*
X164060000Y-20410000D02*
X163450000Y-20410000D01*
X164060000Y-19110000D02*
X163450000Y-19110000D01*
X153940000Y-20410000D02*
X154550000Y-20410000D01*
X153940000Y-19110000D02*
X154550000Y-19110000D01*
X161500000Y-18410000D02*
X161500000Y-17800000D01*
X163450000Y-18410000D02*
X161500000Y-18410000D01*
X163450000Y-21910000D02*
X163450000Y-18410000D01*
X154550000Y-21910000D02*
X163450000Y-21910000D01*
X154550000Y-18410000D02*
X154550000Y-21910000D01*
X156500000Y-18410000D02*
X154550000Y-18410000D01*
X156500000Y-17800000D02*
X156500000Y-18410000D01*
X155700000Y-17700000D02*
X155400000Y-17700000D01*
X155400000Y-17600000D02*
X155400000Y-17800000D01*
X155700000Y-17600000D02*
X155400000Y-17600000D01*
X155700000Y-17800000D02*
X155700000Y-17600000D01*
X164060000Y-17800000D02*
X153940000Y-17800000D01*
X164060000Y-22520000D02*
X164060000Y-17800000D01*
X153940000Y-22520000D02*
X164060000Y-22520000D01*
X153940000Y-17800000D02*
X153940000Y-22520000D01*
X146060000Y-17990000D02*
X149940000Y-17990000D01*
X151110000Y-21110000D02*
X150060000Y-21110000D01*
X151110000Y-19960000D02*
X151110000Y-21110000D01*
X145940000Y-21110000D02*
X145940000Y-22100000D01*
X144890000Y-21110000D02*
X145940000Y-21110000D01*
X144890000Y-19960000D02*
X144890000Y-21110000D01*
X188200000Y-116320000D02*
X191800000Y-116320000D01*
X188200000Y-123680000D02*
X191800000Y-123680000D01*
X193680000Y-118200000D02*
X193680000Y-121800000D01*
X186320000Y-118200000D02*
X186320000Y-121800000D01*
X188200000Y-106320000D02*
X191800000Y-106320000D01*
X188200000Y-113680000D02*
X191800000Y-113680000D01*
X193680000Y-108200000D02*
X193680000Y-111800000D01*
X186320000Y-108200000D02*
X186320000Y-111800000D01*
X188200000Y-96320000D02*
X191800000Y-96320000D01*
X188200000Y-103680000D02*
X191800000Y-103680000D01*
X193680000Y-98200000D02*
X193680000Y-101800000D01*
X186320000Y-98200000D02*
X186320000Y-101800000D01*
X188200000Y-86320000D02*
X191800000Y-86320000D01*
X188200000Y-93680000D02*
X191800000Y-93680000D01*
X193680000Y-88200000D02*
X193680000Y-91800000D01*
X186320000Y-88200000D02*
X186320000Y-91800000D01*
X188200000Y-76320000D02*
X191800000Y-76320000D01*
X188200000Y-83680000D02*
X191800000Y-83680000D01*
X193680000Y-78200000D02*
X193680000Y-81800000D01*
X186320000Y-78200000D02*
X186320000Y-81800000D01*
X188200000Y-66320000D02*
X191800000Y-66320000D01*
X188200000Y-73680000D02*
X191800000Y-73680000D01*
X193680000Y-68200000D02*
X193680000Y-71800000D01*
X186320000Y-68200000D02*
X186320000Y-71800000D01*
X188200000Y-56320000D02*
X191800000Y-56320000D01*
X188200000Y-63680000D02*
X191800000Y-63680000D01*
X193680000Y-58200000D02*
X193680000Y-61800000D01*
X186320000Y-58200000D02*
X186320000Y-61800000D01*
X188200000Y-46320000D02*
X191800000Y-46320000D01*
X188200000Y-53680000D02*
X191800000Y-53680000D01*
X193680000Y-48200000D02*
X193680000Y-51800000D01*
X186320000Y-48200000D02*
X186320000Y-51800000D01*
X130890000Y-126360000D02*
X132140000Y-126360000D01*
X130890000Y-125110000D02*
X130890000Y-126360000D01*
X135300000Y-119000000D02*
X134800000Y-119000000D01*
X134800000Y-118900000D02*
X135300000Y-118900000D01*
X134800000Y-119100000D02*
X134800000Y-118900000D01*
X135300000Y-119100000D02*
X134800000Y-119100000D01*
X135300000Y-121000000D02*
X134800000Y-121000000D01*
X134800000Y-120900000D02*
X135300000Y-120900000D01*
X134800000Y-121100000D02*
X134800000Y-120900000D01*
X135300000Y-121100000D02*
X134800000Y-121100000D01*
X135300000Y-123000000D02*
X134800000Y-123000000D01*
X134800000Y-122900000D02*
X135300000Y-122900000D01*
X134800000Y-123100000D02*
X134800000Y-122900000D01*
X135300000Y-123100000D02*
X134800000Y-123100000D01*
X133800000Y-115940000D02*
X133800000Y-116550000D01*
X132500000Y-115940000D02*
X132500000Y-116550000D01*
X133800000Y-126060000D02*
X133800000Y-125450000D01*
X132500000Y-126060000D02*
X132500000Y-125450000D01*
X131800000Y-118500000D02*
X131190000Y-118500000D01*
X131800000Y-116550000D02*
X131800000Y-118500000D01*
X135300000Y-116550000D02*
X131800000Y-116550000D01*
X135300000Y-125450000D02*
X135300000Y-116550000D01*
X131800000Y-125450000D02*
X135300000Y-125450000D01*
X131800000Y-123500000D02*
X131800000Y-125450000D01*
X131190000Y-123500000D02*
X131800000Y-123500000D01*
X131090000Y-124300000D02*
X131090000Y-124600000D01*
X130990000Y-124600000D02*
X131190000Y-124600000D01*
X130990000Y-124300000D02*
X130990000Y-124600000D01*
X131190000Y-124300000D02*
X130990000Y-124300000D01*
X131190000Y-115940000D02*
X131190000Y-126060000D01*
X135910000Y-115940000D02*
X131190000Y-115940000D01*
X135910000Y-126060000D02*
X135910000Y-115940000D01*
X131190000Y-126060000D02*
X135910000Y-126060000D01*
X142000000Y-74670000D02*
X143110000Y-74670000D01*
X143110000Y-74670000D02*
X143110000Y-76000000D01*
X129370000Y-74670000D02*
X129370000Y-95110000D01*
X129370000Y-95110000D02*
X138000000Y-95110000D01*
X138000000Y-74670000D02*
X138000000Y-95110000D01*
X129370000Y-74670000D02*
X138000000Y-74670000D01*
X129370000Y-92510000D02*
X138000000Y-92510000D01*
X129370000Y-89970000D02*
X138000000Y-89970000D01*
X129370000Y-87430000D02*
X138000000Y-87430000D01*
X129370000Y-84890000D02*
X138000000Y-84890000D01*
X129370000Y-82350000D02*
X138000000Y-82350000D01*
X129370000Y-79810000D02*
X138000000Y-79810000D01*
X129370000Y-77270000D02*
X138000000Y-77270000D01*
X140510000Y-94140000D02*
X140950000Y-94140000D01*
X138000000Y-94140000D02*
X138410000Y-94140000D01*
X140510000Y-93420000D02*
X140950000Y-93420000D01*
X138000000Y-93420000D02*
X138410000Y-93420000D01*
X140510000Y-91600000D02*
X140950000Y-91600000D01*
X138000000Y-91600000D02*
X138410000Y-91600000D01*
X140510000Y-90880000D02*
X140950000Y-90880000D01*
X138000000Y-90880000D02*
X138410000Y-90880000D01*
X140510000Y-89060000D02*
X140950000Y-89060000D01*
X138000000Y-89060000D02*
X138410000Y-89060000D01*
X140510000Y-88340000D02*
X140950000Y-88340000D01*
X138000000Y-88340000D02*
X138410000Y-88340000D01*
X140510000Y-86520000D02*
X140950000Y-86520000D01*
X138000000Y-86520000D02*
X138410000Y-86520000D01*
X140510000Y-85800000D02*
X140950000Y-85800000D01*
X138000000Y-85800000D02*
X138410000Y-85800000D01*
X140510000Y-83980000D02*
X140950000Y-83980000D01*
X138000000Y-83980000D02*
X138410000Y-83980000D01*
X140510000Y-83260000D02*
X140950000Y-83260000D01*
X138000000Y-83260000D02*
X138410000Y-83260000D01*
X140510000Y-81440000D02*
X140950000Y-81440000D01*
X138000000Y-81440000D02*
X138410000Y-81440000D01*
X140510000Y-80720000D02*
X140950000Y-80720000D01*
X138000000Y-80720000D02*
X138410000Y-80720000D01*
X140510000Y-78900000D02*
X140950000Y-78900000D01*
X138000000Y-78900000D02*
X138410000Y-78900000D01*
X140510000Y-78180000D02*
X140950000Y-78180000D01*
X138000000Y-78180000D02*
X138410000Y-78180000D01*
X140510000Y-76360000D02*
X140890000Y-76360000D01*
X138000000Y-76360000D02*
X138410000Y-76360000D01*
X140510000Y-75640000D02*
X140890000Y-75640000D01*
X138000000Y-75640000D02*
X138410000Y-75640000D01*
X129370000Y-77151900D02*
X138000000Y-77151900D01*
X129370000Y-77033805D02*
X138000000Y-77033805D01*
X129370000Y-76915710D02*
X138000000Y-76915710D01*
X129370000Y-76797615D02*
X138000000Y-76797615D01*
X129370000Y-76679520D02*
X138000000Y-76679520D01*
X129370000Y-76561425D02*
X138000000Y-76561425D01*
X129370000Y-76443330D02*
X138000000Y-76443330D01*
X129370000Y-76325235D02*
X138000000Y-76325235D01*
X129370000Y-76207140D02*
X138000000Y-76207140D01*
X129370000Y-76089045D02*
X138000000Y-76089045D01*
X129370000Y-75970950D02*
X138000000Y-75970950D01*
X129370000Y-75852855D02*
X138000000Y-75852855D01*
X129370000Y-75734760D02*
X138000000Y-75734760D01*
X129370000Y-75616665D02*
X138000000Y-75616665D01*
X129370000Y-75498570D02*
X138000000Y-75498570D01*
X129370000Y-75380475D02*
X138000000Y-75380475D01*
X129370000Y-75262380D02*
X138000000Y-75262380D01*
X129370000Y-75144285D02*
X138000000Y-75144285D01*
X129370000Y-75026190D02*
X138000000Y-75026190D01*
X129370000Y-74908095D02*
X138000000Y-74908095D01*
X129370000Y-74790000D02*
X138000000Y-74790000D01*
X130790000Y-51360000D02*
X132040000Y-51360000D01*
X130790000Y-50110000D02*
X130790000Y-51360000D01*
X135200000Y-48000000D02*
X134700000Y-48000000D01*
X134700000Y-47900000D02*
X135200000Y-47900000D01*
X134700000Y-48100000D02*
X134700000Y-47900000D01*
X135200000Y-48100000D02*
X134700000Y-48100000D01*
X133700000Y-44940000D02*
X133700000Y-45550000D01*
X132400000Y-44940000D02*
X132400000Y-45550000D01*
X133700000Y-51060000D02*
X133700000Y-50450000D01*
X132400000Y-51060000D02*
X132400000Y-50450000D01*
X131700000Y-47500000D02*
X131090000Y-47500000D01*
X131700000Y-45550000D02*
X131700000Y-47500000D01*
X135200000Y-45550000D02*
X131700000Y-45550000D01*
X135200000Y-50450000D02*
X135200000Y-45550000D01*
X131700000Y-50450000D02*
X135200000Y-50450000D01*
X131700000Y-48500000D02*
X131700000Y-50450000D01*
X131090000Y-48500000D02*
X131700000Y-48500000D01*
X130990000Y-49300000D02*
X130990000Y-49600000D01*
X130890000Y-49600000D02*
X131090000Y-49600000D01*
X130890000Y-49300000D02*
X130890000Y-49600000D01*
X131090000Y-49300000D02*
X130890000Y-49300000D01*
X131090000Y-44940000D02*
X131090000Y-51060000D01*
X135810000Y-44940000D02*
X131090000Y-44940000D01*
X135810000Y-51060000D02*
X135810000Y-44940000D01*
X131090000Y-51060000D02*
X135810000Y-51060000D01*
X169200000Y-17550000D02*
X165750000Y-17550000D01*
X169200000Y-17550000D02*
X171150000Y-17550000D01*
X169200000Y-22670000D02*
X167250000Y-22670000D01*
X169200000Y-22670000D02*
X171150000Y-22670000D01*
X180761252Y-119290000D02*
X180238748Y-119290000D01*
X180761252Y-120710000D02*
X180238748Y-120710000D01*
X180761252Y-109290000D02*
X180238748Y-109290000D01*
X180761252Y-110710000D02*
X180238748Y-110710000D01*
X180761252Y-99290000D02*
X180238748Y-99290000D01*
X180761252Y-100710000D02*
X180238748Y-100710000D01*
X180761252Y-89290000D02*
X180238748Y-89290000D01*
X180761252Y-90710000D02*
X180238748Y-90710000D01*
X180761252Y-79290000D02*
X180238748Y-79290000D01*
X180761252Y-80710000D02*
X180238748Y-80710000D01*
X180761252Y-69290000D02*
X180238748Y-69290000D01*
X180761252Y-70710000D02*
X180238748Y-70710000D01*
X180761252Y-59290000D02*
X180238748Y-59290000D01*
X180761252Y-60710000D02*
X180238748Y-60710000D01*
X180761252Y-49290000D02*
X180238748Y-49290000D01*
X180761252Y-50710000D02*
X180238748Y-50710000D01*
X180761252Y-121490000D02*
X180238748Y-121490000D01*
X180761252Y-122910000D02*
X180238748Y-122910000D01*
X180238748Y-118410000D02*
X180761252Y-118410000D01*
X180238748Y-116990000D02*
X180761252Y-116990000D01*
X180761252Y-111490000D02*
X180238748Y-111490000D01*
X180761252Y-112910000D02*
X180238748Y-112910000D01*
X180238748Y-108410000D02*
X180761252Y-108410000D01*
X180238748Y-106990000D02*
X180761252Y-106990000D01*
X180761252Y-101490000D02*
X180238748Y-101490000D01*
X180761252Y-102910000D02*
X180238748Y-102910000D01*
X180238748Y-98410000D02*
X180761252Y-98410000D01*
X180238748Y-96990000D02*
X180761252Y-96990000D01*
X180761252Y-91490000D02*
X180238748Y-91490000D01*
X180761252Y-92910000D02*
X180238748Y-92910000D01*
X180238748Y-88410000D02*
X180761252Y-88410000D01*
X180238748Y-86990000D02*
X180761252Y-86990000D01*
X180761252Y-81490000D02*
X180238748Y-81490000D01*
X180761252Y-82910000D02*
X180238748Y-82910000D01*
X180238748Y-78410000D02*
X180761252Y-78410000D01*
X180238748Y-76990000D02*
X180761252Y-76990000D01*
X180761252Y-71490000D02*
X180238748Y-71490000D01*
X180761252Y-72910000D02*
X180238748Y-72910000D01*
X180238748Y-68410000D02*
X180761252Y-68410000D01*
X180238748Y-66990000D02*
X180761252Y-66990000D01*
X180761252Y-61490000D02*
X180238748Y-61490000D01*
X180761252Y-62910000D02*
X180238748Y-62910000D01*
X180238748Y-58410000D02*
X180761252Y-58410000D01*
X180238748Y-56990000D02*
X180761252Y-56990000D01*
X168228733Y-25100000D02*
X168571267Y-25100000D01*
X168228733Y-24080000D02*
X168571267Y-24080000D01*
X180628733Y-22310000D02*
X180971267Y-22310000D01*
X180628733Y-21290000D02*
X180971267Y-21290000D01*
X180761252Y-51490000D02*
X180238748Y-51490000D01*
X180761252Y-52910000D02*
X180238748Y-52910000D01*
X180238748Y-48410000D02*
X180761252Y-48410000D01*
X180238748Y-46990000D02*
X180761252Y-46990000D01*
X138510000Y-113171267D02*
X138510000Y-112828733D01*
X137490000Y-113171267D02*
X137490000Y-112828733D01*
D11*
X136752380Y-106333333D02*
X137466666Y-106333333D01*
X137609523Y-106380952D01*
X137704761Y-106476190D01*
X137752380Y-106619047D01*
X137752380Y-106714285D01*
X136847619Y-105904761D02*
X136800000Y-105857142D01*
X136752380Y-105761904D01*
X136752380Y-105523809D01*
X136800000Y-105428571D01*
X136847619Y-105380952D01*
X136942857Y-105333333D01*
X137038095Y-105333333D01*
X137180952Y-105380952D01*
X137752380Y-105952380D01*
X137752380Y-105333333D01*
X137452380Y-128761904D02*
X138261904Y-128761904D01*
X138357142Y-128714285D01*
X138404761Y-128666666D01*
X138452380Y-128571428D01*
X138452380Y-128380952D01*
X138404761Y-128285714D01*
X138357142Y-128238095D01*
X138261904Y-128190476D01*
X137452380Y-128190476D01*
X138452380Y-127190476D02*
X138452380Y-127761904D01*
X138452380Y-127476190D02*
X137452380Y-127476190D01*
X137595238Y-127571428D01*
X137690476Y-127666666D01*
X137738095Y-127761904D01*
X156882380Y-121642857D02*
X156406190Y-121976190D01*
X156882380Y-122214285D02*
X155882380Y-122214285D01*
X155882380Y-121833333D01*
X155930000Y-121738095D01*
X155977619Y-121690476D01*
X156072857Y-121642857D01*
X156215714Y-121642857D01*
X156310952Y-121690476D01*
X156358571Y-121738095D01*
X156406190Y-121833333D01*
X156406190Y-122214285D01*
X156882380Y-120690476D02*
X156882380Y-121261904D01*
X156882380Y-120976190D02*
X155882380Y-120976190D01*
X156025238Y-121071428D01*
X156120476Y-121166666D01*
X156168095Y-121261904D01*
X155882380Y-120071428D02*
X155882380Y-119976190D01*
X155930000Y-119880952D01*
X155977619Y-119833333D01*
X156072857Y-119785714D01*
X156263333Y-119738095D01*
X156501428Y-119738095D01*
X156691904Y-119785714D01*
X156787142Y-119833333D01*
X156834761Y-119880952D01*
X156882380Y-119976190D01*
X156882380Y-120071428D01*
X156834761Y-120166666D01*
X156787142Y-120214285D01*
X156691904Y-120261904D01*
X156501428Y-120309523D01*
X156263333Y-120309523D01*
X156072857Y-120261904D01*
X155977619Y-120214285D01*
X155930000Y-120166666D01*
X155882380Y-120071428D01*
X156882380Y-111166666D02*
X156406190Y-111500000D01*
X156882380Y-111738095D02*
X155882380Y-111738095D01*
X155882380Y-111357142D01*
X155930000Y-111261904D01*
X155977619Y-111214285D01*
X156072857Y-111166666D01*
X156215714Y-111166666D01*
X156310952Y-111214285D01*
X156358571Y-111261904D01*
X156406190Y-111357142D01*
X156406190Y-111738095D01*
X156882380Y-110690476D02*
X156882380Y-110500000D01*
X156834761Y-110404761D01*
X156787142Y-110357142D01*
X156644285Y-110261904D01*
X156453809Y-110214285D01*
X156072857Y-110214285D01*
X155977619Y-110261904D01*
X155930000Y-110309523D01*
X155882380Y-110404761D01*
X155882380Y-110595238D01*
X155930000Y-110690476D01*
X155977619Y-110738095D01*
X156072857Y-110785714D01*
X156310952Y-110785714D01*
X156406190Y-110738095D01*
X156453809Y-110690476D01*
X156501428Y-110595238D01*
X156501428Y-110404761D01*
X156453809Y-110309523D01*
X156406190Y-110261904D01*
X156310952Y-110214285D01*
X156882380Y-101166666D02*
X156406190Y-101500000D01*
X156882380Y-101738095D02*
X155882380Y-101738095D01*
X155882380Y-101357142D01*
X155930000Y-101261904D01*
X155977619Y-101214285D01*
X156072857Y-101166666D01*
X156215714Y-101166666D01*
X156310952Y-101214285D01*
X156358571Y-101261904D01*
X156406190Y-101357142D01*
X156406190Y-101738095D01*
X156310952Y-100595238D02*
X156263333Y-100690476D01*
X156215714Y-100738095D01*
X156120476Y-100785714D01*
X156072857Y-100785714D01*
X155977619Y-100738095D01*
X155930000Y-100690476D01*
X155882380Y-100595238D01*
X155882380Y-100404761D01*
X155930000Y-100309523D01*
X155977619Y-100261904D01*
X156072857Y-100214285D01*
X156120476Y-100214285D01*
X156215714Y-100261904D01*
X156263333Y-100309523D01*
X156310952Y-100404761D01*
X156310952Y-100595238D01*
X156358571Y-100690476D01*
X156406190Y-100738095D01*
X156501428Y-100785714D01*
X156691904Y-100785714D01*
X156787142Y-100738095D01*
X156834761Y-100690476D01*
X156882380Y-100595238D01*
X156882380Y-100404761D01*
X156834761Y-100309523D01*
X156787142Y-100261904D01*
X156691904Y-100214285D01*
X156501428Y-100214285D01*
X156406190Y-100261904D01*
X156358571Y-100309523D01*
X156310952Y-100404761D01*
X156882380Y-91166666D02*
X156406190Y-91500000D01*
X156882380Y-91738095D02*
X155882380Y-91738095D01*
X155882380Y-91357142D01*
X155930000Y-91261904D01*
X155977619Y-91214285D01*
X156072857Y-91166666D01*
X156215714Y-91166666D01*
X156310952Y-91214285D01*
X156358571Y-91261904D01*
X156406190Y-91357142D01*
X156406190Y-91738095D01*
X155882380Y-90833333D02*
X155882380Y-90166666D01*
X156882380Y-90595238D01*
X156882380Y-81166666D02*
X156406190Y-81500000D01*
X156882380Y-81738095D02*
X155882380Y-81738095D01*
X155882380Y-81357142D01*
X155930000Y-81261904D01*
X155977619Y-81214285D01*
X156072857Y-81166666D01*
X156215714Y-81166666D01*
X156310952Y-81214285D01*
X156358571Y-81261904D01*
X156406190Y-81357142D01*
X156406190Y-81738095D01*
X155882380Y-80309523D02*
X155882380Y-80500000D01*
X155930000Y-80595238D01*
X155977619Y-80642857D01*
X156120476Y-80738095D01*
X156310952Y-80785714D01*
X156691904Y-80785714D01*
X156787142Y-80738095D01*
X156834761Y-80690476D01*
X156882380Y-80595238D01*
X156882380Y-80404761D01*
X156834761Y-80309523D01*
X156787142Y-80261904D01*
X156691904Y-80214285D01*
X156453809Y-80214285D01*
X156358571Y-80261904D01*
X156310952Y-80309523D01*
X156263333Y-80404761D01*
X156263333Y-80595238D01*
X156310952Y-80690476D01*
X156358571Y-80738095D01*
X156453809Y-80785714D01*
X156882380Y-71166666D02*
X156406190Y-71500000D01*
X156882380Y-71738095D02*
X155882380Y-71738095D01*
X155882380Y-71357142D01*
X155930000Y-71261904D01*
X155977619Y-71214285D01*
X156072857Y-71166666D01*
X156215714Y-71166666D01*
X156310952Y-71214285D01*
X156358571Y-71261904D01*
X156406190Y-71357142D01*
X156406190Y-71738095D01*
X155882380Y-70261904D02*
X155882380Y-70738095D01*
X156358571Y-70785714D01*
X156310952Y-70738095D01*
X156263333Y-70642857D01*
X156263333Y-70404761D01*
X156310952Y-70309523D01*
X156358571Y-70261904D01*
X156453809Y-70214285D01*
X156691904Y-70214285D01*
X156787142Y-70261904D01*
X156834761Y-70309523D01*
X156882380Y-70404761D01*
X156882380Y-70642857D01*
X156834761Y-70738095D01*
X156787142Y-70785714D01*
X156882380Y-61166666D02*
X156406190Y-61500000D01*
X156882380Y-61738095D02*
X155882380Y-61738095D01*
X155882380Y-61357142D01*
X155930000Y-61261904D01*
X155977619Y-61214285D01*
X156072857Y-61166666D01*
X156215714Y-61166666D01*
X156310952Y-61214285D01*
X156358571Y-61261904D01*
X156406190Y-61357142D01*
X156406190Y-61738095D01*
X156215714Y-60309523D02*
X156882380Y-60309523D01*
X155834761Y-60547619D02*
X156549047Y-60785714D01*
X156549047Y-60166666D01*
X176283333Y-18412380D02*
X175950000Y-17936190D01*
X175711904Y-18412380D02*
X175711904Y-17412380D01*
X176092857Y-17412380D01*
X176188095Y-17460000D01*
X176235714Y-17507619D01*
X176283333Y-17602857D01*
X176283333Y-17745714D01*
X176235714Y-17840952D01*
X176188095Y-17888571D01*
X176092857Y-17936190D01*
X175711904Y-17936190D01*
X176616666Y-17412380D02*
X177235714Y-17412380D01*
X176902380Y-17793333D01*
X177045238Y-17793333D01*
X177140476Y-17840952D01*
X177188095Y-17888571D01*
X177235714Y-17983809D01*
X177235714Y-18221904D01*
X177188095Y-18317142D01*
X177140476Y-18364761D01*
X177045238Y-18412380D01*
X176759523Y-18412380D01*
X176664285Y-18364761D01*
X176616666Y-18317142D01*
X176283333Y-20922380D02*
X175950000Y-20446190D01*
X175711904Y-20922380D02*
X175711904Y-19922380D01*
X176092857Y-19922380D01*
X176188095Y-19970000D01*
X176235714Y-20017619D01*
X176283333Y-20112857D01*
X176283333Y-20255714D01*
X176235714Y-20350952D01*
X176188095Y-20398571D01*
X176092857Y-20446190D01*
X175711904Y-20446190D01*
X176664285Y-20017619D02*
X176711904Y-19970000D01*
X176807142Y-19922380D01*
X177045238Y-19922380D01*
X177140476Y-19970000D01*
X177188095Y-20017619D01*
X177235714Y-20112857D01*
X177235714Y-20208095D01*
X177188095Y-20350952D01*
X176616666Y-20922380D01*
X177235714Y-20922380D01*
X156882380Y-51166666D02*
X156406190Y-51500000D01*
X156882380Y-51738095D02*
X155882380Y-51738095D01*
X155882380Y-51357142D01*
X155930000Y-51261904D01*
X155977619Y-51214285D01*
X156072857Y-51166666D01*
X156215714Y-51166666D01*
X156310952Y-51214285D01*
X156358571Y-51261904D01*
X156406190Y-51357142D01*
X156406190Y-51738095D01*
X156882380Y-50214285D02*
X156882380Y-50785714D01*
X156882380Y-50500000D02*
X155882380Y-50500000D01*
X156025238Y-50595238D01*
X156120476Y-50690476D01*
X156168095Y-50785714D01*
X170704761Y-124247619D02*
X170609523Y-124200000D01*
X170514285Y-124104761D01*
X170371428Y-123961904D01*
X170276190Y-123914285D01*
X170180952Y-123914285D01*
X170228571Y-124152380D02*
X170133333Y-124104761D01*
X170038095Y-124009523D01*
X169990476Y-123819047D01*
X169990476Y-123485714D01*
X170038095Y-123295238D01*
X170133333Y-123200000D01*
X170228571Y-123152380D01*
X170419047Y-123152380D01*
X170514285Y-123200000D01*
X170609523Y-123295238D01*
X170657142Y-123485714D01*
X170657142Y-123819047D01*
X170609523Y-124009523D01*
X170514285Y-124104761D01*
X170419047Y-124152380D01*
X170228571Y-124152380D01*
X171228571Y-123580952D02*
X171133333Y-123533333D01*
X171085714Y-123485714D01*
X171038095Y-123390476D01*
X171038095Y-123342857D01*
X171085714Y-123247619D01*
X171133333Y-123200000D01*
X171228571Y-123152380D01*
X171419047Y-123152380D01*
X171514285Y-123200000D01*
X171561904Y-123247619D01*
X171609523Y-123342857D01*
X171609523Y-123390476D01*
X171561904Y-123485714D01*
X171514285Y-123533333D01*
X171419047Y-123580952D01*
X171228571Y-123580952D01*
X171133333Y-123628571D01*
X171085714Y-123676190D01*
X171038095Y-123771428D01*
X171038095Y-123961904D01*
X171085714Y-124057142D01*
X171133333Y-124104761D01*
X171228571Y-124152380D01*
X171419047Y-124152380D01*
X171514285Y-124104761D01*
X171561904Y-124057142D01*
X171609523Y-123961904D01*
X171609523Y-123771428D01*
X171561904Y-123676190D01*
X171514285Y-123628571D01*
X171419047Y-123580952D01*
X170704761Y-114247619D02*
X170609523Y-114200000D01*
X170514285Y-114104761D01*
X170371428Y-113961904D01*
X170276190Y-113914285D01*
X170180952Y-113914285D01*
X170228571Y-114152380D02*
X170133333Y-114104761D01*
X170038095Y-114009523D01*
X169990476Y-113819047D01*
X169990476Y-113485714D01*
X170038095Y-113295238D01*
X170133333Y-113200000D01*
X170228571Y-113152380D01*
X170419047Y-113152380D01*
X170514285Y-113200000D01*
X170609523Y-113295238D01*
X170657142Y-113485714D01*
X170657142Y-113819047D01*
X170609523Y-114009523D01*
X170514285Y-114104761D01*
X170419047Y-114152380D01*
X170228571Y-114152380D01*
X170990476Y-113152380D02*
X171657142Y-113152380D01*
X171228571Y-114152380D01*
X170704761Y-104247619D02*
X170609523Y-104200000D01*
X170514285Y-104104761D01*
X170371428Y-103961904D01*
X170276190Y-103914285D01*
X170180952Y-103914285D01*
X170228571Y-104152380D02*
X170133333Y-104104761D01*
X170038095Y-104009523D01*
X169990476Y-103819047D01*
X169990476Y-103485714D01*
X170038095Y-103295238D01*
X170133333Y-103200000D01*
X170228571Y-103152380D01*
X170419047Y-103152380D01*
X170514285Y-103200000D01*
X170609523Y-103295238D01*
X170657142Y-103485714D01*
X170657142Y-103819047D01*
X170609523Y-104009523D01*
X170514285Y-104104761D01*
X170419047Y-104152380D01*
X170228571Y-104152380D01*
X171514285Y-103152380D02*
X171323809Y-103152380D01*
X171228571Y-103200000D01*
X171180952Y-103247619D01*
X171085714Y-103390476D01*
X171038095Y-103580952D01*
X171038095Y-103961904D01*
X171085714Y-104057142D01*
X171133333Y-104104761D01*
X171228571Y-104152380D01*
X171419047Y-104152380D01*
X171514285Y-104104761D01*
X171561904Y-104057142D01*
X171609523Y-103961904D01*
X171609523Y-103723809D01*
X171561904Y-103628571D01*
X171514285Y-103580952D01*
X171419047Y-103533333D01*
X171228571Y-103533333D01*
X171133333Y-103580952D01*
X171085714Y-103628571D01*
X171038095Y-103723809D01*
X170704761Y-94247619D02*
X170609523Y-94200000D01*
X170514285Y-94104761D01*
X170371428Y-93961904D01*
X170276190Y-93914285D01*
X170180952Y-93914285D01*
X170228571Y-94152380D02*
X170133333Y-94104761D01*
X170038095Y-94009523D01*
X169990476Y-93819047D01*
X169990476Y-93485714D01*
X170038095Y-93295238D01*
X170133333Y-93200000D01*
X170228571Y-93152380D01*
X170419047Y-93152380D01*
X170514285Y-93200000D01*
X170609523Y-93295238D01*
X170657142Y-93485714D01*
X170657142Y-93819047D01*
X170609523Y-94009523D01*
X170514285Y-94104761D01*
X170419047Y-94152380D01*
X170228571Y-94152380D01*
X171561904Y-93152380D02*
X171085714Y-93152380D01*
X171038095Y-93628571D01*
X171085714Y-93580952D01*
X171180952Y-93533333D01*
X171419047Y-93533333D01*
X171514285Y-93580952D01*
X171561904Y-93628571D01*
X171609523Y-93723809D01*
X171609523Y-93961904D01*
X171561904Y-94057142D01*
X171514285Y-94104761D01*
X171419047Y-94152380D01*
X171180952Y-94152380D01*
X171085714Y-94104761D01*
X171038095Y-94057142D01*
X170704761Y-84247619D02*
X170609523Y-84200000D01*
X170514285Y-84104761D01*
X170371428Y-83961904D01*
X170276190Y-83914285D01*
X170180952Y-83914285D01*
X170228571Y-84152380D02*
X170133333Y-84104761D01*
X170038095Y-84009523D01*
X169990476Y-83819047D01*
X169990476Y-83485714D01*
X170038095Y-83295238D01*
X170133333Y-83200000D01*
X170228571Y-83152380D01*
X170419047Y-83152380D01*
X170514285Y-83200000D01*
X170609523Y-83295238D01*
X170657142Y-83485714D01*
X170657142Y-83819047D01*
X170609523Y-84009523D01*
X170514285Y-84104761D01*
X170419047Y-84152380D01*
X170228571Y-84152380D01*
X171514285Y-83485714D02*
X171514285Y-84152380D01*
X171276190Y-83104761D02*
X171038095Y-83819047D01*
X171657142Y-83819047D01*
X170704761Y-74247619D02*
X170609523Y-74200000D01*
X170514285Y-74104761D01*
X170371428Y-73961904D01*
X170276190Y-73914285D01*
X170180952Y-73914285D01*
X170228571Y-74152380D02*
X170133333Y-74104761D01*
X170038095Y-74009523D01*
X169990476Y-73819047D01*
X169990476Y-73485714D01*
X170038095Y-73295238D01*
X170133333Y-73200000D01*
X170228571Y-73152380D01*
X170419047Y-73152380D01*
X170514285Y-73200000D01*
X170609523Y-73295238D01*
X170657142Y-73485714D01*
X170657142Y-73819047D01*
X170609523Y-74009523D01*
X170514285Y-74104761D01*
X170419047Y-74152380D01*
X170228571Y-74152380D01*
X170990476Y-73152380D02*
X171609523Y-73152380D01*
X171276190Y-73533333D01*
X171419047Y-73533333D01*
X171514285Y-73580952D01*
X171561904Y-73628571D01*
X171609523Y-73723809D01*
X171609523Y-73961904D01*
X171561904Y-74057142D01*
X171514285Y-74104761D01*
X171419047Y-74152380D01*
X171133333Y-74152380D01*
X171038095Y-74104761D01*
X170990476Y-74057142D01*
X170704761Y-64247619D02*
X170609523Y-64200000D01*
X170514285Y-64104761D01*
X170371428Y-63961904D01*
X170276190Y-63914285D01*
X170180952Y-63914285D01*
X170228571Y-64152380D02*
X170133333Y-64104761D01*
X170038095Y-64009523D01*
X169990476Y-63819047D01*
X169990476Y-63485714D01*
X170038095Y-63295238D01*
X170133333Y-63200000D01*
X170228571Y-63152380D01*
X170419047Y-63152380D01*
X170514285Y-63200000D01*
X170609523Y-63295238D01*
X170657142Y-63485714D01*
X170657142Y-63819047D01*
X170609523Y-64009523D01*
X170514285Y-64104761D01*
X170419047Y-64152380D01*
X170228571Y-64152380D01*
X171038095Y-63247619D02*
X171085714Y-63200000D01*
X171180952Y-63152380D01*
X171419047Y-63152380D01*
X171514285Y-63200000D01*
X171561904Y-63247619D01*
X171609523Y-63342857D01*
X171609523Y-63438095D01*
X171561904Y-63580952D01*
X170990476Y-64152380D01*
X171609523Y-64152380D01*
X170704761Y-54247619D02*
X170609523Y-54200000D01*
X170514285Y-54104761D01*
X170371428Y-53961904D01*
X170276190Y-53914285D01*
X170180952Y-53914285D01*
X170228571Y-54152380D02*
X170133333Y-54104761D01*
X170038095Y-54009523D01*
X169990476Y-53819047D01*
X169990476Y-53485714D01*
X170038095Y-53295238D01*
X170133333Y-53200000D01*
X170228571Y-53152380D01*
X170419047Y-53152380D01*
X170514285Y-53200000D01*
X170609523Y-53295238D01*
X170657142Y-53485714D01*
X170657142Y-53819047D01*
X170609523Y-54009523D01*
X170514285Y-54104761D01*
X170419047Y-54152380D01*
X170228571Y-54152380D01*
X171609523Y-54152380D02*
X171038095Y-54152380D01*
X171323809Y-54152380D02*
X171323809Y-53152380D01*
X171228571Y-53295238D01*
X171133333Y-53390476D01*
X171038095Y-53438095D01*
X167011904Y-116802380D02*
X167011904Y-115802380D01*
X167583333Y-116802380D02*
X167154761Y-116230952D01*
X167583333Y-115802380D02*
X167011904Y-116373809D01*
X168154761Y-116230952D02*
X168059523Y-116183333D01*
X168011904Y-116135714D01*
X167964285Y-116040476D01*
X167964285Y-115992857D01*
X168011904Y-115897619D01*
X168059523Y-115850000D01*
X168154761Y-115802380D01*
X168345238Y-115802380D01*
X168440476Y-115850000D01*
X168488095Y-115897619D01*
X168535714Y-115992857D01*
X168535714Y-116040476D01*
X168488095Y-116135714D01*
X168440476Y-116183333D01*
X168345238Y-116230952D01*
X168154761Y-116230952D01*
X168059523Y-116278571D01*
X168011904Y-116326190D01*
X167964285Y-116421428D01*
X167964285Y-116611904D01*
X168011904Y-116707142D01*
X168059523Y-116754761D01*
X168154761Y-116802380D01*
X168345238Y-116802380D01*
X168440476Y-116754761D01*
X168488095Y-116707142D01*
X168535714Y-116611904D01*
X168535714Y-116421428D01*
X168488095Y-116326190D01*
X168440476Y-116278571D01*
X168345238Y-116230952D01*
X167011904Y-106802380D02*
X167011904Y-105802380D01*
X167583333Y-106802380D02*
X167154761Y-106230952D01*
X167583333Y-105802380D02*
X167011904Y-106373809D01*
X167916666Y-105802380D02*
X168583333Y-105802380D01*
X168154761Y-106802380D01*
X167011904Y-96802380D02*
X167011904Y-95802380D01*
X167583333Y-96802380D02*
X167154761Y-96230952D01*
X167583333Y-95802380D02*
X167011904Y-96373809D01*
X168440476Y-95802380D02*
X168250000Y-95802380D01*
X168154761Y-95850000D01*
X168107142Y-95897619D01*
X168011904Y-96040476D01*
X167964285Y-96230952D01*
X167964285Y-96611904D01*
X168011904Y-96707142D01*
X168059523Y-96754761D01*
X168154761Y-96802380D01*
X168345238Y-96802380D01*
X168440476Y-96754761D01*
X168488095Y-96707142D01*
X168535714Y-96611904D01*
X168535714Y-96373809D01*
X168488095Y-96278571D01*
X168440476Y-96230952D01*
X168345238Y-96183333D01*
X168154761Y-96183333D01*
X168059523Y-96230952D01*
X168011904Y-96278571D01*
X167964285Y-96373809D01*
X167011904Y-86802380D02*
X167011904Y-85802380D01*
X167583333Y-86802380D02*
X167154761Y-86230952D01*
X167583333Y-85802380D02*
X167011904Y-86373809D01*
X168488095Y-85802380D02*
X168011904Y-85802380D01*
X167964285Y-86278571D01*
X168011904Y-86230952D01*
X168107142Y-86183333D01*
X168345238Y-86183333D01*
X168440476Y-86230952D01*
X168488095Y-86278571D01*
X168535714Y-86373809D01*
X168535714Y-86611904D01*
X168488095Y-86707142D01*
X168440476Y-86754761D01*
X168345238Y-86802380D01*
X168107142Y-86802380D01*
X168011904Y-86754761D01*
X167964285Y-86707142D01*
X167011904Y-76802380D02*
X167011904Y-75802380D01*
X167583333Y-76802380D02*
X167154761Y-76230952D01*
X167583333Y-75802380D02*
X167011904Y-76373809D01*
X168440476Y-76135714D02*
X168440476Y-76802380D01*
X168202380Y-75754761D02*
X167964285Y-76469047D01*
X168583333Y-76469047D01*
X167011904Y-66802380D02*
X167011904Y-65802380D01*
X167583333Y-66802380D02*
X167154761Y-66230952D01*
X167583333Y-65802380D02*
X167011904Y-66373809D01*
X167916666Y-65802380D02*
X168535714Y-65802380D01*
X168202380Y-66183333D01*
X168345238Y-66183333D01*
X168440476Y-66230952D01*
X168488095Y-66278571D01*
X168535714Y-66373809D01*
X168535714Y-66611904D01*
X168488095Y-66707142D01*
X168440476Y-66754761D01*
X168345238Y-66802380D01*
X168059523Y-66802380D01*
X167964285Y-66754761D01*
X167916666Y-66707142D01*
X167011904Y-56802380D02*
X167011904Y-55802380D01*
X167583333Y-56802380D02*
X167154761Y-56230952D01*
X167583333Y-55802380D02*
X167011904Y-56373809D01*
X167964285Y-55897619D02*
X168011904Y-55850000D01*
X168107142Y-55802380D01*
X168345238Y-55802380D01*
X168440476Y-55850000D01*
X168488095Y-55897619D01*
X168535714Y-55992857D01*
X168535714Y-56088095D01*
X168488095Y-56230952D01*
X167916666Y-56802380D01*
X168535714Y-56802380D01*
X167011904Y-46802380D02*
X167011904Y-45802380D01*
X167583333Y-46802380D02*
X167154761Y-46230952D01*
X167583333Y-45802380D02*
X167011904Y-46373809D01*
X168535714Y-46802380D02*
X167964285Y-46802380D01*
X168250000Y-46802380D02*
X168250000Y-45802380D01*
X168154761Y-45945238D01*
X168059523Y-46040476D01*
X167964285Y-46088095D01*
X158190476Y-16162380D02*
X158190476Y-16876666D01*
X158142857Y-17019523D01*
X158047619Y-17114761D01*
X157904761Y-17162380D01*
X157809523Y-17162380D01*
X159190476Y-17162380D02*
X158619047Y-17162380D01*
X158904761Y-17162380D02*
X158904761Y-16162380D01*
X158809523Y-16305238D01*
X158714285Y-16400476D01*
X158619047Y-16448095D01*
X160047619Y-16495714D02*
X160047619Y-17162380D01*
X159809523Y-16114761D02*
X159571428Y-16829047D01*
X160190476Y-16829047D01*
X147190476Y-16152380D02*
X147190476Y-16866666D01*
X147142857Y-17009523D01*
X147047619Y-17104761D01*
X146904761Y-17152380D01*
X146809523Y-17152380D01*
X148190476Y-17152380D02*
X147619047Y-17152380D01*
X147904761Y-17152380D02*
X147904761Y-16152380D01*
X147809523Y-16295238D01*
X147714285Y-16390476D01*
X147619047Y-16438095D01*
X148523809Y-16152380D02*
X149142857Y-16152380D01*
X148809523Y-16533333D01*
X148952380Y-16533333D01*
X149047619Y-16580952D01*
X149095238Y-16628571D01*
X149142857Y-16723809D01*
X149142857Y-16961904D01*
X149095238Y-17057142D01*
X149047619Y-17104761D01*
X148952380Y-17152380D01*
X148666666Y-17152380D01*
X148571428Y-17104761D01*
X148523809Y-17057142D01*
X189190476Y-114702380D02*
X189190476Y-115416666D01*
X189142857Y-115559523D01*
X189047619Y-115654761D01*
X188904761Y-115702380D01*
X188809523Y-115702380D01*
X190190476Y-115702380D02*
X189619047Y-115702380D01*
X189904761Y-115702380D02*
X189904761Y-114702380D01*
X189809523Y-114845238D01*
X189714285Y-114940476D01*
X189619047Y-114988095D01*
X190571428Y-114797619D02*
X190619047Y-114750000D01*
X190714285Y-114702380D01*
X190952380Y-114702380D01*
X191047619Y-114750000D01*
X191095238Y-114797619D01*
X191142857Y-114892857D01*
X191142857Y-114988095D01*
X191095238Y-115130952D01*
X190523809Y-115702380D01*
X191142857Y-115702380D01*
X189190476Y-104702380D02*
X189190476Y-105416666D01*
X189142857Y-105559523D01*
X189047619Y-105654761D01*
X188904761Y-105702380D01*
X188809523Y-105702380D01*
X190190476Y-105702380D02*
X189619047Y-105702380D01*
X189904761Y-105702380D02*
X189904761Y-104702380D01*
X189809523Y-104845238D01*
X189714285Y-104940476D01*
X189619047Y-104988095D01*
X191142857Y-105702380D02*
X190571428Y-105702380D01*
X190857142Y-105702380D02*
X190857142Y-104702380D01*
X190761904Y-104845238D01*
X190666666Y-104940476D01*
X190571428Y-104988095D01*
X189190476Y-94702380D02*
X189190476Y-95416666D01*
X189142857Y-95559523D01*
X189047619Y-95654761D01*
X188904761Y-95702380D01*
X188809523Y-95702380D01*
X190190476Y-95702380D02*
X189619047Y-95702380D01*
X189904761Y-95702380D02*
X189904761Y-94702380D01*
X189809523Y-94845238D01*
X189714285Y-94940476D01*
X189619047Y-94988095D01*
X190809523Y-94702380D02*
X190904761Y-94702380D01*
X191000000Y-94750000D01*
X191047619Y-94797619D01*
X191095238Y-94892857D01*
X191142857Y-95083333D01*
X191142857Y-95321428D01*
X191095238Y-95511904D01*
X191047619Y-95607142D01*
X191000000Y-95654761D01*
X190904761Y-95702380D01*
X190809523Y-95702380D01*
X190714285Y-95654761D01*
X190666666Y-95607142D01*
X190619047Y-95511904D01*
X190571428Y-95321428D01*
X190571428Y-95083333D01*
X190619047Y-94892857D01*
X190666666Y-94797619D01*
X190714285Y-94750000D01*
X190809523Y-94702380D01*
X189666666Y-84702380D02*
X189666666Y-85416666D01*
X189619047Y-85559523D01*
X189523809Y-85654761D01*
X189380952Y-85702380D01*
X189285714Y-85702380D01*
X190190476Y-85702380D02*
X190380952Y-85702380D01*
X190476190Y-85654761D01*
X190523809Y-85607142D01*
X190619047Y-85464285D01*
X190666666Y-85273809D01*
X190666666Y-84892857D01*
X190619047Y-84797619D01*
X190571428Y-84750000D01*
X190476190Y-84702380D01*
X190285714Y-84702380D01*
X190190476Y-84750000D01*
X190142857Y-84797619D01*
X190095238Y-84892857D01*
X190095238Y-85130952D01*
X190142857Y-85226190D01*
X190190476Y-85273809D01*
X190285714Y-85321428D01*
X190476190Y-85321428D01*
X190571428Y-85273809D01*
X190619047Y-85226190D01*
X190666666Y-85130952D01*
X189666666Y-74702380D02*
X189666666Y-75416666D01*
X189619047Y-75559523D01*
X189523809Y-75654761D01*
X189380952Y-75702380D01*
X189285714Y-75702380D01*
X190285714Y-75130952D02*
X190190476Y-75083333D01*
X190142857Y-75035714D01*
X190095238Y-74940476D01*
X190095238Y-74892857D01*
X190142857Y-74797619D01*
X190190476Y-74750000D01*
X190285714Y-74702380D01*
X190476190Y-74702380D01*
X190571428Y-74750000D01*
X190619047Y-74797619D01*
X190666666Y-74892857D01*
X190666666Y-74940476D01*
X190619047Y-75035714D01*
X190571428Y-75083333D01*
X190476190Y-75130952D01*
X190285714Y-75130952D01*
X190190476Y-75178571D01*
X190142857Y-75226190D01*
X190095238Y-75321428D01*
X190095238Y-75511904D01*
X190142857Y-75607142D01*
X190190476Y-75654761D01*
X190285714Y-75702380D01*
X190476190Y-75702380D01*
X190571428Y-75654761D01*
X190619047Y-75607142D01*
X190666666Y-75511904D01*
X190666666Y-75321428D01*
X190619047Y-75226190D01*
X190571428Y-75178571D01*
X190476190Y-75130952D01*
X189666666Y-64702380D02*
X189666666Y-65416666D01*
X189619047Y-65559523D01*
X189523809Y-65654761D01*
X189380952Y-65702380D01*
X189285714Y-65702380D01*
X190047619Y-64702380D02*
X190714285Y-64702380D01*
X190285714Y-65702380D01*
X189666666Y-54702380D02*
X189666666Y-55416666D01*
X189619047Y-55559523D01*
X189523809Y-55654761D01*
X189380952Y-55702380D01*
X189285714Y-55702380D01*
X190571428Y-54702380D02*
X190380952Y-54702380D01*
X190285714Y-54750000D01*
X190238095Y-54797619D01*
X190142857Y-54940476D01*
X190095238Y-55130952D01*
X190095238Y-55511904D01*
X190142857Y-55607142D01*
X190190476Y-55654761D01*
X190285714Y-55702380D01*
X190476190Y-55702380D01*
X190571428Y-55654761D01*
X190619047Y-55607142D01*
X190666666Y-55511904D01*
X190666666Y-55273809D01*
X190619047Y-55178571D01*
X190571428Y-55130952D01*
X190476190Y-55083333D01*
X190285714Y-55083333D01*
X190190476Y-55130952D01*
X190142857Y-55178571D01*
X190095238Y-55273809D01*
X189666666Y-44702380D02*
X189666666Y-45416666D01*
X189619047Y-45559523D01*
X189523809Y-45654761D01*
X189380952Y-45702380D01*
X189285714Y-45702380D01*
X190619047Y-44702380D02*
X190142857Y-44702380D01*
X190095238Y-45178571D01*
X190142857Y-45130952D01*
X190238095Y-45083333D01*
X190476190Y-45083333D01*
X190571428Y-45130952D01*
X190619047Y-45178571D01*
X190666666Y-45273809D01*
X190666666Y-45511904D01*
X190619047Y-45607142D01*
X190571428Y-45654761D01*
X190476190Y-45702380D01*
X190238095Y-45702380D01*
X190142857Y-45654761D01*
X190095238Y-45607142D01*
X129552380Y-121333333D02*
X130266666Y-121333333D01*
X130409523Y-121380952D01*
X130504761Y-121476190D01*
X130552380Y-121619047D01*
X130552380Y-121714285D01*
X129885714Y-120428571D02*
X130552380Y-120428571D01*
X129504761Y-120666666D02*
X130219047Y-120904761D01*
X130219047Y-120285714D01*
X136016666Y-72682380D02*
X136016666Y-73396666D01*
X135969047Y-73539523D01*
X135873809Y-73634761D01*
X135730952Y-73682380D01*
X135635714Y-73682380D01*
X136397619Y-72682380D02*
X137016666Y-72682380D01*
X136683333Y-73063333D01*
X136826190Y-73063333D01*
X136921428Y-73110952D01*
X136969047Y-73158571D01*
X137016666Y-73253809D01*
X137016666Y-73491904D01*
X136969047Y-73587142D01*
X136921428Y-73634761D01*
X136826190Y-73682380D01*
X136540476Y-73682380D01*
X136445238Y-73634761D01*
X136397619Y-73587142D01*
X129452380Y-48333333D02*
X130166666Y-48333333D01*
X130309523Y-48380952D01*
X130404761Y-48476190D01*
X130452380Y-48619047D01*
X130452380Y-48714285D01*
X130452380Y-47333333D02*
X130452380Y-47904761D01*
X130452380Y-47619047D02*
X129452380Y-47619047D01*
X129595238Y-47714285D01*
X129690476Y-47809523D01*
X129738095Y-47904761D01*
X168223809Y-17162380D02*
X168223809Y-16162380D01*
X169271428Y-17067142D02*
X169223809Y-17114761D01*
X169080952Y-17162380D01*
X168985714Y-17162380D01*
X168842857Y-17114761D01*
X168747619Y-17019523D01*
X168700000Y-16924285D01*
X168652380Y-16733809D01*
X168652380Y-16590952D01*
X168700000Y-16400476D01*
X168747619Y-16305238D01*
X168842857Y-16210000D01*
X168985714Y-16162380D01*
X169080952Y-16162380D01*
X169223809Y-16210000D01*
X169271428Y-16257619D01*
X170223809Y-17162380D02*
X169652380Y-17162380D01*
X169938095Y-17162380D02*
X169938095Y-16162380D01*
X169842857Y-16305238D01*
X169747619Y-16400476D01*
X169652380Y-16448095D01*
X183166666Y-120028571D02*
X182833333Y-120028571D01*
X182833333Y-120552380D02*
X182833333Y-119552380D01*
X183309523Y-119552380D01*
X184023809Y-120028571D02*
X184166666Y-120076190D01*
X184214285Y-120123809D01*
X184261904Y-120219047D01*
X184261904Y-120361904D01*
X184214285Y-120457142D01*
X184166666Y-120504761D01*
X184071428Y-120552380D01*
X183690476Y-120552380D01*
X183690476Y-119552380D01*
X184023809Y-119552380D01*
X184119047Y-119600000D01*
X184166666Y-119647619D01*
X184214285Y-119742857D01*
X184214285Y-119838095D01*
X184166666Y-119933333D01*
X184119047Y-119980952D01*
X184023809Y-120028571D01*
X183690476Y-120028571D01*
X184833333Y-119980952D02*
X184738095Y-119933333D01*
X184690476Y-119885714D01*
X184642857Y-119790476D01*
X184642857Y-119742857D01*
X184690476Y-119647619D01*
X184738095Y-119600000D01*
X184833333Y-119552380D01*
X185023809Y-119552380D01*
X185119047Y-119600000D01*
X185166666Y-119647619D01*
X185214285Y-119742857D01*
X185214285Y-119790476D01*
X185166666Y-119885714D01*
X185119047Y-119933333D01*
X185023809Y-119980952D01*
X184833333Y-119980952D01*
X184738095Y-120028571D01*
X184690476Y-120076190D01*
X184642857Y-120171428D01*
X184642857Y-120361904D01*
X184690476Y-120457142D01*
X184738095Y-120504761D01*
X184833333Y-120552380D01*
X185023809Y-120552380D01*
X185119047Y-120504761D01*
X185166666Y-120457142D01*
X185214285Y-120361904D01*
X185214285Y-120171428D01*
X185166666Y-120076190D01*
X185119047Y-120028571D01*
X185023809Y-119980952D01*
X183166666Y-110028571D02*
X182833333Y-110028571D01*
X182833333Y-110552380D02*
X182833333Y-109552380D01*
X183309523Y-109552380D01*
X184023809Y-110028571D02*
X184166666Y-110076190D01*
X184214285Y-110123809D01*
X184261904Y-110219047D01*
X184261904Y-110361904D01*
X184214285Y-110457142D01*
X184166666Y-110504761D01*
X184071428Y-110552380D01*
X183690476Y-110552380D01*
X183690476Y-109552380D01*
X184023809Y-109552380D01*
X184119047Y-109600000D01*
X184166666Y-109647619D01*
X184214285Y-109742857D01*
X184214285Y-109838095D01*
X184166666Y-109933333D01*
X184119047Y-109980952D01*
X184023809Y-110028571D01*
X183690476Y-110028571D01*
X184595238Y-109552380D02*
X185261904Y-109552380D01*
X184833333Y-110552380D01*
X183166666Y-100028571D02*
X182833333Y-100028571D01*
X182833333Y-100552380D02*
X182833333Y-99552380D01*
X183309523Y-99552380D01*
X184023809Y-100028571D02*
X184166666Y-100076190D01*
X184214285Y-100123809D01*
X184261904Y-100219047D01*
X184261904Y-100361904D01*
X184214285Y-100457142D01*
X184166666Y-100504761D01*
X184071428Y-100552380D01*
X183690476Y-100552380D01*
X183690476Y-99552380D01*
X184023809Y-99552380D01*
X184119047Y-99600000D01*
X184166666Y-99647619D01*
X184214285Y-99742857D01*
X184214285Y-99838095D01*
X184166666Y-99933333D01*
X184119047Y-99980952D01*
X184023809Y-100028571D01*
X183690476Y-100028571D01*
X185119047Y-99552380D02*
X184928571Y-99552380D01*
X184833333Y-99600000D01*
X184785714Y-99647619D01*
X184690476Y-99790476D01*
X184642857Y-99980952D01*
X184642857Y-100361904D01*
X184690476Y-100457142D01*
X184738095Y-100504761D01*
X184833333Y-100552380D01*
X185023809Y-100552380D01*
X185119047Y-100504761D01*
X185166666Y-100457142D01*
X185214285Y-100361904D01*
X185214285Y-100123809D01*
X185166666Y-100028571D01*
X185119047Y-99980952D01*
X185023809Y-99933333D01*
X184833333Y-99933333D01*
X184738095Y-99980952D01*
X184690476Y-100028571D01*
X184642857Y-100123809D01*
X183166666Y-90028571D02*
X182833333Y-90028571D01*
X182833333Y-90552380D02*
X182833333Y-89552380D01*
X183309523Y-89552380D01*
X184023809Y-90028571D02*
X184166666Y-90076190D01*
X184214285Y-90123809D01*
X184261904Y-90219047D01*
X184261904Y-90361904D01*
X184214285Y-90457142D01*
X184166666Y-90504761D01*
X184071428Y-90552380D01*
X183690476Y-90552380D01*
X183690476Y-89552380D01*
X184023809Y-89552380D01*
X184119047Y-89600000D01*
X184166666Y-89647619D01*
X184214285Y-89742857D01*
X184214285Y-89838095D01*
X184166666Y-89933333D01*
X184119047Y-89980952D01*
X184023809Y-90028571D01*
X183690476Y-90028571D01*
X185166666Y-89552380D02*
X184690476Y-89552380D01*
X184642857Y-90028571D01*
X184690476Y-89980952D01*
X184785714Y-89933333D01*
X185023809Y-89933333D01*
X185119047Y-89980952D01*
X185166666Y-90028571D01*
X185214285Y-90123809D01*
X185214285Y-90361904D01*
X185166666Y-90457142D01*
X185119047Y-90504761D01*
X185023809Y-90552380D01*
X184785714Y-90552380D01*
X184690476Y-90504761D01*
X184642857Y-90457142D01*
X183166666Y-80028571D02*
X182833333Y-80028571D01*
X182833333Y-80552380D02*
X182833333Y-79552380D01*
X183309523Y-79552380D01*
X184023809Y-80028571D02*
X184166666Y-80076190D01*
X184214285Y-80123809D01*
X184261904Y-80219047D01*
X184261904Y-80361904D01*
X184214285Y-80457142D01*
X184166666Y-80504761D01*
X184071428Y-80552380D01*
X183690476Y-80552380D01*
X183690476Y-79552380D01*
X184023809Y-79552380D01*
X184119047Y-79600000D01*
X184166666Y-79647619D01*
X184214285Y-79742857D01*
X184214285Y-79838095D01*
X184166666Y-79933333D01*
X184119047Y-79980952D01*
X184023809Y-80028571D01*
X183690476Y-80028571D01*
X185119047Y-79885714D02*
X185119047Y-80552380D01*
X184880952Y-79504761D02*
X184642857Y-80219047D01*
X185261904Y-80219047D01*
X183166666Y-70028571D02*
X182833333Y-70028571D01*
X182833333Y-70552380D02*
X182833333Y-69552380D01*
X183309523Y-69552380D01*
X184023809Y-70028571D02*
X184166666Y-70076190D01*
X184214285Y-70123809D01*
X184261904Y-70219047D01*
X184261904Y-70361904D01*
X184214285Y-70457142D01*
X184166666Y-70504761D01*
X184071428Y-70552380D01*
X183690476Y-70552380D01*
X183690476Y-69552380D01*
X184023809Y-69552380D01*
X184119047Y-69600000D01*
X184166666Y-69647619D01*
X184214285Y-69742857D01*
X184214285Y-69838095D01*
X184166666Y-69933333D01*
X184119047Y-69980952D01*
X184023809Y-70028571D01*
X183690476Y-70028571D01*
X184595238Y-69552380D02*
X185214285Y-69552380D01*
X184880952Y-69933333D01*
X185023809Y-69933333D01*
X185119047Y-69980952D01*
X185166666Y-70028571D01*
X185214285Y-70123809D01*
X185214285Y-70361904D01*
X185166666Y-70457142D01*
X185119047Y-70504761D01*
X185023809Y-70552380D01*
X184738095Y-70552380D01*
X184642857Y-70504761D01*
X184595238Y-70457142D01*
X183166666Y-60028571D02*
X182833333Y-60028571D01*
X182833333Y-60552380D02*
X182833333Y-59552380D01*
X183309523Y-59552380D01*
X184023809Y-60028571D02*
X184166666Y-60076190D01*
X184214285Y-60123809D01*
X184261904Y-60219047D01*
X184261904Y-60361904D01*
X184214285Y-60457142D01*
X184166666Y-60504761D01*
X184071428Y-60552380D01*
X183690476Y-60552380D01*
X183690476Y-59552380D01*
X184023809Y-59552380D01*
X184119047Y-59600000D01*
X184166666Y-59647619D01*
X184214285Y-59742857D01*
X184214285Y-59838095D01*
X184166666Y-59933333D01*
X184119047Y-59980952D01*
X184023809Y-60028571D01*
X183690476Y-60028571D01*
X184642857Y-59647619D02*
X184690476Y-59600000D01*
X184785714Y-59552380D01*
X185023809Y-59552380D01*
X185119047Y-59600000D01*
X185166666Y-59647619D01*
X185214285Y-59742857D01*
X185214285Y-59838095D01*
X185166666Y-59980952D01*
X184595238Y-60552380D01*
X185214285Y-60552380D01*
X183166666Y-50028571D02*
X182833333Y-50028571D01*
X182833333Y-50552380D02*
X182833333Y-49552380D01*
X183309523Y-49552380D01*
X184023809Y-50028571D02*
X184166666Y-50076190D01*
X184214285Y-50123809D01*
X184261904Y-50219047D01*
X184261904Y-50361904D01*
X184214285Y-50457142D01*
X184166666Y-50504761D01*
X184071428Y-50552380D01*
X183690476Y-50552380D01*
X183690476Y-49552380D01*
X184023809Y-49552380D01*
X184119047Y-49600000D01*
X184166666Y-49647619D01*
X184214285Y-49742857D01*
X184214285Y-49838095D01*
X184166666Y-49933333D01*
X184119047Y-49980952D01*
X184023809Y-50028571D01*
X183690476Y-50028571D01*
X185214285Y-50552380D02*
X184642857Y-50552380D01*
X184928571Y-50552380D02*
X184928571Y-49552380D01*
X184833333Y-49695238D01*
X184738095Y-49790476D01*
X184642857Y-49838095D01*
X182857142Y-122957142D02*
X182809523Y-123004761D01*
X182666666Y-123052380D01*
X182571428Y-123052380D01*
X182428571Y-123004761D01*
X182333333Y-122909523D01*
X182285714Y-122814285D01*
X182238095Y-122623809D01*
X182238095Y-122480952D01*
X182285714Y-122290476D01*
X182333333Y-122195238D01*
X182428571Y-122100000D01*
X182571428Y-122052380D01*
X182666666Y-122052380D01*
X182809523Y-122100000D01*
X182857142Y-122147619D01*
X183809523Y-123052380D02*
X183238095Y-123052380D01*
X183523809Y-123052380D02*
X183523809Y-122052380D01*
X183428571Y-122195238D01*
X183333333Y-122290476D01*
X183238095Y-122338095D01*
X184285714Y-123052380D02*
X184476190Y-123052380D01*
X184571428Y-123004761D01*
X184619047Y-122957142D01*
X184714285Y-122814285D01*
X184761904Y-122623809D01*
X184761904Y-122242857D01*
X184714285Y-122147619D01*
X184666666Y-122100000D01*
X184571428Y-122052380D01*
X184380952Y-122052380D01*
X184285714Y-122100000D01*
X184238095Y-122147619D01*
X184190476Y-122242857D01*
X184190476Y-122480952D01*
X184238095Y-122576190D01*
X184285714Y-122623809D01*
X184380952Y-122671428D01*
X184571428Y-122671428D01*
X184666666Y-122623809D01*
X184714285Y-122576190D01*
X184761904Y-122480952D01*
X182957142Y-117957142D02*
X182909523Y-118004761D01*
X182766666Y-118052380D01*
X182671428Y-118052380D01*
X182528571Y-118004761D01*
X182433333Y-117909523D01*
X182385714Y-117814285D01*
X182338095Y-117623809D01*
X182338095Y-117480952D01*
X182385714Y-117290476D01*
X182433333Y-117195238D01*
X182528571Y-117100000D01*
X182671428Y-117052380D01*
X182766666Y-117052380D01*
X182909523Y-117100000D01*
X182957142Y-117147619D01*
X183909523Y-118052380D02*
X183338095Y-118052380D01*
X183623809Y-118052380D02*
X183623809Y-117052380D01*
X183528571Y-117195238D01*
X183433333Y-117290476D01*
X183338095Y-117338095D01*
X184480952Y-117480952D02*
X184385714Y-117433333D01*
X184338095Y-117385714D01*
X184290476Y-117290476D01*
X184290476Y-117242857D01*
X184338095Y-117147619D01*
X184385714Y-117100000D01*
X184480952Y-117052380D01*
X184671428Y-117052380D01*
X184766666Y-117100000D01*
X184814285Y-117147619D01*
X184861904Y-117242857D01*
X184861904Y-117290476D01*
X184814285Y-117385714D01*
X184766666Y-117433333D01*
X184671428Y-117480952D01*
X184480952Y-117480952D01*
X184385714Y-117528571D01*
X184338095Y-117576190D01*
X184290476Y-117671428D01*
X184290476Y-117861904D01*
X184338095Y-117957142D01*
X184385714Y-118004761D01*
X184480952Y-118052380D01*
X184671428Y-118052380D01*
X184766666Y-118004761D01*
X184814285Y-117957142D01*
X184861904Y-117861904D01*
X184861904Y-117671428D01*
X184814285Y-117576190D01*
X184766666Y-117528571D01*
X184671428Y-117480952D01*
X182857142Y-112957142D02*
X182809523Y-113004761D01*
X182666666Y-113052380D01*
X182571428Y-113052380D01*
X182428571Y-113004761D01*
X182333333Y-112909523D01*
X182285714Y-112814285D01*
X182238095Y-112623809D01*
X182238095Y-112480952D01*
X182285714Y-112290476D01*
X182333333Y-112195238D01*
X182428571Y-112100000D01*
X182571428Y-112052380D01*
X182666666Y-112052380D01*
X182809523Y-112100000D01*
X182857142Y-112147619D01*
X183809523Y-113052380D02*
X183238095Y-113052380D01*
X183523809Y-113052380D02*
X183523809Y-112052380D01*
X183428571Y-112195238D01*
X183333333Y-112290476D01*
X183238095Y-112338095D01*
X184142857Y-112052380D02*
X184809523Y-112052380D01*
X184380952Y-113052380D01*
X182957142Y-107957142D02*
X182909523Y-108004761D01*
X182766666Y-108052380D01*
X182671428Y-108052380D01*
X182528571Y-108004761D01*
X182433333Y-107909523D01*
X182385714Y-107814285D01*
X182338095Y-107623809D01*
X182338095Y-107480952D01*
X182385714Y-107290476D01*
X182433333Y-107195238D01*
X182528571Y-107100000D01*
X182671428Y-107052380D01*
X182766666Y-107052380D01*
X182909523Y-107100000D01*
X182957142Y-107147619D01*
X183909523Y-108052380D02*
X183338095Y-108052380D01*
X183623809Y-108052380D02*
X183623809Y-107052380D01*
X183528571Y-107195238D01*
X183433333Y-107290476D01*
X183338095Y-107338095D01*
X184766666Y-107052380D02*
X184576190Y-107052380D01*
X184480952Y-107100000D01*
X184433333Y-107147619D01*
X184338095Y-107290476D01*
X184290476Y-107480952D01*
X184290476Y-107861904D01*
X184338095Y-107957142D01*
X184385714Y-108004761D01*
X184480952Y-108052380D01*
X184671428Y-108052380D01*
X184766666Y-108004761D01*
X184814285Y-107957142D01*
X184861904Y-107861904D01*
X184861904Y-107623809D01*
X184814285Y-107528571D01*
X184766666Y-107480952D01*
X184671428Y-107433333D01*
X184480952Y-107433333D01*
X184385714Y-107480952D01*
X184338095Y-107528571D01*
X184290476Y-107623809D01*
X182857142Y-102957142D02*
X182809523Y-103004761D01*
X182666666Y-103052380D01*
X182571428Y-103052380D01*
X182428571Y-103004761D01*
X182333333Y-102909523D01*
X182285714Y-102814285D01*
X182238095Y-102623809D01*
X182238095Y-102480952D01*
X182285714Y-102290476D01*
X182333333Y-102195238D01*
X182428571Y-102100000D01*
X182571428Y-102052380D01*
X182666666Y-102052380D01*
X182809523Y-102100000D01*
X182857142Y-102147619D01*
X183809523Y-103052380D02*
X183238095Y-103052380D01*
X183523809Y-103052380D02*
X183523809Y-102052380D01*
X183428571Y-102195238D01*
X183333333Y-102290476D01*
X183238095Y-102338095D01*
X184714285Y-102052380D02*
X184238095Y-102052380D01*
X184190476Y-102528571D01*
X184238095Y-102480952D01*
X184333333Y-102433333D01*
X184571428Y-102433333D01*
X184666666Y-102480952D01*
X184714285Y-102528571D01*
X184761904Y-102623809D01*
X184761904Y-102861904D01*
X184714285Y-102957142D01*
X184666666Y-103004761D01*
X184571428Y-103052380D01*
X184333333Y-103052380D01*
X184238095Y-103004761D01*
X184190476Y-102957142D01*
X182957142Y-97957142D02*
X182909523Y-98004761D01*
X182766666Y-98052380D01*
X182671428Y-98052380D01*
X182528571Y-98004761D01*
X182433333Y-97909523D01*
X182385714Y-97814285D01*
X182338095Y-97623809D01*
X182338095Y-97480952D01*
X182385714Y-97290476D01*
X182433333Y-97195238D01*
X182528571Y-97100000D01*
X182671428Y-97052380D01*
X182766666Y-97052380D01*
X182909523Y-97100000D01*
X182957142Y-97147619D01*
X183909523Y-98052380D02*
X183338095Y-98052380D01*
X183623809Y-98052380D02*
X183623809Y-97052380D01*
X183528571Y-97195238D01*
X183433333Y-97290476D01*
X183338095Y-97338095D01*
X184766666Y-97385714D02*
X184766666Y-98052380D01*
X184528571Y-97004761D02*
X184290476Y-97719047D01*
X184909523Y-97719047D01*
X182857142Y-92957142D02*
X182809523Y-93004761D01*
X182666666Y-93052380D01*
X182571428Y-93052380D01*
X182428571Y-93004761D01*
X182333333Y-92909523D01*
X182285714Y-92814285D01*
X182238095Y-92623809D01*
X182238095Y-92480952D01*
X182285714Y-92290476D01*
X182333333Y-92195238D01*
X182428571Y-92100000D01*
X182571428Y-92052380D01*
X182666666Y-92052380D01*
X182809523Y-92100000D01*
X182857142Y-92147619D01*
X183809523Y-93052380D02*
X183238095Y-93052380D01*
X183523809Y-93052380D02*
X183523809Y-92052380D01*
X183428571Y-92195238D01*
X183333333Y-92290476D01*
X183238095Y-92338095D01*
X184142857Y-92052380D02*
X184761904Y-92052380D01*
X184428571Y-92433333D01*
X184571428Y-92433333D01*
X184666666Y-92480952D01*
X184714285Y-92528571D01*
X184761904Y-92623809D01*
X184761904Y-92861904D01*
X184714285Y-92957142D01*
X184666666Y-93004761D01*
X184571428Y-93052380D01*
X184285714Y-93052380D01*
X184190476Y-93004761D01*
X184142857Y-92957142D01*
X182957142Y-87957142D02*
X182909523Y-88004761D01*
X182766666Y-88052380D01*
X182671428Y-88052380D01*
X182528571Y-88004761D01*
X182433333Y-87909523D01*
X182385714Y-87814285D01*
X182338095Y-87623809D01*
X182338095Y-87480952D01*
X182385714Y-87290476D01*
X182433333Y-87195238D01*
X182528571Y-87100000D01*
X182671428Y-87052380D01*
X182766666Y-87052380D01*
X182909523Y-87100000D01*
X182957142Y-87147619D01*
X183909523Y-88052380D02*
X183338095Y-88052380D01*
X183623809Y-88052380D02*
X183623809Y-87052380D01*
X183528571Y-87195238D01*
X183433333Y-87290476D01*
X183338095Y-87338095D01*
X184290476Y-87147619D02*
X184338095Y-87100000D01*
X184433333Y-87052380D01*
X184671428Y-87052380D01*
X184766666Y-87100000D01*
X184814285Y-87147619D01*
X184861904Y-87242857D01*
X184861904Y-87338095D01*
X184814285Y-87480952D01*
X184242857Y-88052380D01*
X184861904Y-88052380D01*
X182857142Y-82957142D02*
X182809523Y-83004761D01*
X182666666Y-83052380D01*
X182571428Y-83052380D01*
X182428571Y-83004761D01*
X182333333Y-82909523D01*
X182285714Y-82814285D01*
X182238095Y-82623809D01*
X182238095Y-82480952D01*
X182285714Y-82290476D01*
X182333333Y-82195238D01*
X182428571Y-82100000D01*
X182571428Y-82052380D01*
X182666666Y-82052380D01*
X182809523Y-82100000D01*
X182857142Y-82147619D01*
X183809523Y-83052380D02*
X183238095Y-83052380D01*
X183523809Y-83052380D02*
X183523809Y-82052380D01*
X183428571Y-82195238D01*
X183333333Y-82290476D01*
X183238095Y-82338095D01*
X184761904Y-83052380D02*
X184190476Y-83052380D01*
X184476190Y-83052380D02*
X184476190Y-82052380D01*
X184380952Y-82195238D01*
X184285714Y-82290476D01*
X184190476Y-82338095D01*
X182957142Y-77957142D02*
X182909523Y-78004761D01*
X182766666Y-78052380D01*
X182671428Y-78052380D01*
X182528571Y-78004761D01*
X182433333Y-77909523D01*
X182385714Y-77814285D01*
X182338095Y-77623809D01*
X182338095Y-77480952D01*
X182385714Y-77290476D01*
X182433333Y-77195238D01*
X182528571Y-77100000D01*
X182671428Y-77052380D01*
X182766666Y-77052380D01*
X182909523Y-77100000D01*
X182957142Y-77147619D01*
X183909523Y-78052380D02*
X183338095Y-78052380D01*
X183623809Y-78052380D02*
X183623809Y-77052380D01*
X183528571Y-77195238D01*
X183433333Y-77290476D01*
X183338095Y-77338095D01*
X184528571Y-77052380D02*
X184623809Y-77052380D01*
X184719047Y-77100000D01*
X184766666Y-77147619D01*
X184814285Y-77242857D01*
X184861904Y-77433333D01*
X184861904Y-77671428D01*
X184814285Y-77861904D01*
X184766666Y-77957142D01*
X184719047Y-78004761D01*
X184623809Y-78052380D01*
X184528571Y-78052380D01*
X184433333Y-78004761D01*
X184385714Y-77957142D01*
X184338095Y-77861904D01*
X184290476Y-77671428D01*
X184290476Y-77433333D01*
X184338095Y-77242857D01*
X184385714Y-77147619D01*
X184433333Y-77100000D01*
X184528571Y-77052380D01*
X183333333Y-72957142D02*
X183285714Y-73004761D01*
X183142857Y-73052380D01*
X183047619Y-73052380D01*
X182904761Y-73004761D01*
X182809523Y-72909523D01*
X182761904Y-72814285D01*
X182714285Y-72623809D01*
X182714285Y-72480952D01*
X182761904Y-72290476D01*
X182809523Y-72195238D01*
X182904761Y-72100000D01*
X183047619Y-72052380D01*
X183142857Y-72052380D01*
X183285714Y-72100000D01*
X183333333Y-72147619D01*
X183809523Y-73052380D02*
X184000000Y-73052380D01*
X184095238Y-73004761D01*
X184142857Y-72957142D01*
X184238095Y-72814285D01*
X184285714Y-72623809D01*
X184285714Y-72242857D01*
X184238095Y-72147619D01*
X184190476Y-72100000D01*
X184095238Y-72052380D01*
X183904761Y-72052380D01*
X183809523Y-72100000D01*
X183761904Y-72147619D01*
X183714285Y-72242857D01*
X183714285Y-72480952D01*
X183761904Y-72576190D01*
X183809523Y-72623809D01*
X183904761Y-72671428D01*
X184095238Y-72671428D01*
X184190476Y-72623809D01*
X184238095Y-72576190D01*
X184285714Y-72480952D01*
X183433333Y-67957142D02*
X183385714Y-68004761D01*
X183242857Y-68052380D01*
X183147619Y-68052380D01*
X183004761Y-68004761D01*
X182909523Y-67909523D01*
X182861904Y-67814285D01*
X182814285Y-67623809D01*
X182814285Y-67480952D01*
X182861904Y-67290476D01*
X182909523Y-67195238D01*
X183004761Y-67100000D01*
X183147619Y-67052380D01*
X183242857Y-67052380D01*
X183385714Y-67100000D01*
X183433333Y-67147619D01*
X184004761Y-67480952D02*
X183909523Y-67433333D01*
X183861904Y-67385714D01*
X183814285Y-67290476D01*
X183814285Y-67242857D01*
X183861904Y-67147619D01*
X183909523Y-67100000D01*
X184004761Y-67052380D01*
X184195238Y-67052380D01*
X184290476Y-67100000D01*
X184338095Y-67147619D01*
X184385714Y-67242857D01*
X184385714Y-67290476D01*
X184338095Y-67385714D01*
X184290476Y-67433333D01*
X184195238Y-67480952D01*
X184004761Y-67480952D01*
X183909523Y-67528571D01*
X183861904Y-67576190D01*
X183814285Y-67671428D01*
X183814285Y-67861904D01*
X183861904Y-67957142D01*
X183909523Y-68004761D01*
X184004761Y-68052380D01*
X184195238Y-68052380D01*
X184290476Y-68004761D01*
X184338095Y-67957142D01*
X184385714Y-67861904D01*
X184385714Y-67671428D01*
X184338095Y-67576190D01*
X184290476Y-67528571D01*
X184195238Y-67480952D01*
X183333333Y-62957142D02*
X183285714Y-63004761D01*
X183142857Y-63052380D01*
X183047619Y-63052380D01*
X182904761Y-63004761D01*
X182809523Y-62909523D01*
X182761904Y-62814285D01*
X182714285Y-62623809D01*
X182714285Y-62480952D01*
X182761904Y-62290476D01*
X182809523Y-62195238D01*
X182904761Y-62100000D01*
X183047619Y-62052380D01*
X183142857Y-62052380D01*
X183285714Y-62100000D01*
X183333333Y-62147619D01*
X183666666Y-62052380D02*
X184333333Y-62052380D01*
X183904761Y-63052380D01*
X183433333Y-57957142D02*
X183385714Y-58004761D01*
X183242857Y-58052380D01*
X183147619Y-58052380D01*
X183004761Y-58004761D01*
X182909523Y-57909523D01*
X182861904Y-57814285D01*
X182814285Y-57623809D01*
X182814285Y-57480952D01*
X182861904Y-57290476D01*
X182909523Y-57195238D01*
X183004761Y-57100000D01*
X183147619Y-57052380D01*
X183242857Y-57052380D01*
X183385714Y-57100000D01*
X183433333Y-57147619D01*
X184290476Y-57052380D02*
X184100000Y-57052380D01*
X184004761Y-57100000D01*
X183957142Y-57147619D01*
X183861904Y-57290476D01*
X183814285Y-57480952D01*
X183814285Y-57861904D01*
X183861904Y-57957142D01*
X183909523Y-58004761D01*
X184004761Y-58052380D01*
X184195238Y-58052380D01*
X184290476Y-58004761D01*
X184338095Y-57957142D01*
X184385714Y-57861904D01*
X184385714Y-57623809D01*
X184338095Y-57528571D01*
X184290476Y-57480952D01*
X184195238Y-57433333D01*
X184004761Y-57433333D01*
X183909523Y-57480952D01*
X183861904Y-57528571D01*
X183814285Y-57623809D01*
X168233333Y-23517142D02*
X168185714Y-23564761D01*
X168042857Y-23612380D01*
X167947619Y-23612380D01*
X167804761Y-23564761D01*
X167709523Y-23469523D01*
X167661904Y-23374285D01*
X167614285Y-23183809D01*
X167614285Y-23040952D01*
X167661904Y-22850476D01*
X167709523Y-22755238D01*
X167804761Y-22660000D01*
X167947619Y-22612380D01*
X168042857Y-22612380D01*
X168185714Y-22660000D01*
X168233333Y-22707619D01*
X169138095Y-22612380D02*
X168661904Y-22612380D01*
X168614285Y-23088571D01*
X168661904Y-23040952D01*
X168757142Y-22993333D01*
X168995238Y-22993333D01*
X169090476Y-23040952D01*
X169138095Y-23088571D01*
X169185714Y-23183809D01*
X169185714Y-23421904D01*
X169138095Y-23517142D01*
X169090476Y-23564761D01*
X168995238Y-23612380D01*
X168757142Y-23612380D01*
X168661904Y-23564761D01*
X168614285Y-23517142D01*
X180633333Y-20727142D02*
X180585714Y-20774761D01*
X180442857Y-20822380D01*
X180347619Y-20822380D01*
X180204761Y-20774761D01*
X180109523Y-20679523D01*
X180061904Y-20584285D01*
X180014285Y-20393809D01*
X180014285Y-20250952D01*
X180061904Y-20060476D01*
X180109523Y-19965238D01*
X180204761Y-19870000D01*
X180347619Y-19822380D01*
X180442857Y-19822380D01*
X180585714Y-19870000D01*
X180633333Y-19917619D01*
X181490476Y-20155714D02*
X181490476Y-20822380D01*
X181252380Y-19774761D02*
X181014285Y-20489047D01*
X181633333Y-20489047D01*
X183333333Y-52957142D02*
X183285714Y-53004761D01*
X183142857Y-53052380D01*
X183047619Y-53052380D01*
X182904761Y-53004761D01*
X182809523Y-52909523D01*
X182761904Y-52814285D01*
X182714285Y-52623809D01*
X182714285Y-52480952D01*
X182761904Y-52290476D01*
X182809523Y-52195238D01*
X182904761Y-52100000D01*
X183047619Y-52052380D01*
X183142857Y-52052380D01*
X183285714Y-52100000D01*
X183333333Y-52147619D01*
X183666666Y-52052380D02*
X184285714Y-52052380D01*
X183952380Y-52433333D01*
X184095238Y-52433333D01*
X184190476Y-52480952D01*
X184238095Y-52528571D01*
X184285714Y-52623809D01*
X184285714Y-52861904D01*
X184238095Y-52957142D01*
X184190476Y-53004761D01*
X184095238Y-53052380D01*
X183809523Y-53052380D01*
X183714285Y-53004761D01*
X183666666Y-52957142D01*
X183433333Y-47957142D02*
X183385714Y-48004761D01*
X183242857Y-48052380D01*
X183147619Y-48052380D01*
X183004761Y-48004761D01*
X182909523Y-47909523D01*
X182861904Y-47814285D01*
X182814285Y-47623809D01*
X182814285Y-47480952D01*
X182861904Y-47290476D01*
X182909523Y-47195238D01*
X183004761Y-47100000D01*
X183147619Y-47052380D01*
X183242857Y-47052380D01*
X183385714Y-47100000D01*
X183433333Y-47147619D01*
X183814285Y-47147619D02*
X183861904Y-47100000D01*
X183957142Y-47052380D01*
X184195238Y-47052380D01*
X184290476Y-47100000D01*
X184338095Y-47147619D01*
X184385714Y-47242857D01*
X184385714Y-47338095D01*
X184338095Y-47480952D01*
X183766666Y-48052380D01*
X184385714Y-48052380D01*
X136927142Y-113166666D02*
X136974761Y-113214285D01*
X137022380Y-113357142D01*
X137022380Y-113452380D01*
X136974761Y-113595238D01*
X136879523Y-113690476D01*
X136784285Y-113738095D01*
X136593809Y-113785714D01*
X136450952Y-113785714D01*
X136260476Y-113738095D01*
X136165238Y-113690476D01*
X136070000Y-113595238D01*
X136022380Y-113452380D01*
X136022380Y-113357142D01*
X136070000Y-113214285D01*
X136117619Y-113166666D01*
X137022380Y-112214285D02*
X137022380Y-112785714D01*
X137022380Y-112500000D02*
X136022380Y-112500000D01*
X136165238Y-112595238D01*
X136260476Y-112690476D01*
X136308095Y-112785714D01*
M02*
