M48
; DRILL file {KiCad (5.1.5-0)} date Sunday, January 10, 2021 at 07:51:41 PM
; FORMAT={-:-/ absolute / inch / decimal}
; #@! TF.CreationDate,2021-01-10T19:51:41-07:00
; #@! TF.GenerationSoftware,Kicad,Pcbnew,(5.1.5-0)
FMAT,2
INCH
T1C0.0157
T2C0.0276
T3C0.0295
T4C0.0394
T5C0.0591
T6C0.0669
%
G90
G05
T1
X5.4488Y-4.1142
X5.4567Y-4.1969
X5.5276Y-5.0315
X5.9134Y-4.6181
X5.9134Y-4.6575
X5.9134Y-4.6968
X5.9134Y-4.7362
X5.9134Y-4.7756
X5.9134Y-4.815
X5.9134Y-4.8543
X5.9134Y-4.8937
X6.5748Y-2.0433
X6.5748Y-2.437
X6.5748Y-2.8307
X6.5748Y-3.2244
X6.5748Y-3.6181
X6.5748Y-4.0118
X6.5748Y-4.4055
X6.5748Y-4.7992
X6.7756Y-2.2008
X6.7756Y-2.5945
X6.7756Y-2.9882
X6.7756Y-3.3819
X6.7756Y-3.7756
X6.7756Y-4.1693
X6.7756Y-4.563
X6.7756Y-4.9567
T2
X6.2992Y-4.3307
X6.4992Y-4.3307
X6.6992Y-4.3307
X6.8992Y-4.3307
X6.2992Y-2.7559
X6.4992Y-2.7559
X6.6992Y-2.7559
X6.8992Y-2.7559
X6.2992Y-3.5433
X6.4992Y-3.5433
X6.6992Y-3.5433
X6.8992Y-3.5433
X6.2992Y-4.7244
X6.4992Y-4.7244
X6.6992Y-4.7244
X6.8992Y-4.7244
X6.2992Y-1.9685
X6.4992Y-1.9685
X6.6992Y-1.9685
X6.8992Y-1.9685
X6.2992Y-2.3622
X6.4992Y-2.3622
X6.6992Y-2.3622
X6.8992Y-2.3622
X6.2992Y-3.937
X6.4992Y-3.937
X6.6992Y-3.937
X6.8992Y-3.937
X6.2992Y-3.1496
X6.4992Y-3.1496
X6.6992Y-3.1496
X6.8992Y-3.1496
T3
X6.1417Y-0.772
X6.2205Y-0.772
X6.2992Y-0.772
X6.378Y-0.772
X5.2362Y-4.6457
X5.2362Y-4.7244
X5.2362Y-4.8031
X5.2362Y-4.8819
X5.2323Y-1.8504
X5.2323Y-1.9291
T4
X5.4906Y-2.9921
X5.4906Y-3.0921
X5.4906Y-3.1921
X5.4906Y-3.2921
X5.4906Y-3.3921
X5.4906Y-3.4921
X5.4906Y-3.5921
X5.4906Y-3.6921
X5.5906Y-2.9921
X5.5906Y-3.0921
X5.5906Y-3.1921
X5.5906Y-3.2921
X5.5906Y-3.3921
X5.5906Y-3.4921
X5.5906Y-3.5921
X5.5906Y-3.6921
T5
X7.4803Y-3.937
X7.4803Y-2.3622
X7.4803Y-3.5433
X7.4803Y-4.3307
X7.4803Y-2.7559
X7.4803Y-1.9685
X7.4803Y-4.7244
X7.4803Y-3.1496
T6
X7.3803Y-3.837
X7.3803Y-4.037
X7.5803Y-3.837
X7.5803Y-4.037
X7.3803Y-2.2622
X7.3803Y-2.4622
X7.5803Y-2.2622
X7.5803Y-2.4622
X7.3803Y-3.4433
X7.3803Y-3.6433
X7.5803Y-3.4433
X7.5803Y-3.6433
X7.3803Y-4.2307
X7.3803Y-4.4307
X7.5803Y-4.2307
X7.5803Y-4.4307
X7.3803Y-2.6559
X7.3803Y-2.8559
X7.5803Y-2.6559
X7.5803Y-2.8559
X7.3803Y-1.8685
X7.3803Y-2.0685
X7.5803Y-1.8685
X7.5803Y-2.0685
X7.3803Y-4.6244
X7.3803Y-4.8244
X7.5803Y-4.6244
X7.5803Y-4.8244
X7.3803Y-3.0496
X7.3803Y-3.2496
X7.5803Y-3.0496
X7.5803Y-3.2496
T0
M30
