M48
; DRILL file {KiCad (5.1.5-0)} date Sunday, January 24, 2021 at 02:42:48 PM
; FORMAT={-:-/ absolute / inch / decimal}
; #@! TF.CreationDate,2021-01-24T14:42:48-07:00
; #@! TF.GenerationSoftware,Kicad,Pcbnew,(5.1.5-0)
FMAT,2
INCH
T1C0.0157
T2C0.0315
T3C0.0394
T4C0.1260
T5C0.1378
T6C0.3307
%
G90
G05
T1
X4.8031Y-4.5276
X5.1575Y-4.5276
T2
X6.1843Y-4.078
X6.1843Y-4.678
X6.2843Y-4.078
X6.2843Y-4.678
X6.3843Y-4.078
X6.3843Y-4.678
X6.4843Y-4.078
X6.4843Y-4.678
X6.5843Y-4.078
X6.5843Y-4.678
X6.6843Y-4.078
X6.6843Y-4.678
X6.7843Y-4.078
X6.7843Y-4.678
T3
X5.0787Y-4.4094
X5.1333Y-4.2976
X5.1878Y-4.4094
X5.2423Y-4.2976
X5.2969Y-4.4094
X5.3514Y-4.2976
X5.4059Y-4.4094
X5.4604Y-4.2976
X5.515Y-4.4094
T4
X4.8047Y-4.3535
X5.789Y-4.3535
T5
X3.937Y-3.937
X3.937Y-4.828
X7.6823Y-3.937
X7.6823Y-4.828
T6
X4.3136Y-4.3825
T0
M30
