G04 #@! TF.GenerationSoftware,KiCad,Pcbnew,(5.1.5-0)*
G04 #@! TF.CreationDate,2020-12-28T17:14:56-07:00*
G04 #@! TF.ProjectId,back_v2,6261636b-5f76-4322-9e6b-696361645f70,rev?*
G04 #@! TF.SameCoordinates,Original*
G04 #@! TF.FileFunction,Legend,Bot*
G04 #@! TF.FilePolarity,Positive*
%FSLAX46Y46*%
G04 Gerber Fmt 4.6, Leading zero omitted, Abs format (unit mm)*
G04 Created by KiCad (PCBNEW (5.1.5-0)) date 2020-12-28 17:14:56*
%MOMM*%
%LPD*%
G04 APERTURE LIST*
%ADD10C,0.120000*%
%ADD11C,0.150000*%
G04 APERTURE END LIST*
D10*
X173420000Y-114573333D02*
X173420000Y-121320000D01*
X173060000Y-114573333D02*
X173420000Y-114573333D01*
X173060000Y-107826667D02*
X173060000Y-114573333D01*
X173420000Y-107826667D02*
X173060000Y-107826667D01*
X173420000Y-101080000D02*
X173420000Y-107826667D01*
X155980000Y-101080000D02*
X173420000Y-101080000D01*
X155980000Y-121320000D02*
X155980000Y-101080000D01*
X173420000Y-121320000D02*
X155980000Y-121320000D01*
X116673530Y-112841744D02*
X117572798Y-107741744D01*
X132406470Y-112841744D02*
X131507202Y-107741744D01*
X119207579Y-106370000D02*
X129872421Y-106370000D01*
X118308311Y-114790000D02*
X130771689Y-114790000D01*
X119000000Y-117351325D02*
X118750000Y-117784338D01*
X119250000Y-117784338D02*
X119000000Y-117351325D01*
X118750000Y-117784338D02*
X119250000Y-117784338D01*
X109055000Y-105330000D02*
X109055000Y-115830000D01*
X138965000Y-104270000D02*
X110115000Y-104270000D01*
X140025000Y-115830000D02*
X140025000Y-105330000D01*
X110115000Y-116890000D02*
X138965000Y-116890000D01*
X131507202Y-107741744D02*
G75*
G03X129872421Y-106370000I-1634781J-288256D01*
G01*
X117572798Y-107741744D02*
G75*
G02X119207579Y-106370000I1634781J-288256D01*
G01*
X132406470Y-112841744D02*
G75*
G02X130771689Y-114790000I-1634781J-288256D01*
G01*
X116673530Y-112841744D02*
G75*
G03X118308311Y-114790000I1634781J-288256D01*
G01*
X138965000Y-104270000D02*
G75*
G02X140025000Y-105330000I0J-1060000D01*
G01*
X110115000Y-104270000D02*
G75*
G03X109055000Y-105330000I0J-1060000D01*
G01*
X140025000Y-115830000D02*
G75*
G02X138965000Y-116890000I-1060000J0D01*
G01*
X110115000Y-116890000D02*
G75*
G02X109055000Y-115830000I0J1060000D01*
G01*
D11*
X173872380Y-110438095D02*
X174681904Y-110438095D01*
X174777142Y-110485714D01*
X174824761Y-110533333D01*
X174872380Y-110628571D01*
X174872380Y-110819047D01*
X174824761Y-110914285D01*
X174777142Y-110961904D01*
X174681904Y-111009523D01*
X173872380Y-111009523D01*
X174872380Y-112009523D02*
X174872380Y-111438095D01*
X174872380Y-111723809D02*
X173872380Y-111723809D01*
X174015238Y-111628571D01*
X174110476Y-111533333D01*
X174158095Y-111438095D01*
X124873333Y-117342380D02*
X124873333Y-118056666D01*
X124920952Y-118199523D01*
X125016190Y-118294761D01*
X125159047Y-118342380D01*
X125254285Y-118342380D01*
X124492380Y-117342380D02*
X123873333Y-117342380D01*
X124206666Y-117723333D01*
X124063809Y-117723333D01*
X123968571Y-117770952D01*
X123920952Y-117818571D01*
X123873333Y-117913809D01*
X123873333Y-118151904D01*
X123920952Y-118247142D01*
X123968571Y-118294761D01*
X124063809Y-118342380D01*
X124349523Y-118342380D01*
X124444761Y-118294761D01*
X124492380Y-118247142D01*
M02*
