G04 #@! TF.GenerationSoftware,KiCad,Pcbnew,(5.1.5-0)*
G04 #@! TF.CreationDate,2020-12-28T17:14:56-07:00*
G04 #@! TF.ProjectId,back_v2,6261636b-5f76-4322-9e6b-696361645f70,rev?*
G04 #@! TF.SameCoordinates,Original*
G04 #@! TF.FileFunction,Copper,L1,Top*
G04 #@! TF.FilePolarity,Positive*
%FSLAX46Y46*%
G04 Gerber Fmt 4.6, Leading zero omitted, Abs format (unit mm)*
G04 Created by KiCad (PCBNEW (5.1.5-0)) date 2020-12-28 17:14:56*
%MOMM*%
%LPD*%
G04 APERTURE LIST*
%ADD10C,0.300000*%
%ADD11O,1.200000X4.000000*%
%ADD12C,0.100000*%
%ADD13C,4.000000*%
%ADD14C,1.600000*%
%ADD15R,1.600000X1.600000*%
%ADD16C,5.800000*%
%ADD17C,0.250000*%
%ADD18C,0.254000*%
G04 APERTURE END LIST*
D10*
X105692857Y-100607142D02*
X105907142Y-100678571D01*
X106264285Y-100678571D01*
X106407142Y-100607142D01*
X106478571Y-100535714D01*
X106550000Y-100392857D01*
X106550000Y-100250000D01*
X106478571Y-100107142D01*
X106407142Y-100035714D01*
X106264285Y-99964285D01*
X105978571Y-99892857D01*
X105835714Y-99821428D01*
X105764285Y-99750000D01*
X105692857Y-99607142D01*
X105692857Y-99464285D01*
X105764285Y-99321428D01*
X105835714Y-99250000D01*
X105978571Y-99178571D01*
X106335714Y-99178571D01*
X106550000Y-99250000D01*
X108050000Y-100535714D02*
X107978571Y-100607142D01*
X107764285Y-100678571D01*
X107621428Y-100678571D01*
X107407142Y-100607142D01*
X107264285Y-100464285D01*
X107192857Y-100321428D01*
X107121428Y-100035714D01*
X107121428Y-99821428D01*
X107192857Y-99535714D01*
X107264285Y-99392857D01*
X107407142Y-99250000D01*
X107621428Y-99178571D01*
X107764285Y-99178571D01*
X107978571Y-99250000D01*
X108050000Y-99321428D01*
X109835714Y-100107142D02*
X110978571Y-100107142D01*
X113335714Y-99892857D02*
X113550000Y-99964285D01*
X113621428Y-100035714D01*
X113692857Y-100178571D01*
X113692857Y-100392857D01*
X113621428Y-100535714D01*
X113550000Y-100607142D01*
X113407142Y-100678571D01*
X112835714Y-100678571D01*
X112835714Y-99178571D01*
X113335714Y-99178571D01*
X113478571Y-99250000D01*
X113550000Y-99321428D01*
X113621428Y-99464285D01*
X113621428Y-99607142D01*
X113550000Y-99750000D01*
X113478571Y-99821428D01*
X113335714Y-99892857D01*
X112835714Y-99892857D01*
X114335714Y-100678571D02*
X114335714Y-99178571D01*
X114907142Y-99178571D01*
X115050000Y-99250000D01*
X115121428Y-99321428D01*
X115192857Y-99464285D01*
X115192857Y-99678571D01*
X115121428Y-99821428D01*
X115050000Y-99892857D01*
X114907142Y-99964285D01*
X114335714Y-99964285D01*
X116835714Y-99678571D02*
X117192857Y-100678571D01*
X117550000Y-99678571D01*
X118049999Y-99321428D02*
X118121428Y-99250000D01*
X118264285Y-99178571D01*
X118621428Y-99178571D01*
X118764285Y-99250000D01*
X118835714Y-99321428D01*
X118907142Y-99464285D01*
X118907142Y-99607142D01*
X118835714Y-99821428D01*
X117978571Y-100678571D01*
X118907142Y-100678571D01*
D11*
X157080000Y-118820000D03*
X157080000Y-103580000D03*
X159620000Y-118820000D03*
X159620000Y-103580000D03*
X162160000Y-118820000D03*
X162160000Y-103580000D03*
X164700000Y-118820000D03*
X164700000Y-103580000D03*
X167240000Y-118820000D03*
X167240000Y-103580000D03*
X169780000Y-118820000D03*
X169780000Y-103580000D03*
X172320000Y-118820000D03*
X172320000Y-103580000D03*
G04 #@! TA.AperFunction,SMDPad,CuDef*
D12*
G36*
X139360779Y-114551144D02*
G01*
X139383834Y-114554563D01*
X139406443Y-114560227D01*
X139428387Y-114568079D01*
X139449457Y-114578044D01*
X139469448Y-114590026D01*
X139488168Y-114603910D01*
X139505438Y-114619562D01*
X139521090Y-114636832D01*
X139534974Y-114655552D01*
X139546956Y-114675543D01*
X139556921Y-114696613D01*
X139564773Y-114718557D01*
X139570437Y-114741166D01*
X139573856Y-114764221D01*
X139575000Y-114787500D01*
X139575000Y-115362500D01*
X139573856Y-115385779D01*
X139570437Y-115408834D01*
X139564773Y-115431443D01*
X139556921Y-115453387D01*
X139546956Y-115474457D01*
X139534974Y-115494448D01*
X139521090Y-115513168D01*
X139505438Y-115530438D01*
X139488168Y-115546090D01*
X139469448Y-115559974D01*
X139449457Y-115571956D01*
X139428387Y-115581921D01*
X139406443Y-115589773D01*
X139383834Y-115595437D01*
X139360779Y-115598856D01*
X139337500Y-115600000D01*
X138862500Y-115600000D01*
X138839221Y-115598856D01*
X138816166Y-115595437D01*
X138793557Y-115589773D01*
X138771613Y-115581921D01*
X138750543Y-115571956D01*
X138730552Y-115559974D01*
X138711832Y-115546090D01*
X138694562Y-115530438D01*
X138678910Y-115513168D01*
X138665026Y-115494448D01*
X138653044Y-115474457D01*
X138643079Y-115453387D01*
X138635227Y-115431443D01*
X138629563Y-115408834D01*
X138626144Y-115385779D01*
X138625000Y-115362500D01*
X138625000Y-114787500D01*
X138626144Y-114764221D01*
X138629563Y-114741166D01*
X138635227Y-114718557D01*
X138643079Y-114696613D01*
X138653044Y-114675543D01*
X138665026Y-114655552D01*
X138678910Y-114636832D01*
X138694562Y-114619562D01*
X138711832Y-114603910D01*
X138730552Y-114590026D01*
X138750543Y-114578044D01*
X138771613Y-114568079D01*
X138793557Y-114560227D01*
X138816166Y-114554563D01*
X138839221Y-114551144D01*
X138862500Y-114550000D01*
X139337500Y-114550000D01*
X139360779Y-114551144D01*
G37*
G04 #@! TD.AperFunction*
G04 #@! TA.AperFunction,SMDPad,CuDef*
G36*
X139360779Y-112801144D02*
G01*
X139383834Y-112804563D01*
X139406443Y-112810227D01*
X139428387Y-112818079D01*
X139449457Y-112828044D01*
X139469448Y-112840026D01*
X139488168Y-112853910D01*
X139505438Y-112869562D01*
X139521090Y-112886832D01*
X139534974Y-112905552D01*
X139546956Y-112925543D01*
X139556921Y-112946613D01*
X139564773Y-112968557D01*
X139570437Y-112991166D01*
X139573856Y-113014221D01*
X139575000Y-113037500D01*
X139575000Y-113612500D01*
X139573856Y-113635779D01*
X139570437Y-113658834D01*
X139564773Y-113681443D01*
X139556921Y-113703387D01*
X139546956Y-113724457D01*
X139534974Y-113744448D01*
X139521090Y-113763168D01*
X139505438Y-113780438D01*
X139488168Y-113796090D01*
X139469448Y-113809974D01*
X139449457Y-113821956D01*
X139428387Y-113831921D01*
X139406443Y-113839773D01*
X139383834Y-113845437D01*
X139360779Y-113848856D01*
X139337500Y-113850000D01*
X138862500Y-113850000D01*
X138839221Y-113848856D01*
X138816166Y-113845437D01*
X138793557Y-113839773D01*
X138771613Y-113831921D01*
X138750543Y-113821956D01*
X138730552Y-113809974D01*
X138711832Y-113796090D01*
X138694562Y-113780438D01*
X138678910Y-113763168D01*
X138665026Y-113744448D01*
X138653044Y-113724457D01*
X138643079Y-113703387D01*
X138635227Y-113681443D01*
X138629563Y-113658834D01*
X138626144Y-113635779D01*
X138625000Y-113612500D01*
X138625000Y-113037500D01*
X138626144Y-113014221D01*
X138629563Y-112991166D01*
X138635227Y-112968557D01*
X138643079Y-112946613D01*
X138653044Y-112925543D01*
X138665026Y-112905552D01*
X138678910Y-112886832D01*
X138694562Y-112869562D01*
X138711832Y-112853910D01*
X138730552Y-112840026D01*
X138750543Y-112828044D01*
X138771613Y-112818079D01*
X138793557Y-112810227D01*
X138816166Y-112804563D01*
X138839221Y-112801144D01*
X138862500Y-112800000D01*
X139337500Y-112800000D01*
X139360779Y-112801144D01*
G37*
G04 #@! TD.AperFunction*
G04 #@! TA.AperFunction,SMDPad,CuDef*
G36*
X145035779Y-110976144D02*
G01*
X145058834Y-110979563D01*
X145081443Y-110985227D01*
X145103387Y-110993079D01*
X145124457Y-111003044D01*
X145144448Y-111015026D01*
X145163168Y-111028910D01*
X145180438Y-111044562D01*
X145196090Y-111061832D01*
X145209974Y-111080552D01*
X145221956Y-111100543D01*
X145231921Y-111121613D01*
X145239773Y-111143557D01*
X145245437Y-111166166D01*
X145248856Y-111189221D01*
X145250000Y-111212500D01*
X145250000Y-111787500D01*
X145248856Y-111810779D01*
X145245437Y-111833834D01*
X145239773Y-111856443D01*
X145231921Y-111878387D01*
X145221956Y-111899457D01*
X145209974Y-111919448D01*
X145196090Y-111938168D01*
X145180438Y-111955438D01*
X145163168Y-111971090D01*
X145144448Y-111984974D01*
X145124457Y-111996956D01*
X145103387Y-112006921D01*
X145081443Y-112014773D01*
X145058834Y-112020437D01*
X145035779Y-112023856D01*
X145012500Y-112025000D01*
X144537500Y-112025000D01*
X144514221Y-112023856D01*
X144491166Y-112020437D01*
X144468557Y-112014773D01*
X144446613Y-112006921D01*
X144425543Y-111996956D01*
X144405552Y-111984974D01*
X144386832Y-111971090D01*
X144369562Y-111955438D01*
X144353910Y-111938168D01*
X144340026Y-111919448D01*
X144328044Y-111899457D01*
X144318079Y-111878387D01*
X144310227Y-111856443D01*
X144304563Y-111833834D01*
X144301144Y-111810779D01*
X144300000Y-111787500D01*
X144300000Y-111212500D01*
X144301144Y-111189221D01*
X144304563Y-111166166D01*
X144310227Y-111143557D01*
X144318079Y-111121613D01*
X144328044Y-111100543D01*
X144340026Y-111080552D01*
X144353910Y-111061832D01*
X144369562Y-111044562D01*
X144386832Y-111028910D01*
X144405552Y-111015026D01*
X144425543Y-111003044D01*
X144446613Y-110993079D01*
X144468557Y-110985227D01*
X144491166Y-110979563D01*
X144514221Y-110976144D01*
X144537500Y-110975000D01*
X145012500Y-110975000D01*
X145035779Y-110976144D01*
G37*
G04 #@! TD.AperFunction*
G04 #@! TA.AperFunction,SMDPad,CuDef*
G36*
X145035779Y-109226144D02*
G01*
X145058834Y-109229563D01*
X145081443Y-109235227D01*
X145103387Y-109243079D01*
X145124457Y-109253044D01*
X145144448Y-109265026D01*
X145163168Y-109278910D01*
X145180438Y-109294562D01*
X145196090Y-109311832D01*
X145209974Y-109330552D01*
X145221956Y-109350543D01*
X145231921Y-109371613D01*
X145239773Y-109393557D01*
X145245437Y-109416166D01*
X145248856Y-109439221D01*
X145250000Y-109462500D01*
X145250000Y-110037500D01*
X145248856Y-110060779D01*
X145245437Y-110083834D01*
X145239773Y-110106443D01*
X145231921Y-110128387D01*
X145221956Y-110149457D01*
X145209974Y-110169448D01*
X145196090Y-110188168D01*
X145180438Y-110205438D01*
X145163168Y-110221090D01*
X145144448Y-110234974D01*
X145124457Y-110246956D01*
X145103387Y-110256921D01*
X145081443Y-110264773D01*
X145058834Y-110270437D01*
X145035779Y-110273856D01*
X145012500Y-110275000D01*
X144537500Y-110275000D01*
X144514221Y-110273856D01*
X144491166Y-110270437D01*
X144468557Y-110264773D01*
X144446613Y-110256921D01*
X144425543Y-110246956D01*
X144405552Y-110234974D01*
X144386832Y-110221090D01*
X144369562Y-110205438D01*
X144353910Y-110188168D01*
X144340026Y-110169448D01*
X144328044Y-110149457D01*
X144318079Y-110128387D01*
X144310227Y-110106443D01*
X144304563Y-110083834D01*
X144301144Y-110060779D01*
X144300000Y-110037500D01*
X144300000Y-109462500D01*
X144301144Y-109439221D01*
X144304563Y-109416166D01*
X144310227Y-109393557D01*
X144318079Y-109371613D01*
X144328044Y-109350543D01*
X144340026Y-109330552D01*
X144353910Y-109311832D01*
X144369562Y-109294562D01*
X144386832Y-109278910D01*
X144405552Y-109265026D01*
X144425543Y-109253044D01*
X144446613Y-109243079D01*
X144468557Y-109235227D01*
X144491166Y-109229563D01*
X144514221Y-109226144D01*
X144537500Y-109225000D01*
X145012500Y-109225000D01*
X145035779Y-109226144D01*
G37*
G04 #@! TD.AperFunction*
G04 #@! TA.AperFunction,SMDPad,CuDef*
G36*
X131374505Y-99701204D02*
G01*
X131398773Y-99704804D01*
X131422572Y-99710765D01*
X131445671Y-99719030D01*
X131467850Y-99729520D01*
X131488893Y-99742132D01*
X131508599Y-99756747D01*
X131526777Y-99773223D01*
X131543253Y-99791401D01*
X131557868Y-99811107D01*
X131570480Y-99832150D01*
X131580970Y-99854329D01*
X131589235Y-99877428D01*
X131595196Y-99901227D01*
X131598796Y-99925495D01*
X131600000Y-99949999D01*
X131600000Y-101250001D01*
X131598796Y-101274505D01*
X131595196Y-101298773D01*
X131589235Y-101322572D01*
X131580970Y-101345671D01*
X131570480Y-101367850D01*
X131557868Y-101388893D01*
X131543253Y-101408599D01*
X131526777Y-101426777D01*
X131508599Y-101443253D01*
X131488893Y-101457868D01*
X131467850Y-101470480D01*
X131445671Y-101480970D01*
X131422572Y-101489235D01*
X131398773Y-101495196D01*
X131374505Y-101498796D01*
X131350001Y-101500000D01*
X130649999Y-101500000D01*
X130625495Y-101498796D01*
X130601227Y-101495196D01*
X130577428Y-101489235D01*
X130554329Y-101480970D01*
X130532150Y-101470480D01*
X130511107Y-101457868D01*
X130491401Y-101443253D01*
X130473223Y-101426777D01*
X130456747Y-101408599D01*
X130442132Y-101388893D01*
X130429520Y-101367850D01*
X130419030Y-101345671D01*
X130410765Y-101322572D01*
X130404804Y-101298773D01*
X130401204Y-101274505D01*
X130400000Y-101250001D01*
X130400000Y-99949999D01*
X130401204Y-99925495D01*
X130404804Y-99901227D01*
X130410765Y-99877428D01*
X130419030Y-99854329D01*
X130429520Y-99832150D01*
X130442132Y-99811107D01*
X130456747Y-99791401D01*
X130473223Y-99773223D01*
X130491401Y-99756747D01*
X130511107Y-99742132D01*
X130532150Y-99729520D01*
X130554329Y-99719030D01*
X130577428Y-99710765D01*
X130601227Y-99704804D01*
X130625495Y-99701204D01*
X130649999Y-99700000D01*
X131350001Y-99700000D01*
X131374505Y-99701204D01*
G37*
G04 #@! TD.AperFunction*
G04 #@! TA.AperFunction,SMDPad,CuDef*
G36*
X125774505Y-99701204D02*
G01*
X125798773Y-99704804D01*
X125822572Y-99710765D01*
X125845671Y-99719030D01*
X125867850Y-99729520D01*
X125888893Y-99742132D01*
X125908599Y-99756747D01*
X125926777Y-99773223D01*
X125943253Y-99791401D01*
X125957868Y-99811107D01*
X125970480Y-99832150D01*
X125980970Y-99854329D01*
X125989235Y-99877428D01*
X125995196Y-99901227D01*
X125998796Y-99925495D01*
X126000000Y-99949999D01*
X126000000Y-101250001D01*
X125998796Y-101274505D01*
X125995196Y-101298773D01*
X125989235Y-101322572D01*
X125980970Y-101345671D01*
X125970480Y-101367850D01*
X125957868Y-101388893D01*
X125943253Y-101408599D01*
X125926777Y-101426777D01*
X125908599Y-101443253D01*
X125888893Y-101457868D01*
X125867850Y-101470480D01*
X125845671Y-101480970D01*
X125822572Y-101489235D01*
X125798773Y-101495196D01*
X125774505Y-101498796D01*
X125750001Y-101500000D01*
X125049999Y-101500000D01*
X125025495Y-101498796D01*
X125001227Y-101495196D01*
X124977428Y-101489235D01*
X124954329Y-101480970D01*
X124932150Y-101470480D01*
X124911107Y-101457868D01*
X124891401Y-101443253D01*
X124873223Y-101426777D01*
X124856747Y-101408599D01*
X124842132Y-101388893D01*
X124829520Y-101367850D01*
X124819030Y-101345671D01*
X124810765Y-101322572D01*
X124804804Y-101298773D01*
X124801204Y-101274505D01*
X124800000Y-101250001D01*
X124800000Y-99949999D01*
X124801204Y-99925495D01*
X124804804Y-99901227D01*
X124810765Y-99877428D01*
X124819030Y-99854329D01*
X124829520Y-99832150D01*
X124842132Y-99811107D01*
X124856747Y-99791401D01*
X124873223Y-99773223D01*
X124891401Y-99756747D01*
X124911107Y-99742132D01*
X124932150Y-99729520D01*
X124954329Y-99719030D01*
X124977428Y-99710765D01*
X125001227Y-99704804D01*
X125025495Y-99701204D01*
X125049999Y-99700000D01*
X125750001Y-99700000D01*
X125774505Y-99701204D01*
G37*
G04 #@! TD.AperFunction*
G04 #@! TA.AperFunction,SMDPad,CuDef*
G36*
X129864703Y-102350722D02*
G01*
X129879264Y-102352882D01*
X129893543Y-102356459D01*
X129907403Y-102361418D01*
X129920710Y-102367712D01*
X129933336Y-102375280D01*
X129945159Y-102384048D01*
X129956066Y-102393934D01*
X129965952Y-102404841D01*
X129974720Y-102416664D01*
X129982288Y-102429290D01*
X129988582Y-102442597D01*
X129993541Y-102456457D01*
X129997118Y-102470736D01*
X129999278Y-102485297D01*
X130000000Y-102500000D01*
X130000000Y-103750000D01*
X129999278Y-103764703D01*
X129997118Y-103779264D01*
X129993541Y-103793543D01*
X129988582Y-103807403D01*
X129982288Y-103820710D01*
X129974720Y-103833336D01*
X129965952Y-103845159D01*
X129956066Y-103856066D01*
X129945159Y-103865952D01*
X129933336Y-103874720D01*
X129920710Y-103882288D01*
X129907403Y-103888582D01*
X129893543Y-103893541D01*
X129879264Y-103897118D01*
X129864703Y-103899278D01*
X129850000Y-103900000D01*
X129550000Y-103900000D01*
X129535297Y-103899278D01*
X129520736Y-103897118D01*
X129506457Y-103893541D01*
X129492597Y-103888582D01*
X129479290Y-103882288D01*
X129466664Y-103874720D01*
X129454841Y-103865952D01*
X129443934Y-103856066D01*
X129434048Y-103845159D01*
X129425280Y-103833336D01*
X129417712Y-103820710D01*
X129411418Y-103807403D01*
X129406459Y-103793543D01*
X129402882Y-103779264D01*
X129400722Y-103764703D01*
X129400000Y-103750000D01*
X129400000Y-102500000D01*
X129400722Y-102485297D01*
X129402882Y-102470736D01*
X129406459Y-102456457D01*
X129411418Y-102442597D01*
X129417712Y-102429290D01*
X129425280Y-102416664D01*
X129434048Y-102404841D01*
X129443934Y-102393934D01*
X129454841Y-102384048D01*
X129466664Y-102375280D01*
X129479290Y-102367712D01*
X129492597Y-102361418D01*
X129506457Y-102356459D01*
X129520736Y-102352882D01*
X129535297Y-102350722D01*
X129550000Y-102350000D01*
X129850000Y-102350000D01*
X129864703Y-102350722D01*
G37*
G04 #@! TD.AperFunction*
G04 #@! TA.AperFunction,SMDPad,CuDef*
G36*
X128864703Y-102350722D02*
G01*
X128879264Y-102352882D01*
X128893543Y-102356459D01*
X128907403Y-102361418D01*
X128920710Y-102367712D01*
X128933336Y-102375280D01*
X128945159Y-102384048D01*
X128956066Y-102393934D01*
X128965952Y-102404841D01*
X128974720Y-102416664D01*
X128982288Y-102429290D01*
X128988582Y-102442597D01*
X128993541Y-102456457D01*
X128997118Y-102470736D01*
X128999278Y-102485297D01*
X129000000Y-102500000D01*
X129000000Y-103750000D01*
X128999278Y-103764703D01*
X128997118Y-103779264D01*
X128993541Y-103793543D01*
X128988582Y-103807403D01*
X128982288Y-103820710D01*
X128974720Y-103833336D01*
X128965952Y-103845159D01*
X128956066Y-103856066D01*
X128945159Y-103865952D01*
X128933336Y-103874720D01*
X128920710Y-103882288D01*
X128907403Y-103888582D01*
X128893543Y-103893541D01*
X128879264Y-103897118D01*
X128864703Y-103899278D01*
X128850000Y-103900000D01*
X128550000Y-103900000D01*
X128535297Y-103899278D01*
X128520736Y-103897118D01*
X128506457Y-103893541D01*
X128492597Y-103888582D01*
X128479290Y-103882288D01*
X128466664Y-103874720D01*
X128454841Y-103865952D01*
X128443934Y-103856066D01*
X128434048Y-103845159D01*
X128425280Y-103833336D01*
X128417712Y-103820710D01*
X128411418Y-103807403D01*
X128406459Y-103793543D01*
X128402882Y-103779264D01*
X128400722Y-103764703D01*
X128400000Y-103750000D01*
X128400000Y-102500000D01*
X128400722Y-102485297D01*
X128402882Y-102470736D01*
X128406459Y-102456457D01*
X128411418Y-102442597D01*
X128417712Y-102429290D01*
X128425280Y-102416664D01*
X128434048Y-102404841D01*
X128443934Y-102393934D01*
X128454841Y-102384048D01*
X128466664Y-102375280D01*
X128479290Y-102367712D01*
X128492597Y-102361418D01*
X128506457Y-102356459D01*
X128520736Y-102352882D01*
X128535297Y-102350722D01*
X128550000Y-102350000D01*
X128850000Y-102350000D01*
X128864703Y-102350722D01*
G37*
G04 #@! TD.AperFunction*
G04 #@! TA.AperFunction,SMDPad,CuDef*
G36*
X127864703Y-102350722D02*
G01*
X127879264Y-102352882D01*
X127893543Y-102356459D01*
X127907403Y-102361418D01*
X127920710Y-102367712D01*
X127933336Y-102375280D01*
X127945159Y-102384048D01*
X127956066Y-102393934D01*
X127965952Y-102404841D01*
X127974720Y-102416664D01*
X127982288Y-102429290D01*
X127988582Y-102442597D01*
X127993541Y-102456457D01*
X127997118Y-102470736D01*
X127999278Y-102485297D01*
X128000000Y-102500000D01*
X128000000Y-103750000D01*
X127999278Y-103764703D01*
X127997118Y-103779264D01*
X127993541Y-103793543D01*
X127988582Y-103807403D01*
X127982288Y-103820710D01*
X127974720Y-103833336D01*
X127965952Y-103845159D01*
X127956066Y-103856066D01*
X127945159Y-103865952D01*
X127933336Y-103874720D01*
X127920710Y-103882288D01*
X127907403Y-103888582D01*
X127893543Y-103893541D01*
X127879264Y-103897118D01*
X127864703Y-103899278D01*
X127850000Y-103900000D01*
X127550000Y-103900000D01*
X127535297Y-103899278D01*
X127520736Y-103897118D01*
X127506457Y-103893541D01*
X127492597Y-103888582D01*
X127479290Y-103882288D01*
X127466664Y-103874720D01*
X127454841Y-103865952D01*
X127443934Y-103856066D01*
X127434048Y-103845159D01*
X127425280Y-103833336D01*
X127417712Y-103820710D01*
X127411418Y-103807403D01*
X127406459Y-103793543D01*
X127402882Y-103779264D01*
X127400722Y-103764703D01*
X127400000Y-103750000D01*
X127400000Y-102500000D01*
X127400722Y-102485297D01*
X127402882Y-102470736D01*
X127406459Y-102456457D01*
X127411418Y-102442597D01*
X127417712Y-102429290D01*
X127425280Y-102416664D01*
X127434048Y-102404841D01*
X127443934Y-102393934D01*
X127454841Y-102384048D01*
X127466664Y-102375280D01*
X127479290Y-102367712D01*
X127492597Y-102361418D01*
X127506457Y-102356459D01*
X127520736Y-102352882D01*
X127535297Y-102350722D01*
X127550000Y-102350000D01*
X127850000Y-102350000D01*
X127864703Y-102350722D01*
G37*
G04 #@! TD.AperFunction*
G04 #@! TA.AperFunction,SMDPad,CuDef*
G36*
X126864703Y-102350722D02*
G01*
X126879264Y-102352882D01*
X126893543Y-102356459D01*
X126907403Y-102361418D01*
X126920710Y-102367712D01*
X126933336Y-102375280D01*
X126945159Y-102384048D01*
X126956066Y-102393934D01*
X126965952Y-102404841D01*
X126974720Y-102416664D01*
X126982288Y-102429290D01*
X126988582Y-102442597D01*
X126993541Y-102456457D01*
X126997118Y-102470736D01*
X126999278Y-102485297D01*
X127000000Y-102500000D01*
X127000000Y-103750000D01*
X126999278Y-103764703D01*
X126997118Y-103779264D01*
X126993541Y-103793543D01*
X126988582Y-103807403D01*
X126982288Y-103820710D01*
X126974720Y-103833336D01*
X126965952Y-103845159D01*
X126956066Y-103856066D01*
X126945159Y-103865952D01*
X126933336Y-103874720D01*
X126920710Y-103882288D01*
X126907403Y-103888582D01*
X126893543Y-103893541D01*
X126879264Y-103897118D01*
X126864703Y-103899278D01*
X126850000Y-103900000D01*
X126550000Y-103900000D01*
X126535297Y-103899278D01*
X126520736Y-103897118D01*
X126506457Y-103893541D01*
X126492597Y-103888582D01*
X126479290Y-103882288D01*
X126466664Y-103874720D01*
X126454841Y-103865952D01*
X126443934Y-103856066D01*
X126434048Y-103845159D01*
X126425280Y-103833336D01*
X126417712Y-103820710D01*
X126411418Y-103807403D01*
X126406459Y-103793543D01*
X126402882Y-103779264D01*
X126400722Y-103764703D01*
X126400000Y-103750000D01*
X126400000Y-102500000D01*
X126400722Y-102485297D01*
X126402882Y-102470736D01*
X126406459Y-102456457D01*
X126411418Y-102442597D01*
X126417712Y-102429290D01*
X126425280Y-102416664D01*
X126434048Y-102404841D01*
X126443934Y-102393934D01*
X126454841Y-102384048D01*
X126466664Y-102375280D01*
X126479290Y-102367712D01*
X126492597Y-102361418D01*
X126506457Y-102356459D01*
X126520736Y-102352882D01*
X126535297Y-102350722D01*
X126550000Y-102350000D01*
X126850000Y-102350000D01*
X126864703Y-102350722D01*
G37*
G04 #@! TD.AperFunction*
D13*
X137040000Y-110580000D03*
X112040000Y-110580000D03*
D14*
X128695000Y-109160000D03*
X125925000Y-109160000D03*
X123155000Y-109160000D03*
X120385000Y-109160000D03*
X130080000Y-112000000D03*
X127310000Y-112000000D03*
X124540000Y-112000000D03*
X121770000Y-112000000D03*
D15*
X119000000Y-112000000D03*
G04 #@! TA.AperFunction,SMDPad,CuDef*
D12*
G36*
X149924504Y-104401204D02*
G01*
X149948773Y-104404804D01*
X149972571Y-104410765D01*
X149995671Y-104419030D01*
X150017849Y-104429520D01*
X150038893Y-104442133D01*
X150058598Y-104456747D01*
X150076777Y-104473223D01*
X150093253Y-104491402D01*
X150107867Y-104511107D01*
X150120480Y-104532151D01*
X150130970Y-104554329D01*
X150139235Y-104577429D01*
X150145196Y-104601227D01*
X150148796Y-104625496D01*
X150150000Y-104650000D01*
X150150000Y-105750000D01*
X150148796Y-105774504D01*
X150145196Y-105798773D01*
X150139235Y-105822571D01*
X150130970Y-105845671D01*
X150120480Y-105867849D01*
X150107867Y-105888893D01*
X150093253Y-105908598D01*
X150076777Y-105926777D01*
X150058598Y-105943253D01*
X150038893Y-105957867D01*
X150017849Y-105970480D01*
X149995671Y-105980970D01*
X149972571Y-105989235D01*
X149948773Y-105995196D01*
X149924504Y-105998796D01*
X149900000Y-106000000D01*
X147400000Y-106000000D01*
X147375496Y-105998796D01*
X147351227Y-105995196D01*
X147327429Y-105989235D01*
X147304329Y-105980970D01*
X147282151Y-105970480D01*
X147261107Y-105957867D01*
X147241402Y-105943253D01*
X147223223Y-105926777D01*
X147206747Y-105908598D01*
X147192133Y-105888893D01*
X147179520Y-105867849D01*
X147169030Y-105845671D01*
X147160765Y-105822571D01*
X147154804Y-105798773D01*
X147151204Y-105774504D01*
X147150000Y-105750000D01*
X147150000Y-104650000D01*
X147151204Y-104625496D01*
X147154804Y-104601227D01*
X147160765Y-104577429D01*
X147169030Y-104554329D01*
X147179520Y-104532151D01*
X147192133Y-104511107D01*
X147206747Y-104491402D01*
X147223223Y-104473223D01*
X147241402Y-104456747D01*
X147261107Y-104442133D01*
X147282151Y-104429520D01*
X147304329Y-104419030D01*
X147327429Y-104410765D01*
X147351227Y-104404804D01*
X147375496Y-104401204D01*
X147400000Y-104400000D01*
X149900000Y-104400000D01*
X149924504Y-104401204D01*
G37*
G04 #@! TD.AperFunction*
G04 #@! TA.AperFunction,SMDPad,CuDef*
G36*
X149924504Y-115201204D02*
G01*
X149948773Y-115204804D01*
X149972571Y-115210765D01*
X149995671Y-115219030D01*
X150017849Y-115229520D01*
X150038893Y-115242133D01*
X150058598Y-115256747D01*
X150076777Y-115273223D01*
X150093253Y-115291402D01*
X150107867Y-115311107D01*
X150120480Y-115332151D01*
X150130970Y-115354329D01*
X150139235Y-115377429D01*
X150145196Y-115401227D01*
X150148796Y-115425496D01*
X150150000Y-115450000D01*
X150150000Y-116550000D01*
X150148796Y-116574504D01*
X150145196Y-116598773D01*
X150139235Y-116622571D01*
X150130970Y-116645671D01*
X150120480Y-116667849D01*
X150107867Y-116688893D01*
X150093253Y-116708598D01*
X150076777Y-116726777D01*
X150058598Y-116743253D01*
X150038893Y-116757867D01*
X150017849Y-116770480D01*
X149995671Y-116780970D01*
X149972571Y-116789235D01*
X149948773Y-116795196D01*
X149924504Y-116798796D01*
X149900000Y-116800000D01*
X147400000Y-116800000D01*
X147375496Y-116798796D01*
X147351227Y-116795196D01*
X147327429Y-116789235D01*
X147304329Y-116780970D01*
X147282151Y-116770480D01*
X147261107Y-116757867D01*
X147241402Y-116743253D01*
X147223223Y-116726777D01*
X147206747Y-116708598D01*
X147192133Y-116688893D01*
X147179520Y-116667849D01*
X147169030Y-116645671D01*
X147160765Y-116622571D01*
X147154804Y-116598773D01*
X147151204Y-116574504D01*
X147150000Y-116550000D01*
X147150000Y-115450000D01*
X147151204Y-115425496D01*
X147154804Y-115401227D01*
X147160765Y-115377429D01*
X147169030Y-115354329D01*
X147179520Y-115332151D01*
X147192133Y-115311107D01*
X147206747Y-115291402D01*
X147223223Y-115273223D01*
X147241402Y-115256747D01*
X147261107Y-115242133D01*
X147282151Y-115229520D01*
X147304329Y-115219030D01*
X147327429Y-115210765D01*
X147351227Y-115204804D01*
X147375496Y-115201204D01*
X147400000Y-115200000D01*
X149900000Y-115200000D01*
X149924504Y-115201204D01*
G37*
G04 #@! TD.AperFunction*
G04 #@! TA.AperFunction,SMDPad,CuDef*
G36*
X153424504Y-107101204D02*
G01*
X153448773Y-107104804D01*
X153472571Y-107110765D01*
X153495671Y-107119030D01*
X153517849Y-107129520D01*
X153538893Y-107142133D01*
X153558598Y-107156747D01*
X153576777Y-107173223D01*
X153593253Y-107191402D01*
X153607867Y-107211107D01*
X153620480Y-107232151D01*
X153630970Y-107254329D01*
X153639235Y-107277429D01*
X153645196Y-107301227D01*
X153648796Y-107325496D01*
X153650000Y-107350000D01*
X153650000Y-107850000D01*
X153648796Y-107874504D01*
X153645196Y-107898773D01*
X153639235Y-107922571D01*
X153630970Y-107945671D01*
X153620480Y-107967849D01*
X153607867Y-107988893D01*
X153593253Y-108008598D01*
X153576777Y-108026777D01*
X153558598Y-108043253D01*
X153538893Y-108057867D01*
X153517849Y-108070480D01*
X153495671Y-108080970D01*
X153472571Y-108089235D01*
X153448773Y-108095196D01*
X153424504Y-108098796D01*
X153400000Y-108100000D01*
X148400000Y-108100000D01*
X148375496Y-108098796D01*
X148351227Y-108095196D01*
X148327429Y-108089235D01*
X148304329Y-108080970D01*
X148282151Y-108070480D01*
X148261107Y-108057867D01*
X148241402Y-108043253D01*
X148223223Y-108026777D01*
X148206747Y-108008598D01*
X148192133Y-107988893D01*
X148179520Y-107967849D01*
X148169030Y-107945671D01*
X148160765Y-107922571D01*
X148154804Y-107898773D01*
X148151204Y-107874504D01*
X148150000Y-107850000D01*
X148150000Y-107350000D01*
X148151204Y-107325496D01*
X148154804Y-107301227D01*
X148160765Y-107277429D01*
X148169030Y-107254329D01*
X148179520Y-107232151D01*
X148192133Y-107211107D01*
X148206747Y-107191402D01*
X148223223Y-107173223D01*
X148241402Y-107156747D01*
X148261107Y-107142133D01*
X148282151Y-107129520D01*
X148304329Y-107119030D01*
X148327429Y-107110765D01*
X148351227Y-107104804D01*
X148375496Y-107101204D01*
X148400000Y-107100000D01*
X153400000Y-107100000D01*
X153424504Y-107101204D01*
G37*
G04 #@! TD.AperFunction*
G04 #@! TA.AperFunction,SMDPad,CuDef*
G36*
X153424504Y-109101204D02*
G01*
X153448773Y-109104804D01*
X153472571Y-109110765D01*
X153495671Y-109119030D01*
X153517849Y-109129520D01*
X153538893Y-109142133D01*
X153558598Y-109156747D01*
X153576777Y-109173223D01*
X153593253Y-109191402D01*
X153607867Y-109211107D01*
X153620480Y-109232151D01*
X153630970Y-109254329D01*
X153639235Y-109277429D01*
X153645196Y-109301227D01*
X153648796Y-109325496D01*
X153650000Y-109350000D01*
X153650000Y-109850000D01*
X153648796Y-109874504D01*
X153645196Y-109898773D01*
X153639235Y-109922571D01*
X153630970Y-109945671D01*
X153620480Y-109967849D01*
X153607867Y-109988893D01*
X153593253Y-110008598D01*
X153576777Y-110026777D01*
X153558598Y-110043253D01*
X153538893Y-110057867D01*
X153517849Y-110070480D01*
X153495671Y-110080970D01*
X153472571Y-110089235D01*
X153448773Y-110095196D01*
X153424504Y-110098796D01*
X153400000Y-110100000D01*
X148400000Y-110100000D01*
X148375496Y-110098796D01*
X148351227Y-110095196D01*
X148327429Y-110089235D01*
X148304329Y-110080970D01*
X148282151Y-110070480D01*
X148261107Y-110057867D01*
X148241402Y-110043253D01*
X148223223Y-110026777D01*
X148206747Y-110008598D01*
X148192133Y-109988893D01*
X148179520Y-109967849D01*
X148169030Y-109945671D01*
X148160765Y-109922571D01*
X148154804Y-109898773D01*
X148151204Y-109874504D01*
X148150000Y-109850000D01*
X148150000Y-109350000D01*
X148151204Y-109325496D01*
X148154804Y-109301227D01*
X148160765Y-109277429D01*
X148169030Y-109254329D01*
X148179520Y-109232151D01*
X148192133Y-109211107D01*
X148206747Y-109191402D01*
X148223223Y-109173223D01*
X148241402Y-109156747D01*
X148261107Y-109142133D01*
X148282151Y-109129520D01*
X148304329Y-109119030D01*
X148327429Y-109110765D01*
X148351227Y-109104804D01*
X148375496Y-109101204D01*
X148400000Y-109100000D01*
X153400000Y-109100000D01*
X153424504Y-109101204D01*
G37*
G04 #@! TD.AperFunction*
G04 #@! TA.AperFunction,SMDPad,CuDef*
G36*
X153424504Y-111101204D02*
G01*
X153448773Y-111104804D01*
X153472571Y-111110765D01*
X153495671Y-111119030D01*
X153517849Y-111129520D01*
X153538893Y-111142133D01*
X153558598Y-111156747D01*
X153576777Y-111173223D01*
X153593253Y-111191402D01*
X153607867Y-111211107D01*
X153620480Y-111232151D01*
X153630970Y-111254329D01*
X153639235Y-111277429D01*
X153645196Y-111301227D01*
X153648796Y-111325496D01*
X153650000Y-111350000D01*
X153650000Y-111850000D01*
X153648796Y-111874504D01*
X153645196Y-111898773D01*
X153639235Y-111922571D01*
X153630970Y-111945671D01*
X153620480Y-111967849D01*
X153607867Y-111988893D01*
X153593253Y-112008598D01*
X153576777Y-112026777D01*
X153558598Y-112043253D01*
X153538893Y-112057867D01*
X153517849Y-112070480D01*
X153495671Y-112080970D01*
X153472571Y-112089235D01*
X153448773Y-112095196D01*
X153424504Y-112098796D01*
X153400000Y-112100000D01*
X148400000Y-112100000D01*
X148375496Y-112098796D01*
X148351227Y-112095196D01*
X148327429Y-112089235D01*
X148304329Y-112080970D01*
X148282151Y-112070480D01*
X148261107Y-112057867D01*
X148241402Y-112043253D01*
X148223223Y-112026777D01*
X148206747Y-112008598D01*
X148192133Y-111988893D01*
X148179520Y-111967849D01*
X148169030Y-111945671D01*
X148160765Y-111922571D01*
X148154804Y-111898773D01*
X148151204Y-111874504D01*
X148150000Y-111850000D01*
X148150000Y-111350000D01*
X148151204Y-111325496D01*
X148154804Y-111301227D01*
X148160765Y-111277429D01*
X148169030Y-111254329D01*
X148179520Y-111232151D01*
X148192133Y-111211107D01*
X148206747Y-111191402D01*
X148223223Y-111173223D01*
X148241402Y-111156747D01*
X148261107Y-111142133D01*
X148282151Y-111129520D01*
X148304329Y-111119030D01*
X148327429Y-111110765D01*
X148351227Y-111104804D01*
X148375496Y-111101204D01*
X148400000Y-111100000D01*
X153400000Y-111100000D01*
X153424504Y-111101204D01*
G37*
G04 #@! TD.AperFunction*
G04 #@! TA.AperFunction,SMDPad,CuDef*
G36*
X153424504Y-113101204D02*
G01*
X153448773Y-113104804D01*
X153472571Y-113110765D01*
X153495671Y-113119030D01*
X153517849Y-113129520D01*
X153538893Y-113142133D01*
X153558598Y-113156747D01*
X153576777Y-113173223D01*
X153593253Y-113191402D01*
X153607867Y-113211107D01*
X153620480Y-113232151D01*
X153630970Y-113254329D01*
X153639235Y-113277429D01*
X153645196Y-113301227D01*
X153648796Y-113325496D01*
X153650000Y-113350000D01*
X153650000Y-113850000D01*
X153648796Y-113874504D01*
X153645196Y-113898773D01*
X153639235Y-113922571D01*
X153630970Y-113945671D01*
X153620480Y-113967849D01*
X153607867Y-113988893D01*
X153593253Y-114008598D01*
X153576777Y-114026777D01*
X153558598Y-114043253D01*
X153538893Y-114057867D01*
X153517849Y-114070480D01*
X153495671Y-114080970D01*
X153472571Y-114089235D01*
X153448773Y-114095196D01*
X153424504Y-114098796D01*
X153400000Y-114100000D01*
X148400000Y-114100000D01*
X148375496Y-114098796D01*
X148351227Y-114095196D01*
X148327429Y-114089235D01*
X148304329Y-114080970D01*
X148282151Y-114070480D01*
X148261107Y-114057867D01*
X148241402Y-114043253D01*
X148223223Y-114026777D01*
X148206747Y-114008598D01*
X148192133Y-113988893D01*
X148179520Y-113967849D01*
X148169030Y-113945671D01*
X148160765Y-113922571D01*
X148154804Y-113898773D01*
X148151204Y-113874504D01*
X148150000Y-113850000D01*
X148150000Y-113350000D01*
X148151204Y-113325496D01*
X148154804Y-113301227D01*
X148160765Y-113277429D01*
X148169030Y-113254329D01*
X148179520Y-113232151D01*
X148192133Y-113211107D01*
X148206747Y-113191402D01*
X148223223Y-113173223D01*
X148241402Y-113156747D01*
X148261107Y-113142133D01*
X148282151Y-113129520D01*
X148304329Y-113119030D01*
X148327429Y-113110765D01*
X148351227Y-113104804D01*
X148375496Y-113101204D01*
X148400000Y-113100000D01*
X153400000Y-113100000D01*
X153424504Y-113101204D01*
G37*
G04 #@! TD.AperFunction*
G04 #@! TA.AperFunction,SMDPad,CuDef*
G36*
X143174504Y-118051204D02*
G01*
X143198773Y-118054804D01*
X143222571Y-118060765D01*
X143245671Y-118069030D01*
X143267849Y-118079520D01*
X143288893Y-118092133D01*
X143308598Y-118106747D01*
X143326777Y-118123223D01*
X143343253Y-118141402D01*
X143357867Y-118161107D01*
X143370480Y-118182151D01*
X143380970Y-118204329D01*
X143389235Y-118227429D01*
X143395196Y-118251227D01*
X143398796Y-118275496D01*
X143400000Y-118300000D01*
X143400000Y-120800000D01*
X143398796Y-120824504D01*
X143395196Y-120848773D01*
X143389235Y-120872571D01*
X143380970Y-120895671D01*
X143370480Y-120917849D01*
X143357867Y-120938893D01*
X143343253Y-120958598D01*
X143326777Y-120976777D01*
X143308598Y-120993253D01*
X143288893Y-121007867D01*
X143267849Y-121020480D01*
X143245671Y-121030970D01*
X143222571Y-121039235D01*
X143198773Y-121045196D01*
X143174504Y-121048796D01*
X143150000Y-121050000D01*
X142050000Y-121050000D01*
X142025496Y-121048796D01*
X142001227Y-121045196D01*
X141977429Y-121039235D01*
X141954329Y-121030970D01*
X141932151Y-121020480D01*
X141911107Y-121007867D01*
X141891402Y-120993253D01*
X141873223Y-120976777D01*
X141856747Y-120958598D01*
X141842133Y-120938893D01*
X141829520Y-120917849D01*
X141819030Y-120895671D01*
X141810765Y-120872571D01*
X141804804Y-120848773D01*
X141801204Y-120824504D01*
X141800000Y-120800000D01*
X141800000Y-118300000D01*
X141801204Y-118275496D01*
X141804804Y-118251227D01*
X141810765Y-118227429D01*
X141819030Y-118204329D01*
X141829520Y-118182151D01*
X141842133Y-118161107D01*
X141856747Y-118141402D01*
X141873223Y-118123223D01*
X141891402Y-118106747D01*
X141911107Y-118092133D01*
X141932151Y-118079520D01*
X141954329Y-118069030D01*
X141977429Y-118060765D01*
X142001227Y-118054804D01*
X142025496Y-118051204D01*
X142050000Y-118050000D01*
X143150000Y-118050000D01*
X143174504Y-118051204D01*
G37*
G04 #@! TD.AperFunction*
G04 #@! TA.AperFunction,SMDPad,CuDef*
G36*
X136374504Y-118051204D02*
G01*
X136398773Y-118054804D01*
X136422571Y-118060765D01*
X136445671Y-118069030D01*
X136467849Y-118079520D01*
X136488893Y-118092133D01*
X136508598Y-118106747D01*
X136526777Y-118123223D01*
X136543253Y-118141402D01*
X136557867Y-118161107D01*
X136570480Y-118182151D01*
X136580970Y-118204329D01*
X136589235Y-118227429D01*
X136595196Y-118251227D01*
X136598796Y-118275496D01*
X136600000Y-118300000D01*
X136600000Y-120800000D01*
X136598796Y-120824504D01*
X136595196Y-120848773D01*
X136589235Y-120872571D01*
X136580970Y-120895671D01*
X136570480Y-120917849D01*
X136557867Y-120938893D01*
X136543253Y-120958598D01*
X136526777Y-120976777D01*
X136508598Y-120993253D01*
X136488893Y-121007867D01*
X136467849Y-121020480D01*
X136445671Y-121030970D01*
X136422571Y-121039235D01*
X136398773Y-121045196D01*
X136374504Y-121048796D01*
X136350000Y-121050000D01*
X135250000Y-121050000D01*
X135225496Y-121048796D01*
X135201227Y-121045196D01*
X135177429Y-121039235D01*
X135154329Y-121030970D01*
X135132151Y-121020480D01*
X135111107Y-121007867D01*
X135091402Y-120993253D01*
X135073223Y-120976777D01*
X135056747Y-120958598D01*
X135042133Y-120938893D01*
X135029520Y-120917849D01*
X135019030Y-120895671D01*
X135010765Y-120872571D01*
X135004804Y-120848773D01*
X135001204Y-120824504D01*
X135000000Y-120800000D01*
X135000000Y-118300000D01*
X135001204Y-118275496D01*
X135004804Y-118251227D01*
X135010765Y-118227429D01*
X135019030Y-118204329D01*
X135029520Y-118182151D01*
X135042133Y-118161107D01*
X135056747Y-118141402D01*
X135073223Y-118123223D01*
X135091402Y-118106747D01*
X135111107Y-118092133D01*
X135132151Y-118079520D01*
X135154329Y-118069030D01*
X135177429Y-118060765D01*
X135201227Y-118054804D01*
X135225496Y-118051204D01*
X135250000Y-118050000D01*
X136350000Y-118050000D01*
X136374504Y-118051204D01*
G37*
G04 #@! TD.AperFunction*
G04 #@! TA.AperFunction,SMDPad,CuDef*
G36*
X140474504Y-119051204D02*
G01*
X140498773Y-119054804D01*
X140522571Y-119060765D01*
X140545671Y-119069030D01*
X140567849Y-119079520D01*
X140588893Y-119092133D01*
X140608598Y-119106747D01*
X140626777Y-119123223D01*
X140643253Y-119141402D01*
X140657867Y-119161107D01*
X140670480Y-119182151D01*
X140680970Y-119204329D01*
X140689235Y-119227429D01*
X140695196Y-119251227D01*
X140698796Y-119275496D01*
X140700000Y-119300000D01*
X140700000Y-124300000D01*
X140698796Y-124324504D01*
X140695196Y-124348773D01*
X140689235Y-124372571D01*
X140680970Y-124395671D01*
X140670480Y-124417849D01*
X140657867Y-124438893D01*
X140643253Y-124458598D01*
X140626777Y-124476777D01*
X140608598Y-124493253D01*
X140588893Y-124507867D01*
X140567849Y-124520480D01*
X140545671Y-124530970D01*
X140522571Y-124539235D01*
X140498773Y-124545196D01*
X140474504Y-124548796D01*
X140450000Y-124550000D01*
X139950000Y-124550000D01*
X139925496Y-124548796D01*
X139901227Y-124545196D01*
X139877429Y-124539235D01*
X139854329Y-124530970D01*
X139832151Y-124520480D01*
X139811107Y-124507867D01*
X139791402Y-124493253D01*
X139773223Y-124476777D01*
X139756747Y-124458598D01*
X139742133Y-124438893D01*
X139729520Y-124417849D01*
X139719030Y-124395671D01*
X139710765Y-124372571D01*
X139704804Y-124348773D01*
X139701204Y-124324504D01*
X139700000Y-124300000D01*
X139700000Y-119300000D01*
X139701204Y-119275496D01*
X139704804Y-119251227D01*
X139710765Y-119227429D01*
X139719030Y-119204329D01*
X139729520Y-119182151D01*
X139742133Y-119161107D01*
X139756747Y-119141402D01*
X139773223Y-119123223D01*
X139791402Y-119106747D01*
X139811107Y-119092133D01*
X139832151Y-119079520D01*
X139854329Y-119069030D01*
X139877429Y-119060765D01*
X139901227Y-119054804D01*
X139925496Y-119051204D01*
X139950000Y-119050000D01*
X140450000Y-119050000D01*
X140474504Y-119051204D01*
G37*
G04 #@! TD.AperFunction*
G04 #@! TA.AperFunction,SMDPad,CuDef*
G36*
X138474504Y-119051204D02*
G01*
X138498773Y-119054804D01*
X138522571Y-119060765D01*
X138545671Y-119069030D01*
X138567849Y-119079520D01*
X138588893Y-119092133D01*
X138608598Y-119106747D01*
X138626777Y-119123223D01*
X138643253Y-119141402D01*
X138657867Y-119161107D01*
X138670480Y-119182151D01*
X138680970Y-119204329D01*
X138689235Y-119227429D01*
X138695196Y-119251227D01*
X138698796Y-119275496D01*
X138700000Y-119300000D01*
X138700000Y-124300000D01*
X138698796Y-124324504D01*
X138695196Y-124348773D01*
X138689235Y-124372571D01*
X138680970Y-124395671D01*
X138670480Y-124417849D01*
X138657867Y-124438893D01*
X138643253Y-124458598D01*
X138626777Y-124476777D01*
X138608598Y-124493253D01*
X138588893Y-124507867D01*
X138567849Y-124520480D01*
X138545671Y-124530970D01*
X138522571Y-124539235D01*
X138498773Y-124545196D01*
X138474504Y-124548796D01*
X138450000Y-124550000D01*
X137950000Y-124550000D01*
X137925496Y-124548796D01*
X137901227Y-124545196D01*
X137877429Y-124539235D01*
X137854329Y-124530970D01*
X137832151Y-124520480D01*
X137811107Y-124507867D01*
X137791402Y-124493253D01*
X137773223Y-124476777D01*
X137756747Y-124458598D01*
X137742133Y-124438893D01*
X137729520Y-124417849D01*
X137719030Y-124395671D01*
X137710765Y-124372571D01*
X137704804Y-124348773D01*
X137701204Y-124324504D01*
X137700000Y-124300000D01*
X137700000Y-119300000D01*
X137701204Y-119275496D01*
X137704804Y-119251227D01*
X137710765Y-119227429D01*
X137719030Y-119204329D01*
X137729520Y-119182151D01*
X137742133Y-119161107D01*
X137756747Y-119141402D01*
X137773223Y-119123223D01*
X137791402Y-119106747D01*
X137811107Y-119092133D01*
X137832151Y-119079520D01*
X137854329Y-119069030D01*
X137877429Y-119060765D01*
X137901227Y-119054804D01*
X137925496Y-119051204D01*
X137950000Y-119050000D01*
X138450000Y-119050000D01*
X138474504Y-119051204D01*
G37*
G04 #@! TD.AperFunction*
G04 #@! TA.AperFunction,SMDPad,CuDef*
G36*
X136674504Y-101851204D02*
G01*
X136698773Y-101854804D01*
X136722571Y-101860765D01*
X136745671Y-101869030D01*
X136767849Y-101879520D01*
X136788893Y-101892133D01*
X136808598Y-101906747D01*
X136826777Y-101923223D01*
X136843253Y-101941402D01*
X136857867Y-101961107D01*
X136870480Y-101982151D01*
X136880970Y-102004329D01*
X136889235Y-102027429D01*
X136895196Y-102051227D01*
X136898796Y-102075496D01*
X136900000Y-102100000D01*
X136900000Y-104600000D01*
X136898796Y-104624504D01*
X136895196Y-104648773D01*
X136889235Y-104672571D01*
X136880970Y-104695671D01*
X136870480Y-104717849D01*
X136857867Y-104738893D01*
X136843253Y-104758598D01*
X136826777Y-104776777D01*
X136808598Y-104793253D01*
X136788893Y-104807867D01*
X136767849Y-104820480D01*
X136745671Y-104830970D01*
X136722571Y-104839235D01*
X136698773Y-104845196D01*
X136674504Y-104848796D01*
X136650000Y-104850000D01*
X135550000Y-104850000D01*
X135525496Y-104848796D01*
X135501227Y-104845196D01*
X135477429Y-104839235D01*
X135454329Y-104830970D01*
X135432151Y-104820480D01*
X135411107Y-104807867D01*
X135391402Y-104793253D01*
X135373223Y-104776777D01*
X135356747Y-104758598D01*
X135342133Y-104738893D01*
X135329520Y-104717849D01*
X135319030Y-104695671D01*
X135310765Y-104672571D01*
X135304804Y-104648773D01*
X135301204Y-104624504D01*
X135300000Y-104600000D01*
X135300000Y-102100000D01*
X135301204Y-102075496D01*
X135304804Y-102051227D01*
X135310765Y-102027429D01*
X135319030Y-102004329D01*
X135329520Y-101982151D01*
X135342133Y-101961107D01*
X135356747Y-101941402D01*
X135373223Y-101923223D01*
X135391402Y-101906747D01*
X135411107Y-101892133D01*
X135432151Y-101879520D01*
X135454329Y-101869030D01*
X135477429Y-101860765D01*
X135501227Y-101854804D01*
X135525496Y-101851204D01*
X135550000Y-101850000D01*
X136650000Y-101850000D01*
X136674504Y-101851204D01*
G37*
G04 #@! TD.AperFunction*
G04 #@! TA.AperFunction,SMDPad,CuDef*
G36*
X143474504Y-101851204D02*
G01*
X143498773Y-101854804D01*
X143522571Y-101860765D01*
X143545671Y-101869030D01*
X143567849Y-101879520D01*
X143588893Y-101892133D01*
X143608598Y-101906747D01*
X143626777Y-101923223D01*
X143643253Y-101941402D01*
X143657867Y-101961107D01*
X143670480Y-101982151D01*
X143680970Y-102004329D01*
X143689235Y-102027429D01*
X143695196Y-102051227D01*
X143698796Y-102075496D01*
X143700000Y-102100000D01*
X143700000Y-104600000D01*
X143698796Y-104624504D01*
X143695196Y-104648773D01*
X143689235Y-104672571D01*
X143680970Y-104695671D01*
X143670480Y-104717849D01*
X143657867Y-104738893D01*
X143643253Y-104758598D01*
X143626777Y-104776777D01*
X143608598Y-104793253D01*
X143588893Y-104807867D01*
X143567849Y-104820480D01*
X143545671Y-104830970D01*
X143522571Y-104839235D01*
X143498773Y-104845196D01*
X143474504Y-104848796D01*
X143450000Y-104850000D01*
X142350000Y-104850000D01*
X142325496Y-104848796D01*
X142301227Y-104845196D01*
X142277429Y-104839235D01*
X142254329Y-104830970D01*
X142232151Y-104820480D01*
X142211107Y-104807867D01*
X142191402Y-104793253D01*
X142173223Y-104776777D01*
X142156747Y-104758598D01*
X142142133Y-104738893D01*
X142129520Y-104717849D01*
X142119030Y-104695671D01*
X142110765Y-104672571D01*
X142104804Y-104648773D01*
X142101204Y-104624504D01*
X142100000Y-104600000D01*
X142100000Y-102100000D01*
X142101204Y-102075496D01*
X142104804Y-102051227D01*
X142110765Y-102027429D01*
X142119030Y-102004329D01*
X142129520Y-101982151D01*
X142142133Y-101961107D01*
X142156747Y-101941402D01*
X142173223Y-101923223D01*
X142191402Y-101906747D01*
X142211107Y-101892133D01*
X142232151Y-101879520D01*
X142254329Y-101869030D01*
X142277429Y-101860765D01*
X142301227Y-101854804D01*
X142325496Y-101851204D01*
X142350000Y-101850000D01*
X143450000Y-101850000D01*
X143474504Y-101851204D01*
G37*
G04 #@! TD.AperFunction*
G04 #@! TA.AperFunction,SMDPad,CuDef*
G36*
X138774504Y-98351204D02*
G01*
X138798773Y-98354804D01*
X138822571Y-98360765D01*
X138845671Y-98369030D01*
X138867849Y-98379520D01*
X138888893Y-98392133D01*
X138908598Y-98406747D01*
X138926777Y-98423223D01*
X138943253Y-98441402D01*
X138957867Y-98461107D01*
X138970480Y-98482151D01*
X138980970Y-98504329D01*
X138989235Y-98527429D01*
X138995196Y-98551227D01*
X138998796Y-98575496D01*
X139000000Y-98600000D01*
X139000000Y-103600000D01*
X138998796Y-103624504D01*
X138995196Y-103648773D01*
X138989235Y-103672571D01*
X138980970Y-103695671D01*
X138970480Y-103717849D01*
X138957867Y-103738893D01*
X138943253Y-103758598D01*
X138926777Y-103776777D01*
X138908598Y-103793253D01*
X138888893Y-103807867D01*
X138867849Y-103820480D01*
X138845671Y-103830970D01*
X138822571Y-103839235D01*
X138798773Y-103845196D01*
X138774504Y-103848796D01*
X138750000Y-103850000D01*
X138250000Y-103850000D01*
X138225496Y-103848796D01*
X138201227Y-103845196D01*
X138177429Y-103839235D01*
X138154329Y-103830970D01*
X138132151Y-103820480D01*
X138111107Y-103807867D01*
X138091402Y-103793253D01*
X138073223Y-103776777D01*
X138056747Y-103758598D01*
X138042133Y-103738893D01*
X138029520Y-103717849D01*
X138019030Y-103695671D01*
X138010765Y-103672571D01*
X138004804Y-103648773D01*
X138001204Y-103624504D01*
X138000000Y-103600000D01*
X138000000Y-98600000D01*
X138001204Y-98575496D01*
X138004804Y-98551227D01*
X138010765Y-98527429D01*
X138019030Y-98504329D01*
X138029520Y-98482151D01*
X138042133Y-98461107D01*
X138056747Y-98441402D01*
X138073223Y-98423223D01*
X138091402Y-98406747D01*
X138111107Y-98392133D01*
X138132151Y-98379520D01*
X138154329Y-98369030D01*
X138177429Y-98360765D01*
X138201227Y-98354804D01*
X138225496Y-98351204D01*
X138250000Y-98350000D01*
X138750000Y-98350000D01*
X138774504Y-98351204D01*
G37*
G04 #@! TD.AperFunction*
G04 #@! TA.AperFunction,SMDPad,CuDef*
G36*
X140774504Y-98351204D02*
G01*
X140798773Y-98354804D01*
X140822571Y-98360765D01*
X140845671Y-98369030D01*
X140867849Y-98379520D01*
X140888893Y-98392133D01*
X140908598Y-98406747D01*
X140926777Y-98423223D01*
X140943253Y-98441402D01*
X140957867Y-98461107D01*
X140970480Y-98482151D01*
X140980970Y-98504329D01*
X140989235Y-98527429D01*
X140995196Y-98551227D01*
X140998796Y-98575496D01*
X141000000Y-98600000D01*
X141000000Y-103600000D01*
X140998796Y-103624504D01*
X140995196Y-103648773D01*
X140989235Y-103672571D01*
X140980970Y-103695671D01*
X140970480Y-103717849D01*
X140957867Y-103738893D01*
X140943253Y-103758598D01*
X140926777Y-103776777D01*
X140908598Y-103793253D01*
X140888893Y-103807867D01*
X140867849Y-103820480D01*
X140845671Y-103830970D01*
X140822571Y-103839235D01*
X140798773Y-103845196D01*
X140774504Y-103848796D01*
X140750000Y-103850000D01*
X140250000Y-103850000D01*
X140225496Y-103848796D01*
X140201227Y-103845196D01*
X140177429Y-103839235D01*
X140154329Y-103830970D01*
X140132151Y-103820480D01*
X140111107Y-103807867D01*
X140091402Y-103793253D01*
X140073223Y-103776777D01*
X140056747Y-103758598D01*
X140042133Y-103738893D01*
X140029520Y-103717849D01*
X140019030Y-103695671D01*
X140010765Y-103672571D01*
X140004804Y-103648773D01*
X140001204Y-103624504D01*
X140000000Y-103600000D01*
X140000000Y-98600000D01*
X140001204Y-98575496D01*
X140004804Y-98551227D01*
X140010765Y-98527429D01*
X140019030Y-98504329D01*
X140029520Y-98482151D01*
X140042133Y-98461107D01*
X140056747Y-98441402D01*
X140073223Y-98423223D01*
X140091402Y-98406747D01*
X140111107Y-98392133D01*
X140132151Y-98379520D01*
X140154329Y-98369030D01*
X140177429Y-98360765D01*
X140201227Y-98354804D01*
X140225496Y-98351204D01*
X140250000Y-98350000D01*
X140750000Y-98350000D01*
X140774504Y-98351204D01*
G37*
G04 #@! TD.AperFunction*
D16*
X100000000Y-100000000D03*
X100000000Y-122630000D03*
X195130000Y-100000000D03*
X195130000Y-122630000D03*
D17*
X123155000Y-109160000D02*
X123155000Y-99645000D01*
X123155000Y-99645000D02*
X124400000Y-98400000D01*
X135800000Y-98400000D02*
X138500000Y-101100000D01*
X124400000Y-98400000D02*
X135800000Y-98400000D01*
X119300000Y-112300000D02*
X119000000Y-112000000D01*
X119000000Y-113050000D02*
X119000000Y-112000000D01*
X127750000Y-121800000D02*
X119000000Y-113050000D01*
X138200000Y-121800000D02*
X127750000Y-121800000D01*
X128695000Y-112295000D02*
X129900000Y-113500000D01*
X128695000Y-109160000D02*
X128695000Y-112295000D01*
X129900000Y-113500000D02*
X139700000Y-113500000D01*
X139700000Y-113500000D02*
X143600000Y-109600000D01*
X167240000Y-104560000D02*
X167240000Y-102310000D01*
X162200000Y-109600000D02*
X167240000Y-104560000D01*
X150900000Y-109600000D02*
X162200000Y-109600000D01*
X128695000Y-103130000D02*
X128725000Y-103100000D01*
X128695000Y-109160000D02*
X128695000Y-103130000D01*
X139700000Y-113400000D02*
X139700000Y-113500000D01*
X139575000Y-113275000D02*
X139700000Y-113400000D01*
X139100000Y-113275000D02*
X139575000Y-113275000D01*
X144775000Y-109725000D02*
X144900000Y-109600000D01*
X144775000Y-109750000D02*
X144775000Y-109725000D01*
X144900000Y-109600000D02*
X150900000Y-109600000D01*
X143600000Y-109600000D02*
X144900000Y-109600000D01*
X125925000Y-112280002D02*
X128544998Y-114900000D01*
X125925000Y-109160000D02*
X125925000Y-112280002D01*
X128544998Y-114900000D02*
X143600000Y-114900000D01*
X144900000Y-113600000D02*
X150900000Y-113600000D01*
X143600000Y-114900000D02*
X144900000Y-113600000D01*
X153650000Y-113600000D02*
X150900000Y-113600000D01*
X155380000Y-113600000D02*
X153650000Y-113600000D01*
X159620000Y-117840000D02*
X155380000Y-113600000D01*
X159620000Y-120090000D02*
X159620000Y-117840000D01*
X126724999Y-108360001D02*
X125925000Y-109160000D01*
X126725000Y-103100000D02*
X126724999Y-108360001D01*
X139750000Y-114900000D02*
X143600000Y-114900000D01*
X139575000Y-115075000D02*
X139750000Y-114900000D01*
X139100000Y-115075000D02*
X139575000Y-115075000D01*
X130080000Y-112000000D02*
X130080000Y-110620000D01*
X133100000Y-107600000D02*
X150900000Y-107600000D01*
X169780000Y-100060000D02*
X168320000Y-98600000D01*
X169780000Y-102310000D02*
X169780000Y-100060000D01*
X168320000Y-98600000D02*
X154300000Y-98600000D01*
X150900000Y-102000000D02*
X150900000Y-107600000D01*
X154300000Y-98600000D02*
X150900000Y-102000000D01*
X133000000Y-107700000D02*
X133100000Y-107600000D01*
X130080000Y-110620000D02*
X133000000Y-107700000D01*
X133000000Y-105000000D02*
X133000000Y-105786810D01*
X131100000Y-103100000D02*
X133000000Y-105000000D01*
X133000000Y-105786810D02*
X133000000Y-107700000D01*
X129725000Y-103100000D02*
X131100000Y-103100000D01*
X153650000Y-111600000D02*
X150900000Y-111600000D01*
X143800000Y-111600000D02*
X150900000Y-111600000D01*
X127310000Y-112000000D02*
X129510000Y-114200000D01*
X129510000Y-114200000D02*
X141200000Y-114200000D01*
X141200000Y-114200000D02*
X142500000Y-112900000D01*
X142500000Y-112900000D02*
X143800000Y-111600000D01*
X141900000Y-113500000D02*
X142500000Y-112900000D01*
X162160000Y-117840000D02*
X162160000Y-120090000D01*
X155920000Y-111600000D02*
X162160000Y-117840000D01*
X150900000Y-111600000D02*
X155920000Y-111600000D01*
X127425000Y-110753630D02*
X127425000Y-108000000D01*
X127310000Y-110868630D02*
X127425000Y-110753630D01*
X127310000Y-112000000D02*
X127310000Y-110868630D01*
X127725000Y-107700000D02*
X127425000Y-108000000D01*
X127725000Y-103100000D02*
X127725000Y-107700000D01*
X172920000Y-102110000D02*
X172920000Y-103510000D01*
D18*
G36*
X195765502Y-96790476D02*
G01*
X196376802Y-96975039D01*
X196940603Y-97274817D01*
X197435445Y-97678399D01*
X197842474Y-98170412D01*
X198146184Y-98732112D01*
X198335008Y-99342104D01*
X198405000Y-100008036D01*
X198405001Y-122597712D01*
X198339524Y-123265501D01*
X198154962Y-123876800D01*
X197855183Y-124440603D01*
X197451598Y-124935447D01*
X196959587Y-125342474D01*
X196397888Y-125646184D01*
X195787896Y-125835008D01*
X195121964Y-125905000D01*
X100032278Y-125905000D01*
X99364499Y-125839524D01*
X98753200Y-125654962D01*
X98189397Y-125355183D01*
X97694553Y-124951598D01*
X97287526Y-124459587D01*
X96983816Y-123897888D01*
X96794992Y-123287896D01*
X96725000Y-122621964D01*
X96725000Y-112427499D01*
X110372106Y-112427499D01*
X110588228Y-112794258D01*
X111048105Y-113034938D01*
X111546098Y-113181275D01*
X112063071Y-113227648D01*
X112579159Y-113172273D01*
X113074526Y-113017279D01*
X113491772Y-112794258D01*
X113707894Y-112427499D01*
X112040000Y-110759605D01*
X110372106Y-112427499D01*
X96725000Y-112427499D01*
X96725000Y-110603071D01*
X109392352Y-110603071D01*
X109447727Y-111119159D01*
X109602721Y-111614526D01*
X109825742Y-112031772D01*
X110192501Y-112247894D01*
X111860395Y-110580000D01*
X112219605Y-110580000D01*
X113887499Y-112247894D01*
X114254258Y-112031772D01*
X114494938Y-111571895D01*
X114604220Y-111200000D01*
X117561928Y-111200000D01*
X117561928Y-112800000D01*
X117574188Y-112924482D01*
X117610498Y-113044180D01*
X117669463Y-113154494D01*
X117748815Y-113251185D01*
X117845506Y-113330537D01*
X117955820Y-113389502D01*
X118075518Y-113425812D01*
X118200000Y-113438072D01*
X118345674Y-113438072D01*
X118365026Y-113474276D01*
X118404871Y-113522826D01*
X118459999Y-113590001D01*
X118489003Y-113613804D01*
X127186201Y-122311003D01*
X127209999Y-122340001D01*
X127325724Y-122434974D01*
X127457753Y-122505546D01*
X127601014Y-122549003D01*
X127712667Y-122560000D01*
X127712675Y-122560000D01*
X127750000Y-122563676D01*
X127787325Y-122560000D01*
X137061928Y-122560000D01*
X137061928Y-124300000D01*
X137078992Y-124473254D01*
X137129528Y-124639850D01*
X137211595Y-124793386D01*
X137322038Y-124927962D01*
X137456614Y-125038405D01*
X137610150Y-125120472D01*
X137776746Y-125171008D01*
X137950000Y-125188072D01*
X138450000Y-125188072D01*
X138623254Y-125171008D01*
X138789850Y-125120472D01*
X138943386Y-125038405D01*
X139077962Y-124927962D01*
X139140969Y-124851187D01*
X139169463Y-124904494D01*
X139248815Y-125001185D01*
X139345506Y-125080537D01*
X139455820Y-125139502D01*
X139575518Y-125175812D01*
X139700000Y-125188072D01*
X139914250Y-125185000D01*
X140073000Y-125026250D01*
X140073000Y-121927000D01*
X140327000Y-121927000D01*
X140327000Y-125026250D01*
X140485750Y-125185000D01*
X140700000Y-125188072D01*
X140824482Y-125175812D01*
X140944180Y-125139502D01*
X141054494Y-125080537D01*
X141151185Y-125001185D01*
X141230537Y-124904494D01*
X141289502Y-124794180D01*
X141325812Y-124674482D01*
X141338072Y-124550000D01*
X141335000Y-122085750D01*
X141176250Y-121927000D01*
X140327000Y-121927000D01*
X140073000Y-121927000D01*
X140053000Y-121927000D01*
X140053000Y-121673000D01*
X140073000Y-121673000D01*
X140073000Y-118573750D01*
X140327000Y-118573750D01*
X140327000Y-121673000D01*
X141176250Y-121673000D01*
X141335000Y-121514250D01*
X141335239Y-121322197D01*
X141422038Y-121427962D01*
X141556614Y-121538405D01*
X141710150Y-121620472D01*
X141876746Y-121671008D01*
X142050000Y-121688072D01*
X143150000Y-121688072D01*
X143323254Y-121671008D01*
X143489850Y-121620472D01*
X143643386Y-121538405D01*
X143777962Y-121427962D01*
X143888405Y-121293386D01*
X143970472Y-121139850D01*
X144021008Y-120973254D01*
X144038072Y-120800000D01*
X144038072Y-118300000D01*
X144021008Y-118126746D01*
X143970472Y-117960150D01*
X143888405Y-117806614D01*
X143777962Y-117672038D01*
X143643386Y-117561595D01*
X143489850Y-117479528D01*
X143323254Y-117428992D01*
X143150000Y-117411928D01*
X142050000Y-117411928D01*
X141876746Y-117428992D01*
X141710150Y-117479528D01*
X141556614Y-117561595D01*
X141422038Y-117672038D01*
X141311595Y-117806614D01*
X141229528Y-117960150D01*
X141178992Y-118126746D01*
X141161928Y-118300000D01*
X141161928Y-118611905D01*
X141151185Y-118598815D01*
X141054494Y-118519463D01*
X140944180Y-118460498D01*
X140824482Y-118424188D01*
X140700000Y-118411928D01*
X140485750Y-118415000D01*
X140327000Y-118573750D01*
X140073000Y-118573750D01*
X139914250Y-118415000D01*
X139700000Y-118411928D01*
X139575518Y-118424188D01*
X139455820Y-118460498D01*
X139345506Y-118519463D01*
X139248815Y-118598815D01*
X139169463Y-118695506D01*
X139140969Y-118748813D01*
X139077962Y-118672038D01*
X138943386Y-118561595D01*
X138789850Y-118479528D01*
X138623254Y-118428992D01*
X138450000Y-118411928D01*
X137950000Y-118411928D01*
X137776746Y-118428992D01*
X137610150Y-118479528D01*
X137456614Y-118561595D01*
X137322038Y-118672038D01*
X137238072Y-118774351D01*
X137238072Y-118300000D01*
X137221008Y-118126746D01*
X137170472Y-117960150D01*
X137088405Y-117806614D01*
X136977962Y-117672038D01*
X136843386Y-117561595D01*
X136689850Y-117479528D01*
X136523254Y-117428992D01*
X136350000Y-117411928D01*
X135250000Y-117411928D01*
X135076746Y-117428992D01*
X134910150Y-117479528D01*
X134756614Y-117561595D01*
X134622038Y-117672038D01*
X134511595Y-117806614D01*
X134429528Y-117960150D01*
X134378992Y-118126746D01*
X134361928Y-118300000D01*
X134361928Y-120800000D01*
X134378992Y-120973254D01*
X134399239Y-121040000D01*
X128064802Y-121040000D01*
X120262364Y-113237563D01*
X120330537Y-113154494D01*
X120389502Y-113044180D01*
X120405117Y-112992702D01*
X120956903Y-112992702D01*
X121028486Y-113236671D01*
X121283996Y-113357571D01*
X121558184Y-113426300D01*
X121840512Y-113440217D01*
X122120130Y-113398787D01*
X122386292Y-113303603D01*
X122511514Y-113236671D01*
X122583097Y-112992702D01*
X123726903Y-112992702D01*
X123798486Y-113236671D01*
X124053996Y-113357571D01*
X124328184Y-113426300D01*
X124610512Y-113440217D01*
X124890130Y-113398787D01*
X125156292Y-113303603D01*
X125281514Y-113236671D01*
X125353097Y-112992702D01*
X124540000Y-112179605D01*
X123726903Y-112992702D01*
X122583097Y-112992702D01*
X121770000Y-112179605D01*
X120956903Y-112992702D01*
X120405117Y-112992702D01*
X120425812Y-112924482D01*
X120438072Y-112800000D01*
X120438072Y-112537087D01*
X120466397Y-112616292D01*
X120533329Y-112741514D01*
X120777298Y-112813097D01*
X121590395Y-112000000D01*
X121949605Y-112000000D01*
X122762702Y-112813097D01*
X123006671Y-112741514D01*
X123127571Y-112486004D01*
X123153216Y-112383695D01*
X123236397Y-112616292D01*
X123303329Y-112741514D01*
X123547298Y-112813097D01*
X124360395Y-112000000D01*
X123547298Y-111186903D01*
X123303329Y-111258486D01*
X123182429Y-111513996D01*
X123156784Y-111616305D01*
X123073603Y-111383708D01*
X123006671Y-111258486D01*
X122762702Y-111186903D01*
X121949605Y-112000000D01*
X121590395Y-112000000D01*
X120777298Y-111186903D01*
X120533329Y-111258486D01*
X120438072Y-111459802D01*
X120438072Y-111200000D01*
X120425812Y-111075518D01*
X120405118Y-111007298D01*
X120956903Y-111007298D01*
X121770000Y-111820395D01*
X122583097Y-111007298D01*
X122511514Y-110763329D01*
X122256004Y-110642429D01*
X121981816Y-110573700D01*
X121699488Y-110559783D01*
X121419870Y-110601213D01*
X121153708Y-110696397D01*
X121028486Y-110763329D01*
X120956903Y-111007298D01*
X120405118Y-111007298D01*
X120389502Y-110955820D01*
X120330537Y-110845506D01*
X120251185Y-110748815D01*
X120154494Y-110669463D01*
X120044180Y-110610498D01*
X119924482Y-110574188D01*
X119800000Y-110561928D01*
X118200000Y-110561928D01*
X118075518Y-110574188D01*
X117955820Y-110610498D01*
X117845506Y-110669463D01*
X117748815Y-110748815D01*
X117669463Y-110845506D01*
X117610498Y-110955820D01*
X117574188Y-111075518D01*
X117561928Y-111200000D01*
X114604220Y-111200000D01*
X114641275Y-111073902D01*
X114687648Y-110556929D01*
X114644276Y-110152702D01*
X119571903Y-110152702D01*
X119643486Y-110396671D01*
X119898996Y-110517571D01*
X120173184Y-110586300D01*
X120455512Y-110600217D01*
X120735130Y-110558787D01*
X121001292Y-110463603D01*
X121126514Y-110396671D01*
X121198097Y-110152702D01*
X120385000Y-109339605D01*
X119571903Y-110152702D01*
X114644276Y-110152702D01*
X114632273Y-110040841D01*
X114477279Y-109545474D01*
X114308930Y-109230512D01*
X118944783Y-109230512D01*
X118986213Y-109510130D01*
X119081397Y-109776292D01*
X119148329Y-109901514D01*
X119392298Y-109973097D01*
X120205395Y-109160000D01*
X120564605Y-109160000D01*
X121377702Y-109973097D01*
X121621671Y-109901514D01*
X121742571Y-109646004D01*
X121768212Y-109543711D01*
X121775147Y-109578574D01*
X121883320Y-109839727D01*
X122040363Y-110074759D01*
X122240241Y-110274637D01*
X122475273Y-110431680D01*
X122736426Y-110539853D01*
X123013665Y-110595000D01*
X123296335Y-110595000D01*
X123573574Y-110539853D01*
X123834727Y-110431680D01*
X124069759Y-110274637D01*
X124269637Y-110074759D01*
X124426680Y-109839727D01*
X124534853Y-109578574D01*
X124540000Y-109552699D01*
X124545147Y-109578574D01*
X124653320Y-109839727D01*
X124810363Y-110074759D01*
X125010241Y-110274637D01*
X125165000Y-110378044D01*
X125165000Y-110708198D01*
X125026004Y-110642429D01*
X124751816Y-110573700D01*
X124469488Y-110559783D01*
X124189870Y-110601213D01*
X123923708Y-110696397D01*
X123798486Y-110763329D01*
X123726903Y-111007298D01*
X124540000Y-111820395D01*
X124554143Y-111806253D01*
X124733748Y-111985858D01*
X124719605Y-112000000D01*
X125187931Y-112468326D01*
X125219454Y-112572248D01*
X125290026Y-112704278D01*
X125361201Y-112791004D01*
X125385000Y-112820003D01*
X125413998Y-112843801D01*
X127981199Y-115411003D01*
X128004997Y-115440001D01*
X128120722Y-115534974D01*
X128252751Y-115605546D01*
X128396012Y-115649003D01*
X128507665Y-115660000D01*
X128507673Y-115660000D01*
X128544998Y-115663676D01*
X128582323Y-115660000D01*
X138042181Y-115660000D01*
X138053577Y-115697567D01*
X138134488Y-115848942D01*
X138243377Y-115981623D01*
X138376058Y-116090512D01*
X138527433Y-116171423D01*
X138691684Y-116221248D01*
X138862500Y-116238072D01*
X139337500Y-116238072D01*
X139508316Y-116221248D01*
X139672567Y-116171423D01*
X139823942Y-116090512D01*
X139956623Y-115981623D01*
X140065512Y-115848942D01*
X140146423Y-115697567D01*
X140157819Y-115660000D01*
X143562678Y-115660000D01*
X143600000Y-115663676D01*
X143637322Y-115660000D01*
X143637333Y-115660000D01*
X143748986Y-115649003D01*
X143892247Y-115605546D01*
X144024276Y-115534974D01*
X144140001Y-115440001D01*
X144163804Y-115410997D01*
X145214802Y-114360000D01*
X147675230Y-114360000D01*
X147772038Y-114477962D01*
X147874351Y-114561928D01*
X147400000Y-114561928D01*
X147226746Y-114578992D01*
X147060150Y-114629528D01*
X146906614Y-114711595D01*
X146772038Y-114822038D01*
X146661595Y-114956614D01*
X146579528Y-115110150D01*
X146528992Y-115276746D01*
X146511928Y-115450000D01*
X146511928Y-116550000D01*
X146528992Y-116723254D01*
X146579528Y-116889850D01*
X146661595Y-117043386D01*
X146772038Y-117177962D01*
X146906614Y-117288405D01*
X147060150Y-117370472D01*
X147226746Y-117421008D01*
X147400000Y-117438072D01*
X149900000Y-117438072D01*
X150073254Y-117421008D01*
X150239850Y-117370472D01*
X150393386Y-117288405D01*
X150527962Y-117177962D01*
X150638405Y-117043386D01*
X150720472Y-116889850D01*
X150771008Y-116723254D01*
X150788072Y-116550000D01*
X150788072Y-115450000D01*
X150771008Y-115276746D01*
X150720472Y-115110150D01*
X150638405Y-114956614D01*
X150527962Y-114822038D01*
X150425649Y-114738072D01*
X153400000Y-114738072D01*
X153573254Y-114721008D01*
X153739850Y-114670472D01*
X153893386Y-114588405D01*
X154027962Y-114477962D01*
X154124770Y-114360000D01*
X155065199Y-114360000D01*
X156901777Y-116196579D01*
X156837899Y-116202870D01*
X156605100Y-116273489D01*
X156390552Y-116388167D01*
X156202499Y-116542498D01*
X156048168Y-116730551D01*
X155933490Y-116945099D01*
X155862871Y-117177898D01*
X155845001Y-117359335D01*
X155845000Y-120280664D01*
X155862870Y-120462101D01*
X155933489Y-120694900D01*
X156048167Y-120909448D01*
X156202498Y-121097502D01*
X156390551Y-121251833D01*
X156605099Y-121366511D01*
X156837898Y-121437130D01*
X157080000Y-121460975D01*
X157322101Y-121437130D01*
X157554900Y-121366511D01*
X157769448Y-121251833D01*
X157957502Y-121097502D01*
X158111833Y-120909449D01*
X158226511Y-120694901D01*
X158297130Y-120462102D01*
X158315000Y-120280665D01*
X158315000Y-117609802D01*
X158385001Y-117679803D01*
X158385000Y-120280664D01*
X158402870Y-120462101D01*
X158473489Y-120694900D01*
X158588167Y-120909448D01*
X158742498Y-121097502D01*
X158930551Y-121251833D01*
X159145099Y-121366511D01*
X159377898Y-121437130D01*
X159620000Y-121460975D01*
X159862101Y-121437130D01*
X160094900Y-121366511D01*
X160309448Y-121251833D01*
X160497502Y-121097502D01*
X160651833Y-120909449D01*
X160766511Y-120694901D01*
X160837130Y-120462102D01*
X160855000Y-120280665D01*
X160855000Y-117609802D01*
X160925001Y-117679803D01*
X160925000Y-120280664D01*
X160942870Y-120462101D01*
X161013489Y-120694900D01*
X161128167Y-120909448D01*
X161282498Y-121097502D01*
X161470551Y-121251833D01*
X161685099Y-121366511D01*
X161917898Y-121437130D01*
X162160000Y-121460975D01*
X162402101Y-121437130D01*
X162634900Y-121366511D01*
X162849448Y-121251833D01*
X163037502Y-121097502D01*
X163191833Y-120909449D01*
X163306511Y-120694901D01*
X163377130Y-120462102D01*
X163395000Y-120280665D01*
X163395000Y-120280664D01*
X163465000Y-120280664D01*
X163482870Y-120462101D01*
X163553489Y-120694900D01*
X163668167Y-120909448D01*
X163822498Y-121097502D01*
X164010551Y-121251833D01*
X164225099Y-121366511D01*
X164457898Y-121437130D01*
X164700000Y-121460975D01*
X164942101Y-121437130D01*
X165174900Y-121366511D01*
X165389448Y-121251833D01*
X165577502Y-121097502D01*
X165731833Y-120909449D01*
X165846511Y-120694901D01*
X165917130Y-120462102D01*
X165935000Y-120280665D01*
X165935000Y-120280664D01*
X166005000Y-120280664D01*
X166022870Y-120462101D01*
X166093489Y-120694900D01*
X166208167Y-120909448D01*
X166362498Y-121097502D01*
X166550551Y-121251833D01*
X166765099Y-121366511D01*
X166997898Y-121437130D01*
X167240000Y-121460975D01*
X167482101Y-121437130D01*
X167714900Y-121366511D01*
X167929448Y-121251833D01*
X168117502Y-121097502D01*
X168271833Y-120909449D01*
X168386511Y-120694901D01*
X168457130Y-120462102D01*
X168475000Y-120280665D01*
X168475000Y-120280664D01*
X168545000Y-120280664D01*
X168562870Y-120462101D01*
X168633489Y-120694900D01*
X168748167Y-120909448D01*
X168902498Y-121097502D01*
X169090551Y-121251833D01*
X169305099Y-121366511D01*
X169537898Y-121437130D01*
X169780000Y-121460975D01*
X170022101Y-121437130D01*
X170254900Y-121366511D01*
X170469448Y-121251833D01*
X170657502Y-121097502D01*
X170811833Y-120909449D01*
X170926511Y-120694901D01*
X170997130Y-120462102D01*
X171015000Y-120280665D01*
X171015000Y-120280664D01*
X171085000Y-120280664D01*
X171102870Y-120462101D01*
X171173489Y-120694900D01*
X171288167Y-120909448D01*
X171442498Y-121097502D01*
X171630551Y-121251833D01*
X171845099Y-121366511D01*
X172077898Y-121437130D01*
X172320000Y-121460975D01*
X172562101Y-121437130D01*
X172794900Y-121366511D01*
X173009448Y-121251833D01*
X173197502Y-121097502D01*
X173351833Y-120909449D01*
X173466511Y-120694901D01*
X173537130Y-120462102D01*
X173555000Y-120280665D01*
X173555000Y-117359335D01*
X173537130Y-117177898D01*
X173466511Y-116945099D01*
X173351833Y-116730551D01*
X173197502Y-116542498D01*
X173009449Y-116388167D01*
X172794901Y-116273489D01*
X172562102Y-116202870D01*
X172320000Y-116179025D01*
X172077899Y-116202870D01*
X171845100Y-116273489D01*
X171630552Y-116388167D01*
X171442499Y-116542498D01*
X171288168Y-116730551D01*
X171173490Y-116945099D01*
X171102871Y-117177898D01*
X171085001Y-117359335D01*
X171085000Y-120280664D01*
X171015000Y-120280664D01*
X171015000Y-117359335D01*
X170997130Y-117177898D01*
X170926511Y-116945099D01*
X170811833Y-116730551D01*
X170657502Y-116542498D01*
X170469449Y-116388167D01*
X170254901Y-116273489D01*
X170022102Y-116202870D01*
X169780000Y-116179025D01*
X169537899Y-116202870D01*
X169305100Y-116273489D01*
X169090552Y-116388167D01*
X168902499Y-116542498D01*
X168748168Y-116730551D01*
X168633490Y-116945099D01*
X168562871Y-117177898D01*
X168545001Y-117359335D01*
X168545000Y-120280664D01*
X168475000Y-120280664D01*
X168475000Y-117359335D01*
X168457130Y-117177898D01*
X168386511Y-116945099D01*
X168271833Y-116730551D01*
X168117502Y-116542498D01*
X167929449Y-116388167D01*
X167714901Y-116273489D01*
X167482102Y-116202870D01*
X167240000Y-116179025D01*
X166997899Y-116202870D01*
X166765100Y-116273489D01*
X166550552Y-116388167D01*
X166362499Y-116542498D01*
X166208168Y-116730551D01*
X166093490Y-116945099D01*
X166022871Y-117177898D01*
X166005001Y-117359335D01*
X166005000Y-120280664D01*
X165935000Y-120280664D01*
X165935000Y-117359335D01*
X165917130Y-117177898D01*
X165846511Y-116945099D01*
X165731833Y-116730551D01*
X165577502Y-116542498D01*
X165389449Y-116388167D01*
X165174901Y-116273489D01*
X164942102Y-116202870D01*
X164700000Y-116179025D01*
X164457899Y-116202870D01*
X164225100Y-116273489D01*
X164010552Y-116388167D01*
X163822499Y-116542498D01*
X163668168Y-116730551D01*
X163553490Y-116945099D01*
X163482871Y-117177898D01*
X163465001Y-117359335D01*
X163465000Y-120280664D01*
X163395000Y-120280664D01*
X163395000Y-117359335D01*
X163377130Y-117177898D01*
X163306511Y-116945099D01*
X163191833Y-116730551D01*
X163037502Y-116542498D01*
X162849449Y-116388167D01*
X162634901Y-116273489D01*
X162402102Y-116202870D01*
X162160000Y-116179025D01*
X161917899Y-116202870D01*
X161685100Y-116273489D01*
X161674146Y-116279344D01*
X156483804Y-111089003D01*
X156460001Y-111059999D01*
X156344276Y-110965026D01*
X156212247Y-110894454D01*
X156068986Y-110850997D01*
X155957333Y-110840000D01*
X155957322Y-110840000D01*
X155920000Y-110836324D01*
X155882678Y-110840000D01*
X154124770Y-110840000D01*
X154027962Y-110722038D01*
X153893386Y-110611595D01*
X153871693Y-110600000D01*
X153893386Y-110588405D01*
X154027962Y-110477962D01*
X154124770Y-110360000D01*
X162162678Y-110360000D01*
X162200000Y-110363676D01*
X162237322Y-110360000D01*
X162237333Y-110360000D01*
X162348986Y-110349003D01*
X162492247Y-110305546D01*
X162624276Y-110234974D01*
X162740001Y-110140001D01*
X162763804Y-110110997D01*
X166754146Y-106120656D01*
X166765099Y-106126511D01*
X166997898Y-106197130D01*
X167240000Y-106220975D01*
X167482101Y-106197130D01*
X167714900Y-106126511D01*
X167929448Y-106011833D01*
X168117502Y-105857502D01*
X168271833Y-105669449D01*
X168386511Y-105454901D01*
X168457130Y-105222102D01*
X168475000Y-105040665D01*
X168475000Y-102119335D01*
X168457130Y-101937898D01*
X168386511Y-101705099D01*
X168271833Y-101490551D01*
X168117502Y-101302498D01*
X167929449Y-101148167D01*
X167714901Y-101033489D01*
X167482102Y-100962870D01*
X167240000Y-100939025D01*
X166997899Y-100962870D01*
X166765100Y-101033489D01*
X166550552Y-101148167D01*
X166362499Y-101302498D01*
X166208168Y-101490551D01*
X166093490Y-101705099D01*
X166022871Y-101937898D01*
X166005001Y-102119335D01*
X166005000Y-104720198D01*
X165935000Y-104790198D01*
X165935000Y-102119335D01*
X165917130Y-101937898D01*
X165846511Y-101705099D01*
X165731833Y-101490551D01*
X165577502Y-101302498D01*
X165389449Y-101148167D01*
X165174901Y-101033489D01*
X164942102Y-100962870D01*
X164700000Y-100939025D01*
X164457899Y-100962870D01*
X164225100Y-101033489D01*
X164010552Y-101148167D01*
X163822499Y-101302498D01*
X163668168Y-101490551D01*
X163553490Y-101705099D01*
X163482871Y-101937898D01*
X163465001Y-102119335D01*
X163465000Y-105040664D01*
X163482870Y-105222101D01*
X163553489Y-105454900D01*
X163668167Y-105669448D01*
X163822498Y-105857502D01*
X164010551Y-106011833D01*
X164225099Y-106126511D01*
X164457898Y-106197130D01*
X164521777Y-106203422D01*
X161885199Y-108840000D01*
X154124770Y-108840000D01*
X154027962Y-108722038D01*
X153893386Y-108611595D01*
X153871693Y-108600000D01*
X153893386Y-108588405D01*
X154027962Y-108477962D01*
X154138405Y-108343386D01*
X154220472Y-108189850D01*
X154271008Y-108023254D01*
X154288072Y-107850000D01*
X154288072Y-107350000D01*
X154271008Y-107176746D01*
X154220472Y-107010150D01*
X154138405Y-106856614D01*
X154027962Y-106722038D01*
X153893386Y-106611595D01*
X153739850Y-106529528D01*
X153573254Y-106478992D01*
X153400000Y-106461928D01*
X151660000Y-106461928D01*
X151660000Y-105040664D01*
X155845000Y-105040664D01*
X155862870Y-105222101D01*
X155933489Y-105454900D01*
X156048167Y-105669448D01*
X156202498Y-105857502D01*
X156390551Y-106011833D01*
X156605099Y-106126511D01*
X156837898Y-106197130D01*
X157080000Y-106220975D01*
X157322101Y-106197130D01*
X157554900Y-106126511D01*
X157769448Y-106011833D01*
X157957502Y-105857502D01*
X158111833Y-105669449D01*
X158226511Y-105454901D01*
X158297130Y-105222102D01*
X158315000Y-105040665D01*
X158315000Y-105040664D01*
X158385000Y-105040664D01*
X158402870Y-105222101D01*
X158473489Y-105454900D01*
X158588167Y-105669448D01*
X158742498Y-105857502D01*
X158930551Y-106011833D01*
X159145099Y-106126511D01*
X159377898Y-106197130D01*
X159620000Y-106220975D01*
X159862101Y-106197130D01*
X160094900Y-106126511D01*
X160309448Y-106011833D01*
X160497502Y-105857502D01*
X160651833Y-105669449D01*
X160766511Y-105454901D01*
X160837130Y-105222102D01*
X160855000Y-105040665D01*
X160855000Y-105040664D01*
X160925000Y-105040664D01*
X160942870Y-105222101D01*
X161013489Y-105454900D01*
X161128167Y-105669448D01*
X161282498Y-105857502D01*
X161470551Y-106011833D01*
X161685099Y-106126511D01*
X161917898Y-106197130D01*
X162160000Y-106220975D01*
X162402101Y-106197130D01*
X162634900Y-106126511D01*
X162849448Y-106011833D01*
X163037502Y-105857502D01*
X163191833Y-105669449D01*
X163306511Y-105454901D01*
X163377130Y-105222102D01*
X163395000Y-105040665D01*
X163395000Y-102119335D01*
X163377130Y-101937898D01*
X163306511Y-101705099D01*
X163191833Y-101490551D01*
X163037502Y-101302498D01*
X162849449Y-101148167D01*
X162634901Y-101033489D01*
X162402102Y-100962870D01*
X162160000Y-100939025D01*
X161917899Y-100962870D01*
X161685100Y-101033489D01*
X161470552Y-101148167D01*
X161282499Y-101302498D01*
X161128168Y-101490551D01*
X161013490Y-101705099D01*
X160942871Y-101937898D01*
X160925001Y-102119335D01*
X160925000Y-105040664D01*
X160855000Y-105040664D01*
X160855000Y-102119335D01*
X160837130Y-101937898D01*
X160766511Y-101705099D01*
X160651833Y-101490551D01*
X160497502Y-101302498D01*
X160309449Y-101148167D01*
X160094901Y-101033489D01*
X159862102Y-100962870D01*
X159620000Y-100939025D01*
X159377899Y-100962870D01*
X159145100Y-101033489D01*
X158930552Y-101148167D01*
X158742499Y-101302498D01*
X158588168Y-101490551D01*
X158473490Y-101705099D01*
X158402871Y-101937898D01*
X158385001Y-102119335D01*
X158385000Y-105040664D01*
X158315000Y-105040664D01*
X158315000Y-102119335D01*
X158297130Y-101937898D01*
X158226511Y-101705099D01*
X158111833Y-101490551D01*
X157957502Y-101302498D01*
X157769449Y-101148167D01*
X157554901Y-101033489D01*
X157322102Y-100962870D01*
X157080000Y-100939025D01*
X156837899Y-100962870D01*
X156605100Y-101033489D01*
X156390552Y-101148167D01*
X156202499Y-101302498D01*
X156048168Y-101490551D01*
X155933490Y-101705099D01*
X155862871Y-101937898D01*
X155845001Y-102119335D01*
X155845000Y-105040664D01*
X151660000Y-105040664D01*
X151660000Y-102314801D01*
X154614802Y-99360000D01*
X168005199Y-99360000D01*
X169020001Y-100374803D01*
X169020000Y-101206067D01*
X168902499Y-101302498D01*
X168748168Y-101490551D01*
X168633490Y-101705099D01*
X168562871Y-101937898D01*
X168545001Y-102119335D01*
X168545000Y-105040664D01*
X168562870Y-105222101D01*
X168633489Y-105454900D01*
X168748167Y-105669448D01*
X168902498Y-105857502D01*
X169090551Y-106011833D01*
X169305099Y-106126511D01*
X169537898Y-106197130D01*
X169780000Y-106220975D01*
X170022101Y-106197130D01*
X170254900Y-106126511D01*
X170469448Y-106011833D01*
X170657502Y-105857502D01*
X170811833Y-105669449D01*
X170926511Y-105454901D01*
X170997130Y-105222102D01*
X171015000Y-105040665D01*
X171015000Y-105040664D01*
X171085000Y-105040664D01*
X171102870Y-105222101D01*
X171173489Y-105454900D01*
X171288167Y-105669448D01*
X171442498Y-105857502D01*
X171630551Y-106011833D01*
X171845099Y-106126511D01*
X172077898Y-106197130D01*
X172320000Y-106220975D01*
X172562101Y-106197130D01*
X172794900Y-106126511D01*
X173009448Y-106011833D01*
X173197502Y-105857502D01*
X173351833Y-105669449D01*
X173466511Y-105454901D01*
X173537130Y-105222102D01*
X173555000Y-105040665D01*
X173555000Y-103934227D01*
X173625546Y-103802247D01*
X173669003Y-103658986D01*
X173680000Y-103547333D01*
X173680000Y-102072667D01*
X173669003Y-101961014D01*
X173625546Y-101817753D01*
X173554974Y-101685724D01*
X173460001Y-101569999D01*
X173344275Y-101475026D01*
X173335042Y-101470091D01*
X173197502Y-101302498D01*
X173009449Y-101148167D01*
X172794901Y-101033489D01*
X172562102Y-100962870D01*
X172320000Y-100939025D01*
X172077899Y-100962870D01*
X171845100Y-101033489D01*
X171630552Y-101148167D01*
X171442499Y-101302498D01*
X171288168Y-101490551D01*
X171173490Y-101705099D01*
X171102871Y-101937898D01*
X171085001Y-102119335D01*
X171085000Y-105040664D01*
X171015000Y-105040664D01*
X171015000Y-102119335D01*
X170997130Y-101937898D01*
X170926511Y-101705099D01*
X170811833Y-101490551D01*
X170657502Y-101302498D01*
X170540000Y-101206067D01*
X170540000Y-100097323D01*
X170543676Y-100060000D01*
X170540000Y-100022677D01*
X170540000Y-100022667D01*
X170529003Y-99911014D01*
X170485546Y-99767753D01*
X170414974Y-99635724D01*
X170320001Y-99519999D01*
X170291003Y-99496201D01*
X168883804Y-98089003D01*
X168860001Y-98059999D01*
X168744276Y-97965026D01*
X168612247Y-97894454D01*
X168468986Y-97850997D01*
X168357333Y-97840000D01*
X168357322Y-97840000D01*
X168320000Y-97836324D01*
X168282678Y-97840000D01*
X154337322Y-97840000D01*
X154299999Y-97836324D01*
X154262676Y-97840000D01*
X154262667Y-97840000D01*
X154151014Y-97850997D01*
X154032956Y-97886809D01*
X154007753Y-97894454D01*
X153875723Y-97965026D01*
X153817066Y-98013165D01*
X153759999Y-98059999D01*
X153736201Y-98088997D01*
X150389003Y-101436196D01*
X150359999Y-101459999D01*
X150334926Y-101490551D01*
X150265026Y-101575724D01*
X150248515Y-101606614D01*
X150194454Y-101707754D01*
X150150997Y-101851015D01*
X150140000Y-101962668D01*
X150140000Y-101962678D01*
X150136324Y-102000000D01*
X150140000Y-102037323D01*
X150140000Y-103799239D01*
X150073254Y-103778992D01*
X149900000Y-103761928D01*
X147400000Y-103761928D01*
X147226746Y-103778992D01*
X147060150Y-103829528D01*
X146906614Y-103911595D01*
X146772038Y-104022038D01*
X146661595Y-104156614D01*
X146579528Y-104310150D01*
X146528992Y-104476746D01*
X146511928Y-104650000D01*
X146511928Y-105750000D01*
X146528992Y-105923254D01*
X146579528Y-106089850D01*
X146661595Y-106243386D01*
X146772038Y-106377962D01*
X146906614Y-106488405D01*
X147060150Y-106570472D01*
X147226746Y-106621008D01*
X147400000Y-106638072D01*
X147874351Y-106638072D01*
X147772038Y-106722038D01*
X147675230Y-106840000D01*
X133760000Y-106840000D01*
X133760000Y-105037325D01*
X133763676Y-105000000D01*
X133760000Y-104962675D01*
X133760000Y-104962667D01*
X133749003Y-104851014D01*
X133705546Y-104707753D01*
X133634974Y-104575724D01*
X133540001Y-104459999D01*
X133511004Y-104436202D01*
X131663804Y-102589003D01*
X131640001Y-102559999D01*
X131524276Y-102465026D01*
X131392247Y-102394454D01*
X131248986Y-102350997D01*
X131137333Y-102340000D01*
X131137322Y-102340000D01*
X131100000Y-102336324D01*
X131062678Y-102340000D01*
X130621032Y-102340000D01*
X130578084Y-102198418D01*
X130540039Y-102127242D01*
X130649999Y-102138072D01*
X131350001Y-102138072D01*
X131523255Y-102121008D01*
X131689851Y-102070472D01*
X131843387Y-101988405D01*
X131977962Y-101877962D01*
X132088405Y-101743387D01*
X132170472Y-101589851D01*
X132221008Y-101423255D01*
X132238072Y-101250001D01*
X132238072Y-99949999D01*
X132221008Y-99776745D01*
X132170472Y-99610149D01*
X132088405Y-99456613D01*
X131977962Y-99322038D01*
X131843387Y-99211595D01*
X131746860Y-99160000D01*
X135485199Y-99160000D01*
X137361928Y-101036730D01*
X137361928Y-101574351D01*
X137277962Y-101472038D01*
X137143386Y-101361595D01*
X136989850Y-101279528D01*
X136823254Y-101228992D01*
X136650000Y-101211928D01*
X135550000Y-101211928D01*
X135376746Y-101228992D01*
X135210150Y-101279528D01*
X135056614Y-101361595D01*
X134922038Y-101472038D01*
X134811595Y-101606614D01*
X134729528Y-101760150D01*
X134678992Y-101926746D01*
X134661928Y-102100000D01*
X134661928Y-104600000D01*
X134678992Y-104773254D01*
X134729528Y-104939850D01*
X134811595Y-105093386D01*
X134922038Y-105227962D01*
X135056614Y-105338405D01*
X135210150Y-105420472D01*
X135376746Y-105471008D01*
X135550000Y-105488072D01*
X136650000Y-105488072D01*
X136823254Y-105471008D01*
X136989850Y-105420472D01*
X137143386Y-105338405D01*
X137277962Y-105227962D01*
X137388405Y-105093386D01*
X137470472Y-104939850D01*
X137521008Y-104773254D01*
X137538072Y-104600000D01*
X137538072Y-104125649D01*
X137622038Y-104227962D01*
X137756614Y-104338405D01*
X137910150Y-104420472D01*
X138076746Y-104471008D01*
X138250000Y-104488072D01*
X138750000Y-104488072D01*
X138923254Y-104471008D01*
X139089850Y-104420472D01*
X139243386Y-104338405D01*
X139377962Y-104227962D01*
X139440969Y-104151187D01*
X139469463Y-104204494D01*
X139548815Y-104301185D01*
X139645506Y-104380537D01*
X139755820Y-104439502D01*
X139875518Y-104475812D01*
X140000000Y-104488072D01*
X140214250Y-104485000D01*
X140373000Y-104326250D01*
X140373000Y-101227000D01*
X140627000Y-101227000D01*
X140627000Y-104326250D01*
X140785750Y-104485000D01*
X141000000Y-104488072D01*
X141124482Y-104475812D01*
X141244180Y-104439502D01*
X141354494Y-104380537D01*
X141451185Y-104301185D01*
X141461928Y-104288095D01*
X141461928Y-104600000D01*
X141478992Y-104773254D01*
X141529528Y-104939850D01*
X141611595Y-105093386D01*
X141722038Y-105227962D01*
X141856614Y-105338405D01*
X142010150Y-105420472D01*
X142176746Y-105471008D01*
X142350000Y-105488072D01*
X143450000Y-105488072D01*
X143623254Y-105471008D01*
X143789850Y-105420472D01*
X143943386Y-105338405D01*
X144077962Y-105227962D01*
X144188405Y-105093386D01*
X144270472Y-104939850D01*
X144321008Y-104773254D01*
X144338072Y-104600000D01*
X144338072Y-102100000D01*
X144321008Y-101926746D01*
X144270472Y-101760150D01*
X144188405Y-101606614D01*
X144077962Y-101472038D01*
X143943386Y-101361595D01*
X143789850Y-101279528D01*
X143623254Y-101228992D01*
X143450000Y-101211928D01*
X142350000Y-101211928D01*
X142176746Y-101228992D01*
X142010150Y-101279528D01*
X141856614Y-101361595D01*
X141722038Y-101472038D01*
X141635239Y-101577803D01*
X141635000Y-101385750D01*
X141476250Y-101227000D01*
X140627000Y-101227000D01*
X140373000Y-101227000D01*
X140353000Y-101227000D01*
X140353000Y-100973000D01*
X140373000Y-100973000D01*
X140373000Y-97873750D01*
X140627000Y-97873750D01*
X140627000Y-100973000D01*
X141476250Y-100973000D01*
X141635000Y-100814250D01*
X141638072Y-98350000D01*
X141625812Y-98225518D01*
X141589502Y-98105820D01*
X141530537Y-97995506D01*
X141451185Y-97898815D01*
X141354494Y-97819463D01*
X141244180Y-97760498D01*
X141124482Y-97724188D01*
X141000000Y-97711928D01*
X140785750Y-97715000D01*
X140627000Y-97873750D01*
X140373000Y-97873750D01*
X140214250Y-97715000D01*
X140000000Y-97711928D01*
X139875518Y-97724188D01*
X139755820Y-97760498D01*
X139645506Y-97819463D01*
X139548815Y-97898815D01*
X139469463Y-97995506D01*
X139440969Y-98048813D01*
X139377962Y-97972038D01*
X139243386Y-97861595D01*
X139089850Y-97779528D01*
X138923254Y-97728992D01*
X138750000Y-97711928D01*
X138250000Y-97711928D01*
X138076746Y-97728992D01*
X137910150Y-97779528D01*
X137756614Y-97861595D01*
X137622038Y-97972038D01*
X137511595Y-98106614D01*
X137429528Y-98260150D01*
X137378992Y-98426746D01*
X137361928Y-98600000D01*
X137361928Y-98887127D01*
X136363804Y-97889003D01*
X136340001Y-97859999D01*
X136224276Y-97765026D01*
X136092247Y-97694454D01*
X135948986Y-97650997D01*
X135837333Y-97640000D01*
X135837322Y-97640000D01*
X135800000Y-97636324D01*
X135762678Y-97640000D01*
X124437323Y-97640000D01*
X124400000Y-97636324D01*
X124362677Y-97640000D01*
X124362667Y-97640000D01*
X124251014Y-97650997D01*
X124107753Y-97694454D01*
X123975723Y-97765026D01*
X123909392Y-97819463D01*
X123859999Y-97859999D01*
X123836201Y-97888997D01*
X122643998Y-99081201D01*
X122615000Y-99104999D01*
X122591202Y-99133997D01*
X122591201Y-99133998D01*
X122520026Y-99220724D01*
X122449454Y-99352754D01*
X122405998Y-99496015D01*
X122391324Y-99645000D01*
X122395001Y-99682332D01*
X122395000Y-107941956D01*
X122240241Y-108045363D01*
X122040363Y-108245241D01*
X121883320Y-108480273D01*
X121775147Y-108741426D01*
X121769487Y-108769882D01*
X121688603Y-108543708D01*
X121621671Y-108418486D01*
X121377702Y-108346903D01*
X120564605Y-109160000D01*
X120205395Y-109160000D01*
X119392298Y-108346903D01*
X119148329Y-108418486D01*
X119027429Y-108673996D01*
X118958700Y-108948184D01*
X118944783Y-109230512D01*
X114308930Y-109230512D01*
X114254258Y-109128228D01*
X113887499Y-108912106D01*
X112219605Y-110580000D01*
X111860395Y-110580000D01*
X110192501Y-108912106D01*
X109825742Y-109128228D01*
X109585062Y-109588105D01*
X109438725Y-110086098D01*
X109392352Y-110603071D01*
X96725000Y-110603071D01*
X96725000Y-108732501D01*
X110372106Y-108732501D01*
X112040000Y-110400395D01*
X113707894Y-108732501D01*
X113491772Y-108365742D01*
X113112598Y-108167298D01*
X119571903Y-108167298D01*
X120385000Y-108980395D01*
X121198097Y-108167298D01*
X121126514Y-107923329D01*
X120871004Y-107802429D01*
X120596816Y-107733700D01*
X120314488Y-107719783D01*
X120034870Y-107761213D01*
X119768708Y-107856397D01*
X119643486Y-107923329D01*
X119571903Y-108167298D01*
X113112598Y-108167298D01*
X113031895Y-108125062D01*
X112533902Y-107978725D01*
X112016929Y-107932352D01*
X111500841Y-107987727D01*
X111005474Y-108142721D01*
X110588228Y-108365742D01*
X110372106Y-108732501D01*
X96725000Y-108732501D01*
X96725000Y-100032278D01*
X96790476Y-99364498D01*
X96975039Y-98753198D01*
X97263862Y-98210000D01*
X104622143Y-98210000D01*
X104622143Y-102030000D01*
X119977857Y-102030000D01*
X119977857Y-98210000D01*
X104622143Y-98210000D01*
X97263862Y-98210000D01*
X97274817Y-98189397D01*
X97678399Y-97694555D01*
X98170412Y-97287526D01*
X98732112Y-96983816D01*
X99342104Y-96794992D01*
X100008036Y-96725000D01*
X195097722Y-96725000D01*
X195765502Y-96790476D01*
G37*
X195765502Y-96790476D02*
X196376802Y-96975039D01*
X196940603Y-97274817D01*
X197435445Y-97678399D01*
X197842474Y-98170412D01*
X198146184Y-98732112D01*
X198335008Y-99342104D01*
X198405000Y-100008036D01*
X198405001Y-122597712D01*
X198339524Y-123265501D01*
X198154962Y-123876800D01*
X197855183Y-124440603D01*
X197451598Y-124935447D01*
X196959587Y-125342474D01*
X196397888Y-125646184D01*
X195787896Y-125835008D01*
X195121964Y-125905000D01*
X100032278Y-125905000D01*
X99364499Y-125839524D01*
X98753200Y-125654962D01*
X98189397Y-125355183D01*
X97694553Y-124951598D01*
X97287526Y-124459587D01*
X96983816Y-123897888D01*
X96794992Y-123287896D01*
X96725000Y-122621964D01*
X96725000Y-112427499D01*
X110372106Y-112427499D01*
X110588228Y-112794258D01*
X111048105Y-113034938D01*
X111546098Y-113181275D01*
X112063071Y-113227648D01*
X112579159Y-113172273D01*
X113074526Y-113017279D01*
X113491772Y-112794258D01*
X113707894Y-112427499D01*
X112040000Y-110759605D01*
X110372106Y-112427499D01*
X96725000Y-112427499D01*
X96725000Y-110603071D01*
X109392352Y-110603071D01*
X109447727Y-111119159D01*
X109602721Y-111614526D01*
X109825742Y-112031772D01*
X110192501Y-112247894D01*
X111860395Y-110580000D01*
X112219605Y-110580000D01*
X113887499Y-112247894D01*
X114254258Y-112031772D01*
X114494938Y-111571895D01*
X114604220Y-111200000D01*
X117561928Y-111200000D01*
X117561928Y-112800000D01*
X117574188Y-112924482D01*
X117610498Y-113044180D01*
X117669463Y-113154494D01*
X117748815Y-113251185D01*
X117845506Y-113330537D01*
X117955820Y-113389502D01*
X118075518Y-113425812D01*
X118200000Y-113438072D01*
X118345674Y-113438072D01*
X118365026Y-113474276D01*
X118404871Y-113522826D01*
X118459999Y-113590001D01*
X118489003Y-113613804D01*
X127186201Y-122311003D01*
X127209999Y-122340001D01*
X127325724Y-122434974D01*
X127457753Y-122505546D01*
X127601014Y-122549003D01*
X127712667Y-122560000D01*
X127712675Y-122560000D01*
X127750000Y-122563676D01*
X127787325Y-122560000D01*
X137061928Y-122560000D01*
X137061928Y-124300000D01*
X137078992Y-124473254D01*
X137129528Y-124639850D01*
X137211595Y-124793386D01*
X137322038Y-124927962D01*
X137456614Y-125038405D01*
X137610150Y-125120472D01*
X137776746Y-125171008D01*
X137950000Y-125188072D01*
X138450000Y-125188072D01*
X138623254Y-125171008D01*
X138789850Y-125120472D01*
X138943386Y-125038405D01*
X139077962Y-124927962D01*
X139140969Y-124851187D01*
X139169463Y-124904494D01*
X139248815Y-125001185D01*
X139345506Y-125080537D01*
X139455820Y-125139502D01*
X139575518Y-125175812D01*
X139700000Y-125188072D01*
X139914250Y-125185000D01*
X140073000Y-125026250D01*
X140073000Y-121927000D01*
X140327000Y-121927000D01*
X140327000Y-125026250D01*
X140485750Y-125185000D01*
X140700000Y-125188072D01*
X140824482Y-125175812D01*
X140944180Y-125139502D01*
X141054494Y-125080537D01*
X141151185Y-125001185D01*
X141230537Y-124904494D01*
X141289502Y-124794180D01*
X141325812Y-124674482D01*
X141338072Y-124550000D01*
X141335000Y-122085750D01*
X141176250Y-121927000D01*
X140327000Y-121927000D01*
X140073000Y-121927000D01*
X140053000Y-121927000D01*
X140053000Y-121673000D01*
X140073000Y-121673000D01*
X140073000Y-118573750D01*
X140327000Y-118573750D01*
X140327000Y-121673000D01*
X141176250Y-121673000D01*
X141335000Y-121514250D01*
X141335239Y-121322197D01*
X141422038Y-121427962D01*
X141556614Y-121538405D01*
X141710150Y-121620472D01*
X141876746Y-121671008D01*
X142050000Y-121688072D01*
X143150000Y-121688072D01*
X143323254Y-121671008D01*
X143489850Y-121620472D01*
X143643386Y-121538405D01*
X143777962Y-121427962D01*
X143888405Y-121293386D01*
X143970472Y-121139850D01*
X144021008Y-120973254D01*
X144038072Y-120800000D01*
X144038072Y-118300000D01*
X144021008Y-118126746D01*
X143970472Y-117960150D01*
X143888405Y-117806614D01*
X143777962Y-117672038D01*
X143643386Y-117561595D01*
X143489850Y-117479528D01*
X143323254Y-117428992D01*
X143150000Y-117411928D01*
X142050000Y-117411928D01*
X141876746Y-117428992D01*
X141710150Y-117479528D01*
X141556614Y-117561595D01*
X141422038Y-117672038D01*
X141311595Y-117806614D01*
X141229528Y-117960150D01*
X141178992Y-118126746D01*
X141161928Y-118300000D01*
X141161928Y-118611905D01*
X141151185Y-118598815D01*
X141054494Y-118519463D01*
X140944180Y-118460498D01*
X140824482Y-118424188D01*
X140700000Y-118411928D01*
X140485750Y-118415000D01*
X140327000Y-118573750D01*
X140073000Y-118573750D01*
X139914250Y-118415000D01*
X139700000Y-118411928D01*
X139575518Y-118424188D01*
X139455820Y-118460498D01*
X139345506Y-118519463D01*
X139248815Y-118598815D01*
X139169463Y-118695506D01*
X139140969Y-118748813D01*
X139077962Y-118672038D01*
X138943386Y-118561595D01*
X138789850Y-118479528D01*
X138623254Y-118428992D01*
X138450000Y-118411928D01*
X137950000Y-118411928D01*
X137776746Y-118428992D01*
X137610150Y-118479528D01*
X137456614Y-118561595D01*
X137322038Y-118672038D01*
X137238072Y-118774351D01*
X137238072Y-118300000D01*
X137221008Y-118126746D01*
X137170472Y-117960150D01*
X137088405Y-117806614D01*
X136977962Y-117672038D01*
X136843386Y-117561595D01*
X136689850Y-117479528D01*
X136523254Y-117428992D01*
X136350000Y-117411928D01*
X135250000Y-117411928D01*
X135076746Y-117428992D01*
X134910150Y-117479528D01*
X134756614Y-117561595D01*
X134622038Y-117672038D01*
X134511595Y-117806614D01*
X134429528Y-117960150D01*
X134378992Y-118126746D01*
X134361928Y-118300000D01*
X134361928Y-120800000D01*
X134378992Y-120973254D01*
X134399239Y-121040000D01*
X128064802Y-121040000D01*
X120262364Y-113237563D01*
X120330537Y-113154494D01*
X120389502Y-113044180D01*
X120405117Y-112992702D01*
X120956903Y-112992702D01*
X121028486Y-113236671D01*
X121283996Y-113357571D01*
X121558184Y-113426300D01*
X121840512Y-113440217D01*
X122120130Y-113398787D01*
X122386292Y-113303603D01*
X122511514Y-113236671D01*
X122583097Y-112992702D01*
X123726903Y-112992702D01*
X123798486Y-113236671D01*
X124053996Y-113357571D01*
X124328184Y-113426300D01*
X124610512Y-113440217D01*
X124890130Y-113398787D01*
X125156292Y-113303603D01*
X125281514Y-113236671D01*
X125353097Y-112992702D01*
X124540000Y-112179605D01*
X123726903Y-112992702D01*
X122583097Y-112992702D01*
X121770000Y-112179605D01*
X120956903Y-112992702D01*
X120405117Y-112992702D01*
X120425812Y-112924482D01*
X120438072Y-112800000D01*
X120438072Y-112537087D01*
X120466397Y-112616292D01*
X120533329Y-112741514D01*
X120777298Y-112813097D01*
X121590395Y-112000000D01*
X121949605Y-112000000D01*
X122762702Y-112813097D01*
X123006671Y-112741514D01*
X123127571Y-112486004D01*
X123153216Y-112383695D01*
X123236397Y-112616292D01*
X123303329Y-112741514D01*
X123547298Y-112813097D01*
X124360395Y-112000000D01*
X123547298Y-111186903D01*
X123303329Y-111258486D01*
X123182429Y-111513996D01*
X123156784Y-111616305D01*
X123073603Y-111383708D01*
X123006671Y-111258486D01*
X122762702Y-111186903D01*
X121949605Y-112000000D01*
X121590395Y-112000000D01*
X120777298Y-111186903D01*
X120533329Y-111258486D01*
X120438072Y-111459802D01*
X120438072Y-111200000D01*
X120425812Y-111075518D01*
X120405118Y-111007298D01*
X120956903Y-111007298D01*
X121770000Y-111820395D01*
X122583097Y-111007298D01*
X122511514Y-110763329D01*
X122256004Y-110642429D01*
X121981816Y-110573700D01*
X121699488Y-110559783D01*
X121419870Y-110601213D01*
X121153708Y-110696397D01*
X121028486Y-110763329D01*
X120956903Y-111007298D01*
X120405118Y-111007298D01*
X120389502Y-110955820D01*
X120330537Y-110845506D01*
X120251185Y-110748815D01*
X120154494Y-110669463D01*
X120044180Y-110610498D01*
X119924482Y-110574188D01*
X119800000Y-110561928D01*
X118200000Y-110561928D01*
X118075518Y-110574188D01*
X117955820Y-110610498D01*
X117845506Y-110669463D01*
X117748815Y-110748815D01*
X117669463Y-110845506D01*
X117610498Y-110955820D01*
X117574188Y-111075518D01*
X117561928Y-111200000D01*
X114604220Y-111200000D01*
X114641275Y-111073902D01*
X114687648Y-110556929D01*
X114644276Y-110152702D01*
X119571903Y-110152702D01*
X119643486Y-110396671D01*
X119898996Y-110517571D01*
X120173184Y-110586300D01*
X120455512Y-110600217D01*
X120735130Y-110558787D01*
X121001292Y-110463603D01*
X121126514Y-110396671D01*
X121198097Y-110152702D01*
X120385000Y-109339605D01*
X119571903Y-110152702D01*
X114644276Y-110152702D01*
X114632273Y-110040841D01*
X114477279Y-109545474D01*
X114308930Y-109230512D01*
X118944783Y-109230512D01*
X118986213Y-109510130D01*
X119081397Y-109776292D01*
X119148329Y-109901514D01*
X119392298Y-109973097D01*
X120205395Y-109160000D01*
X120564605Y-109160000D01*
X121377702Y-109973097D01*
X121621671Y-109901514D01*
X121742571Y-109646004D01*
X121768212Y-109543711D01*
X121775147Y-109578574D01*
X121883320Y-109839727D01*
X122040363Y-110074759D01*
X122240241Y-110274637D01*
X122475273Y-110431680D01*
X122736426Y-110539853D01*
X123013665Y-110595000D01*
X123296335Y-110595000D01*
X123573574Y-110539853D01*
X123834727Y-110431680D01*
X124069759Y-110274637D01*
X124269637Y-110074759D01*
X124426680Y-109839727D01*
X124534853Y-109578574D01*
X124540000Y-109552699D01*
X124545147Y-109578574D01*
X124653320Y-109839727D01*
X124810363Y-110074759D01*
X125010241Y-110274637D01*
X125165000Y-110378044D01*
X125165000Y-110708198D01*
X125026004Y-110642429D01*
X124751816Y-110573700D01*
X124469488Y-110559783D01*
X124189870Y-110601213D01*
X123923708Y-110696397D01*
X123798486Y-110763329D01*
X123726903Y-111007298D01*
X124540000Y-111820395D01*
X124554143Y-111806253D01*
X124733748Y-111985858D01*
X124719605Y-112000000D01*
X125187931Y-112468326D01*
X125219454Y-112572248D01*
X125290026Y-112704278D01*
X125361201Y-112791004D01*
X125385000Y-112820003D01*
X125413998Y-112843801D01*
X127981199Y-115411003D01*
X128004997Y-115440001D01*
X128120722Y-115534974D01*
X128252751Y-115605546D01*
X128396012Y-115649003D01*
X128507665Y-115660000D01*
X128507673Y-115660000D01*
X128544998Y-115663676D01*
X128582323Y-115660000D01*
X138042181Y-115660000D01*
X138053577Y-115697567D01*
X138134488Y-115848942D01*
X138243377Y-115981623D01*
X138376058Y-116090512D01*
X138527433Y-116171423D01*
X138691684Y-116221248D01*
X138862500Y-116238072D01*
X139337500Y-116238072D01*
X139508316Y-116221248D01*
X139672567Y-116171423D01*
X139823942Y-116090512D01*
X139956623Y-115981623D01*
X140065512Y-115848942D01*
X140146423Y-115697567D01*
X140157819Y-115660000D01*
X143562678Y-115660000D01*
X143600000Y-115663676D01*
X143637322Y-115660000D01*
X143637333Y-115660000D01*
X143748986Y-115649003D01*
X143892247Y-115605546D01*
X144024276Y-115534974D01*
X144140001Y-115440001D01*
X144163804Y-115410997D01*
X145214802Y-114360000D01*
X147675230Y-114360000D01*
X147772038Y-114477962D01*
X147874351Y-114561928D01*
X147400000Y-114561928D01*
X147226746Y-114578992D01*
X147060150Y-114629528D01*
X146906614Y-114711595D01*
X146772038Y-114822038D01*
X146661595Y-114956614D01*
X146579528Y-115110150D01*
X146528992Y-115276746D01*
X146511928Y-115450000D01*
X146511928Y-116550000D01*
X146528992Y-116723254D01*
X146579528Y-116889850D01*
X146661595Y-117043386D01*
X146772038Y-117177962D01*
X146906614Y-117288405D01*
X147060150Y-117370472D01*
X147226746Y-117421008D01*
X147400000Y-117438072D01*
X149900000Y-117438072D01*
X150073254Y-117421008D01*
X150239850Y-117370472D01*
X150393386Y-117288405D01*
X150527962Y-117177962D01*
X150638405Y-117043386D01*
X150720472Y-116889850D01*
X150771008Y-116723254D01*
X150788072Y-116550000D01*
X150788072Y-115450000D01*
X150771008Y-115276746D01*
X150720472Y-115110150D01*
X150638405Y-114956614D01*
X150527962Y-114822038D01*
X150425649Y-114738072D01*
X153400000Y-114738072D01*
X153573254Y-114721008D01*
X153739850Y-114670472D01*
X153893386Y-114588405D01*
X154027962Y-114477962D01*
X154124770Y-114360000D01*
X155065199Y-114360000D01*
X156901777Y-116196579D01*
X156837899Y-116202870D01*
X156605100Y-116273489D01*
X156390552Y-116388167D01*
X156202499Y-116542498D01*
X156048168Y-116730551D01*
X155933490Y-116945099D01*
X155862871Y-117177898D01*
X155845001Y-117359335D01*
X155845000Y-120280664D01*
X155862870Y-120462101D01*
X155933489Y-120694900D01*
X156048167Y-120909448D01*
X156202498Y-121097502D01*
X156390551Y-121251833D01*
X156605099Y-121366511D01*
X156837898Y-121437130D01*
X157080000Y-121460975D01*
X157322101Y-121437130D01*
X157554900Y-121366511D01*
X157769448Y-121251833D01*
X157957502Y-121097502D01*
X158111833Y-120909449D01*
X158226511Y-120694901D01*
X158297130Y-120462102D01*
X158315000Y-120280665D01*
X158315000Y-117609802D01*
X158385001Y-117679803D01*
X158385000Y-120280664D01*
X158402870Y-120462101D01*
X158473489Y-120694900D01*
X158588167Y-120909448D01*
X158742498Y-121097502D01*
X158930551Y-121251833D01*
X159145099Y-121366511D01*
X159377898Y-121437130D01*
X159620000Y-121460975D01*
X159862101Y-121437130D01*
X160094900Y-121366511D01*
X160309448Y-121251833D01*
X160497502Y-121097502D01*
X160651833Y-120909449D01*
X160766511Y-120694901D01*
X160837130Y-120462102D01*
X160855000Y-120280665D01*
X160855000Y-117609802D01*
X160925001Y-117679803D01*
X160925000Y-120280664D01*
X160942870Y-120462101D01*
X161013489Y-120694900D01*
X161128167Y-120909448D01*
X161282498Y-121097502D01*
X161470551Y-121251833D01*
X161685099Y-121366511D01*
X161917898Y-121437130D01*
X162160000Y-121460975D01*
X162402101Y-121437130D01*
X162634900Y-121366511D01*
X162849448Y-121251833D01*
X163037502Y-121097502D01*
X163191833Y-120909449D01*
X163306511Y-120694901D01*
X163377130Y-120462102D01*
X163395000Y-120280665D01*
X163395000Y-120280664D01*
X163465000Y-120280664D01*
X163482870Y-120462101D01*
X163553489Y-120694900D01*
X163668167Y-120909448D01*
X163822498Y-121097502D01*
X164010551Y-121251833D01*
X164225099Y-121366511D01*
X164457898Y-121437130D01*
X164700000Y-121460975D01*
X164942101Y-121437130D01*
X165174900Y-121366511D01*
X165389448Y-121251833D01*
X165577502Y-121097502D01*
X165731833Y-120909449D01*
X165846511Y-120694901D01*
X165917130Y-120462102D01*
X165935000Y-120280665D01*
X165935000Y-120280664D01*
X166005000Y-120280664D01*
X166022870Y-120462101D01*
X166093489Y-120694900D01*
X166208167Y-120909448D01*
X166362498Y-121097502D01*
X166550551Y-121251833D01*
X166765099Y-121366511D01*
X166997898Y-121437130D01*
X167240000Y-121460975D01*
X167482101Y-121437130D01*
X167714900Y-121366511D01*
X167929448Y-121251833D01*
X168117502Y-121097502D01*
X168271833Y-120909449D01*
X168386511Y-120694901D01*
X168457130Y-120462102D01*
X168475000Y-120280665D01*
X168475000Y-120280664D01*
X168545000Y-120280664D01*
X168562870Y-120462101D01*
X168633489Y-120694900D01*
X168748167Y-120909448D01*
X168902498Y-121097502D01*
X169090551Y-121251833D01*
X169305099Y-121366511D01*
X169537898Y-121437130D01*
X169780000Y-121460975D01*
X170022101Y-121437130D01*
X170254900Y-121366511D01*
X170469448Y-121251833D01*
X170657502Y-121097502D01*
X170811833Y-120909449D01*
X170926511Y-120694901D01*
X170997130Y-120462102D01*
X171015000Y-120280665D01*
X171015000Y-120280664D01*
X171085000Y-120280664D01*
X171102870Y-120462101D01*
X171173489Y-120694900D01*
X171288167Y-120909448D01*
X171442498Y-121097502D01*
X171630551Y-121251833D01*
X171845099Y-121366511D01*
X172077898Y-121437130D01*
X172320000Y-121460975D01*
X172562101Y-121437130D01*
X172794900Y-121366511D01*
X173009448Y-121251833D01*
X173197502Y-121097502D01*
X173351833Y-120909449D01*
X173466511Y-120694901D01*
X173537130Y-120462102D01*
X173555000Y-120280665D01*
X173555000Y-117359335D01*
X173537130Y-117177898D01*
X173466511Y-116945099D01*
X173351833Y-116730551D01*
X173197502Y-116542498D01*
X173009449Y-116388167D01*
X172794901Y-116273489D01*
X172562102Y-116202870D01*
X172320000Y-116179025D01*
X172077899Y-116202870D01*
X171845100Y-116273489D01*
X171630552Y-116388167D01*
X171442499Y-116542498D01*
X171288168Y-116730551D01*
X171173490Y-116945099D01*
X171102871Y-117177898D01*
X171085001Y-117359335D01*
X171085000Y-120280664D01*
X171015000Y-120280664D01*
X171015000Y-117359335D01*
X170997130Y-117177898D01*
X170926511Y-116945099D01*
X170811833Y-116730551D01*
X170657502Y-116542498D01*
X170469449Y-116388167D01*
X170254901Y-116273489D01*
X170022102Y-116202870D01*
X169780000Y-116179025D01*
X169537899Y-116202870D01*
X169305100Y-116273489D01*
X169090552Y-116388167D01*
X168902499Y-116542498D01*
X168748168Y-116730551D01*
X168633490Y-116945099D01*
X168562871Y-117177898D01*
X168545001Y-117359335D01*
X168545000Y-120280664D01*
X168475000Y-120280664D01*
X168475000Y-117359335D01*
X168457130Y-117177898D01*
X168386511Y-116945099D01*
X168271833Y-116730551D01*
X168117502Y-116542498D01*
X167929449Y-116388167D01*
X167714901Y-116273489D01*
X167482102Y-116202870D01*
X167240000Y-116179025D01*
X166997899Y-116202870D01*
X166765100Y-116273489D01*
X166550552Y-116388167D01*
X166362499Y-116542498D01*
X166208168Y-116730551D01*
X166093490Y-116945099D01*
X166022871Y-117177898D01*
X166005001Y-117359335D01*
X166005000Y-120280664D01*
X165935000Y-120280664D01*
X165935000Y-117359335D01*
X165917130Y-117177898D01*
X165846511Y-116945099D01*
X165731833Y-116730551D01*
X165577502Y-116542498D01*
X165389449Y-116388167D01*
X165174901Y-116273489D01*
X164942102Y-116202870D01*
X164700000Y-116179025D01*
X164457899Y-116202870D01*
X164225100Y-116273489D01*
X164010552Y-116388167D01*
X163822499Y-116542498D01*
X163668168Y-116730551D01*
X163553490Y-116945099D01*
X163482871Y-117177898D01*
X163465001Y-117359335D01*
X163465000Y-120280664D01*
X163395000Y-120280664D01*
X163395000Y-117359335D01*
X163377130Y-117177898D01*
X163306511Y-116945099D01*
X163191833Y-116730551D01*
X163037502Y-116542498D01*
X162849449Y-116388167D01*
X162634901Y-116273489D01*
X162402102Y-116202870D01*
X162160000Y-116179025D01*
X161917899Y-116202870D01*
X161685100Y-116273489D01*
X161674146Y-116279344D01*
X156483804Y-111089003D01*
X156460001Y-111059999D01*
X156344276Y-110965026D01*
X156212247Y-110894454D01*
X156068986Y-110850997D01*
X155957333Y-110840000D01*
X155957322Y-110840000D01*
X155920000Y-110836324D01*
X155882678Y-110840000D01*
X154124770Y-110840000D01*
X154027962Y-110722038D01*
X153893386Y-110611595D01*
X153871693Y-110600000D01*
X153893386Y-110588405D01*
X154027962Y-110477962D01*
X154124770Y-110360000D01*
X162162678Y-110360000D01*
X162200000Y-110363676D01*
X162237322Y-110360000D01*
X162237333Y-110360000D01*
X162348986Y-110349003D01*
X162492247Y-110305546D01*
X162624276Y-110234974D01*
X162740001Y-110140001D01*
X162763804Y-110110997D01*
X166754146Y-106120656D01*
X166765099Y-106126511D01*
X166997898Y-106197130D01*
X167240000Y-106220975D01*
X167482101Y-106197130D01*
X167714900Y-106126511D01*
X167929448Y-106011833D01*
X168117502Y-105857502D01*
X168271833Y-105669449D01*
X168386511Y-105454901D01*
X168457130Y-105222102D01*
X168475000Y-105040665D01*
X168475000Y-102119335D01*
X168457130Y-101937898D01*
X168386511Y-101705099D01*
X168271833Y-101490551D01*
X168117502Y-101302498D01*
X167929449Y-101148167D01*
X167714901Y-101033489D01*
X167482102Y-100962870D01*
X167240000Y-100939025D01*
X166997899Y-100962870D01*
X166765100Y-101033489D01*
X166550552Y-101148167D01*
X166362499Y-101302498D01*
X166208168Y-101490551D01*
X166093490Y-101705099D01*
X166022871Y-101937898D01*
X166005001Y-102119335D01*
X166005000Y-104720198D01*
X165935000Y-104790198D01*
X165935000Y-102119335D01*
X165917130Y-101937898D01*
X165846511Y-101705099D01*
X165731833Y-101490551D01*
X165577502Y-101302498D01*
X165389449Y-101148167D01*
X165174901Y-101033489D01*
X164942102Y-100962870D01*
X164700000Y-100939025D01*
X164457899Y-100962870D01*
X164225100Y-101033489D01*
X164010552Y-101148167D01*
X163822499Y-101302498D01*
X163668168Y-101490551D01*
X163553490Y-101705099D01*
X163482871Y-101937898D01*
X163465001Y-102119335D01*
X163465000Y-105040664D01*
X163482870Y-105222101D01*
X163553489Y-105454900D01*
X163668167Y-105669448D01*
X163822498Y-105857502D01*
X164010551Y-106011833D01*
X164225099Y-106126511D01*
X164457898Y-106197130D01*
X164521777Y-106203422D01*
X161885199Y-108840000D01*
X154124770Y-108840000D01*
X154027962Y-108722038D01*
X153893386Y-108611595D01*
X153871693Y-108600000D01*
X153893386Y-108588405D01*
X154027962Y-108477962D01*
X154138405Y-108343386D01*
X154220472Y-108189850D01*
X154271008Y-108023254D01*
X154288072Y-107850000D01*
X154288072Y-107350000D01*
X154271008Y-107176746D01*
X154220472Y-107010150D01*
X154138405Y-106856614D01*
X154027962Y-106722038D01*
X153893386Y-106611595D01*
X153739850Y-106529528D01*
X153573254Y-106478992D01*
X153400000Y-106461928D01*
X151660000Y-106461928D01*
X151660000Y-105040664D01*
X155845000Y-105040664D01*
X155862870Y-105222101D01*
X155933489Y-105454900D01*
X156048167Y-105669448D01*
X156202498Y-105857502D01*
X156390551Y-106011833D01*
X156605099Y-106126511D01*
X156837898Y-106197130D01*
X157080000Y-106220975D01*
X157322101Y-106197130D01*
X157554900Y-106126511D01*
X157769448Y-106011833D01*
X157957502Y-105857502D01*
X158111833Y-105669449D01*
X158226511Y-105454901D01*
X158297130Y-105222102D01*
X158315000Y-105040665D01*
X158315000Y-105040664D01*
X158385000Y-105040664D01*
X158402870Y-105222101D01*
X158473489Y-105454900D01*
X158588167Y-105669448D01*
X158742498Y-105857502D01*
X158930551Y-106011833D01*
X159145099Y-106126511D01*
X159377898Y-106197130D01*
X159620000Y-106220975D01*
X159862101Y-106197130D01*
X160094900Y-106126511D01*
X160309448Y-106011833D01*
X160497502Y-105857502D01*
X160651833Y-105669449D01*
X160766511Y-105454901D01*
X160837130Y-105222102D01*
X160855000Y-105040665D01*
X160855000Y-105040664D01*
X160925000Y-105040664D01*
X160942870Y-105222101D01*
X161013489Y-105454900D01*
X161128167Y-105669448D01*
X161282498Y-105857502D01*
X161470551Y-106011833D01*
X161685099Y-106126511D01*
X161917898Y-106197130D01*
X162160000Y-106220975D01*
X162402101Y-106197130D01*
X162634900Y-106126511D01*
X162849448Y-106011833D01*
X163037502Y-105857502D01*
X163191833Y-105669449D01*
X163306511Y-105454901D01*
X163377130Y-105222102D01*
X163395000Y-105040665D01*
X163395000Y-102119335D01*
X163377130Y-101937898D01*
X163306511Y-101705099D01*
X163191833Y-101490551D01*
X163037502Y-101302498D01*
X162849449Y-101148167D01*
X162634901Y-101033489D01*
X162402102Y-100962870D01*
X162160000Y-100939025D01*
X161917899Y-100962870D01*
X161685100Y-101033489D01*
X161470552Y-101148167D01*
X161282499Y-101302498D01*
X161128168Y-101490551D01*
X161013490Y-101705099D01*
X160942871Y-101937898D01*
X160925001Y-102119335D01*
X160925000Y-105040664D01*
X160855000Y-105040664D01*
X160855000Y-102119335D01*
X160837130Y-101937898D01*
X160766511Y-101705099D01*
X160651833Y-101490551D01*
X160497502Y-101302498D01*
X160309449Y-101148167D01*
X160094901Y-101033489D01*
X159862102Y-100962870D01*
X159620000Y-100939025D01*
X159377899Y-100962870D01*
X159145100Y-101033489D01*
X158930552Y-101148167D01*
X158742499Y-101302498D01*
X158588168Y-101490551D01*
X158473490Y-101705099D01*
X158402871Y-101937898D01*
X158385001Y-102119335D01*
X158385000Y-105040664D01*
X158315000Y-105040664D01*
X158315000Y-102119335D01*
X158297130Y-101937898D01*
X158226511Y-101705099D01*
X158111833Y-101490551D01*
X157957502Y-101302498D01*
X157769449Y-101148167D01*
X157554901Y-101033489D01*
X157322102Y-100962870D01*
X157080000Y-100939025D01*
X156837899Y-100962870D01*
X156605100Y-101033489D01*
X156390552Y-101148167D01*
X156202499Y-101302498D01*
X156048168Y-101490551D01*
X155933490Y-101705099D01*
X155862871Y-101937898D01*
X155845001Y-102119335D01*
X155845000Y-105040664D01*
X151660000Y-105040664D01*
X151660000Y-102314801D01*
X154614802Y-99360000D01*
X168005199Y-99360000D01*
X169020001Y-100374803D01*
X169020000Y-101206067D01*
X168902499Y-101302498D01*
X168748168Y-101490551D01*
X168633490Y-101705099D01*
X168562871Y-101937898D01*
X168545001Y-102119335D01*
X168545000Y-105040664D01*
X168562870Y-105222101D01*
X168633489Y-105454900D01*
X168748167Y-105669448D01*
X168902498Y-105857502D01*
X169090551Y-106011833D01*
X169305099Y-106126511D01*
X169537898Y-106197130D01*
X169780000Y-106220975D01*
X170022101Y-106197130D01*
X170254900Y-106126511D01*
X170469448Y-106011833D01*
X170657502Y-105857502D01*
X170811833Y-105669449D01*
X170926511Y-105454901D01*
X170997130Y-105222102D01*
X171015000Y-105040665D01*
X171015000Y-105040664D01*
X171085000Y-105040664D01*
X171102870Y-105222101D01*
X171173489Y-105454900D01*
X171288167Y-105669448D01*
X171442498Y-105857502D01*
X171630551Y-106011833D01*
X171845099Y-106126511D01*
X172077898Y-106197130D01*
X172320000Y-106220975D01*
X172562101Y-106197130D01*
X172794900Y-106126511D01*
X173009448Y-106011833D01*
X173197502Y-105857502D01*
X173351833Y-105669449D01*
X173466511Y-105454901D01*
X173537130Y-105222102D01*
X173555000Y-105040665D01*
X173555000Y-103934227D01*
X173625546Y-103802247D01*
X173669003Y-103658986D01*
X173680000Y-103547333D01*
X173680000Y-102072667D01*
X173669003Y-101961014D01*
X173625546Y-101817753D01*
X173554974Y-101685724D01*
X173460001Y-101569999D01*
X173344275Y-101475026D01*
X173335042Y-101470091D01*
X173197502Y-101302498D01*
X173009449Y-101148167D01*
X172794901Y-101033489D01*
X172562102Y-100962870D01*
X172320000Y-100939025D01*
X172077899Y-100962870D01*
X171845100Y-101033489D01*
X171630552Y-101148167D01*
X171442499Y-101302498D01*
X171288168Y-101490551D01*
X171173490Y-101705099D01*
X171102871Y-101937898D01*
X171085001Y-102119335D01*
X171085000Y-105040664D01*
X171015000Y-105040664D01*
X171015000Y-102119335D01*
X170997130Y-101937898D01*
X170926511Y-101705099D01*
X170811833Y-101490551D01*
X170657502Y-101302498D01*
X170540000Y-101206067D01*
X170540000Y-100097323D01*
X170543676Y-100060000D01*
X170540000Y-100022677D01*
X170540000Y-100022667D01*
X170529003Y-99911014D01*
X170485546Y-99767753D01*
X170414974Y-99635724D01*
X170320001Y-99519999D01*
X170291003Y-99496201D01*
X168883804Y-98089003D01*
X168860001Y-98059999D01*
X168744276Y-97965026D01*
X168612247Y-97894454D01*
X168468986Y-97850997D01*
X168357333Y-97840000D01*
X168357322Y-97840000D01*
X168320000Y-97836324D01*
X168282678Y-97840000D01*
X154337322Y-97840000D01*
X154299999Y-97836324D01*
X154262676Y-97840000D01*
X154262667Y-97840000D01*
X154151014Y-97850997D01*
X154032956Y-97886809D01*
X154007753Y-97894454D01*
X153875723Y-97965026D01*
X153817066Y-98013165D01*
X153759999Y-98059999D01*
X153736201Y-98088997D01*
X150389003Y-101436196D01*
X150359999Y-101459999D01*
X150334926Y-101490551D01*
X150265026Y-101575724D01*
X150248515Y-101606614D01*
X150194454Y-101707754D01*
X150150997Y-101851015D01*
X150140000Y-101962668D01*
X150140000Y-101962678D01*
X150136324Y-102000000D01*
X150140000Y-102037323D01*
X150140000Y-103799239D01*
X150073254Y-103778992D01*
X149900000Y-103761928D01*
X147400000Y-103761928D01*
X147226746Y-103778992D01*
X147060150Y-103829528D01*
X146906614Y-103911595D01*
X146772038Y-104022038D01*
X146661595Y-104156614D01*
X146579528Y-104310150D01*
X146528992Y-104476746D01*
X146511928Y-104650000D01*
X146511928Y-105750000D01*
X146528992Y-105923254D01*
X146579528Y-106089850D01*
X146661595Y-106243386D01*
X146772038Y-106377962D01*
X146906614Y-106488405D01*
X147060150Y-106570472D01*
X147226746Y-106621008D01*
X147400000Y-106638072D01*
X147874351Y-106638072D01*
X147772038Y-106722038D01*
X147675230Y-106840000D01*
X133760000Y-106840000D01*
X133760000Y-105037325D01*
X133763676Y-105000000D01*
X133760000Y-104962675D01*
X133760000Y-104962667D01*
X133749003Y-104851014D01*
X133705546Y-104707753D01*
X133634974Y-104575724D01*
X133540001Y-104459999D01*
X133511004Y-104436202D01*
X131663804Y-102589003D01*
X131640001Y-102559999D01*
X131524276Y-102465026D01*
X131392247Y-102394454D01*
X131248986Y-102350997D01*
X131137333Y-102340000D01*
X131137322Y-102340000D01*
X131100000Y-102336324D01*
X131062678Y-102340000D01*
X130621032Y-102340000D01*
X130578084Y-102198418D01*
X130540039Y-102127242D01*
X130649999Y-102138072D01*
X131350001Y-102138072D01*
X131523255Y-102121008D01*
X131689851Y-102070472D01*
X131843387Y-101988405D01*
X131977962Y-101877962D01*
X132088405Y-101743387D01*
X132170472Y-101589851D01*
X132221008Y-101423255D01*
X132238072Y-101250001D01*
X132238072Y-99949999D01*
X132221008Y-99776745D01*
X132170472Y-99610149D01*
X132088405Y-99456613D01*
X131977962Y-99322038D01*
X131843387Y-99211595D01*
X131746860Y-99160000D01*
X135485199Y-99160000D01*
X137361928Y-101036730D01*
X137361928Y-101574351D01*
X137277962Y-101472038D01*
X137143386Y-101361595D01*
X136989850Y-101279528D01*
X136823254Y-101228992D01*
X136650000Y-101211928D01*
X135550000Y-101211928D01*
X135376746Y-101228992D01*
X135210150Y-101279528D01*
X135056614Y-101361595D01*
X134922038Y-101472038D01*
X134811595Y-101606614D01*
X134729528Y-101760150D01*
X134678992Y-101926746D01*
X134661928Y-102100000D01*
X134661928Y-104600000D01*
X134678992Y-104773254D01*
X134729528Y-104939850D01*
X134811595Y-105093386D01*
X134922038Y-105227962D01*
X135056614Y-105338405D01*
X135210150Y-105420472D01*
X135376746Y-105471008D01*
X135550000Y-105488072D01*
X136650000Y-105488072D01*
X136823254Y-105471008D01*
X136989850Y-105420472D01*
X137143386Y-105338405D01*
X137277962Y-105227962D01*
X137388405Y-105093386D01*
X137470472Y-104939850D01*
X137521008Y-104773254D01*
X137538072Y-104600000D01*
X137538072Y-104125649D01*
X137622038Y-104227962D01*
X137756614Y-104338405D01*
X137910150Y-104420472D01*
X138076746Y-104471008D01*
X138250000Y-104488072D01*
X138750000Y-104488072D01*
X138923254Y-104471008D01*
X139089850Y-104420472D01*
X139243386Y-104338405D01*
X139377962Y-104227962D01*
X139440969Y-104151187D01*
X139469463Y-104204494D01*
X139548815Y-104301185D01*
X139645506Y-104380537D01*
X139755820Y-104439502D01*
X139875518Y-104475812D01*
X140000000Y-104488072D01*
X140214250Y-104485000D01*
X140373000Y-104326250D01*
X140373000Y-101227000D01*
X140627000Y-101227000D01*
X140627000Y-104326250D01*
X140785750Y-104485000D01*
X141000000Y-104488072D01*
X141124482Y-104475812D01*
X141244180Y-104439502D01*
X141354494Y-104380537D01*
X141451185Y-104301185D01*
X141461928Y-104288095D01*
X141461928Y-104600000D01*
X141478992Y-104773254D01*
X141529528Y-104939850D01*
X141611595Y-105093386D01*
X141722038Y-105227962D01*
X141856614Y-105338405D01*
X142010150Y-105420472D01*
X142176746Y-105471008D01*
X142350000Y-105488072D01*
X143450000Y-105488072D01*
X143623254Y-105471008D01*
X143789850Y-105420472D01*
X143943386Y-105338405D01*
X144077962Y-105227962D01*
X144188405Y-105093386D01*
X144270472Y-104939850D01*
X144321008Y-104773254D01*
X144338072Y-104600000D01*
X144338072Y-102100000D01*
X144321008Y-101926746D01*
X144270472Y-101760150D01*
X144188405Y-101606614D01*
X144077962Y-101472038D01*
X143943386Y-101361595D01*
X143789850Y-101279528D01*
X143623254Y-101228992D01*
X143450000Y-101211928D01*
X142350000Y-101211928D01*
X142176746Y-101228992D01*
X142010150Y-101279528D01*
X141856614Y-101361595D01*
X141722038Y-101472038D01*
X141635239Y-101577803D01*
X141635000Y-101385750D01*
X141476250Y-101227000D01*
X140627000Y-101227000D01*
X140373000Y-101227000D01*
X140353000Y-101227000D01*
X140353000Y-100973000D01*
X140373000Y-100973000D01*
X140373000Y-97873750D01*
X140627000Y-97873750D01*
X140627000Y-100973000D01*
X141476250Y-100973000D01*
X141635000Y-100814250D01*
X141638072Y-98350000D01*
X141625812Y-98225518D01*
X141589502Y-98105820D01*
X141530537Y-97995506D01*
X141451185Y-97898815D01*
X141354494Y-97819463D01*
X141244180Y-97760498D01*
X141124482Y-97724188D01*
X141000000Y-97711928D01*
X140785750Y-97715000D01*
X140627000Y-97873750D01*
X140373000Y-97873750D01*
X140214250Y-97715000D01*
X140000000Y-97711928D01*
X139875518Y-97724188D01*
X139755820Y-97760498D01*
X139645506Y-97819463D01*
X139548815Y-97898815D01*
X139469463Y-97995506D01*
X139440969Y-98048813D01*
X139377962Y-97972038D01*
X139243386Y-97861595D01*
X139089850Y-97779528D01*
X138923254Y-97728992D01*
X138750000Y-97711928D01*
X138250000Y-97711928D01*
X138076746Y-97728992D01*
X137910150Y-97779528D01*
X137756614Y-97861595D01*
X137622038Y-97972038D01*
X137511595Y-98106614D01*
X137429528Y-98260150D01*
X137378992Y-98426746D01*
X137361928Y-98600000D01*
X137361928Y-98887127D01*
X136363804Y-97889003D01*
X136340001Y-97859999D01*
X136224276Y-97765026D01*
X136092247Y-97694454D01*
X135948986Y-97650997D01*
X135837333Y-97640000D01*
X135837322Y-97640000D01*
X135800000Y-97636324D01*
X135762678Y-97640000D01*
X124437323Y-97640000D01*
X124400000Y-97636324D01*
X124362677Y-97640000D01*
X124362667Y-97640000D01*
X124251014Y-97650997D01*
X124107753Y-97694454D01*
X123975723Y-97765026D01*
X123909392Y-97819463D01*
X123859999Y-97859999D01*
X123836201Y-97888997D01*
X122643998Y-99081201D01*
X122615000Y-99104999D01*
X122591202Y-99133997D01*
X122591201Y-99133998D01*
X122520026Y-99220724D01*
X122449454Y-99352754D01*
X122405998Y-99496015D01*
X122391324Y-99645000D01*
X122395001Y-99682332D01*
X122395000Y-107941956D01*
X122240241Y-108045363D01*
X122040363Y-108245241D01*
X121883320Y-108480273D01*
X121775147Y-108741426D01*
X121769487Y-108769882D01*
X121688603Y-108543708D01*
X121621671Y-108418486D01*
X121377702Y-108346903D01*
X120564605Y-109160000D01*
X120205395Y-109160000D01*
X119392298Y-108346903D01*
X119148329Y-108418486D01*
X119027429Y-108673996D01*
X118958700Y-108948184D01*
X118944783Y-109230512D01*
X114308930Y-109230512D01*
X114254258Y-109128228D01*
X113887499Y-108912106D01*
X112219605Y-110580000D01*
X111860395Y-110580000D01*
X110192501Y-108912106D01*
X109825742Y-109128228D01*
X109585062Y-109588105D01*
X109438725Y-110086098D01*
X109392352Y-110603071D01*
X96725000Y-110603071D01*
X96725000Y-108732501D01*
X110372106Y-108732501D01*
X112040000Y-110400395D01*
X113707894Y-108732501D01*
X113491772Y-108365742D01*
X113112598Y-108167298D01*
X119571903Y-108167298D01*
X120385000Y-108980395D01*
X121198097Y-108167298D01*
X121126514Y-107923329D01*
X120871004Y-107802429D01*
X120596816Y-107733700D01*
X120314488Y-107719783D01*
X120034870Y-107761213D01*
X119768708Y-107856397D01*
X119643486Y-107923329D01*
X119571903Y-108167298D01*
X113112598Y-108167298D01*
X113031895Y-108125062D01*
X112533902Y-107978725D01*
X112016929Y-107932352D01*
X111500841Y-107987727D01*
X111005474Y-108142721D01*
X110588228Y-108365742D01*
X110372106Y-108732501D01*
X96725000Y-108732501D01*
X96725000Y-100032278D01*
X96790476Y-99364498D01*
X96975039Y-98753198D01*
X97263862Y-98210000D01*
X104622143Y-98210000D01*
X104622143Y-102030000D01*
X119977857Y-102030000D01*
X119977857Y-98210000D01*
X104622143Y-98210000D01*
X97263862Y-98210000D01*
X97274817Y-98189397D01*
X97678399Y-97694555D01*
X98170412Y-97287526D01*
X98732112Y-96983816D01*
X99342104Y-96794992D01*
X100008036Y-96725000D01*
X195097722Y-96725000D01*
X195765502Y-96790476D01*
G36*
X135588228Y-108365742D02*
G01*
X135372106Y-108732501D01*
X137040000Y-110400395D01*
X138707894Y-108732501D01*
X138491772Y-108365742D01*
X138480801Y-108360000D01*
X147675230Y-108360000D01*
X147772038Y-108477962D01*
X147906614Y-108588405D01*
X147928307Y-108600000D01*
X147906614Y-108611595D01*
X147772038Y-108722038D01*
X147675230Y-108840000D01*
X145627508Y-108840000D01*
X145498942Y-108734488D01*
X145347567Y-108653577D01*
X145183316Y-108603752D01*
X145012500Y-108586928D01*
X144537500Y-108586928D01*
X144366684Y-108603752D01*
X144202433Y-108653577D01*
X144051058Y-108734488D01*
X143922492Y-108840000D01*
X143637323Y-108840000D01*
X143600000Y-108836324D01*
X143562677Y-108840000D01*
X143562667Y-108840000D01*
X143451014Y-108850997D01*
X143307753Y-108894454D01*
X143175723Y-108965026D01*
X143109403Y-109019454D01*
X143059999Y-109059999D01*
X143036201Y-109088997D01*
X139818578Y-112306621D01*
X139672567Y-112228577D01*
X139508316Y-112178752D01*
X139337500Y-112161928D01*
X139033383Y-112161928D01*
X139254258Y-112031772D01*
X139494938Y-111571895D01*
X139641275Y-111073902D01*
X139687648Y-110556929D01*
X139632273Y-110040841D01*
X139477279Y-109545474D01*
X139254258Y-109128228D01*
X138887499Y-108912106D01*
X137219605Y-110580000D01*
X137233748Y-110594143D01*
X137054143Y-110773748D01*
X137040000Y-110759605D01*
X135372106Y-112427499D01*
X135556255Y-112740000D01*
X131311407Y-112740000D01*
X131351680Y-112679727D01*
X131459853Y-112418574D01*
X131515000Y-112141335D01*
X131515000Y-111858665D01*
X131459853Y-111581426D01*
X131351680Y-111320273D01*
X131194637Y-111085241D01*
X130994759Y-110885363D01*
X130931624Y-110843177D01*
X131171730Y-110603071D01*
X134392352Y-110603071D01*
X134447727Y-111119159D01*
X134602721Y-111614526D01*
X134825742Y-112031772D01*
X135192501Y-112247894D01*
X136860395Y-110580000D01*
X135192501Y-108912106D01*
X134825742Y-109128228D01*
X134585062Y-109588105D01*
X134438725Y-110086098D01*
X134392352Y-110603071D01*
X131171730Y-110603071D01*
X133414802Y-108360000D01*
X135598971Y-108360000D01*
X135588228Y-108365742D01*
G37*
X135588228Y-108365742D02*
X135372106Y-108732501D01*
X137040000Y-110400395D01*
X138707894Y-108732501D01*
X138491772Y-108365742D01*
X138480801Y-108360000D01*
X147675230Y-108360000D01*
X147772038Y-108477962D01*
X147906614Y-108588405D01*
X147928307Y-108600000D01*
X147906614Y-108611595D01*
X147772038Y-108722038D01*
X147675230Y-108840000D01*
X145627508Y-108840000D01*
X145498942Y-108734488D01*
X145347567Y-108653577D01*
X145183316Y-108603752D01*
X145012500Y-108586928D01*
X144537500Y-108586928D01*
X144366684Y-108603752D01*
X144202433Y-108653577D01*
X144051058Y-108734488D01*
X143922492Y-108840000D01*
X143637323Y-108840000D01*
X143600000Y-108836324D01*
X143562677Y-108840000D01*
X143562667Y-108840000D01*
X143451014Y-108850997D01*
X143307753Y-108894454D01*
X143175723Y-108965026D01*
X143109403Y-109019454D01*
X143059999Y-109059999D01*
X143036201Y-109088997D01*
X139818578Y-112306621D01*
X139672567Y-112228577D01*
X139508316Y-112178752D01*
X139337500Y-112161928D01*
X139033383Y-112161928D01*
X139254258Y-112031772D01*
X139494938Y-111571895D01*
X139641275Y-111073902D01*
X139687648Y-110556929D01*
X139632273Y-110040841D01*
X139477279Y-109545474D01*
X139254258Y-109128228D01*
X138887499Y-108912106D01*
X137219605Y-110580000D01*
X137233748Y-110594143D01*
X137054143Y-110773748D01*
X137040000Y-110759605D01*
X135372106Y-112427499D01*
X135556255Y-112740000D01*
X131311407Y-112740000D01*
X131351680Y-112679727D01*
X131459853Y-112418574D01*
X131515000Y-112141335D01*
X131515000Y-111858665D01*
X131459853Y-111581426D01*
X131351680Y-111320273D01*
X131194637Y-111085241D01*
X130994759Y-110885363D01*
X130931624Y-110843177D01*
X131171730Y-110603071D01*
X134392352Y-110603071D01*
X134447727Y-111119159D01*
X134602721Y-111614526D01*
X134825742Y-112031772D01*
X135192501Y-112247894D01*
X136860395Y-110580000D01*
X135192501Y-108912106D01*
X134825742Y-109128228D01*
X134585062Y-109588105D01*
X134438725Y-110086098D01*
X134392352Y-110603071D01*
X131171730Y-110603071D01*
X133414802Y-108360000D01*
X135598971Y-108360000D01*
X135588228Y-108365742D01*
M02*
