G04 #@! TF.GenerationSoftware,KiCad,Pcbnew,(5.1.5-0)*
G04 #@! TF.CreationDate,2021-01-24T14:42:45-07:00*
G04 #@! TF.ProjectId,back_v3,6261636b-5f76-4332-9e6b-696361645f70,rev?*
G04 #@! TF.SameCoordinates,Original*
G04 #@! TF.FileFunction,Legend,Top*
G04 #@! TF.FilePolarity,Positive*
%FSLAX46Y46*%
G04 Gerber Fmt 4.6, Leading zero omitted, Abs format (unit mm)*
G04 Created by KiCad (PCBNEW (5.1.5-0)) date 2021-01-24 14:42:45*
%MOMM*%
%LPD*%
G04 APERTURE LIST*
%ADD10C,0.120000*%
%ADD11C,0.150000*%
G04 APERTURE END LIST*
D10*
X133650000Y-120380000D02*
X133650000Y-121620000D01*
X138350000Y-120380000D02*
X138350000Y-121620000D01*
X138350000Y-122950000D02*
X138350000Y-123300000D01*
X138350000Y-123300000D02*
X133650000Y-123300000D01*
X133650000Y-123300000D02*
X133650000Y-122950000D01*
X138350000Y-122950000D02*
X139600000Y-122950000D01*
X138350000Y-119050000D02*
X138350000Y-118700000D01*
X138350000Y-118700000D02*
X133650000Y-118700000D01*
X133650000Y-118700000D02*
X133650000Y-119050000D01*
X143171267Y-121490000D02*
X142828733Y-121490000D01*
X143171267Y-122510000D02*
X142828733Y-122510000D01*
X122060000Y-118990000D02*
X125940000Y-118990000D01*
X127110000Y-122110000D02*
X126060000Y-122110000D01*
X127110000Y-120960000D02*
X127110000Y-122110000D01*
X121940000Y-122110000D02*
X121940000Y-123100000D01*
X120890000Y-122110000D02*
X121940000Y-122110000D01*
X120890000Y-120960000D02*
X120890000Y-122110000D01*
X176210000Y-118071267D02*
X176210000Y-117728733D01*
X175190000Y-118071267D02*
X175190000Y-117728733D01*
X176210000Y-121771267D02*
X176210000Y-121428733D01*
X175190000Y-121771267D02*
X175190000Y-121428733D01*
X176200000Y-108350000D02*
X173650000Y-108350000D01*
X176200000Y-106650000D02*
X173650000Y-106650000D01*
X176200000Y-108350000D02*
X176200000Y-106650000D01*
X152490000Y-113828733D02*
X152490000Y-114171267D01*
X153510000Y-113828733D02*
X153510000Y-114171267D01*
X152490000Y-106828733D02*
X152490000Y-107171267D01*
X153510000Y-106828733D02*
X153510000Y-107171267D01*
X122060000Y-99990000D02*
X125940000Y-99990000D01*
X127110000Y-103110000D02*
X126060000Y-103110000D01*
X127110000Y-101960000D02*
X127110000Y-103110000D01*
X121940000Y-103110000D02*
X121940000Y-104100000D01*
X120890000Y-103110000D02*
X121940000Y-103110000D01*
X120890000Y-101960000D02*
X120890000Y-103110000D01*
X144085000Y-98640000D02*
X144085000Y-99490000D01*
X131915000Y-98640000D02*
X144085000Y-98640000D01*
X131915000Y-99490000D02*
X131915000Y-98640000D01*
X144085000Y-103860000D02*
X141760000Y-103860000D01*
X144085000Y-103010000D02*
X144085000Y-103860000D01*
X134240000Y-103860000D02*
X134240000Y-106250000D01*
X131915000Y-103860000D02*
X134240000Y-103860000D01*
X131915000Y-103010000D02*
X131915000Y-103860000D01*
X163415000Y-114710000D02*
X163415000Y-113860000D01*
X171585000Y-114710000D02*
X163415000Y-114710000D01*
X171585000Y-113860000D02*
X171585000Y-114710000D01*
X163415000Y-109490000D02*
X165740000Y-109490000D01*
X163415000Y-110340000D02*
X163415000Y-109490000D01*
X169260000Y-109490000D02*
X169260000Y-107100000D01*
X171585000Y-109490000D02*
X169260000Y-109490000D01*
X171585000Y-110340000D02*
X171585000Y-109490000D01*
D11*
X108803095Y-102367380D02*
X108803095Y-101367380D01*
X108803095Y-101843571D02*
X109374523Y-101843571D01*
X109374523Y-102367380D02*
X109374523Y-101367380D01*
X110374523Y-102367380D02*
X109803095Y-102367380D01*
X110088809Y-102367380D02*
X110088809Y-101367380D01*
X109993571Y-101510238D01*
X109898333Y-101605476D01*
X109803095Y-101653095D01*
X135238095Y-123952380D02*
X135238095Y-124761904D01*
X135285714Y-124857142D01*
X135333333Y-124904761D01*
X135428571Y-124952380D01*
X135619047Y-124952380D01*
X135714285Y-124904761D01*
X135761904Y-124857142D01*
X135809523Y-124761904D01*
X135809523Y-123952380D01*
X136238095Y-124047619D02*
X136285714Y-124000000D01*
X136380952Y-123952380D01*
X136619047Y-123952380D01*
X136714285Y-124000000D01*
X136761904Y-124047619D01*
X136809523Y-124142857D01*
X136809523Y-124238095D01*
X136761904Y-124380952D01*
X136190476Y-124952380D01*
X136809523Y-124952380D01*
X142833333Y-123882380D02*
X142500000Y-123406190D01*
X142261904Y-123882380D02*
X142261904Y-122882380D01*
X142642857Y-122882380D01*
X142738095Y-122930000D01*
X142785714Y-122977619D01*
X142833333Y-123072857D01*
X142833333Y-123215714D01*
X142785714Y-123310952D01*
X142738095Y-123358571D01*
X142642857Y-123406190D01*
X142261904Y-123406190D01*
X143738095Y-122882380D02*
X143261904Y-122882380D01*
X143214285Y-123358571D01*
X143261904Y-123310952D01*
X143357142Y-123263333D01*
X143595238Y-123263333D01*
X143690476Y-123310952D01*
X143738095Y-123358571D01*
X143785714Y-123453809D01*
X143785714Y-123691904D01*
X143738095Y-123787142D01*
X143690476Y-123834761D01*
X143595238Y-123882380D01*
X143357142Y-123882380D01*
X143261904Y-123834761D01*
X143214285Y-123787142D01*
X123666666Y-117152380D02*
X123666666Y-117866666D01*
X123619047Y-118009523D01*
X123523809Y-118104761D01*
X123380952Y-118152380D01*
X123285714Y-118152380D01*
X124095238Y-117247619D02*
X124142857Y-117200000D01*
X124238095Y-117152380D01*
X124476190Y-117152380D01*
X124571428Y-117200000D01*
X124619047Y-117247619D01*
X124666666Y-117342857D01*
X124666666Y-117438095D01*
X124619047Y-117580952D01*
X124047619Y-118152380D01*
X124666666Y-118152380D01*
X174722380Y-118066666D02*
X174246190Y-118400000D01*
X174722380Y-118638095D02*
X173722380Y-118638095D01*
X173722380Y-118257142D01*
X173770000Y-118161904D01*
X173817619Y-118114285D01*
X173912857Y-118066666D01*
X174055714Y-118066666D01*
X174150952Y-118114285D01*
X174198571Y-118161904D01*
X174246190Y-118257142D01*
X174246190Y-118638095D01*
X174055714Y-117209523D02*
X174722380Y-117209523D01*
X173674761Y-117447619D02*
X174389047Y-117685714D01*
X174389047Y-117066666D01*
X174722380Y-121766666D02*
X174246190Y-122100000D01*
X174722380Y-122338095D02*
X173722380Y-122338095D01*
X173722380Y-121957142D01*
X173770000Y-121861904D01*
X173817619Y-121814285D01*
X173912857Y-121766666D01*
X174055714Y-121766666D01*
X174150952Y-121814285D01*
X174198571Y-121861904D01*
X174246190Y-121957142D01*
X174246190Y-122338095D01*
X173722380Y-121433333D02*
X173722380Y-120814285D01*
X174103333Y-121147619D01*
X174103333Y-121004761D01*
X174150952Y-120909523D01*
X174198571Y-120861904D01*
X174293809Y-120814285D01*
X174531904Y-120814285D01*
X174627142Y-120861904D01*
X174674761Y-120909523D01*
X174722380Y-121004761D01*
X174722380Y-121290476D01*
X174674761Y-121385714D01*
X174627142Y-121433333D01*
X173961904Y-109802380D02*
X173961904Y-108802380D01*
X174200000Y-108802380D01*
X174342857Y-108850000D01*
X174438095Y-108945238D01*
X174485714Y-109040476D01*
X174533333Y-109230952D01*
X174533333Y-109373809D01*
X174485714Y-109564285D01*
X174438095Y-109659523D01*
X174342857Y-109754761D01*
X174200000Y-109802380D01*
X173961904Y-109802380D01*
X175485714Y-109802380D02*
X174914285Y-109802380D01*
X175200000Y-109802380D02*
X175200000Y-108802380D01*
X175104761Y-108945238D01*
X175009523Y-109040476D01*
X174914285Y-109088095D01*
X154882380Y-114166666D02*
X154406190Y-114500000D01*
X154882380Y-114738095D02*
X153882380Y-114738095D01*
X153882380Y-114357142D01*
X153930000Y-114261904D01*
X153977619Y-114214285D01*
X154072857Y-114166666D01*
X154215714Y-114166666D01*
X154310952Y-114214285D01*
X154358571Y-114261904D01*
X154406190Y-114357142D01*
X154406190Y-114738095D01*
X153977619Y-113785714D02*
X153930000Y-113738095D01*
X153882380Y-113642857D01*
X153882380Y-113404761D01*
X153930000Y-113309523D01*
X153977619Y-113261904D01*
X154072857Y-113214285D01*
X154168095Y-113214285D01*
X154310952Y-113261904D01*
X154882380Y-113833333D01*
X154882380Y-113214285D01*
X154882380Y-107166666D02*
X154406190Y-107500000D01*
X154882380Y-107738095D02*
X153882380Y-107738095D01*
X153882380Y-107357142D01*
X153930000Y-107261904D01*
X153977619Y-107214285D01*
X154072857Y-107166666D01*
X154215714Y-107166666D01*
X154310952Y-107214285D01*
X154358571Y-107261904D01*
X154406190Y-107357142D01*
X154406190Y-107738095D01*
X154882380Y-106214285D02*
X154882380Y-106785714D01*
X154882380Y-106500000D02*
X153882380Y-106500000D01*
X154025238Y-106595238D01*
X154120476Y-106690476D01*
X154168095Y-106785714D01*
X123666666Y-98152380D02*
X123666666Y-98866666D01*
X123619047Y-99009523D01*
X123523809Y-99104761D01*
X123380952Y-99152380D01*
X123285714Y-99152380D01*
X124619047Y-98152380D02*
X124142857Y-98152380D01*
X124095238Y-98628571D01*
X124142857Y-98580952D01*
X124238095Y-98533333D01*
X124476190Y-98533333D01*
X124571428Y-98580952D01*
X124619047Y-98628571D01*
X124666666Y-98723809D01*
X124666666Y-98961904D01*
X124619047Y-99057142D01*
X124571428Y-99104761D01*
X124476190Y-99152380D01*
X124238095Y-99152380D01*
X124142857Y-99104761D01*
X124095238Y-99057142D01*
X137666666Y-96652380D02*
X137666666Y-97366666D01*
X137619047Y-97509523D01*
X137523809Y-97604761D01*
X137380952Y-97652380D01*
X137285714Y-97652380D01*
X138571428Y-96985714D02*
X138571428Y-97652380D01*
X138333333Y-96604761D02*
X138095238Y-97319047D01*
X138714285Y-97319047D01*
X167166666Y-115252380D02*
X167166666Y-115966666D01*
X167119047Y-116109523D01*
X167023809Y-116204761D01*
X166880952Y-116252380D01*
X166785714Y-116252380D01*
X168166666Y-116252380D02*
X167595238Y-116252380D01*
X167880952Y-116252380D02*
X167880952Y-115252380D01*
X167785714Y-115395238D01*
X167690476Y-115490476D01*
X167595238Y-115538095D01*
M02*
