G04 #@! TF.GenerationSoftware,KiCad,Pcbnew,(5.1.5-0)*
G04 #@! TF.CreationDate,2020-12-28T17:14:56-07:00*
G04 #@! TF.ProjectId,back_v2,6261636b-5f76-4322-9e6b-696361645f70,rev?*
G04 #@! TF.SameCoordinates,Original*
G04 #@! TF.FileFunction,Copper,L2,Bot*
G04 #@! TF.FilePolarity,Positive*
%FSLAX46Y46*%
G04 Gerber Fmt 4.6, Leading zero omitted, Abs format (unit mm)*
G04 Created by KiCad (PCBNEW (5.1.5-0)) date 2020-12-28 17:14:56*
%MOMM*%
%LPD*%
G04 APERTURE LIST*
%ADD10O,1.200000X4.000000*%
%ADD11C,4.000000*%
%ADD12C,1.600000*%
%ADD13R,1.600000X1.600000*%
%ADD14C,5.800000*%
%ADD15C,0.254000*%
G04 APERTURE END LIST*
D10*
X157080000Y-118820000D03*
X157080000Y-103580000D03*
X159620000Y-118820000D03*
X159620000Y-103580000D03*
X162160000Y-118820000D03*
X162160000Y-103580000D03*
X164700000Y-118820000D03*
X164700000Y-103580000D03*
X167240000Y-118820000D03*
X167240000Y-103580000D03*
X169780000Y-118820000D03*
X169780000Y-103580000D03*
X172320000Y-118820000D03*
X172320000Y-103580000D03*
D11*
X137040000Y-110580000D03*
X112040000Y-110580000D03*
D12*
X128695000Y-109160000D03*
X125925000Y-109160000D03*
X123155000Y-109160000D03*
X120385000Y-109160000D03*
X130080000Y-112000000D03*
X127310000Y-112000000D03*
X124540000Y-112000000D03*
X121770000Y-112000000D03*
D13*
X119000000Y-112000000D03*
D14*
X100000000Y-100000000D03*
X100000000Y-122630000D03*
X195130000Y-100000000D03*
X195130000Y-122630000D03*
D15*
G36*
X195765502Y-96790476D02*
G01*
X196376802Y-96975039D01*
X196940603Y-97274817D01*
X197435445Y-97678399D01*
X197842474Y-98170412D01*
X198146184Y-98732112D01*
X198335008Y-99342104D01*
X198405000Y-100008036D01*
X198405001Y-122597712D01*
X198339524Y-123265501D01*
X198154962Y-123876800D01*
X197855183Y-124440603D01*
X197451598Y-124935447D01*
X196959587Y-125342474D01*
X196397888Y-125646184D01*
X195787896Y-125835008D01*
X195121964Y-125905000D01*
X100032278Y-125905000D01*
X99364499Y-125839524D01*
X98753200Y-125654962D01*
X98189397Y-125355183D01*
X97694553Y-124951598D01*
X97287526Y-124459587D01*
X96983816Y-123897888D01*
X96794992Y-123287896D01*
X96725000Y-122621964D01*
X96725000Y-120280664D01*
X155845000Y-120280664D01*
X155862870Y-120462101D01*
X155933489Y-120694900D01*
X156048167Y-120909448D01*
X156202498Y-121097502D01*
X156390551Y-121251833D01*
X156605099Y-121366511D01*
X156837898Y-121437130D01*
X157080000Y-121460975D01*
X157322101Y-121437130D01*
X157554900Y-121366511D01*
X157769448Y-121251833D01*
X157957502Y-121097502D01*
X158111833Y-120909449D01*
X158226511Y-120694901D01*
X158297130Y-120462102D01*
X158315000Y-120280665D01*
X158315000Y-120280664D01*
X158385000Y-120280664D01*
X158402870Y-120462101D01*
X158473489Y-120694900D01*
X158588167Y-120909448D01*
X158742498Y-121097502D01*
X158930551Y-121251833D01*
X159145099Y-121366511D01*
X159377898Y-121437130D01*
X159620000Y-121460975D01*
X159862101Y-121437130D01*
X160094900Y-121366511D01*
X160309448Y-121251833D01*
X160497502Y-121097502D01*
X160651833Y-120909449D01*
X160766511Y-120694901D01*
X160837130Y-120462102D01*
X160855000Y-120280665D01*
X160855000Y-120280664D01*
X160925000Y-120280664D01*
X160942870Y-120462101D01*
X161013489Y-120694900D01*
X161128167Y-120909448D01*
X161282498Y-121097502D01*
X161470551Y-121251833D01*
X161685099Y-121366511D01*
X161917898Y-121437130D01*
X162160000Y-121460975D01*
X162402101Y-121437130D01*
X162634900Y-121366511D01*
X162849448Y-121251833D01*
X163037502Y-121097502D01*
X163191833Y-120909449D01*
X163306511Y-120694901D01*
X163377130Y-120462102D01*
X163395000Y-120280665D01*
X163395000Y-120280664D01*
X163465000Y-120280664D01*
X163482870Y-120462101D01*
X163553489Y-120694900D01*
X163668167Y-120909448D01*
X163822498Y-121097502D01*
X164010551Y-121251833D01*
X164225099Y-121366511D01*
X164457898Y-121437130D01*
X164700000Y-121460975D01*
X164942101Y-121437130D01*
X165174900Y-121366511D01*
X165389448Y-121251833D01*
X165577502Y-121097502D01*
X165731833Y-120909449D01*
X165846511Y-120694901D01*
X165917130Y-120462102D01*
X165935000Y-120280665D01*
X165935000Y-120280664D01*
X166005000Y-120280664D01*
X166022870Y-120462101D01*
X166093489Y-120694900D01*
X166208167Y-120909448D01*
X166362498Y-121097502D01*
X166550551Y-121251833D01*
X166765099Y-121366511D01*
X166997898Y-121437130D01*
X167240000Y-121460975D01*
X167482101Y-121437130D01*
X167714900Y-121366511D01*
X167929448Y-121251833D01*
X168117502Y-121097502D01*
X168271833Y-120909449D01*
X168386511Y-120694901D01*
X168457130Y-120462102D01*
X168475000Y-120280665D01*
X168475000Y-120280664D01*
X168545000Y-120280664D01*
X168562870Y-120462101D01*
X168633489Y-120694900D01*
X168748167Y-120909448D01*
X168902498Y-121097502D01*
X169090551Y-121251833D01*
X169305099Y-121366511D01*
X169537898Y-121437130D01*
X169780000Y-121460975D01*
X170022101Y-121437130D01*
X170254900Y-121366511D01*
X170469448Y-121251833D01*
X170657502Y-121097502D01*
X170811833Y-120909449D01*
X170926511Y-120694901D01*
X170997130Y-120462102D01*
X171015000Y-120280665D01*
X171015000Y-120280664D01*
X171085000Y-120280664D01*
X171102870Y-120462101D01*
X171173489Y-120694900D01*
X171288167Y-120909448D01*
X171442498Y-121097502D01*
X171630551Y-121251833D01*
X171845099Y-121366511D01*
X172077898Y-121437130D01*
X172320000Y-121460975D01*
X172562101Y-121437130D01*
X172794900Y-121366511D01*
X173009448Y-121251833D01*
X173197502Y-121097502D01*
X173351833Y-120909449D01*
X173466511Y-120694901D01*
X173537130Y-120462102D01*
X173555000Y-120280665D01*
X173555000Y-117359335D01*
X173537130Y-117177898D01*
X173466511Y-116945099D01*
X173351833Y-116730551D01*
X173197502Y-116542498D01*
X173009449Y-116388167D01*
X172794901Y-116273489D01*
X172562102Y-116202870D01*
X172320000Y-116179025D01*
X172077899Y-116202870D01*
X171845100Y-116273489D01*
X171630552Y-116388167D01*
X171442499Y-116542498D01*
X171288168Y-116730551D01*
X171173490Y-116945099D01*
X171102871Y-117177898D01*
X171085001Y-117359335D01*
X171085000Y-120280664D01*
X171015000Y-120280664D01*
X171015000Y-117359335D01*
X170997130Y-117177898D01*
X170926511Y-116945099D01*
X170811833Y-116730551D01*
X170657502Y-116542498D01*
X170469449Y-116388167D01*
X170254901Y-116273489D01*
X170022102Y-116202870D01*
X169780000Y-116179025D01*
X169537899Y-116202870D01*
X169305100Y-116273489D01*
X169090552Y-116388167D01*
X168902499Y-116542498D01*
X168748168Y-116730551D01*
X168633490Y-116945099D01*
X168562871Y-117177898D01*
X168545001Y-117359335D01*
X168545000Y-120280664D01*
X168475000Y-120280664D01*
X168475000Y-117359335D01*
X168457130Y-117177898D01*
X168386511Y-116945099D01*
X168271833Y-116730551D01*
X168117502Y-116542498D01*
X167929449Y-116388167D01*
X167714901Y-116273489D01*
X167482102Y-116202870D01*
X167240000Y-116179025D01*
X166997899Y-116202870D01*
X166765100Y-116273489D01*
X166550552Y-116388167D01*
X166362499Y-116542498D01*
X166208168Y-116730551D01*
X166093490Y-116945099D01*
X166022871Y-117177898D01*
X166005001Y-117359335D01*
X166005000Y-120280664D01*
X165935000Y-120280664D01*
X165935000Y-117359335D01*
X165917130Y-117177898D01*
X165846511Y-116945099D01*
X165731833Y-116730551D01*
X165577502Y-116542498D01*
X165389449Y-116388167D01*
X165174901Y-116273489D01*
X164942102Y-116202870D01*
X164700000Y-116179025D01*
X164457899Y-116202870D01*
X164225100Y-116273489D01*
X164010552Y-116388167D01*
X163822499Y-116542498D01*
X163668168Y-116730551D01*
X163553490Y-116945099D01*
X163482871Y-117177898D01*
X163465001Y-117359335D01*
X163465000Y-120280664D01*
X163395000Y-120280664D01*
X163395000Y-117359335D01*
X163377130Y-117177898D01*
X163306511Y-116945099D01*
X163191833Y-116730551D01*
X163037502Y-116542498D01*
X162849449Y-116388167D01*
X162634901Y-116273489D01*
X162402102Y-116202870D01*
X162160000Y-116179025D01*
X161917899Y-116202870D01*
X161685100Y-116273489D01*
X161470552Y-116388167D01*
X161282499Y-116542498D01*
X161128168Y-116730551D01*
X161013490Y-116945099D01*
X160942871Y-117177898D01*
X160925001Y-117359335D01*
X160925000Y-120280664D01*
X160855000Y-120280664D01*
X160855000Y-117359335D01*
X160837130Y-117177898D01*
X160766511Y-116945099D01*
X160651833Y-116730551D01*
X160497502Y-116542498D01*
X160309449Y-116388167D01*
X160094901Y-116273489D01*
X159862102Y-116202870D01*
X159620000Y-116179025D01*
X159377899Y-116202870D01*
X159145100Y-116273489D01*
X158930552Y-116388167D01*
X158742499Y-116542498D01*
X158588168Y-116730551D01*
X158473490Y-116945099D01*
X158402871Y-117177898D01*
X158385001Y-117359335D01*
X158385000Y-120280664D01*
X158315000Y-120280664D01*
X158315000Y-117359335D01*
X158297130Y-117177898D01*
X158226511Y-116945099D01*
X158111833Y-116730551D01*
X157957502Y-116542498D01*
X157769449Y-116388167D01*
X157554901Y-116273489D01*
X157322102Y-116202870D01*
X157080000Y-116179025D01*
X156837899Y-116202870D01*
X156605100Y-116273489D01*
X156390552Y-116388167D01*
X156202499Y-116542498D01*
X156048168Y-116730551D01*
X155933490Y-116945099D01*
X155862871Y-117177898D01*
X155845001Y-117359335D01*
X155845000Y-120280664D01*
X96725000Y-120280664D01*
X96725000Y-112427499D01*
X110372106Y-112427499D01*
X110588228Y-112794258D01*
X111048105Y-113034938D01*
X111546098Y-113181275D01*
X112063071Y-113227648D01*
X112579159Y-113172273D01*
X113074526Y-113017279D01*
X113491772Y-112794258D01*
X113707894Y-112427499D01*
X112040000Y-110759605D01*
X110372106Y-112427499D01*
X96725000Y-112427499D01*
X96725000Y-110603071D01*
X109392352Y-110603071D01*
X109447727Y-111119159D01*
X109602721Y-111614526D01*
X109825742Y-112031772D01*
X110192501Y-112247894D01*
X111860395Y-110580000D01*
X112219605Y-110580000D01*
X113887499Y-112247894D01*
X114254258Y-112031772D01*
X114494938Y-111571895D01*
X114604220Y-111200000D01*
X117561928Y-111200000D01*
X117561928Y-112800000D01*
X117574188Y-112924482D01*
X117610498Y-113044180D01*
X117669463Y-113154494D01*
X117748815Y-113251185D01*
X117845506Y-113330537D01*
X117955820Y-113389502D01*
X118075518Y-113425812D01*
X118200000Y-113438072D01*
X119800000Y-113438072D01*
X119924482Y-113425812D01*
X120044180Y-113389502D01*
X120154494Y-113330537D01*
X120251185Y-113251185D01*
X120330537Y-113154494D01*
X120389502Y-113044180D01*
X120405117Y-112992702D01*
X120956903Y-112992702D01*
X121028486Y-113236671D01*
X121283996Y-113357571D01*
X121558184Y-113426300D01*
X121840512Y-113440217D01*
X122120130Y-113398787D01*
X122386292Y-113303603D01*
X122511514Y-113236671D01*
X122583097Y-112992702D01*
X123726903Y-112992702D01*
X123798486Y-113236671D01*
X124053996Y-113357571D01*
X124328184Y-113426300D01*
X124610512Y-113440217D01*
X124890130Y-113398787D01*
X125156292Y-113303603D01*
X125281514Y-113236671D01*
X125353097Y-112992702D01*
X124540000Y-112179605D01*
X123726903Y-112992702D01*
X122583097Y-112992702D01*
X121770000Y-112179605D01*
X120956903Y-112992702D01*
X120405117Y-112992702D01*
X120425812Y-112924482D01*
X120438072Y-112800000D01*
X120438072Y-112537087D01*
X120466397Y-112616292D01*
X120533329Y-112741514D01*
X120777298Y-112813097D01*
X121590395Y-112000000D01*
X121949605Y-112000000D01*
X122762702Y-112813097D01*
X123006671Y-112741514D01*
X123127571Y-112486004D01*
X123153216Y-112383695D01*
X123236397Y-112616292D01*
X123303329Y-112741514D01*
X123547298Y-112813097D01*
X124360395Y-112000000D01*
X124719605Y-112000000D01*
X125532702Y-112813097D01*
X125776671Y-112741514D01*
X125897571Y-112486004D01*
X125923212Y-112383711D01*
X125930147Y-112418574D01*
X126038320Y-112679727D01*
X126195363Y-112914759D01*
X126395241Y-113114637D01*
X126630273Y-113271680D01*
X126891426Y-113379853D01*
X127168665Y-113435000D01*
X127451335Y-113435000D01*
X127728574Y-113379853D01*
X127989727Y-113271680D01*
X128224759Y-113114637D01*
X128424637Y-112914759D01*
X128581680Y-112679727D01*
X128689853Y-112418574D01*
X128695000Y-112392699D01*
X128700147Y-112418574D01*
X128808320Y-112679727D01*
X128965363Y-112914759D01*
X129165241Y-113114637D01*
X129400273Y-113271680D01*
X129661426Y-113379853D01*
X129938665Y-113435000D01*
X130221335Y-113435000D01*
X130498574Y-113379853D01*
X130759727Y-113271680D01*
X130994759Y-113114637D01*
X131194637Y-112914759D01*
X131351680Y-112679727D01*
X131456156Y-112427499D01*
X135372106Y-112427499D01*
X135588228Y-112794258D01*
X136048105Y-113034938D01*
X136546098Y-113181275D01*
X137063071Y-113227648D01*
X137579159Y-113172273D01*
X138074526Y-113017279D01*
X138491772Y-112794258D01*
X138707894Y-112427499D01*
X137040000Y-110759605D01*
X135372106Y-112427499D01*
X131456156Y-112427499D01*
X131459853Y-112418574D01*
X131515000Y-112141335D01*
X131515000Y-111858665D01*
X131459853Y-111581426D01*
X131351680Y-111320273D01*
X131194637Y-111085241D01*
X130994759Y-110885363D01*
X130759727Y-110728320D01*
X130498574Y-110620147D01*
X130412729Y-110603071D01*
X134392352Y-110603071D01*
X134447727Y-111119159D01*
X134602721Y-111614526D01*
X134825742Y-112031772D01*
X135192501Y-112247894D01*
X136860395Y-110580000D01*
X137219605Y-110580000D01*
X138887499Y-112247894D01*
X139254258Y-112031772D01*
X139494938Y-111571895D01*
X139641275Y-111073902D01*
X139687648Y-110556929D01*
X139632273Y-110040841D01*
X139477279Y-109545474D01*
X139254258Y-109128228D01*
X138887499Y-108912106D01*
X137219605Y-110580000D01*
X136860395Y-110580000D01*
X135192501Y-108912106D01*
X134825742Y-109128228D01*
X134585062Y-109588105D01*
X134438725Y-110086098D01*
X134392352Y-110603071D01*
X130412729Y-110603071D01*
X130221335Y-110565000D01*
X129938665Y-110565000D01*
X129661426Y-110620147D01*
X129400273Y-110728320D01*
X129165241Y-110885363D01*
X128965363Y-111085241D01*
X128808320Y-111320273D01*
X128700147Y-111581426D01*
X128695000Y-111607301D01*
X128689853Y-111581426D01*
X128581680Y-111320273D01*
X128424637Y-111085241D01*
X128224759Y-110885363D01*
X127989727Y-110728320D01*
X127728574Y-110620147D01*
X127451335Y-110565000D01*
X127168665Y-110565000D01*
X126891426Y-110620147D01*
X126630273Y-110728320D01*
X126395241Y-110885363D01*
X126195363Y-111085241D01*
X126038320Y-111320273D01*
X125930147Y-111581426D01*
X125924487Y-111609882D01*
X125843603Y-111383708D01*
X125776671Y-111258486D01*
X125532702Y-111186903D01*
X124719605Y-112000000D01*
X124360395Y-112000000D01*
X123547298Y-111186903D01*
X123303329Y-111258486D01*
X123182429Y-111513996D01*
X123156784Y-111616305D01*
X123073603Y-111383708D01*
X123006671Y-111258486D01*
X122762702Y-111186903D01*
X121949605Y-112000000D01*
X121590395Y-112000000D01*
X120777298Y-111186903D01*
X120533329Y-111258486D01*
X120438072Y-111459802D01*
X120438072Y-111200000D01*
X120425812Y-111075518D01*
X120405118Y-111007298D01*
X120956903Y-111007298D01*
X121770000Y-111820395D01*
X122583097Y-111007298D01*
X123726903Y-111007298D01*
X124540000Y-111820395D01*
X125353097Y-111007298D01*
X125281514Y-110763329D01*
X125026004Y-110642429D01*
X124751816Y-110573700D01*
X124469488Y-110559783D01*
X124189870Y-110601213D01*
X123923708Y-110696397D01*
X123798486Y-110763329D01*
X123726903Y-111007298D01*
X122583097Y-111007298D01*
X122511514Y-110763329D01*
X122256004Y-110642429D01*
X121981816Y-110573700D01*
X121699488Y-110559783D01*
X121419870Y-110601213D01*
X121153708Y-110696397D01*
X121028486Y-110763329D01*
X120956903Y-111007298D01*
X120405118Y-111007298D01*
X120389502Y-110955820D01*
X120330537Y-110845506D01*
X120251185Y-110748815D01*
X120154494Y-110669463D01*
X120044180Y-110610498D01*
X119924482Y-110574188D01*
X119800000Y-110561928D01*
X118200000Y-110561928D01*
X118075518Y-110574188D01*
X117955820Y-110610498D01*
X117845506Y-110669463D01*
X117748815Y-110748815D01*
X117669463Y-110845506D01*
X117610498Y-110955820D01*
X117574188Y-111075518D01*
X117561928Y-111200000D01*
X114604220Y-111200000D01*
X114641275Y-111073902D01*
X114687648Y-110556929D01*
X114644276Y-110152702D01*
X119571903Y-110152702D01*
X119643486Y-110396671D01*
X119898996Y-110517571D01*
X120173184Y-110586300D01*
X120455512Y-110600217D01*
X120735130Y-110558787D01*
X121001292Y-110463603D01*
X121126514Y-110396671D01*
X121198097Y-110152702D01*
X120385000Y-109339605D01*
X119571903Y-110152702D01*
X114644276Y-110152702D01*
X114632273Y-110040841D01*
X114477279Y-109545474D01*
X114308930Y-109230512D01*
X118944783Y-109230512D01*
X118986213Y-109510130D01*
X119081397Y-109776292D01*
X119148329Y-109901514D01*
X119392298Y-109973097D01*
X120205395Y-109160000D01*
X120564605Y-109160000D01*
X121377702Y-109973097D01*
X121621671Y-109901514D01*
X121742571Y-109646004D01*
X121768212Y-109543711D01*
X121775147Y-109578574D01*
X121883320Y-109839727D01*
X122040363Y-110074759D01*
X122240241Y-110274637D01*
X122475273Y-110431680D01*
X122736426Y-110539853D01*
X123013665Y-110595000D01*
X123296335Y-110595000D01*
X123573574Y-110539853D01*
X123834727Y-110431680D01*
X124069759Y-110274637D01*
X124269637Y-110074759D01*
X124426680Y-109839727D01*
X124534853Y-109578574D01*
X124540000Y-109552699D01*
X124545147Y-109578574D01*
X124653320Y-109839727D01*
X124810363Y-110074759D01*
X125010241Y-110274637D01*
X125245273Y-110431680D01*
X125506426Y-110539853D01*
X125783665Y-110595000D01*
X126066335Y-110595000D01*
X126343574Y-110539853D01*
X126604727Y-110431680D01*
X126839759Y-110274637D01*
X127039637Y-110074759D01*
X127196680Y-109839727D01*
X127304853Y-109578574D01*
X127310000Y-109552699D01*
X127315147Y-109578574D01*
X127423320Y-109839727D01*
X127580363Y-110074759D01*
X127780241Y-110274637D01*
X128015273Y-110431680D01*
X128276426Y-110539853D01*
X128553665Y-110595000D01*
X128836335Y-110595000D01*
X129113574Y-110539853D01*
X129374727Y-110431680D01*
X129609759Y-110274637D01*
X129809637Y-110074759D01*
X129966680Y-109839727D01*
X130074853Y-109578574D01*
X130130000Y-109301335D01*
X130130000Y-109018665D01*
X130074853Y-108741426D01*
X130071157Y-108732501D01*
X135372106Y-108732501D01*
X137040000Y-110400395D01*
X138707894Y-108732501D01*
X138491772Y-108365742D01*
X138031895Y-108125062D01*
X137533902Y-107978725D01*
X137016929Y-107932352D01*
X136500841Y-107987727D01*
X136005474Y-108142721D01*
X135588228Y-108365742D01*
X135372106Y-108732501D01*
X130071157Y-108732501D01*
X129966680Y-108480273D01*
X129809637Y-108245241D01*
X129609759Y-108045363D01*
X129374727Y-107888320D01*
X129113574Y-107780147D01*
X128836335Y-107725000D01*
X128553665Y-107725000D01*
X128276426Y-107780147D01*
X128015273Y-107888320D01*
X127780241Y-108045363D01*
X127580363Y-108245241D01*
X127423320Y-108480273D01*
X127315147Y-108741426D01*
X127310000Y-108767301D01*
X127304853Y-108741426D01*
X127196680Y-108480273D01*
X127039637Y-108245241D01*
X126839759Y-108045363D01*
X126604727Y-107888320D01*
X126343574Y-107780147D01*
X126066335Y-107725000D01*
X125783665Y-107725000D01*
X125506426Y-107780147D01*
X125245273Y-107888320D01*
X125010241Y-108045363D01*
X124810363Y-108245241D01*
X124653320Y-108480273D01*
X124545147Y-108741426D01*
X124540000Y-108767301D01*
X124534853Y-108741426D01*
X124426680Y-108480273D01*
X124269637Y-108245241D01*
X124069759Y-108045363D01*
X123834727Y-107888320D01*
X123573574Y-107780147D01*
X123296335Y-107725000D01*
X123013665Y-107725000D01*
X122736426Y-107780147D01*
X122475273Y-107888320D01*
X122240241Y-108045363D01*
X122040363Y-108245241D01*
X121883320Y-108480273D01*
X121775147Y-108741426D01*
X121769487Y-108769882D01*
X121688603Y-108543708D01*
X121621671Y-108418486D01*
X121377702Y-108346903D01*
X120564605Y-109160000D01*
X120205395Y-109160000D01*
X119392298Y-108346903D01*
X119148329Y-108418486D01*
X119027429Y-108673996D01*
X118958700Y-108948184D01*
X118944783Y-109230512D01*
X114308930Y-109230512D01*
X114254258Y-109128228D01*
X113887499Y-108912106D01*
X112219605Y-110580000D01*
X111860395Y-110580000D01*
X110192501Y-108912106D01*
X109825742Y-109128228D01*
X109585062Y-109588105D01*
X109438725Y-110086098D01*
X109392352Y-110603071D01*
X96725000Y-110603071D01*
X96725000Y-108732501D01*
X110372106Y-108732501D01*
X112040000Y-110400395D01*
X113707894Y-108732501D01*
X113491772Y-108365742D01*
X113112598Y-108167298D01*
X119571903Y-108167298D01*
X120385000Y-108980395D01*
X121198097Y-108167298D01*
X121126514Y-107923329D01*
X120871004Y-107802429D01*
X120596816Y-107733700D01*
X120314488Y-107719783D01*
X120034870Y-107761213D01*
X119768708Y-107856397D01*
X119643486Y-107923329D01*
X119571903Y-108167298D01*
X113112598Y-108167298D01*
X113031895Y-108125062D01*
X112533902Y-107978725D01*
X112016929Y-107932352D01*
X111500841Y-107987727D01*
X111005474Y-108142721D01*
X110588228Y-108365742D01*
X110372106Y-108732501D01*
X96725000Y-108732501D01*
X96725000Y-105040664D01*
X155845000Y-105040664D01*
X155862870Y-105222101D01*
X155933489Y-105454900D01*
X156048167Y-105669448D01*
X156202498Y-105857502D01*
X156390551Y-106011833D01*
X156605099Y-106126511D01*
X156837898Y-106197130D01*
X157080000Y-106220975D01*
X157322101Y-106197130D01*
X157554900Y-106126511D01*
X157769448Y-106011833D01*
X157957502Y-105857502D01*
X158111833Y-105669449D01*
X158226511Y-105454901D01*
X158297130Y-105222102D01*
X158315000Y-105040665D01*
X158315000Y-105040664D01*
X158385000Y-105040664D01*
X158402870Y-105222101D01*
X158473489Y-105454900D01*
X158588167Y-105669448D01*
X158742498Y-105857502D01*
X158930551Y-106011833D01*
X159145099Y-106126511D01*
X159377898Y-106197130D01*
X159620000Y-106220975D01*
X159862101Y-106197130D01*
X160094900Y-106126511D01*
X160309448Y-106011833D01*
X160497502Y-105857502D01*
X160651833Y-105669449D01*
X160766511Y-105454901D01*
X160837130Y-105222102D01*
X160855000Y-105040665D01*
X160855000Y-105040664D01*
X160925000Y-105040664D01*
X160942870Y-105222101D01*
X161013489Y-105454900D01*
X161128167Y-105669448D01*
X161282498Y-105857502D01*
X161470551Y-106011833D01*
X161685099Y-106126511D01*
X161917898Y-106197130D01*
X162160000Y-106220975D01*
X162402101Y-106197130D01*
X162634900Y-106126511D01*
X162849448Y-106011833D01*
X163037502Y-105857502D01*
X163191833Y-105669449D01*
X163306511Y-105454901D01*
X163377130Y-105222102D01*
X163395000Y-105040665D01*
X163395000Y-105040664D01*
X163465000Y-105040664D01*
X163482870Y-105222101D01*
X163553489Y-105454900D01*
X163668167Y-105669448D01*
X163822498Y-105857502D01*
X164010551Y-106011833D01*
X164225099Y-106126511D01*
X164457898Y-106197130D01*
X164700000Y-106220975D01*
X164942101Y-106197130D01*
X165174900Y-106126511D01*
X165389448Y-106011833D01*
X165577502Y-105857502D01*
X165731833Y-105669449D01*
X165846511Y-105454901D01*
X165917130Y-105222102D01*
X165935000Y-105040665D01*
X165935000Y-105040664D01*
X166005000Y-105040664D01*
X166022870Y-105222101D01*
X166093489Y-105454900D01*
X166208167Y-105669448D01*
X166362498Y-105857502D01*
X166550551Y-106011833D01*
X166765099Y-106126511D01*
X166997898Y-106197130D01*
X167240000Y-106220975D01*
X167482101Y-106197130D01*
X167714900Y-106126511D01*
X167929448Y-106011833D01*
X168117502Y-105857502D01*
X168271833Y-105669449D01*
X168386511Y-105454901D01*
X168457130Y-105222102D01*
X168475000Y-105040665D01*
X168475000Y-105040664D01*
X168545000Y-105040664D01*
X168562870Y-105222101D01*
X168633489Y-105454900D01*
X168748167Y-105669448D01*
X168902498Y-105857502D01*
X169090551Y-106011833D01*
X169305099Y-106126511D01*
X169537898Y-106197130D01*
X169780000Y-106220975D01*
X170022101Y-106197130D01*
X170254900Y-106126511D01*
X170469448Y-106011833D01*
X170657502Y-105857502D01*
X170811833Y-105669449D01*
X170926511Y-105454901D01*
X170997130Y-105222102D01*
X171015000Y-105040665D01*
X171015000Y-105040664D01*
X171085000Y-105040664D01*
X171102870Y-105222101D01*
X171173489Y-105454900D01*
X171288167Y-105669448D01*
X171442498Y-105857502D01*
X171630551Y-106011833D01*
X171845099Y-106126511D01*
X172077898Y-106197130D01*
X172320000Y-106220975D01*
X172562101Y-106197130D01*
X172794900Y-106126511D01*
X173009448Y-106011833D01*
X173197502Y-105857502D01*
X173351833Y-105669449D01*
X173466511Y-105454901D01*
X173537130Y-105222102D01*
X173555000Y-105040665D01*
X173555000Y-102119335D01*
X173537130Y-101937898D01*
X173466511Y-101705099D01*
X173351833Y-101490551D01*
X173197502Y-101302498D01*
X173009449Y-101148167D01*
X172794901Y-101033489D01*
X172562102Y-100962870D01*
X172320000Y-100939025D01*
X172077899Y-100962870D01*
X171845100Y-101033489D01*
X171630552Y-101148167D01*
X171442499Y-101302498D01*
X171288168Y-101490551D01*
X171173490Y-101705099D01*
X171102871Y-101937898D01*
X171085001Y-102119335D01*
X171085000Y-105040664D01*
X171015000Y-105040664D01*
X171015000Y-102119335D01*
X170997130Y-101937898D01*
X170926511Y-101705099D01*
X170811833Y-101490551D01*
X170657502Y-101302498D01*
X170469449Y-101148167D01*
X170254901Y-101033489D01*
X170022102Y-100962870D01*
X169780000Y-100939025D01*
X169537899Y-100962870D01*
X169305100Y-101033489D01*
X169090552Y-101148167D01*
X168902499Y-101302498D01*
X168748168Y-101490551D01*
X168633490Y-101705099D01*
X168562871Y-101937898D01*
X168545001Y-102119335D01*
X168545000Y-105040664D01*
X168475000Y-105040664D01*
X168475000Y-102119335D01*
X168457130Y-101937898D01*
X168386511Y-101705099D01*
X168271833Y-101490551D01*
X168117502Y-101302498D01*
X167929449Y-101148167D01*
X167714901Y-101033489D01*
X167482102Y-100962870D01*
X167240000Y-100939025D01*
X166997899Y-100962870D01*
X166765100Y-101033489D01*
X166550552Y-101148167D01*
X166362499Y-101302498D01*
X166208168Y-101490551D01*
X166093490Y-101705099D01*
X166022871Y-101937898D01*
X166005001Y-102119335D01*
X166005000Y-105040664D01*
X165935000Y-105040664D01*
X165935000Y-102119335D01*
X165917130Y-101937898D01*
X165846511Y-101705099D01*
X165731833Y-101490551D01*
X165577502Y-101302498D01*
X165389449Y-101148167D01*
X165174901Y-101033489D01*
X164942102Y-100962870D01*
X164700000Y-100939025D01*
X164457899Y-100962870D01*
X164225100Y-101033489D01*
X164010552Y-101148167D01*
X163822499Y-101302498D01*
X163668168Y-101490551D01*
X163553490Y-101705099D01*
X163482871Y-101937898D01*
X163465001Y-102119335D01*
X163465000Y-105040664D01*
X163395000Y-105040664D01*
X163395000Y-102119335D01*
X163377130Y-101937898D01*
X163306511Y-101705099D01*
X163191833Y-101490551D01*
X163037502Y-101302498D01*
X162849449Y-101148167D01*
X162634901Y-101033489D01*
X162402102Y-100962870D01*
X162160000Y-100939025D01*
X161917899Y-100962870D01*
X161685100Y-101033489D01*
X161470552Y-101148167D01*
X161282499Y-101302498D01*
X161128168Y-101490551D01*
X161013490Y-101705099D01*
X160942871Y-101937898D01*
X160925001Y-102119335D01*
X160925000Y-105040664D01*
X160855000Y-105040664D01*
X160855000Y-102119335D01*
X160837130Y-101937898D01*
X160766511Y-101705099D01*
X160651833Y-101490551D01*
X160497502Y-101302498D01*
X160309449Y-101148167D01*
X160094901Y-101033489D01*
X159862102Y-100962870D01*
X159620000Y-100939025D01*
X159377899Y-100962870D01*
X159145100Y-101033489D01*
X158930552Y-101148167D01*
X158742499Y-101302498D01*
X158588168Y-101490551D01*
X158473490Y-101705099D01*
X158402871Y-101937898D01*
X158385001Y-102119335D01*
X158385000Y-105040664D01*
X158315000Y-105040664D01*
X158315000Y-102119335D01*
X158297130Y-101937898D01*
X158226511Y-101705099D01*
X158111833Y-101490551D01*
X157957502Y-101302498D01*
X157769449Y-101148167D01*
X157554901Y-101033489D01*
X157322102Y-100962870D01*
X157080000Y-100939025D01*
X156837899Y-100962870D01*
X156605100Y-101033489D01*
X156390552Y-101148167D01*
X156202499Y-101302498D01*
X156048168Y-101490551D01*
X155933490Y-101705099D01*
X155862871Y-101937898D01*
X155845001Y-102119335D01*
X155845000Y-105040664D01*
X96725000Y-105040664D01*
X96725000Y-100032278D01*
X96790476Y-99364498D01*
X96975039Y-98753198D01*
X97274817Y-98189397D01*
X97678399Y-97694555D01*
X98170412Y-97287526D01*
X98732112Y-96983816D01*
X99342104Y-96794992D01*
X100008036Y-96725000D01*
X195097722Y-96725000D01*
X195765502Y-96790476D01*
G37*
X195765502Y-96790476D02*
X196376802Y-96975039D01*
X196940603Y-97274817D01*
X197435445Y-97678399D01*
X197842474Y-98170412D01*
X198146184Y-98732112D01*
X198335008Y-99342104D01*
X198405000Y-100008036D01*
X198405001Y-122597712D01*
X198339524Y-123265501D01*
X198154962Y-123876800D01*
X197855183Y-124440603D01*
X197451598Y-124935447D01*
X196959587Y-125342474D01*
X196397888Y-125646184D01*
X195787896Y-125835008D01*
X195121964Y-125905000D01*
X100032278Y-125905000D01*
X99364499Y-125839524D01*
X98753200Y-125654962D01*
X98189397Y-125355183D01*
X97694553Y-124951598D01*
X97287526Y-124459587D01*
X96983816Y-123897888D01*
X96794992Y-123287896D01*
X96725000Y-122621964D01*
X96725000Y-120280664D01*
X155845000Y-120280664D01*
X155862870Y-120462101D01*
X155933489Y-120694900D01*
X156048167Y-120909448D01*
X156202498Y-121097502D01*
X156390551Y-121251833D01*
X156605099Y-121366511D01*
X156837898Y-121437130D01*
X157080000Y-121460975D01*
X157322101Y-121437130D01*
X157554900Y-121366511D01*
X157769448Y-121251833D01*
X157957502Y-121097502D01*
X158111833Y-120909449D01*
X158226511Y-120694901D01*
X158297130Y-120462102D01*
X158315000Y-120280665D01*
X158315000Y-120280664D01*
X158385000Y-120280664D01*
X158402870Y-120462101D01*
X158473489Y-120694900D01*
X158588167Y-120909448D01*
X158742498Y-121097502D01*
X158930551Y-121251833D01*
X159145099Y-121366511D01*
X159377898Y-121437130D01*
X159620000Y-121460975D01*
X159862101Y-121437130D01*
X160094900Y-121366511D01*
X160309448Y-121251833D01*
X160497502Y-121097502D01*
X160651833Y-120909449D01*
X160766511Y-120694901D01*
X160837130Y-120462102D01*
X160855000Y-120280665D01*
X160855000Y-120280664D01*
X160925000Y-120280664D01*
X160942870Y-120462101D01*
X161013489Y-120694900D01*
X161128167Y-120909448D01*
X161282498Y-121097502D01*
X161470551Y-121251833D01*
X161685099Y-121366511D01*
X161917898Y-121437130D01*
X162160000Y-121460975D01*
X162402101Y-121437130D01*
X162634900Y-121366511D01*
X162849448Y-121251833D01*
X163037502Y-121097502D01*
X163191833Y-120909449D01*
X163306511Y-120694901D01*
X163377130Y-120462102D01*
X163395000Y-120280665D01*
X163395000Y-120280664D01*
X163465000Y-120280664D01*
X163482870Y-120462101D01*
X163553489Y-120694900D01*
X163668167Y-120909448D01*
X163822498Y-121097502D01*
X164010551Y-121251833D01*
X164225099Y-121366511D01*
X164457898Y-121437130D01*
X164700000Y-121460975D01*
X164942101Y-121437130D01*
X165174900Y-121366511D01*
X165389448Y-121251833D01*
X165577502Y-121097502D01*
X165731833Y-120909449D01*
X165846511Y-120694901D01*
X165917130Y-120462102D01*
X165935000Y-120280665D01*
X165935000Y-120280664D01*
X166005000Y-120280664D01*
X166022870Y-120462101D01*
X166093489Y-120694900D01*
X166208167Y-120909448D01*
X166362498Y-121097502D01*
X166550551Y-121251833D01*
X166765099Y-121366511D01*
X166997898Y-121437130D01*
X167240000Y-121460975D01*
X167482101Y-121437130D01*
X167714900Y-121366511D01*
X167929448Y-121251833D01*
X168117502Y-121097502D01*
X168271833Y-120909449D01*
X168386511Y-120694901D01*
X168457130Y-120462102D01*
X168475000Y-120280665D01*
X168475000Y-120280664D01*
X168545000Y-120280664D01*
X168562870Y-120462101D01*
X168633489Y-120694900D01*
X168748167Y-120909448D01*
X168902498Y-121097502D01*
X169090551Y-121251833D01*
X169305099Y-121366511D01*
X169537898Y-121437130D01*
X169780000Y-121460975D01*
X170022101Y-121437130D01*
X170254900Y-121366511D01*
X170469448Y-121251833D01*
X170657502Y-121097502D01*
X170811833Y-120909449D01*
X170926511Y-120694901D01*
X170997130Y-120462102D01*
X171015000Y-120280665D01*
X171015000Y-120280664D01*
X171085000Y-120280664D01*
X171102870Y-120462101D01*
X171173489Y-120694900D01*
X171288167Y-120909448D01*
X171442498Y-121097502D01*
X171630551Y-121251833D01*
X171845099Y-121366511D01*
X172077898Y-121437130D01*
X172320000Y-121460975D01*
X172562101Y-121437130D01*
X172794900Y-121366511D01*
X173009448Y-121251833D01*
X173197502Y-121097502D01*
X173351833Y-120909449D01*
X173466511Y-120694901D01*
X173537130Y-120462102D01*
X173555000Y-120280665D01*
X173555000Y-117359335D01*
X173537130Y-117177898D01*
X173466511Y-116945099D01*
X173351833Y-116730551D01*
X173197502Y-116542498D01*
X173009449Y-116388167D01*
X172794901Y-116273489D01*
X172562102Y-116202870D01*
X172320000Y-116179025D01*
X172077899Y-116202870D01*
X171845100Y-116273489D01*
X171630552Y-116388167D01*
X171442499Y-116542498D01*
X171288168Y-116730551D01*
X171173490Y-116945099D01*
X171102871Y-117177898D01*
X171085001Y-117359335D01*
X171085000Y-120280664D01*
X171015000Y-120280664D01*
X171015000Y-117359335D01*
X170997130Y-117177898D01*
X170926511Y-116945099D01*
X170811833Y-116730551D01*
X170657502Y-116542498D01*
X170469449Y-116388167D01*
X170254901Y-116273489D01*
X170022102Y-116202870D01*
X169780000Y-116179025D01*
X169537899Y-116202870D01*
X169305100Y-116273489D01*
X169090552Y-116388167D01*
X168902499Y-116542498D01*
X168748168Y-116730551D01*
X168633490Y-116945099D01*
X168562871Y-117177898D01*
X168545001Y-117359335D01*
X168545000Y-120280664D01*
X168475000Y-120280664D01*
X168475000Y-117359335D01*
X168457130Y-117177898D01*
X168386511Y-116945099D01*
X168271833Y-116730551D01*
X168117502Y-116542498D01*
X167929449Y-116388167D01*
X167714901Y-116273489D01*
X167482102Y-116202870D01*
X167240000Y-116179025D01*
X166997899Y-116202870D01*
X166765100Y-116273489D01*
X166550552Y-116388167D01*
X166362499Y-116542498D01*
X166208168Y-116730551D01*
X166093490Y-116945099D01*
X166022871Y-117177898D01*
X166005001Y-117359335D01*
X166005000Y-120280664D01*
X165935000Y-120280664D01*
X165935000Y-117359335D01*
X165917130Y-117177898D01*
X165846511Y-116945099D01*
X165731833Y-116730551D01*
X165577502Y-116542498D01*
X165389449Y-116388167D01*
X165174901Y-116273489D01*
X164942102Y-116202870D01*
X164700000Y-116179025D01*
X164457899Y-116202870D01*
X164225100Y-116273489D01*
X164010552Y-116388167D01*
X163822499Y-116542498D01*
X163668168Y-116730551D01*
X163553490Y-116945099D01*
X163482871Y-117177898D01*
X163465001Y-117359335D01*
X163465000Y-120280664D01*
X163395000Y-120280664D01*
X163395000Y-117359335D01*
X163377130Y-117177898D01*
X163306511Y-116945099D01*
X163191833Y-116730551D01*
X163037502Y-116542498D01*
X162849449Y-116388167D01*
X162634901Y-116273489D01*
X162402102Y-116202870D01*
X162160000Y-116179025D01*
X161917899Y-116202870D01*
X161685100Y-116273489D01*
X161470552Y-116388167D01*
X161282499Y-116542498D01*
X161128168Y-116730551D01*
X161013490Y-116945099D01*
X160942871Y-117177898D01*
X160925001Y-117359335D01*
X160925000Y-120280664D01*
X160855000Y-120280664D01*
X160855000Y-117359335D01*
X160837130Y-117177898D01*
X160766511Y-116945099D01*
X160651833Y-116730551D01*
X160497502Y-116542498D01*
X160309449Y-116388167D01*
X160094901Y-116273489D01*
X159862102Y-116202870D01*
X159620000Y-116179025D01*
X159377899Y-116202870D01*
X159145100Y-116273489D01*
X158930552Y-116388167D01*
X158742499Y-116542498D01*
X158588168Y-116730551D01*
X158473490Y-116945099D01*
X158402871Y-117177898D01*
X158385001Y-117359335D01*
X158385000Y-120280664D01*
X158315000Y-120280664D01*
X158315000Y-117359335D01*
X158297130Y-117177898D01*
X158226511Y-116945099D01*
X158111833Y-116730551D01*
X157957502Y-116542498D01*
X157769449Y-116388167D01*
X157554901Y-116273489D01*
X157322102Y-116202870D01*
X157080000Y-116179025D01*
X156837899Y-116202870D01*
X156605100Y-116273489D01*
X156390552Y-116388167D01*
X156202499Y-116542498D01*
X156048168Y-116730551D01*
X155933490Y-116945099D01*
X155862871Y-117177898D01*
X155845001Y-117359335D01*
X155845000Y-120280664D01*
X96725000Y-120280664D01*
X96725000Y-112427499D01*
X110372106Y-112427499D01*
X110588228Y-112794258D01*
X111048105Y-113034938D01*
X111546098Y-113181275D01*
X112063071Y-113227648D01*
X112579159Y-113172273D01*
X113074526Y-113017279D01*
X113491772Y-112794258D01*
X113707894Y-112427499D01*
X112040000Y-110759605D01*
X110372106Y-112427499D01*
X96725000Y-112427499D01*
X96725000Y-110603071D01*
X109392352Y-110603071D01*
X109447727Y-111119159D01*
X109602721Y-111614526D01*
X109825742Y-112031772D01*
X110192501Y-112247894D01*
X111860395Y-110580000D01*
X112219605Y-110580000D01*
X113887499Y-112247894D01*
X114254258Y-112031772D01*
X114494938Y-111571895D01*
X114604220Y-111200000D01*
X117561928Y-111200000D01*
X117561928Y-112800000D01*
X117574188Y-112924482D01*
X117610498Y-113044180D01*
X117669463Y-113154494D01*
X117748815Y-113251185D01*
X117845506Y-113330537D01*
X117955820Y-113389502D01*
X118075518Y-113425812D01*
X118200000Y-113438072D01*
X119800000Y-113438072D01*
X119924482Y-113425812D01*
X120044180Y-113389502D01*
X120154494Y-113330537D01*
X120251185Y-113251185D01*
X120330537Y-113154494D01*
X120389502Y-113044180D01*
X120405117Y-112992702D01*
X120956903Y-112992702D01*
X121028486Y-113236671D01*
X121283996Y-113357571D01*
X121558184Y-113426300D01*
X121840512Y-113440217D01*
X122120130Y-113398787D01*
X122386292Y-113303603D01*
X122511514Y-113236671D01*
X122583097Y-112992702D01*
X123726903Y-112992702D01*
X123798486Y-113236671D01*
X124053996Y-113357571D01*
X124328184Y-113426300D01*
X124610512Y-113440217D01*
X124890130Y-113398787D01*
X125156292Y-113303603D01*
X125281514Y-113236671D01*
X125353097Y-112992702D01*
X124540000Y-112179605D01*
X123726903Y-112992702D01*
X122583097Y-112992702D01*
X121770000Y-112179605D01*
X120956903Y-112992702D01*
X120405117Y-112992702D01*
X120425812Y-112924482D01*
X120438072Y-112800000D01*
X120438072Y-112537087D01*
X120466397Y-112616292D01*
X120533329Y-112741514D01*
X120777298Y-112813097D01*
X121590395Y-112000000D01*
X121949605Y-112000000D01*
X122762702Y-112813097D01*
X123006671Y-112741514D01*
X123127571Y-112486004D01*
X123153216Y-112383695D01*
X123236397Y-112616292D01*
X123303329Y-112741514D01*
X123547298Y-112813097D01*
X124360395Y-112000000D01*
X124719605Y-112000000D01*
X125532702Y-112813097D01*
X125776671Y-112741514D01*
X125897571Y-112486004D01*
X125923212Y-112383711D01*
X125930147Y-112418574D01*
X126038320Y-112679727D01*
X126195363Y-112914759D01*
X126395241Y-113114637D01*
X126630273Y-113271680D01*
X126891426Y-113379853D01*
X127168665Y-113435000D01*
X127451335Y-113435000D01*
X127728574Y-113379853D01*
X127989727Y-113271680D01*
X128224759Y-113114637D01*
X128424637Y-112914759D01*
X128581680Y-112679727D01*
X128689853Y-112418574D01*
X128695000Y-112392699D01*
X128700147Y-112418574D01*
X128808320Y-112679727D01*
X128965363Y-112914759D01*
X129165241Y-113114637D01*
X129400273Y-113271680D01*
X129661426Y-113379853D01*
X129938665Y-113435000D01*
X130221335Y-113435000D01*
X130498574Y-113379853D01*
X130759727Y-113271680D01*
X130994759Y-113114637D01*
X131194637Y-112914759D01*
X131351680Y-112679727D01*
X131456156Y-112427499D01*
X135372106Y-112427499D01*
X135588228Y-112794258D01*
X136048105Y-113034938D01*
X136546098Y-113181275D01*
X137063071Y-113227648D01*
X137579159Y-113172273D01*
X138074526Y-113017279D01*
X138491772Y-112794258D01*
X138707894Y-112427499D01*
X137040000Y-110759605D01*
X135372106Y-112427499D01*
X131456156Y-112427499D01*
X131459853Y-112418574D01*
X131515000Y-112141335D01*
X131515000Y-111858665D01*
X131459853Y-111581426D01*
X131351680Y-111320273D01*
X131194637Y-111085241D01*
X130994759Y-110885363D01*
X130759727Y-110728320D01*
X130498574Y-110620147D01*
X130412729Y-110603071D01*
X134392352Y-110603071D01*
X134447727Y-111119159D01*
X134602721Y-111614526D01*
X134825742Y-112031772D01*
X135192501Y-112247894D01*
X136860395Y-110580000D01*
X137219605Y-110580000D01*
X138887499Y-112247894D01*
X139254258Y-112031772D01*
X139494938Y-111571895D01*
X139641275Y-111073902D01*
X139687648Y-110556929D01*
X139632273Y-110040841D01*
X139477279Y-109545474D01*
X139254258Y-109128228D01*
X138887499Y-108912106D01*
X137219605Y-110580000D01*
X136860395Y-110580000D01*
X135192501Y-108912106D01*
X134825742Y-109128228D01*
X134585062Y-109588105D01*
X134438725Y-110086098D01*
X134392352Y-110603071D01*
X130412729Y-110603071D01*
X130221335Y-110565000D01*
X129938665Y-110565000D01*
X129661426Y-110620147D01*
X129400273Y-110728320D01*
X129165241Y-110885363D01*
X128965363Y-111085241D01*
X128808320Y-111320273D01*
X128700147Y-111581426D01*
X128695000Y-111607301D01*
X128689853Y-111581426D01*
X128581680Y-111320273D01*
X128424637Y-111085241D01*
X128224759Y-110885363D01*
X127989727Y-110728320D01*
X127728574Y-110620147D01*
X127451335Y-110565000D01*
X127168665Y-110565000D01*
X126891426Y-110620147D01*
X126630273Y-110728320D01*
X126395241Y-110885363D01*
X126195363Y-111085241D01*
X126038320Y-111320273D01*
X125930147Y-111581426D01*
X125924487Y-111609882D01*
X125843603Y-111383708D01*
X125776671Y-111258486D01*
X125532702Y-111186903D01*
X124719605Y-112000000D01*
X124360395Y-112000000D01*
X123547298Y-111186903D01*
X123303329Y-111258486D01*
X123182429Y-111513996D01*
X123156784Y-111616305D01*
X123073603Y-111383708D01*
X123006671Y-111258486D01*
X122762702Y-111186903D01*
X121949605Y-112000000D01*
X121590395Y-112000000D01*
X120777298Y-111186903D01*
X120533329Y-111258486D01*
X120438072Y-111459802D01*
X120438072Y-111200000D01*
X120425812Y-111075518D01*
X120405118Y-111007298D01*
X120956903Y-111007298D01*
X121770000Y-111820395D01*
X122583097Y-111007298D01*
X123726903Y-111007298D01*
X124540000Y-111820395D01*
X125353097Y-111007298D01*
X125281514Y-110763329D01*
X125026004Y-110642429D01*
X124751816Y-110573700D01*
X124469488Y-110559783D01*
X124189870Y-110601213D01*
X123923708Y-110696397D01*
X123798486Y-110763329D01*
X123726903Y-111007298D01*
X122583097Y-111007298D01*
X122511514Y-110763329D01*
X122256004Y-110642429D01*
X121981816Y-110573700D01*
X121699488Y-110559783D01*
X121419870Y-110601213D01*
X121153708Y-110696397D01*
X121028486Y-110763329D01*
X120956903Y-111007298D01*
X120405118Y-111007298D01*
X120389502Y-110955820D01*
X120330537Y-110845506D01*
X120251185Y-110748815D01*
X120154494Y-110669463D01*
X120044180Y-110610498D01*
X119924482Y-110574188D01*
X119800000Y-110561928D01*
X118200000Y-110561928D01*
X118075518Y-110574188D01*
X117955820Y-110610498D01*
X117845506Y-110669463D01*
X117748815Y-110748815D01*
X117669463Y-110845506D01*
X117610498Y-110955820D01*
X117574188Y-111075518D01*
X117561928Y-111200000D01*
X114604220Y-111200000D01*
X114641275Y-111073902D01*
X114687648Y-110556929D01*
X114644276Y-110152702D01*
X119571903Y-110152702D01*
X119643486Y-110396671D01*
X119898996Y-110517571D01*
X120173184Y-110586300D01*
X120455512Y-110600217D01*
X120735130Y-110558787D01*
X121001292Y-110463603D01*
X121126514Y-110396671D01*
X121198097Y-110152702D01*
X120385000Y-109339605D01*
X119571903Y-110152702D01*
X114644276Y-110152702D01*
X114632273Y-110040841D01*
X114477279Y-109545474D01*
X114308930Y-109230512D01*
X118944783Y-109230512D01*
X118986213Y-109510130D01*
X119081397Y-109776292D01*
X119148329Y-109901514D01*
X119392298Y-109973097D01*
X120205395Y-109160000D01*
X120564605Y-109160000D01*
X121377702Y-109973097D01*
X121621671Y-109901514D01*
X121742571Y-109646004D01*
X121768212Y-109543711D01*
X121775147Y-109578574D01*
X121883320Y-109839727D01*
X122040363Y-110074759D01*
X122240241Y-110274637D01*
X122475273Y-110431680D01*
X122736426Y-110539853D01*
X123013665Y-110595000D01*
X123296335Y-110595000D01*
X123573574Y-110539853D01*
X123834727Y-110431680D01*
X124069759Y-110274637D01*
X124269637Y-110074759D01*
X124426680Y-109839727D01*
X124534853Y-109578574D01*
X124540000Y-109552699D01*
X124545147Y-109578574D01*
X124653320Y-109839727D01*
X124810363Y-110074759D01*
X125010241Y-110274637D01*
X125245273Y-110431680D01*
X125506426Y-110539853D01*
X125783665Y-110595000D01*
X126066335Y-110595000D01*
X126343574Y-110539853D01*
X126604727Y-110431680D01*
X126839759Y-110274637D01*
X127039637Y-110074759D01*
X127196680Y-109839727D01*
X127304853Y-109578574D01*
X127310000Y-109552699D01*
X127315147Y-109578574D01*
X127423320Y-109839727D01*
X127580363Y-110074759D01*
X127780241Y-110274637D01*
X128015273Y-110431680D01*
X128276426Y-110539853D01*
X128553665Y-110595000D01*
X128836335Y-110595000D01*
X129113574Y-110539853D01*
X129374727Y-110431680D01*
X129609759Y-110274637D01*
X129809637Y-110074759D01*
X129966680Y-109839727D01*
X130074853Y-109578574D01*
X130130000Y-109301335D01*
X130130000Y-109018665D01*
X130074853Y-108741426D01*
X130071157Y-108732501D01*
X135372106Y-108732501D01*
X137040000Y-110400395D01*
X138707894Y-108732501D01*
X138491772Y-108365742D01*
X138031895Y-108125062D01*
X137533902Y-107978725D01*
X137016929Y-107932352D01*
X136500841Y-107987727D01*
X136005474Y-108142721D01*
X135588228Y-108365742D01*
X135372106Y-108732501D01*
X130071157Y-108732501D01*
X129966680Y-108480273D01*
X129809637Y-108245241D01*
X129609759Y-108045363D01*
X129374727Y-107888320D01*
X129113574Y-107780147D01*
X128836335Y-107725000D01*
X128553665Y-107725000D01*
X128276426Y-107780147D01*
X128015273Y-107888320D01*
X127780241Y-108045363D01*
X127580363Y-108245241D01*
X127423320Y-108480273D01*
X127315147Y-108741426D01*
X127310000Y-108767301D01*
X127304853Y-108741426D01*
X127196680Y-108480273D01*
X127039637Y-108245241D01*
X126839759Y-108045363D01*
X126604727Y-107888320D01*
X126343574Y-107780147D01*
X126066335Y-107725000D01*
X125783665Y-107725000D01*
X125506426Y-107780147D01*
X125245273Y-107888320D01*
X125010241Y-108045363D01*
X124810363Y-108245241D01*
X124653320Y-108480273D01*
X124545147Y-108741426D01*
X124540000Y-108767301D01*
X124534853Y-108741426D01*
X124426680Y-108480273D01*
X124269637Y-108245241D01*
X124069759Y-108045363D01*
X123834727Y-107888320D01*
X123573574Y-107780147D01*
X123296335Y-107725000D01*
X123013665Y-107725000D01*
X122736426Y-107780147D01*
X122475273Y-107888320D01*
X122240241Y-108045363D01*
X122040363Y-108245241D01*
X121883320Y-108480273D01*
X121775147Y-108741426D01*
X121769487Y-108769882D01*
X121688603Y-108543708D01*
X121621671Y-108418486D01*
X121377702Y-108346903D01*
X120564605Y-109160000D01*
X120205395Y-109160000D01*
X119392298Y-108346903D01*
X119148329Y-108418486D01*
X119027429Y-108673996D01*
X118958700Y-108948184D01*
X118944783Y-109230512D01*
X114308930Y-109230512D01*
X114254258Y-109128228D01*
X113887499Y-108912106D01*
X112219605Y-110580000D01*
X111860395Y-110580000D01*
X110192501Y-108912106D01*
X109825742Y-109128228D01*
X109585062Y-109588105D01*
X109438725Y-110086098D01*
X109392352Y-110603071D01*
X96725000Y-110603071D01*
X96725000Y-108732501D01*
X110372106Y-108732501D01*
X112040000Y-110400395D01*
X113707894Y-108732501D01*
X113491772Y-108365742D01*
X113112598Y-108167298D01*
X119571903Y-108167298D01*
X120385000Y-108980395D01*
X121198097Y-108167298D01*
X121126514Y-107923329D01*
X120871004Y-107802429D01*
X120596816Y-107733700D01*
X120314488Y-107719783D01*
X120034870Y-107761213D01*
X119768708Y-107856397D01*
X119643486Y-107923329D01*
X119571903Y-108167298D01*
X113112598Y-108167298D01*
X113031895Y-108125062D01*
X112533902Y-107978725D01*
X112016929Y-107932352D01*
X111500841Y-107987727D01*
X111005474Y-108142721D01*
X110588228Y-108365742D01*
X110372106Y-108732501D01*
X96725000Y-108732501D01*
X96725000Y-105040664D01*
X155845000Y-105040664D01*
X155862870Y-105222101D01*
X155933489Y-105454900D01*
X156048167Y-105669448D01*
X156202498Y-105857502D01*
X156390551Y-106011833D01*
X156605099Y-106126511D01*
X156837898Y-106197130D01*
X157080000Y-106220975D01*
X157322101Y-106197130D01*
X157554900Y-106126511D01*
X157769448Y-106011833D01*
X157957502Y-105857502D01*
X158111833Y-105669449D01*
X158226511Y-105454901D01*
X158297130Y-105222102D01*
X158315000Y-105040665D01*
X158315000Y-105040664D01*
X158385000Y-105040664D01*
X158402870Y-105222101D01*
X158473489Y-105454900D01*
X158588167Y-105669448D01*
X158742498Y-105857502D01*
X158930551Y-106011833D01*
X159145099Y-106126511D01*
X159377898Y-106197130D01*
X159620000Y-106220975D01*
X159862101Y-106197130D01*
X160094900Y-106126511D01*
X160309448Y-106011833D01*
X160497502Y-105857502D01*
X160651833Y-105669449D01*
X160766511Y-105454901D01*
X160837130Y-105222102D01*
X160855000Y-105040665D01*
X160855000Y-105040664D01*
X160925000Y-105040664D01*
X160942870Y-105222101D01*
X161013489Y-105454900D01*
X161128167Y-105669448D01*
X161282498Y-105857502D01*
X161470551Y-106011833D01*
X161685099Y-106126511D01*
X161917898Y-106197130D01*
X162160000Y-106220975D01*
X162402101Y-106197130D01*
X162634900Y-106126511D01*
X162849448Y-106011833D01*
X163037502Y-105857502D01*
X163191833Y-105669449D01*
X163306511Y-105454901D01*
X163377130Y-105222102D01*
X163395000Y-105040665D01*
X163395000Y-105040664D01*
X163465000Y-105040664D01*
X163482870Y-105222101D01*
X163553489Y-105454900D01*
X163668167Y-105669448D01*
X163822498Y-105857502D01*
X164010551Y-106011833D01*
X164225099Y-106126511D01*
X164457898Y-106197130D01*
X164700000Y-106220975D01*
X164942101Y-106197130D01*
X165174900Y-106126511D01*
X165389448Y-106011833D01*
X165577502Y-105857502D01*
X165731833Y-105669449D01*
X165846511Y-105454901D01*
X165917130Y-105222102D01*
X165935000Y-105040665D01*
X165935000Y-105040664D01*
X166005000Y-105040664D01*
X166022870Y-105222101D01*
X166093489Y-105454900D01*
X166208167Y-105669448D01*
X166362498Y-105857502D01*
X166550551Y-106011833D01*
X166765099Y-106126511D01*
X166997898Y-106197130D01*
X167240000Y-106220975D01*
X167482101Y-106197130D01*
X167714900Y-106126511D01*
X167929448Y-106011833D01*
X168117502Y-105857502D01*
X168271833Y-105669449D01*
X168386511Y-105454901D01*
X168457130Y-105222102D01*
X168475000Y-105040665D01*
X168475000Y-105040664D01*
X168545000Y-105040664D01*
X168562870Y-105222101D01*
X168633489Y-105454900D01*
X168748167Y-105669448D01*
X168902498Y-105857502D01*
X169090551Y-106011833D01*
X169305099Y-106126511D01*
X169537898Y-106197130D01*
X169780000Y-106220975D01*
X170022101Y-106197130D01*
X170254900Y-106126511D01*
X170469448Y-106011833D01*
X170657502Y-105857502D01*
X170811833Y-105669449D01*
X170926511Y-105454901D01*
X170997130Y-105222102D01*
X171015000Y-105040665D01*
X171015000Y-105040664D01*
X171085000Y-105040664D01*
X171102870Y-105222101D01*
X171173489Y-105454900D01*
X171288167Y-105669448D01*
X171442498Y-105857502D01*
X171630551Y-106011833D01*
X171845099Y-106126511D01*
X172077898Y-106197130D01*
X172320000Y-106220975D01*
X172562101Y-106197130D01*
X172794900Y-106126511D01*
X173009448Y-106011833D01*
X173197502Y-105857502D01*
X173351833Y-105669449D01*
X173466511Y-105454901D01*
X173537130Y-105222102D01*
X173555000Y-105040665D01*
X173555000Y-102119335D01*
X173537130Y-101937898D01*
X173466511Y-101705099D01*
X173351833Y-101490551D01*
X173197502Y-101302498D01*
X173009449Y-101148167D01*
X172794901Y-101033489D01*
X172562102Y-100962870D01*
X172320000Y-100939025D01*
X172077899Y-100962870D01*
X171845100Y-101033489D01*
X171630552Y-101148167D01*
X171442499Y-101302498D01*
X171288168Y-101490551D01*
X171173490Y-101705099D01*
X171102871Y-101937898D01*
X171085001Y-102119335D01*
X171085000Y-105040664D01*
X171015000Y-105040664D01*
X171015000Y-102119335D01*
X170997130Y-101937898D01*
X170926511Y-101705099D01*
X170811833Y-101490551D01*
X170657502Y-101302498D01*
X170469449Y-101148167D01*
X170254901Y-101033489D01*
X170022102Y-100962870D01*
X169780000Y-100939025D01*
X169537899Y-100962870D01*
X169305100Y-101033489D01*
X169090552Y-101148167D01*
X168902499Y-101302498D01*
X168748168Y-101490551D01*
X168633490Y-101705099D01*
X168562871Y-101937898D01*
X168545001Y-102119335D01*
X168545000Y-105040664D01*
X168475000Y-105040664D01*
X168475000Y-102119335D01*
X168457130Y-101937898D01*
X168386511Y-101705099D01*
X168271833Y-101490551D01*
X168117502Y-101302498D01*
X167929449Y-101148167D01*
X167714901Y-101033489D01*
X167482102Y-100962870D01*
X167240000Y-100939025D01*
X166997899Y-100962870D01*
X166765100Y-101033489D01*
X166550552Y-101148167D01*
X166362499Y-101302498D01*
X166208168Y-101490551D01*
X166093490Y-101705099D01*
X166022871Y-101937898D01*
X166005001Y-102119335D01*
X166005000Y-105040664D01*
X165935000Y-105040664D01*
X165935000Y-102119335D01*
X165917130Y-101937898D01*
X165846511Y-101705099D01*
X165731833Y-101490551D01*
X165577502Y-101302498D01*
X165389449Y-101148167D01*
X165174901Y-101033489D01*
X164942102Y-100962870D01*
X164700000Y-100939025D01*
X164457899Y-100962870D01*
X164225100Y-101033489D01*
X164010552Y-101148167D01*
X163822499Y-101302498D01*
X163668168Y-101490551D01*
X163553490Y-101705099D01*
X163482871Y-101937898D01*
X163465001Y-102119335D01*
X163465000Y-105040664D01*
X163395000Y-105040664D01*
X163395000Y-102119335D01*
X163377130Y-101937898D01*
X163306511Y-101705099D01*
X163191833Y-101490551D01*
X163037502Y-101302498D01*
X162849449Y-101148167D01*
X162634901Y-101033489D01*
X162402102Y-100962870D01*
X162160000Y-100939025D01*
X161917899Y-100962870D01*
X161685100Y-101033489D01*
X161470552Y-101148167D01*
X161282499Y-101302498D01*
X161128168Y-101490551D01*
X161013490Y-101705099D01*
X160942871Y-101937898D01*
X160925001Y-102119335D01*
X160925000Y-105040664D01*
X160855000Y-105040664D01*
X160855000Y-102119335D01*
X160837130Y-101937898D01*
X160766511Y-101705099D01*
X160651833Y-101490551D01*
X160497502Y-101302498D01*
X160309449Y-101148167D01*
X160094901Y-101033489D01*
X159862102Y-100962870D01*
X159620000Y-100939025D01*
X159377899Y-100962870D01*
X159145100Y-101033489D01*
X158930552Y-101148167D01*
X158742499Y-101302498D01*
X158588168Y-101490551D01*
X158473490Y-101705099D01*
X158402871Y-101937898D01*
X158385001Y-102119335D01*
X158385000Y-105040664D01*
X158315000Y-105040664D01*
X158315000Y-102119335D01*
X158297130Y-101937898D01*
X158226511Y-101705099D01*
X158111833Y-101490551D01*
X157957502Y-101302498D01*
X157769449Y-101148167D01*
X157554901Y-101033489D01*
X157322102Y-100962870D01*
X157080000Y-100939025D01*
X156837899Y-100962870D01*
X156605100Y-101033489D01*
X156390552Y-101148167D01*
X156202499Y-101302498D01*
X156048168Y-101490551D01*
X155933490Y-101705099D01*
X155862871Y-101937898D01*
X155845001Y-102119335D01*
X155845000Y-105040664D01*
X96725000Y-105040664D01*
X96725000Y-100032278D01*
X96790476Y-99364498D01*
X96975039Y-98753198D01*
X97274817Y-98189397D01*
X97678399Y-97694555D01*
X98170412Y-97287526D01*
X98732112Y-96983816D01*
X99342104Y-96794992D01*
X100008036Y-96725000D01*
X195097722Y-96725000D01*
X195765502Y-96790476D01*
M02*
