G04 #@! TF.GenerationSoftware,KiCad,Pcbnew,(5.1.5-0)*
G04 #@! TF.CreationDate,2021-01-24T14:42:45-07:00*
G04 #@! TF.ProjectId,back_v3,6261636b-5f76-4332-9e6b-696361645f70,rev?*
G04 #@! TF.SameCoordinates,Original*
G04 #@! TF.FileFunction,Copper,L2,Bot*
G04 #@! TF.FilePolarity,Positive*
%FSLAX46Y46*%
G04 Gerber Fmt 4.6, Leading zero omitted, Abs format (unit mm)*
G04 Created by KiCad (PCBNEW (5.1.5-0)) date 2021-01-24 14:42:45*
%MOMM*%
%LPD*%
G04 APERTURE LIST*
%ADD10C,10.400000*%
%ADD11O,1.200000X4.000000*%
%ADD12C,4.000000*%
%ADD13C,1.600000*%
%ADD14R,1.600000X1.600000*%
%ADD15C,0.800000*%
%ADD16C,5.800000*%
%ADD17C,0.250000*%
%ADD18C,0.254000*%
G04 APERTURE END LIST*
D10*
X109565000Y-111315000D03*
D11*
X157080000Y-118820000D03*
X157080000Y-103580000D03*
X159620000Y-118820000D03*
X159620000Y-103580000D03*
X162160000Y-118820000D03*
X162160000Y-103580000D03*
X164700000Y-118820000D03*
X164700000Y-103580000D03*
X167240000Y-118820000D03*
X167240000Y-103580000D03*
X169780000Y-118820000D03*
X169780000Y-103580000D03*
X172320000Y-118820000D03*
X172320000Y-103580000D03*
D12*
X147040000Y-110580000D03*
X122040000Y-110580000D03*
D13*
X138695000Y-109160000D03*
X135925000Y-109160000D03*
X133155000Y-109160000D03*
X130385000Y-109160000D03*
X140080000Y-112000000D03*
X137310000Y-112000000D03*
X134540000Y-112000000D03*
X131770000Y-112000000D03*
D14*
X129000000Y-112000000D03*
D15*
X131000000Y-115000000D03*
X122000000Y-115000000D03*
D16*
X100000000Y-100000000D03*
X100000000Y-122630000D03*
X195130000Y-100000000D03*
X195130000Y-122630000D03*
D17*
X137080000Y-115000000D02*
X131000000Y-115000000D01*
X140080000Y-112000000D02*
X137080000Y-115000000D01*
X131000000Y-115000000D02*
X122000000Y-115000000D01*
D18*
G36*
X195765502Y-96790476D02*
G01*
X196376802Y-96975039D01*
X196940603Y-97274817D01*
X197435445Y-97678399D01*
X197842474Y-98170412D01*
X198146184Y-98732112D01*
X198335008Y-99342104D01*
X198405000Y-100008036D01*
X198405001Y-122597712D01*
X198339524Y-123265501D01*
X198154962Y-123876800D01*
X197855183Y-124440603D01*
X197451598Y-124935447D01*
X196959587Y-125342474D01*
X196397888Y-125646184D01*
X195787896Y-125835008D01*
X195121964Y-125905000D01*
X100032278Y-125905000D01*
X99364499Y-125839524D01*
X98753200Y-125654962D01*
X98189397Y-125355183D01*
X97694553Y-124951598D01*
X97287526Y-124459587D01*
X96983816Y-123897888D01*
X96794992Y-123287896D01*
X96725000Y-122621964D01*
X96725000Y-120280664D01*
X155845000Y-120280664D01*
X155862870Y-120462101D01*
X155933489Y-120694900D01*
X156048167Y-120909448D01*
X156202498Y-121097502D01*
X156390551Y-121251833D01*
X156605099Y-121366511D01*
X156837898Y-121437130D01*
X157080000Y-121460975D01*
X157322101Y-121437130D01*
X157554900Y-121366511D01*
X157769448Y-121251833D01*
X157957502Y-121097502D01*
X158111833Y-120909449D01*
X158226511Y-120694901D01*
X158297130Y-120462102D01*
X158315000Y-120280665D01*
X158315000Y-120280664D01*
X158385000Y-120280664D01*
X158402870Y-120462101D01*
X158473489Y-120694900D01*
X158588167Y-120909448D01*
X158742498Y-121097502D01*
X158930551Y-121251833D01*
X159145099Y-121366511D01*
X159377898Y-121437130D01*
X159620000Y-121460975D01*
X159862101Y-121437130D01*
X160094900Y-121366511D01*
X160309448Y-121251833D01*
X160497502Y-121097502D01*
X160651833Y-120909449D01*
X160766511Y-120694901D01*
X160837130Y-120462102D01*
X160855000Y-120280665D01*
X160855000Y-120280664D01*
X160925000Y-120280664D01*
X160942870Y-120462101D01*
X161013489Y-120694900D01*
X161128167Y-120909448D01*
X161282498Y-121097502D01*
X161470551Y-121251833D01*
X161685099Y-121366511D01*
X161917898Y-121437130D01*
X162160000Y-121460975D01*
X162402101Y-121437130D01*
X162634900Y-121366511D01*
X162849448Y-121251833D01*
X163037502Y-121097502D01*
X163191833Y-120909449D01*
X163306511Y-120694901D01*
X163377130Y-120462102D01*
X163395000Y-120280665D01*
X163395000Y-120280664D01*
X163465000Y-120280664D01*
X163482870Y-120462101D01*
X163553489Y-120694900D01*
X163668167Y-120909448D01*
X163822498Y-121097502D01*
X164010551Y-121251833D01*
X164225099Y-121366511D01*
X164457898Y-121437130D01*
X164700000Y-121460975D01*
X164942101Y-121437130D01*
X165174900Y-121366511D01*
X165389448Y-121251833D01*
X165577502Y-121097502D01*
X165731833Y-120909449D01*
X165846511Y-120694901D01*
X165917130Y-120462102D01*
X165935000Y-120280665D01*
X165935000Y-120280664D01*
X166005000Y-120280664D01*
X166022870Y-120462101D01*
X166093489Y-120694900D01*
X166208167Y-120909448D01*
X166362498Y-121097502D01*
X166550551Y-121251833D01*
X166765099Y-121366511D01*
X166997898Y-121437130D01*
X167240000Y-121460975D01*
X167482101Y-121437130D01*
X167714900Y-121366511D01*
X167929448Y-121251833D01*
X168117502Y-121097502D01*
X168271833Y-120909449D01*
X168386511Y-120694901D01*
X168457130Y-120462102D01*
X168475000Y-120280665D01*
X168475000Y-120280664D01*
X168545000Y-120280664D01*
X168562870Y-120462101D01*
X168633489Y-120694900D01*
X168748167Y-120909448D01*
X168902498Y-121097502D01*
X169090551Y-121251833D01*
X169305099Y-121366511D01*
X169537898Y-121437130D01*
X169780000Y-121460975D01*
X170022101Y-121437130D01*
X170254900Y-121366511D01*
X170469448Y-121251833D01*
X170657502Y-121097502D01*
X170811833Y-120909449D01*
X170926511Y-120694901D01*
X170997130Y-120462102D01*
X171015000Y-120280665D01*
X171015000Y-120280664D01*
X171085000Y-120280664D01*
X171102870Y-120462101D01*
X171173489Y-120694900D01*
X171288167Y-120909448D01*
X171442498Y-121097502D01*
X171630551Y-121251833D01*
X171845099Y-121366511D01*
X172077898Y-121437130D01*
X172320000Y-121460975D01*
X172562101Y-121437130D01*
X172794900Y-121366511D01*
X173009448Y-121251833D01*
X173197502Y-121097502D01*
X173351833Y-120909449D01*
X173466511Y-120694901D01*
X173537130Y-120462102D01*
X173555000Y-120280665D01*
X173555000Y-117359335D01*
X173537130Y-117177898D01*
X173466511Y-116945099D01*
X173351833Y-116730551D01*
X173197502Y-116542498D01*
X173009449Y-116388167D01*
X172794901Y-116273489D01*
X172562102Y-116202870D01*
X172320000Y-116179025D01*
X172077899Y-116202870D01*
X171845100Y-116273489D01*
X171630552Y-116388167D01*
X171442499Y-116542498D01*
X171288168Y-116730551D01*
X171173490Y-116945099D01*
X171102871Y-117177898D01*
X171085001Y-117359335D01*
X171085000Y-120280664D01*
X171015000Y-120280664D01*
X171015000Y-117359335D01*
X170997130Y-117177898D01*
X170926511Y-116945099D01*
X170811833Y-116730551D01*
X170657502Y-116542498D01*
X170469449Y-116388167D01*
X170254901Y-116273489D01*
X170022102Y-116202870D01*
X169780000Y-116179025D01*
X169537899Y-116202870D01*
X169305100Y-116273489D01*
X169090552Y-116388167D01*
X168902499Y-116542498D01*
X168748168Y-116730551D01*
X168633490Y-116945099D01*
X168562871Y-117177898D01*
X168545001Y-117359335D01*
X168545000Y-120280664D01*
X168475000Y-120280664D01*
X168475000Y-117359335D01*
X168457130Y-117177898D01*
X168386511Y-116945099D01*
X168271833Y-116730551D01*
X168117502Y-116542498D01*
X167929449Y-116388167D01*
X167714901Y-116273489D01*
X167482102Y-116202870D01*
X167240000Y-116179025D01*
X166997899Y-116202870D01*
X166765100Y-116273489D01*
X166550552Y-116388167D01*
X166362499Y-116542498D01*
X166208168Y-116730551D01*
X166093490Y-116945099D01*
X166022871Y-117177898D01*
X166005001Y-117359335D01*
X166005000Y-120280664D01*
X165935000Y-120280664D01*
X165935000Y-117359335D01*
X165917130Y-117177898D01*
X165846511Y-116945099D01*
X165731833Y-116730551D01*
X165577502Y-116542498D01*
X165389449Y-116388167D01*
X165174901Y-116273489D01*
X164942102Y-116202870D01*
X164700000Y-116179025D01*
X164457899Y-116202870D01*
X164225100Y-116273489D01*
X164010552Y-116388167D01*
X163822499Y-116542498D01*
X163668168Y-116730551D01*
X163553490Y-116945099D01*
X163482871Y-117177898D01*
X163465001Y-117359335D01*
X163465000Y-120280664D01*
X163395000Y-120280664D01*
X163395000Y-117359335D01*
X163377130Y-117177898D01*
X163306511Y-116945099D01*
X163191833Y-116730551D01*
X163037502Y-116542498D01*
X162849449Y-116388167D01*
X162634901Y-116273489D01*
X162402102Y-116202870D01*
X162160000Y-116179025D01*
X161917899Y-116202870D01*
X161685100Y-116273489D01*
X161470552Y-116388167D01*
X161282499Y-116542498D01*
X161128168Y-116730551D01*
X161013490Y-116945099D01*
X160942871Y-117177898D01*
X160925001Y-117359335D01*
X160925000Y-120280664D01*
X160855000Y-120280664D01*
X160855000Y-117359335D01*
X160837130Y-117177898D01*
X160766511Y-116945099D01*
X160651833Y-116730551D01*
X160497502Y-116542498D01*
X160309449Y-116388167D01*
X160094901Y-116273489D01*
X159862102Y-116202870D01*
X159620000Y-116179025D01*
X159377899Y-116202870D01*
X159145100Y-116273489D01*
X158930552Y-116388167D01*
X158742499Y-116542498D01*
X158588168Y-116730551D01*
X158473490Y-116945099D01*
X158402871Y-117177898D01*
X158385001Y-117359335D01*
X158385000Y-120280664D01*
X158315000Y-120280664D01*
X158315000Y-117359335D01*
X158297130Y-117177898D01*
X158226511Y-116945099D01*
X158111833Y-116730551D01*
X157957502Y-116542498D01*
X157769449Y-116388167D01*
X157554901Y-116273489D01*
X157322102Y-116202870D01*
X157080000Y-116179025D01*
X156837899Y-116202870D01*
X156605100Y-116273489D01*
X156390552Y-116388167D01*
X156202499Y-116542498D01*
X156048168Y-116730551D01*
X155933490Y-116945099D01*
X155862871Y-117177898D01*
X155845001Y-117359335D01*
X155845000Y-120280664D01*
X96725000Y-120280664D01*
X96725000Y-110740303D01*
X103730000Y-110740303D01*
X103730000Y-111889697D01*
X103954236Y-113017007D01*
X104394090Y-114078909D01*
X105032660Y-115034596D01*
X105845404Y-115847340D01*
X106801091Y-116485910D01*
X107862993Y-116925764D01*
X108990303Y-117150000D01*
X110139697Y-117150000D01*
X111267007Y-116925764D01*
X112328909Y-116485910D01*
X113284596Y-115847340D01*
X114097340Y-115034596D01*
X114188569Y-114898061D01*
X120965000Y-114898061D01*
X120965000Y-115101939D01*
X121004774Y-115301898D01*
X121082795Y-115490256D01*
X121196063Y-115659774D01*
X121340226Y-115803937D01*
X121509744Y-115917205D01*
X121698102Y-115995226D01*
X121898061Y-116035000D01*
X122101939Y-116035000D01*
X122301898Y-115995226D01*
X122490256Y-115917205D01*
X122659774Y-115803937D01*
X122703711Y-115760000D01*
X130296289Y-115760000D01*
X130340226Y-115803937D01*
X130509744Y-115917205D01*
X130698102Y-115995226D01*
X130898061Y-116035000D01*
X131101939Y-116035000D01*
X131301898Y-115995226D01*
X131490256Y-115917205D01*
X131659774Y-115803937D01*
X131703711Y-115760000D01*
X137042678Y-115760000D01*
X137080000Y-115763676D01*
X137117322Y-115760000D01*
X137117333Y-115760000D01*
X137228986Y-115749003D01*
X137372247Y-115705546D01*
X137504276Y-115634974D01*
X137620001Y-115540001D01*
X137643804Y-115510997D01*
X139756114Y-113398688D01*
X139938665Y-113435000D01*
X140221335Y-113435000D01*
X140498574Y-113379853D01*
X140759727Y-113271680D01*
X140994759Y-113114637D01*
X141194637Y-112914759D01*
X141351680Y-112679727D01*
X141456156Y-112427499D01*
X145372106Y-112427499D01*
X145588228Y-112794258D01*
X146048105Y-113034938D01*
X146546098Y-113181275D01*
X147063071Y-113227648D01*
X147579159Y-113172273D01*
X148074526Y-113017279D01*
X148491772Y-112794258D01*
X148707894Y-112427499D01*
X147040000Y-110759605D01*
X145372106Y-112427499D01*
X141456156Y-112427499D01*
X141459853Y-112418574D01*
X141515000Y-112141335D01*
X141515000Y-111858665D01*
X141459853Y-111581426D01*
X141351680Y-111320273D01*
X141194637Y-111085241D01*
X140994759Y-110885363D01*
X140759727Y-110728320D01*
X140498574Y-110620147D01*
X140412729Y-110603071D01*
X144392352Y-110603071D01*
X144447727Y-111119159D01*
X144602721Y-111614526D01*
X144825742Y-112031772D01*
X145192501Y-112247894D01*
X146860395Y-110580000D01*
X147219605Y-110580000D01*
X148887499Y-112247894D01*
X149254258Y-112031772D01*
X149494938Y-111571895D01*
X149641275Y-111073902D01*
X149687648Y-110556929D01*
X149632273Y-110040841D01*
X149477279Y-109545474D01*
X149254258Y-109128228D01*
X148887499Y-108912106D01*
X147219605Y-110580000D01*
X146860395Y-110580000D01*
X145192501Y-108912106D01*
X144825742Y-109128228D01*
X144585062Y-109588105D01*
X144438725Y-110086098D01*
X144392352Y-110603071D01*
X140412729Y-110603071D01*
X140221335Y-110565000D01*
X139938665Y-110565000D01*
X139661426Y-110620147D01*
X139400273Y-110728320D01*
X139165241Y-110885363D01*
X138965363Y-111085241D01*
X138808320Y-111320273D01*
X138700147Y-111581426D01*
X138695000Y-111607301D01*
X138689853Y-111581426D01*
X138581680Y-111320273D01*
X138424637Y-111085241D01*
X138224759Y-110885363D01*
X137989727Y-110728320D01*
X137728574Y-110620147D01*
X137451335Y-110565000D01*
X137168665Y-110565000D01*
X136891426Y-110620147D01*
X136630273Y-110728320D01*
X136395241Y-110885363D01*
X136195363Y-111085241D01*
X136038320Y-111320273D01*
X135930147Y-111581426D01*
X135925000Y-111607301D01*
X135919853Y-111581426D01*
X135811680Y-111320273D01*
X135654637Y-111085241D01*
X135454759Y-110885363D01*
X135219727Y-110728320D01*
X134958574Y-110620147D01*
X134681335Y-110565000D01*
X134398665Y-110565000D01*
X134121426Y-110620147D01*
X133860273Y-110728320D01*
X133625241Y-110885363D01*
X133425363Y-111085241D01*
X133268320Y-111320273D01*
X133160147Y-111581426D01*
X133155000Y-111607301D01*
X133149853Y-111581426D01*
X133041680Y-111320273D01*
X132884637Y-111085241D01*
X132684759Y-110885363D01*
X132449727Y-110728320D01*
X132188574Y-110620147D01*
X131911335Y-110565000D01*
X131628665Y-110565000D01*
X131351426Y-110620147D01*
X131090273Y-110728320D01*
X130855241Y-110885363D01*
X130655363Y-111085241D01*
X130498320Y-111320273D01*
X130438072Y-111465725D01*
X130438072Y-111200000D01*
X130425812Y-111075518D01*
X130389502Y-110955820D01*
X130330537Y-110845506D01*
X130251185Y-110748815D01*
X130154494Y-110669463D01*
X130044180Y-110610498D01*
X129924482Y-110574188D01*
X129800000Y-110561928D01*
X128200000Y-110561928D01*
X128075518Y-110574188D01*
X127955820Y-110610498D01*
X127845506Y-110669463D01*
X127748815Y-110748815D01*
X127669463Y-110845506D01*
X127610498Y-110955820D01*
X127574188Y-111075518D01*
X127561928Y-111200000D01*
X127561928Y-112800000D01*
X127574188Y-112924482D01*
X127610498Y-113044180D01*
X127669463Y-113154494D01*
X127748815Y-113251185D01*
X127845506Y-113330537D01*
X127955820Y-113389502D01*
X128075518Y-113425812D01*
X128200000Y-113438072D01*
X129800000Y-113438072D01*
X129924482Y-113425812D01*
X130044180Y-113389502D01*
X130154494Y-113330537D01*
X130251185Y-113251185D01*
X130330537Y-113154494D01*
X130389502Y-113044180D01*
X130425812Y-112924482D01*
X130438072Y-112800000D01*
X130438072Y-112534275D01*
X130498320Y-112679727D01*
X130655363Y-112914759D01*
X130855241Y-113114637D01*
X131090273Y-113271680D01*
X131351426Y-113379853D01*
X131628665Y-113435000D01*
X131911335Y-113435000D01*
X132188574Y-113379853D01*
X132449727Y-113271680D01*
X132684759Y-113114637D01*
X132884637Y-112914759D01*
X133041680Y-112679727D01*
X133149853Y-112418574D01*
X133155000Y-112392699D01*
X133160147Y-112418574D01*
X133268320Y-112679727D01*
X133425363Y-112914759D01*
X133625241Y-113114637D01*
X133860273Y-113271680D01*
X134121426Y-113379853D01*
X134398665Y-113435000D01*
X134681335Y-113435000D01*
X134958574Y-113379853D01*
X135219727Y-113271680D01*
X135454759Y-113114637D01*
X135654637Y-112914759D01*
X135811680Y-112679727D01*
X135919853Y-112418574D01*
X135925000Y-112392699D01*
X135930147Y-112418574D01*
X136038320Y-112679727D01*
X136195363Y-112914759D01*
X136395241Y-113114637D01*
X136630273Y-113271680D01*
X136891426Y-113379853D01*
X137168665Y-113435000D01*
X137451335Y-113435000D01*
X137599713Y-113405485D01*
X136765199Y-114240000D01*
X131703711Y-114240000D01*
X131659774Y-114196063D01*
X131490256Y-114082795D01*
X131301898Y-114004774D01*
X131101939Y-113965000D01*
X130898061Y-113965000D01*
X130698102Y-114004774D01*
X130509744Y-114082795D01*
X130340226Y-114196063D01*
X130296289Y-114240000D01*
X122703711Y-114240000D01*
X122659774Y-114196063D01*
X122490256Y-114082795D01*
X122301898Y-114004774D01*
X122101939Y-113965000D01*
X121898061Y-113965000D01*
X121698102Y-114004774D01*
X121509744Y-114082795D01*
X121340226Y-114196063D01*
X121196063Y-114340226D01*
X121082795Y-114509744D01*
X121004774Y-114698102D01*
X120965000Y-114898061D01*
X114188569Y-114898061D01*
X114735910Y-114078909D01*
X115175764Y-113017007D01*
X115293024Y-112427499D01*
X120372106Y-112427499D01*
X120588228Y-112794258D01*
X121048105Y-113034938D01*
X121546098Y-113181275D01*
X122063071Y-113227648D01*
X122579159Y-113172273D01*
X123074526Y-113017279D01*
X123491772Y-112794258D01*
X123707894Y-112427499D01*
X122040000Y-110759605D01*
X120372106Y-112427499D01*
X115293024Y-112427499D01*
X115400000Y-111889697D01*
X115400000Y-110740303D01*
X115372703Y-110603071D01*
X119392352Y-110603071D01*
X119447727Y-111119159D01*
X119602721Y-111614526D01*
X119825742Y-112031772D01*
X120192501Y-112247894D01*
X121860395Y-110580000D01*
X122219605Y-110580000D01*
X123887499Y-112247894D01*
X124254258Y-112031772D01*
X124494938Y-111571895D01*
X124641275Y-111073902D01*
X124687648Y-110556929D01*
X124632273Y-110040841D01*
X124477279Y-109545474D01*
X124254258Y-109128228D01*
X124068330Y-109018665D01*
X128950000Y-109018665D01*
X128950000Y-109301335D01*
X129005147Y-109578574D01*
X129113320Y-109839727D01*
X129270363Y-110074759D01*
X129470241Y-110274637D01*
X129705273Y-110431680D01*
X129966426Y-110539853D01*
X130243665Y-110595000D01*
X130526335Y-110595000D01*
X130803574Y-110539853D01*
X131064727Y-110431680D01*
X131299759Y-110274637D01*
X131499637Y-110074759D01*
X131656680Y-109839727D01*
X131764853Y-109578574D01*
X131770000Y-109552699D01*
X131775147Y-109578574D01*
X131883320Y-109839727D01*
X132040363Y-110074759D01*
X132240241Y-110274637D01*
X132475273Y-110431680D01*
X132736426Y-110539853D01*
X133013665Y-110595000D01*
X133296335Y-110595000D01*
X133573574Y-110539853D01*
X133834727Y-110431680D01*
X134069759Y-110274637D01*
X134269637Y-110074759D01*
X134426680Y-109839727D01*
X134534853Y-109578574D01*
X134540000Y-109552699D01*
X134545147Y-109578574D01*
X134653320Y-109839727D01*
X134810363Y-110074759D01*
X135010241Y-110274637D01*
X135245273Y-110431680D01*
X135506426Y-110539853D01*
X135783665Y-110595000D01*
X136066335Y-110595000D01*
X136343574Y-110539853D01*
X136604727Y-110431680D01*
X136839759Y-110274637D01*
X137039637Y-110074759D01*
X137196680Y-109839727D01*
X137304853Y-109578574D01*
X137310000Y-109552699D01*
X137315147Y-109578574D01*
X137423320Y-109839727D01*
X137580363Y-110074759D01*
X137780241Y-110274637D01*
X138015273Y-110431680D01*
X138276426Y-110539853D01*
X138553665Y-110595000D01*
X138836335Y-110595000D01*
X139113574Y-110539853D01*
X139374727Y-110431680D01*
X139609759Y-110274637D01*
X139809637Y-110074759D01*
X139966680Y-109839727D01*
X140074853Y-109578574D01*
X140130000Y-109301335D01*
X140130000Y-109018665D01*
X140074853Y-108741426D01*
X140071157Y-108732501D01*
X145372106Y-108732501D01*
X147040000Y-110400395D01*
X148707894Y-108732501D01*
X148491772Y-108365742D01*
X148031895Y-108125062D01*
X147533902Y-107978725D01*
X147016929Y-107932352D01*
X146500841Y-107987727D01*
X146005474Y-108142721D01*
X145588228Y-108365742D01*
X145372106Y-108732501D01*
X140071157Y-108732501D01*
X139966680Y-108480273D01*
X139809637Y-108245241D01*
X139609759Y-108045363D01*
X139374727Y-107888320D01*
X139113574Y-107780147D01*
X138836335Y-107725000D01*
X138553665Y-107725000D01*
X138276426Y-107780147D01*
X138015273Y-107888320D01*
X137780241Y-108045363D01*
X137580363Y-108245241D01*
X137423320Y-108480273D01*
X137315147Y-108741426D01*
X137310000Y-108767301D01*
X137304853Y-108741426D01*
X137196680Y-108480273D01*
X137039637Y-108245241D01*
X136839759Y-108045363D01*
X136604727Y-107888320D01*
X136343574Y-107780147D01*
X136066335Y-107725000D01*
X135783665Y-107725000D01*
X135506426Y-107780147D01*
X135245273Y-107888320D01*
X135010241Y-108045363D01*
X134810363Y-108245241D01*
X134653320Y-108480273D01*
X134545147Y-108741426D01*
X134540000Y-108767301D01*
X134534853Y-108741426D01*
X134426680Y-108480273D01*
X134269637Y-108245241D01*
X134069759Y-108045363D01*
X133834727Y-107888320D01*
X133573574Y-107780147D01*
X133296335Y-107725000D01*
X133013665Y-107725000D01*
X132736426Y-107780147D01*
X132475273Y-107888320D01*
X132240241Y-108045363D01*
X132040363Y-108245241D01*
X131883320Y-108480273D01*
X131775147Y-108741426D01*
X131770000Y-108767301D01*
X131764853Y-108741426D01*
X131656680Y-108480273D01*
X131499637Y-108245241D01*
X131299759Y-108045363D01*
X131064727Y-107888320D01*
X130803574Y-107780147D01*
X130526335Y-107725000D01*
X130243665Y-107725000D01*
X129966426Y-107780147D01*
X129705273Y-107888320D01*
X129470241Y-108045363D01*
X129270363Y-108245241D01*
X129113320Y-108480273D01*
X129005147Y-108741426D01*
X128950000Y-109018665D01*
X124068330Y-109018665D01*
X123887499Y-108912106D01*
X122219605Y-110580000D01*
X121860395Y-110580000D01*
X120192501Y-108912106D01*
X119825742Y-109128228D01*
X119585062Y-109588105D01*
X119438725Y-110086098D01*
X119392352Y-110603071D01*
X115372703Y-110603071D01*
X115175764Y-109612993D01*
X114811053Y-108732501D01*
X120372106Y-108732501D01*
X122040000Y-110400395D01*
X123707894Y-108732501D01*
X123491772Y-108365742D01*
X123031895Y-108125062D01*
X122533902Y-107978725D01*
X122016929Y-107932352D01*
X121500841Y-107987727D01*
X121005474Y-108142721D01*
X120588228Y-108365742D01*
X120372106Y-108732501D01*
X114811053Y-108732501D01*
X114735910Y-108551091D01*
X114097340Y-107595404D01*
X113284596Y-106782660D01*
X112328909Y-106144090D01*
X111267007Y-105704236D01*
X110139697Y-105480000D01*
X108990303Y-105480000D01*
X107862993Y-105704236D01*
X106801091Y-106144090D01*
X105845404Y-106782660D01*
X105032660Y-107595404D01*
X104394090Y-108551091D01*
X103954236Y-109612993D01*
X103730000Y-110740303D01*
X96725000Y-110740303D01*
X96725000Y-105040664D01*
X155845000Y-105040664D01*
X155862870Y-105222101D01*
X155933489Y-105454900D01*
X156048167Y-105669448D01*
X156202498Y-105857502D01*
X156390551Y-106011833D01*
X156605099Y-106126511D01*
X156837898Y-106197130D01*
X157080000Y-106220975D01*
X157322101Y-106197130D01*
X157554900Y-106126511D01*
X157769448Y-106011833D01*
X157957502Y-105857502D01*
X158111833Y-105669449D01*
X158226511Y-105454901D01*
X158297130Y-105222102D01*
X158315000Y-105040665D01*
X158315000Y-105040664D01*
X158385000Y-105040664D01*
X158402870Y-105222101D01*
X158473489Y-105454900D01*
X158588167Y-105669448D01*
X158742498Y-105857502D01*
X158930551Y-106011833D01*
X159145099Y-106126511D01*
X159377898Y-106197130D01*
X159620000Y-106220975D01*
X159862101Y-106197130D01*
X160094900Y-106126511D01*
X160309448Y-106011833D01*
X160497502Y-105857502D01*
X160651833Y-105669449D01*
X160766511Y-105454901D01*
X160837130Y-105222102D01*
X160855000Y-105040665D01*
X160855000Y-105040664D01*
X160925000Y-105040664D01*
X160942870Y-105222101D01*
X161013489Y-105454900D01*
X161128167Y-105669448D01*
X161282498Y-105857502D01*
X161470551Y-106011833D01*
X161685099Y-106126511D01*
X161917898Y-106197130D01*
X162160000Y-106220975D01*
X162402101Y-106197130D01*
X162634900Y-106126511D01*
X162849448Y-106011833D01*
X163037502Y-105857502D01*
X163191833Y-105669449D01*
X163306511Y-105454901D01*
X163377130Y-105222102D01*
X163395000Y-105040665D01*
X163395000Y-105040664D01*
X163465000Y-105040664D01*
X163482870Y-105222101D01*
X163553489Y-105454900D01*
X163668167Y-105669448D01*
X163822498Y-105857502D01*
X164010551Y-106011833D01*
X164225099Y-106126511D01*
X164457898Y-106197130D01*
X164700000Y-106220975D01*
X164942101Y-106197130D01*
X165174900Y-106126511D01*
X165389448Y-106011833D01*
X165577502Y-105857502D01*
X165731833Y-105669449D01*
X165846511Y-105454901D01*
X165917130Y-105222102D01*
X165935000Y-105040665D01*
X165935000Y-105040664D01*
X166005000Y-105040664D01*
X166022870Y-105222101D01*
X166093489Y-105454900D01*
X166208167Y-105669448D01*
X166362498Y-105857502D01*
X166550551Y-106011833D01*
X166765099Y-106126511D01*
X166997898Y-106197130D01*
X167240000Y-106220975D01*
X167482101Y-106197130D01*
X167714900Y-106126511D01*
X167929448Y-106011833D01*
X168117502Y-105857502D01*
X168271833Y-105669449D01*
X168386511Y-105454901D01*
X168457130Y-105222102D01*
X168475000Y-105040665D01*
X168475000Y-105040664D01*
X168545000Y-105040664D01*
X168562870Y-105222101D01*
X168633489Y-105454900D01*
X168748167Y-105669448D01*
X168902498Y-105857502D01*
X169090551Y-106011833D01*
X169305099Y-106126511D01*
X169537898Y-106197130D01*
X169780000Y-106220975D01*
X170022101Y-106197130D01*
X170254900Y-106126511D01*
X170469448Y-106011833D01*
X170657502Y-105857502D01*
X170811833Y-105669449D01*
X170926511Y-105454901D01*
X170997130Y-105222102D01*
X171015000Y-105040665D01*
X171015000Y-105040664D01*
X171085000Y-105040664D01*
X171102870Y-105222101D01*
X171173489Y-105454900D01*
X171288167Y-105669448D01*
X171442498Y-105857502D01*
X171630551Y-106011833D01*
X171845099Y-106126511D01*
X172077898Y-106197130D01*
X172320000Y-106220975D01*
X172562101Y-106197130D01*
X172794900Y-106126511D01*
X173009448Y-106011833D01*
X173197502Y-105857502D01*
X173351833Y-105669449D01*
X173466511Y-105454901D01*
X173537130Y-105222102D01*
X173555000Y-105040665D01*
X173555000Y-102119335D01*
X173537130Y-101937898D01*
X173466511Y-101705099D01*
X173351833Y-101490551D01*
X173197502Y-101302498D01*
X173009449Y-101148167D01*
X172794901Y-101033489D01*
X172562102Y-100962870D01*
X172320000Y-100939025D01*
X172077899Y-100962870D01*
X171845100Y-101033489D01*
X171630552Y-101148167D01*
X171442499Y-101302498D01*
X171288168Y-101490551D01*
X171173490Y-101705099D01*
X171102871Y-101937898D01*
X171085001Y-102119335D01*
X171085000Y-105040664D01*
X171015000Y-105040664D01*
X171015000Y-102119335D01*
X170997130Y-101937898D01*
X170926511Y-101705099D01*
X170811833Y-101490551D01*
X170657502Y-101302498D01*
X170469449Y-101148167D01*
X170254901Y-101033489D01*
X170022102Y-100962870D01*
X169780000Y-100939025D01*
X169537899Y-100962870D01*
X169305100Y-101033489D01*
X169090552Y-101148167D01*
X168902499Y-101302498D01*
X168748168Y-101490551D01*
X168633490Y-101705099D01*
X168562871Y-101937898D01*
X168545001Y-102119335D01*
X168545000Y-105040664D01*
X168475000Y-105040664D01*
X168475000Y-102119335D01*
X168457130Y-101937898D01*
X168386511Y-101705099D01*
X168271833Y-101490551D01*
X168117502Y-101302498D01*
X167929449Y-101148167D01*
X167714901Y-101033489D01*
X167482102Y-100962870D01*
X167240000Y-100939025D01*
X166997899Y-100962870D01*
X166765100Y-101033489D01*
X166550552Y-101148167D01*
X166362499Y-101302498D01*
X166208168Y-101490551D01*
X166093490Y-101705099D01*
X166022871Y-101937898D01*
X166005001Y-102119335D01*
X166005000Y-105040664D01*
X165935000Y-105040664D01*
X165935000Y-102119335D01*
X165917130Y-101937898D01*
X165846511Y-101705099D01*
X165731833Y-101490551D01*
X165577502Y-101302498D01*
X165389449Y-101148167D01*
X165174901Y-101033489D01*
X164942102Y-100962870D01*
X164700000Y-100939025D01*
X164457899Y-100962870D01*
X164225100Y-101033489D01*
X164010552Y-101148167D01*
X163822499Y-101302498D01*
X163668168Y-101490551D01*
X163553490Y-101705099D01*
X163482871Y-101937898D01*
X163465001Y-102119335D01*
X163465000Y-105040664D01*
X163395000Y-105040664D01*
X163395000Y-102119335D01*
X163377130Y-101937898D01*
X163306511Y-101705099D01*
X163191833Y-101490551D01*
X163037502Y-101302498D01*
X162849449Y-101148167D01*
X162634901Y-101033489D01*
X162402102Y-100962870D01*
X162160000Y-100939025D01*
X161917899Y-100962870D01*
X161685100Y-101033489D01*
X161470552Y-101148167D01*
X161282499Y-101302498D01*
X161128168Y-101490551D01*
X161013490Y-101705099D01*
X160942871Y-101937898D01*
X160925001Y-102119335D01*
X160925000Y-105040664D01*
X160855000Y-105040664D01*
X160855000Y-102119335D01*
X160837130Y-101937898D01*
X160766511Y-101705099D01*
X160651833Y-101490551D01*
X160497502Y-101302498D01*
X160309449Y-101148167D01*
X160094901Y-101033489D01*
X159862102Y-100962870D01*
X159620000Y-100939025D01*
X159377899Y-100962870D01*
X159145100Y-101033489D01*
X158930552Y-101148167D01*
X158742499Y-101302498D01*
X158588168Y-101490551D01*
X158473490Y-101705099D01*
X158402871Y-101937898D01*
X158385001Y-102119335D01*
X158385000Y-105040664D01*
X158315000Y-105040664D01*
X158315000Y-102119335D01*
X158297130Y-101937898D01*
X158226511Y-101705099D01*
X158111833Y-101490551D01*
X157957502Y-101302498D01*
X157769449Y-101148167D01*
X157554901Y-101033489D01*
X157322102Y-100962870D01*
X157080000Y-100939025D01*
X156837899Y-100962870D01*
X156605100Y-101033489D01*
X156390552Y-101148167D01*
X156202499Y-101302498D01*
X156048168Y-101490551D01*
X155933490Y-101705099D01*
X155862871Y-101937898D01*
X155845001Y-102119335D01*
X155845000Y-105040664D01*
X96725000Y-105040664D01*
X96725000Y-100032278D01*
X96790476Y-99364498D01*
X96975039Y-98753198D01*
X97274817Y-98189397D01*
X97678399Y-97694555D01*
X98170412Y-97287526D01*
X98732112Y-96983816D01*
X99342104Y-96794992D01*
X100008036Y-96725000D01*
X195097722Y-96725000D01*
X195765502Y-96790476D01*
G37*
X195765502Y-96790476D02*
X196376802Y-96975039D01*
X196940603Y-97274817D01*
X197435445Y-97678399D01*
X197842474Y-98170412D01*
X198146184Y-98732112D01*
X198335008Y-99342104D01*
X198405000Y-100008036D01*
X198405001Y-122597712D01*
X198339524Y-123265501D01*
X198154962Y-123876800D01*
X197855183Y-124440603D01*
X197451598Y-124935447D01*
X196959587Y-125342474D01*
X196397888Y-125646184D01*
X195787896Y-125835008D01*
X195121964Y-125905000D01*
X100032278Y-125905000D01*
X99364499Y-125839524D01*
X98753200Y-125654962D01*
X98189397Y-125355183D01*
X97694553Y-124951598D01*
X97287526Y-124459587D01*
X96983816Y-123897888D01*
X96794992Y-123287896D01*
X96725000Y-122621964D01*
X96725000Y-120280664D01*
X155845000Y-120280664D01*
X155862870Y-120462101D01*
X155933489Y-120694900D01*
X156048167Y-120909448D01*
X156202498Y-121097502D01*
X156390551Y-121251833D01*
X156605099Y-121366511D01*
X156837898Y-121437130D01*
X157080000Y-121460975D01*
X157322101Y-121437130D01*
X157554900Y-121366511D01*
X157769448Y-121251833D01*
X157957502Y-121097502D01*
X158111833Y-120909449D01*
X158226511Y-120694901D01*
X158297130Y-120462102D01*
X158315000Y-120280665D01*
X158315000Y-120280664D01*
X158385000Y-120280664D01*
X158402870Y-120462101D01*
X158473489Y-120694900D01*
X158588167Y-120909448D01*
X158742498Y-121097502D01*
X158930551Y-121251833D01*
X159145099Y-121366511D01*
X159377898Y-121437130D01*
X159620000Y-121460975D01*
X159862101Y-121437130D01*
X160094900Y-121366511D01*
X160309448Y-121251833D01*
X160497502Y-121097502D01*
X160651833Y-120909449D01*
X160766511Y-120694901D01*
X160837130Y-120462102D01*
X160855000Y-120280665D01*
X160855000Y-120280664D01*
X160925000Y-120280664D01*
X160942870Y-120462101D01*
X161013489Y-120694900D01*
X161128167Y-120909448D01*
X161282498Y-121097502D01*
X161470551Y-121251833D01*
X161685099Y-121366511D01*
X161917898Y-121437130D01*
X162160000Y-121460975D01*
X162402101Y-121437130D01*
X162634900Y-121366511D01*
X162849448Y-121251833D01*
X163037502Y-121097502D01*
X163191833Y-120909449D01*
X163306511Y-120694901D01*
X163377130Y-120462102D01*
X163395000Y-120280665D01*
X163395000Y-120280664D01*
X163465000Y-120280664D01*
X163482870Y-120462101D01*
X163553489Y-120694900D01*
X163668167Y-120909448D01*
X163822498Y-121097502D01*
X164010551Y-121251833D01*
X164225099Y-121366511D01*
X164457898Y-121437130D01*
X164700000Y-121460975D01*
X164942101Y-121437130D01*
X165174900Y-121366511D01*
X165389448Y-121251833D01*
X165577502Y-121097502D01*
X165731833Y-120909449D01*
X165846511Y-120694901D01*
X165917130Y-120462102D01*
X165935000Y-120280665D01*
X165935000Y-120280664D01*
X166005000Y-120280664D01*
X166022870Y-120462101D01*
X166093489Y-120694900D01*
X166208167Y-120909448D01*
X166362498Y-121097502D01*
X166550551Y-121251833D01*
X166765099Y-121366511D01*
X166997898Y-121437130D01*
X167240000Y-121460975D01*
X167482101Y-121437130D01*
X167714900Y-121366511D01*
X167929448Y-121251833D01*
X168117502Y-121097502D01*
X168271833Y-120909449D01*
X168386511Y-120694901D01*
X168457130Y-120462102D01*
X168475000Y-120280665D01*
X168475000Y-120280664D01*
X168545000Y-120280664D01*
X168562870Y-120462101D01*
X168633489Y-120694900D01*
X168748167Y-120909448D01*
X168902498Y-121097502D01*
X169090551Y-121251833D01*
X169305099Y-121366511D01*
X169537898Y-121437130D01*
X169780000Y-121460975D01*
X170022101Y-121437130D01*
X170254900Y-121366511D01*
X170469448Y-121251833D01*
X170657502Y-121097502D01*
X170811833Y-120909449D01*
X170926511Y-120694901D01*
X170997130Y-120462102D01*
X171015000Y-120280665D01*
X171015000Y-120280664D01*
X171085000Y-120280664D01*
X171102870Y-120462101D01*
X171173489Y-120694900D01*
X171288167Y-120909448D01*
X171442498Y-121097502D01*
X171630551Y-121251833D01*
X171845099Y-121366511D01*
X172077898Y-121437130D01*
X172320000Y-121460975D01*
X172562101Y-121437130D01*
X172794900Y-121366511D01*
X173009448Y-121251833D01*
X173197502Y-121097502D01*
X173351833Y-120909449D01*
X173466511Y-120694901D01*
X173537130Y-120462102D01*
X173555000Y-120280665D01*
X173555000Y-117359335D01*
X173537130Y-117177898D01*
X173466511Y-116945099D01*
X173351833Y-116730551D01*
X173197502Y-116542498D01*
X173009449Y-116388167D01*
X172794901Y-116273489D01*
X172562102Y-116202870D01*
X172320000Y-116179025D01*
X172077899Y-116202870D01*
X171845100Y-116273489D01*
X171630552Y-116388167D01*
X171442499Y-116542498D01*
X171288168Y-116730551D01*
X171173490Y-116945099D01*
X171102871Y-117177898D01*
X171085001Y-117359335D01*
X171085000Y-120280664D01*
X171015000Y-120280664D01*
X171015000Y-117359335D01*
X170997130Y-117177898D01*
X170926511Y-116945099D01*
X170811833Y-116730551D01*
X170657502Y-116542498D01*
X170469449Y-116388167D01*
X170254901Y-116273489D01*
X170022102Y-116202870D01*
X169780000Y-116179025D01*
X169537899Y-116202870D01*
X169305100Y-116273489D01*
X169090552Y-116388167D01*
X168902499Y-116542498D01*
X168748168Y-116730551D01*
X168633490Y-116945099D01*
X168562871Y-117177898D01*
X168545001Y-117359335D01*
X168545000Y-120280664D01*
X168475000Y-120280664D01*
X168475000Y-117359335D01*
X168457130Y-117177898D01*
X168386511Y-116945099D01*
X168271833Y-116730551D01*
X168117502Y-116542498D01*
X167929449Y-116388167D01*
X167714901Y-116273489D01*
X167482102Y-116202870D01*
X167240000Y-116179025D01*
X166997899Y-116202870D01*
X166765100Y-116273489D01*
X166550552Y-116388167D01*
X166362499Y-116542498D01*
X166208168Y-116730551D01*
X166093490Y-116945099D01*
X166022871Y-117177898D01*
X166005001Y-117359335D01*
X166005000Y-120280664D01*
X165935000Y-120280664D01*
X165935000Y-117359335D01*
X165917130Y-117177898D01*
X165846511Y-116945099D01*
X165731833Y-116730551D01*
X165577502Y-116542498D01*
X165389449Y-116388167D01*
X165174901Y-116273489D01*
X164942102Y-116202870D01*
X164700000Y-116179025D01*
X164457899Y-116202870D01*
X164225100Y-116273489D01*
X164010552Y-116388167D01*
X163822499Y-116542498D01*
X163668168Y-116730551D01*
X163553490Y-116945099D01*
X163482871Y-117177898D01*
X163465001Y-117359335D01*
X163465000Y-120280664D01*
X163395000Y-120280664D01*
X163395000Y-117359335D01*
X163377130Y-117177898D01*
X163306511Y-116945099D01*
X163191833Y-116730551D01*
X163037502Y-116542498D01*
X162849449Y-116388167D01*
X162634901Y-116273489D01*
X162402102Y-116202870D01*
X162160000Y-116179025D01*
X161917899Y-116202870D01*
X161685100Y-116273489D01*
X161470552Y-116388167D01*
X161282499Y-116542498D01*
X161128168Y-116730551D01*
X161013490Y-116945099D01*
X160942871Y-117177898D01*
X160925001Y-117359335D01*
X160925000Y-120280664D01*
X160855000Y-120280664D01*
X160855000Y-117359335D01*
X160837130Y-117177898D01*
X160766511Y-116945099D01*
X160651833Y-116730551D01*
X160497502Y-116542498D01*
X160309449Y-116388167D01*
X160094901Y-116273489D01*
X159862102Y-116202870D01*
X159620000Y-116179025D01*
X159377899Y-116202870D01*
X159145100Y-116273489D01*
X158930552Y-116388167D01*
X158742499Y-116542498D01*
X158588168Y-116730551D01*
X158473490Y-116945099D01*
X158402871Y-117177898D01*
X158385001Y-117359335D01*
X158385000Y-120280664D01*
X158315000Y-120280664D01*
X158315000Y-117359335D01*
X158297130Y-117177898D01*
X158226511Y-116945099D01*
X158111833Y-116730551D01*
X157957502Y-116542498D01*
X157769449Y-116388167D01*
X157554901Y-116273489D01*
X157322102Y-116202870D01*
X157080000Y-116179025D01*
X156837899Y-116202870D01*
X156605100Y-116273489D01*
X156390552Y-116388167D01*
X156202499Y-116542498D01*
X156048168Y-116730551D01*
X155933490Y-116945099D01*
X155862871Y-117177898D01*
X155845001Y-117359335D01*
X155845000Y-120280664D01*
X96725000Y-120280664D01*
X96725000Y-110740303D01*
X103730000Y-110740303D01*
X103730000Y-111889697D01*
X103954236Y-113017007D01*
X104394090Y-114078909D01*
X105032660Y-115034596D01*
X105845404Y-115847340D01*
X106801091Y-116485910D01*
X107862993Y-116925764D01*
X108990303Y-117150000D01*
X110139697Y-117150000D01*
X111267007Y-116925764D01*
X112328909Y-116485910D01*
X113284596Y-115847340D01*
X114097340Y-115034596D01*
X114188569Y-114898061D01*
X120965000Y-114898061D01*
X120965000Y-115101939D01*
X121004774Y-115301898D01*
X121082795Y-115490256D01*
X121196063Y-115659774D01*
X121340226Y-115803937D01*
X121509744Y-115917205D01*
X121698102Y-115995226D01*
X121898061Y-116035000D01*
X122101939Y-116035000D01*
X122301898Y-115995226D01*
X122490256Y-115917205D01*
X122659774Y-115803937D01*
X122703711Y-115760000D01*
X130296289Y-115760000D01*
X130340226Y-115803937D01*
X130509744Y-115917205D01*
X130698102Y-115995226D01*
X130898061Y-116035000D01*
X131101939Y-116035000D01*
X131301898Y-115995226D01*
X131490256Y-115917205D01*
X131659774Y-115803937D01*
X131703711Y-115760000D01*
X137042678Y-115760000D01*
X137080000Y-115763676D01*
X137117322Y-115760000D01*
X137117333Y-115760000D01*
X137228986Y-115749003D01*
X137372247Y-115705546D01*
X137504276Y-115634974D01*
X137620001Y-115540001D01*
X137643804Y-115510997D01*
X139756114Y-113398688D01*
X139938665Y-113435000D01*
X140221335Y-113435000D01*
X140498574Y-113379853D01*
X140759727Y-113271680D01*
X140994759Y-113114637D01*
X141194637Y-112914759D01*
X141351680Y-112679727D01*
X141456156Y-112427499D01*
X145372106Y-112427499D01*
X145588228Y-112794258D01*
X146048105Y-113034938D01*
X146546098Y-113181275D01*
X147063071Y-113227648D01*
X147579159Y-113172273D01*
X148074526Y-113017279D01*
X148491772Y-112794258D01*
X148707894Y-112427499D01*
X147040000Y-110759605D01*
X145372106Y-112427499D01*
X141456156Y-112427499D01*
X141459853Y-112418574D01*
X141515000Y-112141335D01*
X141515000Y-111858665D01*
X141459853Y-111581426D01*
X141351680Y-111320273D01*
X141194637Y-111085241D01*
X140994759Y-110885363D01*
X140759727Y-110728320D01*
X140498574Y-110620147D01*
X140412729Y-110603071D01*
X144392352Y-110603071D01*
X144447727Y-111119159D01*
X144602721Y-111614526D01*
X144825742Y-112031772D01*
X145192501Y-112247894D01*
X146860395Y-110580000D01*
X147219605Y-110580000D01*
X148887499Y-112247894D01*
X149254258Y-112031772D01*
X149494938Y-111571895D01*
X149641275Y-111073902D01*
X149687648Y-110556929D01*
X149632273Y-110040841D01*
X149477279Y-109545474D01*
X149254258Y-109128228D01*
X148887499Y-108912106D01*
X147219605Y-110580000D01*
X146860395Y-110580000D01*
X145192501Y-108912106D01*
X144825742Y-109128228D01*
X144585062Y-109588105D01*
X144438725Y-110086098D01*
X144392352Y-110603071D01*
X140412729Y-110603071D01*
X140221335Y-110565000D01*
X139938665Y-110565000D01*
X139661426Y-110620147D01*
X139400273Y-110728320D01*
X139165241Y-110885363D01*
X138965363Y-111085241D01*
X138808320Y-111320273D01*
X138700147Y-111581426D01*
X138695000Y-111607301D01*
X138689853Y-111581426D01*
X138581680Y-111320273D01*
X138424637Y-111085241D01*
X138224759Y-110885363D01*
X137989727Y-110728320D01*
X137728574Y-110620147D01*
X137451335Y-110565000D01*
X137168665Y-110565000D01*
X136891426Y-110620147D01*
X136630273Y-110728320D01*
X136395241Y-110885363D01*
X136195363Y-111085241D01*
X136038320Y-111320273D01*
X135930147Y-111581426D01*
X135925000Y-111607301D01*
X135919853Y-111581426D01*
X135811680Y-111320273D01*
X135654637Y-111085241D01*
X135454759Y-110885363D01*
X135219727Y-110728320D01*
X134958574Y-110620147D01*
X134681335Y-110565000D01*
X134398665Y-110565000D01*
X134121426Y-110620147D01*
X133860273Y-110728320D01*
X133625241Y-110885363D01*
X133425363Y-111085241D01*
X133268320Y-111320273D01*
X133160147Y-111581426D01*
X133155000Y-111607301D01*
X133149853Y-111581426D01*
X133041680Y-111320273D01*
X132884637Y-111085241D01*
X132684759Y-110885363D01*
X132449727Y-110728320D01*
X132188574Y-110620147D01*
X131911335Y-110565000D01*
X131628665Y-110565000D01*
X131351426Y-110620147D01*
X131090273Y-110728320D01*
X130855241Y-110885363D01*
X130655363Y-111085241D01*
X130498320Y-111320273D01*
X130438072Y-111465725D01*
X130438072Y-111200000D01*
X130425812Y-111075518D01*
X130389502Y-110955820D01*
X130330537Y-110845506D01*
X130251185Y-110748815D01*
X130154494Y-110669463D01*
X130044180Y-110610498D01*
X129924482Y-110574188D01*
X129800000Y-110561928D01*
X128200000Y-110561928D01*
X128075518Y-110574188D01*
X127955820Y-110610498D01*
X127845506Y-110669463D01*
X127748815Y-110748815D01*
X127669463Y-110845506D01*
X127610498Y-110955820D01*
X127574188Y-111075518D01*
X127561928Y-111200000D01*
X127561928Y-112800000D01*
X127574188Y-112924482D01*
X127610498Y-113044180D01*
X127669463Y-113154494D01*
X127748815Y-113251185D01*
X127845506Y-113330537D01*
X127955820Y-113389502D01*
X128075518Y-113425812D01*
X128200000Y-113438072D01*
X129800000Y-113438072D01*
X129924482Y-113425812D01*
X130044180Y-113389502D01*
X130154494Y-113330537D01*
X130251185Y-113251185D01*
X130330537Y-113154494D01*
X130389502Y-113044180D01*
X130425812Y-112924482D01*
X130438072Y-112800000D01*
X130438072Y-112534275D01*
X130498320Y-112679727D01*
X130655363Y-112914759D01*
X130855241Y-113114637D01*
X131090273Y-113271680D01*
X131351426Y-113379853D01*
X131628665Y-113435000D01*
X131911335Y-113435000D01*
X132188574Y-113379853D01*
X132449727Y-113271680D01*
X132684759Y-113114637D01*
X132884637Y-112914759D01*
X133041680Y-112679727D01*
X133149853Y-112418574D01*
X133155000Y-112392699D01*
X133160147Y-112418574D01*
X133268320Y-112679727D01*
X133425363Y-112914759D01*
X133625241Y-113114637D01*
X133860273Y-113271680D01*
X134121426Y-113379853D01*
X134398665Y-113435000D01*
X134681335Y-113435000D01*
X134958574Y-113379853D01*
X135219727Y-113271680D01*
X135454759Y-113114637D01*
X135654637Y-112914759D01*
X135811680Y-112679727D01*
X135919853Y-112418574D01*
X135925000Y-112392699D01*
X135930147Y-112418574D01*
X136038320Y-112679727D01*
X136195363Y-112914759D01*
X136395241Y-113114637D01*
X136630273Y-113271680D01*
X136891426Y-113379853D01*
X137168665Y-113435000D01*
X137451335Y-113435000D01*
X137599713Y-113405485D01*
X136765199Y-114240000D01*
X131703711Y-114240000D01*
X131659774Y-114196063D01*
X131490256Y-114082795D01*
X131301898Y-114004774D01*
X131101939Y-113965000D01*
X130898061Y-113965000D01*
X130698102Y-114004774D01*
X130509744Y-114082795D01*
X130340226Y-114196063D01*
X130296289Y-114240000D01*
X122703711Y-114240000D01*
X122659774Y-114196063D01*
X122490256Y-114082795D01*
X122301898Y-114004774D01*
X122101939Y-113965000D01*
X121898061Y-113965000D01*
X121698102Y-114004774D01*
X121509744Y-114082795D01*
X121340226Y-114196063D01*
X121196063Y-114340226D01*
X121082795Y-114509744D01*
X121004774Y-114698102D01*
X120965000Y-114898061D01*
X114188569Y-114898061D01*
X114735910Y-114078909D01*
X115175764Y-113017007D01*
X115293024Y-112427499D01*
X120372106Y-112427499D01*
X120588228Y-112794258D01*
X121048105Y-113034938D01*
X121546098Y-113181275D01*
X122063071Y-113227648D01*
X122579159Y-113172273D01*
X123074526Y-113017279D01*
X123491772Y-112794258D01*
X123707894Y-112427499D01*
X122040000Y-110759605D01*
X120372106Y-112427499D01*
X115293024Y-112427499D01*
X115400000Y-111889697D01*
X115400000Y-110740303D01*
X115372703Y-110603071D01*
X119392352Y-110603071D01*
X119447727Y-111119159D01*
X119602721Y-111614526D01*
X119825742Y-112031772D01*
X120192501Y-112247894D01*
X121860395Y-110580000D01*
X122219605Y-110580000D01*
X123887499Y-112247894D01*
X124254258Y-112031772D01*
X124494938Y-111571895D01*
X124641275Y-111073902D01*
X124687648Y-110556929D01*
X124632273Y-110040841D01*
X124477279Y-109545474D01*
X124254258Y-109128228D01*
X124068330Y-109018665D01*
X128950000Y-109018665D01*
X128950000Y-109301335D01*
X129005147Y-109578574D01*
X129113320Y-109839727D01*
X129270363Y-110074759D01*
X129470241Y-110274637D01*
X129705273Y-110431680D01*
X129966426Y-110539853D01*
X130243665Y-110595000D01*
X130526335Y-110595000D01*
X130803574Y-110539853D01*
X131064727Y-110431680D01*
X131299759Y-110274637D01*
X131499637Y-110074759D01*
X131656680Y-109839727D01*
X131764853Y-109578574D01*
X131770000Y-109552699D01*
X131775147Y-109578574D01*
X131883320Y-109839727D01*
X132040363Y-110074759D01*
X132240241Y-110274637D01*
X132475273Y-110431680D01*
X132736426Y-110539853D01*
X133013665Y-110595000D01*
X133296335Y-110595000D01*
X133573574Y-110539853D01*
X133834727Y-110431680D01*
X134069759Y-110274637D01*
X134269637Y-110074759D01*
X134426680Y-109839727D01*
X134534853Y-109578574D01*
X134540000Y-109552699D01*
X134545147Y-109578574D01*
X134653320Y-109839727D01*
X134810363Y-110074759D01*
X135010241Y-110274637D01*
X135245273Y-110431680D01*
X135506426Y-110539853D01*
X135783665Y-110595000D01*
X136066335Y-110595000D01*
X136343574Y-110539853D01*
X136604727Y-110431680D01*
X136839759Y-110274637D01*
X137039637Y-110074759D01*
X137196680Y-109839727D01*
X137304853Y-109578574D01*
X137310000Y-109552699D01*
X137315147Y-109578574D01*
X137423320Y-109839727D01*
X137580363Y-110074759D01*
X137780241Y-110274637D01*
X138015273Y-110431680D01*
X138276426Y-110539853D01*
X138553665Y-110595000D01*
X138836335Y-110595000D01*
X139113574Y-110539853D01*
X139374727Y-110431680D01*
X139609759Y-110274637D01*
X139809637Y-110074759D01*
X139966680Y-109839727D01*
X140074853Y-109578574D01*
X140130000Y-109301335D01*
X140130000Y-109018665D01*
X140074853Y-108741426D01*
X140071157Y-108732501D01*
X145372106Y-108732501D01*
X147040000Y-110400395D01*
X148707894Y-108732501D01*
X148491772Y-108365742D01*
X148031895Y-108125062D01*
X147533902Y-107978725D01*
X147016929Y-107932352D01*
X146500841Y-107987727D01*
X146005474Y-108142721D01*
X145588228Y-108365742D01*
X145372106Y-108732501D01*
X140071157Y-108732501D01*
X139966680Y-108480273D01*
X139809637Y-108245241D01*
X139609759Y-108045363D01*
X139374727Y-107888320D01*
X139113574Y-107780147D01*
X138836335Y-107725000D01*
X138553665Y-107725000D01*
X138276426Y-107780147D01*
X138015273Y-107888320D01*
X137780241Y-108045363D01*
X137580363Y-108245241D01*
X137423320Y-108480273D01*
X137315147Y-108741426D01*
X137310000Y-108767301D01*
X137304853Y-108741426D01*
X137196680Y-108480273D01*
X137039637Y-108245241D01*
X136839759Y-108045363D01*
X136604727Y-107888320D01*
X136343574Y-107780147D01*
X136066335Y-107725000D01*
X135783665Y-107725000D01*
X135506426Y-107780147D01*
X135245273Y-107888320D01*
X135010241Y-108045363D01*
X134810363Y-108245241D01*
X134653320Y-108480273D01*
X134545147Y-108741426D01*
X134540000Y-108767301D01*
X134534853Y-108741426D01*
X134426680Y-108480273D01*
X134269637Y-108245241D01*
X134069759Y-108045363D01*
X133834727Y-107888320D01*
X133573574Y-107780147D01*
X133296335Y-107725000D01*
X133013665Y-107725000D01*
X132736426Y-107780147D01*
X132475273Y-107888320D01*
X132240241Y-108045363D01*
X132040363Y-108245241D01*
X131883320Y-108480273D01*
X131775147Y-108741426D01*
X131770000Y-108767301D01*
X131764853Y-108741426D01*
X131656680Y-108480273D01*
X131499637Y-108245241D01*
X131299759Y-108045363D01*
X131064727Y-107888320D01*
X130803574Y-107780147D01*
X130526335Y-107725000D01*
X130243665Y-107725000D01*
X129966426Y-107780147D01*
X129705273Y-107888320D01*
X129470241Y-108045363D01*
X129270363Y-108245241D01*
X129113320Y-108480273D01*
X129005147Y-108741426D01*
X128950000Y-109018665D01*
X124068330Y-109018665D01*
X123887499Y-108912106D01*
X122219605Y-110580000D01*
X121860395Y-110580000D01*
X120192501Y-108912106D01*
X119825742Y-109128228D01*
X119585062Y-109588105D01*
X119438725Y-110086098D01*
X119392352Y-110603071D01*
X115372703Y-110603071D01*
X115175764Y-109612993D01*
X114811053Y-108732501D01*
X120372106Y-108732501D01*
X122040000Y-110400395D01*
X123707894Y-108732501D01*
X123491772Y-108365742D01*
X123031895Y-108125062D01*
X122533902Y-107978725D01*
X122016929Y-107932352D01*
X121500841Y-107987727D01*
X121005474Y-108142721D01*
X120588228Y-108365742D01*
X120372106Y-108732501D01*
X114811053Y-108732501D01*
X114735910Y-108551091D01*
X114097340Y-107595404D01*
X113284596Y-106782660D01*
X112328909Y-106144090D01*
X111267007Y-105704236D01*
X110139697Y-105480000D01*
X108990303Y-105480000D01*
X107862993Y-105704236D01*
X106801091Y-106144090D01*
X105845404Y-106782660D01*
X105032660Y-107595404D01*
X104394090Y-108551091D01*
X103954236Y-109612993D01*
X103730000Y-110740303D01*
X96725000Y-110740303D01*
X96725000Y-105040664D01*
X155845000Y-105040664D01*
X155862870Y-105222101D01*
X155933489Y-105454900D01*
X156048167Y-105669448D01*
X156202498Y-105857502D01*
X156390551Y-106011833D01*
X156605099Y-106126511D01*
X156837898Y-106197130D01*
X157080000Y-106220975D01*
X157322101Y-106197130D01*
X157554900Y-106126511D01*
X157769448Y-106011833D01*
X157957502Y-105857502D01*
X158111833Y-105669449D01*
X158226511Y-105454901D01*
X158297130Y-105222102D01*
X158315000Y-105040665D01*
X158315000Y-105040664D01*
X158385000Y-105040664D01*
X158402870Y-105222101D01*
X158473489Y-105454900D01*
X158588167Y-105669448D01*
X158742498Y-105857502D01*
X158930551Y-106011833D01*
X159145099Y-106126511D01*
X159377898Y-106197130D01*
X159620000Y-106220975D01*
X159862101Y-106197130D01*
X160094900Y-106126511D01*
X160309448Y-106011833D01*
X160497502Y-105857502D01*
X160651833Y-105669449D01*
X160766511Y-105454901D01*
X160837130Y-105222102D01*
X160855000Y-105040665D01*
X160855000Y-105040664D01*
X160925000Y-105040664D01*
X160942870Y-105222101D01*
X161013489Y-105454900D01*
X161128167Y-105669448D01*
X161282498Y-105857502D01*
X161470551Y-106011833D01*
X161685099Y-106126511D01*
X161917898Y-106197130D01*
X162160000Y-106220975D01*
X162402101Y-106197130D01*
X162634900Y-106126511D01*
X162849448Y-106011833D01*
X163037502Y-105857502D01*
X163191833Y-105669449D01*
X163306511Y-105454901D01*
X163377130Y-105222102D01*
X163395000Y-105040665D01*
X163395000Y-105040664D01*
X163465000Y-105040664D01*
X163482870Y-105222101D01*
X163553489Y-105454900D01*
X163668167Y-105669448D01*
X163822498Y-105857502D01*
X164010551Y-106011833D01*
X164225099Y-106126511D01*
X164457898Y-106197130D01*
X164700000Y-106220975D01*
X164942101Y-106197130D01*
X165174900Y-106126511D01*
X165389448Y-106011833D01*
X165577502Y-105857502D01*
X165731833Y-105669449D01*
X165846511Y-105454901D01*
X165917130Y-105222102D01*
X165935000Y-105040665D01*
X165935000Y-105040664D01*
X166005000Y-105040664D01*
X166022870Y-105222101D01*
X166093489Y-105454900D01*
X166208167Y-105669448D01*
X166362498Y-105857502D01*
X166550551Y-106011833D01*
X166765099Y-106126511D01*
X166997898Y-106197130D01*
X167240000Y-106220975D01*
X167482101Y-106197130D01*
X167714900Y-106126511D01*
X167929448Y-106011833D01*
X168117502Y-105857502D01*
X168271833Y-105669449D01*
X168386511Y-105454901D01*
X168457130Y-105222102D01*
X168475000Y-105040665D01*
X168475000Y-105040664D01*
X168545000Y-105040664D01*
X168562870Y-105222101D01*
X168633489Y-105454900D01*
X168748167Y-105669448D01*
X168902498Y-105857502D01*
X169090551Y-106011833D01*
X169305099Y-106126511D01*
X169537898Y-106197130D01*
X169780000Y-106220975D01*
X170022101Y-106197130D01*
X170254900Y-106126511D01*
X170469448Y-106011833D01*
X170657502Y-105857502D01*
X170811833Y-105669449D01*
X170926511Y-105454901D01*
X170997130Y-105222102D01*
X171015000Y-105040665D01*
X171015000Y-105040664D01*
X171085000Y-105040664D01*
X171102870Y-105222101D01*
X171173489Y-105454900D01*
X171288167Y-105669448D01*
X171442498Y-105857502D01*
X171630551Y-106011833D01*
X171845099Y-106126511D01*
X172077898Y-106197130D01*
X172320000Y-106220975D01*
X172562101Y-106197130D01*
X172794900Y-106126511D01*
X173009448Y-106011833D01*
X173197502Y-105857502D01*
X173351833Y-105669449D01*
X173466511Y-105454901D01*
X173537130Y-105222102D01*
X173555000Y-105040665D01*
X173555000Y-102119335D01*
X173537130Y-101937898D01*
X173466511Y-101705099D01*
X173351833Y-101490551D01*
X173197502Y-101302498D01*
X173009449Y-101148167D01*
X172794901Y-101033489D01*
X172562102Y-100962870D01*
X172320000Y-100939025D01*
X172077899Y-100962870D01*
X171845100Y-101033489D01*
X171630552Y-101148167D01*
X171442499Y-101302498D01*
X171288168Y-101490551D01*
X171173490Y-101705099D01*
X171102871Y-101937898D01*
X171085001Y-102119335D01*
X171085000Y-105040664D01*
X171015000Y-105040664D01*
X171015000Y-102119335D01*
X170997130Y-101937898D01*
X170926511Y-101705099D01*
X170811833Y-101490551D01*
X170657502Y-101302498D01*
X170469449Y-101148167D01*
X170254901Y-101033489D01*
X170022102Y-100962870D01*
X169780000Y-100939025D01*
X169537899Y-100962870D01*
X169305100Y-101033489D01*
X169090552Y-101148167D01*
X168902499Y-101302498D01*
X168748168Y-101490551D01*
X168633490Y-101705099D01*
X168562871Y-101937898D01*
X168545001Y-102119335D01*
X168545000Y-105040664D01*
X168475000Y-105040664D01*
X168475000Y-102119335D01*
X168457130Y-101937898D01*
X168386511Y-101705099D01*
X168271833Y-101490551D01*
X168117502Y-101302498D01*
X167929449Y-101148167D01*
X167714901Y-101033489D01*
X167482102Y-100962870D01*
X167240000Y-100939025D01*
X166997899Y-100962870D01*
X166765100Y-101033489D01*
X166550552Y-101148167D01*
X166362499Y-101302498D01*
X166208168Y-101490551D01*
X166093490Y-101705099D01*
X166022871Y-101937898D01*
X166005001Y-102119335D01*
X166005000Y-105040664D01*
X165935000Y-105040664D01*
X165935000Y-102119335D01*
X165917130Y-101937898D01*
X165846511Y-101705099D01*
X165731833Y-101490551D01*
X165577502Y-101302498D01*
X165389449Y-101148167D01*
X165174901Y-101033489D01*
X164942102Y-100962870D01*
X164700000Y-100939025D01*
X164457899Y-100962870D01*
X164225100Y-101033489D01*
X164010552Y-101148167D01*
X163822499Y-101302498D01*
X163668168Y-101490551D01*
X163553490Y-101705099D01*
X163482871Y-101937898D01*
X163465001Y-102119335D01*
X163465000Y-105040664D01*
X163395000Y-105040664D01*
X163395000Y-102119335D01*
X163377130Y-101937898D01*
X163306511Y-101705099D01*
X163191833Y-101490551D01*
X163037502Y-101302498D01*
X162849449Y-101148167D01*
X162634901Y-101033489D01*
X162402102Y-100962870D01*
X162160000Y-100939025D01*
X161917899Y-100962870D01*
X161685100Y-101033489D01*
X161470552Y-101148167D01*
X161282499Y-101302498D01*
X161128168Y-101490551D01*
X161013490Y-101705099D01*
X160942871Y-101937898D01*
X160925001Y-102119335D01*
X160925000Y-105040664D01*
X160855000Y-105040664D01*
X160855000Y-102119335D01*
X160837130Y-101937898D01*
X160766511Y-101705099D01*
X160651833Y-101490551D01*
X160497502Y-101302498D01*
X160309449Y-101148167D01*
X160094901Y-101033489D01*
X159862102Y-100962870D01*
X159620000Y-100939025D01*
X159377899Y-100962870D01*
X159145100Y-101033489D01*
X158930552Y-101148167D01*
X158742499Y-101302498D01*
X158588168Y-101490551D01*
X158473490Y-101705099D01*
X158402871Y-101937898D01*
X158385001Y-102119335D01*
X158385000Y-105040664D01*
X158315000Y-105040664D01*
X158315000Y-102119335D01*
X158297130Y-101937898D01*
X158226511Y-101705099D01*
X158111833Y-101490551D01*
X157957502Y-101302498D01*
X157769449Y-101148167D01*
X157554901Y-101033489D01*
X157322102Y-100962870D01*
X157080000Y-100939025D01*
X156837899Y-100962870D01*
X156605100Y-101033489D01*
X156390552Y-101148167D01*
X156202499Y-101302498D01*
X156048168Y-101490551D01*
X155933490Y-101705099D01*
X155862871Y-101937898D01*
X155845001Y-102119335D01*
X155845000Y-105040664D01*
X96725000Y-105040664D01*
X96725000Y-100032278D01*
X96790476Y-99364498D01*
X96975039Y-98753198D01*
X97274817Y-98189397D01*
X97678399Y-97694555D01*
X98170412Y-97287526D01*
X98732112Y-96983816D01*
X99342104Y-96794992D01*
X100008036Y-96725000D01*
X195097722Y-96725000D01*
X195765502Y-96790476D01*
M02*
