M48
; DRILL file {KiCad (5.1.5-0)} date Monday, December 28, 2020 at 05:15:01 PM
; FORMAT={-:-/ absolute / inch / decimal}
; #@! TF.CreationDate,2020-12-28T17:15:01-07:00
; #@! TF.GenerationSoftware,Kicad,Pcbnew,(5.1.5-0)
FMAT,2
INCH
T1C0.0315
T2C0.0394
T3C0.1260
T4C0.1378
%
G90
G05
T1
X6.1843Y-4.078
X6.1843Y-4.678
X6.2843Y-4.078
X6.2843Y-4.678
X6.3843Y-4.078
X6.3843Y-4.678
X6.4843Y-4.078
X6.4843Y-4.678
X6.5843Y-4.078
X6.5843Y-4.678
X6.6843Y-4.078
X6.6843Y-4.678
X6.7843Y-4.078
X6.7843Y-4.678
T2
X4.685Y-4.4094
X4.7396Y-4.2976
X4.7941Y-4.4094
X4.8486Y-4.2976
X4.9031Y-4.4094
X4.9577Y-4.2976
X5.0122Y-4.4094
X5.0667Y-4.2976
X5.1213Y-4.4094
T3
X4.411Y-4.3535
X5.3953Y-4.3535
T4
X3.937Y-3.937
X3.937Y-4.828
X7.6823Y-3.937
X7.6823Y-4.828
T0
M30
