G04 #@! TF.GenerationSoftware,KiCad,Pcbnew,(5.1.5-0)*
G04 #@! TF.CreationDate,2021-01-17T10:32:34-07:00*
G04 #@! TF.ProjectId,8ch_v5_nosma,3863685f-7635-45f6-9e6f-736d612e6b69,rev?*
G04 #@! TF.SameCoordinates,Original*
G04 #@! TF.FileFunction,Other,User*
%FSLAX46Y46*%
G04 Gerber Fmt 4.6, Leading zero omitted, Abs format (unit mm)*
G04 Created by KiCad (PCBNEW (5.1.5-0)) date 2021-01-17 10:32:34*
%MOMM*%
%LPD*%
G04 APERTURE LIST*
%ADD10C,0.050000*%
G04 APERTURE END LIST*
D10*
X160950000Y-127150000D02*
X157650000Y-127150000D01*
X160950000Y-127150000D02*
X160950000Y-124650000D01*
X157650000Y-124650000D02*
X157650000Y-127150000D01*
X157650000Y-124650000D02*
X160950000Y-124650000D01*
X140150000Y-112550000D02*
X140150000Y-109250000D01*
X140150000Y-112550000D02*
X142650000Y-112550000D01*
X142650000Y-109250000D02*
X140150000Y-109250000D01*
X142650000Y-109250000D02*
X142650000Y-112550000D01*
X145350000Y-106150000D02*
X145350000Y-102850000D01*
X145350000Y-106150000D02*
X147850000Y-106150000D01*
X147850000Y-102850000D02*
X145350000Y-102850000D01*
X147850000Y-102850000D02*
X147850000Y-106150000D01*
X151700000Y-102700000D02*
X151700000Y-95300000D01*
X146300000Y-102700000D02*
X151700000Y-102700000D01*
X146300000Y-95300000D02*
X146300000Y-102700000D01*
X151700000Y-95300000D02*
X146300000Y-95300000D01*
X145800000Y-102350000D02*
X145800000Y-95450000D01*
X140300000Y-102350000D02*
X145800000Y-102350000D01*
X140300000Y-95450000D02*
X140300000Y-102350000D01*
X145800000Y-95450000D02*
X140300000Y-95450000D01*
X150400000Y-110350000D02*
X150400000Y-108450000D01*
X150400000Y-108450000D02*
X147200000Y-108450000D01*
X147200000Y-110350000D02*
X147200000Y-108450000D01*
X150400000Y-110350000D02*
X147200000Y-110350000D01*
X140400000Y-63100000D02*
X140400000Y-70900000D01*
X145600000Y-63100000D02*
X140400000Y-63100000D01*
X145600000Y-70900000D02*
X145600000Y-63100000D01*
X140400000Y-70900000D02*
X145600000Y-70900000D01*
X153500000Y-122700000D02*
X152850000Y-123350000D01*
X154500000Y-122700000D02*
X153500000Y-122700000D01*
X155150000Y-123350000D02*
X154500000Y-122700000D01*
X155150000Y-127150000D02*
X155150000Y-123350000D01*
X154500000Y-127800000D02*
X155150000Y-127150000D01*
X153500000Y-127800000D02*
X154500000Y-127800000D01*
X152850000Y-127150000D02*
X153500000Y-127800000D01*
X152850000Y-123350000D02*
X152850000Y-127150000D01*
X155700000Y-45500000D02*
X156350000Y-46150000D01*
X155700000Y-44500000D02*
X155700000Y-45500000D01*
X156350000Y-43850000D02*
X155700000Y-44500000D01*
X160150000Y-43850000D02*
X156350000Y-43850000D01*
X160800000Y-44500000D02*
X160150000Y-43850000D01*
X160800000Y-45500000D02*
X160800000Y-44500000D01*
X160150000Y-46150000D02*
X160800000Y-45500000D01*
X156350000Y-46150000D02*
X160150000Y-46150000D01*
X227100000Y-74200000D02*
X212200000Y-74200000D01*
X227100000Y-95550000D02*
X227100000Y-74200000D01*
X212200000Y-95550000D02*
X227100000Y-95550000D01*
X212200000Y-74200000D02*
X212200000Y-95550000D01*
X218450000Y-129500000D02*
G75*
G03X218450000Y-129500000I-3450000J0D01*
G01*
X144650000Y-108930000D02*
X141350000Y-108930000D01*
X144650000Y-107470000D02*
X144650000Y-108930000D01*
X141350000Y-107470000D02*
X144650000Y-107470000D01*
X141350000Y-108930000D02*
X141350000Y-107470000D01*
X144800000Y-107100000D02*
X141300000Y-107100000D01*
X144800000Y-103700000D02*
X144800000Y-107100000D01*
X141300000Y-103700000D02*
X144800000Y-103700000D01*
X141300000Y-107100000D02*
X141300000Y-103700000D01*
X151450000Y-106330000D02*
X148150000Y-106330000D01*
X151450000Y-104870000D02*
X151450000Y-106330000D01*
X148150000Y-104870000D02*
X151450000Y-104870000D01*
X148150000Y-106330000D02*
X148150000Y-104870000D01*
X151450000Y-107930000D02*
X148150000Y-107930000D01*
X151450000Y-106470000D02*
X151450000Y-107930000D01*
X148150000Y-106470000D02*
X151450000Y-106470000D01*
X148150000Y-107930000D02*
X148150000Y-106470000D01*
X148150000Y-103070000D02*
X151450000Y-103070000D01*
X148150000Y-104530000D02*
X148150000Y-103070000D01*
X151450000Y-104530000D02*
X148150000Y-104530000D01*
X151450000Y-103070000D02*
X151450000Y-104530000D01*
X148150000Y-93470000D02*
X151450000Y-93470000D01*
X148150000Y-94930000D02*
X148150000Y-93470000D01*
X151450000Y-94930000D02*
X148150000Y-94930000D01*
X151450000Y-93470000D02*
X151450000Y-94930000D01*
X184080000Y-119200000D02*
X177720000Y-119200000D01*
X184080000Y-122700000D02*
X184080000Y-119200000D01*
X177720000Y-122700000D02*
X184080000Y-122700000D01*
X177720000Y-119200000D02*
X177720000Y-122700000D01*
X184080000Y-109200000D02*
X177720000Y-109200000D01*
X184080000Y-112700000D02*
X184080000Y-109200000D01*
X177720000Y-112700000D02*
X184080000Y-112700000D01*
X177720000Y-109200000D02*
X177720000Y-112700000D01*
X184080000Y-99200000D02*
X177720000Y-99200000D01*
X184080000Y-102700000D02*
X184080000Y-99200000D01*
X177720000Y-102700000D02*
X184080000Y-102700000D01*
X177720000Y-99200000D02*
X177720000Y-102700000D01*
X184080000Y-89200000D02*
X177720000Y-89200000D01*
X184080000Y-92700000D02*
X184080000Y-89200000D01*
X177720000Y-92700000D02*
X184080000Y-92700000D01*
X177720000Y-89200000D02*
X177720000Y-92700000D01*
X184080000Y-79200000D02*
X177720000Y-79200000D01*
X184080000Y-82700000D02*
X184080000Y-79200000D01*
X177720000Y-82700000D02*
X184080000Y-82700000D01*
X177720000Y-79200000D02*
X177720000Y-82700000D01*
X184080000Y-69200000D02*
X177720000Y-69200000D01*
X184080000Y-72700000D02*
X184080000Y-69200000D01*
X177720000Y-72700000D02*
X184080000Y-72700000D01*
X177720000Y-69200000D02*
X177720000Y-72700000D01*
X184080000Y-59200000D02*
X177720000Y-59200000D01*
X184080000Y-62700000D02*
X184080000Y-59200000D01*
X177720000Y-62700000D02*
X184080000Y-62700000D01*
X177720000Y-59200000D02*
X177720000Y-62700000D01*
X184080000Y-49200000D02*
X177720000Y-49200000D01*
X184080000Y-52700000D02*
X184080000Y-49200000D01*
X177720000Y-52700000D02*
X184080000Y-52700000D01*
X177720000Y-49200000D02*
X177720000Y-52700000D01*
X148330000Y-119550000D02*
X148330000Y-122850000D01*
X146870000Y-119550000D02*
X148330000Y-119550000D01*
X146870000Y-122850000D02*
X146870000Y-119550000D01*
X148330000Y-122850000D02*
X146870000Y-122850000D01*
X146050000Y-115820000D02*
X146050000Y-112220000D01*
X149850000Y-115820000D02*
X146050000Y-115820000D01*
X149850000Y-112220000D02*
X149850000Y-115820000D01*
X146050000Y-112220000D02*
X149850000Y-112220000D01*
X142270000Y-116250000D02*
X142270000Y-112950000D01*
X143730000Y-116250000D02*
X142270000Y-116250000D01*
X143730000Y-112950000D02*
X143730000Y-116250000D01*
X142270000Y-112950000D02*
X143730000Y-112950000D01*
X168850000Y-122870000D02*
X172150000Y-122870000D01*
X168850000Y-124330000D02*
X168850000Y-122870000D01*
X172150000Y-124330000D02*
X168850000Y-124330000D01*
X172150000Y-122870000D02*
X172150000Y-124330000D01*
X155850000Y-119270000D02*
X159150000Y-119270000D01*
X155850000Y-120730000D02*
X155850000Y-119270000D01*
X159150000Y-120730000D02*
X155850000Y-120730000D01*
X159150000Y-119270000D02*
X159150000Y-120730000D01*
X168850000Y-112870000D02*
X172150000Y-112870000D01*
X168850000Y-114330000D02*
X168850000Y-112870000D01*
X172150000Y-114330000D02*
X168850000Y-114330000D01*
X172150000Y-112870000D02*
X172150000Y-114330000D01*
X155850000Y-109270000D02*
X159150000Y-109270000D01*
X155850000Y-110730000D02*
X155850000Y-109270000D01*
X159150000Y-110730000D02*
X155850000Y-110730000D01*
X159150000Y-109270000D02*
X159150000Y-110730000D01*
X168850000Y-102870000D02*
X172150000Y-102870000D01*
X168850000Y-104330000D02*
X168850000Y-102870000D01*
X172150000Y-104330000D02*
X168850000Y-104330000D01*
X172150000Y-102870000D02*
X172150000Y-104330000D01*
X155850000Y-99270000D02*
X159150000Y-99270000D01*
X155850000Y-100730000D02*
X155850000Y-99270000D01*
X159150000Y-100730000D02*
X155850000Y-100730000D01*
X159150000Y-99270000D02*
X159150000Y-100730000D01*
X168850000Y-92870000D02*
X172150000Y-92870000D01*
X168850000Y-94330000D02*
X168850000Y-92870000D01*
X172150000Y-94330000D02*
X168850000Y-94330000D01*
X172150000Y-92870000D02*
X172150000Y-94330000D01*
X155850000Y-89270000D02*
X159150000Y-89270000D01*
X155850000Y-90730000D02*
X155850000Y-89270000D01*
X159150000Y-90730000D02*
X155850000Y-90730000D01*
X159150000Y-89270000D02*
X159150000Y-90730000D01*
X168850000Y-82870000D02*
X172150000Y-82870000D01*
X168850000Y-84330000D02*
X168850000Y-82870000D01*
X172150000Y-84330000D02*
X168850000Y-84330000D01*
X172150000Y-82870000D02*
X172150000Y-84330000D01*
X155850000Y-79270000D02*
X159150000Y-79270000D01*
X155850000Y-80730000D02*
X155850000Y-79270000D01*
X159150000Y-80730000D02*
X155850000Y-80730000D01*
X159150000Y-79270000D02*
X159150000Y-80730000D01*
X168850000Y-72870000D02*
X172150000Y-72870000D01*
X168850000Y-74330000D02*
X168850000Y-72870000D01*
X172150000Y-74330000D02*
X168850000Y-74330000D01*
X172150000Y-72870000D02*
X172150000Y-74330000D01*
X155850000Y-69270000D02*
X159150000Y-69270000D01*
X155850000Y-70730000D02*
X155850000Y-69270000D01*
X159150000Y-70730000D02*
X155850000Y-70730000D01*
X159150000Y-69270000D02*
X159150000Y-70730000D01*
X168850000Y-62870000D02*
X172150000Y-62870000D01*
X168850000Y-64330000D02*
X168850000Y-62870000D01*
X172150000Y-64330000D02*
X168850000Y-64330000D01*
X172150000Y-62870000D02*
X172150000Y-64330000D01*
X155850000Y-59270000D02*
X159150000Y-59270000D01*
X155850000Y-60730000D02*
X155850000Y-59270000D01*
X159150000Y-60730000D02*
X155850000Y-60730000D01*
X159150000Y-59270000D02*
X159150000Y-60730000D01*
X168850000Y-52870000D02*
X172150000Y-52870000D01*
X168850000Y-54330000D02*
X168850000Y-52870000D01*
X172150000Y-54330000D02*
X168850000Y-54330000D01*
X172150000Y-52870000D02*
X172150000Y-54330000D01*
X155850000Y-49270000D02*
X159150000Y-49270000D01*
X155850000Y-50730000D02*
X155850000Y-49270000D01*
X159150000Y-50730000D02*
X155850000Y-50730000D01*
X159150000Y-49270000D02*
X159150000Y-50730000D01*
X150270000Y-115750000D02*
X150270000Y-112450000D01*
X151730000Y-115750000D02*
X150270000Y-115750000D01*
X151730000Y-112450000D02*
X151730000Y-115750000D01*
X150270000Y-112450000D02*
X151730000Y-112450000D01*
X144070000Y-115650000D02*
X144070000Y-112350000D01*
X145530000Y-115650000D02*
X144070000Y-115650000D01*
X145530000Y-112350000D02*
X145530000Y-115650000D01*
X144070000Y-112350000D02*
X145530000Y-112350000D01*
X167400000Y-116950000D02*
X161800000Y-116950000D01*
X167400000Y-120550000D02*
X161800000Y-120550000D01*
X161800000Y-120550000D02*
X161800000Y-116950000D01*
X167400000Y-120550000D02*
X167400000Y-116950000D01*
X175600000Y-122600000D02*
X172000000Y-122600000D01*
X175600000Y-118800000D02*
X175600000Y-122600000D01*
X172000000Y-118800000D02*
X175600000Y-118800000D01*
X172000000Y-122600000D02*
X172000000Y-118800000D01*
X167400000Y-106950000D02*
X161800000Y-106950000D01*
X167400000Y-110550000D02*
X161800000Y-110550000D01*
X161800000Y-110550000D02*
X161800000Y-106950000D01*
X167400000Y-110550000D02*
X167400000Y-106950000D01*
X175600000Y-112600000D02*
X172000000Y-112600000D01*
X175600000Y-108800000D02*
X175600000Y-112600000D01*
X172000000Y-108800000D02*
X175600000Y-108800000D01*
X172000000Y-112600000D02*
X172000000Y-108800000D01*
X167400000Y-96950000D02*
X161800000Y-96950000D01*
X167400000Y-100550000D02*
X161800000Y-100550000D01*
X161800000Y-100550000D02*
X161800000Y-96950000D01*
X167400000Y-100550000D02*
X167400000Y-96950000D01*
X175600000Y-102600000D02*
X172000000Y-102600000D01*
X175600000Y-98800000D02*
X175600000Y-102600000D01*
X172000000Y-98800000D02*
X175600000Y-98800000D01*
X172000000Y-102600000D02*
X172000000Y-98800000D01*
X167400000Y-86950000D02*
X161800000Y-86950000D01*
X167400000Y-90550000D02*
X161800000Y-90550000D01*
X161800000Y-90550000D02*
X161800000Y-86950000D01*
X167400000Y-90550000D02*
X167400000Y-86950000D01*
X175600000Y-92600000D02*
X172000000Y-92600000D01*
X175600000Y-88800000D02*
X175600000Y-92600000D01*
X172000000Y-88800000D02*
X175600000Y-88800000D01*
X172000000Y-92600000D02*
X172000000Y-88800000D01*
X167400000Y-76950000D02*
X161800000Y-76950000D01*
X167400000Y-80550000D02*
X161800000Y-80550000D01*
X161800000Y-80550000D02*
X161800000Y-76950000D01*
X167400000Y-80550000D02*
X167400000Y-76950000D01*
X175600000Y-82600000D02*
X172000000Y-82600000D01*
X175600000Y-78800000D02*
X175600000Y-82600000D01*
X172000000Y-78800000D02*
X175600000Y-78800000D01*
X172000000Y-82600000D02*
X172000000Y-78800000D01*
X167400000Y-66950000D02*
X161800000Y-66950000D01*
X167400000Y-70550000D02*
X161800000Y-70550000D01*
X161800000Y-70550000D02*
X161800000Y-66950000D01*
X167400000Y-70550000D02*
X167400000Y-66950000D01*
X175600000Y-72600000D02*
X172000000Y-72600000D01*
X175600000Y-68800000D02*
X175600000Y-72600000D01*
X172000000Y-68800000D02*
X175600000Y-68800000D01*
X172000000Y-72600000D02*
X172000000Y-68800000D01*
X167400000Y-56950000D02*
X161800000Y-56950000D01*
X167400000Y-60550000D02*
X161800000Y-60550000D01*
X161800000Y-60550000D02*
X161800000Y-56950000D01*
X167400000Y-60550000D02*
X167400000Y-56950000D01*
X175600000Y-62600000D02*
X172000000Y-62600000D01*
X175600000Y-58800000D02*
X175600000Y-62600000D01*
X172000000Y-58800000D02*
X175600000Y-58800000D01*
X172000000Y-62600000D02*
X172000000Y-58800000D01*
X167400000Y-46950000D02*
X161800000Y-46950000D01*
X167400000Y-50550000D02*
X161800000Y-50550000D01*
X161800000Y-50550000D02*
X161800000Y-46950000D01*
X167400000Y-50550000D02*
X167400000Y-46950000D01*
X175600000Y-52600000D02*
X172000000Y-52600000D01*
X175600000Y-48800000D02*
X175600000Y-52600000D01*
X172000000Y-48800000D02*
X175600000Y-48800000D01*
X172000000Y-52600000D02*
X172000000Y-48800000D01*
X167650000Y-124030000D02*
X164350000Y-124030000D01*
X167650000Y-122570000D02*
X167650000Y-124030000D01*
X164350000Y-122570000D02*
X167650000Y-122570000D01*
X164350000Y-124030000D02*
X164350000Y-122570000D01*
X163850000Y-124030000D02*
X160550000Y-124030000D01*
X163850000Y-122570000D02*
X163850000Y-124030000D01*
X160550000Y-122570000D02*
X163850000Y-122570000D01*
X160550000Y-124030000D02*
X160550000Y-122570000D01*
X167650000Y-114030000D02*
X164350000Y-114030000D01*
X167650000Y-112570000D02*
X167650000Y-114030000D01*
X164350000Y-112570000D02*
X167650000Y-112570000D01*
X164350000Y-114030000D02*
X164350000Y-112570000D01*
X163850000Y-114030000D02*
X160550000Y-114030000D01*
X163850000Y-112570000D02*
X163850000Y-114030000D01*
X160550000Y-112570000D02*
X163850000Y-112570000D01*
X160550000Y-114030000D02*
X160550000Y-112570000D01*
X167650000Y-104030000D02*
X164350000Y-104030000D01*
X167650000Y-102570000D02*
X167650000Y-104030000D01*
X164350000Y-102570000D02*
X167650000Y-102570000D01*
X164350000Y-104030000D02*
X164350000Y-102570000D01*
X163850000Y-104030000D02*
X160550000Y-104030000D01*
X163850000Y-102570000D02*
X163850000Y-104030000D01*
X160550000Y-102570000D02*
X163850000Y-102570000D01*
X160550000Y-104030000D02*
X160550000Y-102570000D01*
X167650000Y-94030000D02*
X164350000Y-94030000D01*
X167650000Y-92570000D02*
X167650000Y-94030000D01*
X164350000Y-92570000D02*
X167650000Y-92570000D01*
X164350000Y-94030000D02*
X164350000Y-92570000D01*
X163850000Y-94030000D02*
X160550000Y-94030000D01*
X163850000Y-92570000D02*
X163850000Y-94030000D01*
X160550000Y-92570000D02*
X163850000Y-92570000D01*
X160550000Y-94030000D02*
X160550000Y-92570000D01*
X167650000Y-84030000D02*
X164350000Y-84030000D01*
X167650000Y-82570000D02*
X167650000Y-84030000D01*
X164350000Y-82570000D02*
X167650000Y-82570000D01*
X164350000Y-84030000D02*
X164350000Y-82570000D01*
X163850000Y-84030000D02*
X160550000Y-84030000D01*
X163850000Y-82570000D02*
X163850000Y-84030000D01*
X160550000Y-82570000D02*
X163850000Y-82570000D01*
X160550000Y-84030000D02*
X160550000Y-82570000D01*
X167650000Y-74030000D02*
X164350000Y-74030000D01*
X167650000Y-72570000D02*
X167650000Y-74030000D01*
X164350000Y-72570000D02*
X167650000Y-72570000D01*
X164350000Y-74030000D02*
X164350000Y-72570000D01*
X163850000Y-74030000D02*
X160550000Y-74030000D01*
X163850000Y-72570000D02*
X163850000Y-74030000D01*
X160550000Y-72570000D02*
X163850000Y-72570000D01*
X160550000Y-74030000D02*
X160550000Y-72570000D01*
X167650000Y-64030000D02*
X164350000Y-64030000D01*
X167650000Y-62570000D02*
X167650000Y-64030000D01*
X164350000Y-62570000D02*
X167650000Y-62570000D01*
X164350000Y-64030000D02*
X164350000Y-62570000D01*
X163850000Y-64030000D02*
X160550000Y-64030000D01*
X163850000Y-62570000D02*
X163850000Y-64030000D01*
X160550000Y-62570000D02*
X163850000Y-62570000D01*
X160550000Y-64030000D02*
X160550000Y-62570000D01*
X167650000Y-54030000D02*
X164350000Y-54030000D01*
X167650000Y-52570000D02*
X167650000Y-54030000D01*
X164350000Y-52570000D02*
X167650000Y-52570000D01*
X164350000Y-54030000D02*
X164350000Y-52570000D01*
X163850000Y-54030000D02*
X160550000Y-54030000D01*
X163850000Y-52570000D02*
X163850000Y-54030000D01*
X160550000Y-52570000D02*
X163850000Y-52570000D01*
X160550000Y-54030000D02*
X160550000Y-52570000D01*
X169850000Y-116750000D02*
X169850000Y-120450000D01*
X167950000Y-116750000D02*
X169850000Y-116750000D01*
X167950000Y-120450000D02*
X167950000Y-116750000D01*
X169850000Y-120450000D02*
X167950000Y-120450000D01*
X167650000Y-122380000D02*
X164350000Y-122380000D01*
X167650000Y-120920000D02*
X167650000Y-122380000D01*
X164350000Y-120920000D02*
X167650000Y-120920000D01*
X164350000Y-122380000D02*
X164350000Y-120920000D01*
X175550000Y-118330000D02*
X172250000Y-118330000D01*
X175550000Y-116870000D02*
X175550000Y-118330000D01*
X172250000Y-116870000D02*
X175550000Y-116870000D01*
X172250000Y-118330000D02*
X172250000Y-116870000D01*
X163850000Y-122380000D02*
X160550000Y-122380000D01*
X163850000Y-120920000D02*
X163850000Y-122380000D01*
X160550000Y-120920000D02*
X163850000Y-120920000D01*
X160550000Y-122380000D02*
X160550000Y-120920000D01*
X175550000Y-124330000D02*
X172250000Y-124330000D01*
X175550000Y-122870000D02*
X175550000Y-124330000D01*
X172250000Y-122870000D02*
X175550000Y-122870000D01*
X172250000Y-124330000D02*
X172250000Y-122870000D01*
X161250000Y-116950000D02*
X161250000Y-120650000D01*
X159350000Y-116950000D02*
X161250000Y-116950000D01*
X159350000Y-120650000D02*
X159350000Y-116950000D01*
X161250000Y-120650000D02*
X159350000Y-120650000D01*
X169850000Y-106750000D02*
X169850000Y-110450000D01*
X167950000Y-106750000D02*
X169850000Y-106750000D01*
X167950000Y-110450000D02*
X167950000Y-106750000D01*
X169850000Y-110450000D02*
X167950000Y-110450000D01*
X167650000Y-112380000D02*
X164350000Y-112380000D01*
X167650000Y-110920000D02*
X167650000Y-112380000D01*
X164350000Y-110920000D02*
X167650000Y-110920000D01*
X164350000Y-112380000D02*
X164350000Y-110920000D01*
X175550000Y-108330000D02*
X172250000Y-108330000D01*
X175550000Y-106870000D02*
X175550000Y-108330000D01*
X172250000Y-106870000D02*
X175550000Y-106870000D01*
X172250000Y-108330000D02*
X172250000Y-106870000D01*
X163850000Y-112380000D02*
X160550000Y-112380000D01*
X163850000Y-110920000D02*
X163850000Y-112380000D01*
X160550000Y-110920000D02*
X163850000Y-110920000D01*
X160550000Y-112380000D02*
X160550000Y-110920000D01*
X175550000Y-114330000D02*
X172250000Y-114330000D01*
X175550000Y-112870000D02*
X175550000Y-114330000D01*
X172250000Y-112870000D02*
X175550000Y-112870000D01*
X172250000Y-114330000D02*
X172250000Y-112870000D01*
X161250000Y-106950000D02*
X161250000Y-110650000D01*
X159350000Y-106950000D02*
X161250000Y-106950000D01*
X159350000Y-110650000D02*
X159350000Y-106950000D01*
X161250000Y-110650000D02*
X159350000Y-110650000D01*
X169850000Y-96750000D02*
X169850000Y-100450000D01*
X167950000Y-96750000D02*
X169850000Y-96750000D01*
X167950000Y-100450000D02*
X167950000Y-96750000D01*
X169850000Y-100450000D02*
X167950000Y-100450000D01*
X167650000Y-102380000D02*
X164350000Y-102380000D01*
X167650000Y-100920000D02*
X167650000Y-102380000D01*
X164350000Y-100920000D02*
X167650000Y-100920000D01*
X164350000Y-102380000D02*
X164350000Y-100920000D01*
X175550000Y-98330000D02*
X172250000Y-98330000D01*
X175550000Y-96870000D02*
X175550000Y-98330000D01*
X172250000Y-96870000D02*
X175550000Y-96870000D01*
X172250000Y-98330000D02*
X172250000Y-96870000D01*
X163850000Y-102380000D02*
X160550000Y-102380000D01*
X163850000Y-100920000D02*
X163850000Y-102380000D01*
X160550000Y-100920000D02*
X163850000Y-100920000D01*
X160550000Y-102380000D02*
X160550000Y-100920000D01*
X175550000Y-104330000D02*
X172250000Y-104330000D01*
X175550000Y-102870000D02*
X175550000Y-104330000D01*
X172250000Y-102870000D02*
X175550000Y-102870000D01*
X172250000Y-104330000D02*
X172250000Y-102870000D01*
X161250000Y-96950000D02*
X161250000Y-100650000D01*
X159350000Y-96950000D02*
X161250000Y-96950000D01*
X159350000Y-100650000D02*
X159350000Y-96950000D01*
X161250000Y-100650000D02*
X159350000Y-100650000D01*
X169850000Y-86750000D02*
X169850000Y-90450000D01*
X167950000Y-86750000D02*
X169850000Y-86750000D01*
X167950000Y-90450000D02*
X167950000Y-86750000D01*
X169850000Y-90450000D02*
X167950000Y-90450000D01*
X167650000Y-92380000D02*
X164350000Y-92380000D01*
X167650000Y-90920000D02*
X167650000Y-92380000D01*
X164350000Y-90920000D02*
X167650000Y-90920000D01*
X164350000Y-92380000D02*
X164350000Y-90920000D01*
X175550000Y-88330000D02*
X172250000Y-88330000D01*
X175550000Y-86870000D02*
X175550000Y-88330000D01*
X172250000Y-86870000D02*
X175550000Y-86870000D01*
X172250000Y-88330000D02*
X172250000Y-86870000D01*
X163850000Y-92380000D02*
X160550000Y-92380000D01*
X163850000Y-90920000D02*
X163850000Y-92380000D01*
X160550000Y-90920000D02*
X163850000Y-90920000D01*
X160550000Y-92380000D02*
X160550000Y-90920000D01*
X175550000Y-94330000D02*
X172250000Y-94330000D01*
X175550000Y-92870000D02*
X175550000Y-94330000D01*
X172250000Y-92870000D02*
X175550000Y-92870000D01*
X172250000Y-94330000D02*
X172250000Y-92870000D01*
X161250000Y-86950000D02*
X161250000Y-90650000D01*
X159350000Y-86950000D02*
X161250000Y-86950000D01*
X159350000Y-90650000D02*
X159350000Y-86950000D01*
X161250000Y-90650000D02*
X159350000Y-90650000D01*
X169850000Y-76750000D02*
X169850000Y-80450000D01*
X167950000Y-76750000D02*
X169850000Y-76750000D01*
X167950000Y-80450000D02*
X167950000Y-76750000D01*
X169850000Y-80450000D02*
X167950000Y-80450000D01*
X167650000Y-82380000D02*
X164350000Y-82380000D01*
X167650000Y-80920000D02*
X167650000Y-82380000D01*
X164350000Y-80920000D02*
X167650000Y-80920000D01*
X164350000Y-82380000D02*
X164350000Y-80920000D01*
X175550000Y-78330000D02*
X172250000Y-78330000D01*
X175550000Y-76870000D02*
X175550000Y-78330000D01*
X172250000Y-76870000D02*
X175550000Y-76870000D01*
X172250000Y-78330000D02*
X172250000Y-76870000D01*
X163850000Y-82380000D02*
X160550000Y-82380000D01*
X163850000Y-80920000D02*
X163850000Y-82380000D01*
X160550000Y-80920000D02*
X163850000Y-80920000D01*
X160550000Y-82380000D02*
X160550000Y-80920000D01*
X175550000Y-84330000D02*
X172250000Y-84330000D01*
X175550000Y-82870000D02*
X175550000Y-84330000D01*
X172250000Y-82870000D02*
X175550000Y-82870000D01*
X172250000Y-84330000D02*
X172250000Y-82870000D01*
X161250000Y-76950000D02*
X161250000Y-80650000D01*
X159350000Y-76950000D02*
X161250000Y-76950000D01*
X159350000Y-80650000D02*
X159350000Y-76950000D01*
X161250000Y-80650000D02*
X159350000Y-80650000D01*
X169850000Y-66750000D02*
X169850000Y-70450000D01*
X167950000Y-66750000D02*
X169850000Y-66750000D01*
X167950000Y-70450000D02*
X167950000Y-66750000D01*
X169850000Y-70450000D02*
X167950000Y-70450000D01*
X167650000Y-72380000D02*
X164350000Y-72380000D01*
X167650000Y-70920000D02*
X167650000Y-72380000D01*
X164350000Y-70920000D02*
X167650000Y-70920000D01*
X164350000Y-72380000D02*
X164350000Y-70920000D01*
X175550000Y-68330000D02*
X172250000Y-68330000D01*
X175550000Y-66870000D02*
X175550000Y-68330000D01*
X172250000Y-66870000D02*
X175550000Y-66870000D01*
X172250000Y-68330000D02*
X172250000Y-66870000D01*
X163850000Y-72380000D02*
X160550000Y-72380000D01*
X163850000Y-70920000D02*
X163850000Y-72380000D01*
X160550000Y-70920000D02*
X163850000Y-70920000D01*
X160550000Y-72380000D02*
X160550000Y-70920000D01*
X175550000Y-74330000D02*
X172250000Y-74330000D01*
X175550000Y-72870000D02*
X175550000Y-74330000D01*
X172250000Y-72870000D02*
X175550000Y-72870000D01*
X172250000Y-74330000D02*
X172250000Y-72870000D01*
X161250000Y-66950000D02*
X161250000Y-70650000D01*
X159350000Y-66950000D02*
X161250000Y-66950000D01*
X159350000Y-70650000D02*
X159350000Y-66950000D01*
X161250000Y-70650000D02*
X159350000Y-70650000D01*
X169850000Y-56750000D02*
X169850000Y-60450000D01*
X167950000Y-56750000D02*
X169850000Y-56750000D01*
X167950000Y-60450000D02*
X167950000Y-56750000D01*
X169850000Y-60450000D02*
X167950000Y-60450000D01*
X167650000Y-62380000D02*
X164350000Y-62380000D01*
X167650000Y-60920000D02*
X167650000Y-62380000D01*
X164350000Y-60920000D02*
X167650000Y-60920000D01*
X164350000Y-62380000D02*
X164350000Y-60920000D01*
X175550000Y-58330000D02*
X172250000Y-58330000D01*
X175550000Y-56870000D02*
X175550000Y-58330000D01*
X172250000Y-56870000D02*
X175550000Y-56870000D01*
X172250000Y-58330000D02*
X172250000Y-56870000D01*
X163850000Y-62380000D02*
X160550000Y-62380000D01*
X163850000Y-60920000D02*
X163850000Y-62380000D01*
X160550000Y-60920000D02*
X163850000Y-60920000D01*
X160550000Y-62380000D02*
X160550000Y-60920000D01*
X175550000Y-64330000D02*
X172250000Y-64330000D01*
X175550000Y-62870000D02*
X175550000Y-64330000D01*
X172250000Y-62870000D02*
X175550000Y-62870000D01*
X172250000Y-64330000D02*
X172250000Y-62870000D01*
X161250000Y-56950000D02*
X161250000Y-60650000D01*
X159350000Y-56950000D02*
X161250000Y-56950000D01*
X159350000Y-60650000D02*
X159350000Y-56950000D01*
X161250000Y-60650000D02*
X159350000Y-60650000D01*
X169850000Y-46750000D02*
X169850000Y-50450000D01*
X167950000Y-46750000D02*
X169850000Y-46750000D01*
X167950000Y-50450000D02*
X167950000Y-46750000D01*
X169850000Y-50450000D02*
X167950000Y-50450000D01*
X167650000Y-52380000D02*
X164350000Y-52380000D01*
X167650000Y-50920000D02*
X167650000Y-52380000D01*
X164350000Y-50920000D02*
X167650000Y-50920000D01*
X164350000Y-52380000D02*
X164350000Y-50920000D01*
X175550000Y-48330000D02*
X172250000Y-48330000D01*
X175550000Y-46870000D02*
X175550000Y-48330000D01*
X172250000Y-46870000D02*
X175550000Y-46870000D01*
X172250000Y-48330000D02*
X172250000Y-46870000D01*
X163850000Y-52380000D02*
X160550000Y-52380000D01*
X163850000Y-50920000D02*
X163850000Y-52380000D01*
X160550000Y-50920000D02*
X163850000Y-50920000D01*
X160550000Y-52380000D02*
X160550000Y-50920000D01*
X175550000Y-54330000D02*
X172250000Y-54330000D01*
X175550000Y-52870000D02*
X175550000Y-54330000D01*
X172250000Y-52870000D02*
X175550000Y-52870000D01*
X172250000Y-54330000D02*
X172250000Y-52870000D01*
X161250000Y-46950000D02*
X161250000Y-50650000D01*
X159350000Y-46950000D02*
X161250000Y-46950000D01*
X159350000Y-50650000D02*
X159350000Y-46950000D01*
X161250000Y-50650000D02*
X159350000Y-50650000D01*
X151270000Y-122850000D02*
X151270000Y-119550000D01*
X152730000Y-122850000D02*
X151270000Y-122850000D01*
X152730000Y-119550000D02*
X152730000Y-122850000D01*
X151270000Y-119550000D02*
X152730000Y-119550000D01*
X146450000Y-47470000D02*
X149750000Y-47470000D01*
X146450000Y-48930000D02*
X146450000Y-47470000D01*
X149750000Y-48930000D02*
X146450000Y-48930000D01*
X149750000Y-47470000D02*
X149750000Y-48930000D01*
X140600000Y-43750000D02*
X140600000Y-50650000D01*
X146100000Y-43750000D02*
X140600000Y-43750000D01*
X146100000Y-50650000D02*
X146100000Y-43750000D01*
X140600000Y-50650000D02*
X146100000Y-50650000D01*
X146200000Y-124050000D02*
X146200000Y-117150000D01*
X140700000Y-124050000D02*
X146200000Y-124050000D01*
X140700000Y-117150000D02*
X140700000Y-124050000D01*
X146200000Y-117150000D02*
X140700000Y-117150000D01*
X146450000Y-45570000D02*
X149750000Y-45570000D01*
X146450000Y-47030000D02*
X146450000Y-45570000D01*
X149750000Y-47030000D02*
X146450000Y-47030000D01*
X149750000Y-45570000D02*
X149750000Y-47030000D01*
X150730000Y-119550000D02*
X150730000Y-122850000D01*
X149270000Y-119550000D02*
X150730000Y-119550000D01*
X149270000Y-122850000D02*
X149270000Y-119550000D01*
X150730000Y-122850000D02*
X149270000Y-122850000D01*
X150070000Y-48850000D02*
X150070000Y-45550000D01*
X151530000Y-48850000D02*
X150070000Y-48850000D01*
X151530000Y-45550000D02*
X151530000Y-48850000D01*
X150070000Y-45550000D02*
X151530000Y-45550000D01*
X143820000Y-91020000D02*
X143820000Y-87420000D01*
X147620000Y-91020000D02*
X143820000Y-91020000D01*
X147620000Y-87420000D02*
X147620000Y-91020000D01*
X143820000Y-87420000D02*
X147620000Y-87420000D01*
X146000000Y-62250000D02*
X146000000Y-51350000D01*
X140500000Y-62250000D02*
X146000000Y-62250000D01*
X140500000Y-51350000D02*
X140500000Y-62250000D01*
X146000000Y-51350000D02*
X140500000Y-51350000D01*
X147650000Y-63670000D02*
X150950000Y-63670000D01*
X147650000Y-65130000D02*
X147650000Y-63670000D01*
X150950000Y-65130000D02*
X147650000Y-65130000D01*
X150950000Y-63670000D02*
X150950000Y-65130000D01*
X147650000Y-65470000D02*
X150950000Y-65470000D01*
X147650000Y-66930000D02*
X147650000Y-65470000D01*
X150950000Y-66930000D02*
X147650000Y-66930000D01*
X150950000Y-65470000D02*
X150950000Y-66930000D01*
X151700000Y-60800000D02*
X151700000Y-53400000D01*
X146300000Y-60800000D02*
X151700000Y-60800000D01*
X146300000Y-53400000D02*
X146300000Y-60800000D01*
X151700000Y-53400000D02*
X146300000Y-53400000D01*
X145050000Y-72150000D02*
X145050000Y-80050000D01*
X152150000Y-72150000D02*
X152150000Y-80050000D01*
X152150000Y-80050000D02*
X145050000Y-80050000D01*
X152150000Y-72150000D02*
X145050000Y-72150000D01*
X148350000Y-61570000D02*
X151650000Y-61570000D01*
X148350000Y-63030000D02*
X148350000Y-61570000D01*
X151650000Y-63030000D02*
X148350000Y-63030000D01*
X151650000Y-61570000D02*
X151650000Y-63030000D01*
X148350000Y-51570000D02*
X151650000Y-51570000D01*
X148350000Y-53030000D02*
X148350000Y-51570000D01*
X151650000Y-53030000D02*
X148350000Y-53030000D01*
X151650000Y-51570000D02*
X151650000Y-53030000D01*
X147870000Y-70750000D02*
X147870000Y-67450000D01*
X149330000Y-70750000D02*
X147870000Y-70750000D01*
X149330000Y-67450000D02*
X149330000Y-70750000D01*
X147870000Y-67450000D02*
X149330000Y-67450000D01*
X149870000Y-70750000D02*
X149870000Y-67450000D01*
X151330000Y-70750000D02*
X149870000Y-70750000D01*
X151330000Y-67450000D02*
X151330000Y-70750000D01*
X149870000Y-67450000D02*
X151330000Y-67450000D01*
X207750000Y-119120000D02*
X207750000Y-122480000D01*
X205850000Y-119120000D02*
X207750000Y-119120000D01*
X205850000Y-122480000D02*
X205850000Y-119120000D01*
X207750000Y-122480000D02*
X205850000Y-122480000D01*
X204850000Y-124180000D02*
X201550000Y-124180000D01*
X204850000Y-122720000D02*
X204850000Y-124180000D01*
X201550000Y-122720000D02*
X204850000Y-122720000D01*
X201550000Y-124180000D02*
X201550000Y-122720000D01*
X207750000Y-109120000D02*
X207750000Y-112480000D01*
X205850000Y-109120000D02*
X207750000Y-109120000D01*
X205850000Y-112480000D02*
X205850000Y-109120000D01*
X207750000Y-112480000D02*
X205850000Y-112480000D01*
X204850000Y-114180000D02*
X201550000Y-114180000D01*
X204850000Y-112720000D02*
X204850000Y-114180000D01*
X201550000Y-112720000D02*
X204850000Y-112720000D01*
X201550000Y-114180000D02*
X201550000Y-112720000D01*
X207750000Y-99120000D02*
X207750000Y-102480000D01*
X205850000Y-99120000D02*
X207750000Y-99120000D01*
X205850000Y-102480000D02*
X205850000Y-99120000D01*
X207750000Y-102480000D02*
X205850000Y-102480000D01*
X204850000Y-104180000D02*
X201550000Y-104180000D01*
X204850000Y-102720000D02*
X204850000Y-104180000D01*
X201550000Y-102720000D02*
X204850000Y-102720000D01*
X201550000Y-104180000D02*
X201550000Y-102720000D01*
X207750000Y-89120000D02*
X207750000Y-92480000D01*
X205850000Y-89120000D02*
X207750000Y-89120000D01*
X205850000Y-92480000D02*
X205850000Y-89120000D01*
X207750000Y-92480000D02*
X205850000Y-92480000D01*
X204850000Y-94180000D02*
X201550000Y-94180000D01*
X204850000Y-92720000D02*
X204850000Y-94180000D01*
X201550000Y-92720000D02*
X204850000Y-92720000D01*
X201550000Y-94180000D02*
X201550000Y-92720000D01*
X207750000Y-79120000D02*
X207750000Y-82480000D01*
X205850000Y-79120000D02*
X207750000Y-79120000D01*
X205850000Y-82480000D02*
X205850000Y-79120000D01*
X207750000Y-82480000D02*
X205850000Y-82480000D01*
X204850000Y-84180000D02*
X201550000Y-84180000D01*
X204850000Y-82720000D02*
X204850000Y-84180000D01*
X201550000Y-82720000D02*
X204850000Y-82720000D01*
X201550000Y-84180000D02*
X201550000Y-82720000D01*
X207750000Y-69120000D02*
X207750000Y-72480000D01*
X205850000Y-69120000D02*
X207750000Y-69120000D01*
X205850000Y-72480000D02*
X205850000Y-69120000D01*
X207750000Y-72480000D02*
X205850000Y-72480000D01*
X204850000Y-74180000D02*
X201550000Y-74180000D01*
X204850000Y-72720000D02*
X204850000Y-74180000D01*
X201550000Y-72720000D02*
X204850000Y-72720000D01*
X201550000Y-74180000D02*
X201550000Y-72720000D01*
X207750000Y-59120000D02*
X207750000Y-62480000D01*
X205850000Y-59120000D02*
X207750000Y-59120000D01*
X205850000Y-62480000D02*
X205850000Y-59120000D01*
X207750000Y-62480000D02*
X205850000Y-62480000D01*
X204850000Y-64180000D02*
X201550000Y-64180000D01*
X204850000Y-62720000D02*
X204850000Y-64180000D01*
X201550000Y-62720000D02*
X204850000Y-62720000D01*
X201550000Y-64180000D02*
X201550000Y-62720000D01*
X201600000Y-122500000D02*
X204800000Y-122500000D01*
X201600000Y-119700000D02*
X204800000Y-119700000D01*
X201600000Y-119700000D02*
X201600000Y-122500000D01*
X204800000Y-122500000D02*
X204800000Y-119700000D01*
X201600000Y-112500000D02*
X204800000Y-112500000D01*
X201600000Y-109700000D02*
X204800000Y-109700000D01*
X201600000Y-109700000D02*
X201600000Y-112500000D01*
X204800000Y-112500000D02*
X204800000Y-109700000D01*
X201600000Y-102500000D02*
X204800000Y-102500000D01*
X201600000Y-99700000D02*
X204800000Y-99700000D01*
X201600000Y-99700000D02*
X201600000Y-102500000D01*
X204800000Y-102500000D02*
X204800000Y-99700000D01*
X201600000Y-92500000D02*
X204800000Y-92500000D01*
X201600000Y-89700000D02*
X204800000Y-89700000D01*
X201600000Y-89700000D02*
X201600000Y-92500000D01*
X204800000Y-92500000D02*
X204800000Y-89700000D01*
X201600000Y-82500000D02*
X204800000Y-82500000D01*
X201600000Y-79700000D02*
X204800000Y-79700000D01*
X201600000Y-79700000D02*
X201600000Y-82500000D01*
X204800000Y-82500000D02*
X204800000Y-79700000D01*
X201600000Y-72500000D02*
X204800000Y-72500000D01*
X201600000Y-69700000D02*
X204800000Y-69700000D01*
X201600000Y-69700000D02*
X201600000Y-72500000D01*
X204800000Y-72500000D02*
X204800000Y-69700000D01*
X201600000Y-62500000D02*
X204800000Y-62500000D01*
X201600000Y-59700000D02*
X204800000Y-59700000D01*
X201600000Y-59700000D02*
X201600000Y-62500000D01*
X204800000Y-62500000D02*
X204800000Y-59700000D01*
X200750000Y-124500000D02*
X197050000Y-124500000D01*
X200750000Y-122600000D02*
X200750000Y-124500000D01*
X197050000Y-122600000D02*
X200750000Y-122600000D01*
X197050000Y-124500000D02*
X197050000Y-122600000D01*
X203750000Y-118700000D02*
X200050000Y-118700000D01*
X203750000Y-116800000D02*
X203750000Y-118700000D01*
X200050000Y-116800000D02*
X203750000Y-116800000D01*
X200050000Y-118700000D02*
X200050000Y-116800000D01*
X200750000Y-114500000D02*
X197050000Y-114500000D01*
X200750000Y-112600000D02*
X200750000Y-114500000D01*
X197050000Y-112600000D02*
X200750000Y-112600000D01*
X197050000Y-114500000D02*
X197050000Y-112600000D01*
X203750000Y-108700000D02*
X200050000Y-108700000D01*
X203750000Y-106800000D02*
X203750000Y-108700000D01*
X200050000Y-106800000D02*
X203750000Y-106800000D01*
X200050000Y-108700000D02*
X200050000Y-106800000D01*
X200750000Y-104500000D02*
X197050000Y-104500000D01*
X200750000Y-102600000D02*
X200750000Y-104500000D01*
X197050000Y-102600000D02*
X200750000Y-102600000D01*
X197050000Y-104500000D02*
X197050000Y-102600000D01*
X203750000Y-98700000D02*
X200050000Y-98700000D01*
X203750000Y-96800000D02*
X203750000Y-98700000D01*
X200050000Y-96800000D02*
X203750000Y-96800000D01*
X200050000Y-98700000D02*
X200050000Y-96800000D01*
X200750000Y-94500000D02*
X197050000Y-94500000D01*
X200750000Y-92600000D02*
X200750000Y-94500000D01*
X197050000Y-92600000D02*
X200750000Y-92600000D01*
X197050000Y-94500000D02*
X197050000Y-92600000D01*
X203750000Y-88700000D02*
X200050000Y-88700000D01*
X203750000Y-86800000D02*
X203750000Y-88700000D01*
X200050000Y-86800000D02*
X203750000Y-86800000D01*
X200050000Y-88700000D02*
X200050000Y-86800000D01*
X200750000Y-84500000D02*
X197050000Y-84500000D01*
X200750000Y-82600000D02*
X200750000Y-84500000D01*
X197050000Y-82600000D02*
X200750000Y-82600000D01*
X197050000Y-84500000D02*
X197050000Y-82600000D01*
X203750000Y-78700000D02*
X200050000Y-78700000D01*
X203750000Y-76800000D02*
X203750000Y-78700000D01*
X200050000Y-76800000D02*
X203750000Y-76800000D01*
X200050000Y-78700000D02*
X200050000Y-76800000D01*
X200750000Y-74500000D02*
X197050000Y-74500000D01*
X200750000Y-72600000D02*
X200750000Y-74500000D01*
X197050000Y-72600000D02*
X200750000Y-72600000D01*
X197050000Y-74500000D02*
X197050000Y-72600000D01*
X203750000Y-68700000D02*
X200050000Y-68700000D01*
X203750000Y-66800000D02*
X203750000Y-68700000D01*
X200050000Y-66800000D02*
X203750000Y-66800000D01*
X200050000Y-68700000D02*
X200050000Y-66800000D01*
X200750000Y-64500000D02*
X197050000Y-64500000D01*
X200750000Y-62600000D02*
X200750000Y-64500000D01*
X197050000Y-62600000D02*
X200750000Y-62600000D01*
X197050000Y-64500000D02*
X197050000Y-62600000D01*
X203750000Y-58700000D02*
X200050000Y-58700000D01*
X203750000Y-56800000D02*
X203750000Y-58700000D01*
X200050000Y-56800000D02*
X203750000Y-56800000D01*
X200050000Y-58700000D02*
X200050000Y-56800000D01*
X188000000Y-119850000D02*
X191600000Y-119850000D01*
X188000000Y-123650000D02*
X188000000Y-119850000D01*
X191600000Y-123650000D02*
X188000000Y-123650000D01*
X191600000Y-119850000D02*
X191600000Y-123650000D01*
X188000000Y-109850000D02*
X191600000Y-109850000D01*
X188000000Y-113650000D02*
X188000000Y-109850000D01*
X191600000Y-113650000D02*
X188000000Y-113650000D01*
X191600000Y-109850000D02*
X191600000Y-113650000D01*
X188000000Y-99850000D02*
X191600000Y-99850000D01*
X188000000Y-103650000D02*
X188000000Y-99850000D01*
X191600000Y-103650000D02*
X188000000Y-103650000D01*
X191600000Y-99850000D02*
X191600000Y-103650000D01*
X188000000Y-89850000D02*
X191600000Y-89850000D01*
X188000000Y-93650000D02*
X188000000Y-89850000D01*
X191600000Y-93650000D02*
X188000000Y-93650000D01*
X191600000Y-89850000D02*
X191600000Y-93650000D01*
X188000000Y-79850000D02*
X191600000Y-79850000D01*
X188000000Y-83650000D02*
X188000000Y-79850000D01*
X191600000Y-83650000D02*
X188000000Y-83650000D01*
X191600000Y-79850000D02*
X191600000Y-83650000D01*
X188000000Y-69850000D02*
X191600000Y-69850000D01*
X188000000Y-73650000D02*
X188000000Y-69850000D01*
X191600000Y-73650000D02*
X188000000Y-73650000D01*
X191600000Y-69850000D02*
X191600000Y-73650000D01*
X188000000Y-59850000D02*
X191600000Y-59850000D01*
X188000000Y-63650000D02*
X188000000Y-59850000D01*
X191600000Y-63650000D02*
X188000000Y-63650000D01*
X191600000Y-59850000D02*
X191600000Y-63650000D01*
X185730000Y-117750000D02*
X185730000Y-121050000D01*
X184270000Y-117750000D02*
X185730000Y-117750000D01*
X184270000Y-121050000D02*
X184270000Y-117750000D01*
X185730000Y-121050000D02*
X184270000Y-121050000D01*
X179650000Y-124330000D02*
X176350000Y-124330000D01*
X179650000Y-122870000D02*
X179650000Y-124330000D01*
X176350000Y-122870000D02*
X179650000Y-122870000D01*
X176350000Y-124330000D02*
X176350000Y-122870000D01*
X187250000Y-117820000D02*
X190550000Y-117820000D01*
X187250000Y-119280000D02*
X187250000Y-117820000D01*
X190550000Y-119280000D02*
X187250000Y-119280000D01*
X190550000Y-117820000D02*
X190550000Y-119280000D01*
X193630000Y-119900000D02*
X193630000Y-123200000D01*
X192170000Y-119900000D02*
X193630000Y-119900000D01*
X192170000Y-123200000D02*
X192170000Y-119900000D01*
X193630000Y-123200000D02*
X192170000Y-123200000D01*
X185730000Y-107750000D02*
X185730000Y-111050000D01*
X184270000Y-107750000D02*
X185730000Y-107750000D01*
X184270000Y-111050000D02*
X184270000Y-107750000D01*
X185730000Y-111050000D02*
X184270000Y-111050000D01*
X179650000Y-114330000D02*
X176350000Y-114330000D01*
X179650000Y-112870000D02*
X179650000Y-114330000D01*
X176350000Y-112870000D02*
X179650000Y-112870000D01*
X176350000Y-114330000D02*
X176350000Y-112870000D01*
X187250000Y-107820000D02*
X190550000Y-107820000D01*
X187250000Y-109280000D02*
X187250000Y-107820000D01*
X190550000Y-109280000D02*
X187250000Y-109280000D01*
X190550000Y-107820000D02*
X190550000Y-109280000D01*
X193630000Y-109900000D02*
X193630000Y-113200000D01*
X192170000Y-109900000D02*
X193630000Y-109900000D01*
X192170000Y-113200000D02*
X192170000Y-109900000D01*
X193630000Y-113200000D02*
X192170000Y-113200000D01*
X185730000Y-97750000D02*
X185730000Y-101050000D01*
X184270000Y-97750000D02*
X185730000Y-97750000D01*
X184270000Y-101050000D02*
X184270000Y-97750000D01*
X185730000Y-101050000D02*
X184270000Y-101050000D01*
X179650000Y-104330000D02*
X176350000Y-104330000D01*
X179650000Y-102870000D02*
X179650000Y-104330000D01*
X176350000Y-102870000D02*
X179650000Y-102870000D01*
X176350000Y-104330000D02*
X176350000Y-102870000D01*
X187250000Y-97820000D02*
X190550000Y-97820000D01*
X187250000Y-99280000D02*
X187250000Y-97820000D01*
X190550000Y-99280000D02*
X187250000Y-99280000D01*
X190550000Y-97820000D02*
X190550000Y-99280000D01*
X193630000Y-99900000D02*
X193630000Y-103200000D01*
X192170000Y-99900000D02*
X193630000Y-99900000D01*
X192170000Y-103200000D02*
X192170000Y-99900000D01*
X193630000Y-103200000D02*
X192170000Y-103200000D01*
X185730000Y-87750000D02*
X185730000Y-91050000D01*
X184270000Y-87750000D02*
X185730000Y-87750000D01*
X184270000Y-91050000D02*
X184270000Y-87750000D01*
X185730000Y-91050000D02*
X184270000Y-91050000D01*
X179650000Y-94330000D02*
X176350000Y-94330000D01*
X179650000Y-92870000D02*
X179650000Y-94330000D01*
X176350000Y-92870000D02*
X179650000Y-92870000D01*
X176350000Y-94330000D02*
X176350000Y-92870000D01*
X187250000Y-87820000D02*
X190550000Y-87820000D01*
X187250000Y-89280000D02*
X187250000Y-87820000D01*
X190550000Y-89280000D02*
X187250000Y-89280000D01*
X190550000Y-87820000D02*
X190550000Y-89280000D01*
X193630000Y-89900000D02*
X193630000Y-93200000D01*
X192170000Y-89900000D02*
X193630000Y-89900000D01*
X192170000Y-93200000D02*
X192170000Y-89900000D01*
X193630000Y-93200000D02*
X192170000Y-93200000D01*
X185730000Y-77750000D02*
X185730000Y-81050000D01*
X184270000Y-77750000D02*
X185730000Y-77750000D01*
X184270000Y-81050000D02*
X184270000Y-77750000D01*
X185730000Y-81050000D02*
X184270000Y-81050000D01*
X179650000Y-84330000D02*
X176350000Y-84330000D01*
X179650000Y-82870000D02*
X179650000Y-84330000D01*
X176350000Y-82870000D02*
X179650000Y-82870000D01*
X176350000Y-84330000D02*
X176350000Y-82870000D01*
X187250000Y-77820000D02*
X190550000Y-77820000D01*
X187250000Y-79280000D02*
X187250000Y-77820000D01*
X190550000Y-79280000D02*
X187250000Y-79280000D01*
X190550000Y-77820000D02*
X190550000Y-79280000D01*
X193630000Y-79900000D02*
X193630000Y-83200000D01*
X192170000Y-79900000D02*
X193630000Y-79900000D01*
X192170000Y-83200000D02*
X192170000Y-79900000D01*
X193630000Y-83200000D02*
X192170000Y-83200000D01*
X185730000Y-67750000D02*
X185730000Y-71050000D01*
X184270000Y-67750000D02*
X185730000Y-67750000D01*
X184270000Y-71050000D02*
X184270000Y-67750000D01*
X185730000Y-71050000D02*
X184270000Y-71050000D01*
X179650000Y-74330000D02*
X176350000Y-74330000D01*
X179650000Y-72870000D02*
X179650000Y-74330000D01*
X176350000Y-72870000D02*
X179650000Y-72870000D01*
X176350000Y-74330000D02*
X176350000Y-72870000D01*
X187250000Y-67820000D02*
X190550000Y-67820000D01*
X187250000Y-69280000D02*
X187250000Y-67820000D01*
X190550000Y-69280000D02*
X187250000Y-69280000D01*
X190550000Y-67820000D02*
X190550000Y-69280000D01*
X193630000Y-69900000D02*
X193630000Y-73200000D01*
X192170000Y-69900000D02*
X193630000Y-69900000D01*
X192170000Y-73200000D02*
X192170000Y-69900000D01*
X193630000Y-73200000D02*
X192170000Y-73200000D01*
X185730000Y-57750000D02*
X185730000Y-61050000D01*
X184270000Y-57750000D02*
X185730000Y-57750000D01*
X184270000Y-61050000D02*
X184270000Y-57750000D01*
X185730000Y-61050000D02*
X184270000Y-61050000D01*
X179650000Y-64330000D02*
X176350000Y-64330000D01*
X179650000Y-62870000D02*
X179650000Y-64330000D01*
X176350000Y-62870000D02*
X179650000Y-62870000D01*
X176350000Y-64330000D02*
X176350000Y-62870000D01*
X187250000Y-57820000D02*
X190550000Y-57820000D01*
X187250000Y-59280000D02*
X187250000Y-57820000D01*
X190550000Y-59280000D02*
X187250000Y-59280000D01*
X190550000Y-57820000D02*
X190550000Y-59280000D01*
X193630000Y-59900000D02*
X193630000Y-63200000D01*
X192170000Y-59900000D02*
X193630000Y-59900000D01*
X192170000Y-63200000D02*
X192170000Y-59900000D01*
X193630000Y-63200000D02*
X192170000Y-63200000D01*
X218450000Y-40000000D02*
G75*
G03X218450000Y-40000000I-3450000J0D01*
G01*
X148450000Y-129000000D02*
G75*
G03X148450000Y-129000000I-3450000J0D01*
G01*
X148450000Y-40000000D02*
G75*
G03X148450000Y-40000000I-3450000J0D01*
G01*
X201600000Y-52500000D02*
X204800000Y-52500000D01*
X201600000Y-49700000D02*
X204800000Y-49700000D01*
X201600000Y-49700000D02*
X201600000Y-52500000D01*
X204800000Y-52500000D02*
X204800000Y-49700000D01*
X188000000Y-49850000D02*
X191600000Y-49850000D01*
X188000000Y-53650000D02*
X188000000Y-49850000D01*
X191600000Y-53650000D02*
X188000000Y-53650000D01*
X191600000Y-49850000D02*
X191600000Y-53650000D01*
X143050000Y-91470000D02*
X146350000Y-91470000D01*
X143050000Y-92930000D02*
X143050000Y-91470000D01*
X146350000Y-92930000D02*
X143050000Y-92930000D01*
X146350000Y-91470000D02*
X146350000Y-92930000D01*
X142930000Y-88050000D02*
X142930000Y-91350000D01*
X141470000Y-88050000D02*
X142930000Y-88050000D01*
X141470000Y-91350000D02*
X141470000Y-88050000D01*
X142930000Y-91350000D02*
X141470000Y-91350000D01*
X147975000Y-86830000D02*
X144675000Y-86830000D01*
X147975000Y-85370000D02*
X147975000Y-86830000D01*
X144675000Y-85370000D02*
X147975000Y-85370000D01*
X144675000Y-86830000D02*
X144675000Y-85370000D01*
X200750000Y-54500000D02*
X197050000Y-54500000D01*
X200750000Y-52600000D02*
X200750000Y-54500000D01*
X197050000Y-52600000D02*
X200750000Y-52600000D01*
X197050000Y-54500000D02*
X197050000Y-52600000D01*
X203750000Y-48700000D02*
X200050000Y-48700000D01*
X203750000Y-46800000D02*
X203750000Y-48700000D01*
X200050000Y-46800000D02*
X203750000Y-46800000D01*
X200050000Y-48700000D02*
X200050000Y-46800000D01*
X207750000Y-49120000D02*
X207750000Y-52480000D01*
X205850000Y-49120000D02*
X207750000Y-49120000D01*
X205850000Y-52480000D02*
X205850000Y-49120000D01*
X207750000Y-52480000D02*
X205850000Y-52480000D01*
X204850000Y-54180000D02*
X201550000Y-54180000D01*
X204850000Y-52720000D02*
X204850000Y-54180000D01*
X201550000Y-52720000D02*
X204850000Y-52720000D01*
X201550000Y-54180000D02*
X201550000Y-52720000D01*
X185730000Y-47750000D02*
X185730000Y-51050000D01*
X184270000Y-47750000D02*
X185730000Y-47750000D01*
X184270000Y-51050000D02*
X184270000Y-47750000D01*
X185730000Y-51050000D02*
X184270000Y-51050000D01*
X179650000Y-54330000D02*
X176350000Y-54330000D01*
X179650000Y-52870000D02*
X179650000Y-54330000D01*
X176350000Y-52870000D02*
X179650000Y-52870000D01*
X176350000Y-54330000D02*
X176350000Y-52870000D01*
X187250000Y-47820000D02*
X190550000Y-47820000D01*
X187250000Y-49280000D02*
X187250000Y-47820000D01*
X190550000Y-49280000D02*
X187250000Y-49280000D01*
X190550000Y-47820000D02*
X190550000Y-49280000D01*
X193630000Y-49900000D02*
X193630000Y-53200000D01*
X192170000Y-49900000D02*
X193630000Y-49900000D01*
X192170000Y-53200000D02*
X192170000Y-49900000D01*
X193630000Y-53200000D02*
X192170000Y-53200000D01*
M02*
