M48
; DRILL file {KiCad (5.1.5-0)} date Sunday, January 17, 2021 at 10:32:36 AM
; FORMAT={-:-/ absolute / inch / decimal}
; #@! TF.CreationDate,2021-01-17T10:32:36-07:00
; #@! TF.GenerationSoftware,Kicad,Pcbnew,(5.1.5-0)
FMAT,2
INCH
T1C0.0157
T2C0.0197
T3C0.0295
T4C0.0315
T5C0.0394
T6C0.1260
%
G90
G05
T1
X5.6024Y-3.4488
X5.626Y-2.6181
X5.626Y-2.6575
X5.626Y-2.7008
X5.6388Y-2.8206
X5.6614Y-2.5433
X5.7008Y-4.5709
X5.7564Y-4.2081
X5.7598Y-3.0394
X5.7677Y-2.7402
X5.7913Y-2.4134
X5.815Y-4.8622
X5.8228Y-4.1929
X5.8307Y-2.6417
X5.8346Y-3.4764
X5.8346Y-3.5512
X5.8583Y-3.1811
X5.8622Y-3.0394
X5.8691Y-2.6549
X5.8701Y-2.4134
X5.8917Y-3.5955
X5.8937Y-3.4961
X5.8976Y-3.9134
X5.9068Y-3.3068
X5.9134Y-3.1811
X5.9409Y-4.3819
X5.9449Y-4.5748
X5.9508Y-3.5984
X5.9606Y-2.6535
X5.9606Y-2.7549
X5.9636Y-4.3071
X5.9822Y-3.3823
X6.0394Y-2.0079
X6.0423Y-2.4134
X6.0423Y-2.8071
X6.0423Y-3.9882
X6.0433Y-4.3819
X6.0433Y-3.2047
X6.0433Y-3.5945
X6.0709Y-1.8504
X6.0709Y-2.2362
X6.0709Y-2.6299
X6.0709Y-3.0236
X6.0709Y-3.811
X6.0709Y-4.2047
X6.0709Y-4.3071
X6.0738Y-3.4173
X6.0738Y-4.5984
X6.0827Y-4.7756
X6.1024Y-1.8898
X6.1024Y-2.2835
X6.1024Y-2.6772
X6.1024Y-3.0709
X6.1024Y-3.4646
X6.1024Y-3.8583
X6.1024Y-4.252
X6.1024Y-4.6457
X6.1309Y-4.4134
X6.3976Y-1.8425
X6.3976Y-2.2362
X6.3976Y-2.6299
X6.3976Y-3.0236
X6.3976Y-3.4173
X6.3976Y-3.811
X6.3976Y-4.2047
X6.3976Y-4.5984
X6.4803Y-2.5984
X6.4803Y-2.9803
X6.4803Y-3.3819
X6.4803Y-3.7717
X6.4803Y-4.1772
X6.4843Y-2.2028
X6.6299Y-2.1063
X6.6299Y-2.5
X6.6299Y-2.8937
X6.6299Y-3.2874
X6.6299Y-3.6811
X6.6299Y-4.0748
X6.6299Y-4.4685
X6.6299Y-4.8622
X6.7963Y-1.8898
X6.7963Y-2.2835
X6.7963Y-2.6772
X6.7963Y-3.0709
X6.7963Y-3.4646
X6.7963Y-3.8583
X6.7963Y-4.252
X6.7963Y-4.6457
X6.9291Y-1.9331
X6.9291Y-2.3268
X6.9291Y-2.7205
X6.9291Y-3.1142
X6.9291Y-3.5079
X6.9291Y-3.9016
X6.9291Y-4.2953
X6.9291Y-4.689
X6.9803Y-2.0197
X6.9803Y-2.4134
X6.9803Y-2.8071
X6.9803Y-3.2008
X6.9803Y-3.5945
X6.9803Y-3.9882
X6.9803Y-4.3819
X6.9803Y-4.7756
X7.063Y-1.8898
X7.063Y-2.2835
X7.063Y-2.6772
X7.063Y-3.0709
X7.063Y-3.4646
X7.063Y-3.8583
X7.063Y-4.252
X7.063Y-4.6457
X7.1024Y-1.9961
X7.1024Y-2.3898
X7.1024Y-2.7835
X7.1024Y-3.1772
X7.1024Y-3.5709
X7.1024Y-3.9646
X7.1024Y-4.3583
X7.1024Y-4.752
X7.1378Y-1.8898
X7.1378Y-2.2835
X7.1378Y-2.6772
X7.1378Y-3.0709
X7.1378Y-3.4646
X7.1378Y-3.8583
X7.1378Y-4.252
X7.1378Y-4.6457
X7.2638Y-1.9921
X7.2638Y-2.3858
X7.2638Y-2.7795
X7.2638Y-3.1732
X7.2638Y-3.5669
X7.2638Y-3.9606
X7.2638Y-4.3543
X7.2638Y-4.748
X7.3504Y-1.9134
X7.3504Y-2.3071
X7.3504Y-2.7008
X7.3504Y-3.0945
X7.3504Y-3.4882
X7.3504Y-3.8819
X7.3504Y-4.2756
X7.3504Y-4.6693
X7.3622Y-1.8248
X7.3917Y-1.9626
X7.3917Y-2.3563
X7.3917Y-2.75
X7.3917Y-3.1437
X7.3917Y-3.5374
X7.3917Y-3.9311
X7.3917Y-4.3248
X7.3917Y-4.7185
X7.5315Y-1.9114
X7.5315Y-2.3051
X7.5315Y-2.6988
X7.5315Y-3.0925
X7.5315Y-3.4862
X7.5315Y-3.8799
X7.5315Y-4.2736
X7.5315Y-4.6673
X7.5551Y-1.9508
X7.5551Y-2.3445
X7.5551Y-2.7382
X7.5551Y-3.1319
X7.5551Y-3.5256
X7.5551Y-3.9193
X7.5551Y-4.313
X7.5551Y-4.7067
X7.626Y-2.061
X7.626Y-2.4547
X7.626Y-2.8484
X7.626Y-3.2421
X7.626Y-3.6358
X7.626Y-4.0295
X7.626Y-4.4232
X7.626Y-4.8169
X7.6395Y-1.9902
X7.6395Y-2.3839
X7.6395Y-2.7776
X7.6395Y-3.1713
X7.6395Y-3.565
X7.6395Y-3.9587
X7.6395Y-4.3524
X7.6395Y-4.7461
X7.6523Y-2.1424
X7.6523Y-2.5361
X7.6523Y-2.9298
X7.6523Y-3.3235
X7.6523Y-3.7172
X7.6523Y-4.1109
X7.6523Y-4.5046
X7.6523Y-4.8983
X7.7343Y-2.1919
X7.815Y-2.0138
X7.815Y-2.4075
X7.815Y-2.8012
X7.815Y-3.1949
X7.815Y-3.5886
X7.815Y-3.9823
X7.815Y-4.376
X7.815Y-4.7697
X7.8346Y-2.2047
X7.8445Y-1.8681
X7.8445Y-2.2618
X7.8445Y-2.6555
X7.8445Y-3.0492
X7.8445Y-3.4429
X7.8445Y-3.8366
X7.8445Y-4.2303
X7.8445Y-4.624
X7.878Y-2.0153
X7.878Y-2.409
X7.878Y-2.8027
X7.878Y-3.1964
X7.878Y-3.5901
X7.878Y-3.9839
X7.878Y-4.3776
X7.878Y-4.7713
X7.9882Y-1.935
X7.9882Y-2.3287
X7.9882Y-2.7224
X7.9882Y-3.1161
X7.9882Y-3.5098
X7.9882Y-3.9035
X7.9882Y-4.2972
X7.9882Y-4.6909
X8.0787Y-2.002
X8.0787Y-2.0906
X8.0787Y-2.3957
X8.0787Y-2.4843
X8.0787Y-2.7894
X8.0787Y-2.878
X8.0787Y-3.1831
X8.0787Y-3.2717
X8.0787Y-3.5768
X8.0787Y-3.6654
X8.0787Y-3.9705
X8.0787Y-4.0591
X8.0787Y-4.3642
X8.0787Y-4.4528
X8.0787Y-4.7579
X8.0787Y-4.8465
X8.0827Y-1.9409
X8.0827Y-2.3346
X8.0827Y-2.7283
X8.0827Y-3.122
X8.0827Y-3.5157
X8.0827Y-3.9094
X8.0827Y-4.3031
X8.0827Y-4.6969
T2
X8.3701Y-5.0984
X8.3978Y-5.0316
X8.3978Y-5.1652
X8.4646Y-5.0039
X8.4646Y-5.1929
X8.5314Y-5.0316
X8.5314Y-5.1652
X8.5591Y-5.0984
X8.3701Y-1.5748
X8.3978Y-1.508
X8.3978Y-1.6416
X8.4646Y-1.4803
X8.4646Y-1.6693
X8.5314Y-1.508
X8.5314Y-1.6416
X8.5591Y-1.5748
X5.6142Y-5.0787
X5.6418Y-5.0119
X5.6418Y-5.1456
X5.7087Y-4.9843
X5.7087Y-5.1732
X5.7755Y-5.0119
X5.7755Y-5.1456
X5.8031Y-5.0787
X5.6142Y-1.5748
X5.6418Y-1.508
X5.6418Y-1.6416
X5.7087Y-1.4803
X5.7087Y-1.6693
X5.7755Y-1.508
X5.7755Y-1.6416
X5.8031Y-1.5748
T3
X5.6693Y-4.7087
X5.6693Y-4.7874
X5.6535Y-3.8543
X5.6535Y-3.9331
X5.622Y-1.8189
X5.622Y-1.8976
X5.6614Y-2.1181
X5.6614Y-2.1969
X5.6614Y-2.2756
X5.6614Y-2.3543
T4
X6.1811Y-1.7717
X6.2811Y-1.7717
X6.063Y-4.8819
X6.063Y-4.9819
T5
X8.4252Y-2.9921
X8.4252Y-3.0921
X8.4252Y-3.1921
X8.4252Y-3.2921
X8.4252Y-3.3921
X8.4252Y-3.4921
X8.4252Y-3.5921
X8.4252Y-3.6921
X8.5252Y-2.9921
X8.5252Y-3.0921
X8.5252Y-3.1921
X8.5252Y-3.2921
X8.5252Y-3.3921
X8.5252Y-3.4921
X8.5252Y-3.5921
X8.5252Y-3.6921
T6
X8.4646Y-5.0984
X8.4646Y-1.5748
X5.7087Y-5.0787
X5.7087Y-1.5748
T0
M30
