G04 #@! TF.GenerationSoftware,KiCad,Pcbnew,(5.1.5-0)*
G04 #@! TF.CreationDate,2021-01-17T10:32:34-07:00*
G04 #@! TF.ProjectId,8ch_v5_nosma,3863685f-7635-45f6-9e6f-736d612e6b69,rev?*
G04 #@! TF.SameCoordinates,Original*
G04 #@! TF.FileFunction,Soldermask,Bot*
G04 #@! TF.FilePolarity,Negative*
%FSLAX46Y46*%
G04 Gerber Fmt 4.6, Leading zero omitted, Abs format (unit mm)*
G04 Created by KiCad (PCBNEW (5.1.5-0)) date 2021-01-17 10:32:34*
%MOMM*%
%LPD*%
G04 APERTURE LIST*
%ADD10C,0.100000*%
G04 APERTURE END LIST*
D10*
G36*
X215634239Y-126311467D02*
G01*
X215948282Y-126373934D01*
X216539926Y-126619001D01*
X216966477Y-126904014D01*
X217072391Y-126974783D01*
X217525217Y-127427609D01*
X217550490Y-127465433D01*
X217880999Y-127960074D01*
X218126066Y-128551718D01*
X218251000Y-129179804D01*
X218251000Y-129820196D01*
X218126066Y-130448282D01*
X217880999Y-131039926D01*
X217663504Y-131365430D01*
X217556738Y-131525217D01*
X217525216Y-131572392D01*
X217072392Y-132025216D01*
X216539926Y-132380999D01*
X215948282Y-132626066D01*
X215634239Y-132688533D01*
X215320197Y-132751000D01*
X214679803Y-132751000D01*
X214365761Y-132688533D01*
X214051718Y-132626066D01*
X213460074Y-132380999D01*
X212927608Y-132025216D01*
X212474784Y-131572392D01*
X212443263Y-131525217D01*
X212336496Y-131365430D01*
X212119001Y-131039926D01*
X211873934Y-130448282D01*
X211749000Y-129820196D01*
X211749000Y-129179804D01*
X211873934Y-128551718D01*
X212119001Y-127960074D01*
X212449510Y-127465433D01*
X212474783Y-127427609D01*
X212927609Y-126974783D01*
X213033523Y-126904014D01*
X213460074Y-126619001D01*
X214051718Y-126373934D01*
X214365761Y-126311467D01*
X214679803Y-126249000D01*
X215320197Y-126249000D01*
X215634239Y-126311467D01*
G37*
G36*
X145521290Y-125789000D02*
G01*
X145948282Y-125873934D01*
X146539926Y-126119001D01*
X146924927Y-126376251D01*
X147072391Y-126474783D01*
X147525217Y-126927609D01*
X147556738Y-126974784D01*
X147880999Y-127460074D01*
X148126066Y-128051718D01*
X148251000Y-128679804D01*
X148251000Y-129320196D01*
X148126066Y-129948282D01*
X147880999Y-130539926D01*
X147626503Y-130920805D01*
X147525217Y-131072391D01*
X147072391Y-131525217D01*
X146966477Y-131595986D01*
X146539926Y-131880999D01*
X145948282Y-132126066D01*
X145634239Y-132188533D01*
X145320197Y-132251000D01*
X144679803Y-132251000D01*
X144365761Y-132188533D01*
X144051718Y-132126066D01*
X143460074Y-131880999D01*
X143033523Y-131595986D01*
X142927609Y-131525217D01*
X142474783Y-131072391D01*
X142373497Y-130920805D01*
X142119001Y-130539926D01*
X141873934Y-129948282D01*
X141749000Y-129320196D01*
X141749000Y-128679804D01*
X141873934Y-128051718D01*
X142119001Y-127460074D01*
X142443262Y-126974784D01*
X142474783Y-126927609D01*
X142927609Y-126474783D01*
X143075073Y-126376251D01*
X143460074Y-126119001D01*
X144051718Y-125873934D01*
X144478710Y-125789000D01*
X144679803Y-125749000D01*
X145320197Y-125749000D01*
X145521290Y-125789000D01*
G37*
G36*
X154219059Y-125817860D02*
G01*
X154354434Y-125873934D01*
X154355732Y-125874472D01*
X154478735Y-125956660D01*
X154583340Y-126061265D01*
X154583341Y-126061267D01*
X154665529Y-126184270D01*
X154722140Y-126320941D01*
X154751000Y-126466032D01*
X154751000Y-126613968D01*
X154722140Y-126759059D01*
X154675094Y-126872639D01*
X154665528Y-126895732D01*
X154583340Y-127018735D01*
X154478735Y-127123340D01*
X154355732Y-127205528D01*
X154355731Y-127205529D01*
X154355730Y-127205529D01*
X154219059Y-127262140D01*
X154073968Y-127291000D01*
X153926032Y-127291000D01*
X153780941Y-127262140D01*
X153644270Y-127205529D01*
X153644269Y-127205529D01*
X153644268Y-127205528D01*
X153521265Y-127123340D01*
X153416660Y-127018735D01*
X153334472Y-126895732D01*
X153324907Y-126872639D01*
X153277860Y-126759059D01*
X153249000Y-126613968D01*
X153249000Y-126466032D01*
X153277860Y-126320941D01*
X153334471Y-126184270D01*
X153416659Y-126061267D01*
X153416660Y-126061265D01*
X153521265Y-125956660D01*
X153644268Y-125874472D01*
X153645567Y-125873934D01*
X153780941Y-125817860D01*
X153926032Y-125789000D01*
X154073968Y-125789000D01*
X154219059Y-125817860D01*
G37*
G36*
X154219059Y-123277860D02*
G01*
X154355732Y-123334472D01*
X154478735Y-123416660D01*
X154583340Y-123521265D01*
X154665528Y-123644268D01*
X154722140Y-123780941D01*
X154751000Y-123926033D01*
X154751000Y-124073967D01*
X154722140Y-124219059D01*
X154665528Y-124355732D01*
X154583340Y-124478735D01*
X154478735Y-124583340D01*
X154355732Y-124665528D01*
X154355731Y-124665529D01*
X154355730Y-124665529D01*
X154219059Y-124722140D01*
X154073968Y-124751000D01*
X153926032Y-124751000D01*
X153780941Y-124722140D01*
X153644270Y-124665529D01*
X153644269Y-124665529D01*
X153644268Y-124665528D01*
X153521265Y-124583340D01*
X153416660Y-124478735D01*
X153334472Y-124355732D01*
X153277860Y-124219059D01*
X153249000Y-124073967D01*
X153249000Y-123926033D01*
X153277860Y-123780941D01*
X153334472Y-123644268D01*
X153416660Y-123521265D01*
X153521265Y-123416660D01*
X153644268Y-123334472D01*
X153780941Y-123277860D01*
X153926032Y-123249000D01*
X154073968Y-123249000D01*
X154219059Y-123277860D01*
G37*
G36*
X144338855Y-120952140D02*
G01*
X144402618Y-120958420D01*
X144493404Y-120985960D01*
X144525336Y-120995646D01*
X144638425Y-121056094D01*
X144737554Y-121137446D01*
X144818906Y-121236575D01*
X144879354Y-121349664D01*
X144879355Y-121349668D01*
X144916580Y-121472382D01*
X144929149Y-121600000D01*
X144916580Y-121727618D01*
X144889040Y-121818404D01*
X144879354Y-121850336D01*
X144818906Y-121963425D01*
X144737554Y-122062554D01*
X144638425Y-122143906D01*
X144525336Y-122204354D01*
X144493404Y-122214040D01*
X144402618Y-122241580D01*
X144338855Y-122247860D01*
X144306974Y-122251000D01*
X143693026Y-122251000D01*
X143661145Y-122247860D01*
X143597382Y-122241580D01*
X143506596Y-122214040D01*
X143474664Y-122204354D01*
X143361575Y-122143906D01*
X143262446Y-122062554D01*
X143181094Y-121963425D01*
X143120646Y-121850336D01*
X143110960Y-121818404D01*
X143083420Y-121727618D01*
X143070851Y-121600000D01*
X143083420Y-121472382D01*
X143120645Y-121349668D01*
X143120646Y-121349664D01*
X143181094Y-121236575D01*
X143262446Y-121137446D01*
X143361575Y-121056094D01*
X143474664Y-120995646D01*
X143506596Y-120985960D01*
X143597382Y-120958420D01*
X143661145Y-120952140D01*
X143693026Y-120949000D01*
X144306974Y-120949000D01*
X144338855Y-120952140D01*
G37*
G36*
X144766242Y-118953404D02*
G01*
X144803337Y-118964657D01*
X144837515Y-118982925D01*
X144867481Y-119007519D01*
X144892075Y-119037485D01*
X144910343Y-119071663D01*
X144921596Y-119108758D01*
X144926000Y-119153474D01*
X144926000Y-120046526D01*
X144921596Y-120091242D01*
X144910343Y-120128337D01*
X144892075Y-120162515D01*
X144867481Y-120192481D01*
X144837515Y-120217075D01*
X144803337Y-120235343D01*
X144766242Y-120246596D01*
X144721526Y-120251000D01*
X143278474Y-120251000D01*
X143233758Y-120246596D01*
X143196663Y-120235343D01*
X143162485Y-120217075D01*
X143132519Y-120192481D01*
X143107925Y-120162515D01*
X143089657Y-120128337D01*
X143078404Y-120091242D01*
X143074000Y-120046526D01*
X143074000Y-119153474D01*
X143078404Y-119108758D01*
X143089657Y-119071663D01*
X143107925Y-119037485D01*
X143132519Y-119007519D01*
X143162485Y-118982925D01*
X143196663Y-118964657D01*
X143233758Y-118953404D01*
X143278474Y-118949000D01*
X144721526Y-118949000D01*
X144766242Y-118953404D01*
G37*
G36*
X143938855Y-99252140D02*
G01*
X144002618Y-99258420D01*
X144093404Y-99285960D01*
X144125336Y-99295646D01*
X144238425Y-99356094D01*
X144337554Y-99437446D01*
X144418906Y-99536575D01*
X144479354Y-99649664D01*
X144479355Y-99649668D01*
X144516580Y-99772382D01*
X144529149Y-99900000D01*
X144516580Y-100027618D01*
X144489040Y-100118404D01*
X144479354Y-100150336D01*
X144418906Y-100263425D01*
X144337554Y-100362554D01*
X144238425Y-100443906D01*
X144125336Y-100504354D01*
X144093404Y-100514040D01*
X144002618Y-100541580D01*
X143938855Y-100547860D01*
X143906974Y-100551000D01*
X143293026Y-100551000D01*
X143261145Y-100547860D01*
X143197382Y-100541580D01*
X143106596Y-100514040D01*
X143074664Y-100504354D01*
X142961575Y-100443906D01*
X142862446Y-100362554D01*
X142781094Y-100263425D01*
X142720646Y-100150336D01*
X142710960Y-100118404D01*
X142683420Y-100027618D01*
X142670851Y-99900000D01*
X142683420Y-99772382D01*
X142720645Y-99649668D01*
X142720646Y-99649664D01*
X142781094Y-99536575D01*
X142862446Y-99437446D01*
X142961575Y-99356094D01*
X143074664Y-99295646D01*
X143106596Y-99285960D01*
X143197382Y-99258420D01*
X143261145Y-99252140D01*
X143293026Y-99249000D01*
X143906974Y-99249000D01*
X143938855Y-99252140D01*
G37*
G36*
X144366242Y-97253404D02*
G01*
X144403337Y-97264657D01*
X144437515Y-97282925D01*
X144467481Y-97307519D01*
X144492075Y-97337485D01*
X144510343Y-97371663D01*
X144521596Y-97408758D01*
X144526000Y-97453474D01*
X144526000Y-98346526D01*
X144521596Y-98391242D01*
X144510343Y-98428337D01*
X144492075Y-98462515D01*
X144467481Y-98492481D01*
X144437515Y-98517075D01*
X144403337Y-98535343D01*
X144366242Y-98546596D01*
X144321526Y-98551000D01*
X142878474Y-98551000D01*
X142833758Y-98546596D01*
X142796663Y-98535343D01*
X142762485Y-98517075D01*
X142732519Y-98492481D01*
X142707925Y-98462515D01*
X142689657Y-98428337D01*
X142678404Y-98391242D01*
X142674000Y-98346526D01*
X142674000Y-97453474D01*
X142678404Y-97408758D01*
X142689657Y-97371663D01*
X142707925Y-97337485D01*
X142732519Y-97307519D01*
X142762485Y-97282925D01*
X142796663Y-97264657D01*
X142833758Y-97253404D01*
X142878474Y-97249000D01*
X144321526Y-97249000D01*
X144366242Y-97253404D01*
G37*
G36*
X216653512Y-92883927D02*
G01*
X216802812Y-92913624D01*
X216966784Y-92981544D01*
X217114354Y-93080147D01*
X217239853Y-93205646D01*
X217338456Y-93353216D01*
X217406376Y-93517188D01*
X217441000Y-93691259D01*
X217441000Y-93868741D01*
X217406376Y-94042812D01*
X217338456Y-94206784D01*
X217239853Y-94354354D01*
X217114354Y-94479853D01*
X216966784Y-94578456D01*
X216802812Y-94646376D01*
X216653512Y-94676073D01*
X216628742Y-94681000D01*
X216451258Y-94681000D01*
X216426488Y-94676073D01*
X216277188Y-94646376D01*
X216113216Y-94578456D01*
X215965646Y-94479853D01*
X215840147Y-94354354D01*
X215741544Y-94206784D01*
X215673624Y-94042812D01*
X215639000Y-93868741D01*
X215639000Y-93691259D01*
X215673624Y-93517188D01*
X215741544Y-93353216D01*
X215840147Y-93205646D01*
X215965646Y-93080147D01*
X216113216Y-92981544D01*
X216277188Y-92913624D01*
X216426488Y-92883927D01*
X216451258Y-92879000D01*
X216628742Y-92879000D01*
X216653512Y-92883927D01*
G37*
G36*
X214113512Y-92883927D02*
G01*
X214262812Y-92913624D01*
X214426784Y-92981544D01*
X214574354Y-93080147D01*
X214699853Y-93205646D01*
X214798456Y-93353216D01*
X214866376Y-93517188D01*
X214901000Y-93691259D01*
X214901000Y-93868741D01*
X214866376Y-94042812D01*
X214798456Y-94206784D01*
X214699853Y-94354354D01*
X214574354Y-94479853D01*
X214426784Y-94578456D01*
X214262812Y-94646376D01*
X214113512Y-94676073D01*
X214088742Y-94681000D01*
X213911258Y-94681000D01*
X213886488Y-94676073D01*
X213737188Y-94646376D01*
X213573216Y-94578456D01*
X213425646Y-94479853D01*
X213300147Y-94354354D01*
X213201544Y-94206784D01*
X213133624Y-94042812D01*
X213099000Y-93868741D01*
X213099000Y-93691259D01*
X213133624Y-93517188D01*
X213201544Y-93353216D01*
X213300147Y-93205646D01*
X213425646Y-93080147D01*
X213573216Y-92981544D01*
X213737188Y-92913624D01*
X213886488Y-92883927D01*
X213911258Y-92879000D01*
X214088742Y-92879000D01*
X214113512Y-92883927D01*
G37*
G36*
X216653512Y-90343927D02*
G01*
X216802812Y-90373624D01*
X216966784Y-90441544D01*
X217114354Y-90540147D01*
X217239853Y-90665646D01*
X217338456Y-90813216D01*
X217406376Y-90977188D01*
X217441000Y-91151259D01*
X217441000Y-91328741D01*
X217406376Y-91502812D01*
X217338456Y-91666784D01*
X217239853Y-91814354D01*
X217114354Y-91939853D01*
X216966784Y-92038456D01*
X216802812Y-92106376D01*
X216653512Y-92136073D01*
X216628742Y-92141000D01*
X216451258Y-92141000D01*
X216426488Y-92136073D01*
X216277188Y-92106376D01*
X216113216Y-92038456D01*
X215965646Y-91939853D01*
X215840147Y-91814354D01*
X215741544Y-91666784D01*
X215673624Y-91502812D01*
X215639000Y-91328741D01*
X215639000Y-91151259D01*
X215673624Y-90977188D01*
X215741544Y-90813216D01*
X215840147Y-90665646D01*
X215965646Y-90540147D01*
X216113216Y-90441544D01*
X216277188Y-90373624D01*
X216426488Y-90343927D01*
X216451258Y-90339000D01*
X216628742Y-90339000D01*
X216653512Y-90343927D01*
G37*
G36*
X214113512Y-90343927D02*
G01*
X214262812Y-90373624D01*
X214426784Y-90441544D01*
X214574354Y-90540147D01*
X214699853Y-90665646D01*
X214798456Y-90813216D01*
X214866376Y-90977188D01*
X214901000Y-91151259D01*
X214901000Y-91328741D01*
X214866376Y-91502812D01*
X214798456Y-91666784D01*
X214699853Y-91814354D01*
X214574354Y-91939853D01*
X214426784Y-92038456D01*
X214262812Y-92106376D01*
X214113512Y-92136073D01*
X214088742Y-92141000D01*
X213911258Y-92141000D01*
X213886488Y-92136073D01*
X213737188Y-92106376D01*
X213573216Y-92038456D01*
X213425646Y-91939853D01*
X213300147Y-91814354D01*
X213201544Y-91666784D01*
X213133624Y-91502812D01*
X213099000Y-91328741D01*
X213099000Y-91151259D01*
X213133624Y-90977188D01*
X213201544Y-90813216D01*
X213300147Y-90665646D01*
X213425646Y-90540147D01*
X213573216Y-90441544D01*
X213737188Y-90373624D01*
X213886488Y-90343927D01*
X213911258Y-90339000D01*
X214088742Y-90339000D01*
X214113512Y-90343927D01*
G37*
G36*
X216653512Y-87803927D02*
G01*
X216802812Y-87833624D01*
X216966784Y-87901544D01*
X217114354Y-88000147D01*
X217239853Y-88125646D01*
X217338456Y-88273216D01*
X217406376Y-88437188D01*
X217441000Y-88611259D01*
X217441000Y-88788741D01*
X217406376Y-88962812D01*
X217338456Y-89126784D01*
X217239853Y-89274354D01*
X217114354Y-89399853D01*
X216966784Y-89498456D01*
X216802812Y-89566376D01*
X216653512Y-89596073D01*
X216628742Y-89601000D01*
X216451258Y-89601000D01*
X216426488Y-89596073D01*
X216277188Y-89566376D01*
X216113216Y-89498456D01*
X215965646Y-89399853D01*
X215840147Y-89274354D01*
X215741544Y-89126784D01*
X215673624Y-88962812D01*
X215639000Y-88788741D01*
X215639000Y-88611259D01*
X215673624Y-88437188D01*
X215741544Y-88273216D01*
X215840147Y-88125646D01*
X215965646Y-88000147D01*
X216113216Y-87901544D01*
X216277188Y-87833624D01*
X216426488Y-87803927D01*
X216451258Y-87799000D01*
X216628742Y-87799000D01*
X216653512Y-87803927D01*
G37*
G36*
X214113512Y-87803927D02*
G01*
X214262812Y-87833624D01*
X214426784Y-87901544D01*
X214574354Y-88000147D01*
X214699853Y-88125646D01*
X214798456Y-88273216D01*
X214866376Y-88437188D01*
X214901000Y-88611259D01*
X214901000Y-88788741D01*
X214866376Y-88962812D01*
X214798456Y-89126784D01*
X214699853Y-89274354D01*
X214574354Y-89399853D01*
X214426784Y-89498456D01*
X214262812Y-89566376D01*
X214113512Y-89596073D01*
X214088742Y-89601000D01*
X213911258Y-89601000D01*
X213886488Y-89596073D01*
X213737188Y-89566376D01*
X213573216Y-89498456D01*
X213425646Y-89399853D01*
X213300147Y-89274354D01*
X213201544Y-89126784D01*
X213133624Y-88962812D01*
X213099000Y-88788741D01*
X213099000Y-88611259D01*
X213133624Y-88437188D01*
X213201544Y-88273216D01*
X213300147Y-88125646D01*
X213425646Y-88000147D01*
X213573216Y-87901544D01*
X213737188Y-87833624D01*
X213886488Y-87803927D01*
X213911258Y-87799000D01*
X214088742Y-87799000D01*
X214113512Y-87803927D01*
G37*
G36*
X216653512Y-85263927D02*
G01*
X216802812Y-85293624D01*
X216966784Y-85361544D01*
X217114354Y-85460147D01*
X217239853Y-85585646D01*
X217338456Y-85733216D01*
X217406376Y-85897188D01*
X217441000Y-86071259D01*
X217441000Y-86248741D01*
X217406376Y-86422812D01*
X217338456Y-86586784D01*
X217239853Y-86734354D01*
X217114354Y-86859853D01*
X216966784Y-86958456D01*
X216802812Y-87026376D01*
X216653512Y-87056073D01*
X216628742Y-87061000D01*
X216451258Y-87061000D01*
X216426488Y-87056073D01*
X216277188Y-87026376D01*
X216113216Y-86958456D01*
X215965646Y-86859853D01*
X215840147Y-86734354D01*
X215741544Y-86586784D01*
X215673624Y-86422812D01*
X215639000Y-86248741D01*
X215639000Y-86071259D01*
X215673624Y-85897188D01*
X215741544Y-85733216D01*
X215840147Y-85585646D01*
X215965646Y-85460147D01*
X216113216Y-85361544D01*
X216277188Y-85293624D01*
X216426488Y-85263927D01*
X216451258Y-85259000D01*
X216628742Y-85259000D01*
X216653512Y-85263927D01*
G37*
G36*
X214113512Y-85263927D02*
G01*
X214262812Y-85293624D01*
X214426784Y-85361544D01*
X214574354Y-85460147D01*
X214699853Y-85585646D01*
X214798456Y-85733216D01*
X214866376Y-85897188D01*
X214901000Y-86071259D01*
X214901000Y-86248741D01*
X214866376Y-86422812D01*
X214798456Y-86586784D01*
X214699853Y-86734354D01*
X214574354Y-86859853D01*
X214426784Y-86958456D01*
X214262812Y-87026376D01*
X214113512Y-87056073D01*
X214088742Y-87061000D01*
X213911258Y-87061000D01*
X213886488Y-87056073D01*
X213737188Y-87026376D01*
X213573216Y-86958456D01*
X213425646Y-86859853D01*
X213300147Y-86734354D01*
X213201544Y-86586784D01*
X213133624Y-86422812D01*
X213099000Y-86248741D01*
X213099000Y-86071259D01*
X213133624Y-85897188D01*
X213201544Y-85733216D01*
X213300147Y-85585646D01*
X213425646Y-85460147D01*
X213573216Y-85361544D01*
X213737188Y-85293624D01*
X213886488Y-85263927D01*
X213911258Y-85259000D01*
X214088742Y-85259000D01*
X214113512Y-85263927D01*
G37*
G36*
X214113512Y-82723927D02*
G01*
X214262812Y-82753624D01*
X214426784Y-82821544D01*
X214574354Y-82920147D01*
X214699853Y-83045646D01*
X214798456Y-83193216D01*
X214866376Y-83357188D01*
X214901000Y-83531259D01*
X214901000Y-83708741D01*
X214866376Y-83882812D01*
X214798456Y-84046784D01*
X214699853Y-84194354D01*
X214574354Y-84319853D01*
X214426784Y-84418456D01*
X214262812Y-84486376D01*
X214113512Y-84516073D01*
X214088742Y-84521000D01*
X213911258Y-84521000D01*
X213886488Y-84516073D01*
X213737188Y-84486376D01*
X213573216Y-84418456D01*
X213425646Y-84319853D01*
X213300147Y-84194354D01*
X213201544Y-84046784D01*
X213133624Y-83882812D01*
X213099000Y-83708741D01*
X213099000Y-83531259D01*
X213133624Y-83357188D01*
X213201544Y-83193216D01*
X213300147Y-83045646D01*
X213425646Y-82920147D01*
X213573216Y-82821544D01*
X213737188Y-82753624D01*
X213886488Y-82723927D01*
X213911258Y-82719000D01*
X214088742Y-82719000D01*
X214113512Y-82723927D01*
G37*
G36*
X216653512Y-82723927D02*
G01*
X216802812Y-82753624D01*
X216966784Y-82821544D01*
X217114354Y-82920147D01*
X217239853Y-83045646D01*
X217338456Y-83193216D01*
X217406376Y-83357188D01*
X217441000Y-83531259D01*
X217441000Y-83708741D01*
X217406376Y-83882812D01*
X217338456Y-84046784D01*
X217239853Y-84194354D01*
X217114354Y-84319853D01*
X216966784Y-84418456D01*
X216802812Y-84486376D01*
X216653512Y-84516073D01*
X216628742Y-84521000D01*
X216451258Y-84521000D01*
X216426488Y-84516073D01*
X216277188Y-84486376D01*
X216113216Y-84418456D01*
X215965646Y-84319853D01*
X215840147Y-84194354D01*
X215741544Y-84046784D01*
X215673624Y-83882812D01*
X215639000Y-83708741D01*
X215639000Y-83531259D01*
X215673624Y-83357188D01*
X215741544Y-83193216D01*
X215840147Y-83045646D01*
X215965646Y-82920147D01*
X216113216Y-82821544D01*
X216277188Y-82753624D01*
X216426488Y-82723927D01*
X216451258Y-82719000D01*
X216628742Y-82719000D01*
X216653512Y-82723927D01*
G37*
G36*
X216653512Y-80183927D02*
G01*
X216802812Y-80213624D01*
X216966784Y-80281544D01*
X217114354Y-80380147D01*
X217239853Y-80505646D01*
X217338456Y-80653216D01*
X217406376Y-80817188D01*
X217441000Y-80991259D01*
X217441000Y-81168741D01*
X217406376Y-81342812D01*
X217338456Y-81506784D01*
X217239853Y-81654354D01*
X217114354Y-81779853D01*
X216966784Y-81878456D01*
X216802812Y-81946376D01*
X216653512Y-81976073D01*
X216628742Y-81981000D01*
X216451258Y-81981000D01*
X216426488Y-81976073D01*
X216277188Y-81946376D01*
X216113216Y-81878456D01*
X215965646Y-81779853D01*
X215840147Y-81654354D01*
X215741544Y-81506784D01*
X215673624Y-81342812D01*
X215639000Y-81168741D01*
X215639000Y-80991259D01*
X215673624Y-80817188D01*
X215741544Y-80653216D01*
X215840147Y-80505646D01*
X215965646Y-80380147D01*
X216113216Y-80281544D01*
X216277188Y-80213624D01*
X216426488Y-80183927D01*
X216451258Y-80179000D01*
X216628742Y-80179000D01*
X216653512Y-80183927D01*
G37*
G36*
X214113512Y-80183927D02*
G01*
X214262812Y-80213624D01*
X214426784Y-80281544D01*
X214574354Y-80380147D01*
X214699853Y-80505646D01*
X214798456Y-80653216D01*
X214866376Y-80817188D01*
X214901000Y-80991259D01*
X214901000Y-81168741D01*
X214866376Y-81342812D01*
X214798456Y-81506784D01*
X214699853Y-81654354D01*
X214574354Y-81779853D01*
X214426784Y-81878456D01*
X214262812Y-81946376D01*
X214113512Y-81976073D01*
X214088742Y-81981000D01*
X213911258Y-81981000D01*
X213886488Y-81976073D01*
X213737188Y-81946376D01*
X213573216Y-81878456D01*
X213425646Y-81779853D01*
X213300147Y-81654354D01*
X213201544Y-81506784D01*
X213133624Y-81342812D01*
X213099000Y-81168741D01*
X213099000Y-80991259D01*
X213133624Y-80817188D01*
X213201544Y-80653216D01*
X213300147Y-80505646D01*
X213425646Y-80380147D01*
X213573216Y-80281544D01*
X213737188Y-80213624D01*
X213886488Y-80183927D01*
X213911258Y-80179000D01*
X214088742Y-80179000D01*
X214113512Y-80183927D01*
G37*
G36*
X214113512Y-77643927D02*
G01*
X214262812Y-77673624D01*
X214426784Y-77741544D01*
X214574354Y-77840147D01*
X214699853Y-77965646D01*
X214798456Y-78113216D01*
X214866376Y-78277188D01*
X214901000Y-78451259D01*
X214901000Y-78628741D01*
X214866376Y-78802812D01*
X214798456Y-78966784D01*
X214699853Y-79114354D01*
X214574354Y-79239853D01*
X214426784Y-79338456D01*
X214262812Y-79406376D01*
X214113512Y-79436073D01*
X214088742Y-79441000D01*
X213911258Y-79441000D01*
X213886488Y-79436073D01*
X213737188Y-79406376D01*
X213573216Y-79338456D01*
X213425646Y-79239853D01*
X213300147Y-79114354D01*
X213201544Y-78966784D01*
X213133624Y-78802812D01*
X213099000Y-78628741D01*
X213099000Y-78451259D01*
X213133624Y-78277188D01*
X213201544Y-78113216D01*
X213300147Y-77965646D01*
X213425646Y-77840147D01*
X213573216Y-77741544D01*
X213737188Y-77673624D01*
X213886488Y-77643927D01*
X213911258Y-77639000D01*
X214088742Y-77639000D01*
X214113512Y-77643927D01*
G37*
G36*
X216653512Y-77643927D02*
G01*
X216802812Y-77673624D01*
X216966784Y-77741544D01*
X217114354Y-77840147D01*
X217239853Y-77965646D01*
X217338456Y-78113216D01*
X217406376Y-78277188D01*
X217441000Y-78451259D01*
X217441000Y-78628741D01*
X217406376Y-78802812D01*
X217338456Y-78966784D01*
X217239853Y-79114354D01*
X217114354Y-79239853D01*
X216966784Y-79338456D01*
X216802812Y-79406376D01*
X216653512Y-79436073D01*
X216628742Y-79441000D01*
X216451258Y-79441000D01*
X216426488Y-79436073D01*
X216277188Y-79406376D01*
X216113216Y-79338456D01*
X215965646Y-79239853D01*
X215840147Y-79114354D01*
X215741544Y-78966784D01*
X215673624Y-78802812D01*
X215639000Y-78628741D01*
X215639000Y-78451259D01*
X215673624Y-78277188D01*
X215741544Y-78113216D01*
X215840147Y-77965646D01*
X215965646Y-77840147D01*
X216113216Y-77741544D01*
X216277188Y-77673624D01*
X216426488Y-77643927D01*
X216451258Y-77639000D01*
X216628742Y-77639000D01*
X216653512Y-77643927D01*
G37*
G36*
X216653512Y-75103927D02*
G01*
X216802812Y-75133624D01*
X216966784Y-75201544D01*
X217114354Y-75300147D01*
X217239853Y-75425646D01*
X217338456Y-75573216D01*
X217406376Y-75737188D01*
X217441000Y-75911259D01*
X217441000Y-76088741D01*
X217406376Y-76262812D01*
X217338456Y-76426784D01*
X217239853Y-76574354D01*
X217114354Y-76699853D01*
X216966784Y-76798456D01*
X216802812Y-76866376D01*
X216653512Y-76896073D01*
X216628742Y-76901000D01*
X216451258Y-76901000D01*
X216426488Y-76896073D01*
X216277188Y-76866376D01*
X216113216Y-76798456D01*
X215965646Y-76699853D01*
X215840147Y-76574354D01*
X215741544Y-76426784D01*
X215673624Y-76262812D01*
X215639000Y-76088741D01*
X215639000Y-75911259D01*
X215673624Y-75737188D01*
X215741544Y-75573216D01*
X215840147Y-75425646D01*
X215965646Y-75300147D01*
X216113216Y-75201544D01*
X216277188Y-75133624D01*
X216426488Y-75103927D01*
X216451258Y-75099000D01*
X216628742Y-75099000D01*
X216653512Y-75103927D01*
G37*
G36*
X214901000Y-76901000D02*
G01*
X213099000Y-76901000D01*
X213099000Y-75099000D01*
X214901000Y-75099000D01*
X214901000Y-76901000D01*
G37*
G36*
X144138855Y-59152140D02*
G01*
X144202618Y-59158420D01*
X144293404Y-59185960D01*
X144325336Y-59195646D01*
X144438425Y-59256094D01*
X144537554Y-59337446D01*
X144618906Y-59436575D01*
X144679354Y-59549664D01*
X144679355Y-59549668D01*
X144716580Y-59672382D01*
X144729149Y-59800000D01*
X144716580Y-59927618D01*
X144689040Y-60018404D01*
X144679354Y-60050336D01*
X144618906Y-60163425D01*
X144537554Y-60262554D01*
X144438425Y-60343906D01*
X144325336Y-60404354D01*
X144293404Y-60414040D01*
X144202618Y-60441580D01*
X144138855Y-60447860D01*
X144106974Y-60451000D01*
X143493026Y-60451000D01*
X143461145Y-60447860D01*
X143397382Y-60441580D01*
X143306596Y-60414040D01*
X143274664Y-60404354D01*
X143161575Y-60343906D01*
X143062446Y-60262554D01*
X142981094Y-60163425D01*
X142920646Y-60050336D01*
X142910960Y-60018404D01*
X142883420Y-59927618D01*
X142870851Y-59800000D01*
X142883420Y-59672382D01*
X142920645Y-59549668D01*
X142920646Y-59549664D01*
X142981094Y-59436575D01*
X143062446Y-59337446D01*
X143161575Y-59256094D01*
X143274664Y-59195646D01*
X143306596Y-59185960D01*
X143397382Y-59158420D01*
X143461145Y-59152140D01*
X143493026Y-59149000D01*
X144106974Y-59149000D01*
X144138855Y-59152140D01*
G37*
G36*
X144138855Y-57152140D02*
G01*
X144202618Y-57158420D01*
X144293404Y-57185960D01*
X144325336Y-57195646D01*
X144438425Y-57256094D01*
X144537554Y-57337446D01*
X144618906Y-57436575D01*
X144679354Y-57549664D01*
X144679355Y-57549668D01*
X144716580Y-57672382D01*
X144729149Y-57800000D01*
X144716580Y-57927618D01*
X144689040Y-58018404D01*
X144679354Y-58050336D01*
X144618906Y-58163425D01*
X144537554Y-58262554D01*
X144438425Y-58343906D01*
X144325336Y-58404354D01*
X144293404Y-58414040D01*
X144202618Y-58441580D01*
X144138855Y-58447860D01*
X144106974Y-58451000D01*
X143493026Y-58451000D01*
X143461145Y-58447860D01*
X143397382Y-58441580D01*
X143306596Y-58414040D01*
X143274664Y-58404354D01*
X143161575Y-58343906D01*
X143062446Y-58262554D01*
X142981094Y-58163425D01*
X142920646Y-58050336D01*
X142910960Y-58018404D01*
X142883420Y-57927618D01*
X142870851Y-57800000D01*
X142883420Y-57672382D01*
X142920645Y-57549668D01*
X142920646Y-57549664D01*
X142981094Y-57436575D01*
X143062446Y-57337446D01*
X143161575Y-57256094D01*
X143274664Y-57195646D01*
X143306596Y-57185960D01*
X143397382Y-57158420D01*
X143461145Y-57152140D01*
X143493026Y-57149000D01*
X144106974Y-57149000D01*
X144138855Y-57152140D01*
G37*
G36*
X144138855Y-55152140D02*
G01*
X144202618Y-55158420D01*
X144293404Y-55185960D01*
X144325336Y-55195646D01*
X144438425Y-55256094D01*
X144537554Y-55337446D01*
X144618906Y-55436575D01*
X144679354Y-55549664D01*
X144679355Y-55549668D01*
X144716580Y-55672382D01*
X144729149Y-55800000D01*
X144716580Y-55927618D01*
X144689040Y-56018404D01*
X144679354Y-56050336D01*
X144618906Y-56163425D01*
X144537554Y-56262554D01*
X144438425Y-56343906D01*
X144325336Y-56404354D01*
X144293404Y-56414040D01*
X144202618Y-56441580D01*
X144138855Y-56447860D01*
X144106974Y-56451000D01*
X143493026Y-56451000D01*
X143461145Y-56447860D01*
X143397382Y-56441580D01*
X143306596Y-56414040D01*
X143274664Y-56404354D01*
X143161575Y-56343906D01*
X143062446Y-56262554D01*
X142981094Y-56163425D01*
X142920646Y-56050336D01*
X142910960Y-56018404D01*
X142883420Y-55927618D01*
X142870851Y-55800000D01*
X142883420Y-55672382D01*
X142920645Y-55549668D01*
X142920646Y-55549664D01*
X142981094Y-55436575D01*
X143062446Y-55337446D01*
X143161575Y-55256094D01*
X143274664Y-55195646D01*
X143306596Y-55185960D01*
X143397382Y-55158420D01*
X143461145Y-55152140D01*
X143493026Y-55149000D01*
X144106974Y-55149000D01*
X144138855Y-55152140D01*
G37*
G36*
X144566242Y-53153404D02*
G01*
X144603337Y-53164657D01*
X144637515Y-53182925D01*
X144667481Y-53207519D01*
X144692075Y-53237485D01*
X144710343Y-53271663D01*
X144721596Y-53308758D01*
X144726000Y-53353474D01*
X144726000Y-54246526D01*
X144721596Y-54291242D01*
X144710343Y-54328337D01*
X144692075Y-54362515D01*
X144667481Y-54392481D01*
X144637515Y-54417075D01*
X144603337Y-54435343D01*
X144566242Y-54446596D01*
X144521526Y-54451000D01*
X143078474Y-54451000D01*
X143033758Y-54446596D01*
X142996663Y-54435343D01*
X142962485Y-54417075D01*
X142932519Y-54392481D01*
X142907925Y-54362515D01*
X142889657Y-54328337D01*
X142878404Y-54291242D01*
X142874000Y-54246526D01*
X142874000Y-53353474D01*
X142878404Y-53308758D01*
X142889657Y-53271663D01*
X142907925Y-53237485D01*
X142932519Y-53207519D01*
X142962485Y-53182925D01*
X142996663Y-53164657D01*
X143033758Y-53153404D01*
X143078474Y-53149000D01*
X144521526Y-53149000D01*
X144566242Y-53153404D01*
G37*
G36*
X143566242Y-47553404D02*
G01*
X143603337Y-47564657D01*
X143637515Y-47582925D01*
X143667481Y-47607519D01*
X143692075Y-47637485D01*
X143710343Y-47671663D01*
X143721596Y-47708758D01*
X143726000Y-47753474D01*
X143726000Y-48646526D01*
X143721596Y-48691242D01*
X143710343Y-48728337D01*
X143692075Y-48762515D01*
X143667481Y-48792481D01*
X143637515Y-48817075D01*
X143603337Y-48835343D01*
X143566242Y-48846596D01*
X143521526Y-48851000D01*
X142078474Y-48851000D01*
X142033758Y-48846596D01*
X141996663Y-48835343D01*
X141962485Y-48817075D01*
X141932519Y-48792481D01*
X141907925Y-48762515D01*
X141889657Y-48728337D01*
X141878404Y-48691242D01*
X141874000Y-48646526D01*
X141874000Y-47753474D01*
X141878404Y-47708758D01*
X141889657Y-47671663D01*
X141907925Y-47637485D01*
X141932519Y-47607519D01*
X141962485Y-47582925D01*
X141996663Y-47564657D01*
X142033758Y-47553404D01*
X142078474Y-47549000D01*
X143521526Y-47549000D01*
X143566242Y-47553404D01*
G37*
G36*
X143138855Y-45552140D02*
G01*
X143202618Y-45558420D01*
X143284768Y-45583340D01*
X143325336Y-45595646D01*
X143438425Y-45656094D01*
X143537554Y-45737446D01*
X143618906Y-45836575D01*
X143679354Y-45949664D01*
X143679355Y-45949668D01*
X143716580Y-46072382D01*
X143729149Y-46200000D01*
X143716580Y-46327618D01*
X143689040Y-46418404D01*
X143679354Y-46450336D01*
X143618906Y-46563425D01*
X143537554Y-46662554D01*
X143438425Y-46743906D01*
X143325336Y-46804354D01*
X143293404Y-46814040D01*
X143202618Y-46841580D01*
X143138855Y-46847860D01*
X143106974Y-46851000D01*
X142493026Y-46851000D01*
X142461145Y-46847860D01*
X142397382Y-46841580D01*
X142306596Y-46814040D01*
X142274664Y-46804354D01*
X142161575Y-46743906D01*
X142062446Y-46662554D01*
X141981094Y-46563425D01*
X141920646Y-46450336D01*
X141910960Y-46418404D01*
X141883420Y-46327618D01*
X141870851Y-46200000D01*
X141883420Y-46072382D01*
X141920645Y-45949668D01*
X141920646Y-45949664D01*
X141981094Y-45836575D01*
X142062446Y-45737446D01*
X142161575Y-45656094D01*
X142274664Y-45595646D01*
X142315232Y-45583340D01*
X142397382Y-45558420D01*
X142461145Y-45552140D01*
X142493026Y-45549000D01*
X143106974Y-45549000D01*
X143138855Y-45552140D01*
G37*
G36*
X157219059Y-44277860D02*
G01*
X157355732Y-44334472D01*
X157478735Y-44416660D01*
X157583340Y-44521265D01*
X157665528Y-44644268D01*
X157722140Y-44780941D01*
X157751000Y-44926033D01*
X157751000Y-45073967D01*
X157722140Y-45219059D01*
X157665528Y-45355732D01*
X157583340Y-45478735D01*
X157478735Y-45583340D01*
X157355732Y-45665528D01*
X157355731Y-45665529D01*
X157355730Y-45665529D01*
X157219059Y-45722140D01*
X157073968Y-45751000D01*
X156926032Y-45751000D01*
X156780941Y-45722140D01*
X156644270Y-45665529D01*
X156644269Y-45665529D01*
X156644268Y-45665528D01*
X156521265Y-45583340D01*
X156416660Y-45478735D01*
X156334472Y-45355732D01*
X156277860Y-45219059D01*
X156249000Y-45073967D01*
X156249000Y-44926033D01*
X156277860Y-44780941D01*
X156334472Y-44644268D01*
X156416660Y-44521265D01*
X156521265Y-44416660D01*
X156644268Y-44334472D01*
X156780941Y-44277860D01*
X156926032Y-44249000D01*
X157073968Y-44249000D01*
X157219059Y-44277860D01*
G37*
G36*
X159759059Y-44277860D02*
G01*
X159895732Y-44334472D01*
X160018735Y-44416660D01*
X160123340Y-44521265D01*
X160205528Y-44644268D01*
X160262140Y-44780941D01*
X160291000Y-44926033D01*
X160291000Y-45073967D01*
X160262140Y-45219059D01*
X160205528Y-45355732D01*
X160123340Y-45478735D01*
X160018735Y-45583340D01*
X159895732Y-45665528D01*
X159895731Y-45665529D01*
X159895730Y-45665529D01*
X159759059Y-45722140D01*
X159613968Y-45751000D01*
X159466032Y-45751000D01*
X159320941Y-45722140D01*
X159184270Y-45665529D01*
X159184269Y-45665529D01*
X159184268Y-45665528D01*
X159061265Y-45583340D01*
X158956660Y-45478735D01*
X158874472Y-45355732D01*
X158817860Y-45219059D01*
X158789000Y-45073967D01*
X158789000Y-44926033D01*
X158817860Y-44780941D01*
X158874472Y-44644268D01*
X158956660Y-44521265D01*
X159061265Y-44416660D01*
X159184268Y-44334472D01*
X159320941Y-44277860D01*
X159466032Y-44249000D01*
X159613968Y-44249000D01*
X159759059Y-44277860D01*
G37*
G36*
X145634239Y-36811467D02*
G01*
X145948282Y-36873934D01*
X146539926Y-37119001D01*
X147072392Y-37474784D01*
X147525216Y-37927608D01*
X147880999Y-38460074D01*
X148126066Y-39051718D01*
X148251000Y-39679804D01*
X148251000Y-40320196D01*
X148126066Y-40948282D01*
X147880999Y-41539926D01*
X147525216Y-42072392D01*
X147072392Y-42525216D01*
X146539926Y-42880999D01*
X145948282Y-43126066D01*
X145634239Y-43188533D01*
X145320197Y-43251000D01*
X144679803Y-43251000D01*
X144365761Y-43188533D01*
X144051718Y-43126066D01*
X143460074Y-42880999D01*
X142927608Y-42525216D01*
X142474784Y-42072392D01*
X142119001Y-41539926D01*
X141873934Y-40948282D01*
X141749000Y-40320196D01*
X141749000Y-39679804D01*
X141873934Y-39051718D01*
X142119001Y-38460074D01*
X142474784Y-37927608D01*
X142927608Y-37474784D01*
X143460074Y-37119001D01*
X144051718Y-36873934D01*
X144365761Y-36811467D01*
X144679803Y-36749000D01*
X145320197Y-36749000D01*
X145634239Y-36811467D01*
G37*
G36*
X215634239Y-36811467D02*
G01*
X215948282Y-36873934D01*
X216539926Y-37119001D01*
X217072392Y-37474784D01*
X217525216Y-37927608D01*
X217880999Y-38460074D01*
X218126066Y-39051718D01*
X218251000Y-39679804D01*
X218251000Y-40320196D01*
X218126066Y-40948282D01*
X217880999Y-41539926D01*
X217525216Y-42072392D01*
X217072392Y-42525216D01*
X216539926Y-42880999D01*
X215948282Y-43126066D01*
X215634239Y-43188533D01*
X215320197Y-43251000D01*
X214679803Y-43251000D01*
X214365761Y-43188533D01*
X214051718Y-43126066D01*
X213460074Y-42880999D01*
X212927608Y-42525216D01*
X212474784Y-42072392D01*
X212119001Y-41539926D01*
X211873934Y-40948282D01*
X211749000Y-40320196D01*
X211749000Y-39679804D01*
X211873934Y-39051718D01*
X212119001Y-38460074D01*
X212474784Y-37927608D01*
X212927608Y-37474784D01*
X213460074Y-37119001D01*
X214051718Y-36873934D01*
X214365761Y-36811467D01*
X214679803Y-36749000D01*
X215320197Y-36749000D01*
X215634239Y-36811467D01*
G37*
M02*
