G04 #@! TF.GenerationSoftware,KiCad,Pcbnew,(5.1.5-0)*
G04 #@! TF.CreationDate,2021-01-24T11:48:24-07:00*
G04 #@! TF.ProjectId,power_cui,706f7765-725f-4637-9569-2e6b69636164,rev?*
G04 #@! TF.SameCoordinates,Original*
G04 #@! TF.FileFunction,Soldermask,Bot*
G04 #@! TF.FilePolarity,Negative*
%FSLAX46Y46*%
G04 Gerber Fmt 4.6, Leading zero omitted, Abs format (unit mm)*
G04 Created by KiCad (PCBNEW (5.1.5-0)) date 2021-01-24 11:48:24*
%MOMM*%
%LPD*%
G04 APERTURE LIST*
%ADD10C,0.100000*%
G04 APERTURE END LIST*
D10*
G36*
X123766242Y-131353404D02*
G01*
X123803337Y-131364657D01*
X123837515Y-131382925D01*
X123867481Y-131407519D01*
X123892075Y-131437485D01*
X123910343Y-131471663D01*
X123921596Y-131508758D01*
X123926000Y-131553474D01*
X123926000Y-132446526D01*
X123921596Y-132491242D01*
X123910343Y-132528337D01*
X123892075Y-132562515D01*
X123867481Y-132592481D01*
X123837515Y-132617075D01*
X123803337Y-132635343D01*
X123766242Y-132646596D01*
X123721526Y-132651000D01*
X122278474Y-132651000D01*
X122233758Y-132646596D01*
X122196663Y-132635343D01*
X122162485Y-132617075D01*
X122132519Y-132592481D01*
X122107925Y-132562515D01*
X122089657Y-132528337D01*
X122078404Y-132491242D01*
X122074000Y-132446526D01*
X122074000Y-131553474D01*
X122078404Y-131508758D01*
X122089657Y-131471663D01*
X122107925Y-131437485D01*
X122132519Y-131407519D01*
X122162485Y-131382925D01*
X122196663Y-131364657D01*
X122233758Y-131353404D01*
X122278474Y-131349000D01*
X123721526Y-131349000D01*
X123766242Y-131353404D01*
G37*
G36*
X123338855Y-129352140D02*
G01*
X123402618Y-129358420D01*
X123493404Y-129385960D01*
X123525336Y-129395646D01*
X123638425Y-129456094D01*
X123737554Y-129537446D01*
X123818906Y-129636575D01*
X123879354Y-129749664D01*
X123879355Y-129749668D01*
X123916580Y-129872382D01*
X123929149Y-130000000D01*
X123916580Y-130127618D01*
X123889040Y-130218404D01*
X123879354Y-130250336D01*
X123818906Y-130363425D01*
X123737554Y-130462554D01*
X123638425Y-130543906D01*
X123525336Y-130604354D01*
X123493404Y-130614040D01*
X123402618Y-130641580D01*
X123338855Y-130647860D01*
X123306974Y-130651000D01*
X122693026Y-130651000D01*
X122661145Y-130647860D01*
X122597382Y-130641580D01*
X122506596Y-130614040D01*
X122474664Y-130604354D01*
X122361575Y-130543906D01*
X122262446Y-130462554D01*
X122181094Y-130363425D01*
X122120646Y-130250336D01*
X122110960Y-130218404D01*
X122083420Y-130127618D01*
X122070851Y-130000000D01*
X122083420Y-129872382D01*
X122120645Y-129749668D01*
X122120646Y-129749664D01*
X122181094Y-129636575D01*
X122262446Y-129537446D01*
X122361575Y-129456094D01*
X122474664Y-129395646D01*
X122506596Y-129385960D01*
X122597382Y-129358420D01*
X122661145Y-129352140D01*
X122693026Y-129349000D01*
X123306974Y-129349000D01*
X123338855Y-129352140D01*
G37*
G36*
X152338855Y-121352140D02*
G01*
X152402618Y-121358420D01*
X152493404Y-121385960D01*
X152525336Y-121395646D01*
X152638425Y-121456094D01*
X152737554Y-121537446D01*
X152818906Y-121636575D01*
X152879354Y-121749664D01*
X152879355Y-121749668D01*
X152916580Y-121872382D01*
X152929149Y-122000000D01*
X152916580Y-122127618D01*
X152889040Y-122218404D01*
X152879354Y-122250336D01*
X152818906Y-122363425D01*
X152737554Y-122462554D01*
X152638425Y-122543906D01*
X152525336Y-122604354D01*
X152493404Y-122614040D01*
X152402618Y-122641580D01*
X152338855Y-122647860D01*
X152306974Y-122651000D01*
X151693026Y-122651000D01*
X151661145Y-122647860D01*
X151597382Y-122641580D01*
X151506596Y-122614040D01*
X151474664Y-122604354D01*
X151361575Y-122543906D01*
X151262446Y-122462554D01*
X151181094Y-122363425D01*
X151120646Y-122250336D01*
X151110960Y-122218404D01*
X151083420Y-122127618D01*
X151070851Y-122000000D01*
X151083420Y-121872382D01*
X151120645Y-121749668D01*
X151120646Y-121749664D01*
X151181094Y-121636575D01*
X151262446Y-121537446D01*
X151361575Y-121456094D01*
X151474664Y-121395646D01*
X151506596Y-121385960D01*
X151597382Y-121358420D01*
X151661145Y-121352140D01*
X151693026Y-121349000D01*
X152306974Y-121349000D01*
X152338855Y-121352140D01*
G37*
G36*
X113928571Y-120822863D02*
G01*
X114007023Y-120830590D01*
X114107682Y-120861125D01*
X114158013Y-120876392D01*
X114297165Y-120950771D01*
X114419133Y-121050867D01*
X114519229Y-121172835D01*
X114593608Y-121311987D01*
X114607693Y-121358420D01*
X114639410Y-121462977D01*
X114654875Y-121620000D01*
X114639410Y-121777023D01*
X114610483Y-121872382D01*
X114593608Y-121928013D01*
X114519229Y-122067165D01*
X114419133Y-122189133D01*
X114297165Y-122289229D01*
X114158013Y-122363608D01*
X114107682Y-122378875D01*
X114007023Y-122409410D01*
X113928571Y-122417137D01*
X113889346Y-122421000D01*
X113310654Y-122421000D01*
X113271429Y-122417137D01*
X113192977Y-122409410D01*
X113092318Y-122378875D01*
X113041987Y-122363608D01*
X112902835Y-122289229D01*
X112780867Y-122189133D01*
X112680771Y-122067165D01*
X112606392Y-121928013D01*
X112589517Y-121872382D01*
X112560590Y-121777023D01*
X112545125Y-121620000D01*
X112560590Y-121462977D01*
X112592307Y-121358420D01*
X112606392Y-121311987D01*
X112680771Y-121172835D01*
X112780867Y-121050867D01*
X112902835Y-120950771D01*
X113041987Y-120876392D01*
X113092318Y-120861125D01*
X113192977Y-120830590D01*
X113271429Y-120822863D01*
X113310654Y-120819000D01*
X113889346Y-120819000D01*
X113928571Y-120822863D01*
G37*
G36*
X152766242Y-119353404D02*
G01*
X152803337Y-119364657D01*
X152837515Y-119382925D01*
X152867481Y-119407519D01*
X152892075Y-119437485D01*
X152910343Y-119471663D01*
X152921596Y-119508758D01*
X152926000Y-119553474D01*
X152926000Y-120446526D01*
X152921596Y-120491242D01*
X152910343Y-120528337D01*
X152892075Y-120562515D01*
X152867481Y-120592481D01*
X152837515Y-120617075D01*
X152803337Y-120635343D01*
X152766242Y-120646596D01*
X152721526Y-120651000D01*
X151278474Y-120651000D01*
X151233758Y-120646596D01*
X151196663Y-120635343D01*
X151162485Y-120617075D01*
X151132519Y-120592481D01*
X151107925Y-120562515D01*
X151089657Y-120528337D01*
X151078404Y-120491242D01*
X151074000Y-120446526D01*
X151074000Y-119553474D01*
X151078404Y-119508758D01*
X151089657Y-119471663D01*
X151107925Y-119437485D01*
X151132519Y-119407519D01*
X151162485Y-119382925D01*
X151196663Y-119364657D01*
X151233758Y-119353404D01*
X151278474Y-119349000D01*
X152721526Y-119349000D01*
X152766242Y-119353404D01*
G37*
G36*
X113928571Y-118282863D02*
G01*
X114007023Y-118290590D01*
X114107682Y-118321125D01*
X114158013Y-118336392D01*
X114297165Y-118410771D01*
X114419133Y-118510867D01*
X114519229Y-118632835D01*
X114593608Y-118771987D01*
X114593608Y-118771988D01*
X114639410Y-118922977D01*
X114654875Y-119080000D01*
X114639410Y-119237023D01*
X114608875Y-119337682D01*
X114593608Y-119388013D01*
X114519229Y-119527165D01*
X114419133Y-119649133D01*
X114297165Y-119749229D01*
X114158013Y-119823608D01*
X114107682Y-119838875D01*
X114007023Y-119869410D01*
X113928571Y-119877137D01*
X113889346Y-119881000D01*
X113310654Y-119881000D01*
X113271429Y-119877137D01*
X113192977Y-119869410D01*
X113092318Y-119838875D01*
X113041987Y-119823608D01*
X112902835Y-119749229D01*
X112780867Y-119649133D01*
X112680771Y-119527165D01*
X112606392Y-119388013D01*
X112591125Y-119337682D01*
X112560590Y-119237023D01*
X112545125Y-119080000D01*
X112560590Y-118922977D01*
X112606392Y-118771988D01*
X112606392Y-118771987D01*
X112680771Y-118632835D01*
X112780867Y-118510867D01*
X112902835Y-118410771D01*
X113041987Y-118336392D01*
X113092318Y-118321125D01*
X113192977Y-118290590D01*
X113271429Y-118282863D01*
X113310654Y-118279000D01*
X113889346Y-118279000D01*
X113928571Y-118282863D01*
G37*
G36*
X133248228Y-116181703D02*
G01*
X133403100Y-116245853D01*
X133542481Y-116338985D01*
X133661015Y-116457519D01*
X133754147Y-116596900D01*
X133818297Y-116751772D01*
X133851000Y-116916184D01*
X133851000Y-117083816D01*
X133818297Y-117248228D01*
X133754147Y-117403100D01*
X133661015Y-117542481D01*
X133542481Y-117661015D01*
X133403100Y-117754147D01*
X133248228Y-117818297D01*
X133083816Y-117851000D01*
X132916184Y-117851000D01*
X132751772Y-117818297D01*
X132596900Y-117754147D01*
X132457519Y-117661015D01*
X132338985Y-117542481D01*
X132245853Y-117403100D01*
X132181703Y-117248228D01*
X132149000Y-117083816D01*
X132149000Y-116916184D01*
X132181703Y-116751772D01*
X132245853Y-116596900D01*
X132338985Y-116457519D01*
X132457519Y-116338985D01*
X132596900Y-116245853D01*
X132751772Y-116181703D01*
X132916184Y-116149000D01*
X133083816Y-116149000D01*
X133248228Y-116181703D01*
G37*
G36*
X128248228Y-116181703D02*
G01*
X128403100Y-116245853D01*
X128542481Y-116338985D01*
X128661015Y-116457519D01*
X128754147Y-116596900D01*
X128818297Y-116751772D01*
X128851000Y-116916184D01*
X128851000Y-117083816D01*
X128818297Y-117248228D01*
X128754147Y-117403100D01*
X128661015Y-117542481D01*
X128542481Y-117661015D01*
X128403100Y-117754147D01*
X128248228Y-117818297D01*
X128083816Y-117851000D01*
X127916184Y-117851000D01*
X127751772Y-117818297D01*
X127596900Y-117754147D01*
X127457519Y-117661015D01*
X127338985Y-117542481D01*
X127245853Y-117403100D01*
X127181703Y-117248228D01*
X127149000Y-117083816D01*
X127149000Y-116916184D01*
X127181703Y-116751772D01*
X127245853Y-116596900D01*
X127338985Y-116457519D01*
X127457519Y-116338985D01*
X127596900Y-116245853D01*
X127751772Y-116181703D01*
X127916184Y-116149000D01*
X128083816Y-116149000D01*
X128248228Y-116181703D01*
G37*
G36*
X113928571Y-115742863D02*
G01*
X114007023Y-115750590D01*
X114107682Y-115781125D01*
X114158013Y-115796392D01*
X114297165Y-115870771D01*
X114419133Y-115970867D01*
X114519229Y-116092835D01*
X114593608Y-116231987D01*
X114593608Y-116231988D01*
X114639410Y-116382977D01*
X114654875Y-116540000D01*
X114639410Y-116697023D01*
X114622802Y-116751771D01*
X114593608Y-116848013D01*
X114519229Y-116987165D01*
X114419133Y-117109133D01*
X114297165Y-117209229D01*
X114158013Y-117283608D01*
X114107682Y-117298875D01*
X114007023Y-117329410D01*
X113928571Y-117337137D01*
X113889346Y-117341000D01*
X113310654Y-117341000D01*
X113271429Y-117337137D01*
X113192977Y-117329410D01*
X113092318Y-117298875D01*
X113041987Y-117283608D01*
X112902835Y-117209229D01*
X112780867Y-117109133D01*
X112680771Y-116987165D01*
X112606392Y-116848013D01*
X112577198Y-116751771D01*
X112560590Y-116697023D01*
X112545125Y-116540000D01*
X112560590Y-116382977D01*
X112606392Y-116231988D01*
X112606392Y-116231987D01*
X112680771Y-116092835D01*
X112780867Y-115970867D01*
X112902835Y-115870771D01*
X113041987Y-115796392D01*
X113092318Y-115781125D01*
X113192977Y-115750590D01*
X113271429Y-115742863D01*
X113310654Y-115739000D01*
X113889346Y-115739000D01*
X113928571Y-115742863D01*
G37*
G36*
X114651000Y-114801000D02*
G01*
X112549000Y-114801000D01*
X112549000Y-113199000D01*
X114651000Y-113199000D01*
X114651000Y-114801000D01*
G37*
G36*
X152338855Y-113352140D02*
G01*
X152402618Y-113358420D01*
X152493404Y-113385960D01*
X152525336Y-113395646D01*
X152638425Y-113456094D01*
X152737554Y-113537446D01*
X152818906Y-113636575D01*
X152879354Y-113749664D01*
X152879355Y-113749668D01*
X152916580Y-113872382D01*
X152929149Y-114000000D01*
X152916580Y-114127618D01*
X152889040Y-114218404D01*
X152879354Y-114250336D01*
X152818906Y-114363425D01*
X152737554Y-114462554D01*
X152638425Y-114543906D01*
X152525336Y-114604354D01*
X152493404Y-114614040D01*
X152402618Y-114641580D01*
X152338855Y-114647860D01*
X152306974Y-114651000D01*
X151693026Y-114651000D01*
X151661145Y-114647860D01*
X151597382Y-114641580D01*
X151506596Y-114614040D01*
X151474664Y-114604354D01*
X151361575Y-114543906D01*
X151262446Y-114462554D01*
X151181094Y-114363425D01*
X151120646Y-114250336D01*
X151110960Y-114218404D01*
X151083420Y-114127618D01*
X151070851Y-114000000D01*
X151083420Y-113872382D01*
X151120645Y-113749668D01*
X151120646Y-113749664D01*
X151181094Y-113636575D01*
X151262446Y-113537446D01*
X151361575Y-113456094D01*
X151474664Y-113395646D01*
X151506596Y-113385960D01*
X151597382Y-113358420D01*
X151661145Y-113352140D01*
X151693026Y-113349000D01*
X152306974Y-113349000D01*
X152338855Y-113352140D01*
G37*
G36*
X152766242Y-111353404D02*
G01*
X152803337Y-111364657D01*
X152837515Y-111382925D01*
X152867481Y-111407519D01*
X152892075Y-111437485D01*
X152910343Y-111471663D01*
X152921596Y-111508758D01*
X152926000Y-111553474D01*
X152926000Y-112446526D01*
X152921596Y-112491242D01*
X152910343Y-112528337D01*
X152892075Y-112562515D01*
X152867481Y-112592481D01*
X152837515Y-112617075D01*
X152803337Y-112635343D01*
X152766242Y-112646596D01*
X152721526Y-112651000D01*
X151278474Y-112651000D01*
X151233758Y-112646596D01*
X151196663Y-112635343D01*
X151162485Y-112617075D01*
X151132519Y-112592481D01*
X151107925Y-112562515D01*
X151089657Y-112528337D01*
X151078404Y-112491242D01*
X151074000Y-112446526D01*
X151074000Y-111553474D01*
X151078404Y-111508758D01*
X151089657Y-111471663D01*
X151107925Y-111437485D01*
X151132519Y-111407519D01*
X151162485Y-111382925D01*
X151196663Y-111364657D01*
X151233758Y-111353404D01*
X151278474Y-111349000D01*
X152721526Y-111349000D01*
X152766242Y-111353404D01*
G37*
G36*
X102506564Y-106989389D02*
G01*
X102697833Y-107068615D01*
X102697835Y-107068616D01*
X102869973Y-107183635D01*
X103016365Y-107330027D01*
X103131385Y-107502167D01*
X103210611Y-107693436D01*
X103251000Y-107896484D01*
X103251000Y-108103516D01*
X103210611Y-108306564D01*
X103131385Y-108497833D01*
X103131384Y-108497835D01*
X103016365Y-108669973D01*
X102869973Y-108816365D01*
X102697835Y-108931384D01*
X102697834Y-108931385D01*
X102697833Y-108931385D01*
X102506564Y-109010611D01*
X102303516Y-109051000D01*
X102096484Y-109051000D01*
X101893436Y-109010611D01*
X101702167Y-108931385D01*
X101702166Y-108931385D01*
X101702165Y-108931384D01*
X101530027Y-108816365D01*
X101383635Y-108669973D01*
X101268616Y-108497835D01*
X101268615Y-108497833D01*
X101189389Y-108306564D01*
X101149000Y-108103516D01*
X101149000Y-107896484D01*
X101189389Y-107693436D01*
X101268615Y-107502167D01*
X101383635Y-107330027D01*
X101530027Y-107183635D01*
X101702165Y-107068616D01*
X101702167Y-107068615D01*
X101893436Y-106989389D01*
X102096484Y-106949000D01*
X102303516Y-106949000D01*
X102506564Y-106989389D01*
G37*
G36*
X92506564Y-104889389D02*
G01*
X92697833Y-104968615D01*
X92697835Y-104968616D01*
X92869973Y-105083635D01*
X93016365Y-105230027D01*
X93131385Y-105402167D01*
X93210611Y-105593436D01*
X93251000Y-105796484D01*
X93251000Y-106003516D01*
X93210611Y-106206564D01*
X93131385Y-106397833D01*
X93131384Y-106397835D01*
X93016365Y-106569973D01*
X92869973Y-106716365D01*
X92697835Y-106831384D01*
X92697834Y-106831385D01*
X92697833Y-106831385D01*
X92506564Y-106910611D01*
X92303516Y-106951000D01*
X92096484Y-106951000D01*
X91893436Y-106910611D01*
X91702167Y-106831385D01*
X91702166Y-106831385D01*
X91702165Y-106831384D01*
X91530027Y-106716365D01*
X91383635Y-106569973D01*
X91268616Y-106397835D01*
X91268615Y-106397833D01*
X91189389Y-106206564D01*
X91149000Y-106003516D01*
X91149000Y-105796484D01*
X91189389Y-105593436D01*
X91268615Y-105402167D01*
X91383635Y-105230027D01*
X91530027Y-105083635D01*
X91702165Y-104968616D01*
X91702167Y-104968615D01*
X91893436Y-104889389D01*
X92096484Y-104849000D01*
X92303516Y-104849000D01*
X92506564Y-104889389D01*
G37*
G36*
X152338855Y-99352140D02*
G01*
X152402618Y-99358420D01*
X152493404Y-99385960D01*
X152525336Y-99395646D01*
X152638425Y-99456094D01*
X152737554Y-99537446D01*
X152818906Y-99636575D01*
X152879354Y-99749664D01*
X152879355Y-99749668D01*
X152916580Y-99872382D01*
X152929149Y-100000000D01*
X152916580Y-100127618D01*
X152889040Y-100218404D01*
X152879354Y-100250336D01*
X152818906Y-100363425D01*
X152737554Y-100462554D01*
X152638425Y-100543906D01*
X152525336Y-100604354D01*
X152493404Y-100614040D01*
X152402618Y-100641580D01*
X152338855Y-100647860D01*
X152306974Y-100651000D01*
X151693026Y-100651000D01*
X151661145Y-100647860D01*
X151597382Y-100641580D01*
X151506596Y-100614040D01*
X151474664Y-100604354D01*
X151361575Y-100543906D01*
X151262446Y-100462554D01*
X151181094Y-100363425D01*
X151120646Y-100250336D01*
X151110960Y-100218404D01*
X151083420Y-100127618D01*
X151070851Y-100000000D01*
X151083420Y-99872382D01*
X151120645Y-99749668D01*
X151120646Y-99749664D01*
X151181094Y-99636575D01*
X151262446Y-99537446D01*
X151361575Y-99456094D01*
X151474664Y-99395646D01*
X151506596Y-99385960D01*
X151597382Y-99358420D01*
X151661145Y-99352140D01*
X151693026Y-99349000D01*
X152306974Y-99349000D01*
X152338855Y-99352140D01*
G37*
G36*
X152766242Y-97353404D02*
G01*
X152803337Y-97364657D01*
X152837515Y-97382925D01*
X152867481Y-97407519D01*
X152892075Y-97437485D01*
X152910343Y-97471663D01*
X152921596Y-97508758D01*
X152926000Y-97553474D01*
X152926000Y-98446526D01*
X152921596Y-98491242D01*
X152910343Y-98528337D01*
X152892075Y-98562515D01*
X152867481Y-98592481D01*
X152837515Y-98617075D01*
X152803337Y-98635343D01*
X152766242Y-98646596D01*
X152721526Y-98651000D01*
X151278474Y-98651000D01*
X151233758Y-98646596D01*
X151196663Y-98635343D01*
X151162485Y-98617075D01*
X151132519Y-98592481D01*
X151107925Y-98562515D01*
X151089657Y-98528337D01*
X151078404Y-98491242D01*
X151074000Y-98446526D01*
X151074000Y-97553474D01*
X151078404Y-97508758D01*
X151089657Y-97471663D01*
X151107925Y-97437485D01*
X151132519Y-97407519D01*
X151162485Y-97382925D01*
X151196663Y-97364657D01*
X151233758Y-97353404D01*
X151278474Y-97349000D01*
X152721526Y-97349000D01*
X152766242Y-97353404D01*
G37*
G36*
X109351560Y-90499064D02*
G01*
X109503027Y-90529193D01*
X109717045Y-90617842D01*
X109717046Y-90617843D01*
X109909654Y-90746539D01*
X110073461Y-90910346D01*
X110159258Y-91038751D01*
X110202158Y-91102955D01*
X110290807Y-91316973D01*
X110336000Y-91544174D01*
X110336000Y-91775826D01*
X110290807Y-92003027D01*
X110202158Y-92217045D01*
X110202157Y-92217046D01*
X110073461Y-92409654D01*
X109909654Y-92573461D01*
X109800199Y-92646596D01*
X109717045Y-92702158D01*
X109503027Y-92790807D01*
X109351560Y-92820936D01*
X109275827Y-92836000D01*
X109044173Y-92836000D01*
X108968440Y-92820936D01*
X108816973Y-92790807D01*
X108602955Y-92702158D01*
X108519801Y-92646596D01*
X108410346Y-92573461D01*
X108246539Y-92409654D01*
X108117843Y-92217046D01*
X108117842Y-92217045D01*
X108029193Y-92003027D01*
X107984000Y-91775826D01*
X107984000Y-91544174D01*
X108029193Y-91316973D01*
X108117842Y-91102955D01*
X108160742Y-91038751D01*
X108246539Y-90910346D01*
X108410346Y-90746539D01*
X108602954Y-90617843D01*
X108602955Y-90617842D01*
X108816973Y-90529193D01*
X108968440Y-90499064D01*
X109044173Y-90484000D01*
X109275827Y-90484000D01*
X109351560Y-90499064D01*
G37*
G36*
X151766242Y-91353404D02*
G01*
X151803337Y-91364657D01*
X151837515Y-91382925D01*
X151867481Y-91407519D01*
X151892075Y-91437485D01*
X151910343Y-91471663D01*
X151921596Y-91508758D01*
X151926000Y-91553474D01*
X151926000Y-92446526D01*
X151921596Y-92491242D01*
X151910343Y-92528337D01*
X151892075Y-92562515D01*
X151867481Y-92592481D01*
X151837515Y-92617075D01*
X151803337Y-92635343D01*
X151766242Y-92646596D01*
X151721526Y-92651000D01*
X150278474Y-92651000D01*
X150233758Y-92646596D01*
X150196663Y-92635343D01*
X150162485Y-92617075D01*
X150132519Y-92592481D01*
X150107925Y-92562515D01*
X150089657Y-92528337D01*
X150078404Y-92491242D01*
X150074000Y-92446526D01*
X150074000Y-91553474D01*
X150078404Y-91508758D01*
X150089657Y-91471663D01*
X150107925Y-91437485D01*
X150132519Y-91407519D01*
X150162485Y-91382925D01*
X150196663Y-91364657D01*
X150233758Y-91353404D01*
X150278474Y-91349000D01*
X151721526Y-91349000D01*
X151766242Y-91353404D01*
G37*
G36*
X151338855Y-89352140D02*
G01*
X151402618Y-89358420D01*
X151493404Y-89385960D01*
X151525336Y-89395646D01*
X151638425Y-89456094D01*
X151737554Y-89537446D01*
X151818906Y-89636575D01*
X151879354Y-89749664D01*
X151879355Y-89749668D01*
X151916580Y-89872382D01*
X151929149Y-90000000D01*
X151916580Y-90127618D01*
X151889040Y-90218404D01*
X151879354Y-90250336D01*
X151818906Y-90363425D01*
X151737554Y-90462554D01*
X151638425Y-90543906D01*
X151525336Y-90604354D01*
X151493404Y-90614040D01*
X151402618Y-90641580D01*
X151338855Y-90647860D01*
X151306974Y-90651000D01*
X150693026Y-90651000D01*
X150661145Y-90647860D01*
X150597382Y-90641580D01*
X150506596Y-90614040D01*
X150474664Y-90604354D01*
X150361575Y-90543906D01*
X150262446Y-90462554D01*
X150181094Y-90363425D01*
X150120646Y-90250336D01*
X150110960Y-90218404D01*
X150083420Y-90127618D01*
X150070851Y-90000000D01*
X150083420Y-89872382D01*
X150120645Y-89749668D01*
X150120646Y-89749664D01*
X150181094Y-89636575D01*
X150262446Y-89537446D01*
X150361575Y-89456094D01*
X150474664Y-89395646D01*
X150506596Y-89385960D01*
X150597382Y-89358420D01*
X150661145Y-89352140D01*
X150693026Y-89349000D01*
X151306974Y-89349000D01*
X151338855Y-89352140D01*
G37*
G36*
X89031560Y-82879064D02*
G01*
X89183027Y-82909193D01*
X89397045Y-82997842D01*
X89397046Y-82997843D01*
X89589654Y-83126539D01*
X89753461Y-83290346D01*
X89839258Y-83418751D01*
X89882158Y-83482955D01*
X89970807Y-83696973D01*
X90016000Y-83924174D01*
X90016000Y-84155826D01*
X89970807Y-84383027D01*
X89882158Y-84597045D01*
X89882157Y-84597046D01*
X89753461Y-84789654D01*
X89589654Y-84953461D01*
X89461249Y-85039258D01*
X89397045Y-85082158D01*
X89183027Y-85170807D01*
X89031560Y-85200936D01*
X88955827Y-85216000D01*
X88724173Y-85216000D01*
X88648440Y-85200936D01*
X88496973Y-85170807D01*
X88282955Y-85082158D01*
X88218751Y-85039258D01*
X88090346Y-84953461D01*
X87926539Y-84789654D01*
X87797843Y-84597046D01*
X87797842Y-84597045D01*
X87709193Y-84383027D01*
X87664000Y-84155826D01*
X87664000Y-83924174D01*
X87709193Y-83696973D01*
X87797842Y-83482955D01*
X87840742Y-83418751D01*
X87926539Y-83290346D01*
X88090346Y-83126539D01*
X88282954Y-82997843D01*
X88282955Y-82997842D01*
X88496973Y-82909193D01*
X88648440Y-82879064D01*
X88724173Y-82864000D01*
X88955827Y-82864000D01*
X89031560Y-82879064D01*
G37*
G36*
X109351560Y-80339064D02*
G01*
X109503027Y-80369193D01*
X109717045Y-80457842D01*
X109717046Y-80457843D01*
X109909654Y-80586539D01*
X110073461Y-80750346D01*
X110159258Y-80878751D01*
X110202158Y-80942955D01*
X110290807Y-81156973D01*
X110336000Y-81384174D01*
X110336000Y-81615826D01*
X110290807Y-81843027D01*
X110202158Y-82057045D01*
X110202157Y-82057046D01*
X110073461Y-82249654D01*
X109909654Y-82413461D01*
X109781249Y-82499258D01*
X109717045Y-82542158D01*
X109503027Y-82630807D01*
X109351560Y-82660936D01*
X109275827Y-82676000D01*
X109044173Y-82676000D01*
X108968440Y-82660936D01*
X108816973Y-82630807D01*
X108602955Y-82542158D01*
X108538751Y-82499258D01*
X108410346Y-82413461D01*
X108246539Y-82249654D01*
X108117843Y-82057046D01*
X108117842Y-82057045D01*
X108029193Y-81843027D01*
X107984000Y-81615826D01*
X107984000Y-81384174D01*
X108029193Y-81156973D01*
X108117842Y-80942955D01*
X108160742Y-80878751D01*
X108246539Y-80750346D01*
X108410346Y-80586539D01*
X108602954Y-80457843D01*
X108602955Y-80457842D01*
X108816973Y-80369193D01*
X108968440Y-80339064D01*
X109044173Y-80324000D01*
X109275827Y-80324000D01*
X109351560Y-80339064D01*
G37*
G36*
X90016000Y-80136000D02*
G01*
X87664000Y-80136000D01*
X87664000Y-77784000D01*
X90016000Y-77784000D01*
X90016000Y-80136000D01*
G37*
G36*
X151766242Y-78353404D02*
G01*
X151803337Y-78364657D01*
X151837515Y-78382925D01*
X151867481Y-78407519D01*
X151892075Y-78437485D01*
X151910343Y-78471663D01*
X151921596Y-78508758D01*
X151926000Y-78553474D01*
X151926000Y-79446526D01*
X151921596Y-79491242D01*
X151910343Y-79528337D01*
X151892075Y-79562515D01*
X151867481Y-79592481D01*
X151837515Y-79617075D01*
X151803337Y-79635343D01*
X151766242Y-79646596D01*
X151721526Y-79651000D01*
X150278474Y-79651000D01*
X150233758Y-79646596D01*
X150196663Y-79635343D01*
X150162485Y-79617075D01*
X150132519Y-79592481D01*
X150107925Y-79562515D01*
X150089657Y-79528337D01*
X150078404Y-79491242D01*
X150074000Y-79446526D01*
X150074000Y-78553474D01*
X150078404Y-78508758D01*
X150089657Y-78471663D01*
X150107925Y-78437485D01*
X150132519Y-78407519D01*
X150162485Y-78382925D01*
X150196663Y-78364657D01*
X150233758Y-78353404D01*
X150278474Y-78349000D01*
X151721526Y-78349000D01*
X151766242Y-78353404D01*
G37*
G36*
X151338855Y-76352140D02*
G01*
X151402618Y-76358420D01*
X151493404Y-76385960D01*
X151525336Y-76395646D01*
X151638425Y-76456094D01*
X151737554Y-76537446D01*
X151818906Y-76636575D01*
X151879354Y-76749664D01*
X151879355Y-76749668D01*
X151916580Y-76872382D01*
X151929149Y-77000000D01*
X151916580Y-77127618D01*
X151889040Y-77218404D01*
X151879354Y-77250336D01*
X151818906Y-77363425D01*
X151737554Y-77462554D01*
X151638425Y-77543906D01*
X151525336Y-77604354D01*
X151493404Y-77614040D01*
X151402618Y-77641580D01*
X151338855Y-77647860D01*
X151306974Y-77651000D01*
X150693026Y-77651000D01*
X150661145Y-77647860D01*
X150597382Y-77641580D01*
X150506596Y-77614040D01*
X150474664Y-77604354D01*
X150361575Y-77543906D01*
X150262446Y-77462554D01*
X150181094Y-77363425D01*
X150120646Y-77250336D01*
X150110960Y-77218404D01*
X150083420Y-77127618D01*
X150070851Y-77000000D01*
X150083420Y-76872382D01*
X150120645Y-76749668D01*
X150120646Y-76749664D01*
X150181094Y-76636575D01*
X150262446Y-76537446D01*
X150361575Y-76456094D01*
X150474664Y-76395646D01*
X150506596Y-76385960D01*
X150597382Y-76358420D01*
X150661145Y-76352140D01*
X150693026Y-76349000D01*
X151306974Y-76349000D01*
X151338855Y-76352140D01*
G37*
G36*
X89031560Y-70179064D02*
G01*
X89183027Y-70209193D01*
X89397045Y-70297842D01*
X89397046Y-70297843D01*
X89589654Y-70426539D01*
X89753461Y-70590346D01*
X89839258Y-70718751D01*
X89882158Y-70782955D01*
X89970807Y-70996973D01*
X90016000Y-71224174D01*
X90016000Y-71455826D01*
X89970807Y-71683027D01*
X89882158Y-71897045D01*
X89882157Y-71897046D01*
X89753461Y-72089654D01*
X89589654Y-72253461D01*
X89461249Y-72339258D01*
X89397045Y-72382158D01*
X89183027Y-72470807D01*
X89031560Y-72500936D01*
X88955827Y-72516000D01*
X88724173Y-72516000D01*
X88648440Y-72500936D01*
X88496973Y-72470807D01*
X88282955Y-72382158D01*
X88218751Y-72339258D01*
X88090346Y-72253461D01*
X87926539Y-72089654D01*
X87797843Y-71897046D01*
X87797842Y-71897045D01*
X87709193Y-71683027D01*
X87664000Y-71455826D01*
X87664000Y-71224174D01*
X87709193Y-70996973D01*
X87797842Y-70782955D01*
X87840742Y-70718751D01*
X87926539Y-70590346D01*
X88090346Y-70426539D01*
X88282954Y-70297843D01*
X88282955Y-70297842D01*
X88496973Y-70209193D01*
X88648440Y-70179064D01*
X88724173Y-70164000D01*
X88955827Y-70164000D01*
X89031560Y-70179064D01*
G37*
G36*
X109351560Y-70179064D02*
G01*
X109503027Y-70209193D01*
X109717045Y-70297842D01*
X109717046Y-70297843D01*
X109909654Y-70426539D01*
X110073461Y-70590346D01*
X110159258Y-70718751D01*
X110202158Y-70782955D01*
X110290807Y-70996973D01*
X110336000Y-71224174D01*
X110336000Y-71455826D01*
X110290807Y-71683027D01*
X110202158Y-71897045D01*
X110202157Y-71897046D01*
X110073461Y-72089654D01*
X109909654Y-72253461D01*
X109781249Y-72339258D01*
X109717045Y-72382158D01*
X109503027Y-72470807D01*
X109351560Y-72500936D01*
X109275827Y-72516000D01*
X109044173Y-72516000D01*
X108968440Y-72500936D01*
X108816973Y-72470807D01*
X108602955Y-72382158D01*
X108538751Y-72339258D01*
X108410346Y-72253461D01*
X108246539Y-72089654D01*
X108117843Y-71897046D01*
X108117842Y-71897045D01*
X108029193Y-71683027D01*
X107984000Y-71455826D01*
X107984000Y-71224174D01*
X108029193Y-70996973D01*
X108117842Y-70782955D01*
X108160742Y-70718751D01*
X108246539Y-70590346D01*
X108410346Y-70426539D01*
X108602954Y-70297843D01*
X108602955Y-70297842D01*
X108816973Y-70209193D01*
X108968440Y-70179064D01*
X109044173Y-70164000D01*
X109275827Y-70164000D01*
X109351560Y-70179064D01*
G37*
G36*
X130248228Y-64181703D02*
G01*
X130403100Y-64245853D01*
X130542481Y-64338985D01*
X130661015Y-64457519D01*
X130754147Y-64596900D01*
X130818297Y-64751772D01*
X130851000Y-64916184D01*
X130851000Y-65083816D01*
X130818297Y-65248228D01*
X130754147Y-65403100D01*
X130661015Y-65542481D01*
X130542481Y-65661015D01*
X130403100Y-65754147D01*
X130248228Y-65818297D01*
X130083816Y-65851000D01*
X129916184Y-65851000D01*
X129751772Y-65818297D01*
X129596900Y-65754147D01*
X129457519Y-65661015D01*
X129338985Y-65542481D01*
X129245853Y-65403100D01*
X129181703Y-65248228D01*
X129149000Y-65083816D01*
X129149000Y-64916184D01*
X129181703Y-64751772D01*
X129245853Y-64596900D01*
X129338985Y-64457519D01*
X129457519Y-64338985D01*
X129596900Y-64245853D01*
X129751772Y-64181703D01*
X129916184Y-64149000D01*
X130083816Y-64149000D01*
X130248228Y-64181703D01*
G37*
G36*
X135248228Y-64181703D02*
G01*
X135403100Y-64245853D01*
X135542481Y-64338985D01*
X135661015Y-64457519D01*
X135754147Y-64596900D01*
X135818297Y-64751772D01*
X135851000Y-64916184D01*
X135851000Y-65083816D01*
X135818297Y-65248228D01*
X135754147Y-65403100D01*
X135661015Y-65542481D01*
X135542481Y-65661015D01*
X135403100Y-65754147D01*
X135248228Y-65818297D01*
X135083816Y-65851000D01*
X134916184Y-65851000D01*
X134751772Y-65818297D01*
X134596900Y-65754147D01*
X134457519Y-65661015D01*
X134338985Y-65542481D01*
X134245853Y-65403100D01*
X134181703Y-65248228D01*
X134149000Y-65083816D01*
X134149000Y-64916184D01*
X134181703Y-64751772D01*
X134245853Y-64596900D01*
X134338985Y-64457519D01*
X134457519Y-64338985D01*
X134596900Y-64245853D01*
X134751772Y-64181703D01*
X134916184Y-64149000D01*
X135083816Y-64149000D01*
X135248228Y-64181703D01*
G37*
G36*
X97603097Y-55754069D02*
G01*
X97706032Y-55764207D01*
X97904146Y-55824305D01*
X97904149Y-55824306D01*
X98000975Y-55876061D01*
X98086729Y-55921897D01*
X98246765Y-56053235D01*
X98378103Y-56213271D01*
X98423939Y-56299025D01*
X98475694Y-56395851D01*
X98475695Y-56395854D01*
X98535793Y-56593968D01*
X98556085Y-56800000D01*
X98535793Y-57006032D01*
X98475695Y-57204146D01*
X98475694Y-57204149D01*
X98423939Y-57300975D01*
X98378103Y-57386729D01*
X98246765Y-57546765D01*
X98086729Y-57678103D01*
X98000975Y-57723939D01*
X97904149Y-57775694D01*
X97904146Y-57775695D01*
X97706032Y-57835793D01*
X97603097Y-57845931D01*
X97551631Y-57851000D01*
X95448369Y-57851000D01*
X95396903Y-57845931D01*
X95293968Y-57835793D01*
X95095854Y-57775695D01*
X95095851Y-57775694D01*
X94999025Y-57723939D01*
X94913271Y-57678103D01*
X94753235Y-57546765D01*
X94621897Y-57386729D01*
X94576061Y-57300975D01*
X94524306Y-57204149D01*
X94524305Y-57204146D01*
X94464207Y-57006032D01*
X94443915Y-56800000D01*
X94464207Y-56593968D01*
X94524305Y-56395854D01*
X94524306Y-56395851D01*
X94576061Y-56299025D01*
X94621897Y-56213271D01*
X94753235Y-56053235D01*
X94913271Y-55921897D01*
X94999025Y-55876061D01*
X95095851Y-55824306D01*
X95095854Y-55824305D01*
X95293968Y-55764207D01*
X95396903Y-55754069D01*
X95448369Y-55749000D01*
X97551631Y-55749000D01*
X97603097Y-55754069D01*
G37*
G36*
X99706032Y-49964207D02*
G01*
X99904146Y-50024305D01*
X99904149Y-50024306D01*
X100000975Y-50076061D01*
X100086729Y-50121897D01*
X100246765Y-50253235D01*
X100378103Y-50413271D01*
X100423939Y-50499025D01*
X100475694Y-50595851D01*
X100475695Y-50595854D01*
X100535793Y-50793968D01*
X100551000Y-50948370D01*
X100551000Y-53051630D01*
X100535793Y-53206032D01*
X100475695Y-53404145D01*
X100475694Y-53404149D01*
X100423939Y-53500975D01*
X100378103Y-53586729D01*
X100246765Y-53746765D01*
X100086729Y-53878103D01*
X99970030Y-53940479D01*
X99904148Y-53975694D01*
X99904145Y-53975695D01*
X99706031Y-54035793D01*
X99500000Y-54056085D01*
X99293968Y-54035793D01*
X99095854Y-53975695D01*
X99095851Y-53975694D01*
X98999025Y-53923939D01*
X98913271Y-53878103D01*
X98753235Y-53746765D01*
X98621897Y-53586729D01*
X98524307Y-53404149D01*
X98524306Y-53404148D01*
X98524305Y-53404145D01*
X98464207Y-53206031D01*
X98449000Y-53051629D01*
X98449001Y-50948370D01*
X98464208Y-50793968D01*
X98524306Y-50595854D01*
X98524307Y-50595851D01*
X98576062Y-50499025D01*
X98621898Y-50413271D01*
X98753236Y-50253235D01*
X98913272Y-50121897D01*
X98999026Y-50076061D01*
X99095852Y-50024306D01*
X99095855Y-50024305D01*
X99293969Y-49964207D01*
X99500000Y-49943915D01*
X99706032Y-49964207D01*
G37*
G36*
X93606032Y-49964207D02*
G01*
X93804146Y-50024305D01*
X93804149Y-50024306D01*
X93900975Y-50076061D01*
X93986729Y-50121897D01*
X94146765Y-50253235D01*
X94278103Y-50413271D01*
X94323939Y-50499025D01*
X94375694Y-50595851D01*
X94375695Y-50595854D01*
X94435793Y-50793968D01*
X94451000Y-50948370D01*
X94451000Y-53051630D01*
X94435793Y-53206032D01*
X94375695Y-53404145D01*
X94375694Y-53404149D01*
X94323939Y-53500975D01*
X94278103Y-53586729D01*
X94146765Y-53746765D01*
X93986729Y-53878103D01*
X93870030Y-53940479D01*
X93804148Y-53975694D01*
X93804145Y-53975695D01*
X93606031Y-54035793D01*
X93400000Y-54056085D01*
X93193968Y-54035793D01*
X92995854Y-53975695D01*
X92995851Y-53975694D01*
X92899025Y-53923939D01*
X92813271Y-53878103D01*
X92653235Y-53746765D01*
X92521897Y-53586729D01*
X92424307Y-53404149D01*
X92424306Y-53404148D01*
X92424305Y-53404145D01*
X92364207Y-53206031D01*
X92349000Y-53051629D01*
X92349001Y-50948370D01*
X92364208Y-50793968D01*
X92424306Y-50595854D01*
X92424307Y-50595851D01*
X92476062Y-50499025D01*
X92521898Y-50413271D01*
X92653236Y-50253235D01*
X92813272Y-50121897D01*
X92899026Y-50076061D01*
X92995852Y-50024306D01*
X92995855Y-50024305D01*
X93193969Y-49964207D01*
X93400000Y-49943915D01*
X93606032Y-49964207D01*
G37*
M02*
