G04 #@! TF.GenerationSoftware,KiCad,Pcbnew,(5.1.5-0)*
G04 #@! TF.CreationDate,2021-01-24T11:48:24-07:00*
G04 #@! TF.ProjectId,power_cui,706f7765-725f-4637-9569-2e6b69636164,rev?*
G04 #@! TF.SameCoordinates,Original*
G04 #@! TF.FileFunction,Copper,L2,Bot*
G04 #@! TF.FilePolarity,Positive*
%FSLAX46Y46*%
G04 Gerber Fmt 4.6, Leading zero omitted, Abs format (unit mm)*
G04 Created by KiCad (PCBNEW (5.1.5-0)) date 2021-01-24 11:48:24*
%MOMM*%
%LPD*%
G04 APERTURE LIST*
%ADD10R,2.000000X1.500000*%
%ADD11O,2.000000X1.500000*%
%ADD12O,1.750000X1.200000*%
%ADD13C,0.100000*%
%ADD14C,1.600000*%
%ADD15O,2.000000X4.000000*%
%ADD16O,4.000000X2.000000*%
%ADD17R,2.250000X2.250000*%
%ADD18C,2.250000*%
%ADD19C,2.000000*%
%ADD20C,0.800000*%
%ADD21C,1.000000*%
%ADD22C,0.250000*%
%ADD23C,0.254000*%
G04 APERTURE END LIST*
D10*
X113600000Y-114000000D03*
D11*
X113600000Y-116540000D03*
X113600000Y-119080000D03*
X113600000Y-121620000D03*
D12*
X123000000Y-130000000D03*
G04 #@! TA.AperFunction,ComponentPad*
D13*
G36*
X123649505Y-131401204D02*
G01*
X123673773Y-131404804D01*
X123697572Y-131410765D01*
X123720671Y-131419030D01*
X123742850Y-131429520D01*
X123763893Y-131442132D01*
X123783599Y-131456747D01*
X123801777Y-131473223D01*
X123818253Y-131491401D01*
X123832868Y-131511107D01*
X123845480Y-131532150D01*
X123855970Y-131554329D01*
X123864235Y-131577428D01*
X123870196Y-131601227D01*
X123873796Y-131625495D01*
X123875000Y-131649999D01*
X123875000Y-132350001D01*
X123873796Y-132374505D01*
X123870196Y-132398773D01*
X123864235Y-132422572D01*
X123855970Y-132445671D01*
X123845480Y-132467850D01*
X123832868Y-132488893D01*
X123818253Y-132508599D01*
X123801777Y-132526777D01*
X123783599Y-132543253D01*
X123763893Y-132557868D01*
X123742850Y-132570480D01*
X123720671Y-132580970D01*
X123697572Y-132589235D01*
X123673773Y-132595196D01*
X123649505Y-132598796D01*
X123625001Y-132600000D01*
X122374999Y-132600000D01*
X122350495Y-132598796D01*
X122326227Y-132595196D01*
X122302428Y-132589235D01*
X122279329Y-132580970D01*
X122257150Y-132570480D01*
X122236107Y-132557868D01*
X122216401Y-132543253D01*
X122198223Y-132526777D01*
X122181747Y-132508599D01*
X122167132Y-132488893D01*
X122154520Y-132467850D01*
X122144030Y-132445671D01*
X122135765Y-132422572D01*
X122129804Y-132398773D01*
X122126204Y-132374505D01*
X122125000Y-132350001D01*
X122125000Y-131649999D01*
X122126204Y-131625495D01*
X122129804Y-131601227D01*
X122135765Y-131577428D01*
X122144030Y-131554329D01*
X122154520Y-131532150D01*
X122167132Y-131511107D01*
X122181747Y-131491401D01*
X122198223Y-131473223D01*
X122216401Y-131456747D01*
X122236107Y-131442132D01*
X122257150Y-131429520D01*
X122279329Y-131419030D01*
X122302428Y-131410765D01*
X122326227Y-131404804D01*
X122350495Y-131401204D01*
X122374999Y-131400000D01*
X123625001Y-131400000D01*
X123649505Y-131401204D01*
G37*
G04 #@! TD.AperFunction*
D14*
X135000000Y-65000000D03*
X130000000Y-65000000D03*
X128000000Y-117000000D03*
X133000000Y-117000000D03*
D15*
X99500000Y-52000000D03*
D16*
X96500000Y-56800000D03*
D15*
X93400000Y-52000000D03*
D12*
X151000000Y-90000000D03*
G04 #@! TA.AperFunction,ComponentPad*
D13*
G36*
X151649505Y-91401204D02*
G01*
X151673773Y-91404804D01*
X151697572Y-91410765D01*
X151720671Y-91419030D01*
X151742850Y-91429520D01*
X151763893Y-91442132D01*
X151783599Y-91456747D01*
X151801777Y-91473223D01*
X151818253Y-91491401D01*
X151832868Y-91511107D01*
X151845480Y-91532150D01*
X151855970Y-91554329D01*
X151864235Y-91577428D01*
X151870196Y-91601227D01*
X151873796Y-91625495D01*
X151875000Y-91649999D01*
X151875000Y-92350001D01*
X151873796Y-92374505D01*
X151870196Y-92398773D01*
X151864235Y-92422572D01*
X151855970Y-92445671D01*
X151845480Y-92467850D01*
X151832868Y-92488893D01*
X151818253Y-92508599D01*
X151801777Y-92526777D01*
X151783599Y-92543253D01*
X151763893Y-92557868D01*
X151742850Y-92570480D01*
X151720671Y-92580970D01*
X151697572Y-92589235D01*
X151673773Y-92595196D01*
X151649505Y-92598796D01*
X151625001Y-92600000D01*
X150374999Y-92600000D01*
X150350495Y-92598796D01*
X150326227Y-92595196D01*
X150302428Y-92589235D01*
X150279329Y-92580970D01*
X150257150Y-92570480D01*
X150236107Y-92557868D01*
X150216401Y-92543253D01*
X150198223Y-92526777D01*
X150181747Y-92508599D01*
X150167132Y-92488893D01*
X150154520Y-92467850D01*
X150144030Y-92445671D01*
X150135765Y-92422572D01*
X150129804Y-92398773D01*
X150126204Y-92374505D01*
X150125000Y-92350001D01*
X150125000Y-91649999D01*
X150126204Y-91625495D01*
X150129804Y-91601227D01*
X150135765Y-91577428D01*
X150144030Y-91554329D01*
X150154520Y-91532150D01*
X150167132Y-91511107D01*
X150181747Y-91491401D01*
X150198223Y-91473223D01*
X150216401Y-91456747D01*
X150236107Y-91442132D01*
X150257150Y-91429520D01*
X150279329Y-91419030D01*
X150302428Y-91410765D01*
X150326227Y-91404804D01*
X150350495Y-91401204D01*
X150374999Y-91400000D01*
X151625001Y-91400000D01*
X151649505Y-91401204D01*
G37*
G04 #@! TD.AperFunction*
D12*
X152000000Y-122000000D03*
G04 #@! TA.AperFunction,ComponentPad*
D13*
G36*
X152649505Y-119401204D02*
G01*
X152673773Y-119404804D01*
X152697572Y-119410765D01*
X152720671Y-119419030D01*
X152742850Y-119429520D01*
X152763893Y-119442132D01*
X152783599Y-119456747D01*
X152801777Y-119473223D01*
X152818253Y-119491401D01*
X152832868Y-119511107D01*
X152845480Y-119532150D01*
X152855970Y-119554329D01*
X152864235Y-119577428D01*
X152870196Y-119601227D01*
X152873796Y-119625495D01*
X152875000Y-119649999D01*
X152875000Y-120350001D01*
X152873796Y-120374505D01*
X152870196Y-120398773D01*
X152864235Y-120422572D01*
X152855970Y-120445671D01*
X152845480Y-120467850D01*
X152832868Y-120488893D01*
X152818253Y-120508599D01*
X152801777Y-120526777D01*
X152783599Y-120543253D01*
X152763893Y-120557868D01*
X152742850Y-120570480D01*
X152720671Y-120580970D01*
X152697572Y-120589235D01*
X152673773Y-120595196D01*
X152649505Y-120598796D01*
X152625001Y-120600000D01*
X151374999Y-120600000D01*
X151350495Y-120598796D01*
X151326227Y-120595196D01*
X151302428Y-120589235D01*
X151279329Y-120580970D01*
X151257150Y-120570480D01*
X151236107Y-120557868D01*
X151216401Y-120543253D01*
X151198223Y-120526777D01*
X151181747Y-120508599D01*
X151167132Y-120488893D01*
X151154520Y-120467850D01*
X151144030Y-120445671D01*
X151135765Y-120422572D01*
X151129804Y-120398773D01*
X151126204Y-120374505D01*
X151125000Y-120350001D01*
X151125000Y-119649999D01*
X151126204Y-119625495D01*
X151129804Y-119601227D01*
X151135765Y-119577428D01*
X151144030Y-119554329D01*
X151154520Y-119532150D01*
X151167132Y-119511107D01*
X151181747Y-119491401D01*
X151198223Y-119473223D01*
X151216401Y-119456747D01*
X151236107Y-119442132D01*
X151257150Y-119429520D01*
X151279329Y-119419030D01*
X151302428Y-119410765D01*
X151326227Y-119404804D01*
X151350495Y-119401204D01*
X151374999Y-119400000D01*
X152625001Y-119400000D01*
X152649505Y-119401204D01*
G37*
G04 #@! TD.AperFunction*
D12*
X151000000Y-77000000D03*
G04 #@! TA.AperFunction,ComponentPad*
D13*
G36*
X151649505Y-78401204D02*
G01*
X151673773Y-78404804D01*
X151697572Y-78410765D01*
X151720671Y-78419030D01*
X151742850Y-78429520D01*
X151763893Y-78442132D01*
X151783599Y-78456747D01*
X151801777Y-78473223D01*
X151818253Y-78491401D01*
X151832868Y-78511107D01*
X151845480Y-78532150D01*
X151855970Y-78554329D01*
X151864235Y-78577428D01*
X151870196Y-78601227D01*
X151873796Y-78625495D01*
X151875000Y-78649999D01*
X151875000Y-79350001D01*
X151873796Y-79374505D01*
X151870196Y-79398773D01*
X151864235Y-79422572D01*
X151855970Y-79445671D01*
X151845480Y-79467850D01*
X151832868Y-79488893D01*
X151818253Y-79508599D01*
X151801777Y-79526777D01*
X151783599Y-79543253D01*
X151763893Y-79557868D01*
X151742850Y-79570480D01*
X151720671Y-79580970D01*
X151697572Y-79589235D01*
X151673773Y-79595196D01*
X151649505Y-79598796D01*
X151625001Y-79600000D01*
X150374999Y-79600000D01*
X150350495Y-79598796D01*
X150326227Y-79595196D01*
X150302428Y-79589235D01*
X150279329Y-79580970D01*
X150257150Y-79570480D01*
X150236107Y-79557868D01*
X150216401Y-79543253D01*
X150198223Y-79526777D01*
X150181747Y-79508599D01*
X150167132Y-79488893D01*
X150154520Y-79467850D01*
X150144030Y-79445671D01*
X150135765Y-79422572D01*
X150129804Y-79398773D01*
X150126204Y-79374505D01*
X150125000Y-79350001D01*
X150125000Y-78649999D01*
X150126204Y-78625495D01*
X150129804Y-78601227D01*
X150135765Y-78577428D01*
X150144030Y-78554329D01*
X150154520Y-78532150D01*
X150167132Y-78511107D01*
X150181747Y-78491401D01*
X150198223Y-78473223D01*
X150216401Y-78456747D01*
X150236107Y-78442132D01*
X150257150Y-78429520D01*
X150279329Y-78419030D01*
X150302428Y-78410765D01*
X150326227Y-78404804D01*
X150350495Y-78401204D01*
X150374999Y-78400000D01*
X151625001Y-78400000D01*
X151649505Y-78401204D01*
G37*
G04 #@! TD.AperFunction*
D12*
X152000000Y-114000000D03*
G04 #@! TA.AperFunction,ComponentPad*
D13*
G36*
X152649505Y-111401204D02*
G01*
X152673773Y-111404804D01*
X152697572Y-111410765D01*
X152720671Y-111419030D01*
X152742850Y-111429520D01*
X152763893Y-111442132D01*
X152783599Y-111456747D01*
X152801777Y-111473223D01*
X152818253Y-111491401D01*
X152832868Y-111511107D01*
X152845480Y-111532150D01*
X152855970Y-111554329D01*
X152864235Y-111577428D01*
X152870196Y-111601227D01*
X152873796Y-111625495D01*
X152875000Y-111649999D01*
X152875000Y-112350001D01*
X152873796Y-112374505D01*
X152870196Y-112398773D01*
X152864235Y-112422572D01*
X152855970Y-112445671D01*
X152845480Y-112467850D01*
X152832868Y-112488893D01*
X152818253Y-112508599D01*
X152801777Y-112526777D01*
X152783599Y-112543253D01*
X152763893Y-112557868D01*
X152742850Y-112570480D01*
X152720671Y-112580970D01*
X152697572Y-112589235D01*
X152673773Y-112595196D01*
X152649505Y-112598796D01*
X152625001Y-112600000D01*
X151374999Y-112600000D01*
X151350495Y-112598796D01*
X151326227Y-112595196D01*
X151302428Y-112589235D01*
X151279329Y-112580970D01*
X151257150Y-112570480D01*
X151236107Y-112557868D01*
X151216401Y-112543253D01*
X151198223Y-112526777D01*
X151181747Y-112508599D01*
X151167132Y-112488893D01*
X151154520Y-112467850D01*
X151144030Y-112445671D01*
X151135765Y-112422572D01*
X151129804Y-112398773D01*
X151126204Y-112374505D01*
X151125000Y-112350001D01*
X151125000Y-111649999D01*
X151126204Y-111625495D01*
X151129804Y-111601227D01*
X151135765Y-111577428D01*
X151144030Y-111554329D01*
X151154520Y-111532150D01*
X151167132Y-111511107D01*
X151181747Y-111491401D01*
X151198223Y-111473223D01*
X151216401Y-111456747D01*
X151236107Y-111442132D01*
X151257150Y-111429520D01*
X151279329Y-111419030D01*
X151302428Y-111410765D01*
X151326227Y-111404804D01*
X151350495Y-111401204D01*
X151374999Y-111400000D01*
X152625001Y-111400000D01*
X152649505Y-111401204D01*
G37*
G04 #@! TD.AperFunction*
D12*
X152000000Y-100000000D03*
G04 #@! TA.AperFunction,ComponentPad*
D13*
G36*
X152649505Y-97401204D02*
G01*
X152673773Y-97404804D01*
X152697572Y-97410765D01*
X152720671Y-97419030D01*
X152742850Y-97429520D01*
X152763893Y-97442132D01*
X152783599Y-97456747D01*
X152801777Y-97473223D01*
X152818253Y-97491401D01*
X152832868Y-97511107D01*
X152845480Y-97532150D01*
X152855970Y-97554329D01*
X152864235Y-97577428D01*
X152870196Y-97601227D01*
X152873796Y-97625495D01*
X152875000Y-97649999D01*
X152875000Y-98350001D01*
X152873796Y-98374505D01*
X152870196Y-98398773D01*
X152864235Y-98422572D01*
X152855970Y-98445671D01*
X152845480Y-98467850D01*
X152832868Y-98488893D01*
X152818253Y-98508599D01*
X152801777Y-98526777D01*
X152783599Y-98543253D01*
X152763893Y-98557868D01*
X152742850Y-98570480D01*
X152720671Y-98580970D01*
X152697572Y-98589235D01*
X152673773Y-98595196D01*
X152649505Y-98598796D01*
X152625001Y-98600000D01*
X151374999Y-98600000D01*
X151350495Y-98598796D01*
X151326227Y-98595196D01*
X151302428Y-98589235D01*
X151279329Y-98580970D01*
X151257150Y-98570480D01*
X151236107Y-98557868D01*
X151216401Y-98543253D01*
X151198223Y-98526777D01*
X151181747Y-98508599D01*
X151167132Y-98488893D01*
X151154520Y-98467850D01*
X151144030Y-98445671D01*
X151135765Y-98422572D01*
X151129804Y-98398773D01*
X151126204Y-98374505D01*
X151125000Y-98350001D01*
X151125000Y-97649999D01*
X151126204Y-97625495D01*
X151129804Y-97601227D01*
X151135765Y-97577428D01*
X151144030Y-97554329D01*
X151154520Y-97532150D01*
X151167132Y-97511107D01*
X151181747Y-97491401D01*
X151198223Y-97473223D01*
X151216401Y-97456747D01*
X151236107Y-97442132D01*
X151257150Y-97429520D01*
X151279329Y-97419030D01*
X151302428Y-97410765D01*
X151326227Y-97404804D01*
X151350495Y-97401204D01*
X151374999Y-97400000D01*
X152625001Y-97400000D01*
X152649505Y-97401204D01*
G37*
G04 #@! TD.AperFunction*
D17*
X88840000Y-78960000D03*
D18*
X88840000Y-84040000D03*
X109160000Y-91660000D03*
X109160000Y-81500000D03*
X109160000Y-71340000D03*
X88840000Y-71340000D03*
D19*
X92200000Y-105900000D03*
X102200000Y-108000000D03*
D20*
X91000000Y-98000000D03*
X91000000Y-96000000D03*
X153675000Y-81800000D03*
X148700000Y-124800000D03*
X153300000Y-59600000D03*
X136500000Y-106700000D03*
X145000000Y-127200000D03*
X136400000Y-92000000D03*
X100000000Y-123000000D03*
D21*
X90965000Y-78960000D02*
X88840000Y-78960000D01*
X91000000Y-78995000D02*
X90965000Y-78960000D01*
X91000000Y-98000000D02*
X91000000Y-96000000D01*
X91000000Y-79000000D02*
X91000000Y-78995000D01*
X91000000Y-96000000D02*
X91000000Y-79000000D01*
X93400000Y-54500000D02*
X91000000Y-56900000D01*
X91000000Y-56900000D02*
X91000000Y-79000000D01*
X93400000Y-52000000D02*
X93400000Y-54500000D01*
D22*
X151000000Y-79125000D02*
X151000000Y-79000000D01*
X153675000Y-81800000D02*
X151000000Y-79125000D01*
X150783161Y-124800000D02*
X154400000Y-121183161D01*
X148700000Y-124800000D02*
X150783161Y-124800000D01*
X154400000Y-60700000D02*
X153300000Y-59600000D01*
X154400000Y-121183161D02*
X154400000Y-60700000D01*
D21*
X133000000Y-110200000D02*
X133000000Y-117000000D01*
X136500000Y-106700000D02*
X133000000Y-110200000D01*
X134800000Y-117000000D02*
X133000000Y-117000000D01*
X145000000Y-127200000D02*
X134800000Y-117000000D01*
D22*
X142400000Y-98000000D02*
X152000000Y-98000000D01*
X136400000Y-92000000D02*
X142400000Y-98000000D01*
D21*
X99500000Y-122500000D02*
X100000000Y-123000000D01*
X99500000Y-52000000D02*
X99500000Y-122500000D01*
D23*
G36*
X154340001Y-59565199D02*
G01*
X154335000Y-59560199D01*
X154335000Y-59498061D01*
X154295226Y-59298102D01*
X154217205Y-59109744D01*
X154103937Y-58940226D01*
X153959774Y-58796063D01*
X153790256Y-58682795D01*
X153601898Y-58604774D01*
X153401939Y-58565000D01*
X153198061Y-58565000D01*
X152998102Y-58604774D01*
X152809744Y-58682795D01*
X152640226Y-58796063D01*
X152496063Y-58940226D01*
X152382795Y-59109744D01*
X152304774Y-59298102D01*
X152265000Y-59498061D01*
X152265000Y-59701939D01*
X152304774Y-59901898D01*
X152382795Y-60090256D01*
X152496063Y-60259774D01*
X152640226Y-60403937D01*
X152809744Y-60517205D01*
X152998102Y-60595226D01*
X153198061Y-60635000D01*
X153260199Y-60635000D01*
X153640001Y-61014803D01*
X153640000Y-120868359D01*
X153259489Y-121248870D01*
X153238078Y-121216526D01*
X153113594Y-121090967D01*
X153118387Y-121088405D01*
X153252962Y-120977962D01*
X153363405Y-120843387D01*
X153445472Y-120689851D01*
X153496008Y-120523255D01*
X153513072Y-120350001D01*
X153513072Y-119649999D01*
X153496008Y-119476745D01*
X153445472Y-119310149D01*
X153363405Y-119156613D01*
X153252962Y-119022038D01*
X153118387Y-118911595D01*
X152964851Y-118829528D01*
X152798255Y-118778992D01*
X152625001Y-118761928D01*
X151374999Y-118761928D01*
X151201745Y-118778992D01*
X151035149Y-118829528D01*
X150881613Y-118911595D01*
X150747038Y-119022038D01*
X150636595Y-119156613D01*
X150554528Y-119310149D01*
X150503992Y-119476745D01*
X150486928Y-119649999D01*
X150486928Y-120350001D01*
X150503992Y-120523255D01*
X150554528Y-120689851D01*
X150636595Y-120843387D01*
X150747038Y-120977962D01*
X150881613Y-121088405D01*
X150886406Y-121090967D01*
X150761922Y-121216526D01*
X150627579Y-121419467D01*
X150535409Y-121644718D01*
X150531538Y-121682391D01*
X150656269Y-121873000D01*
X151873000Y-121873000D01*
X151873000Y-121853000D01*
X152127000Y-121853000D01*
X152127000Y-121873000D01*
X152147000Y-121873000D01*
X152147000Y-122127000D01*
X152127000Y-122127000D01*
X152127000Y-122147000D01*
X151873000Y-122147000D01*
X151873000Y-122127000D01*
X150656269Y-122127000D01*
X150531538Y-122317609D01*
X150535409Y-122355282D01*
X150627579Y-122580533D01*
X150761922Y-122783474D01*
X150933275Y-122956307D01*
X151135054Y-123092390D01*
X151332985Y-123175375D01*
X150468360Y-124040000D01*
X149403711Y-124040000D01*
X149359774Y-123996063D01*
X149190256Y-123882795D01*
X149001898Y-123804774D01*
X148801939Y-123765000D01*
X148598061Y-123765000D01*
X148398102Y-123804774D01*
X148209744Y-123882795D01*
X148040226Y-123996063D01*
X147896063Y-124140226D01*
X147782795Y-124309744D01*
X147704774Y-124498102D01*
X147665000Y-124698061D01*
X147665000Y-124901939D01*
X147704774Y-125101898D01*
X147782795Y-125290256D01*
X147896063Y-125459774D01*
X148040226Y-125603937D01*
X148209744Y-125717205D01*
X148398102Y-125795226D01*
X148598061Y-125835000D01*
X148801939Y-125835000D01*
X149001898Y-125795226D01*
X149190256Y-125717205D01*
X149359774Y-125603937D01*
X149403711Y-125560000D01*
X150745839Y-125560000D01*
X150783161Y-125563676D01*
X150820483Y-125560000D01*
X150820494Y-125560000D01*
X150932147Y-125549003D01*
X151075408Y-125505546D01*
X151207437Y-125434974D01*
X151323162Y-125340001D01*
X151346965Y-125310997D01*
X154340000Y-122317963D01*
X154340000Y-139340000D01*
X119127000Y-139340000D01*
X119127000Y-130000000D01*
X121484025Y-130000000D01*
X121507870Y-130242102D01*
X121578489Y-130474901D01*
X121693167Y-130689449D01*
X121847498Y-130877502D01*
X121886111Y-130909191D01*
X121881613Y-130911595D01*
X121747038Y-131022038D01*
X121636595Y-131156613D01*
X121554528Y-131310149D01*
X121503992Y-131476745D01*
X121486928Y-131649999D01*
X121486928Y-132350001D01*
X121503992Y-132523255D01*
X121554528Y-132689851D01*
X121636595Y-132843387D01*
X121747038Y-132977962D01*
X121881613Y-133088405D01*
X122035149Y-133170472D01*
X122201745Y-133221008D01*
X122374999Y-133238072D01*
X123625001Y-133238072D01*
X123798255Y-133221008D01*
X123964851Y-133170472D01*
X124118387Y-133088405D01*
X124252962Y-132977962D01*
X124363405Y-132843387D01*
X124445472Y-132689851D01*
X124496008Y-132523255D01*
X124513072Y-132350001D01*
X124513072Y-131649999D01*
X124496008Y-131476745D01*
X124445472Y-131310149D01*
X124363405Y-131156613D01*
X124252962Y-131022038D01*
X124118387Y-130911595D01*
X124113889Y-130909191D01*
X124152502Y-130877502D01*
X124306833Y-130689449D01*
X124421511Y-130474901D01*
X124492130Y-130242102D01*
X124515975Y-130000000D01*
X124492130Y-129757898D01*
X124421511Y-129525099D01*
X124306833Y-129310551D01*
X124152502Y-129122498D01*
X123964449Y-128968167D01*
X123749901Y-128853489D01*
X123517102Y-128782870D01*
X123335665Y-128765000D01*
X122664335Y-128765000D01*
X122482898Y-128782870D01*
X122250099Y-128853489D01*
X122035551Y-128968167D01*
X121847498Y-129122498D01*
X121693167Y-129310551D01*
X121578489Y-129525099D01*
X121507870Y-129757898D01*
X121484025Y-130000000D01*
X119127000Y-130000000D01*
X119127000Y-117992702D01*
X127186903Y-117992702D01*
X127258486Y-118236671D01*
X127513996Y-118357571D01*
X127788184Y-118426300D01*
X128070512Y-118440217D01*
X128350130Y-118398787D01*
X128616292Y-118303603D01*
X128741514Y-118236671D01*
X128813097Y-117992702D01*
X128000000Y-117179605D01*
X127186903Y-117992702D01*
X119127000Y-117992702D01*
X119127000Y-117070512D01*
X126559783Y-117070512D01*
X126601213Y-117350130D01*
X126696397Y-117616292D01*
X126763329Y-117741514D01*
X127007298Y-117813097D01*
X127820395Y-117000000D01*
X128179605Y-117000000D01*
X128992702Y-117813097D01*
X129236671Y-117741514D01*
X129357571Y-117486004D01*
X129426300Y-117211816D01*
X129440217Y-116929488D01*
X129429724Y-116858665D01*
X131565000Y-116858665D01*
X131565000Y-117141335D01*
X131620147Y-117418574D01*
X131728320Y-117679727D01*
X131885363Y-117914759D01*
X132085241Y-118114637D01*
X132320273Y-118271680D01*
X132581426Y-118379853D01*
X132858665Y-118435000D01*
X133141335Y-118435000D01*
X133418574Y-118379853D01*
X133679727Y-118271680D01*
X133884284Y-118135000D01*
X134329869Y-118135000D01*
X144236856Y-128041988D01*
X144366376Y-128148283D01*
X144563552Y-128253675D01*
X144777500Y-128318576D01*
X144999999Y-128340490D01*
X145222498Y-128318576D01*
X145436446Y-128253675D01*
X145633622Y-128148283D01*
X145806448Y-128006448D01*
X145948283Y-127833622D01*
X146053675Y-127636446D01*
X146118576Y-127422498D01*
X146140490Y-127199999D01*
X146118576Y-126977500D01*
X146053675Y-126763552D01*
X145948283Y-126566376D01*
X145841988Y-126436856D01*
X135641996Y-116236865D01*
X135606449Y-116193551D01*
X135433623Y-116051716D01*
X135236447Y-115946324D01*
X135022499Y-115881423D01*
X134855752Y-115865000D01*
X134855751Y-115865000D01*
X134800000Y-115859509D01*
X134744249Y-115865000D01*
X134135000Y-115865000D01*
X134135000Y-114317609D01*
X150531538Y-114317609D01*
X150535409Y-114355282D01*
X150627579Y-114580533D01*
X150761922Y-114783474D01*
X150933275Y-114956307D01*
X151135054Y-115092390D01*
X151359504Y-115186493D01*
X151598000Y-115235000D01*
X151873000Y-115235000D01*
X151873000Y-114127000D01*
X152127000Y-114127000D01*
X152127000Y-115235000D01*
X152402000Y-115235000D01*
X152640496Y-115186493D01*
X152864946Y-115092390D01*
X153066725Y-114956307D01*
X153238078Y-114783474D01*
X153372421Y-114580533D01*
X153464591Y-114355282D01*
X153468462Y-114317609D01*
X153343731Y-114127000D01*
X152127000Y-114127000D01*
X151873000Y-114127000D01*
X150656269Y-114127000D01*
X150531538Y-114317609D01*
X134135000Y-114317609D01*
X134135000Y-111649999D01*
X150486928Y-111649999D01*
X150486928Y-112350001D01*
X150503992Y-112523255D01*
X150554528Y-112689851D01*
X150636595Y-112843387D01*
X150747038Y-112977962D01*
X150881613Y-113088405D01*
X150886406Y-113090967D01*
X150761922Y-113216526D01*
X150627579Y-113419467D01*
X150535409Y-113644718D01*
X150531538Y-113682391D01*
X150656269Y-113873000D01*
X151873000Y-113873000D01*
X151873000Y-113853000D01*
X152127000Y-113853000D01*
X152127000Y-113873000D01*
X153343731Y-113873000D01*
X153468462Y-113682391D01*
X153464591Y-113644718D01*
X153372421Y-113419467D01*
X153238078Y-113216526D01*
X153113594Y-113090967D01*
X153118387Y-113088405D01*
X153252962Y-112977962D01*
X153363405Y-112843387D01*
X153445472Y-112689851D01*
X153496008Y-112523255D01*
X153513072Y-112350001D01*
X153513072Y-111649999D01*
X153496008Y-111476745D01*
X153445472Y-111310149D01*
X153363405Y-111156613D01*
X153252962Y-111022038D01*
X153118387Y-110911595D01*
X152964851Y-110829528D01*
X152798255Y-110778992D01*
X152625001Y-110761928D01*
X151374999Y-110761928D01*
X151201745Y-110778992D01*
X151035149Y-110829528D01*
X150881613Y-110911595D01*
X150747038Y-111022038D01*
X150636595Y-111156613D01*
X150554528Y-111310149D01*
X150503992Y-111476745D01*
X150486928Y-111649999D01*
X134135000Y-111649999D01*
X134135000Y-110670131D01*
X137341988Y-107463144D01*
X137448283Y-107333624D01*
X137553675Y-107136448D01*
X137618576Y-106922500D01*
X137640490Y-106700001D01*
X137618576Y-106477502D01*
X137553675Y-106263554D01*
X137448283Y-106066378D01*
X137306448Y-105893552D01*
X137133622Y-105751717D01*
X136936446Y-105646325D01*
X136722498Y-105581424D01*
X136499999Y-105559510D01*
X136277500Y-105581424D01*
X136063552Y-105646325D01*
X135866376Y-105751717D01*
X135736856Y-105858012D01*
X132236865Y-109358004D01*
X132193551Y-109393551D01*
X132051716Y-109566377D01*
X131946325Y-109763553D01*
X131946324Y-109763554D01*
X131881423Y-109977502D01*
X131859509Y-110200000D01*
X131865000Y-110255752D01*
X131865001Y-116115715D01*
X131728320Y-116320273D01*
X131620147Y-116581426D01*
X131565000Y-116858665D01*
X129429724Y-116858665D01*
X129398787Y-116649870D01*
X129303603Y-116383708D01*
X129236671Y-116258486D01*
X128992702Y-116186903D01*
X128179605Y-117000000D01*
X127820395Y-117000000D01*
X127007298Y-116186903D01*
X126763329Y-116258486D01*
X126642429Y-116513996D01*
X126573700Y-116788184D01*
X126559783Y-117070512D01*
X119127000Y-117070512D01*
X119127000Y-116007298D01*
X127186903Y-116007298D01*
X128000000Y-116820395D01*
X128813097Y-116007298D01*
X128741514Y-115763329D01*
X128486004Y-115642429D01*
X128211816Y-115573700D01*
X127929488Y-115559783D01*
X127649870Y-115601213D01*
X127383708Y-115696397D01*
X127258486Y-115763329D01*
X127186903Y-116007298D01*
X119127000Y-116007298D01*
X119127000Y-100317609D01*
X150531538Y-100317609D01*
X150535409Y-100355282D01*
X150627579Y-100580533D01*
X150761922Y-100783474D01*
X150933275Y-100956307D01*
X151135054Y-101092390D01*
X151359504Y-101186493D01*
X151598000Y-101235000D01*
X151873000Y-101235000D01*
X151873000Y-100127000D01*
X152127000Y-100127000D01*
X152127000Y-101235000D01*
X152402000Y-101235000D01*
X152640496Y-101186493D01*
X152864946Y-101092390D01*
X153066725Y-100956307D01*
X153238078Y-100783474D01*
X153372421Y-100580533D01*
X153464591Y-100355282D01*
X153468462Y-100317609D01*
X153343731Y-100127000D01*
X152127000Y-100127000D01*
X151873000Y-100127000D01*
X150656269Y-100127000D01*
X150531538Y-100317609D01*
X119127000Y-100317609D01*
X119127000Y-91898061D01*
X135365000Y-91898061D01*
X135365000Y-92101939D01*
X135404774Y-92301898D01*
X135482795Y-92490256D01*
X135596063Y-92659774D01*
X135740226Y-92803937D01*
X135909744Y-92917205D01*
X136098102Y-92995226D01*
X136298061Y-93035000D01*
X136360199Y-93035000D01*
X141836205Y-98511008D01*
X141859999Y-98540001D01*
X141888992Y-98563795D01*
X141888996Y-98563799D01*
X141959685Y-98621811D01*
X141975724Y-98634974D01*
X142107753Y-98705546D01*
X142251014Y-98749003D01*
X142362667Y-98760000D01*
X142362676Y-98760000D01*
X142399999Y-98763676D01*
X142437322Y-98760000D01*
X150592024Y-98760000D01*
X150636595Y-98843387D01*
X150747038Y-98977962D01*
X150881613Y-99088405D01*
X150886406Y-99090967D01*
X150761922Y-99216526D01*
X150627579Y-99419467D01*
X150535409Y-99644718D01*
X150531538Y-99682391D01*
X150656269Y-99873000D01*
X151873000Y-99873000D01*
X151873000Y-99853000D01*
X152127000Y-99853000D01*
X152127000Y-99873000D01*
X153343731Y-99873000D01*
X153468462Y-99682391D01*
X153464591Y-99644718D01*
X153372421Y-99419467D01*
X153238078Y-99216526D01*
X153113594Y-99090967D01*
X153118387Y-99088405D01*
X153252962Y-98977962D01*
X153363405Y-98843387D01*
X153445472Y-98689851D01*
X153496008Y-98523255D01*
X153513072Y-98350001D01*
X153513072Y-97649999D01*
X153496008Y-97476745D01*
X153445472Y-97310149D01*
X153363405Y-97156613D01*
X153252962Y-97022038D01*
X153118387Y-96911595D01*
X152964851Y-96829528D01*
X152798255Y-96778992D01*
X152625001Y-96761928D01*
X151374999Y-96761928D01*
X151201745Y-96778992D01*
X151035149Y-96829528D01*
X150881613Y-96911595D01*
X150747038Y-97022038D01*
X150636595Y-97156613D01*
X150592024Y-97240000D01*
X142714803Y-97240000D01*
X137435000Y-91960199D01*
X137435000Y-91898061D01*
X137395226Y-91698102D01*
X137375301Y-91649999D01*
X149486928Y-91649999D01*
X149486928Y-92350001D01*
X149503992Y-92523255D01*
X149554528Y-92689851D01*
X149636595Y-92843387D01*
X149747038Y-92977962D01*
X149881613Y-93088405D01*
X150035149Y-93170472D01*
X150201745Y-93221008D01*
X150374999Y-93238072D01*
X151625001Y-93238072D01*
X151798255Y-93221008D01*
X151964851Y-93170472D01*
X152118387Y-93088405D01*
X152252962Y-92977962D01*
X152363405Y-92843387D01*
X152445472Y-92689851D01*
X152496008Y-92523255D01*
X152513072Y-92350001D01*
X152513072Y-91649999D01*
X152496008Y-91476745D01*
X152445472Y-91310149D01*
X152363405Y-91156613D01*
X152252962Y-91022038D01*
X152118387Y-90911595D01*
X152113594Y-90909033D01*
X152238078Y-90783474D01*
X152372421Y-90580533D01*
X152464591Y-90355282D01*
X152468462Y-90317609D01*
X152343731Y-90127000D01*
X151127000Y-90127000D01*
X151127000Y-90147000D01*
X150873000Y-90147000D01*
X150873000Y-90127000D01*
X149656269Y-90127000D01*
X149531538Y-90317609D01*
X149535409Y-90355282D01*
X149627579Y-90580533D01*
X149761922Y-90783474D01*
X149886406Y-90909033D01*
X149881613Y-90911595D01*
X149747038Y-91022038D01*
X149636595Y-91156613D01*
X149554528Y-91310149D01*
X149503992Y-91476745D01*
X149486928Y-91649999D01*
X137375301Y-91649999D01*
X137317205Y-91509744D01*
X137203937Y-91340226D01*
X137059774Y-91196063D01*
X136890256Y-91082795D01*
X136701898Y-91004774D01*
X136501939Y-90965000D01*
X136298061Y-90965000D01*
X136098102Y-91004774D01*
X135909744Y-91082795D01*
X135740226Y-91196063D01*
X135596063Y-91340226D01*
X135482795Y-91509744D01*
X135404774Y-91698102D01*
X135365000Y-91898061D01*
X119127000Y-91898061D01*
X119127000Y-89682391D01*
X149531538Y-89682391D01*
X149656269Y-89873000D01*
X150873000Y-89873000D01*
X150873000Y-88765000D01*
X151127000Y-88765000D01*
X151127000Y-89873000D01*
X152343731Y-89873000D01*
X152468462Y-89682391D01*
X152464591Y-89644718D01*
X152372421Y-89419467D01*
X152238078Y-89216526D01*
X152066725Y-89043693D01*
X151864946Y-88907610D01*
X151640496Y-88813507D01*
X151402000Y-88765000D01*
X151127000Y-88765000D01*
X150873000Y-88765000D01*
X150598000Y-88765000D01*
X150359504Y-88813507D01*
X150135054Y-88907610D01*
X149933275Y-89043693D01*
X149761922Y-89216526D01*
X149627579Y-89419467D01*
X149535409Y-89644718D01*
X149531538Y-89682391D01*
X119127000Y-89682391D01*
X119127000Y-79600000D01*
X149486928Y-79600000D01*
X149499188Y-79724482D01*
X149535498Y-79844180D01*
X149594463Y-79954494D01*
X149673815Y-80051185D01*
X149770506Y-80130537D01*
X149880820Y-80189502D01*
X150000518Y-80225812D01*
X150125000Y-80238072D01*
X150714250Y-80235000D01*
X150873000Y-80076250D01*
X150873000Y-79127000D01*
X151127000Y-79127000D01*
X151127000Y-80076250D01*
X151285750Y-80235000D01*
X151875000Y-80238072D01*
X151999482Y-80225812D01*
X152119180Y-80189502D01*
X152229494Y-80130537D01*
X152326185Y-80051185D01*
X152405537Y-79954494D01*
X152464502Y-79844180D01*
X152500812Y-79724482D01*
X152513072Y-79600000D01*
X152510000Y-79285750D01*
X152351250Y-79127000D01*
X151127000Y-79127000D01*
X150873000Y-79127000D01*
X149648750Y-79127000D01*
X149490000Y-79285750D01*
X149486928Y-79600000D01*
X119127000Y-79600000D01*
X119127000Y-77000000D01*
X149484025Y-77000000D01*
X149507870Y-77242102D01*
X149578489Y-77474901D01*
X149693167Y-77689449D01*
X149819436Y-77843309D01*
X149770506Y-77869463D01*
X149673815Y-77948815D01*
X149594463Y-78045506D01*
X149535498Y-78155820D01*
X149499188Y-78275518D01*
X149486928Y-78400000D01*
X149490000Y-78714250D01*
X149648750Y-78873000D01*
X150873000Y-78873000D01*
X150873000Y-78853000D01*
X151127000Y-78853000D01*
X151127000Y-78873000D01*
X152351250Y-78873000D01*
X152510000Y-78714250D01*
X152513072Y-78400000D01*
X152500812Y-78275518D01*
X152464502Y-78155820D01*
X152405537Y-78045506D01*
X152326185Y-77948815D01*
X152229494Y-77869463D01*
X152180564Y-77843309D01*
X152306833Y-77689449D01*
X152421511Y-77474901D01*
X152492130Y-77242102D01*
X152515975Y-77000000D01*
X152492130Y-76757898D01*
X152421511Y-76525099D01*
X152306833Y-76310551D01*
X152152502Y-76122498D01*
X151964449Y-75968167D01*
X151749901Y-75853489D01*
X151517102Y-75782870D01*
X151335665Y-75765000D01*
X150664335Y-75765000D01*
X150482898Y-75782870D01*
X150250099Y-75853489D01*
X150035551Y-75968167D01*
X149847498Y-76122498D01*
X149693167Y-76310551D01*
X149578489Y-76525099D01*
X149507870Y-76757898D01*
X149484025Y-77000000D01*
X119127000Y-77000000D01*
X119127000Y-65992702D01*
X129186903Y-65992702D01*
X129258486Y-66236671D01*
X129513996Y-66357571D01*
X129788184Y-66426300D01*
X130070512Y-66440217D01*
X130350130Y-66398787D01*
X130616292Y-66303603D01*
X130741514Y-66236671D01*
X130813097Y-65992702D01*
X130000000Y-65179605D01*
X129186903Y-65992702D01*
X119127000Y-65992702D01*
X119127000Y-65070512D01*
X128559783Y-65070512D01*
X128601213Y-65350130D01*
X128696397Y-65616292D01*
X128763329Y-65741514D01*
X129007298Y-65813097D01*
X129820395Y-65000000D01*
X130179605Y-65000000D01*
X130992702Y-65813097D01*
X131236671Y-65741514D01*
X131357571Y-65486004D01*
X131426300Y-65211816D01*
X131440217Y-64929488D01*
X131429724Y-64858665D01*
X133565000Y-64858665D01*
X133565000Y-65141335D01*
X133620147Y-65418574D01*
X133728320Y-65679727D01*
X133885363Y-65914759D01*
X134085241Y-66114637D01*
X134320273Y-66271680D01*
X134581426Y-66379853D01*
X134858665Y-66435000D01*
X135141335Y-66435000D01*
X135418574Y-66379853D01*
X135679727Y-66271680D01*
X135914759Y-66114637D01*
X136114637Y-65914759D01*
X136271680Y-65679727D01*
X136379853Y-65418574D01*
X136435000Y-65141335D01*
X136435000Y-64858665D01*
X136379853Y-64581426D01*
X136271680Y-64320273D01*
X136114637Y-64085241D01*
X135914759Y-63885363D01*
X135679727Y-63728320D01*
X135418574Y-63620147D01*
X135141335Y-63565000D01*
X134858665Y-63565000D01*
X134581426Y-63620147D01*
X134320273Y-63728320D01*
X134085241Y-63885363D01*
X133885363Y-64085241D01*
X133728320Y-64320273D01*
X133620147Y-64581426D01*
X133565000Y-64858665D01*
X131429724Y-64858665D01*
X131398787Y-64649870D01*
X131303603Y-64383708D01*
X131236671Y-64258486D01*
X130992702Y-64186903D01*
X130179605Y-65000000D01*
X129820395Y-65000000D01*
X129007298Y-64186903D01*
X128763329Y-64258486D01*
X128642429Y-64513996D01*
X128573700Y-64788184D01*
X128559783Y-65070512D01*
X119127000Y-65070512D01*
X119127000Y-64007298D01*
X129186903Y-64007298D01*
X130000000Y-64820395D01*
X130813097Y-64007298D01*
X130741514Y-63763329D01*
X130486004Y-63642429D01*
X130211816Y-63573700D01*
X129929488Y-63559783D01*
X129649870Y-63601213D01*
X129383708Y-63696397D01*
X129258486Y-63763329D01*
X129186903Y-64007298D01*
X119127000Y-64007298D01*
X119127000Y-40660000D01*
X154340001Y-40660000D01*
X154340001Y-59565199D01*
G37*
X154340001Y-59565199D02*
X154335000Y-59560199D01*
X154335000Y-59498061D01*
X154295226Y-59298102D01*
X154217205Y-59109744D01*
X154103937Y-58940226D01*
X153959774Y-58796063D01*
X153790256Y-58682795D01*
X153601898Y-58604774D01*
X153401939Y-58565000D01*
X153198061Y-58565000D01*
X152998102Y-58604774D01*
X152809744Y-58682795D01*
X152640226Y-58796063D01*
X152496063Y-58940226D01*
X152382795Y-59109744D01*
X152304774Y-59298102D01*
X152265000Y-59498061D01*
X152265000Y-59701939D01*
X152304774Y-59901898D01*
X152382795Y-60090256D01*
X152496063Y-60259774D01*
X152640226Y-60403937D01*
X152809744Y-60517205D01*
X152998102Y-60595226D01*
X153198061Y-60635000D01*
X153260199Y-60635000D01*
X153640001Y-61014803D01*
X153640000Y-120868359D01*
X153259489Y-121248870D01*
X153238078Y-121216526D01*
X153113594Y-121090967D01*
X153118387Y-121088405D01*
X153252962Y-120977962D01*
X153363405Y-120843387D01*
X153445472Y-120689851D01*
X153496008Y-120523255D01*
X153513072Y-120350001D01*
X153513072Y-119649999D01*
X153496008Y-119476745D01*
X153445472Y-119310149D01*
X153363405Y-119156613D01*
X153252962Y-119022038D01*
X153118387Y-118911595D01*
X152964851Y-118829528D01*
X152798255Y-118778992D01*
X152625001Y-118761928D01*
X151374999Y-118761928D01*
X151201745Y-118778992D01*
X151035149Y-118829528D01*
X150881613Y-118911595D01*
X150747038Y-119022038D01*
X150636595Y-119156613D01*
X150554528Y-119310149D01*
X150503992Y-119476745D01*
X150486928Y-119649999D01*
X150486928Y-120350001D01*
X150503992Y-120523255D01*
X150554528Y-120689851D01*
X150636595Y-120843387D01*
X150747038Y-120977962D01*
X150881613Y-121088405D01*
X150886406Y-121090967D01*
X150761922Y-121216526D01*
X150627579Y-121419467D01*
X150535409Y-121644718D01*
X150531538Y-121682391D01*
X150656269Y-121873000D01*
X151873000Y-121873000D01*
X151873000Y-121853000D01*
X152127000Y-121853000D01*
X152127000Y-121873000D01*
X152147000Y-121873000D01*
X152147000Y-122127000D01*
X152127000Y-122127000D01*
X152127000Y-122147000D01*
X151873000Y-122147000D01*
X151873000Y-122127000D01*
X150656269Y-122127000D01*
X150531538Y-122317609D01*
X150535409Y-122355282D01*
X150627579Y-122580533D01*
X150761922Y-122783474D01*
X150933275Y-122956307D01*
X151135054Y-123092390D01*
X151332985Y-123175375D01*
X150468360Y-124040000D01*
X149403711Y-124040000D01*
X149359774Y-123996063D01*
X149190256Y-123882795D01*
X149001898Y-123804774D01*
X148801939Y-123765000D01*
X148598061Y-123765000D01*
X148398102Y-123804774D01*
X148209744Y-123882795D01*
X148040226Y-123996063D01*
X147896063Y-124140226D01*
X147782795Y-124309744D01*
X147704774Y-124498102D01*
X147665000Y-124698061D01*
X147665000Y-124901939D01*
X147704774Y-125101898D01*
X147782795Y-125290256D01*
X147896063Y-125459774D01*
X148040226Y-125603937D01*
X148209744Y-125717205D01*
X148398102Y-125795226D01*
X148598061Y-125835000D01*
X148801939Y-125835000D01*
X149001898Y-125795226D01*
X149190256Y-125717205D01*
X149359774Y-125603937D01*
X149403711Y-125560000D01*
X150745839Y-125560000D01*
X150783161Y-125563676D01*
X150820483Y-125560000D01*
X150820494Y-125560000D01*
X150932147Y-125549003D01*
X151075408Y-125505546D01*
X151207437Y-125434974D01*
X151323162Y-125340001D01*
X151346965Y-125310997D01*
X154340000Y-122317963D01*
X154340000Y-139340000D01*
X119127000Y-139340000D01*
X119127000Y-130000000D01*
X121484025Y-130000000D01*
X121507870Y-130242102D01*
X121578489Y-130474901D01*
X121693167Y-130689449D01*
X121847498Y-130877502D01*
X121886111Y-130909191D01*
X121881613Y-130911595D01*
X121747038Y-131022038D01*
X121636595Y-131156613D01*
X121554528Y-131310149D01*
X121503992Y-131476745D01*
X121486928Y-131649999D01*
X121486928Y-132350001D01*
X121503992Y-132523255D01*
X121554528Y-132689851D01*
X121636595Y-132843387D01*
X121747038Y-132977962D01*
X121881613Y-133088405D01*
X122035149Y-133170472D01*
X122201745Y-133221008D01*
X122374999Y-133238072D01*
X123625001Y-133238072D01*
X123798255Y-133221008D01*
X123964851Y-133170472D01*
X124118387Y-133088405D01*
X124252962Y-132977962D01*
X124363405Y-132843387D01*
X124445472Y-132689851D01*
X124496008Y-132523255D01*
X124513072Y-132350001D01*
X124513072Y-131649999D01*
X124496008Y-131476745D01*
X124445472Y-131310149D01*
X124363405Y-131156613D01*
X124252962Y-131022038D01*
X124118387Y-130911595D01*
X124113889Y-130909191D01*
X124152502Y-130877502D01*
X124306833Y-130689449D01*
X124421511Y-130474901D01*
X124492130Y-130242102D01*
X124515975Y-130000000D01*
X124492130Y-129757898D01*
X124421511Y-129525099D01*
X124306833Y-129310551D01*
X124152502Y-129122498D01*
X123964449Y-128968167D01*
X123749901Y-128853489D01*
X123517102Y-128782870D01*
X123335665Y-128765000D01*
X122664335Y-128765000D01*
X122482898Y-128782870D01*
X122250099Y-128853489D01*
X122035551Y-128968167D01*
X121847498Y-129122498D01*
X121693167Y-129310551D01*
X121578489Y-129525099D01*
X121507870Y-129757898D01*
X121484025Y-130000000D01*
X119127000Y-130000000D01*
X119127000Y-117992702D01*
X127186903Y-117992702D01*
X127258486Y-118236671D01*
X127513996Y-118357571D01*
X127788184Y-118426300D01*
X128070512Y-118440217D01*
X128350130Y-118398787D01*
X128616292Y-118303603D01*
X128741514Y-118236671D01*
X128813097Y-117992702D01*
X128000000Y-117179605D01*
X127186903Y-117992702D01*
X119127000Y-117992702D01*
X119127000Y-117070512D01*
X126559783Y-117070512D01*
X126601213Y-117350130D01*
X126696397Y-117616292D01*
X126763329Y-117741514D01*
X127007298Y-117813097D01*
X127820395Y-117000000D01*
X128179605Y-117000000D01*
X128992702Y-117813097D01*
X129236671Y-117741514D01*
X129357571Y-117486004D01*
X129426300Y-117211816D01*
X129440217Y-116929488D01*
X129429724Y-116858665D01*
X131565000Y-116858665D01*
X131565000Y-117141335D01*
X131620147Y-117418574D01*
X131728320Y-117679727D01*
X131885363Y-117914759D01*
X132085241Y-118114637D01*
X132320273Y-118271680D01*
X132581426Y-118379853D01*
X132858665Y-118435000D01*
X133141335Y-118435000D01*
X133418574Y-118379853D01*
X133679727Y-118271680D01*
X133884284Y-118135000D01*
X134329869Y-118135000D01*
X144236856Y-128041988D01*
X144366376Y-128148283D01*
X144563552Y-128253675D01*
X144777500Y-128318576D01*
X144999999Y-128340490D01*
X145222498Y-128318576D01*
X145436446Y-128253675D01*
X145633622Y-128148283D01*
X145806448Y-128006448D01*
X145948283Y-127833622D01*
X146053675Y-127636446D01*
X146118576Y-127422498D01*
X146140490Y-127199999D01*
X146118576Y-126977500D01*
X146053675Y-126763552D01*
X145948283Y-126566376D01*
X145841988Y-126436856D01*
X135641996Y-116236865D01*
X135606449Y-116193551D01*
X135433623Y-116051716D01*
X135236447Y-115946324D01*
X135022499Y-115881423D01*
X134855752Y-115865000D01*
X134855751Y-115865000D01*
X134800000Y-115859509D01*
X134744249Y-115865000D01*
X134135000Y-115865000D01*
X134135000Y-114317609D01*
X150531538Y-114317609D01*
X150535409Y-114355282D01*
X150627579Y-114580533D01*
X150761922Y-114783474D01*
X150933275Y-114956307D01*
X151135054Y-115092390D01*
X151359504Y-115186493D01*
X151598000Y-115235000D01*
X151873000Y-115235000D01*
X151873000Y-114127000D01*
X152127000Y-114127000D01*
X152127000Y-115235000D01*
X152402000Y-115235000D01*
X152640496Y-115186493D01*
X152864946Y-115092390D01*
X153066725Y-114956307D01*
X153238078Y-114783474D01*
X153372421Y-114580533D01*
X153464591Y-114355282D01*
X153468462Y-114317609D01*
X153343731Y-114127000D01*
X152127000Y-114127000D01*
X151873000Y-114127000D01*
X150656269Y-114127000D01*
X150531538Y-114317609D01*
X134135000Y-114317609D01*
X134135000Y-111649999D01*
X150486928Y-111649999D01*
X150486928Y-112350001D01*
X150503992Y-112523255D01*
X150554528Y-112689851D01*
X150636595Y-112843387D01*
X150747038Y-112977962D01*
X150881613Y-113088405D01*
X150886406Y-113090967D01*
X150761922Y-113216526D01*
X150627579Y-113419467D01*
X150535409Y-113644718D01*
X150531538Y-113682391D01*
X150656269Y-113873000D01*
X151873000Y-113873000D01*
X151873000Y-113853000D01*
X152127000Y-113853000D01*
X152127000Y-113873000D01*
X153343731Y-113873000D01*
X153468462Y-113682391D01*
X153464591Y-113644718D01*
X153372421Y-113419467D01*
X153238078Y-113216526D01*
X153113594Y-113090967D01*
X153118387Y-113088405D01*
X153252962Y-112977962D01*
X153363405Y-112843387D01*
X153445472Y-112689851D01*
X153496008Y-112523255D01*
X153513072Y-112350001D01*
X153513072Y-111649999D01*
X153496008Y-111476745D01*
X153445472Y-111310149D01*
X153363405Y-111156613D01*
X153252962Y-111022038D01*
X153118387Y-110911595D01*
X152964851Y-110829528D01*
X152798255Y-110778992D01*
X152625001Y-110761928D01*
X151374999Y-110761928D01*
X151201745Y-110778992D01*
X151035149Y-110829528D01*
X150881613Y-110911595D01*
X150747038Y-111022038D01*
X150636595Y-111156613D01*
X150554528Y-111310149D01*
X150503992Y-111476745D01*
X150486928Y-111649999D01*
X134135000Y-111649999D01*
X134135000Y-110670131D01*
X137341988Y-107463144D01*
X137448283Y-107333624D01*
X137553675Y-107136448D01*
X137618576Y-106922500D01*
X137640490Y-106700001D01*
X137618576Y-106477502D01*
X137553675Y-106263554D01*
X137448283Y-106066378D01*
X137306448Y-105893552D01*
X137133622Y-105751717D01*
X136936446Y-105646325D01*
X136722498Y-105581424D01*
X136499999Y-105559510D01*
X136277500Y-105581424D01*
X136063552Y-105646325D01*
X135866376Y-105751717D01*
X135736856Y-105858012D01*
X132236865Y-109358004D01*
X132193551Y-109393551D01*
X132051716Y-109566377D01*
X131946325Y-109763553D01*
X131946324Y-109763554D01*
X131881423Y-109977502D01*
X131859509Y-110200000D01*
X131865000Y-110255752D01*
X131865001Y-116115715D01*
X131728320Y-116320273D01*
X131620147Y-116581426D01*
X131565000Y-116858665D01*
X129429724Y-116858665D01*
X129398787Y-116649870D01*
X129303603Y-116383708D01*
X129236671Y-116258486D01*
X128992702Y-116186903D01*
X128179605Y-117000000D01*
X127820395Y-117000000D01*
X127007298Y-116186903D01*
X126763329Y-116258486D01*
X126642429Y-116513996D01*
X126573700Y-116788184D01*
X126559783Y-117070512D01*
X119127000Y-117070512D01*
X119127000Y-116007298D01*
X127186903Y-116007298D01*
X128000000Y-116820395D01*
X128813097Y-116007298D01*
X128741514Y-115763329D01*
X128486004Y-115642429D01*
X128211816Y-115573700D01*
X127929488Y-115559783D01*
X127649870Y-115601213D01*
X127383708Y-115696397D01*
X127258486Y-115763329D01*
X127186903Y-116007298D01*
X119127000Y-116007298D01*
X119127000Y-100317609D01*
X150531538Y-100317609D01*
X150535409Y-100355282D01*
X150627579Y-100580533D01*
X150761922Y-100783474D01*
X150933275Y-100956307D01*
X151135054Y-101092390D01*
X151359504Y-101186493D01*
X151598000Y-101235000D01*
X151873000Y-101235000D01*
X151873000Y-100127000D01*
X152127000Y-100127000D01*
X152127000Y-101235000D01*
X152402000Y-101235000D01*
X152640496Y-101186493D01*
X152864946Y-101092390D01*
X153066725Y-100956307D01*
X153238078Y-100783474D01*
X153372421Y-100580533D01*
X153464591Y-100355282D01*
X153468462Y-100317609D01*
X153343731Y-100127000D01*
X152127000Y-100127000D01*
X151873000Y-100127000D01*
X150656269Y-100127000D01*
X150531538Y-100317609D01*
X119127000Y-100317609D01*
X119127000Y-91898061D01*
X135365000Y-91898061D01*
X135365000Y-92101939D01*
X135404774Y-92301898D01*
X135482795Y-92490256D01*
X135596063Y-92659774D01*
X135740226Y-92803937D01*
X135909744Y-92917205D01*
X136098102Y-92995226D01*
X136298061Y-93035000D01*
X136360199Y-93035000D01*
X141836205Y-98511008D01*
X141859999Y-98540001D01*
X141888992Y-98563795D01*
X141888996Y-98563799D01*
X141959685Y-98621811D01*
X141975724Y-98634974D01*
X142107753Y-98705546D01*
X142251014Y-98749003D01*
X142362667Y-98760000D01*
X142362676Y-98760000D01*
X142399999Y-98763676D01*
X142437322Y-98760000D01*
X150592024Y-98760000D01*
X150636595Y-98843387D01*
X150747038Y-98977962D01*
X150881613Y-99088405D01*
X150886406Y-99090967D01*
X150761922Y-99216526D01*
X150627579Y-99419467D01*
X150535409Y-99644718D01*
X150531538Y-99682391D01*
X150656269Y-99873000D01*
X151873000Y-99873000D01*
X151873000Y-99853000D01*
X152127000Y-99853000D01*
X152127000Y-99873000D01*
X153343731Y-99873000D01*
X153468462Y-99682391D01*
X153464591Y-99644718D01*
X153372421Y-99419467D01*
X153238078Y-99216526D01*
X153113594Y-99090967D01*
X153118387Y-99088405D01*
X153252962Y-98977962D01*
X153363405Y-98843387D01*
X153445472Y-98689851D01*
X153496008Y-98523255D01*
X153513072Y-98350001D01*
X153513072Y-97649999D01*
X153496008Y-97476745D01*
X153445472Y-97310149D01*
X153363405Y-97156613D01*
X153252962Y-97022038D01*
X153118387Y-96911595D01*
X152964851Y-96829528D01*
X152798255Y-96778992D01*
X152625001Y-96761928D01*
X151374999Y-96761928D01*
X151201745Y-96778992D01*
X151035149Y-96829528D01*
X150881613Y-96911595D01*
X150747038Y-97022038D01*
X150636595Y-97156613D01*
X150592024Y-97240000D01*
X142714803Y-97240000D01*
X137435000Y-91960199D01*
X137435000Y-91898061D01*
X137395226Y-91698102D01*
X137375301Y-91649999D01*
X149486928Y-91649999D01*
X149486928Y-92350001D01*
X149503992Y-92523255D01*
X149554528Y-92689851D01*
X149636595Y-92843387D01*
X149747038Y-92977962D01*
X149881613Y-93088405D01*
X150035149Y-93170472D01*
X150201745Y-93221008D01*
X150374999Y-93238072D01*
X151625001Y-93238072D01*
X151798255Y-93221008D01*
X151964851Y-93170472D01*
X152118387Y-93088405D01*
X152252962Y-92977962D01*
X152363405Y-92843387D01*
X152445472Y-92689851D01*
X152496008Y-92523255D01*
X152513072Y-92350001D01*
X152513072Y-91649999D01*
X152496008Y-91476745D01*
X152445472Y-91310149D01*
X152363405Y-91156613D01*
X152252962Y-91022038D01*
X152118387Y-90911595D01*
X152113594Y-90909033D01*
X152238078Y-90783474D01*
X152372421Y-90580533D01*
X152464591Y-90355282D01*
X152468462Y-90317609D01*
X152343731Y-90127000D01*
X151127000Y-90127000D01*
X151127000Y-90147000D01*
X150873000Y-90147000D01*
X150873000Y-90127000D01*
X149656269Y-90127000D01*
X149531538Y-90317609D01*
X149535409Y-90355282D01*
X149627579Y-90580533D01*
X149761922Y-90783474D01*
X149886406Y-90909033D01*
X149881613Y-90911595D01*
X149747038Y-91022038D01*
X149636595Y-91156613D01*
X149554528Y-91310149D01*
X149503992Y-91476745D01*
X149486928Y-91649999D01*
X137375301Y-91649999D01*
X137317205Y-91509744D01*
X137203937Y-91340226D01*
X137059774Y-91196063D01*
X136890256Y-91082795D01*
X136701898Y-91004774D01*
X136501939Y-90965000D01*
X136298061Y-90965000D01*
X136098102Y-91004774D01*
X135909744Y-91082795D01*
X135740226Y-91196063D01*
X135596063Y-91340226D01*
X135482795Y-91509744D01*
X135404774Y-91698102D01*
X135365000Y-91898061D01*
X119127000Y-91898061D01*
X119127000Y-89682391D01*
X149531538Y-89682391D01*
X149656269Y-89873000D01*
X150873000Y-89873000D01*
X150873000Y-88765000D01*
X151127000Y-88765000D01*
X151127000Y-89873000D01*
X152343731Y-89873000D01*
X152468462Y-89682391D01*
X152464591Y-89644718D01*
X152372421Y-89419467D01*
X152238078Y-89216526D01*
X152066725Y-89043693D01*
X151864946Y-88907610D01*
X151640496Y-88813507D01*
X151402000Y-88765000D01*
X151127000Y-88765000D01*
X150873000Y-88765000D01*
X150598000Y-88765000D01*
X150359504Y-88813507D01*
X150135054Y-88907610D01*
X149933275Y-89043693D01*
X149761922Y-89216526D01*
X149627579Y-89419467D01*
X149535409Y-89644718D01*
X149531538Y-89682391D01*
X119127000Y-89682391D01*
X119127000Y-79600000D01*
X149486928Y-79600000D01*
X149499188Y-79724482D01*
X149535498Y-79844180D01*
X149594463Y-79954494D01*
X149673815Y-80051185D01*
X149770506Y-80130537D01*
X149880820Y-80189502D01*
X150000518Y-80225812D01*
X150125000Y-80238072D01*
X150714250Y-80235000D01*
X150873000Y-80076250D01*
X150873000Y-79127000D01*
X151127000Y-79127000D01*
X151127000Y-80076250D01*
X151285750Y-80235000D01*
X151875000Y-80238072D01*
X151999482Y-80225812D01*
X152119180Y-80189502D01*
X152229494Y-80130537D01*
X152326185Y-80051185D01*
X152405537Y-79954494D01*
X152464502Y-79844180D01*
X152500812Y-79724482D01*
X152513072Y-79600000D01*
X152510000Y-79285750D01*
X152351250Y-79127000D01*
X151127000Y-79127000D01*
X150873000Y-79127000D01*
X149648750Y-79127000D01*
X149490000Y-79285750D01*
X149486928Y-79600000D01*
X119127000Y-79600000D01*
X119127000Y-77000000D01*
X149484025Y-77000000D01*
X149507870Y-77242102D01*
X149578489Y-77474901D01*
X149693167Y-77689449D01*
X149819436Y-77843309D01*
X149770506Y-77869463D01*
X149673815Y-77948815D01*
X149594463Y-78045506D01*
X149535498Y-78155820D01*
X149499188Y-78275518D01*
X149486928Y-78400000D01*
X149490000Y-78714250D01*
X149648750Y-78873000D01*
X150873000Y-78873000D01*
X150873000Y-78853000D01*
X151127000Y-78853000D01*
X151127000Y-78873000D01*
X152351250Y-78873000D01*
X152510000Y-78714250D01*
X152513072Y-78400000D01*
X152500812Y-78275518D01*
X152464502Y-78155820D01*
X152405537Y-78045506D01*
X152326185Y-77948815D01*
X152229494Y-77869463D01*
X152180564Y-77843309D01*
X152306833Y-77689449D01*
X152421511Y-77474901D01*
X152492130Y-77242102D01*
X152515975Y-77000000D01*
X152492130Y-76757898D01*
X152421511Y-76525099D01*
X152306833Y-76310551D01*
X152152502Y-76122498D01*
X151964449Y-75968167D01*
X151749901Y-75853489D01*
X151517102Y-75782870D01*
X151335665Y-75765000D01*
X150664335Y-75765000D01*
X150482898Y-75782870D01*
X150250099Y-75853489D01*
X150035551Y-75968167D01*
X149847498Y-76122498D01*
X149693167Y-76310551D01*
X149578489Y-76525099D01*
X149507870Y-76757898D01*
X149484025Y-77000000D01*
X119127000Y-77000000D01*
X119127000Y-65992702D01*
X129186903Y-65992702D01*
X129258486Y-66236671D01*
X129513996Y-66357571D01*
X129788184Y-66426300D01*
X130070512Y-66440217D01*
X130350130Y-66398787D01*
X130616292Y-66303603D01*
X130741514Y-66236671D01*
X130813097Y-65992702D01*
X130000000Y-65179605D01*
X129186903Y-65992702D01*
X119127000Y-65992702D01*
X119127000Y-65070512D01*
X128559783Y-65070512D01*
X128601213Y-65350130D01*
X128696397Y-65616292D01*
X128763329Y-65741514D01*
X129007298Y-65813097D01*
X129820395Y-65000000D01*
X130179605Y-65000000D01*
X130992702Y-65813097D01*
X131236671Y-65741514D01*
X131357571Y-65486004D01*
X131426300Y-65211816D01*
X131440217Y-64929488D01*
X131429724Y-64858665D01*
X133565000Y-64858665D01*
X133565000Y-65141335D01*
X133620147Y-65418574D01*
X133728320Y-65679727D01*
X133885363Y-65914759D01*
X134085241Y-66114637D01*
X134320273Y-66271680D01*
X134581426Y-66379853D01*
X134858665Y-66435000D01*
X135141335Y-66435000D01*
X135418574Y-66379853D01*
X135679727Y-66271680D01*
X135914759Y-66114637D01*
X136114637Y-65914759D01*
X136271680Y-65679727D01*
X136379853Y-65418574D01*
X136435000Y-65141335D01*
X136435000Y-64858665D01*
X136379853Y-64581426D01*
X136271680Y-64320273D01*
X136114637Y-64085241D01*
X135914759Y-63885363D01*
X135679727Y-63728320D01*
X135418574Y-63620147D01*
X135141335Y-63565000D01*
X134858665Y-63565000D01*
X134581426Y-63620147D01*
X134320273Y-63728320D01*
X134085241Y-63885363D01*
X133885363Y-64085241D01*
X133728320Y-64320273D01*
X133620147Y-64581426D01*
X133565000Y-64858665D01*
X131429724Y-64858665D01*
X131398787Y-64649870D01*
X131303603Y-64383708D01*
X131236671Y-64258486D01*
X130992702Y-64186903D01*
X130179605Y-65000000D01*
X129820395Y-65000000D01*
X129007298Y-64186903D01*
X128763329Y-64258486D01*
X128642429Y-64513996D01*
X128573700Y-64788184D01*
X128559783Y-65070512D01*
X119127000Y-65070512D01*
X119127000Y-64007298D01*
X129186903Y-64007298D01*
X130000000Y-64820395D01*
X130813097Y-64007298D01*
X130741514Y-63763329D01*
X130486004Y-63642429D01*
X130211816Y-63573700D01*
X129929488Y-63559783D01*
X129649870Y-63601213D01*
X129383708Y-63696397D01*
X129258486Y-63763329D01*
X129186903Y-64007298D01*
X119127000Y-64007298D01*
X119127000Y-40660000D01*
X154340001Y-40660000D01*
X154340001Y-59565199D01*
M02*
