G04 #@! TF.GenerationSoftware,KiCad,Pcbnew,(5.1.5-0)*
G04 #@! TF.CreationDate,2021-01-10T19:51:38-07:00*
G04 #@! TF.ProjectId,switch_board,73776974-6368-45f6-926f-6172642e6b69,rev?*
G04 #@! TF.SameCoordinates,Original*
G04 #@! TF.FileFunction,Paste,Top*
G04 #@! TF.FilePolarity,Positive*
%FSLAX46Y46*%
G04 Gerber Fmt 4.6, Leading zero omitted, Abs format (unit mm)*
G04 Created by KiCad (PCBNEW (5.1.5-0)) date 2021-01-10 19:51:38*
%MOMM*%
%LPD*%
G04 APERTURE LIST*
%ADD10C,0.100000*%
%ADD11R,0.900000X0.800000*%
G04 APERTURE END LIST*
D10*
G36*
X132799505Y-108201204D02*
G01*
X132823773Y-108204804D01*
X132847572Y-108210765D01*
X132870671Y-108219030D01*
X132892850Y-108229520D01*
X132913893Y-108242132D01*
X132933599Y-108256747D01*
X132951777Y-108273223D01*
X132968253Y-108291401D01*
X132982868Y-108311107D01*
X132995480Y-108332150D01*
X133005970Y-108354329D01*
X133014235Y-108377428D01*
X133020196Y-108401227D01*
X133023796Y-108425495D01*
X133025000Y-108449999D01*
X133025000Y-109150001D01*
X133023796Y-109174505D01*
X133020196Y-109198773D01*
X133014235Y-109222572D01*
X133005970Y-109245671D01*
X132995480Y-109267850D01*
X132982868Y-109288893D01*
X132968253Y-109308599D01*
X132951777Y-109326777D01*
X132933599Y-109343253D01*
X132913893Y-109357868D01*
X132892850Y-109370480D01*
X132870671Y-109380970D01*
X132847572Y-109389235D01*
X132823773Y-109395196D01*
X132799505Y-109398796D01*
X132775001Y-109400000D01*
X131474999Y-109400000D01*
X131450495Y-109398796D01*
X131426227Y-109395196D01*
X131402428Y-109389235D01*
X131379329Y-109380970D01*
X131357150Y-109370480D01*
X131336107Y-109357868D01*
X131316401Y-109343253D01*
X131298223Y-109326777D01*
X131281747Y-109308599D01*
X131267132Y-109288893D01*
X131254520Y-109267850D01*
X131244030Y-109245671D01*
X131235765Y-109222572D01*
X131229804Y-109198773D01*
X131226204Y-109174505D01*
X131225000Y-109150001D01*
X131225000Y-108449999D01*
X131226204Y-108425495D01*
X131229804Y-108401227D01*
X131235765Y-108377428D01*
X131244030Y-108354329D01*
X131254520Y-108332150D01*
X131267132Y-108311107D01*
X131281747Y-108291401D01*
X131298223Y-108273223D01*
X131316401Y-108256747D01*
X131336107Y-108242132D01*
X131357150Y-108229520D01*
X131379329Y-108219030D01*
X131402428Y-108210765D01*
X131426227Y-108204804D01*
X131450495Y-108201204D01*
X131474999Y-108200000D01*
X132775001Y-108200000D01*
X132799505Y-108201204D01*
G37*
G36*
X132799505Y-102601204D02*
G01*
X132823773Y-102604804D01*
X132847572Y-102610765D01*
X132870671Y-102619030D01*
X132892850Y-102629520D01*
X132913893Y-102642132D01*
X132933599Y-102656747D01*
X132951777Y-102673223D01*
X132968253Y-102691401D01*
X132982868Y-102711107D01*
X132995480Y-102732150D01*
X133005970Y-102754329D01*
X133014235Y-102777428D01*
X133020196Y-102801227D01*
X133023796Y-102825495D01*
X133025000Y-102849999D01*
X133025000Y-103550001D01*
X133023796Y-103574505D01*
X133020196Y-103598773D01*
X133014235Y-103622572D01*
X133005970Y-103645671D01*
X132995480Y-103667850D01*
X132982868Y-103688893D01*
X132968253Y-103708599D01*
X132951777Y-103726777D01*
X132933599Y-103743253D01*
X132913893Y-103757868D01*
X132892850Y-103770480D01*
X132870671Y-103780970D01*
X132847572Y-103789235D01*
X132823773Y-103795196D01*
X132799505Y-103798796D01*
X132775001Y-103800000D01*
X131474999Y-103800000D01*
X131450495Y-103798796D01*
X131426227Y-103795196D01*
X131402428Y-103789235D01*
X131379329Y-103780970D01*
X131357150Y-103770480D01*
X131336107Y-103757868D01*
X131316401Y-103743253D01*
X131298223Y-103726777D01*
X131281747Y-103708599D01*
X131267132Y-103688893D01*
X131254520Y-103667850D01*
X131244030Y-103645671D01*
X131235765Y-103622572D01*
X131229804Y-103598773D01*
X131226204Y-103574505D01*
X131225000Y-103550001D01*
X131225000Y-102849999D01*
X131226204Y-102825495D01*
X131229804Y-102801227D01*
X131235765Y-102777428D01*
X131244030Y-102754329D01*
X131254520Y-102732150D01*
X131267132Y-102711107D01*
X131281747Y-102691401D01*
X131298223Y-102673223D01*
X131316401Y-102656747D01*
X131336107Y-102642132D01*
X131357150Y-102629520D01*
X131379329Y-102619030D01*
X131402428Y-102610765D01*
X131426227Y-102604804D01*
X131450495Y-102601204D01*
X131474999Y-102600000D01*
X132775001Y-102600000D01*
X132799505Y-102601204D01*
G37*
G36*
X136639703Y-107200722D02*
G01*
X136654264Y-107202882D01*
X136668543Y-107206459D01*
X136682403Y-107211418D01*
X136695710Y-107217712D01*
X136708336Y-107225280D01*
X136720159Y-107234048D01*
X136731066Y-107243934D01*
X136740952Y-107254841D01*
X136749720Y-107266664D01*
X136757288Y-107279290D01*
X136763582Y-107292597D01*
X136768541Y-107306457D01*
X136772118Y-107320736D01*
X136774278Y-107335297D01*
X136775000Y-107350000D01*
X136775000Y-107650000D01*
X136774278Y-107664703D01*
X136772118Y-107679264D01*
X136768541Y-107693543D01*
X136763582Y-107707403D01*
X136757288Y-107720710D01*
X136749720Y-107733336D01*
X136740952Y-107745159D01*
X136731066Y-107756066D01*
X136720159Y-107765952D01*
X136708336Y-107774720D01*
X136695710Y-107782288D01*
X136682403Y-107788582D01*
X136668543Y-107793541D01*
X136654264Y-107797118D01*
X136639703Y-107799278D01*
X136625000Y-107800000D01*
X135375000Y-107800000D01*
X135360297Y-107799278D01*
X135345736Y-107797118D01*
X135331457Y-107793541D01*
X135317597Y-107788582D01*
X135304290Y-107782288D01*
X135291664Y-107774720D01*
X135279841Y-107765952D01*
X135268934Y-107756066D01*
X135259048Y-107745159D01*
X135250280Y-107733336D01*
X135242712Y-107720710D01*
X135236418Y-107707403D01*
X135231459Y-107693543D01*
X135227882Y-107679264D01*
X135225722Y-107664703D01*
X135225000Y-107650000D01*
X135225000Y-107350000D01*
X135225722Y-107335297D01*
X135227882Y-107320736D01*
X135231459Y-107306457D01*
X135236418Y-107292597D01*
X135242712Y-107279290D01*
X135250280Y-107266664D01*
X135259048Y-107254841D01*
X135268934Y-107243934D01*
X135279841Y-107234048D01*
X135291664Y-107225280D01*
X135304290Y-107217712D01*
X135317597Y-107211418D01*
X135331457Y-107206459D01*
X135345736Y-107202882D01*
X135360297Y-107200722D01*
X135375000Y-107200000D01*
X136625000Y-107200000D01*
X136639703Y-107200722D01*
G37*
G36*
X136639703Y-106200722D02*
G01*
X136654264Y-106202882D01*
X136668543Y-106206459D01*
X136682403Y-106211418D01*
X136695710Y-106217712D01*
X136708336Y-106225280D01*
X136720159Y-106234048D01*
X136731066Y-106243934D01*
X136740952Y-106254841D01*
X136749720Y-106266664D01*
X136757288Y-106279290D01*
X136763582Y-106292597D01*
X136768541Y-106306457D01*
X136772118Y-106320736D01*
X136774278Y-106335297D01*
X136775000Y-106350000D01*
X136775000Y-106650000D01*
X136774278Y-106664703D01*
X136772118Y-106679264D01*
X136768541Y-106693543D01*
X136763582Y-106707403D01*
X136757288Y-106720710D01*
X136749720Y-106733336D01*
X136740952Y-106745159D01*
X136731066Y-106756066D01*
X136720159Y-106765952D01*
X136708336Y-106774720D01*
X136695710Y-106782288D01*
X136682403Y-106788582D01*
X136668543Y-106793541D01*
X136654264Y-106797118D01*
X136639703Y-106799278D01*
X136625000Y-106800000D01*
X135375000Y-106800000D01*
X135360297Y-106799278D01*
X135345736Y-106797118D01*
X135331457Y-106793541D01*
X135317597Y-106788582D01*
X135304290Y-106782288D01*
X135291664Y-106774720D01*
X135279841Y-106765952D01*
X135268934Y-106756066D01*
X135259048Y-106745159D01*
X135250280Y-106733336D01*
X135242712Y-106720710D01*
X135236418Y-106707403D01*
X135231459Y-106693543D01*
X135227882Y-106679264D01*
X135225722Y-106664703D01*
X135225000Y-106650000D01*
X135225000Y-106350000D01*
X135225722Y-106335297D01*
X135227882Y-106320736D01*
X135231459Y-106306457D01*
X135236418Y-106292597D01*
X135242712Y-106279290D01*
X135250280Y-106266664D01*
X135259048Y-106254841D01*
X135268934Y-106243934D01*
X135279841Y-106234048D01*
X135291664Y-106225280D01*
X135304290Y-106217712D01*
X135317597Y-106211418D01*
X135331457Y-106206459D01*
X135345736Y-106202882D01*
X135360297Y-106200722D01*
X135375000Y-106200000D01*
X136625000Y-106200000D01*
X136639703Y-106200722D01*
G37*
G36*
X136639703Y-105200722D02*
G01*
X136654264Y-105202882D01*
X136668543Y-105206459D01*
X136682403Y-105211418D01*
X136695710Y-105217712D01*
X136708336Y-105225280D01*
X136720159Y-105234048D01*
X136731066Y-105243934D01*
X136740952Y-105254841D01*
X136749720Y-105266664D01*
X136757288Y-105279290D01*
X136763582Y-105292597D01*
X136768541Y-105306457D01*
X136772118Y-105320736D01*
X136774278Y-105335297D01*
X136775000Y-105350000D01*
X136775000Y-105650000D01*
X136774278Y-105664703D01*
X136772118Y-105679264D01*
X136768541Y-105693543D01*
X136763582Y-105707403D01*
X136757288Y-105720710D01*
X136749720Y-105733336D01*
X136740952Y-105745159D01*
X136731066Y-105756066D01*
X136720159Y-105765952D01*
X136708336Y-105774720D01*
X136695710Y-105782288D01*
X136682403Y-105788582D01*
X136668543Y-105793541D01*
X136654264Y-105797118D01*
X136639703Y-105799278D01*
X136625000Y-105800000D01*
X135375000Y-105800000D01*
X135360297Y-105799278D01*
X135345736Y-105797118D01*
X135331457Y-105793541D01*
X135317597Y-105788582D01*
X135304290Y-105782288D01*
X135291664Y-105774720D01*
X135279841Y-105765952D01*
X135268934Y-105756066D01*
X135259048Y-105745159D01*
X135250280Y-105733336D01*
X135242712Y-105720710D01*
X135236418Y-105707403D01*
X135231459Y-105693543D01*
X135227882Y-105679264D01*
X135225722Y-105664703D01*
X135225000Y-105650000D01*
X135225000Y-105350000D01*
X135225722Y-105335297D01*
X135227882Y-105320736D01*
X135231459Y-105306457D01*
X135236418Y-105292597D01*
X135242712Y-105279290D01*
X135250280Y-105266664D01*
X135259048Y-105254841D01*
X135268934Y-105243934D01*
X135279841Y-105234048D01*
X135291664Y-105225280D01*
X135304290Y-105217712D01*
X135317597Y-105211418D01*
X135331457Y-105206459D01*
X135345736Y-105202882D01*
X135360297Y-105200722D01*
X135375000Y-105200000D01*
X136625000Y-105200000D01*
X136639703Y-105200722D01*
G37*
G36*
X136639703Y-104200722D02*
G01*
X136654264Y-104202882D01*
X136668543Y-104206459D01*
X136682403Y-104211418D01*
X136695710Y-104217712D01*
X136708336Y-104225280D01*
X136720159Y-104234048D01*
X136731066Y-104243934D01*
X136740952Y-104254841D01*
X136749720Y-104266664D01*
X136757288Y-104279290D01*
X136763582Y-104292597D01*
X136768541Y-104306457D01*
X136772118Y-104320736D01*
X136774278Y-104335297D01*
X136775000Y-104350000D01*
X136775000Y-104650000D01*
X136774278Y-104664703D01*
X136772118Y-104679264D01*
X136768541Y-104693543D01*
X136763582Y-104707403D01*
X136757288Y-104720710D01*
X136749720Y-104733336D01*
X136740952Y-104745159D01*
X136731066Y-104756066D01*
X136720159Y-104765952D01*
X136708336Y-104774720D01*
X136695710Y-104782288D01*
X136682403Y-104788582D01*
X136668543Y-104793541D01*
X136654264Y-104797118D01*
X136639703Y-104799278D01*
X136625000Y-104800000D01*
X135375000Y-104800000D01*
X135360297Y-104799278D01*
X135345736Y-104797118D01*
X135331457Y-104793541D01*
X135317597Y-104788582D01*
X135304290Y-104782288D01*
X135291664Y-104774720D01*
X135279841Y-104765952D01*
X135268934Y-104756066D01*
X135259048Y-104745159D01*
X135250280Y-104733336D01*
X135242712Y-104720710D01*
X135236418Y-104707403D01*
X135231459Y-104693543D01*
X135227882Y-104679264D01*
X135225722Y-104664703D01*
X135225000Y-104650000D01*
X135225000Y-104350000D01*
X135225722Y-104335297D01*
X135227882Y-104320736D01*
X135231459Y-104306457D01*
X135236418Y-104292597D01*
X135242712Y-104279290D01*
X135250280Y-104266664D01*
X135259048Y-104254841D01*
X135268934Y-104243934D01*
X135279841Y-104234048D01*
X135291664Y-104225280D01*
X135304290Y-104217712D01*
X135317597Y-104211418D01*
X135331457Y-104206459D01*
X135345736Y-104202882D01*
X135360297Y-104200722D01*
X135375000Y-104200000D01*
X136625000Y-104200000D01*
X136639703Y-104200722D01*
G37*
G36*
X138084703Y-115325722D02*
G01*
X138099264Y-115327882D01*
X138113543Y-115331459D01*
X138127403Y-115336418D01*
X138140710Y-115342712D01*
X138153336Y-115350280D01*
X138165159Y-115359048D01*
X138176066Y-115368934D01*
X138185952Y-115379841D01*
X138194720Y-115391664D01*
X138202288Y-115404290D01*
X138208582Y-115417597D01*
X138213541Y-115431457D01*
X138217118Y-115445736D01*
X138219278Y-115460297D01*
X138220000Y-115475000D01*
X138220000Y-117225000D01*
X138219278Y-117239703D01*
X138217118Y-117254264D01*
X138213541Y-117268543D01*
X138208582Y-117282403D01*
X138202288Y-117295710D01*
X138194720Y-117308336D01*
X138185952Y-117320159D01*
X138176066Y-117331066D01*
X138165159Y-117340952D01*
X138153336Y-117349720D01*
X138140710Y-117357288D01*
X138127403Y-117363582D01*
X138113543Y-117368541D01*
X138099264Y-117372118D01*
X138084703Y-117374278D01*
X138070000Y-117375000D01*
X137770000Y-117375000D01*
X137755297Y-117374278D01*
X137740736Y-117372118D01*
X137726457Y-117368541D01*
X137712597Y-117363582D01*
X137699290Y-117357288D01*
X137686664Y-117349720D01*
X137674841Y-117340952D01*
X137663934Y-117331066D01*
X137654048Y-117320159D01*
X137645280Y-117308336D01*
X137637712Y-117295710D01*
X137631418Y-117282403D01*
X137626459Y-117268543D01*
X137622882Y-117254264D01*
X137620722Y-117239703D01*
X137620000Y-117225000D01*
X137620000Y-115475000D01*
X137620722Y-115460297D01*
X137622882Y-115445736D01*
X137626459Y-115431457D01*
X137631418Y-115417597D01*
X137637712Y-115404290D01*
X137645280Y-115391664D01*
X137654048Y-115379841D01*
X137663934Y-115368934D01*
X137674841Y-115359048D01*
X137686664Y-115350280D01*
X137699290Y-115342712D01*
X137712597Y-115336418D01*
X137726457Y-115331459D01*
X137740736Y-115327882D01*
X137755297Y-115325722D01*
X137770000Y-115325000D01*
X138070000Y-115325000D01*
X138084703Y-115325722D01*
G37*
G36*
X139354703Y-115325722D02*
G01*
X139369264Y-115327882D01*
X139383543Y-115331459D01*
X139397403Y-115336418D01*
X139410710Y-115342712D01*
X139423336Y-115350280D01*
X139435159Y-115359048D01*
X139446066Y-115368934D01*
X139455952Y-115379841D01*
X139464720Y-115391664D01*
X139472288Y-115404290D01*
X139478582Y-115417597D01*
X139483541Y-115431457D01*
X139487118Y-115445736D01*
X139489278Y-115460297D01*
X139490000Y-115475000D01*
X139490000Y-117225000D01*
X139489278Y-117239703D01*
X139487118Y-117254264D01*
X139483541Y-117268543D01*
X139478582Y-117282403D01*
X139472288Y-117295710D01*
X139464720Y-117308336D01*
X139455952Y-117320159D01*
X139446066Y-117331066D01*
X139435159Y-117340952D01*
X139423336Y-117349720D01*
X139410710Y-117357288D01*
X139397403Y-117363582D01*
X139383543Y-117368541D01*
X139369264Y-117372118D01*
X139354703Y-117374278D01*
X139340000Y-117375000D01*
X139040000Y-117375000D01*
X139025297Y-117374278D01*
X139010736Y-117372118D01*
X138996457Y-117368541D01*
X138982597Y-117363582D01*
X138969290Y-117357288D01*
X138956664Y-117349720D01*
X138944841Y-117340952D01*
X138933934Y-117331066D01*
X138924048Y-117320159D01*
X138915280Y-117308336D01*
X138907712Y-117295710D01*
X138901418Y-117282403D01*
X138896459Y-117268543D01*
X138892882Y-117254264D01*
X138890722Y-117239703D01*
X138890000Y-117225000D01*
X138890000Y-115475000D01*
X138890722Y-115460297D01*
X138892882Y-115445736D01*
X138896459Y-115431457D01*
X138901418Y-115417597D01*
X138907712Y-115404290D01*
X138915280Y-115391664D01*
X138924048Y-115379841D01*
X138933934Y-115368934D01*
X138944841Y-115359048D01*
X138956664Y-115350280D01*
X138969290Y-115342712D01*
X138982597Y-115336418D01*
X138996457Y-115331459D01*
X139010736Y-115327882D01*
X139025297Y-115325722D01*
X139040000Y-115325000D01*
X139340000Y-115325000D01*
X139354703Y-115325722D01*
G37*
G36*
X140624703Y-115325722D02*
G01*
X140639264Y-115327882D01*
X140653543Y-115331459D01*
X140667403Y-115336418D01*
X140680710Y-115342712D01*
X140693336Y-115350280D01*
X140705159Y-115359048D01*
X140716066Y-115368934D01*
X140725952Y-115379841D01*
X140734720Y-115391664D01*
X140742288Y-115404290D01*
X140748582Y-115417597D01*
X140753541Y-115431457D01*
X140757118Y-115445736D01*
X140759278Y-115460297D01*
X140760000Y-115475000D01*
X140760000Y-117225000D01*
X140759278Y-117239703D01*
X140757118Y-117254264D01*
X140753541Y-117268543D01*
X140748582Y-117282403D01*
X140742288Y-117295710D01*
X140734720Y-117308336D01*
X140725952Y-117320159D01*
X140716066Y-117331066D01*
X140705159Y-117340952D01*
X140693336Y-117349720D01*
X140680710Y-117357288D01*
X140667403Y-117363582D01*
X140653543Y-117368541D01*
X140639264Y-117372118D01*
X140624703Y-117374278D01*
X140610000Y-117375000D01*
X140310000Y-117375000D01*
X140295297Y-117374278D01*
X140280736Y-117372118D01*
X140266457Y-117368541D01*
X140252597Y-117363582D01*
X140239290Y-117357288D01*
X140226664Y-117349720D01*
X140214841Y-117340952D01*
X140203934Y-117331066D01*
X140194048Y-117320159D01*
X140185280Y-117308336D01*
X140177712Y-117295710D01*
X140171418Y-117282403D01*
X140166459Y-117268543D01*
X140162882Y-117254264D01*
X140160722Y-117239703D01*
X140160000Y-117225000D01*
X140160000Y-115475000D01*
X140160722Y-115460297D01*
X140162882Y-115445736D01*
X140166459Y-115431457D01*
X140171418Y-115417597D01*
X140177712Y-115404290D01*
X140185280Y-115391664D01*
X140194048Y-115379841D01*
X140203934Y-115368934D01*
X140214841Y-115359048D01*
X140226664Y-115350280D01*
X140239290Y-115342712D01*
X140252597Y-115336418D01*
X140266457Y-115331459D01*
X140280736Y-115327882D01*
X140295297Y-115325722D01*
X140310000Y-115325000D01*
X140610000Y-115325000D01*
X140624703Y-115325722D01*
G37*
G36*
X141894703Y-115325722D02*
G01*
X141909264Y-115327882D01*
X141923543Y-115331459D01*
X141937403Y-115336418D01*
X141950710Y-115342712D01*
X141963336Y-115350280D01*
X141975159Y-115359048D01*
X141986066Y-115368934D01*
X141995952Y-115379841D01*
X142004720Y-115391664D01*
X142012288Y-115404290D01*
X142018582Y-115417597D01*
X142023541Y-115431457D01*
X142027118Y-115445736D01*
X142029278Y-115460297D01*
X142030000Y-115475000D01*
X142030000Y-117225000D01*
X142029278Y-117239703D01*
X142027118Y-117254264D01*
X142023541Y-117268543D01*
X142018582Y-117282403D01*
X142012288Y-117295710D01*
X142004720Y-117308336D01*
X141995952Y-117320159D01*
X141986066Y-117331066D01*
X141975159Y-117340952D01*
X141963336Y-117349720D01*
X141950710Y-117357288D01*
X141937403Y-117363582D01*
X141923543Y-117368541D01*
X141909264Y-117372118D01*
X141894703Y-117374278D01*
X141880000Y-117375000D01*
X141580000Y-117375000D01*
X141565297Y-117374278D01*
X141550736Y-117372118D01*
X141536457Y-117368541D01*
X141522597Y-117363582D01*
X141509290Y-117357288D01*
X141496664Y-117349720D01*
X141484841Y-117340952D01*
X141473934Y-117331066D01*
X141464048Y-117320159D01*
X141455280Y-117308336D01*
X141447712Y-117295710D01*
X141441418Y-117282403D01*
X141436459Y-117268543D01*
X141432882Y-117254264D01*
X141430722Y-117239703D01*
X141430000Y-117225000D01*
X141430000Y-115475000D01*
X141430722Y-115460297D01*
X141432882Y-115445736D01*
X141436459Y-115431457D01*
X141441418Y-115417597D01*
X141447712Y-115404290D01*
X141455280Y-115391664D01*
X141464048Y-115379841D01*
X141473934Y-115368934D01*
X141484841Y-115359048D01*
X141496664Y-115350280D01*
X141509290Y-115342712D01*
X141522597Y-115336418D01*
X141536457Y-115331459D01*
X141550736Y-115327882D01*
X141565297Y-115325722D01*
X141580000Y-115325000D01*
X141880000Y-115325000D01*
X141894703Y-115325722D01*
G37*
G36*
X143164703Y-115325722D02*
G01*
X143179264Y-115327882D01*
X143193543Y-115331459D01*
X143207403Y-115336418D01*
X143220710Y-115342712D01*
X143233336Y-115350280D01*
X143245159Y-115359048D01*
X143256066Y-115368934D01*
X143265952Y-115379841D01*
X143274720Y-115391664D01*
X143282288Y-115404290D01*
X143288582Y-115417597D01*
X143293541Y-115431457D01*
X143297118Y-115445736D01*
X143299278Y-115460297D01*
X143300000Y-115475000D01*
X143300000Y-117225000D01*
X143299278Y-117239703D01*
X143297118Y-117254264D01*
X143293541Y-117268543D01*
X143288582Y-117282403D01*
X143282288Y-117295710D01*
X143274720Y-117308336D01*
X143265952Y-117320159D01*
X143256066Y-117331066D01*
X143245159Y-117340952D01*
X143233336Y-117349720D01*
X143220710Y-117357288D01*
X143207403Y-117363582D01*
X143193543Y-117368541D01*
X143179264Y-117372118D01*
X143164703Y-117374278D01*
X143150000Y-117375000D01*
X142850000Y-117375000D01*
X142835297Y-117374278D01*
X142820736Y-117372118D01*
X142806457Y-117368541D01*
X142792597Y-117363582D01*
X142779290Y-117357288D01*
X142766664Y-117349720D01*
X142754841Y-117340952D01*
X142743934Y-117331066D01*
X142734048Y-117320159D01*
X142725280Y-117308336D01*
X142717712Y-117295710D01*
X142711418Y-117282403D01*
X142706459Y-117268543D01*
X142702882Y-117254264D01*
X142700722Y-117239703D01*
X142700000Y-117225000D01*
X142700000Y-115475000D01*
X142700722Y-115460297D01*
X142702882Y-115445736D01*
X142706459Y-115431457D01*
X142711418Y-115417597D01*
X142717712Y-115404290D01*
X142725280Y-115391664D01*
X142734048Y-115379841D01*
X142743934Y-115368934D01*
X142754841Y-115359048D01*
X142766664Y-115350280D01*
X142779290Y-115342712D01*
X142792597Y-115336418D01*
X142806457Y-115331459D01*
X142820736Y-115327882D01*
X142835297Y-115325722D01*
X142850000Y-115325000D01*
X143150000Y-115325000D01*
X143164703Y-115325722D01*
G37*
G36*
X144434703Y-115325722D02*
G01*
X144449264Y-115327882D01*
X144463543Y-115331459D01*
X144477403Y-115336418D01*
X144490710Y-115342712D01*
X144503336Y-115350280D01*
X144515159Y-115359048D01*
X144526066Y-115368934D01*
X144535952Y-115379841D01*
X144544720Y-115391664D01*
X144552288Y-115404290D01*
X144558582Y-115417597D01*
X144563541Y-115431457D01*
X144567118Y-115445736D01*
X144569278Y-115460297D01*
X144570000Y-115475000D01*
X144570000Y-117225000D01*
X144569278Y-117239703D01*
X144567118Y-117254264D01*
X144563541Y-117268543D01*
X144558582Y-117282403D01*
X144552288Y-117295710D01*
X144544720Y-117308336D01*
X144535952Y-117320159D01*
X144526066Y-117331066D01*
X144515159Y-117340952D01*
X144503336Y-117349720D01*
X144490710Y-117357288D01*
X144477403Y-117363582D01*
X144463543Y-117368541D01*
X144449264Y-117372118D01*
X144434703Y-117374278D01*
X144420000Y-117375000D01*
X144120000Y-117375000D01*
X144105297Y-117374278D01*
X144090736Y-117372118D01*
X144076457Y-117368541D01*
X144062597Y-117363582D01*
X144049290Y-117357288D01*
X144036664Y-117349720D01*
X144024841Y-117340952D01*
X144013934Y-117331066D01*
X144004048Y-117320159D01*
X143995280Y-117308336D01*
X143987712Y-117295710D01*
X143981418Y-117282403D01*
X143976459Y-117268543D01*
X143972882Y-117254264D01*
X143970722Y-117239703D01*
X143970000Y-117225000D01*
X143970000Y-115475000D01*
X143970722Y-115460297D01*
X143972882Y-115445736D01*
X143976459Y-115431457D01*
X143981418Y-115417597D01*
X143987712Y-115404290D01*
X143995280Y-115391664D01*
X144004048Y-115379841D01*
X144013934Y-115368934D01*
X144024841Y-115359048D01*
X144036664Y-115350280D01*
X144049290Y-115342712D01*
X144062597Y-115336418D01*
X144076457Y-115331459D01*
X144090736Y-115327882D01*
X144105297Y-115325722D01*
X144120000Y-115325000D01*
X144420000Y-115325000D01*
X144434703Y-115325722D01*
G37*
G36*
X145704703Y-115325722D02*
G01*
X145719264Y-115327882D01*
X145733543Y-115331459D01*
X145747403Y-115336418D01*
X145760710Y-115342712D01*
X145773336Y-115350280D01*
X145785159Y-115359048D01*
X145796066Y-115368934D01*
X145805952Y-115379841D01*
X145814720Y-115391664D01*
X145822288Y-115404290D01*
X145828582Y-115417597D01*
X145833541Y-115431457D01*
X145837118Y-115445736D01*
X145839278Y-115460297D01*
X145840000Y-115475000D01*
X145840000Y-117225000D01*
X145839278Y-117239703D01*
X145837118Y-117254264D01*
X145833541Y-117268543D01*
X145828582Y-117282403D01*
X145822288Y-117295710D01*
X145814720Y-117308336D01*
X145805952Y-117320159D01*
X145796066Y-117331066D01*
X145785159Y-117340952D01*
X145773336Y-117349720D01*
X145760710Y-117357288D01*
X145747403Y-117363582D01*
X145733543Y-117368541D01*
X145719264Y-117372118D01*
X145704703Y-117374278D01*
X145690000Y-117375000D01*
X145390000Y-117375000D01*
X145375297Y-117374278D01*
X145360736Y-117372118D01*
X145346457Y-117368541D01*
X145332597Y-117363582D01*
X145319290Y-117357288D01*
X145306664Y-117349720D01*
X145294841Y-117340952D01*
X145283934Y-117331066D01*
X145274048Y-117320159D01*
X145265280Y-117308336D01*
X145257712Y-117295710D01*
X145251418Y-117282403D01*
X145246459Y-117268543D01*
X145242882Y-117254264D01*
X145240722Y-117239703D01*
X145240000Y-117225000D01*
X145240000Y-115475000D01*
X145240722Y-115460297D01*
X145242882Y-115445736D01*
X145246459Y-115431457D01*
X145251418Y-115417597D01*
X145257712Y-115404290D01*
X145265280Y-115391664D01*
X145274048Y-115379841D01*
X145283934Y-115368934D01*
X145294841Y-115359048D01*
X145306664Y-115350280D01*
X145319290Y-115342712D01*
X145332597Y-115336418D01*
X145346457Y-115331459D01*
X145360736Y-115327882D01*
X145375297Y-115325722D01*
X145390000Y-115325000D01*
X145690000Y-115325000D01*
X145704703Y-115325722D01*
G37*
G36*
X146974703Y-115325722D02*
G01*
X146989264Y-115327882D01*
X147003543Y-115331459D01*
X147017403Y-115336418D01*
X147030710Y-115342712D01*
X147043336Y-115350280D01*
X147055159Y-115359048D01*
X147066066Y-115368934D01*
X147075952Y-115379841D01*
X147084720Y-115391664D01*
X147092288Y-115404290D01*
X147098582Y-115417597D01*
X147103541Y-115431457D01*
X147107118Y-115445736D01*
X147109278Y-115460297D01*
X147110000Y-115475000D01*
X147110000Y-117225000D01*
X147109278Y-117239703D01*
X147107118Y-117254264D01*
X147103541Y-117268543D01*
X147098582Y-117282403D01*
X147092288Y-117295710D01*
X147084720Y-117308336D01*
X147075952Y-117320159D01*
X147066066Y-117331066D01*
X147055159Y-117340952D01*
X147043336Y-117349720D01*
X147030710Y-117357288D01*
X147017403Y-117363582D01*
X147003543Y-117368541D01*
X146989264Y-117372118D01*
X146974703Y-117374278D01*
X146960000Y-117375000D01*
X146660000Y-117375000D01*
X146645297Y-117374278D01*
X146630736Y-117372118D01*
X146616457Y-117368541D01*
X146602597Y-117363582D01*
X146589290Y-117357288D01*
X146576664Y-117349720D01*
X146564841Y-117340952D01*
X146553934Y-117331066D01*
X146544048Y-117320159D01*
X146535280Y-117308336D01*
X146527712Y-117295710D01*
X146521418Y-117282403D01*
X146516459Y-117268543D01*
X146512882Y-117254264D01*
X146510722Y-117239703D01*
X146510000Y-117225000D01*
X146510000Y-115475000D01*
X146510722Y-115460297D01*
X146512882Y-115445736D01*
X146516459Y-115431457D01*
X146521418Y-115417597D01*
X146527712Y-115404290D01*
X146535280Y-115391664D01*
X146544048Y-115379841D01*
X146553934Y-115368934D01*
X146564841Y-115359048D01*
X146576664Y-115350280D01*
X146589290Y-115342712D01*
X146602597Y-115336418D01*
X146616457Y-115331459D01*
X146630736Y-115327882D01*
X146645297Y-115325722D01*
X146660000Y-115325000D01*
X146960000Y-115325000D01*
X146974703Y-115325722D01*
G37*
G36*
X148244703Y-115325722D02*
G01*
X148259264Y-115327882D01*
X148273543Y-115331459D01*
X148287403Y-115336418D01*
X148300710Y-115342712D01*
X148313336Y-115350280D01*
X148325159Y-115359048D01*
X148336066Y-115368934D01*
X148345952Y-115379841D01*
X148354720Y-115391664D01*
X148362288Y-115404290D01*
X148368582Y-115417597D01*
X148373541Y-115431457D01*
X148377118Y-115445736D01*
X148379278Y-115460297D01*
X148380000Y-115475000D01*
X148380000Y-117225000D01*
X148379278Y-117239703D01*
X148377118Y-117254264D01*
X148373541Y-117268543D01*
X148368582Y-117282403D01*
X148362288Y-117295710D01*
X148354720Y-117308336D01*
X148345952Y-117320159D01*
X148336066Y-117331066D01*
X148325159Y-117340952D01*
X148313336Y-117349720D01*
X148300710Y-117357288D01*
X148287403Y-117363582D01*
X148273543Y-117368541D01*
X148259264Y-117372118D01*
X148244703Y-117374278D01*
X148230000Y-117375000D01*
X147930000Y-117375000D01*
X147915297Y-117374278D01*
X147900736Y-117372118D01*
X147886457Y-117368541D01*
X147872597Y-117363582D01*
X147859290Y-117357288D01*
X147846664Y-117349720D01*
X147834841Y-117340952D01*
X147823934Y-117331066D01*
X147814048Y-117320159D01*
X147805280Y-117308336D01*
X147797712Y-117295710D01*
X147791418Y-117282403D01*
X147786459Y-117268543D01*
X147782882Y-117254264D01*
X147780722Y-117239703D01*
X147780000Y-117225000D01*
X147780000Y-115475000D01*
X147780722Y-115460297D01*
X147782882Y-115445736D01*
X147786459Y-115431457D01*
X147791418Y-115417597D01*
X147797712Y-115404290D01*
X147805280Y-115391664D01*
X147814048Y-115379841D01*
X147823934Y-115368934D01*
X147834841Y-115359048D01*
X147846664Y-115350280D01*
X147859290Y-115342712D01*
X147872597Y-115336418D01*
X147886457Y-115331459D01*
X147900736Y-115327882D01*
X147915297Y-115325722D01*
X147930000Y-115325000D01*
X148230000Y-115325000D01*
X148244703Y-115325722D01*
G37*
G36*
X148244703Y-124625722D02*
G01*
X148259264Y-124627882D01*
X148273543Y-124631459D01*
X148287403Y-124636418D01*
X148300710Y-124642712D01*
X148313336Y-124650280D01*
X148325159Y-124659048D01*
X148336066Y-124668934D01*
X148345952Y-124679841D01*
X148354720Y-124691664D01*
X148362288Y-124704290D01*
X148368582Y-124717597D01*
X148373541Y-124731457D01*
X148377118Y-124745736D01*
X148379278Y-124760297D01*
X148380000Y-124775000D01*
X148380000Y-126525000D01*
X148379278Y-126539703D01*
X148377118Y-126554264D01*
X148373541Y-126568543D01*
X148368582Y-126582403D01*
X148362288Y-126595710D01*
X148354720Y-126608336D01*
X148345952Y-126620159D01*
X148336066Y-126631066D01*
X148325159Y-126640952D01*
X148313336Y-126649720D01*
X148300710Y-126657288D01*
X148287403Y-126663582D01*
X148273543Y-126668541D01*
X148259264Y-126672118D01*
X148244703Y-126674278D01*
X148230000Y-126675000D01*
X147930000Y-126675000D01*
X147915297Y-126674278D01*
X147900736Y-126672118D01*
X147886457Y-126668541D01*
X147872597Y-126663582D01*
X147859290Y-126657288D01*
X147846664Y-126649720D01*
X147834841Y-126640952D01*
X147823934Y-126631066D01*
X147814048Y-126620159D01*
X147805280Y-126608336D01*
X147797712Y-126595710D01*
X147791418Y-126582403D01*
X147786459Y-126568543D01*
X147782882Y-126554264D01*
X147780722Y-126539703D01*
X147780000Y-126525000D01*
X147780000Y-124775000D01*
X147780722Y-124760297D01*
X147782882Y-124745736D01*
X147786459Y-124731457D01*
X147791418Y-124717597D01*
X147797712Y-124704290D01*
X147805280Y-124691664D01*
X147814048Y-124679841D01*
X147823934Y-124668934D01*
X147834841Y-124659048D01*
X147846664Y-124650280D01*
X147859290Y-124642712D01*
X147872597Y-124636418D01*
X147886457Y-124631459D01*
X147900736Y-124627882D01*
X147915297Y-124625722D01*
X147930000Y-124625000D01*
X148230000Y-124625000D01*
X148244703Y-124625722D01*
G37*
G36*
X146974703Y-124625722D02*
G01*
X146989264Y-124627882D01*
X147003543Y-124631459D01*
X147017403Y-124636418D01*
X147030710Y-124642712D01*
X147043336Y-124650280D01*
X147055159Y-124659048D01*
X147066066Y-124668934D01*
X147075952Y-124679841D01*
X147084720Y-124691664D01*
X147092288Y-124704290D01*
X147098582Y-124717597D01*
X147103541Y-124731457D01*
X147107118Y-124745736D01*
X147109278Y-124760297D01*
X147110000Y-124775000D01*
X147110000Y-126525000D01*
X147109278Y-126539703D01*
X147107118Y-126554264D01*
X147103541Y-126568543D01*
X147098582Y-126582403D01*
X147092288Y-126595710D01*
X147084720Y-126608336D01*
X147075952Y-126620159D01*
X147066066Y-126631066D01*
X147055159Y-126640952D01*
X147043336Y-126649720D01*
X147030710Y-126657288D01*
X147017403Y-126663582D01*
X147003543Y-126668541D01*
X146989264Y-126672118D01*
X146974703Y-126674278D01*
X146960000Y-126675000D01*
X146660000Y-126675000D01*
X146645297Y-126674278D01*
X146630736Y-126672118D01*
X146616457Y-126668541D01*
X146602597Y-126663582D01*
X146589290Y-126657288D01*
X146576664Y-126649720D01*
X146564841Y-126640952D01*
X146553934Y-126631066D01*
X146544048Y-126620159D01*
X146535280Y-126608336D01*
X146527712Y-126595710D01*
X146521418Y-126582403D01*
X146516459Y-126568543D01*
X146512882Y-126554264D01*
X146510722Y-126539703D01*
X146510000Y-126525000D01*
X146510000Y-124775000D01*
X146510722Y-124760297D01*
X146512882Y-124745736D01*
X146516459Y-124731457D01*
X146521418Y-124717597D01*
X146527712Y-124704290D01*
X146535280Y-124691664D01*
X146544048Y-124679841D01*
X146553934Y-124668934D01*
X146564841Y-124659048D01*
X146576664Y-124650280D01*
X146589290Y-124642712D01*
X146602597Y-124636418D01*
X146616457Y-124631459D01*
X146630736Y-124627882D01*
X146645297Y-124625722D01*
X146660000Y-124625000D01*
X146960000Y-124625000D01*
X146974703Y-124625722D01*
G37*
G36*
X145704703Y-124625722D02*
G01*
X145719264Y-124627882D01*
X145733543Y-124631459D01*
X145747403Y-124636418D01*
X145760710Y-124642712D01*
X145773336Y-124650280D01*
X145785159Y-124659048D01*
X145796066Y-124668934D01*
X145805952Y-124679841D01*
X145814720Y-124691664D01*
X145822288Y-124704290D01*
X145828582Y-124717597D01*
X145833541Y-124731457D01*
X145837118Y-124745736D01*
X145839278Y-124760297D01*
X145840000Y-124775000D01*
X145840000Y-126525000D01*
X145839278Y-126539703D01*
X145837118Y-126554264D01*
X145833541Y-126568543D01*
X145828582Y-126582403D01*
X145822288Y-126595710D01*
X145814720Y-126608336D01*
X145805952Y-126620159D01*
X145796066Y-126631066D01*
X145785159Y-126640952D01*
X145773336Y-126649720D01*
X145760710Y-126657288D01*
X145747403Y-126663582D01*
X145733543Y-126668541D01*
X145719264Y-126672118D01*
X145704703Y-126674278D01*
X145690000Y-126675000D01*
X145390000Y-126675000D01*
X145375297Y-126674278D01*
X145360736Y-126672118D01*
X145346457Y-126668541D01*
X145332597Y-126663582D01*
X145319290Y-126657288D01*
X145306664Y-126649720D01*
X145294841Y-126640952D01*
X145283934Y-126631066D01*
X145274048Y-126620159D01*
X145265280Y-126608336D01*
X145257712Y-126595710D01*
X145251418Y-126582403D01*
X145246459Y-126568543D01*
X145242882Y-126554264D01*
X145240722Y-126539703D01*
X145240000Y-126525000D01*
X145240000Y-124775000D01*
X145240722Y-124760297D01*
X145242882Y-124745736D01*
X145246459Y-124731457D01*
X145251418Y-124717597D01*
X145257712Y-124704290D01*
X145265280Y-124691664D01*
X145274048Y-124679841D01*
X145283934Y-124668934D01*
X145294841Y-124659048D01*
X145306664Y-124650280D01*
X145319290Y-124642712D01*
X145332597Y-124636418D01*
X145346457Y-124631459D01*
X145360736Y-124627882D01*
X145375297Y-124625722D01*
X145390000Y-124625000D01*
X145690000Y-124625000D01*
X145704703Y-124625722D01*
G37*
G36*
X144434703Y-124625722D02*
G01*
X144449264Y-124627882D01*
X144463543Y-124631459D01*
X144477403Y-124636418D01*
X144490710Y-124642712D01*
X144503336Y-124650280D01*
X144515159Y-124659048D01*
X144526066Y-124668934D01*
X144535952Y-124679841D01*
X144544720Y-124691664D01*
X144552288Y-124704290D01*
X144558582Y-124717597D01*
X144563541Y-124731457D01*
X144567118Y-124745736D01*
X144569278Y-124760297D01*
X144570000Y-124775000D01*
X144570000Y-126525000D01*
X144569278Y-126539703D01*
X144567118Y-126554264D01*
X144563541Y-126568543D01*
X144558582Y-126582403D01*
X144552288Y-126595710D01*
X144544720Y-126608336D01*
X144535952Y-126620159D01*
X144526066Y-126631066D01*
X144515159Y-126640952D01*
X144503336Y-126649720D01*
X144490710Y-126657288D01*
X144477403Y-126663582D01*
X144463543Y-126668541D01*
X144449264Y-126672118D01*
X144434703Y-126674278D01*
X144420000Y-126675000D01*
X144120000Y-126675000D01*
X144105297Y-126674278D01*
X144090736Y-126672118D01*
X144076457Y-126668541D01*
X144062597Y-126663582D01*
X144049290Y-126657288D01*
X144036664Y-126649720D01*
X144024841Y-126640952D01*
X144013934Y-126631066D01*
X144004048Y-126620159D01*
X143995280Y-126608336D01*
X143987712Y-126595710D01*
X143981418Y-126582403D01*
X143976459Y-126568543D01*
X143972882Y-126554264D01*
X143970722Y-126539703D01*
X143970000Y-126525000D01*
X143970000Y-124775000D01*
X143970722Y-124760297D01*
X143972882Y-124745736D01*
X143976459Y-124731457D01*
X143981418Y-124717597D01*
X143987712Y-124704290D01*
X143995280Y-124691664D01*
X144004048Y-124679841D01*
X144013934Y-124668934D01*
X144024841Y-124659048D01*
X144036664Y-124650280D01*
X144049290Y-124642712D01*
X144062597Y-124636418D01*
X144076457Y-124631459D01*
X144090736Y-124627882D01*
X144105297Y-124625722D01*
X144120000Y-124625000D01*
X144420000Y-124625000D01*
X144434703Y-124625722D01*
G37*
G36*
X143164703Y-124625722D02*
G01*
X143179264Y-124627882D01*
X143193543Y-124631459D01*
X143207403Y-124636418D01*
X143220710Y-124642712D01*
X143233336Y-124650280D01*
X143245159Y-124659048D01*
X143256066Y-124668934D01*
X143265952Y-124679841D01*
X143274720Y-124691664D01*
X143282288Y-124704290D01*
X143288582Y-124717597D01*
X143293541Y-124731457D01*
X143297118Y-124745736D01*
X143299278Y-124760297D01*
X143300000Y-124775000D01*
X143300000Y-126525000D01*
X143299278Y-126539703D01*
X143297118Y-126554264D01*
X143293541Y-126568543D01*
X143288582Y-126582403D01*
X143282288Y-126595710D01*
X143274720Y-126608336D01*
X143265952Y-126620159D01*
X143256066Y-126631066D01*
X143245159Y-126640952D01*
X143233336Y-126649720D01*
X143220710Y-126657288D01*
X143207403Y-126663582D01*
X143193543Y-126668541D01*
X143179264Y-126672118D01*
X143164703Y-126674278D01*
X143150000Y-126675000D01*
X142850000Y-126675000D01*
X142835297Y-126674278D01*
X142820736Y-126672118D01*
X142806457Y-126668541D01*
X142792597Y-126663582D01*
X142779290Y-126657288D01*
X142766664Y-126649720D01*
X142754841Y-126640952D01*
X142743934Y-126631066D01*
X142734048Y-126620159D01*
X142725280Y-126608336D01*
X142717712Y-126595710D01*
X142711418Y-126582403D01*
X142706459Y-126568543D01*
X142702882Y-126554264D01*
X142700722Y-126539703D01*
X142700000Y-126525000D01*
X142700000Y-124775000D01*
X142700722Y-124760297D01*
X142702882Y-124745736D01*
X142706459Y-124731457D01*
X142711418Y-124717597D01*
X142717712Y-124704290D01*
X142725280Y-124691664D01*
X142734048Y-124679841D01*
X142743934Y-124668934D01*
X142754841Y-124659048D01*
X142766664Y-124650280D01*
X142779290Y-124642712D01*
X142792597Y-124636418D01*
X142806457Y-124631459D01*
X142820736Y-124627882D01*
X142835297Y-124625722D01*
X142850000Y-124625000D01*
X143150000Y-124625000D01*
X143164703Y-124625722D01*
G37*
G36*
X141894703Y-124625722D02*
G01*
X141909264Y-124627882D01*
X141923543Y-124631459D01*
X141937403Y-124636418D01*
X141950710Y-124642712D01*
X141963336Y-124650280D01*
X141975159Y-124659048D01*
X141986066Y-124668934D01*
X141995952Y-124679841D01*
X142004720Y-124691664D01*
X142012288Y-124704290D01*
X142018582Y-124717597D01*
X142023541Y-124731457D01*
X142027118Y-124745736D01*
X142029278Y-124760297D01*
X142030000Y-124775000D01*
X142030000Y-126525000D01*
X142029278Y-126539703D01*
X142027118Y-126554264D01*
X142023541Y-126568543D01*
X142018582Y-126582403D01*
X142012288Y-126595710D01*
X142004720Y-126608336D01*
X141995952Y-126620159D01*
X141986066Y-126631066D01*
X141975159Y-126640952D01*
X141963336Y-126649720D01*
X141950710Y-126657288D01*
X141937403Y-126663582D01*
X141923543Y-126668541D01*
X141909264Y-126672118D01*
X141894703Y-126674278D01*
X141880000Y-126675000D01*
X141580000Y-126675000D01*
X141565297Y-126674278D01*
X141550736Y-126672118D01*
X141536457Y-126668541D01*
X141522597Y-126663582D01*
X141509290Y-126657288D01*
X141496664Y-126649720D01*
X141484841Y-126640952D01*
X141473934Y-126631066D01*
X141464048Y-126620159D01*
X141455280Y-126608336D01*
X141447712Y-126595710D01*
X141441418Y-126582403D01*
X141436459Y-126568543D01*
X141432882Y-126554264D01*
X141430722Y-126539703D01*
X141430000Y-126525000D01*
X141430000Y-124775000D01*
X141430722Y-124760297D01*
X141432882Y-124745736D01*
X141436459Y-124731457D01*
X141441418Y-124717597D01*
X141447712Y-124704290D01*
X141455280Y-124691664D01*
X141464048Y-124679841D01*
X141473934Y-124668934D01*
X141484841Y-124659048D01*
X141496664Y-124650280D01*
X141509290Y-124642712D01*
X141522597Y-124636418D01*
X141536457Y-124631459D01*
X141550736Y-124627882D01*
X141565297Y-124625722D01*
X141580000Y-124625000D01*
X141880000Y-124625000D01*
X141894703Y-124625722D01*
G37*
G36*
X140624703Y-124625722D02*
G01*
X140639264Y-124627882D01*
X140653543Y-124631459D01*
X140667403Y-124636418D01*
X140680710Y-124642712D01*
X140693336Y-124650280D01*
X140705159Y-124659048D01*
X140716066Y-124668934D01*
X140725952Y-124679841D01*
X140734720Y-124691664D01*
X140742288Y-124704290D01*
X140748582Y-124717597D01*
X140753541Y-124731457D01*
X140757118Y-124745736D01*
X140759278Y-124760297D01*
X140760000Y-124775000D01*
X140760000Y-126525000D01*
X140759278Y-126539703D01*
X140757118Y-126554264D01*
X140753541Y-126568543D01*
X140748582Y-126582403D01*
X140742288Y-126595710D01*
X140734720Y-126608336D01*
X140725952Y-126620159D01*
X140716066Y-126631066D01*
X140705159Y-126640952D01*
X140693336Y-126649720D01*
X140680710Y-126657288D01*
X140667403Y-126663582D01*
X140653543Y-126668541D01*
X140639264Y-126672118D01*
X140624703Y-126674278D01*
X140610000Y-126675000D01*
X140310000Y-126675000D01*
X140295297Y-126674278D01*
X140280736Y-126672118D01*
X140266457Y-126668541D01*
X140252597Y-126663582D01*
X140239290Y-126657288D01*
X140226664Y-126649720D01*
X140214841Y-126640952D01*
X140203934Y-126631066D01*
X140194048Y-126620159D01*
X140185280Y-126608336D01*
X140177712Y-126595710D01*
X140171418Y-126582403D01*
X140166459Y-126568543D01*
X140162882Y-126554264D01*
X140160722Y-126539703D01*
X140160000Y-126525000D01*
X140160000Y-124775000D01*
X140160722Y-124760297D01*
X140162882Y-124745736D01*
X140166459Y-124731457D01*
X140171418Y-124717597D01*
X140177712Y-124704290D01*
X140185280Y-124691664D01*
X140194048Y-124679841D01*
X140203934Y-124668934D01*
X140214841Y-124659048D01*
X140226664Y-124650280D01*
X140239290Y-124642712D01*
X140252597Y-124636418D01*
X140266457Y-124631459D01*
X140280736Y-124627882D01*
X140295297Y-124625722D01*
X140310000Y-124625000D01*
X140610000Y-124625000D01*
X140624703Y-124625722D01*
G37*
G36*
X139354703Y-124625722D02*
G01*
X139369264Y-124627882D01*
X139383543Y-124631459D01*
X139397403Y-124636418D01*
X139410710Y-124642712D01*
X139423336Y-124650280D01*
X139435159Y-124659048D01*
X139446066Y-124668934D01*
X139455952Y-124679841D01*
X139464720Y-124691664D01*
X139472288Y-124704290D01*
X139478582Y-124717597D01*
X139483541Y-124731457D01*
X139487118Y-124745736D01*
X139489278Y-124760297D01*
X139490000Y-124775000D01*
X139490000Y-126525000D01*
X139489278Y-126539703D01*
X139487118Y-126554264D01*
X139483541Y-126568543D01*
X139478582Y-126582403D01*
X139472288Y-126595710D01*
X139464720Y-126608336D01*
X139455952Y-126620159D01*
X139446066Y-126631066D01*
X139435159Y-126640952D01*
X139423336Y-126649720D01*
X139410710Y-126657288D01*
X139397403Y-126663582D01*
X139383543Y-126668541D01*
X139369264Y-126672118D01*
X139354703Y-126674278D01*
X139340000Y-126675000D01*
X139040000Y-126675000D01*
X139025297Y-126674278D01*
X139010736Y-126672118D01*
X138996457Y-126668541D01*
X138982597Y-126663582D01*
X138969290Y-126657288D01*
X138956664Y-126649720D01*
X138944841Y-126640952D01*
X138933934Y-126631066D01*
X138924048Y-126620159D01*
X138915280Y-126608336D01*
X138907712Y-126595710D01*
X138901418Y-126582403D01*
X138896459Y-126568543D01*
X138892882Y-126554264D01*
X138890722Y-126539703D01*
X138890000Y-126525000D01*
X138890000Y-124775000D01*
X138890722Y-124760297D01*
X138892882Y-124745736D01*
X138896459Y-124731457D01*
X138901418Y-124717597D01*
X138907712Y-124704290D01*
X138915280Y-124691664D01*
X138924048Y-124679841D01*
X138933934Y-124668934D01*
X138944841Y-124659048D01*
X138956664Y-124650280D01*
X138969290Y-124642712D01*
X138982597Y-124636418D01*
X138996457Y-124631459D01*
X139010736Y-124627882D01*
X139025297Y-124625722D01*
X139040000Y-124625000D01*
X139340000Y-124625000D01*
X139354703Y-124625722D01*
G37*
G36*
X138084703Y-124625722D02*
G01*
X138099264Y-124627882D01*
X138113543Y-124631459D01*
X138127403Y-124636418D01*
X138140710Y-124642712D01*
X138153336Y-124650280D01*
X138165159Y-124659048D01*
X138176066Y-124668934D01*
X138185952Y-124679841D01*
X138194720Y-124691664D01*
X138202288Y-124704290D01*
X138208582Y-124717597D01*
X138213541Y-124731457D01*
X138217118Y-124745736D01*
X138219278Y-124760297D01*
X138220000Y-124775000D01*
X138220000Y-126525000D01*
X138219278Y-126539703D01*
X138217118Y-126554264D01*
X138213541Y-126568543D01*
X138208582Y-126582403D01*
X138202288Y-126595710D01*
X138194720Y-126608336D01*
X138185952Y-126620159D01*
X138176066Y-126631066D01*
X138165159Y-126640952D01*
X138153336Y-126649720D01*
X138140710Y-126657288D01*
X138127403Y-126663582D01*
X138113543Y-126668541D01*
X138099264Y-126672118D01*
X138084703Y-126674278D01*
X138070000Y-126675000D01*
X137770000Y-126675000D01*
X137755297Y-126674278D01*
X137740736Y-126672118D01*
X137726457Y-126668541D01*
X137712597Y-126663582D01*
X137699290Y-126657288D01*
X137686664Y-126649720D01*
X137674841Y-126640952D01*
X137663934Y-126631066D01*
X137654048Y-126620159D01*
X137645280Y-126608336D01*
X137637712Y-126595710D01*
X137631418Y-126582403D01*
X137626459Y-126568543D01*
X137622882Y-126554264D01*
X137620722Y-126539703D01*
X137620000Y-126525000D01*
X137620000Y-124775000D01*
X137620722Y-124760297D01*
X137622882Y-124745736D01*
X137626459Y-124731457D01*
X137631418Y-124717597D01*
X137637712Y-124704290D01*
X137645280Y-124691664D01*
X137654048Y-124679841D01*
X137663934Y-124668934D01*
X137674841Y-124659048D01*
X137686664Y-124650280D01*
X137699290Y-124642712D01*
X137712597Y-124636418D01*
X137726457Y-124631459D01*
X137740736Y-124627882D01*
X137755297Y-124625722D01*
X137770000Y-124625000D01*
X138070000Y-124625000D01*
X138084703Y-124625722D01*
G37*
G36*
X155260779Y-121351144D02*
G01*
X155283834Y-121354563D01*
X155306443Y-121360227D01*
X155328387Y-121368079D01*
X155349457Y-121378044D01*
X155369448Y-121390026D01*
X155388168Y-121403910D01*
X155405438Y-121419562D01*
X155421090Y-121436832D01*
X155434974Y-121455552D01*
X155446956Y-121475543D01*
X155456921Y-121496613D01*
X155464773Y-121518557D01*
X155470437Y-121541166D01*
X155473856Y-121564221D01*
X155475000Y-121587500D01*
X155475000Y-122162500D01*
X155473856Y-122185779D01*
X155470437Y-122208834D01*
X155464773Y-122231443D01*
X155456921Y-122253387D01*
X155446956Y-122274457D01*
X155434974Y-122294448D01*
X155421090Y-122313168D01*
X155405438Y-122330438D01*
X155388168Y-122346090D01*
X155369448Y-122359974D01*
X155349457Y-122371956D01*
X155328387Y-122381921D01*
X155306443Y-122389773D01*
X155283834Y-122395437D01*
X155260779Y-122398856D01*
X155237500Y-122400000D01*
X154762500Y-122400000D01*
X154739221Y-122398856D01*
X154716166Y-122395437D01*
X154693557Y-122389773D01*
X154671613Y-122381921D01*
X154650543Y-122371956D01*
X154630552Y-122359974D01*
X154611832Y-122346090D01*
X154594562Y-122330438D01*
X154578910Y-122313168D01*
X154565026Y-122294448D01*
X154553044Y-122274457D01*
X154543079Y-122253387D01*
X154535227Y-122231443D01*
X154529563Y-122208834D01*
X154526144Y-122185779D01*
X154525000Y-122162500D01*
X154525000Y-121587500D01*
X154526144Y-121564221D01*
X154529563Y-121541166D01*
X154535227Y-121518557D01*
X154543079Y-121496613D01*
X154553044Y-121475543D01*
X154565026Y-121455552D01*
X154578910Y-121436832D01*
X154594562Y-121419562D01*
X154611832Y-121403910D01*
X154630552Y-121390026D01*
X154650543Y-121378044D01*
X154671613Y-121368079D01*
X154693557Y-121360227D01*
X154716166Y-121354563D01*
X154739221Y-121351144D01*
X154762500Y-121350000D01*
X155237500Y-121350000D01*
X155260779Y-121351144D01*
G37*
G36*
X155260779Y-119601144D02*
G01*
X155283834Y-119604563D01*
X155306443Y-119610227D01*
X155328387Y-119618079D01*
X155349457Y-119628044D01*
X155369448Y-119640026D01*
X155388168Y-119653910D01*
X155405438Y-119669562D01*
X155421090Y-119686832D01*
X155434974Y-119705552D01*
X155446956Y-119725543D01*
X155456921Y-119746613D01*
X155464773Y-119768557D01*
X155470437Y-119791166D01*
X155473856Y-119814221D01*
X155475000Y-119837500D01*
X155475000Y-120412500D01*
X155473856Y-120435779D01*
X155470437Y-120458834D01*
X155464773Y-120481443D01*
X155456921Y-120503387D01*
X155446956Y-120524457D01*
X155434974Y-120544448D01*
X155421090Y-120563168D01*
X155405438Y-120580438D01*
X155388168Y-120596090D01*
X155369448Y-120609974D01*
X155349457Y-120621956D01*
X155328387Y-120631921D01*
X155306443Y-120639773D01*
X155283834Y-120645437D01*
X155260779Y-120648856D01*
X155237500Y-120650000D01*
X154762500Y-120650000D01*
X154739221Y-120648856D01*
X154716166Y-120645437D01*
X154693557Y-120639773D01*
X154671613Y-120631921D01*
X154650543Y-120621956D01*
X154630552Y-120609974D01*
X154611832Y-120596090D01*
X154594562Y-120580438D01*
X154578910Y-120563168D01*
X154565026Y-120544448D01*
X154553044Y-120524457D01*
X154543079Y-120503387D01*
X154535227Y-120481443D01*
X154529563Y-120458834D01*
X154526144Y-120435779D01*
X154525000Y-120412500D01*
X154525000Y-119837500D01*
X154526144Y-119814221D01*
X154529563Y-119791166D01*
X154535227Y-119768557D01*
X154543079Y-119746613D01*
X154553044Y-119725543D01*
X154565026Y-119705552D01*
X154578910Y-119686832D01*
X154594562Y-119669562D01*
X154611832Y-119653910D01*
X154630552Y-119640026D01*
X154650543Y-119628044D01*
X154671613Y-119618079D01*
X154693557Y-119610227D01*
X154716166Y-119604563D01*
X154739221Y-119601144D01*
X154762500Y-119600000D01*
X155237500Y-119600000D01*
X155260779Y-119601144D01*
G37*
G36*
X155260779Y-111351144D02*
G01*
X155283834Y-111354563D01*
X155306443Y-111360227D01*
X155328387Y-111368079D01*
X155349457Y-111378044D01*
X155369448Y-111390026D01*
X155388168Y-111403910D01*
X155405438Y-111419562D01*
X155421090Y-111436832D01*
X155434974Y-111455552D01*
X155446956Y-111475543D01*
X155456921Y-111496613D01*
X155464773Y-111518557D01*
X155470437Y-111541166D01*
X155473856Y-111564221D01*
X155475000Y-111587500D01*
X155475000Y-112162500D01*
X155473856Y-112185779D01*
X155470437Y-112208834D01*
X155464773Y-112231443D01*
X155456921Y-112253387D01*
X155446956Y-112274457D01*
X155434974Y-112294448D01*
X155421090Y-112313168D01*
X155405438Y-112330438D01*
X155388168Y-112346090D01*
X155369448Y-112359974D01*
X155349457Y-112371956D01*
X155328387Y-112381921D01*
X155306443Y-112389773D01*
X155283834Y-112395437D01*
X155260779Y-112398856D01*
X155237500Y-112400000D01*
X154762500Y-112400000D01*
X154739221Y-112398856D01*
X154716166Y-112395437D01*
X154693557Y-112389773D01*
X154671613Y-112381921D01*
X154650543Y-112371956D01*
X154630552Y-112359974D01*
X154611832Y-112346090D01*
X154594562Y-112330438D01*
X154578910Y-112313168D01*
X154565026Y-112294448D01*
X154553044Y-112274457D01*
X154543079Y-112253387D01*
X154535227Y-112231443D01*
X154529563Y-112208834D01*
X154526144Y-112185779D01*
X154525000Y-112162500D01*
X154525000Y-111587500D01*
X154526144Y-111564221D01*
X154529563Y-111541166D01*
X154535227Y-111518557D01*
X154543079Y-111496613D01*
X154553044Y-111475543D01*
X154565026Y-111455552D01*
X154578910Y-111436832D01*
X154594562Y-111419562D01*
X154611832Y-111403910D01*
X154630552Y-111390026D01*
X154650543Y-111378044D01*
X154671613Y-111368079D01*
X154693557Y-111360227D01*
X154716166Y-111354563D01*
X154739221Y-111351144D01*
X154762500Y-111350000D01*
X155237500Y-111350000D01*
X155260779Y-111351144D01*
G37*
G36*
X155260779Y-109601144D02*
G01*
X155283834Y-109604563D01*
X155306443Y-109610227D01*
X155328387Y-109618079D01*
X155349457Y-109628044D01*
X155369448Y-109640026D01*
X155388168Y-109653910D01*
X155405438Y-109669562D01*
X155421090Y-109686832D01*
X155434974Y-109705552D01*
X155446956Y-109725543D01*
X155456921Y-109746613D01*
X155464773Y-109768557D01*
X155470437Y-109791166D01*
X155473856Y-109814221D01*
X155475000Y-109837500D01*
X155475000Y-110412500D01*
X155473856Y-110435779D01*
X155470437Y-110458834D01*
X155464773Y-110481443D01*
X155456921Y-110503387D01*
X155446956Y-110524457D01*
X155434974Y-110544448D01*
X155421090Y-110563168D01*
X155405438Y-110580438D01*
X155388168Y-110596090D01*
X155369448Y-110609974D01*
X155349457Y-110621956D01*
X155328387Y-110631921D01*
X155306443Y-110639773D01*
X155283834Y-110645437D01*
X155260779Y-110648856D01*
X155237500Y-110650000D01*
X154762500Y-110650000D01*
X154739221Y-110648856D01*
X154716166Y-110645437D01*
X154693557Y-110639773D01*
X154671613Y-110631921D01*
X154650543Y-110621956D01*
X154630552Y-110609974D01*
X154611832Y-110596090D01*
X154594562Y-110580438D01*
X154578910Y-110563168D01*
X154565026Y-110544448D01*
X154553044Y-110524457D01*
X154543079Y-110503387D01*
X154535227Y-110481443D01*
X154529563Y-110458834D01*
X154526144Y-110435779D01*
X154525000Y-110412500D01*
X154525000Y-109837500D01*
X154526144Y-109814221D01*
X154529563Y-109791166D01*
X154535227Y-109768557D01*
X154543079Y-109746613D01*
X154553044Y-109725543D01*
X154565026Y-109705552D01*
X154578910Y-109686832D01*
X154594562Y-109669562D01*
X154611832Y-109653910D01*
X154630552Y-109640026D01*
X154650543Y-109628044D01*
X154671613Y-109618079D01*
X154693557Y-109610227D01*
X154716166Y-109604563D01*
X154739221Y-109601144D01*
X154762500Y-109600000D01*
X155237500Y-109600000D01*
X155260779Y-109601144D01*
G37*
G36*
X155260779Y-101351144D02*
G01*
X155283834Y-101354563D01*
X155306443Y-101360227D01*
X155328387Y-101368079D01*
X155349457Y-101378044D01*
X155369448Y-101390026D01*
X155388168Y-101403910D01*
X155405438Y-101419562D01*
X155421090Y-101436832D01*
X155434974Y-101455552D01*
X155446956Y-101475543D01*
X155456921Y-101496613D01*
X155464773Y-101518557D01*
X155470437Y-101541166D01*
X155473856Y-101564221D01*
X155475000Y-101587500D01*
X155475000Y-102162500D01*
X155473856Y-102185779D01*
X155470437Y-102208834D01*
X155464773Y-102231443D01*
X155456921Y-102253387D01*
X155446956Y-102274457D01*
X155434974Y-102294448D01*
X155421090Y-102313168D01*
X155405438Y-102330438D01*
X155388168Y-102346090D01*
X155369448Y-102359974D01*
X155349457Y-102371956D01*
X155328387Y-102381921D01*
X155306443Y-102389773D01*
X155283834Y-102395437D01*
X155260779Y-102398856D01*
X155237500Y-102400000D01*
X154762500Y-102400000D01*
X154739221Y-102398856D01*
X154716166Y-102395437D01*
X154693557Y-102389773D01*
X154671613Y-102381921D01*
X154650543Y-102371956D01*
X154630552Y-102359974D01*
X154611832Y-102346090D01*
X154594562Y-102330438D01*
X154578910Y-102313168D01*
X154565026Y-102294448D01*
X154553044Y-102274457D01*
X154543079Y-102253387D01*
X154535227Y-102231443D01*
X154529563Y-102208834D01*
X154526144Y-102185779D01*
X154525000Y-102162500D01*
X154525000Y-101587500D01*
X154526144Y-101564221D01*
X154529563Y-101541166D01*
X154535227Y-101518557D01*
X154543079Y-101496613D01*
X154553044Y-101475543D01*
X154565026Y-101455552D01*
X154578910Y-101436832D01*
X154594562Y-101419562D01*
X154611832Y-101403910D01*
X154630552Y-101390026D01*
X154650543Y-101378044D01*
X154671613Y-101368079D01*
X154693557Y-101360227D01*
X154716166Y-101354563D01*
X154739221Y-101351144D01*
X154762500Y-101350000D01*
X155237500Y-101350000D01*
X155260779Y-101351144D01*
G37*
G36*
X155260779Y-99601144D02*
G01*
X155283834Y-99604563D01*
X155306443Y-99610227D01*
X155328387Y-99618079D01*
X155349457Y-99628044D01*
X155369448Y-99640026D01*
X155388168Y-99653910D01*
X155405438Y-99669562D01*
X155421090Y-99686832D01*
X155434974Y-99705552D01*
X155446956Y-99725543D01*
X155456921Y-99746613D01*
X155464773Y-99768557D01*
X155470437Y-99791166D01*
X155473856Y-99814221D01*
X155475000Y-99837500D01*
X155475000Y-100412500D01*
X155473856Y-100435779D01*
X155470437Y-100458834D01*
X155464773Y-100481443D01*
X155456921Y-100503387D01*
X155446956Y-100524457D01*
X155434974Y-100544448D01*
X155421090Y-100563168D01*
X155405438Y-100580438D01*
X155388168Y-100596090D01*
X155369448Y-100609974D01*
X155349457Y-100621956D01*
X155328387Y-100631921D01*
X155306443Y-100639773D01*
X155283834Y-100645437D01*
X155260779Y-100648856D01*
X155237500Y-100650000D01*
X154762500Y-100650000D01*
X154739221Y-100648856D01*
X154716166Y-100645437D01*
X154693557Y-100639773D01*
X154671613Y-100631921D01*
X154650543Y-100621956D01*
X154630552Y-100609974D01*
X154611832Y-100596090D01*
X154594562Y-100580438D01*
X154578910Y-100563168D01*
X154565026Y-100544448D01*
X154553044Y-100524457D01*
X154543079Y-100503387D01*
X154535227Y-100481443D01*
X154529563Y-100458834D01*
X154526144Y-100435779D01*
X154525000Y-100412500D01*
X154525000Y-99837500D01*
X154526144Y-99814221D01*
X154529563Y-99791166D01*
X154535227Y-99768557D01*
X154543079Y-99746613D01*
X154553044Y-99725543D01*
X154565026Y-99705552D01*
X154578910Y-99686832D01*
X154594562Y-99669562D01*
X154611832Y-99653910D01*
X154630552Y-99640026D01*
X154650543Y-99628044D01*
X154671613Y-99618079D01*
X154693557Y-99610227D01*
X154716166Y-99604563D01*
X154739221Y-99601144D01*
X154762500Y-99600000D01*
X155237500Y-99600000D01*
X155260779Y-99601144D01*
G37*
G36*
X155260779Y-91351144D02*
G01*
X155283834Y-91354563D01*
X155306443Y-91360227D01*
X155328387Y-91368079D01*
X155349457Y-91378044D01*
X155369448Y-91390026D01*
X155388168Y-91403910D01*
X155405438Y-91419562D01*
X155421090Y-91436832D01*
X155434974Y-91455552D01*
X155446956Y-91475543D01*
X155456921Y-91496613D01*
X155464773Y-91518557D01*
X155470437Y-91541166D01*
X155473856Y-91564221D01*
X155475000Y-91587500D01*
X155475000Y-92162500D01*
X155473856Y-92185779D01*
X155470437Y-92208834D01*
X155464773Y-92231443D01*
X155456921Y-92253387D01*
X155446956Y-92274457D01*
X155434974Y-92294448D01*
X155421090Y-92313168D01*
X155405438Y-92330438D01*
X155388168Y-92346090D01*
X155369448Y-92359974D01*
X155349457Y-92371956D01*
X155328387Y-92381921D01*
X155306443Y-92389773D01*
X155283834Y-92395437D01*
X155260779Y-92398856D01*
X155237500Y-92400000D01*
X154762500Y-92400000D01*
X154739221Y-92398856D01*
X154716166Y-92395437D01*
X154693557Y-92389773D01*
X154671613Y-92381921D01*
X154650543Y-92371956D01*
X154630552Y-92359974D01*
X154611832Y-92346090D01*
X154594562Y-92330438D01*
X154578910Y-92313168D01*
X154565026Y-92294448D01*
X154553044Y-92274457D01*
X154543079Y-92253387D01*
X154535227Y-92231443D01*
X154529563Y-92208834D01*
X154526144Y-92185779D01*
X154525000Y-92162500D01*
X154525000Y-91587500D01*
X154526144Y-91564221D01*
X154529563Y-91541166D01*
X154535227Y-91518557D01*
X154543079Y-91496613D01*
X154553044Y-91475543D01*
X154565026Y-91455552D01*
X154578910Y-91436832D01*
X154594562Y-91419562D01*
X154611832Y-91403910D01*
X154630552Y-91390026D01*
X154650543Y-91378044D01*
X154671613Y-91368079D01*
X154693557Y-91360227D01*
X154716166Y-91354563D01*
X154739221Y-91351144D01*
X154762500Y-91350000D01*
X155237500Y-91350000D01*
X155260779Y-91351144D01*
G37*
G36*
X155260779Y-89601144D02*
G01*
X155283834Y-89604563D01*
X155306443Y-89610227D01*
X155328387Y-89618079D01*
X155349457Y-89628044D01*
X155369448Y-89640026D01*
X155388168Y-89653910D01*
X155405438Y-89669562D01*
X155421090Y-89686832D01*
X155434974Y-89705552D01*
X155446956Y-89725543D01*
X155456921Y-89746613D01*
X155464773Y-89768557D01*
X155470437Y-89791166D01*
X155473856Y-89814221D01*
X155475000Y-89837500D01*
X155475000Y-90412500D01*
X155473856Y-90435779D01*
X155470437Y-90458834D01*
X155464773Y-90481443D01*
X155456921Y-90503387D01*
X155446956Y-90524457D01*
X155434974Y-90544448D01*
X155421090Y-90563168D01*
X155405438Y-90580438D01*
X155388168Y-90596090D01*
X155369448Y-90609974D01*
X155349457Y-90621956D01*
X155328387Y-90631921D01*
X155306443Y-90639773D01*
X155283834Y-90645437D01*
X155260779Y-90648856D01*
X155237500Y-90650000D01*
X154762500Y-90650000D01*
X154739221Y-90648856D01*
X154716166Y-90645437D01*
X154693557Y-90639773D01*
X154671613Y-90631921D01*
X154650543Y-90621956D01*
X154630552Y-90609974D01*
X154611832Y-90596090D01*
X154594562Y-90580438D01*
X154578910Y-90563168D01*
X154565026Y-90544448D01*
X154553044Y-90524457D01*
X154543079Y-90503387D01*
X154535227Y-90481443D01*
X154529563Y-90458834D01*
X154526144Y-90435779D01*
X154525000Y-90412500D01*
X154525000Y-89837500D01*
X154526144Y-89814221D01*
X154529563Y-89791166D01*
X154535227Y-89768557D01*
X154543079Y-89746613D01*
X154553044Y-89725543D01*
X154565026Y-89705552D01*
X154578910Y-89686832D01*
X154594562Y-89669562D01*
X154611832Y-89653910D01*
X154630552Y-89640026D01*
X154650543Y-89628044D01*
X154671613Y-89618079D01*
X154693557Y-89610227D01*
X154716166Y-89604563D01*
X154739221Y-89601144D01*
X154762500Y-89600000D01*
X155237500Y-89600000D01*
X155260779Y-89601144D01*
G37*
G36*
X155260779Y-81351144D02*
G01*
X155283834Y-81354563D01*
X155306443Y-81360227D01*
X155328387Y-81368079D01*
X155349457Y-81378044D01*
X155369448Y-81390026D01*
X155388168Y-81403910D01*
X155405438Y-81419562D01*
X155421090Y-81436832D01*
X155434974Y-81455552D01*
X155446956Y-81475543D01*
X155456921Y-81496613D01*
X155464773Y-81518557D01*
X155470437Y-81541166D01*
X155473856Y-81564221D01*
X155475000Y-81587500D01*
X155475000Y-82162500D01*
X155473856Y-82185779D01*
X155470437Y-82208834D01*
X155464773Y-82231443D01*
X155456921Y-82253387D01*
X155446956Y-82274457D01*
X155434974Y-82294448D01*
X155421090Y-82313168D01*
X155405438Y-82330438D01*
X155388168Y-82346090D01*
X155369448Y-82359974D01*
X155349457Y-82371956D01*
X155328387Y-82381921D01*
X155306443Y-82389773D01*
X155283834Y-82395437D01*
X155260779Y-82398856D01*
X155237500Y-82400000D01*
X154762500Y-82400000D01*
X154739221Y-82398856D01*
X154716166Y-82395437D01*
X154693557Y-82389773D01*
X154671613Y-82381921D01*
X154650543Y-82371956D01*
X154630552Y-82359974D01*
X154611832Y-82346090D01*
X154594562Y-82330438D01*
X154578910Y-82313168D01*
X154565026Y-82294448D01*
X154553044Y-82274457D01*
X154543079Y-82253387D01*
X154535227Y-82231443D01*
X154529563Y-82208834D01*
X154526144Y-82185779D01*
X154525000Y-82162500D01*
X154525000Y-81587500D01*
X154526144Y-81564221D01*
X154529563Y-81541166D01*
X154535227Y-81518557D01*
X154543079Y-81496613D01*
X154553044Y-81475543D01*
X154565026Y-81455552D01*
X154578910Y-81436832D01*
X154594562Y-81419562D01*
X154611832Y-81403910D01*
X154630552Y-81390026D01*
X154650543Y-81378044D01*
X154671613Y-81368079D01*
X154693557Y-81360227D01*
X154716166Y-81354563D01*
X154739221Y-81351144D01*
X154762500Y-81350000D01*
X155237500Y-81350000D01*
X155260779Y-81351144D01*
G37*
G36*
X155260779Y-79601144D02*
G01*
X155283834Y-79604563D01*
X155306443Y-79610227D01*
X155328387Y-79618079D01*
X155349457Y-79628044D01*
X155369448Y-79640026D01*
X155388168Y-79653910D01*
X155405438Y-79669562D01*
X155421090Y-79686832D01*
X155434974Y-79705552D01*
X155446956Y-79725543D01*
X155456921Y-79746613D01*
X155464773Y-79768557D01*
X155470437Y-79791166D01*
X155473856Y-79814221D01*
X155475000Y-79837500D01*
X155475000Y-80412500D01*
X155473856Y-80435779D01*
X155470437Y-80458834D01*
X155464773Y-80481443D01*
X155456921Y-80503387D01*
X155446956Y-80524457D01*
X155434974Y-80544448D01*
X155421090Y-80563168D01*
X155405438Y-80580438D01*
X155388168Y-80596090D01*
X155369448Y-80609974D01*
X155349457Y-80621956D01*
X155328387Y-80631921D01*
X155306443Y-80639773D01*
X155283834Y-80645437D01*
X155260779Y-80648856D01*
X155237500Y-80650000D01*
X154762500Y-80650000D01*
X154739221Y-80648856D01*
X154716166Y-80645437D01*
X154693557Y-80639773D01*
X154671613Y-80631921D01*
X154650543Y-80621956D01*
X154630552Y-80609974D01*
X154611832Y-80596090D01*
X154594562Y-80580438D01*
X154578910Y-80563168D01*
X154565026Y-80544448D01*
X154553044Y-80524457D01*
X154543079Y-80503387D01*
X154535227Y-80481443D01*
X154529563Y-80458834D01*
X154526144Y-80435779D01*
X154525000Y-80412500D01*
X154525000Y-79837500D01*
X154526144Y-79814221D01*
X154529563Y-79791166D01*
X154535227Y-79768557D01*
X154543079Y-79746613D01*
X154553044Y-79725543D01*
X154565026Y-79705552D01*
X154578910Y-79686832D01*
X154594562Y-79669562D01*
X154611832Y-79653910D01*
X154630552Y-79640026D01*
X154650543Y-79628044D01*
X154671613Y-79618079D01*
X154693557Y-79610227D01*
X154716166Y-79604563D01*
X154739221Y-79601144D01*
X154762500Y-79600000D01*
X155237500Y-79600000D01*
X155260779Y-79601144D01*
G37*
G36*
X155260779Y-71351144D02*
G01*
X155283834Y-71354563D01*
X155306443Y-71360227D01*
X155328387Y-71368079D01*
X155349457Y-71378044D01*
X155369448Y-71390026D01*
X155388168Y-71403910D01*
X155405438Y-71419562D01*
X155421090Y-71436832D01*
X155434974Y-71455552D01*
X155446956Y-71475543D01*
X155456921Y-71496613D01*
X155464773Y-71518557D01*
X155470437Y-71541166D01*
X155473856Y-71564221D01*
X155475000Y-71587500D01*
X155475000Y-72162500D01*
X155473856Y-72185779D01*
X155470437Y-72208834D01*
X155464773Y-72231443D01*
X155456921Y-72253387D01*
X155446956Y-72274457D01*
X155434974Y-72294448D01*
X155421090Y-72313168D01*
X155405438Y-72330438D01*
X155388168Y-72346090D01*
X155369448Y-72359974D01*
X155349457Y-72371956D01*
X155328387Y-72381921D01*
X155306443Y-72389773D01*
X155283834Y-72395437D01*
X155260779Y-72398856D01*
X155237500Y-72400000D01*
X154762500Y-72400000D01*
X154739221Y-72398856D01*
X154716166Y-72395437D01*
X154693557Y-72389773D01*
X154671613Y-72381921D01*
X154650543Y-72371956D01*
X154630552Y-72359974D01*
X154611832Y-72346090D01*
X154594562Y-72330438D01*
X154578910Y-72313168D01*
X154565026Y-72294448D01*
X154553044Y-72274457D01*
X154543079Y-72253387D01*
X154535227Y-72231443D01*
X154529563Y-72208834D01*
X154526144Y-72185779D01*
X154525000Y-72162500D01*
X154525000Y-71587500D01*
X154526144Y-71564221D01*
X154529563Y-71541166D01*
X154535227Y-71518557D01*
X154543079Y-71496613D01*
X154553044Y-71475543D01*
X154565026Y-71455552D01*
X154578910Y-71436832D01*
X154594562Y-71419562D01*
X154611832Y-71403910D01*
X154630552Y-71390026D01*
X154650543Y-71378044D01*
X154671613Y-71368079D01*
X154693557Y-71360227D01*
X154716166Y-71354563D01*
X154739221Y-71351144D01*
X154762500Y-71350000D01*
X155237500Y-71350000D01*
X155260779Y-71351144D01*
G37*
G36*
X155260779Y-69601144D02*
G01*
X155283834Y-69604563D01*
X155306443Y-69610227D01*
X155328387Y-69618079D01*
X155349457Y-69628044D01*
X155369448Y-69640026D01*
X155388168Y-69653910D01*
X155405438Y-69669562D01*
X155421090Y-69686832D01*
X155434974Y-69705552D01*
X155446956Y-69725543D01*
X155456921Y-69746613D01*
X155464773Y-69768557D01*
X155470437Y-69791166D01*
X155473856Y-69814221D01*
X155475000Y-69837500D01*
X155475000Y-70412500D01*
X155473856Y-70435779D01*
X155470437Y-70458834D01*
X155464773Y-70481443D01*
X155456921Y-70503387D01*
X155446956Y-70524457D01*
X155434974Y-70544448D01*
X155421090Y-70563168D01*
X155405438Y-70580438D01*
X155388168Y-70596090D01*
X155369448Y-70609974D01*
X155349457Y-70621956D01*
X155328387Y-70631921D01*
X155306443Y-70639773D01*
X155283834Y-70645437D01*
X155260779Y-70648856D01*
X155237500Y-70650000D01*
X154762500Y-70650000D01*
X154739221Y-70648856D01*
X154716166Y-70645437D01*
X154693557Y-70639773D01*
X154671613Y-70631921D01*
X154650543Y-70621956D01*
X154630552Y-70609974D01*
X154611832Y-70596090D01*
X154594562Y-70580438D01*
X154578910Y-70563168D01*
X154565026Y-70544448D01*
X154553044Y-70524457D01*
X154543079Y-70503387D01*
X154535227Y-70481443D01*
X154529563Y-70458834D01*
X154526144Y-70435779D01*
X154525000Y-70412500D01*
X154525000Y-69837500D01*
X154526144Y-69814221D01*
X154529563Y-69791166D01*
X154535227Y-69768557D01*
X154543079Y-69746613D01*
X154553044Y-69725543D01*
X154565026Y-69705552D01*
X154578910Y-69686832D01*
X154594562Y-69669562D01*
X154611832Y-69653910D01*
X154630552Y-69640026D01*
X154650543Y-69628044D01*
X154671613Y-69618079D01*
X154693557Y-69610227D01*
X154716166Y-69604563D01*
X154739221Y-69601144D01*
X154762500Y-69600000D01*
X155237500Y-69600000D01*
X155260779Y-69601144D01*
G37*
G36*
X155260779Y-61351144D02*
G01*
X155283834Y-61354563D01*
X155306443Y-61360227D01*
X155328387Y-61368079D01*
X155349457Y-61378044D01*
X155369448Y-61390026D01*
X155388168Y-61403910D01*
X155405438Y-61419562D01*
X155421090Y-61436832D01*
X155434974Y-61455552D01*
X155446956Y-61475543D01*
X155456921Y-61496613D01*
X155464773Y-61518557D01*
X155470437Y-61541166D01*
X155473856Y-61564221D01*
X155475000Y-61587500D01*
X155475000Y-62162500D01*
X155473856Y-62185779D01*
X155470437Y-62208834D01*
X155464773Y-62231443D01*
X155456921Y-62253387D01*
X155446956Y-62274457D01*
X155434974Y-62294448D01*
X155421090Y-62313168D01*
X155405438Y-62330438D01*
X155388168Y-62346090D01*
X155369448Y-62359974D01*
X155349457Y-62371956D01*
X155328387Y-62381921D01*
X155306443Y-62389773D01*
X155283834Y-62395437D01*
X155260779Y-62398856D01*
X155237500Y-62400000D01*
X154762500Y-62400000D01*
X154739221Y-62398856D01*
X154716166Y-62395437D01*
X154693557Y-62389773D01*
X154671613Y-62381921D01*
X154650543Y-62371956D01*
X154630552Y-62359974D01*
X154611832Y-62346090D01*
X154594562Y-62330438D01*
X154578910Y-62313168D01*
X154565026Y-62294448D01*
X154553044Y-62274457D01*
X154543079Y-62253387D01*
X154535227Y-62231443D01*
X154529563Y-62208834D01*
X154526144Y-62185779D01*
X154525000Y-62162500D01*
X154525000Y-61587500D01*
X154526144Y-61564221D01*
X154529563Y-61541166D01*
X154535227Y-61518557D01*
X154543079Y-61496613D01*
X154553044Y-61475543D01*
X154565026Y-61455552D01*
X154578910Y-61436832D01*
X154594562Y-61419562D01*
X154611832Y-61403910D01*
X154630552Y-61390026D01*
X154650543Y-61378044D01*
X154671613Y-61368079D01*
X154693557Y-61360227D01*
X154716166Y-61354563D01*
X154739221Y-61351144D01*
X154762500Y-61350000D01*
X155237500Y-61350000D01*
X155260779Y-61351144D01*
G37*
G36*
X155260779Y-59601144D02*
G01*
X155283834Y-59604563D01*
X155306443Y-59610227D01*
X155328387Y-59618079D01*
X155349457Y-59628044D01*
X155369448Y-59640026D01*
X155388168Y-59653910D01*
X155405438Y-59669562D01*
X155421090Y-59686832D01*
X155434974Y-59705552D01*
X155446956Y-59725543D01*
X155456921Y-59746613D01*
X155464773Y-59768557D01*
X155470437Y-59791166D01*
X155473856Y-59814221D01*
X155475000Y-59837500D01*
X155475000Y-60412500D01*
X155473856Y-60435779D01*
X155470437Y-60458834D01*
X155464773Y-60481443D01*
X155456921Y-60503387D01*
X155446956Y-60524457D01*
X155434974Y-60544448D01*
X155421090Y-60563168D01*
X155405438Y-60580438D01*
X155388168Y-60596090D01*
X155369448Y-60609974D01*
X155349457Y-60621956D01*
X155328387Y-60631921D01*
X155306443Y-60639773D01*
X155283834Y-60645437D01*
X155260779Y-60648856D01*
X155237500Y-60650000D01*
X154762500Y-60650000D01*
X154739221Y-60648856D01*
X154716166Y-60645437D01*
X154693557Y-60639773D01*
X154671613Y-60631921D01*
X154650543Y-60621956D01*
X154630552Y-60609974D01*
X154611832Y-60596090D01*
X154594562Y-60580438D01*
X154578910Y-60563168D01*
X154565026Y-60544448D01*
X154553044Y-60524457D01*
X154543079Y-60503387D01*
X154535227Y-60481443D01*
X154529563Y-60458834D01*
X154526144Y-60435779D01*
X154525000Y-60412500D01*
X154525000Y-59837500D01*
X154526144Y-59814221D01*
X154529563Y-59791166D01*
X154535227Y-59768557D01*
X154543079Y-59746613D01*
X154553044Y-59725543D01*
X154565026Y-59705552D01*
X154578910Y-59686832D01*
X154594562Y-59669562D01*
X154611832Y-59653910D01*
X154630552Y-59640026D01*
X154650543Y-59628044D01*
X154671613Y-59618079D01*
X154693557Y-59610227D01*
X154716166Y-59604563D01*
X154739221Y-59601144D01*
X154762500Y-59600000D01*
X155237500Y-59600000D01*
X155260779Y-59601144D01*
G37*
G36*
X177635779Y-18916144D02*
G01*
X177658834Y-18919563D01*
X177681443Y-18925227D01*
X177703387Y-18933079D01*
X177724457Y-18943044D01*
X177744448Y-18955026D01*
X177763168Y-18968910D01*
X177780438Y-18984562D01*
X177796090Y-19001832D01*
X177809974Y-19020552D01*
X177821956Y-19040543D01*
X177831921Y-19061613D01*
X177839773Y-19083557D01*
X177845437Y-19106166D01*
X177848856Y-19129221D01*
X177850000Y-19152500D01*
X177850000Y-19627500D01*
X177848856Y-19650779D01*
X177845437Y-19673834D01*
X177839773Y-19696443D01*
X177831921Y-19718387D01*
X177821956Y-19739457D01*
X177809974Y-19759448D01*
X177796090Y-19778168D01*
X177780438Y-19795438D01*
X177763168Y-19811090D01*
X177744448Y-19824974D01*
X177724457Y-19836956D01*
X177703387Y-19846921D01*
X177681443Y-19854773D01*
X177658834Y-19860437D01*
X177635779Y-19863856D01*
X177612500Y-19865000D01*
X177037500Y-19865000D01*
X177014221Y-19863856D01*
X176991166Y-19860437D01*
X176968557Y-19854773D01*
X176946613Y-19846921D01*
X176925543Y-19836956D01*
X176905552Y-19824974D01*
X176886832Y-19811090D01*
X176869562Y-19795438D01*
X176853910Y-19778168D01*
X176840026Y-19759448D01*
X176828044Y-19739457D01*
X176818079Y-19718387D01*
X176810227Y-19696443D01*
X176804563Y-19673834D01*
X176801144Y-19650779D01*
X176800000Y-19627500D01*
X176800000Y-19152500D01*
X176801144Y-19129221D01*
X176804563Y-19106166D01*
X176810227Y-19083557D01*
X176818079Y-19061613D01*
X176828044Y-19040543D01*
X176840026Y-19020552D01*
X176853910Y-19001832D01*
X176869562Y-18984562D01*
X176886832Y-18968910D01*
X176905552Y-18955026D01*
X176925543Y-18943044D01*
X176946613Y-18933079D01*
X176968557Y-18925227D01*
X176991166Y-18919563D01*
X177014221Y-18916144D01*
X177037500Y-18915000D01*
X177612500Y-18915000D01*
X177635779Y-18916144D01*
G37*
G36*
X175885779Y-18916144D02*
G01*
X175908834Y-18919563D01*
X175931443Y-18925227D01*
X175953387Y-18933079D01*
X175974457Y-18943044D01*
X175994448Y-18955026D01*
X176013168Y-18968910D01*
X176030438Y-18984562D01*
X176046090Y-19001832D01*
X176059974Y-19020552D01*
X176071956Y-19040543D01*
X176081921Y-19061613D01*
X176089773Y-19083557D01*
X176095437Y-19106166D01*
X176098856Y-19129221D01*
X176100000Y-19152500D01*
X176100000Y-19627500D01*
X176098856Y-19650779D01*
X176095437Y-19673834D01*
X176089773Y-19696443D01*
X176081921Y-19718387D01*
X176071956Y-19739457D01*
X176059974Y-19759448D01*
X176046090Y-19778168D01*
X176030438Y-19795438D01*
X176013168Y-19811090D01*
X175994448Y-19824974D01*
X175974457Y-19836956D01*
X175953387Y-19846921D01*
X175931443Y-19854773D01*
X175908834Y-19860437D01*
X175885779Y-19863856D01*
X175862500Y-19865000D01*
X175287500Y-19865000D01*
X175264221Y-19863856D01*
X175241166Y-19860437D01*
X175218557Y-19854773D01*
X175196613Y-19846921D01*
X175175543Y-19836956D01*
X175155552Y-19824974D01*
X175136832Y-19811090D01*
X175119562Y-19795438D01*
X175103910Y-19778168D01*
X175090026Y-19759448D01*
X175078044Y-19739457D01*
X175068079Y-19718387D01*
X175060227Y-19696443D01*
X175054563Y-19673834D01*
X175051144Y-19650779D01*
X175050000Y-19627500D01*
X175050000Y-19152500D01*
X175051144Y-19129221D01*
X175054563Y-19106166D01*
X175060227Y-19083557D01*
X175068079Y-19061613D01*
X175078044Y-19040543D01*
X175090026Y-19020552D01*
X175103910Y-19001832D01*
X175119562Y-18984562D01*
X175136832Y-18968910D01*
X175155552Y-18955026D01*
X175175543Y-18943044D01*
X175196613Y-18933079D01*
X175218557Y-18925227D01*
X175241166Y-18919563D01*
X175264221Y-18916144D01*
X175287500Y-18915000D01*
X175862500Y-18915000D01*
X175885779Y-18916144D01*
G37*
G36*
X177635779Y-21426144D02*
G01*
X177658834Y-21429563D01*
X177681443Y-21435227D01*
X177703387Y-21443079D01*
X177724457Y-21453044D01*
X177744448Y-21465026D01*
X177763168Y-21478910D01*
X177780438Y-21494562D01*
X177796090Y-21511832D01*
X177809974Y-21530552D01*
X177821956Y-21550543D01*
X177831921Y-21571613D01*
X177839773Y-21593557D01*
X177845437Y-21616166D01*
X177848856Y-21639221D01*
X177850000Y-21662500D01*
X177850000Y-22137500D01*
X177848856Y-22160779D01*
X177845437Y-22183834D01*
X177839773Y-22206443D01*
X177831921Y-22228387D01*
X177821956Y-22249457D01*
X177809974Y-22269448D01*
X177796090Y-22288168D01*
X177780438Y-22305438D01*
X177763168Y-22321090D01*
X177744448Y-22334974D01*
X177724457Y-22346956D01*
X177703387Y-22356921D01*
X177681443Y-22364773D01*
X177658834Y-22370437D01*
X177635779Y-22373856D01*
X177612500Y-22375000D01*
X177037500Y-22375000D01*
X177014221Y-22373856D01*
X176991166Y-22370437D01*
X176968557Y-22364773D01*
X176946613Y-22356921D01*
X176925543Y-22346956D01*
X176905552Y-22334974D01*
X176886832Y-22321090D01*
X176869562Y-22305438D01*
X176853910Y-22288168D01*
X176840026Y-22269448D01*
X176828044Y-22249457D01*
X176818079Y-22228387D01*
X176810227Y-22206443D01*
X176804563Y-22183834D01*
X176801144Y-22160779D01*
X176800000Y-22137500D01*
X176800000Y-21662500D01*
X176801144Y-21639221D01*
X176804563Y-21616166D01*
X176810227Y-21593557D01*
X176818079Y-21571613D01*
X176828044Y-21550543D01*
X176840026Y-21530552D01*
X176853910Y-21511832D01*
X176869562Y-21494562D01*
X176886832Y-21478910D01*
X176905552Y-21465026D01*
X176925543Y-21453044D01*
X176946613Y-21443079D01*
X176968557Y-21435227D01*
X176991166Y-21429563D01*
X177014221Y-21426144D01*
X177037500Y-21425000D01*
X177612500Y-21425000D01*
X177635779Y-21426144D01*
G37*
G36*
X175885779Y-21426144D02*
G01*
X175908834Y-21429563D01*
X175931443Y-21435227D01*
X175953387Y-21443079D01*
X175974457Y-21453044D01*
X175994448Y-21465026D01*
X176013168Y-21478910D01*
X176030438Y-21494562D01*
X176046090Y-21511832D01*
X176059974Y-21530552D01*
X176071956Y-21550543D01*
X176081921Y-21571613D01*
X176089773Y-21593557D01*
X176095437Y-21616166D01*
X176098856Y-21639221D01*
X176100000Y-21662500D01*
X176100000Y-22137500D01*
X176098856Y-22160779D01*
X176095437Y-22183834D01*
X176089773Y-22206443D01*
X176081921Y-22228387D01*
X176071956Y-22249457D01*
X176059974Y-22269448D01*
X176046090Y-22288168D01*
X176030438Y-22305438D01*
X176013168Y-22321090D01*
X175994448Y-22334974D01*
X175974457Y-22346956D01*
X175953387Y-22356921D01*
X175931443Y-22364773D01*
X175908834Y-22370437D01*
X175885779Y-22373856D01*
X175862500Y-22375000D01*
X175287500Y-22375000D01*
X175264221Y-22373856D01*
X175241166Y-22370437D01*
X175218557Y-22364773D01*
X175196613Y-22356921D01*
X175175543Y-22346956D01*
X175155552Y-22334974D01*
X175136832Y-22321090D01*
X175119562Y-22305438D01*
X175103910Y-22288168D01*
X175090026Y-22269448D01*
X175078044Y-22249457D01*
X175068079Y-22228387D01*
X175060227Y-22206443D01*
X175054563Y-22183834D01*
X175051144Y-22160779D01*
X175050000Y-22137500D01*
X175050000Y-21662500D01*
X175051144Y-21639221D01*
X175054563Y-21616166D01*
X175060227Y-21593557D01*
X175068079Y-21571613D01*
X175078044Y-21550543D01*
X175090026Y-21530552D01*
X175103910Y-21511832D01*
X175119562Y-21494562D01*
X175136832Y-21478910D01*
X175155552Y-21465026D01*
X175175543Y-21453044D01*
X175196613Y-21443079D01*
X175218557Y-21435227D01*
X175241166Y-21429563D01*
X175264221Y-21426144D01*
X175287500Y-21425000D01*
X175862500Y-21425000D01*
X175885779Y-21426144D01*
G37*
G36*
X155260779Y-51351144D02*
G01*
X155283834Y-51354563D01*
X155306443Y-51360227D01*
X155328387Y-51368079D01*
X155349457Y-51378044D01*
X155369448Y-51390026D01*
X155388168Y-51403910D01*
X155405438Y-51419562D01*
X155421090Y-51436832D01*
X155434974Y-51455552D01*
X155446956Y-51475543D01*
X155456921Y-51496613D01*
X155464773Y-51518557D01*
X155470437Y-51541166D01*
X155473856Y-51564221D01*
X155475000Y-51587500D01*
X155475000Y-52162500D01*
X155473856Y-52185779D01*
X155470437Y-52208834D01*
X155464773Y-52231443D01*
X155456921Y-52253387D01*
X155446956Y-52274457D01*
X155434974Y-52294448D01*
X155421090Y-52313168D01*
X155405438Y-52330438D01*
X155388168Y-52346090D01*
X155369448Y-52359974D01*
X155349457Y-52371956D01*
X155328387Y-52381921D01*
X155306443Y-52389773D01*
X155283834Y-52395437D01*
X155260779Y-52398856D01*
X155237500Y-52400000D01*
X154762500Y-52400000D01*
X154739221Y-52398856D01*
X154716166Y-52395437D01*
X154693557Y-52389773D01*
X154671613Y-52381921D01*
X154650543Y-52371956D01*
X154630552Y-52359974D01*
X154611832Y-52346090D01*
X154594562Y-52330438D01*
X154578910Y-52313168D01*
X154565026Y-52294448D01*
X154553044Y-52274457D01*
X154543079Y-52253387D01*
X154535227Y-52231443D01*
X154529563Y-52208834D01*
X154526144Y-52185779D01*
X154525000Y-52162500D01*
X154525000Y-51587500D01*
X154526144Y-51564221D01*
X154529563Y-51541166D01*
X154535227Y-51518557D01*
X154543079Y-51496613D01*
X154553044Y-51475543D01*
X154565026Y-51455552D01*
X154578910Y-51436832D01*
X154594562Y-51419562D01*
X154611832Y-51403910D01*
X154630552Y-51390026D01*
X154650543Y-51378044D01*
X154671613Y-51368079D01*
X154693557Y-51360227D01*
X154716166Y-51354563D01*
X154739221Y-51351144D01*
X154762500Y-51350000D01*
X155237500Y-51350000D01*
X155260779Y-51351144D01*
G37*
G36*
X155260779Y-49601144D02*
G01*
X155283834Y-49604563D01*
X155306443Y-49610227D01*
X155328387Y-49618079D01*
X155349457Y-49628044D01*
X155369448Y-49640026D01*
X155388168Y-49653910D01*
X155405438Y-49669562D01*
X155421090Y-49686832D01*
X155434974Y-49705552D01*
X155446956Y-49725543D01*
X155456921Y-49746613D01*
X155464773Y-49768557D01*
X155470437Y-49791166D01*
X155473856Y-49814221D01*
X155475000Y-49837500D01*
X155475000Y-50412500D01*
X155473856Y-50435779D01*
X155470437Y-50458834D01*
X155464773Y-50481443D01*
X155456921Y-50503387D01*
X155446956Y-50524457D01*
X155434974Y-50544448D01*
X155421090Y-50563168D01*
X155405438Y-50580438D01*
X155388168Y-50596090D01*
X155369448Y-50609974D01*
X155349457Y-50621956D01*
X155328387Y-50631921D01*
X155306443Y-50639773D01*
X155283834Y-50645437D01*
X155260779Y-50648856D01*
X155237500Y-50650000D01*
X154762500Y-50650000D01*
X154739221Y-50648856D01*
X154716166Y-50645437D01*
X154693557Y-50639773D01*
X154671613Y-50631921D01*
X154650543Y-50621956D01*
X154630552Y-50609974D01*
X154611832Y-50596090D01*
X154594562Y-50580438D01*
X154578910Y-50563168D01*
X154565026Y-50544448D01*
X154553044Y-50524457D01*
X154543079Y-50503387D01*
X154535227Y-50481443D01*
X154529563Y-50458834D01*
X154526144Y-50435779D01*
X154525000Y-50412500D01*
X154525000Y-49837500D01*
X154526144Y-49814221D01*
X154529563Y-49791166D01*
X154535227Y-49768557D01*
X154543079Y-49746613D01*
X154553044Y-49725543D01*
X154565026Y-49705552D01*
X154578910Y-49686832D01*
X154594562Y-49669562D01*
X154611832Y-49653910D01*
X154630552Y-49640026D01*
X154650543Y-49628044D01*
X154671613Y-49618079D01*
X154693557Y-49610227D01*
X154716166Y-49604563D01*
X154739221Y-49601144D01*
X154762500Y-49600000D01*
X155237500Y-49600000D01*
X155260779Y-49601144D01*
G37*
D11*
X169000000Y-125000000D03*
X167000000Y-125950000D03*
X167000000Y-124050000D03*
X169000000Y-115000000D03*
X167000000Y-115950000D03*
X167000000Y-114050000D03*
X169000000Y-105000000D03*
X167000000Y-105950000D03*
X167000000Y-104050000D03*
X169000000Y-95000000D03*
X167000000Y-95950000D03*
X167000000Y-94050000D03*
X169000000Y-85000000D03*
X167000000Y-85950000D03*
X167000000Y-84050000D03*
X169000000Y-75000000D03*
X167000000Y-75950000D03*
X167000000Y-74050000D03*
X169000000Y-65000000D03*
X167000000Y-65950000D03*
X167000000Y-64050000D03*
X169000000Y-55000000D03*
X167000000Y-55950000D03*
X167000000Y-54050000D03*
D10*
G36*
X151174505Y-17901204D02*
G01*
X151198773Y-17904804D01*
X151222572Y-17910765D01*
X151245671Y-17919030D01*
X151267850Y-17929520D01*
X151288893Y-17942132D01*
X151308599Y-17956747D01*
X151326777Y-17973223D01*
X151343253Y-17991401D01*
X151357868Y-18011107D01*
X151370480Y-18032150D01*
X151380970Y-18054329D01*
X151389235Y-18077428D01*
X151395196Y-18101227D01*
X151398796Y-18125495D01*
X151400000Y-18149999D01*
X151400000Y-19450001D01*
X151398796Y-19474505D01*
X151395196Y-19498773D01*
X151389235Y-19522572D01*
X151380970Y-19545671D01*
X151370480Y-19567850D01*
X151357868Y-19588893D01*
X151343253Y-19608599D01*
X151326777Y-19626777D01*
X151308599Y-19643253D01*
X151288893Y-19657868D01*
X151267850Y-19670480D01*
X151245671Y-19680970D01*
X151222572Y-19689235D01*
X151198773Y-19695196D01*
X151174505Y-19698796D01*
X151150001Y-19700000D01*
X150449999Y-19700000D01*
X150425495Y-19698796D01*
X150401227Y-19695196D01*
X150377428Y-19689235D01*
X150354329Y-19680970D01*
X150332150Y-19670480D01*
X150311107Y-19657868D01*
X150291401Y-19643253D01*
X150273223Y-19626777D01*
X150256747Y-19608599D01*
X150242132Y-19588893D01*
X150229520Y-19567850D01*
X150219030Y-19545671D01*
X150210765Y-19522572D01*
X150204804Y-19498773D01*
X150201204Y-19474505D01*
X150200000Y-19450001D01*
X150200000Y-18149999D01*
X150201204Y-18125495D01*
X150204804Y-18101227D01*
X150210765Y-18077428D01*
X150219030Y-18054329D01*
X150229520Y-18032150D01*
X150242132Y-18011107D01*
X150256747Y-17991401D01*
X150273223Y-17973223D01*
X150291401Y-17956747D01*
X150311107Y-17942132D01*
X150332150Y-17929520D01*
X150354329Y-17919030D01*
X150377428Y-17910765D01*
X150401227Y-17904804D01*
X150425495Y-17901204D01*
X150449999Y-17900000D01*
X151150001Y-17900000D01*
X151174505Y-17901204D01*
G37*
G36*
X145574505Y-17901204D02*
G01*
X145598773Y-17904804D01*
X145622572Y-17910765D01*
X145645671Y-17919030D01*
X145667850Y-17929520D01*
X145688893Y-17942132D01*
X145708599Y-17956747D01*
X145726777Y-17973223D01*
X145743253Y-17991401D01*
X145757868Y-18011107D01*
X145770480Y-18032150D01*
X145780970Y-18054329D01*
X145789235Y-18077428D01*
X145795196Y-18101227D01*
X145798796Y-18125495D01*
X145800000Y-18149999D01*
X145800000Y-19450001D01*
X145798796Y-19474505D01*
X145795196Y-19498773D01*
X145789235Y-19522572D01*
X145780970Y-19545671D01*
X145770480Y-19567850D01*
X145757868Y-19588893D01*
X145743253Y-19608599D01*
X145726777Y-19626777D01*
X145708599Y-19643253D01*
X145688893Y-19657868D01*
X145667850Y-19670480D01*
X145645671Y-19680970D01*
X145622572Y-19689235D01*
X145598773Y-19695196D01*
X145574505Y-19698796D01*
X145550001Y-19700000D01*
X144849999Y-19700000D01*
X144825495Y-19698796D01*
X144801227Y-19695196D01*
X144777428Y-19689235D01*
X144754329Y-19680970D01*
X144732150Y-19670480D01*
X144711107Y-19657868D01*
X144691401Y-19643253D01*
X144673223Y-19626777D01*
X144656747Y-19608599D01*
X144642132Y-19588893D01*
X144629520Y-19567850D01*
X144619030Y-19545671D01*
X144610765Y-19522572D01*
X144604804Y-19498773D01*
X144601204Y-19474505D01*
X144600000Y-19450001D01*
X144600000Y-18149999D01*
X144601204Y-18125495D01*
X144604804Y-18101227D01*
X144610765Y-18077428D01*
X144619030Y-18054329D01*
X144629520Y-18032150D01*
X144642132Y-18011107D01*
X144656747Y-17991401D01*
X144673223Y-17973223D01*
X144691401Y-17956747D01*
X144711107Y-17942132D01*
X144732150Y-17929520D01*
X144754329Y-17919030D01*
X144777428Y-17910765D01*
X144801227Y-17904804D01*
X144825495Y-17901204D01*
X144849999Y-17900000D01*
X145550001Y-17900000D01*
X145574505Y-17901204D01*
G37*
G36*
X149664703Y-20550722D02*
G01*
X149679264Y-20552882D01*
X149693543Y-20556459D01*
X149707403Y-20561418D01*
X149720710Y-20567712D01*
X149733336Y-20575280D01*
X149745159Y-20584048D01*
X149756066Y-20593934D01*
X149765952Y-20604841D01*
X149774720Y-20616664D01*
X149782288Y-20629290D01*
X149788582Y-20642597D01*
X149793541Y-20656457D01*
X149797118Y-20670736D01*
X149799278Y-20685297D01*
X149800000Y-20700000D01*
X149800000Y-21950000D01*
X149799278Y-21964703D01*
X149797118Y-21979264D01*
X149793541Y-21993543D01*
X149788582Y-22007403D01*
X149782288Y-22020710D01*
X149774720Y-22033336D01*
X149765952Y-22045159D01*
X149756066Y-22056066D01*
X149745159Y-22065952D01*
X149733336Y-22074720D01*
X149720710Y-22082288D01*
X149707403Y-22088582D01*
X149693543Y-22093541D01*
X149679264Y-22097118D01*
X149664703Y-22099278D01*
X149650000Y-22100000D01*
X149350000Y-22100000D01*
X149335297Y-22099278D01*
X149320736Y-22097118D01*
X149306457Y-22093541D01*
X149292597Y-22088582D01*
X149279290Y-22082288D01*
X149266664Y-22074720D01*
X149254841Y-22065952D01*
X149243934Y-22056066D01*
X149234048Y-22045159D01*
X149225280Y-22033336D01*
X149217712Y-22020710D01*
X149211418Y-22007403D01*
X149206459Y-21993543D01*
X149202882Y-21979264D01*
X149200722Y-21964703D01*
X149200000Y-21950000D01*
X149200000Y-20700000D01*
X149200722Y-20685297D01*
X149202882Y-20670736D01*
X149206459Y-20656457D01*
X149211418Y-20642597D01*
X149217712Y-20629290D01*
X149225280Y-20616664D01*
X149234048Y-20604841D01*
X149243934Y-20593934D01*
X149254841Y-20584048D01*
X149266664Y-20575280D01*
X149279290Y-20567712D01*
X149292597Y-20561418D01*
X149306457Y-20556459D01*
X149320736Y-20552882D01*
X149335297Y-20550722D01*
X149350000Y-20550000D01*
X149650000Y-20550000D01*
X149664703Y-20550722D01*
G37*
G36*
X148664703Y-20550722D02*
G01*
X148679264Y-20552882D01*
X148693543Y-20556459D01*
X148707403Y-20561418D01*
X148720710Y-20567712D01*
X148733336Y-20575280D01*
X148745159Y-20584048D01*
X148756066Y-20593934D01*
X148765952Y-20604841D01*
X148774720Y-20616664D01*
X148782288Y-20629290D01*
X148788582Y-20642597D01*
X148793541Y-20656457D01*
X148797118Y-20670736D01*
X148799278Y-20685297D01*
X148800000Y-20700000D01*
X148800000Y-21950000D01*
X148799278Y-21964703D01*
X148797118Y-21979264D01*
X148793541Y-21993543D01*
X148788582Y-22007403D01*
X148782288Y-22020710D01*
X148774720Y-22033336D01*
X148765952Y-22045159D01*
X148756066Y-22056066D01*
X148745159Y-22065952D01*
X148733336Y-22074720D01*
X148720710Y-22082288D01*
X148707403Y-22088582D01*
X148693543Y-22093541D01*
X148679264Y-22097118D01*
X148664703Y-22099278D01*
X148650000Y-22100000D01*
X148350000Y-22100000D01*
X148335297Y-22099278D01*
X148320736Y-22097118D01*
X148306457Y-22093541D01*
X148292597Y-22088582D01*
X148279290Y-22082288D01*
X148266664Y-22074720D01*
X148254841Y-22065952D01*
X148243934Y-22056066D01*
X148234048Y-22045159D01*
X148225280Y-22033336D01*
X148217712Y-22020710D01*
X148211418Y-22007403D01*
X148206459Y-21993543D01*
X148202882Y-21979264D01*
X148200722Y-21964703D01*
X148200000Y-21950000D01*
X148200000Y-20700000D01*
X148200722Y-20685297D01*
X148202882Y-20670736D01*
X148206459Y-20656457D01*
X148211418Y-20642597D01*
X148217712Y-20629290D01*
X148225280Y-20616664D01*
X148234048Y-20604841D01*
X148243934Y-20593934D01*
X148254841Y-20584048D01*
X148266664Y-20575280D01*
X148279290Y-20567712D01*
X148292597Y-20561418D01*
X148306457Y-20556459D01*
X148320736Y-20552882D01*
X148335297Y-20550722D01*
X148350000Y-20550000D01*
X148650000Y-20550000D01*
X148664703Y-20550722D01*
G37*
G36*
X147664703Y-20550722D02*
G01*
X147679264Y-20552882D01*
X147693543Y-20556459D01*
X147707403Y-20561418D01*
X147720710Y-20567712D01*
X147733336Y-20575280D01*
X147745159Y-20584048D01*
X147756066Y-20593934D01*
X147765952Y-20604841D01*
X147774720Y-20616664D01*
X147782288Y-20629290D01*
X147788582Y-20642597D01*
X147793541Y-20656457D01*
X147797118Y-20670736D01*
X147799278Y-20685297D01*
X147800000Y-20700000D01*
X147800000Y-21950000D01*
X147799278Y-21964703D01*
X147797118Y-21979264D01*
X147793541Y-21993543D01*
X147788582Y-22007403D01*
X147782288Y-22020710D01*
X147774720Y-22033336D01*
X147765952Y-22045159D01*
X147756066Y-22056066D01*
X147745159Y-22065952D01*
X147733336Y-22074720D01*
X147720710Y-22082288D01*
X147707403Y-22088582D01*
X147693543Y-22093541D01*
X147679264Y-22097118D01*
X147664703Y-22099278D01*
X147650000Y-22100000D01*
X147350000Y-22100000D01*
X147335297Y-22099278D01*
X147320736Y-22097118D01*
X147306457Y-22093541D01*
X147292597Y-22088582D01*
X147279290Y-22082288D01*
X147266664Y-22074720D01*
X147254841Y-22065952D01*
X147243934Y-22056066D01*
X147234048Y-22045159D01*
X147225280Y-22033336D01*
X147217712Y-22020710D01*
X147211418Y-22007403D01*
X147206459Y-21993543D01*
X147202882Y-21979264D01*
X147200722Y-21964703D01*
X147200000Y-21950000D01*
X147200000Y-20700000D01*
X147200722Y-20685297D01*
X147202882Y-20670736D01*
X147206459Y-20656457D01*
X147211418Y-20642597D01*
X147217712Y-20629290D01*
X147225280Y-20616664D01*
X147234048Y-20604841D01*
X147243934Y-20593934D01*
X147254841Y-20584048D01*
X147266664Y-20575280D01*
X147279290Y-20567712D01*
X147292597Y-20561418D01*
X147306457Y-20556459D01*
X147320736Y-20552882D01*
X147335297Y-20550722D01*
X147350000Y-20550000D01*
X147650000Y-20550000D01*
X147664703Y-20550722D01*
G37*
G36*
X146664703Y-20550722D02*
G01*
X146679264Y-20552882D01*
X146693543Y-20556459D01*
X146707403Y-20561418D01*
X146720710Y-20567712D01*
X146733336Y-20575280D01*
X146745159Y-20584048D01*
X146756066Y-20593934D01*
X146765952Y-20604841D01*
X146774720Y-20616664D01*
X146782288Y-20629290D01*
X146788582Y-20642597D01*
X146793541Y-20656457D01*
X146797118Y-20670736D01*
X146799278Y-20685297D01*
X146800000Y-20700000D01*
X146800000Y-21950000D01*
X146799278Y-21964703D01*
X146797118Y-21979264D01*
X146793541Y-21993543D01*
X146788582Y-22007403D01*
X146782288Y-22020710D01*
X146774720Y-22033336D01*
X146765952Y-22045159D01*
X146756066Y-22056066D01*
X146745159Y-22065952D01*
X146733336Y-22074720D01*
X146720710Y-22082288D01*
X146707403Y-22088582D01*
X146693543Y-22093541D01*
X146679264Y-22097118D01*
X146664703Y-22099278D01*
X146650000Y-22100000D01*
X146350000Y-22100000D01*
X146335297Y-22099278D01*
X146320736Y-22097118D01*
X146306457Y-22093541D01*
X146292597Y-22088582D01*
X146279290Y-22082288D01*
X146266664Y-22074720D01*
X146254841Y-22065952D01*
X146243934Y-22056066D01*
X146234048Y-22045159D01*
X146225280Y-22033336D01*
X146217712Y-22020710D01*
X146211418Y-22007403D01*
X146206459Y-21993543D01*
X146202882Y-21979264D01*
X146200722Y-21964703D01*
X146200000Y-21950000D01*
X146200000Y-20700000D01*
X146200722Y-20685297D01*
X146202882Y-20670736D01*
X146206459Y-20656457D01*
X146211418Y-20642597D01*
X146217712Y-20629290D01*
X146225280Y-20616664D01*
X146234048Y-20604841D01*
X146243934Y-20593934D01*
X146254841Y-20584048D01*
X146266664Y-20575280D01*
X146279290Y-20567712D01*
X146292597Y-20561418D01*
X146306457Y-20556459D01*
X146320736Y-20552882D01*
X146335297Y-20550722D01*
X146350000Y-20550000D01*
X146650000Y-20550000D01*
X146664703Y-20550722D01*
G37*
G36*
X172514703Y-17905722D02*
G01*
X172529264Y-17907882D01*
X172543543Y-17911459D01*
X172557403Y-17916418D01*
X172570710Y-17922712D01*
X172583336Y-17930280D01*
X172595159Y-17939048D01*
X172606066Y-17948934D01*
X172615952Y-17959841D01*
X172624720Y-17971664D01*
X172632288Y-17984290D01*
X172638582Y-17997597D01*
X172643541Y-18011457D01*
X172647118Y-18025736D01*
X172649278Y-18040297D01*
X172650000Y-18055000D01*
X172650000Y-18355000D01*
X172649278Y-18369703D01*
X172647118Y-18384264D01*
X172643541Y-18398543D01*
X172638582Y-18412403D01*
X172632288Y-18425710D01*
X172624720Y-18438336D01*
X172615952Y-18450159D01*
X172606066Y-18461066D01*
X172595159Y-18470952D01*
X172583336Y-18479720D01*
X172570710Y-18487288D01*
X172557403Y-18493582D01*
X172543543Y-18498541D01*
X172529264Y-18502118D01*
X172514703Y-18504278D01*
X172500000Y-18505000D01*
X170850000Y-18505000D01*
X170835297Y-18504278D01*
X170820736Y-18502118D01*
X170806457Y-18498541D01*
X170792597Y-18493582D01*
X170779290Y-18487288D01*
X170766664Y-18479720D01*
X170754841Y-18470952D01*
X170743934Y-18461066D01*
X170734048Y-18450159D01*
X170725280Y-18438336D01*
X170717712Y-18425710D01*
X170711418Y-18412403D01*
X170706459Y-18398543D01*
X170702882Y-18384264D01*
X170700722Y-18369703D01*
X170700000Y-18355000D01*
X170700000Y-18055000D01*
X170700722Y-18040297D01*
X170702882Y-18025736D01*
X170706459Y-18011457D01*
X170711418Y-17997597D01*
X170717712Y-17984290D01*
X170725280Y-17971664D01*
X170734048Y-17959841D01*
X170743934Y-17948934D01*
X170754841Y-17939048D01*
X170766664Y-17930280D01*
X170779290Y-17922712D01*
X170792597Y-17916418D01*
X170806457Y-17911459D01*
X170820736Y-17907882D01*
X170835297Y-17905722D01*
X170850000Y-17905000D01*
X172500000Y-17905000D01*
X172514703Y-17905722D01*
G37*
G36*
X172514703Y-19175722D02*
G01*
X172529264Y-19177882D01*
X172543543Y-19181459D01*
X172557403Y-19186418D01*
X172570710Y-19192712D01*
X172583336Y-19200280D01*
X172595159Y-19209048D01*
X172606066Y-19218934D01*
X172615952Y-19229841D01*
X172624720Y-19241664D01*
X172632288Y-19254290D01*
X172638582Y-19267597D01*
X172643541Y-19281457D01*
X172647118Y-19295736D01*
X172649278Y-19310297D01*
X172650000Y-19325000D01*
X172650000Y-19625000D01*
X172649278Y-19639703D01*
X172647118Y-19654264D01*
X172643541Y-19668543D01*
X172638582Y-19682403D01*
X172632288Y-19695710D01*
X172624720Y-19708336D01*
X172615952Y-19720159D01*
X172606066Y-19731066D01*
X172595159Y-19740952D01*
X172583336Y-19749720D01*
X172570710Y-19757288D01*
X172557403Y-19763582D01*
X172543543Y-19768541D01*
X172529264Y-19772118D01*
X172514703Y-19774278D01*
X172500000Y-19775000D01*
X170850000Y-19775000D01*
X170835297Y-19774278D01*
X170820736Y-19772118D01*
X170806457Y-19768541D01*
X170792597Y-19763582D01*
X170779290Y-19757288D01*
X170766664Y-19749720D01*
X170754841Y-19740952D01*
X170743934Y-19731066D01*
X170734048Y-19720159D01*
X170725280Y-19708336D01*
X170717712Y-19695710D01*
X170711418Y-19682403D01*
X170706459Y-19668543D01*
X170702882Y-19654264D01*
X170700722Y-19639703D01*
X170700000Y-19625000D01*
X170700000Y-19325000D01*
X170700722Y-19310297D01*
X170702882Y-19295736D01*
X170706459Y-19281457D01*
X170711418Y-19267597D01*
X170717712Y-19254290D01*
X170725280Y-19241664D01*
X170734048Y-19229841D01*
X170743934Y-19218934D01*
X170754841Y-19209048D01*
X170766664Y-19200280D01*
X170779290Y-19192712D01*
X170792597Y-19186418D01*
X170806457Y-19181459D01*
X170820736Y-19177882D01*
X170835297Y-19175722D01*
X170850000Y-19175000D01*
X172500000Y-19175000D01*
X172514703Y-19175722D01*
G37*
G36*
X172514703Y-20445722D02*
G01*
X172529264Y-20447882D01*
X172543543Y-20451459D01*
X172557403Y-20456418D01*
X172570710Y-20462712D01*
X172583336Y-20470280D01*
X172595159Y-20479048D01*
X172606066Y-20488934D01*
X172615952Y-20499841D01*
X172624720Y-20511664D01*
X172632288Y-20524290D01*
X172638582Y-20537597D01*
X172643541Y-20551457D01*
X172647118Y-20565736D01*
X172649278Y-20580297D01*
X172650000Y-20595000D01*
X172650000Y-20895000D01*
X172649278Y-20909703D01*
X172647118Y-20924264D01*
X172643541Y-20938543D01*
X172638582Y-20952403D01*
X172632288Y-20965710D01*
X172624720Y-20978336D01*
X172615952Y-20990159D01*
X172606066Y-21001066D01*
X172595159Y-21010952D01*
X172583336Y-21019720D01*
X172570710Y-21027288D01*
X172557403Y-21033582D01*
X172543543Y-21038541D01*
X172529264Y-21042118D01*
X172514703Y-21044278D01*
X172500000Y-21045000D01*
X170850000Y-21045000D01*
X170835297Y-21044278D01*
X170820736Y-21042118D01*
X170806457Y-21038541D01*
X170792597Y-21033582D01*
X170779290Y-21027288D01*
X170766664Y-21019720D01*
X170754841Y-21010952D01*
X170743934Y-21001066D01*
X170734048Y-20990159D01*
X170725280Y-20978336D01*
X170717712Y-20965710D01*
X170711418Y-20952403D01*
X170706459Y-20938543D01*
X170702882Y-20924264D01*
X170700722Y-20909703D01*
X170700000Y-20895000D01*
X170700000Y-20595000D01*
X170700722Y-20580297D01*
X170702882Y-20565736D01*
X170706459Y-20551457D01*
X170711418Y-20537597D01*
X170717712Y-20524290D01*
X170725280Y-20511664D01*
X170734048Y-20499841D01*
X170743934Y-20488934D01*
X170754841Y-20479048D01*
X170766664Y-20470280D01*
X170779290Y-20462712D01*
X170792597Y-20456418D01*
X170806457Y-20451459D01*
X170820736Y-20447882D01*
X170835297Y-20445722D01*
X170850000Y-20445000D01*
X172500000Y-20445000D01*
X172514703Y-20445722D01*
G37*
G36*
X172514703Y-21715722D02*
G01*
X172529264Y-21717882D01*
X172543543Y-21721459D01*
X172557403Y-21726418D01*
X172570710Y-21732712D01*
X172583336Y-21740280D01*
X172595159Y-21749048D01*
X172606066Y-21758934D01*
X172615952Y-21769841D01*
X172624720Y-21781664D01*
X172632288Y-21794290D01*
X172638582Y-21807597D01*
X172643541Y-21821457D01*
X172647118Y-21835736D01*
X172649278Y-21850297D01*
X172650000Y-21865000D01*
X172650000Y-22165000D01*
X172649278Y-22179703D01*
X172647118Y-22194264D01*
X172643541Y-22208543D01*
X172638582Y-22222403D01*
X172632288Y-22235710D01*
X172624720Y-22248336D01*
X172615952Y-22260159D01*
X172606066Y-22271066D01*
X172595159Y-22280952D01*
X172583336Y-22289720D01*
X172570710Y-22297288D01*
X172557403Y-22303582D01*
X172543543Y-22308541D01*
X172529264Y-22312118D01*
X172514703Y-22314278D01*
X172500000Y-22315000D01*
X170850000Y-22315000D01*
X170835297Y-22314278D01*
X170820736Y-22312118D01*
X170806457Y-22308541D01*
X170792597Y-22303582D01*
X170779290Y-22297288D01*
X170766664Y-22289720D01*
X170754841Y-22280952D01*
X170743934Y-22271066D01*
X170734048Y-22260159D01*
X170725280Y-22248336D01*
X170717712Y-22235710D01*
X170711418Y-22222403D01*
X170706459Y-22208543D01*
X170702882Y-22194264D01*
X170700722Y-22179703D01*
X170700000Y-22165000D01*
X170700000Y-21865000D01*
X170700722Y-21850297D01*
X170702882Y-21835736D01*
X170706459Y-21821457D01*
X170711418Y-21807597D01*
X170717712Y-21794290D01*
X170725280Y-21781664D01*
X170734048Y-21769841D01*
X170743934Y-21758934D01*
X170754841Y-21749048D01*
X170766664Y-21740280D01*
X170779290Y-21732712D01*
X170792597Y-21726418D01*
X170806457Y-21721459D01*
X170820736Y-21717882D01*
X170835297Y-21715722D01*
X170850000Y-21715000D01*
X172500000Y-21715000D01*
X172514703Y-21715722D01*
G37*
G36*
X167564703Y-21715722D02*
G01*
X167579264Y-21717882D01*
X167593543Y-21721459D01*
X167607403Y-21726418D01*
X167620710Y-21732712D01*
X167633336Y-21740280D01*
X167645159Y-21749048D01*
X167656066Y-21758934D01*
X167665952Y-21769841D01*
X167674720Y-21781664D01*
X167682288Y-21794290D01*
X167688582Y-21807597D01*
X167693541Y-21821457D01*
X167697118Y-21835736D01*
X167699278Y-21850297D01*
X167700000Y-21865000D01*
X167700000Y-22165000D01*
X167699278Y-22179703D01*
X167697118Y-22194264D01*
X167693541Y-22208543D01*
X167688582Y-22222403D01*
X167682288Y-22235710D01*
X167674720Y-22248336D01*
X167665952Y-22260159D01*
X167656066Y-22271066D01*
X167645159Y-22280952D01*
X167633336Y-22289720D01*
X167620710Y-22297288D01*
X167607403Y-22303582D01*
X167593543Y-22308541D01*
X167579264Y-22312118D01*
X167564703Y-22314278D01*
X167550000Y-22315000D01*
X165900000Y-22315000D01*
X165885297Y-22314278D01*
X165870736Y-22312118D01*
X165856457Y-22308541D01*
X165842597Y-22303582D01*
X165829290Y-22297288D01*
X165816664Y-22289720D01*
X165804841Y-22280952D01*
X165793934Y-22271066D01*
X165784048Y-22260159D01*
X165775280Y-22248336D01*
X165767712Y-22235710D01*
X165761418Y-22222403D01*
X165756459Y-22208543D01*
X165752882Y-22194264D01*
X165750722Y-22179703D01*
X165750000Y-22165000D01*
X165750000Y-21865000D01*
X165750722Y-21850297D01*
X165752882Y-21835736D01*
X165756459Y-21821457D01*
X165761418Y-21807597D01*
X165767712Y-21794290D01*
X165775280Y-21781664D01*
X165784048Y-21769841D01*
X165793934Y-21758934D01*
X165804841Y-21749048D01*
X165816664Y-21740280D01*
X165829290Y-21732712D01*
X165842597Y-21726418D01*
X165856457Y-21721459D01*
X165870736Y-21717882D01*
X165885297Y-21715722D01*
X165900000Y-21715000D01*
X167550000Y-21715000D01*
X167564703Y-21715722D01*
G37*
G36*
X167564703Y-20445722D02*
G01*
X167579264Y-20447882D01*
X167593543Y-20451459D01*
X167607403Y-20456418D01*
X167620710Y-20462712D01*
X167633336Y-20470280D01*
X167645159Y-20479048D01*
X167656066Y-20488934D01*
X167665952Y-20499841D01*
X167674720Y-20511664D01*
X167682288Y-20524290D01*
X167688582Y-20537597D01*
X167693541Y-20551457D01*
X167697118Y-20565736D01*
X167699278Y-20580297D01*
X167700000Y-20595000D01*
X167700000Y-20895000D01*
X167699278Y-20909703D01*
X167697118Y-20924264D01*
X167693541Y-20938543D01*
X167688582Y-20952403D01*
X167682288Y-20965710D01*
X167674720Y-20978336D01*
X167665952Y-20990159D01*
X167656066Y-21001066D01*
X167645159Y-21010952D01*
X167633336Y-21019720D01*
X167620710Y-21027288D01*
X167607403Y-21033582D01*
X167593543Y-21038541D01*
X167579264Y-21042118D01*
X167564703Y-21044278D01*
X167550000Y-21045000D01*
X165900000Y-21045000D01*
X165885297Y-21044278D01*
X165870736Y-21042118D01*
X165856457Y-21038541D01*
X165842597Y-21033582D01*
X165829290Y-21027288D01*
X165816664Y-21019720D01*
X165804841Y-21010952D01*
X165793934Y-21001066D01*
X165784048Y-20990159D01*
X165775280Y-20978336D01*
X165767712Y-20965710D01*
X165761418Y-20952403D01*
X165756459Y-20938543D01*
X165752882Y-20924264D01*
X165750722Y-20909703D01*
X165750000Y-20895000D01*
X165750000Y-20595000D01*
X165750722Y-20580297D01*
X165752882Y-20565736D01*
X165756459Y-20551457D01*
X165761418Y-20537597D01*
X165767712Y-20524290D01*
X165775280Y-20511664D01*
X165784048Y-20499841D01*
X165793934Y-20488934D01*
X165804841Y-20479048D01*
X165816664Y-20470280D01*
X165829290Y-20462712D01*
X165842597Y-20456418D01*
X165856457Y-20451459D01*
X165870736Y-20447882D01*
X165885297Y-20445722D01*
X165900000Y-20445000D01*
X167550000Y-20445000D01*
X167564703Y-20445722D01*
G37*
G36*
X167564703Y-19175722D02*
G01*
X167579264Y-19177882D01*
X167593543Y-19181459D01*
X167607403Y-19186418D01*
X167620710Y-19192712D01*
X167633336Y-19200280D01*
X167645159Y-19209048D01*
X167656066Y-19218934D01*
X167665952Y-19229841D01*
X167674720Y-19241664D01*
X167682288Y-19254290D01*
X167688582Y-19267597D01*
X167693541Y-19281457D01*
X167697118Y-19295736D01*
X167699278Y-19310297D01*
X167700000Y-19325000D01*
X167700000Y-19625000D01*
X167699278Y-19639703D01*
X167697118Y-19654264D01*
X167693541Y-19668543D01*
X167688582Y-19682403D01*
X167682288Y-19695710D01*
X167674720Y-19708336D01*
X167665952Y-19720159D01*
X167656066Y-19731066D01*
X167645159Y-19740952D01*
X167633336Y-19749720D01*
X167620710Y-19757288D01*
X167607403Y-19763582D01*
X167593543Y-19768541D01*
X167579264Y-19772118D01*
X167564703Y-19774278D01*
X167550000Y-19775000D01*
X165900000Y-19775000D01*
X165885297Y-19774278D01*
X165870736Y-19772118D01*
X165856457Y-19768541D01*
X165842597Y-19763582D01*
X165829290Y-19757288D01*
X165816664Y-19749720D01*
X165804841Y-19740952D01*
X165793934Y-19731066D01*
X165784048Y-19720159D01*
X165775280Y-19708336D01*
X165767712Y-19695710D01*
X165761418Y-19682403D01*
X165756459Y-19668543D01*
X165752882Y-19654264D01*
X165750722Y-19639703D01*
X165750000Y-19625000D01*
X165750000Y-19325000D01*
X165750722Y-19310297D01*
X165752882Y-19295736D01*
X165756459Y-19281457D01*
X165761418Y-19267597D01*
X165767712Y-19254290D01*
X165775280Y-19241664D01*
X165784048Y-19229841D01*
X165793934Y-19218934D01*
X165804841Y-19209048D01*
X165816664Y-19200280D01*
X165829290Y-19192712D01*
X165842597Y-19186418D01*
X165856457Y-19181459D01*
X165870736Y-19177882D01*
X165885297Y-19175722D01*
X165900000Y-19175000D01*
X167550000Y-19175000D01*
X167564703Y-19175722D01*
G37*
G36*
X167564703Y-17905722D02*
G01*
X167579264Y-17907882D01*
X167593543Y-17911459D01*
X167607403Y-17916418D01*
X167620710Y-17922712D01*
X167633336Y-17930280D01*
X167645159Y-17939048D01*
X167656066Y-17948934D01*
X167665952Y-17959841D01*
X167674720Y-17971664D01*
X167682288Y-17984290D01*
X167688582Y-17997597D01*
X167693541Y-18011457D01*
X167697118Y-18025736D01*
X167699278Y-18040297D01*
X167700000Y-18055000D01*
X167700000Y-18355000D01*
X167699278Y-18369703D01*
X167697118Y-18384264D01*
X167693541Y-18398543D01*
X167688582Y-18412403D01*
X167682288Y-18425710D01*
X167674720Y-18438336D01*
X167665952Y-18450159D01*
X167656066Y-18461066D01*
X167645159Y-18470952D01*
X167633336Y-18479720D01*
X167620710Y-18487288D01*
X167607403Y-18493582D01*
X167593543Y-18498541D01*
X167579264Y-18502118D01*
X167564703Y-18504278D01*
X167550000Y-18505000D01*
X165900000Y-18505000D01*
X165885297Y-18504278D01*
X165870736Y-18502118D01*
X165856457Y-18498541D01*
X165842597Y-18493582D01*
X165829290Y-18487288D01*
X165816664Y-18479720D01*
X165804841Y-18470952D01*
X165793934Y-18461066D01*
X165784048Y-18450159D01*
X165775280Y-18438336D01*
X165767712Y-18425710D01*
X165761418Y-18412403D01*
X165756459Y-18398543D01*
X165752882Y-18384264D01*
X165750722Y-18369703D01*
X165750000Y-18355000D01*
X165750000Y-18055000D01*
X165750722Y-18040297D01*
X165752882Y-18025736D01*
X165756459Y-18011457D01*
X165761418Y-17997597D01*
X165767712Y-17984290D01*
X165775280Y-17971664D01*
X165784048Y-17959841D01*
X165793934Y-17948934D01*
X165804841Y-17939048D01*
X165816664Y-17930280D01*
X165829290Y-17922712D01*
X165842597Y-17916418D01*
X165856457Y-17911459D01*
X165870736Y-17907882D01*
X165885297Y-17905722D01*
X165900000Y-17905000D01*
X167550000Y-17905000D01*
X167564703Y-17905722D01*
G37*
G36*
X179824505Y-119301204D02*
G01*
X179848773Y-119304804D01*
X179872572Y-119310765D01*
X179895671Y-119319030D01*
X179917850Y-119329520D01*
X179938893Y-119342132D01*
X179958599Y-119356747D01*
X179976777Y-119373223D01*
X179993253Y-119391401D01*
X180007868Y-119411107D01*
X180020480Y-119432150D01*
X180030970Y-119454329D01*
X180039235Y-119477428D01*
X180045196Y-119501227D01*
X180048796Y-119525495D01*
X180050000Y-119549999D01*
X180050000Y-120450001D01*
X180048796Y-120474505D01*
X180045196Y-120498773D01*
X180039235Y-120522572D01*
X180030970Y-120545671D01*
X180020480Y-120567850D01*
X180007868Y-120588893D01*
X179993253Y-120608599D01*
X179976777Y-120626777D01*
X179958599Y-120643253D01*
X179938893Y-120657868D01*
X179917850Y-120670480D01*
X179895671Y-120680970D01*
X179872572Y-120689235D01*
X179848773Y-120695196D01*
X179824505Y-120698796D01*
X179800001Y-120700000D01*
X179149999Y-120700000D01*
X179125495Y-120698796D01*
X179101227Y-120695196D01*
X179077428Y-120689235D01*
X179054329Y-120680970D01*
X179032150Y-120670480D01*
X179011107Y-120657868D01*
X178991401Y-120643253D01*
X178973223Y-120626777D01*
X178956747Y-120608599D01*
X178942132Y-120588893D01*
X178929520Y-120567850D01*
X178919030Y-120545671D01*
X178910765Y-120522572D01*
X178904804Y-120498773D01*
X178901204Y-120474505D01*
X178900000Y-120450001D01*
X178900000Y-119549999D01*
X178901204Y-119525495D01*
X178904804Y-119501227D01*
X178910765Y-119477428D01*
X178919030Y-119454329D01*
X178929520Y-119432150D01*
X178942132Y-119411107D01*
X178956747Y-119391401D01*
X178973223Y-119373223D01*
X178991401Y-119356747D01*
X179011107Y-119342132D01*
X179032150Y-119329520D01*
X179054329Y-119319030D01*
X179077428Y-119310765D01*
X179101227Y-119304804D01*
X179125495Y-119301204D01*
X179149999Y-119300000D01*
X179800001Y-119300000D01*
X179824505Y-119301204D01*
G37*
G36*
X181874505Y-119301204D02*
G01*
X181898773Y-119304804D01*
X181922572Y-119310765D01*
X181945671Y-119319030D01*
X181967850Y-119329520D01*
X181988893Y-119342132D01*
X182008599Y-119356747D01*
X182026777Y-119373223D01*
X182043253Y-119391401D01*
X182057868Y-119411107D01*
X182070480Y-119432150D01*
X182080970Y-119454329D01*
X182089235Y-119477428D01*
X182095196Y-119501227D01*
X182098796Y-119525495D01*
X182100000Y-119549999D01*
X182100000Y-120450001D01*
X182098796Y-120474505D01*
X182095196Y-120498773D01*
X182089235Y-120522572D01*
X182080970Y-120545671D01*
X182070480Y-120567850D01*
X182057868Y-120588893D01*
X182043253Y-120608599D01*
X182026777Y-120626777D01*
X182008599Y-120643253D01*
X181988893Y-120657868D01*
X181967850Y-120670480D01*
X181945671Y-120680970D01*
X181922572Y-120689235D01*
X181898773Y-120695196D01*
X181874505Y-120698796D01*
X181850001Y-120700000D01*
X181199999Y-120700000D01*
X181175495Y-120698796D01*
X181151227Y-120695196D01*
X181127428Y-120689235D01*
X181104329Y-120680970D01*
X181082150Y-120670480D01*
X181061107Y-120657868D01*
X181041401Y-120643253D01*
X181023223Y-120626777D01*
X181006747Y-120608599D01*
X180992132Y-120588893D01*
X180979520Y-120567850D01*
X180969030Y-120545671D01*
X180960765Y-120522572D01*
X180954804Y-120498773D01*
X180951204Y-120474505D01*
X180950000Y-120450001D01*
X180950000Y-119549999D01*
X180951204Y-119525495D01*
X180954804Y-119501227D01*
X180960765Y-119477428D01*
X180969030Y-119454329D01*
X180979520Y-119432150D01*
X180992132Y-119411107D01*
X181006747Y-119391401D01*
X181023223Y-119373223D01*
X181041401Y-119356747D01*
X181061107Y-119342132D01*
X181082150Y-119329520D01*
X181104329Y-119319030D01*
X181127428Y-119310765D01*
X181151227Y-119304804D01*
X181175495Y-119301204D01*
X181199999Y-119300000D01*
X181850001Y-119300000D01*
X181874505Y-119301204D01*
G37*
G36*
X179824505Y-109301204D02*
G01*
X179848773Y-109304804D01*
X179872572Y-109310765D01*
X179895671Y-109319030D01*
X179917850Y-109329520D01*
X179938893Y-109342132D01*
X179958599Y-109356747D01*
X179976777Y-109373223D01*
X179993253Y-109391401D01*
X180007868Y-109411107D01*
X180020480Y-109432150D01*
X180030970Y-109454329D01*
X180039235Y-109477428D01*
X180045196Y-109501227D01*
X180048796Y-109525495D01*
X180050000Y-109549999D01*
X180050000Y-110450001D01*
X180048796Y-110474505D01*
X180045196Y-110498773D01*
X180039235Y-110522572D01*
X180030970Y-110545671D01*
X180020480Y-110567850D01*
X180007868Y-110588893D01*
X179993253Y-110608599D01*
X179976777Y-110626777D01*
X179958599Y-110643253D01*
X179938893Y-110657868D01*
X179917850Y-110670480D01*
X179895671Y-110680970D01*
X179872572Y-110689235D01*
X179848773Y-110695196D01*
X179824505Y-110698796D01*
X179800001Y-110700000D01*
X179149999Y-110700000D01*
X179125495Y-110698796D01*
X179101227Y-110695196D01*
X179077428Y-110689235D01*
X179054329Y-110680970D01*
X179032150Y-110670480D01*
X179011107Y-110657868D01*
X178991401Y-110643253D01*
X178973223Y-110626777D01*
X178956747Y-110608599D01*
X178942132Y-110588893D01*
X178929520Y-110567850D01*
X178919030Y-110545671D01*
X178910765Y-110522572D01*
X178904804Y-110498773D01*
X178901204Y-110474505D01*
X178900000Y-110450001D01*
X178900000Y-109549999D01*
X178901204Y-109525495D01*
X178904804Y-109501227D01*
X178910765Y-109477428D01*
X178919030Y-109454329D01*
X178929520Y-109432150D01*
X178942132Y-109411107D01*
X178956747Y-109391401D01*
X178973223Y-109373223D01*
X178991401Y-109356747D01*
X179011107Y-109342132D01*
X179032150Y-109329520D01*
X179054329Y-109319030D01*
X179077428Y-109310765D01*
X179101227Y-109304804D01*
X179125495Y-109301204D01*
X179149999Y-109300000D01*
X179800001Y-109300000D01*
X179824505Y-109301204D01*
G37*
G36*
X181874505Y-109301204D02*
G01*
X181898773Y-109304804D01*
X181922572Y-109310765D01*
X181945671Y-109319030D01*
X181967850Y-109329520D01*
X181988893Y-109342132D01*
X182008599Y-109356747D01*
X182026777Y-109373223D01*
X182043253Y-109391401D01*
X182057868Y-109411107D01*
X182070480Y-109432150D01*
X182080970Y-109454329D01*
X182089235Y-109477428D01*
X182095196Y-109501227D01*
X182098796Y-109525495D01*
X182100000Y-109549999D01*
X182100000Y-110450001D01*
X182098796Y-110474505D01*
X182095196Y-110498773D01*
X182089235Y-110522572D01*
X182080970Y-110545671D01*
X182070480Y-110567850D01*
X182057868Y-110588893D01*
X182043253Y-110608599D01*
X182026777Y-110626777D01*
X182008599Y-110643253D01*
X181988893Y-110657868D01*
X181967850Y-110670480D01*
X181945671Y-110680970D01*
X181922572Y-110689235D01*
X181898773Y-110695196D01*
X181874505Y-110698796D01*
X181850001Y-110700000D01*
X181199999Y-110700000D01*
X181175495Y-110698796D01*
X181151227Y-110695196D01*
X181127428Y-110689235D01*
X181104329Y-110680970D01*
X181082150Y-110670480D01*
X181061107Y-110657868D01*
X181041401Y-110643253D01*
X181023223Y-110626777D01*
X181006747Y-110608599D01*
X180992132Y-110588893D01*
X180979520Y-110567850D01*
X180969030Y-110545671D01*
X180960765Y-110522572D01*
X180954804Y-110498773D01*
X180951204Y-110474505D01*
X180950000Y-110450001D01*
X180950000Y-109549999D01*
X180951204Y-109525495D01*
X180954804Y-109501227D01*
X180960765Y-109477428D01*
X180969030Y-109454329D01*
X180979520Y-109432150D01*
X180992132Y-109411107D01*
X181006747Y-109391401D01*
X181023223Y-109373223D01*
X181041401Y-109356747D01*
X181061107Y-109342132D01*
X181082150Y-109329520D01*
X181104329Y-109319030D01*
X181127428Y-109310765D01*
X181151227Y-109304804D01*
X181175495Y-109301204D01*
X181199999Y-109300000D01*
X181850001Y-109300000D01*
X181874505Y-109301204D01*
G37*
G36*
X179824505Y-99301204D02*
G01*
X179848773Y-99304804D01*
X179872572Y-99310765D01*
X179895671Y-99319030D01*
X179917850Y-99329520D01*
X179938893Y-99342132D01*
X179958599Y-99356747D01*
X179976777Y-99373223D01*
X179993253Y-99391401D01*
X180007868Y-99411107D01*
X180020480Y-99432150D01*
X180030970Y-99454329D01*
X180039235Y-99477428D01*
X180045196Y-99501227D01*
X180048796Y-99525495D01*
X180050000Y-99549999D01*
X180050000Y-100450001D01*
X180048796Y-100474505D01*
X180045196Y-100498773D01*
X180039235Y-100522572D01*
X180030970Y-100545671D01*
X180020480Y-100567850D01*
X180007868Y-100588893D01*
X179993253Y-100608599D01*
X179976777Y-100626777D01*
X179958599Y-100643253D01*
X179938893Y-100657868D01*
X179917850Y-100670480D01*
X179895671Y-100680970D01*
X179872572Y-100689235D01*
X179848773Y-100695196D01*
X179824505Y-100698796D01*
X179800001Y-100700000D01*
X179149999Y-100700000D01*
X179125495Y-100698796D01*
X179101227Y-100695196D01*
X179077428Y-100689235D01*
X179054329Y-100680970D01*
X179032150Y-100670480D01*
X179011107Y-100657868D01*
X178991401Y-100643253D01*
X178973223Y-100626777D01*
X178956747Y-100608599D01*
X178942132Y-100588893D01*
X178929520Y-100567850D01*
X178919030Y-100545671D01*
X178910765Y-100522572D01*
X178904804Y-100498773D01*
X178901204Y-100474505D01*
X178900000Y-100450001D01*
X178900000Y-99549999D01*
X178901204Y-99525495D01*
X178904804Y-99501227D01*
X178910765Y-99477428D01*
X178919030Y-99454329D01*
X178929520Y-99432150D01*
X178942132Y-99411107D01*
X178956747Y-99391401D01*
X178973223Y-99373223D01*
X178991401Y-99356747D01*
X179011107Y-99342132D01*
X179032150Y-99329520D01*
X179054329Y-99319030D01*
X179077428Y-99310765D01*
X179101227Y-99304804D01*
X179125495Y-99301204D01*
X179149999Y-99300000D01*
X179800001Y-99300000D01*
X179824505Y-99301204D01*
G37*
G36*
X181874505Y-99301204D02*
G01*
X181898773Y-99304804D01*
X181922572Y-99310765D01*
X181945671Y-99319030D01*
X181967850Y-99329520D01*
X181988893Y-99342132D01*
X182008599Y-99356747D01*
X182026777Y-99373223D01*
X182043253Y-99391401D01*
X182057868Y-99411107D01*
X182070480Y-99432150D01*
X182080970Y-99454329D01*
X182089235Y-99477428D01*
X182095196Y-99501227D01*
X182098796Y-99525495D01*
X182100000Y-99549999D01*
X182100000Y-100450001D01*
X182098796Y-100474505D01*
X182095196Y-100498773D01*
X182089235Y-100522572D01*
X182080970Y-100545671D01*
X182070480Y-100567850D01*
X182057868Y-100588893D01*
X182043253Y-100608599D01*
X182026777Y-100626777D01*
X182008599Y-100643253D01*
X181988893Y-100657868D01*
X181967850Y-100670480D01*
X181945671Y-100680970D01*
X181922572Y-100689235D01*
X181898773Y-100695196D01*
X181874505Y-100698796D01*
X181850001Y-100700000D01*
X181199999Y-100700000D01*
X181175495Y-100698796D01*
X181151227Y-100695196D01*
X181127428Y-100689235D01*
X181104329Y-100680970D01*
X181082150Y-100670480D01*
X181061107Y-100657868D01*
X181041401Y-100643253D01*
X181023223Y-100626777D01*
X181006747Y-100608599D01*
X180992132Y-100588893D01*
X180979520Y-100567850D01*
X180969030Y-100545671D01*
X180960765Y-100522572D01*
X180954804Y-100498773D01*
X180951204Y-100474505D01*
X180950000Y-100450001D01*
X180950000Y-99549999D01*
X180951204Y-99525495D01*
X180954804Y-99501227D01*
X180960765Y-99477428D01*
X180969030Y-99454329D01*
X180979520Y-99432150D01*
X180992132Y-99411107D01*
X181006747Y-99391401D01*
X181023223Y-99373223D01*
X181041401Y-99356747D01*
X181061107Y-99342132D01*
X181082150Y-99329520D01*
X181104329Y-99319030D01*
X181127428Y-99310765D01*
X181151227Y-99304804D01*
X181175495Y-99301204D01*
X181199999Y-99300000D01*
X181850001Y-99300000D01*
X181874505Y-99301204D01*
G37*
G36*
X179824505Y-89301204D02*
G01*
X179848773Y-89304804D01*
X179872572Y-89310765D01*
X179895671Y-89319030D01*
X179917850Y-89329520D01*
X179938893Y-89342132D01*
X179958599Y-89356747D01*
X179976777Y-89373223D01*
X179993253Y-89391401D01*
X180007868Y-89411107D01*
X180020480Y-89432150D01*
X180030970Y-89454329D01*
X180039235Y-89477428D01*
X180045196Y-89501227D01*
X180048796Y-89525495D01*
X180050000Y-89549999D01*
X180050000Y-90450001D01*
X180048796Y-90474505D01*
X180045196Y-90498773D01*
X180039235Y-90522572D01*
X180030970Y-90545671D01*
X180020480Y-90567850D01*
X180007868Y-90588893D01*
X179993253Y-90608599D01*
X179976777Y-90626777D01*
X179958599Y-90643253D01*
X179938893Y-90657868D01*
X179917850Y-90670480D01*
X179895671Y-90680970D01*
X179872572Y-90689235D01*
X179848773Y-90695196D01*
X179824505Y-90698796D01*
X179800001Y-90700000D01*
X179149999Y-90700000D01*
X179125495Y-90698796D01*
X179101227Y-90695196D01*
X179077428Y-90689235D01*
X179054329Y-90680970D01*
X179032150Y-90670480D01*
X179011107Y-90657868D01*
X178991401Y-90643253D01*
X178973223Y-90626777D01*
X178956747Y-90608599D01*
X178942132Y-90588893D01*
X178929520Y-90567850D01*
X178919030Y-90545671D01*
X178910765Y-90522572D01*
X178904804Y-90498773D01*
X178901204Y-90474505D01*
X178900000Y-90450001D01*
X178900000Y-89549999D01*
X178901204Y-89525495D01*
X178904804Y-89501227D01*
X178910765Y-89477428D01*
X178919030Y-89454329D01*
X178929520Y-89432150D01*
X178942132Y-89411107D01*
X178956747Y-89391401D01*
X178973223Y-89373223D01*
X178991401Y-89356747D01*
X179011107Y-89342132D01*
X179032150Y-89329520D01*
X179054329Y-89319030D01*
X179077428Y-89310765D01*
X179101227Y-89304804D01*
X179125495Y-89301204D01*
X179149999Y-89300000D01*
X179800001Y-89300000D01*
X179824505Y-89301204D01*
G37*
G36*
X181874505Y-89301204D02*
G01*
X181898773Y-89304804D01*
X181922572Y-89310765D01*
X181945671Y-89319030D01*
X181967850Y-89329520D01*
X181988893Y-89342132D01*
X182008599Y-89356747D01*
X182026777Y-89373223D01*
X182043253Y-89391401D01*
X182057868Y-89411107D01*
X182070480Y-89432150D01*
X182080970Y-89454329D01*
X182089235Y-89477428D01*
X182095196Y-89501227D01*
X182098796Y-89525495D01*
X182100000Y-89549999D01*
X182100000Y-90450001D01*
X182098796Y-90474505D01*
X182095196Y-90498773D01*
X182089235Y-90522572D01*
X182080970Y-90545671D01*
X182070480Y-90567850D01*
X182057868Y-90588893D01*
X182043253Y-90608599D01*
X182026777Y-90626777D01*
X182008599Y-90643253D01*
X181988893Y-90657868D01*
X181967850Y-90670480D01*
X181945671Y-90680970D01*
X181922572Y-90689235D01*
X181898773Y-90695196D01*
X181874505Y-90698796D01*
X181850001Y-90700000D01*
X181199999Y-90700000D01*
X181175495Y-90698796D01*
X181151227Y-90695196D01*
X181127428Y-90689235D01*
X181104329Y-90680970D01*
X181082150Y-90670480D01*
X181061107Y-90657868D01*
X181041401Y-90643253D01*
X181023223Y-90626777D01*
X181006747Y-90608599D01*
X180992132Y-90588893D01*
X180979520Y-90567850D01*
X180969030Y-90545671D01*
X180960765Y-90522572D01*
X180954804Y-90498773D01*
X180951204Y-90474505D01*
X180950000Y-90450001D01*
X180950000Y-89549999D01*
X180951204Y-89525495D01*
X180954804Y-89501227D01*
X180960765Y-89477428D01*
X180969030Y-89454329D01*
X180979520Y-89432150D01*
X180992132Y-89411107D01*
X181006747Y-89391401D01*
X181023223Y-89373223D01*
X181041401Y-89356747D01*
X181061107Y-89342132D01*
X181082150Y-89329520D01*
X181104329Y-89319030D01*
X181127428Y-89310765D01*
X181151227Y-89304804D01*
X181175495Y-89301204D01*
X181199999Y-89300000D01*
X181850001Y-89300000D01*
X181874505Y-89301204D01*
G37*
G36*
X179824505Y-79301204D02*
G01*
X179848773Y-79304804D01*
X179872572Y-79310765D01*
X179895671Y-79319030D01*
X179917850Y-79329520D01*
X179938893Y-79342132D01*
X179958599Y-79356747D01*
X179976777Y-79373223D01*
X179993253Y-79391401D01*
X180007868Y-79411107D01*
X180020480Y-79432150D01*
X180030970Y-79454329D01*
X180039235Y-79477428D01*
X180045196Y-79501227D01*
X180048796Y-79525495D01*
X180050000Y-79549999D01*
X180050000Y-80450001D01*
X180048796Y-80474505D01*
X180045196Y-80498773D01*
X180039235Y-80522572D01*
X180030970Y-80545671D01*
X180020480Y-80567850D01*
X180007868Y-80588893D01*
X179993253Y-80608599D01*
X179976777Y-80626777D01*
X179958599Y-80643253D01*
X179938893Y-80657868D01*
X179917850Y-80670480D01*
X179895671Y-80680970D01*
X179872572Y-80689235D01*
X179848773Y-80695196D01*
X179824505Y-80698796D01*
X179800001Y-80700000D01*
X179149999Y-80700000D01*
X179125495Y-80698796D01*
X179101227Y-80695196D01*
X179077428Y-80689235D01*
X179054329Y-80680970D01*
X179032150Y-80670480D01*
X179011107Y-80657868D01*
X178991401Y-80643253D01*
X178973223Y-80626777D01*
X178956747Y-80608599D01*
X178942132Y-80588893D01*
X178929520Y-80567850D01*
X178919030Y-80545671D01*
X178910765Y-80522572D01*
X178904804Y-80498773D01*
X178901204Y-80474505D01*
X178900000Y-80450001D01*
X178900000Y-79549999D01*
X178901204Y-79525495D01*
X178904804Y-79501227D01*
X178910765Y-79477428D01*
X178919030Y-79454329D01*
X178929520Y-79432150D01*
X178942132Y-79411107D01*
X178956747Y-79391401D01*
X178973223Y-79373223D01*
X178991401Y-79356747D01*
X179011107Y-79342132D01*
X179032150Y-79329520D01*
X179054329Y-79319030D01*
X179077428Y-79310765D01*
X179101227Y-79304804D01*
X179125495Y-79301204D01*
X179149999Y-79300000D01*
X179800001Y-79300000D01*
X179824505Y-79301204D01*
G37*
G36*
X181874505Y-79301204D02*
G01*
X181898773Y-79304804D01*
X181922572Y-79310765D01*
X181945671Y-79319030D01*
X181967850Y-79329520D01*
X181988893Y-79342132D01*
X182008599Y-79356747D01*
X182026777Y-79373223D01*
X182043253Y-79391401D01*
X182057868Y-79411107D01*
X182070480Y-79432150D01*
X182080970Y-79454329D01*
X182089235Y-79477428D01*
X182095196Y-79501227D01*
X182098796Y-79525495D01*
X182100000Y-79549999D01*
X182100000Y-80450001D01*
X182098796Y-80474505D01*
X182095196Y-80498773D01*
X182089235Y-80522572D01*
X182080970Y-80545671D01*
X182070480Y-80567850D01*
X182057868Y-80588893D01*
X182043253Y-80608599D01*
X182026777Y-80626777D01*
X182008599Y-80643253D01*
X181988893Y-80657868D01*
X181967850Y-80670480D01*
X181945671Y-80680970D01*
X181922572Y-80689235D01*
X181898773Y-80695196D01*
X181874505Y-80698796D01*
X181850001Y-80700000D01*
X181199999Y-80700000D01*
X181175495Y-80698796D01*
X181151227Y-80695196D01*
X181127428Y-80689235D01*
X181104329Y-80680970D01*
X181082150Y-80670480D01*
X181061107Y-80657868D01*
X181041401Y-80643253D01*
X181023223Y-80626777D01*
X181006747Y-80608599D01*
X180992132Y-80588893D01*
X180979520Y-80567850D01*
X180969030Y-80545671D01*
X180960765Y-80522572D01*
X180954804Y-80498773D01*
X180951204Y-80474505D01*
X180950000Y-80450001D01*
X180950000Y-79549999D01*
X180951204Y-79525495D01*
X180954804Y-79501227D01*
X180960765Y-79477428D01*
X180969030Y-79454329D01*
X180979520Y-79432150D01*
X180992132Y-79411107D01*
X181006747Y-79391401D01*
X181023223Y-79373223D01*
X181041401Y-79356747D01*
X181061107Y-79342132D01*
X181082150Y-79329520D01*
X181104329Y-79319030D01*
X181127428Y-79310765D01*
X181151227Y-79304804D01*
X181175495Y-79301204D01*
X181199999Y-79300000D01*
X181850001Y-79300000D01*
X181874505Y-79301204D01*
G37*
G36*
X179824505Y-69301204D02*
G01*
X179848773Y-69304804D01*
X179872572Y-69310765D01*
X179895671Y-69319030D01*
X179917850Y-69329520D01*
X179938893Y-69342132D01*
X179958599Y-69356747D01*
X179976777Y-69373223D01*
X179993253Y-69391401D01*
X180007868Y-69411107D01*
X180020480Y-69432150D01*
X180030970Y-69454329D01*
X180039235Y-69477428D01*
X180045196Y-69501227D01*
X180048796Y-69525495D01*
X180050000Y-69549999D01*
X180050000Y-70450001D01*
X180048796Y-70474505D01*
X180045196Y-70498773D01*
X180039235Y-70522572D01*
X180030970Y-70545671D01*
X180020480Y-70567850D01*
X180007868Y-70588893D01*
X179993253Y-70608599D01*
X179976777Y-70626777D01*
X179958599Y-70643253D01*
X179938893Y-70657868D01*
X179917850Y-70670480D01*
X179895671Y-70680970D01*
X179872572Y-70689235D01*
X179848773Y-70695196D01*
X179824505Y-70698796D01*
X179800001Y-70700000D01*
X179149999Y-70700000D01*
X179125495Y-70698796D01*
X179101227Y-70695196D01*
X179077428Y-70689235D01*
X179054329Y-70680970D01*
X179032150Y-70670480D01*
X179011107Y-70657868D01*
X178991401Y-70643253D01*
X178973223Y-70626777D01*
X178956747Y-70608599D01*
X178942132Y-70588893D01*
X178929520Y-70567850D01*
X178919030Y-70545671D01*
X178910765Y-70522572D01*
X178904804Y-70498773D01*
X178901204Y-70474505D01*
X178900000Y-70450001D01*
X178900000Y-69549999D01*
X178901204Y-69525495D01*
X178904804Y-69501227D01*
X178910765Y-69477428D01*
X178919030Y-69454329D01*
X178929520Y-69432150D01*
X178942132Y-69411107D01*
X178956747Y-69391401D01*
X178973223Y-69373223D01*
X178991401Y-69356747D01*
X179011107Y-69342132D01*
X179032150Y-69329520D01*
X179054329Y-69319030D01*
X179077428Y-69310765D01*
X179101227Y-69304804D01*
X179125495Y-69301204D01*
X179149999Y-69300000D01*
X179800001Y-69300000D01*
X179824505Y-69301204D01*
G37*
G36*
X181874505Y-69301204D02*
G01*
X181898773Y-69304804D01*
X181922572Y-69310765D01*
X181945671Y-69319030D01*
X181967850Y-69329520D01*
X181988893Y-69342132D01*
X182008599Y-69356747D01*
X182026777Y-69373223D01*
X182043253Y-69391401D01*
X182057868Y-69411107D01*
X182070480Y-69432150D01*
X182080970Y-69454329D01*
X182089235Y-69477428D01*
X182095196Y-69501227D01*
X182098796Y-69525495D01*
X182100000Y-69549999D01*
X182100000Y-70450001D01*
X182098796Y-70474505D01*
X182095196Y-70498773D01*
X182089235Y-70522572D01*
X182080970Y-70545671D01*
X182070480Y-70567850D01*
X182057868Y-70588893D01*
X182043253Y-70608599D01*
X182026777Y-70626777D01*
X182008599Y-70643253D01*
X181988893Y-70657868D01*
X181967850Y-70670480D01*
X181945671Y-70680970D01*
X181922572Y-70689235D01*
X181898773Y-70695196D01*
X181874505Y-70698796D01*
X181850001Y-70700000D01*
X181199999Y-70700000D01*
X181175495Y-70698796D01*
X181151227Y-70695196D01*
X181127428Y-70689235D01*
X181104329Y-70680970D01*
X181082150Y-70670480D01*
X181061107Y-70657868D01*
X181041401Y-70643253D01*
X181023223Y-70626777D01*
X181006747Y-70608599D01*
X180992132Y-70588893D01*
X180979520Y-70567850D01*
X180969030Y-70545671D01*
X180960765Y-70522572D01*
X180954804Y-70498773D01*
X180951204Y-70474505D01*
X180950000Y-70450001D01*
X180950000Y-69549999D01*
X180951204Y-69525495D01*
X180954804Y-69501227D01*
X180960765Y-69477428D01*
X180969030Y-69454329D01*
X180979520Y-69432150D01*
X180992132Y-69411107D01*
X181006747Y-69391401D01*
X181023223Y-69373223D01*
X181041401Y-69356747D01*
X181061107Y-69342132D01*
X181082150Y-69329520D01*
X181104329Y-69319030D01*
X181127428Y-69310765D01*
X181151227Y-69304804D01*
X181175495Y-69301204D01*
X181199999Y-69300000D01*
X181850001Y-69300000D01*
X181874505Y-69301204D01*
G37*
G36*
X179824505Y-59301204D02*
G01*
X179848773Y-59304804D01*
X179872572Y-59310765D01*
X179895671Y-59319030D01*
X179917850Y-59329520D01*
X179938893Y-59342132D01*
X179958599Y-59356747D01*
X179976777Y-59373223D01*
X179993253Y-59391401D01*
X180007868Y-59411107D01*
X180020480Y-59432150D01*
X180030970Y-59454329D01*
X180039235Y-59477428D01*
X180045196Y-59501227D01*
X180048796Y-59525495D01*
X180050000Y-59549999D01*
X180050000Y-60450001D01*
X180048796Y-60474505D01*
X180045196Y-60498773D01*
X180039235Y-60522572D01*
X180030970Y-60545671D01*
X180020480Y-60567850D01*
X180007868Y-60588893D01*
X179993253Y-60608599D01*
X179976777Y-60626777D01*
X179958599Y-60643253D01*
X179938893Y-60657868D01*
X179917850Y-60670480D01*
X179895671Y-60680970D01*
X179872572Y-60689235D01*
X179848773Y-60695196D01*
X179824505Y-60698796D01*
X179800001Y-60700000D01*
X179149999Y-60700000D01*
X179125495Y-60698796D01*
X179101227Y-60695196D01*
X179077428Y-60689235D01*
X179054329Y-60680970D01*
X179032150Y-60670480D01*
X179011107Y-60657868D01*
X178991401Y-60643253D01*
X178973223Y-60626777D01*
X178956747Y-60608599D01*
X178942132Y-60588893D01*
X178929520Y-60567850D01*
X178919030Y-60545671D01*
X178910765Y-60522572D01*
X178904804Y-60498773D01*
X178901204Y-60474505D01*
X178900000Y-60450001D01*
X178900000Y-59549999D01*
X178901204Y-59525495D01*
X178904804Y-59501227D01*
X178910765Y-59477428D01*
X178919030Y-59454329D01*
X178929520Y-59432150D01*
X178942132Y-59411107D01*
X178956747Y-59391401D01*
X178973223Y-59373223D01*
X178991401Y-59356747D01*
X179011107Y-59342132D01*
X179032150Y-59329520D01*
X179054329Y-59319030D01*
X179077428Y-59310765D01*
X179101227Y-59304804D01*
X179125495Y-59301204D01*
X179149999Y-59300000D01*
X179800001Y-59300000D01*
X179824505Y-59301204D01*
G37*
G36*
X181874505Y-59301204D02*
G01*
X181898773Y-59304804D01*
X181922572Y-59310765D01*
X181945671Y-59319030D01*
X181967850Y-59329520D01*
X181988893Y-59342132D01*
X182008599Y-59356747D01*
X182026777Y-59373223D01*
X182043253Y-59391401D01*
X182057868Y-59411107D01*
X182070480Y-59432150D01*
X182080970Y-59454329D01*
X182089235Y-59477428D01*
X182095196Y-59501227D01*
X182098796Y-59525495D01*
X182100000Y-59549999D01*
X182100000Y-60450001D01*
X182098796Y-60474505D01*
X182095196Y-60498773D01*
X182089235Y-60522572D01*
X182080970Y-60545671D01*
X182070480Y-60567850D01*
X182057868Y-60588893D01*
X182043253Y-60608599D01*
X182026777Y-60626777D01*
X182008599Y-60643253D01*
X181988893Y-60657868D01*
X181967850Y-60670480D01*
X181945671Y-60680970D01*
X181922572Y-60689235D01*
X181898773Y-60695196D01*
X181874505Y-60698796D01*
X181850001Y-60700000D01*
X181199999Y-60700000D01*
X181175495Y-60698796D01*
X181151227Y-60695196D01*
X181127428Y-60689235D01*
X181104329Y-60680970D01*
X181082150Y-60670480D01*
X181061107Y-60657868D01*
X181041401Y-60643253D01*
X181023223Y-60626777D01*
X181006747Y-60608599D01*
X180992132Y-60588893D01*
X180979520Y-60567850D01*
X180969030Y-60545671D01*
X180960765Y-60522572D01*
X180954804Y-60498773D01*
X180951204Y-60474505D01*
X180950000Y-60450001D01*
X180950000Y-59549999D01*
X180951204Y-59525495D01*
X180954804Y-59501227D01*
X180960765Y-59477428D01*
X180969030Y-59454329D01*
X180979520Y-59432150D01*
X180992132Y-59411107D01*
X181006747Y-59391401D01*
X181023223Y-59373223D01*
X181041401Y-59356747D01*
X181061107Y-59342132D01*
X181082150Y-59329520D01*
X181104329Y-59319030D01*
X181127428Y-59310765D01*
X181151227Y-59304804D01*
X181175495Y-59301204D01*
X181199999Y-59300000D01*
X181850001Y-59300000D01*
X181874505Y-59301204D01*
G37*
G36*
X179824505Y-49301204D02*
G01*
X179848773Y-49304804D01*
X179872572Y-49310765D01*
X179895671Y-49319030D01*
X179917850Y-49329520D01*
X179938893Y-49342132D01*
X179958599Y-49356747D01*
X179976777Y-49373223D01*
X179993253Y-49391401D01*
X180007868Y-49411107D01*
X180020480Y-49432150D01*
X180030970Y-49454329D01*
X180039235Y-49477428D01*
X180045196Y-49501227D01*
X180048796Y-49525495D01*
X180050000Y-49549999D01*
X180050000Y-50450001D01*
X180048796Y-50474505D01*
X180045196Y-50498773D01*
X180039235Y-50522572D01*
X180030970Y-50545671D01*
X180020480Y-50567850D01*
X180007868Y-50588893D01*
X179993253Y-50608599D01*
X179976777Y-50626777D01*
X179958599Y-50643253D01*
X179938893Y-50657868D01*
X179917850Y-50670480D01*
X179895671Y-50680970D01*
X179872572Y-50689235D01*
X179848773Y-50695196D01*
X179824505Y-50698796D01*
X179800001Y-50700000D01*
X179149999Y-50700000D01*
X179125495Y-50698796D01*
X179101227Y-50695196D01*
X179077428Y-50689235D01*
X179054329Y-50680970D01*
X179032150Y-50670480D01*
X179011107Y-50657868D01*
X178991401Y-50643253D01*
X178973223Y-50626777D01*
X178956747Y-50608599D01*
X178942132Y-50588893D01*
X178929520Y-50567850D01*
X178919030Y-50545671D01*
X178910765Y-50522572D01*
X178904804Y-50498773D01*
X178901204Y-50474505D01*
X178900000Y-50450001D01*
X178900000Y-49549999D01*
X178901204Y-49525495D01*
X178904804Y-49501227D01*
X178910765Y-49477428D01*
X178919030Y-49454329D01*
X178929520Y-49432150D01*
X178942132Y-49411107D01*
X178956747Y-49391401D01*
X178973223Y-49373223D01*
X178991401Y-49356747D01*
X179011107Y-49342132D01*
X179032150Y-49329520D01*
X179054329Y-49319030D01*
X179077428Y-49310765D01*
X179101227Y-49304804D01*
X179125495Y-49301204D01*
X179149999Y-49300000D01*
X179800001Y-49300000D01*
X179824505Y-49301204D01*
G37*
G36*
X181874505Y-49301204D02*
G01*
X181898773Y-49304804D01*
X181922572Y-49310765D01*
X181945671Y-49319030D01*
X181967850Y-49329520D01*
X181988893Y-49342132D01*
X182008599Y-49356747D01*
X182026777Y-49373223D01*
X182043253Y-49391401D01*
X182057868Y-49411107D01*
X182070480Y-49432150D01*
X182080970Y-49454329D01*
X182089235Y-49477428D01*
X182095196Y-49501227D01*
X182098796Y-49525495D01*
X182100000Y-49549999D01*
X182100000Y-50450001D01*
X182098796Y-50474505D01*
X182095196Y-50498773D01*
X182089235Y-50522572D01*
X182080970Y-50545671D01*
X182070480Y-50567850D01*
X182057868Y-50588893D01*
X182043253Y-50608599D01*
X182026777Y-50626777D01*
X182008599Y-50643253D01*
X181988893Y-50657868D01*
X181967850Y-50670480D01*
X181945671Y-50680970D01*
X181922572Y-50689235D01*
X181898773Y-50695196D01*
X181874505Y-50698796D01*
X181850001Y-50700000D01*
X181199999Y-50700000D01*
X181175495Y-50698796D01*
X181151227Y-50695196D01*
X181127428Y-50689235D01*
X181104329Y-50680970D01*
X181082150Y-50670480D01*
X181061107Y-50657868D01*
X181041401Y-50643253D01*
X181023223Y-50626777D01*
X181006747Y-50608599D01*
X180992132Y-50588893D01*
X180979520Y-50567850D01*
X180969030Y-50545671D01*
X180960765Y-50522572D01*
X180954804Y-50498773D01*
X180951204Y-50474505D01*
X180950000Y-50450001D01*
X180950000Y-49549999D01*
X180951204Y-49525495D01*
X180954804Y-49501227D01*
X180960765Y-49477428D01*
X180969030Y-49454329D01*
X180979520Y-49432150D01*
X180992132Y-49411107D01*
X181006747Y-49391401D01*
X181023223Y-49373223D01*
X181041401Y-49356747D01*
X181061107Y-49342132D01*
X181082150Y-49329520D01*
X181104329Y-49319030D01*
X181127428Y-49310765D01*
X181151227Y-49304804D01*
X181175495Y-49301204D01*
X181199999Y-49300000D01*
X181850001Y-49300000D01*
X181874505Y-49301204D01*
G37*
G36*
X179824505Y-121501204D02*
G01*
X179848773Y-121504804D01*
X179872572Y-121510765D01*
X179895671Y-121519030D01*
X179917850Y-121529520D01*
X179938893Y-121542132D01*
X179958599Y-121556747D01*
X179976777Y-121573223D01*
X179993253Y-121591401D01*
X180007868Y-121611107D01*
X180020480Y-121632150D01*
X180030970Y-121654329D01*
X180039235Y-121677428D01*
X180045196Y-121701227D01*
X180048796Y-121725495D01*
X180050000Y-121749999D01*
X180050000Y-122650001D01*
X180048796Y-122674505D01*
X180045196Y-122698773D01*
X180039235Y-122722572D01*
X180030970Y-122745671D01*
X180020480Y-122767850D01*
X180007868Y-122788893D01*
X179993253Y-122808599D01*
X179976777Y-122826777D01*
X179958599Y-122843253D01*
X179938893Y-122857868D01*
X179917850Y-122870480D01*
X179895671Y-122880970D01*
X179872572Y-122889235D01*
X179848773Y-122895196D01*
X179824505Y-122898796D01*
X179800001Y-122900000D01*
X179149999Y-122900000D01*
X179125495Y-122898796D01*
X179101227Y-122895196D01*
X179077428Y-122889235D01*
X179054329Y-122880970D01*
X179032150Y-122870480D01*
X179011107Y-122857868D01*
X178991401Y-122843253D01*
X178973223Y-122826777D01*
X178956747Y-122808599D01*
X178942132Y-122788893D01*
X178929520Y-122767850D01*
X178919030Y-122745671D01*
X178910765Y-122722572D01*
X178904804Y-122698773D01*
X178901204Y-122674505D01*
X178900000Y-122650001D01*
X178900000Y-121749999D01*
X178901204Y-121725495D01*
X178904804Y-121701227D01*
X178910765Y-121677428D01*
X178919030Y-121654329D01*
X178929520Y-121632150D01*
X178942132Y-121611107D01*
X178956747Y-121591401D01*
X178973223Y-121573223D01*
X178991401Y-121556747D01*
X179011107Y-121542132D01*
X179032150Y-121529520D01*
X179054329Y-121519030D01*
X179077428Y-121510765D01*
X179101227Y-121504804D01*
X179125495Y-121501204D01*
X179149999Y-121500000D01*
X179800001Y-121500000D01*
X179824505Y-121501204D01*
G37*
G36*
X181874505Y-121501204D02*
G01*
X181898773Y-121504804D01*
X181922572Y-121510765D01*
X181945671Y-121519030D01*
X181967850Y-121529520D01*
X181988893Y-121542132D01*
X182008599Y-121556747D01*
X182026777Y-121573223D01*
X182043253Y-121591401D01*
X182057868Y-121611107D01*
X182070480Y-121632150D01*
X182080970Y-121654329D01*
X182089235Y-121677428D01*
X182095196Y-121701227D01*
X182098796Y-121725495D01*
X182100000Y-121749999D01*
X182100000Y-122650001D01*
X182098796Y-122674505D01*
X182095196Y-122698773D01*
X182089235Y-122722572D01*
X182080970Y-122745671D01*
X182070480Y-122767850D01*
X182057868Y-122788893D01*
X182043253Y-122808599D01*
X182026777Y-122826777D01*
X182008599Y-122843253D01*
X181988893Y-122857868D01*
X181967850Y-122870480D01*
X181945671Y-122880970D01*
X181922572Y-122889235D01*
X181898773Y-122895196D01*
X181874505Y-122898796D01*
X181850001Y-122900000D01*
X181199999Y-122900000D01*
X181175495Y-122898796D01*
X181151227Y-122895196D01*
X181127428Y-122889235D01*
X181104329Y-122880970D01*
X181082150Y-122870480D01*
X181061107Y-122857868D01*
X181041401Y-122843253D01*
X181023223Y-122826777D01*
X181006747Y-122808599D01*
X180992132Y-122788893D01*
X180979520Y-122767850D01*
X180969030Y-122745671D01*
X180960765Y-122722572D01*
X180954804Y-122698773D01*
X180951204Y-122674505D01*
X180950000Y-122650001D01*
X180950000Y-121749999D01*
X180951204Y-121725495D01*
X180954804Y-121701227D01*
X180960765Y-121677428D01*
X180969030Y-121654329D01*
X180979520Y-121632150D01*
X180992132Y-121611107D01*
X181006747Y-121591401D01*
X181023223Y-121573223D01*
X181041401Y-121556747D01*
X181061107Y-121542132D01*
X181082150Y-121529520D01*
X181104329Y-121519030D01*
X181127428Y-121510765D01*
X181151227Y-121504804D01*
X181175495Y-121501204D01*
X181199999Y-121500000D01*
X181850001Y-121500000D01*
X181874505Y-121501204D01*
G37*
G36*
X181874505Y-117001204D02*
G01*
X181898773Y-117004804D01*
X181922572Y-117010765D01*
X181945671Y-117019030D01*
X181967850Y-117029520D01*
X181988893Y-117042132D01*
X182008599Y-117056747D01*
X182026777Y-117073223D01*
X182043253Y-117091401D01*
X182057868Y-117111107D01*
X182070480Y-117132150D01*
X182080970Y-117154329D01*
X182089235Y-117177428D01*
X182095196Y-117201227D01*
X182098796Y-117225495D01*
X182100000Y-117249999D01*
X182100000Y-118150001D01*
X182098796Y-118174505D01*
X182095196Y-118198773D01*
X182089235Y-118222572D01*
X182080970Y-118245671D01*
X182070480Y-118267850D01*
X182057868Y-118288893D01*
X182043253Y-118308599D01*
X182026777Y-118326777D01*
X182008599Y-118343253D01*
X181988893Y-118357868D01*
X181967850Y-118370480D01*
X181945671Y-118380970D01*
X181922572Y-118389235D01*
X181898773Y-118395196D01*
X181874505Y-118398796D01*
X181850001Y-118400000D01*
X181199999Y-118400000D01*
X181175495Y-118398796D01*
X181151227Y-118395196D01*
X181127428Y-118389235D01*
X181104329Y-118380970D01*
X181082150Y-118370480D01*
X181061107Y-118357868D01*
X181041401Y-118343253D01*
X181023223Y-118326777D01*
X181006747Y-118308599D01*
X180992132Y-118288893D01*
X180979520Y-118267850D01*
X180969030Y-118245671D01*
X180960765Y-118222572D01*
X180954804Y-118198773D01*
X180951204Y-118174505D01*
X180950000Y-118150001D01*
X180950000Y-117249999D01*
X180951204Y-117225495D01*
X180954804Y-117201227D01*
X180960765Y-117177428D01*
X180969030Y-117154329D01*
X180979520Y-117132150D01*
X180992132Y-117111107D01*
X181006747Y-117091401D01*
X181023223Y-117073223D01*
X181041401Y-117056747D01*
X181061107Y-117042132D01*
X181082150Y-117029520D01*
X181104329Y-117019030D01*
X181127428Y-117010765D01*
X181151227Y-117004804D01*
X181175495Y-117001204D01*
X181199999Y-117000000D01*
X181850001Y-117000000D01*
X181874505Y-117001204D01*
G37*
G36*
X179824505Y-117001204D02*
G01*
X179848773Y-117004804D01*
X179872572Y-117010765D01*
X179895671Y-117019030D01*
X179917850Y-117029520D01*
X179938893Y-117042132D01*
X179958599Y-117056747D01*
X179976777Y-117073223D01*
X179993253Y-117091401D01*
X180007868Y-117111107D01*
X180020480Y-117132150D01*
X180030970Y-117154329D01*
X180039235Y-117177428D01*
X180045196Y-117201227D01*
X180048796Y-117225495D01*
X180050000Y-117249999D01*
X180050000Y-118150001D01*
X180048796Y-118174505D01*
X180045196Y-118198773D01*
X180039235Y-118222572D01*
X180030970Y-118245671D01*
X180020480Y-118267850D01*
X180007868Y-118288893D01*
X179993253Y-118308599D01*
X179976777Y-118326777D01*
X179958599Y-118343253D01*
X179938893Y-118357868D01*
X179917850Y-118370480D01*
X179895671Y-118380970D01*
X179872572Y-118389235D01*
X179848773Y-118395196D01*
X179824505Y-118398796D01*
X179800001Y-118400000D01*
X179149999Y-118400000D01*
X179125495Y-118398796D01*
X179101227Y-118395196D01*
X179077428Y-118389235D01*
X179054329Y-118380970D01*
X179032150Y-118370480D01*
X179011107Y-118357868D01*
X178991401Y-118343253D01*
X178973223Y-118326777D01*
X178956747Y-118308599D01*
X178942132Y-118288893D01*
X178929520Y-118267850D01*
X178919030Y-118245671D01*
X178910765Y-118222572D01*
X178904804Y-118198773D01*
X178901204Y-118174505D01*
X178900000Y-118150001D01*
X178900000Y-117249999D01*
X178901204Y-117225495D01*
X178904804Y-117201227D01*
X178910765Y-117177428D01*
X178919030Y-117154329D01*
X178929520Y-117132150D01*
X178942132Y-117111107D01*
X178956747Y-117091401D01*
X178973223Y-117073223D01*
X178991401Y-117056747D01*
X179011107Y-117042132D01*
X179032150Y-117029520D01*
X179054329Y-117019030D01*
X179077428Y-117010765D01*
X179101227Y-117004804D01*
X179125495Y-117001204D01*
X179149999Y-117000000D01*
X179800001Y-117000000D01*
X179824505Y-117001204D01*
G37*
G36*
X179824505Y-111501204D02*
G01*
X179848773Y-111504804D01*
X179872572Y-111510765D01*
X179895671Y-111519030D01*
X179917850Y-111529520D01*
X179938893Y-111542132D01*
X179958599Y-111556747D01*
X179976777Y-111573223D01*
X179993253Y-111591401D01*
X180007868Y-111611107D01*
X180020480Y-111632150D01*
X180030970Y-111654329D01*
X180039235Y-111677428D01*
X180045196Y-111701227D01*
X180048796Y-111725495D01*
X180050000Y-111749999D01*
X180050000Y-112650001D01*
X180048796Y-112674505D01*
X180045196Y-112698773D01*
X180039235Y-112722572D01*
X180030970Y-112745671D01*
X180020480Y-112767850D01*
X180007868Y-112788893D01*
X179993253Y-112808599D01*
X179976777Y-112826777D01*
X179958599Y-112843253D01*
X179938893Y-112857868D01*
X179917850Y-112870480D01*
X179895671Y-112880970D01*
X179872572Y-112889235D01*
X179848773Y-112895196D01*
X179824505Y-112898796D01*
X179800001Y-112900000D01*
X179149999Y-112900000D01*
X179125495Y-112898796D01*
X179101227Y-112895196D01*
X179077428Y-112889235D01*
X179054329Y-112880970D01*
X179032150Y-112870480D01*
X179011107Y-112857868D01*
X178991401Y-112843253D01*
X178973223Y-112826777D01*
X178956747Y-112808599D01*
X178942132Y-112788893D01*
X178929520Y-112767850D01*
X178919030Y-112745671D01*
X178910765Y-112722572D01*
X178904804Y-112698773D01*
X178901204Y-112674505D01*
X178900000Y-112650001D01*
X178900000Y-111749999D01*
X178901204Y-111725495D01*
X178904804Y-111701227D01*
X178910765Y-111677428D01*
X178919030Y-111654329D01*
X178929520Y-111632150D01*
X178942132Y-111611107D01*
X178956747Y-111591401D01*
X178973223Y-111573223D01*
X178991401Y-111556747D01*
X179011107Y-111542132D01*
X179032150Y-111529520D01*
X179054329Y-111519030D01*
X179077428Y-111510765D01*
X179101227Y-111504804D01*
X179125495Y-111501204D01*
X179149999Y-111500000D01*
X179800001Y-111500000D01*
X179824505Y-111501204D01*
G37*
G36*
X181874505Y-111501204D02*
G01*
X181898773Y-111504804D01*
X181922572Y-111510765D01*
X181945671Y-111519030D01*
X181967850Y-111529520D01*
X181988893Y-111542132D01*
X182008599Y-111556747D01*
X182026777Y-111573223D01*
X182043253Y-111591401D01*
X182057868Y-111611107D01*
X182070480Y-111632150D01*
X182080970Y-111654329D01*
X182089235Y-111677428D01*
X182095196Y-111701227D01*
X182098796Y-111725495D01*
X182100000Y-111749999D01*
X182100000Y-112650001D01*
X182098796Y-112674505D01*
X182095196Y-112698773D01*
X182089235Y-112722572D01*
X182080970Y-112745671D01*
X182070480Y-112767850D01*
X182057868Y-112788893D01*
X182043253Y-112808599D01*
X182026777Y-112826777D01*
X182008599Y-112843253D01*
X181988893Y-112857868D01*
X181967850Y-112870480D01*
X181945671Y-112880970D01*
X181922572Y-112889235D01*
X181898773Y-112895196D01*
X181874505Y-112898796D01*
X181850001Y-112900000D01*
X181199999Y-112900000D01*
X181175495Y-112898796D01*
X181151227Y-112895196D01*
X181127428Y-112889235D01*
X181104329Y-112880970D01*
X181082150Y-112870480D01*
X181061107Y-112857868D01*
X181041401Y-112843253D01*
X181023223Y-112826777D01*
X181006747Y-112808599D01*
X180992132Y-112788893D01*
X180979520Y-112767850D01*
X180969030Y-112745671D01*
X180960765Y-112722572D01*
X180954804Y-112698773D01*
X180951204Y-112674505D01*
X180950000Y-112650001D01*
X180950000Y-111749999D01*
X180951204Y-111725495D01*
X180954804Y-111701227D01*
X180960765Y-111677428D01*
X180969030Y-111654329D01*
X180979520Y-111632150D01*
X180992132Y-111611107D01*
X181006747Y-111591401D01*
X181023223Y-111573223D01*
X181041401Y-111556747D01*
X181061107Y-111542132D01*
X181082150Y-111529520D01*
X181104329Y-111519030D01*
X181127428Y-111510765D01*
X181151227Y-111504804D01*
X181175495Y-111501204D01*
X181199999Y-111500000D01*
X181850001Y-111500000D01*
X181874505Y-111501204D01*
G37*
G36*
X181874505Y-107001204D02*
G01*
X181898773Y-107004804D01*
X181922572Y-107010765D01*
X181945671Y-107019030D01*
X181967850Y-107029520D01*
X181988893Y-107042132D01*
X182008599Y-107056747D01*
X182026777Y-107073223D01*
X182043253Y-107091401D01*
X182057868Y-107111107D01*
X182070480Y-107132150D01*
X182080970Y-107154329D01*
X182089235Y-107177428D01*
X182095196Y-107201227D01*
X182098796Y-107225495D01*
X182100000Y-107249999D01*
X182100000Y-108150001D01*
X182098796Y-108174505D01*
X182095196Y-108198773D01*
X182089235Y-108222572D01*
X182080970Y-108245671D01*
X182070480Y-108267850D01*
X182057868Y-108288893D01*
X182043253Y-108308599D01*
X182026777Y-108326777D01*
X182008599Y-108343253D01*
X181988893Y-108357868D01*
X181967850Y-108370480D01*
X181945671Y-108380970D01*
X181922572Y-108389235D01*
X181898773Y-108395196D01*
X181874505Y-108398796D01*
X181850001Y-108400000D01*
X181199999Y-108400000D01*
X181175495Y-108398796D01*
X181151227Y-108395196D01*
X181127428Y-108389235D01*
X181104329Y-108380970D01*
X181082150Y-108370480D01*
X181061107Y-108357868D01*
X181041401Y-108343253D01*
X181023223Y-108326777D01*
X181006747Y-108308599D01*
X180992132Y-108288893D01*
X180979520Y-108267850D01*
X180969030Y-108245671D01*
X180960765Y-108222572D01*
X180954804Y-108198773D01*
X180951204Y-108174505D01*
X180950000Y-108150001D01*
X180950000Y-107249999D01*
X180951204Y-107225495D01*
X180954804Y-107201227D01*
X180960765Y-107177428D01*
X180969030Y-107154329D01*
X180979520Y-107132150D01*
X180992132Y-107111107D01*
X181006747Y-107091401D01*
X181023223Y-107073223D01*
X181041401Y-107056747D01*
X181061107Y-107042132D01*
X181082150Y-107029520D01*
X181104329Y-107019030D01*
X181127428Y-107010765D01*
X181151227Y-107004804D01*
X181175495Y-107001204D01*
X181199999Y-107000000D01*
X181850001Y-107000000D01*
X181874505Y-107001204D01*
G37*
G36*
X179824505Y-107001204D02*
G01*
X179848773Y-107004804D01*
X179872572Y-107010765D01*
X179895671Y-107019030D01*
X179917850Y-107029520D01*
X179938893Y-107042132D01*
X179958599Y-107056747D01*
X179976777Y-107073223D01*
X179993253Y-107091401D01*
X180007868Y-107111107D01*
X180020480Y-107132150D01*
X180030970Y-107154329D01*
X180039235Y-107177428D01*
X180045196Y-107201227D01*
X180048796Y-107225495D01*
X180050000Y-107249999D01*
X180050000Y-108150001D01*
X180048796Y-108174505D01*
X180045196Y-108198773D01*
X180039235Y-108222572D01*
X180030970Y-108245671D01*
X180020480Y-108267850D01*
X180007868Y-108288893D01*
X179993253Y-108308599D01*
X179976777Y-108326777D01*
X179958599Y-108343253D01*
X179938893Y-108357868D01*
X179917850Y-108370480D01*
X179895671Y-108380970D01*
X179872572Y-108389235D01*
X179848773Y-108395196D01*
X179824505Y-108398796D01*
X179800001Y-108400000D01*
X179149999Y-108400000D01*
X179125495Y-108398796D01*
X179101227Y-108395196D01*
X179077428Y-108389235D01*
X179054329Y-108380970D01*
X179032150Y-108370480D01*
X179011107Y-108357868D01*
X178991401Y-108343253D01*
X178973223Y-108326777D01*
X178956747Y-108308599D01*
X178942132Y-108288893D01*
X178929520Y-108267850D01*
X178919030Y-108245671D01*
X178910765Y-108222572D01*
X178904804Y-108198773D01*
X178901204Y-108174505D01*
X178900000Y-108150001D01*
X178900000Y-107249999D01*
X178901204Y-107225495D01*
X178904804Y-107201227D01*
X178910765Y-107177428D01*
X178919030Y-107154329D01*
X178929520Y-107132150D01*
X178942132Y-107111107D01*
X178956747Y-107091401D01*
X178973223Y-107073223D01*
X178991401Y-107056747D01*
X179011107Y-107042132D01*
X179032150Y-107029520D01*
X179054329Y-107019030D01*
X179077428Y-107010765D01*
X179101227Y-107004804D01*
X179125495Y-107001204D01*
X179149999Y-107000000D01*
X179800001Y-107000000D01*
X179824505Y-107001204D01*
G37*
G36*
X179824505Y-101501204D02*
G01*
X179848773Y-101504804D01*
X179872572Y-101510765D01*
X179895671Y-101519030D01*
X179917850Y-101529520D01*
X179938893Y-101542132D01*
X179958599Y-101556747D01*
X179976777Y-101573223D01*
X179993253Y-101591401D01*
X180007868Y-101611107D01*
X180020480Y-101632150D01*
X180030970Y-101654329D01*
X180039235Y-101677428D01*
X180045196Y-101701227D01*
X180048796Y-101725495D01*
X180050000Y-101749999D01*
X180050000Y-102650001D01*
X180048796Y-102674505D01*
X180045196Y-102698773D01*
X180039235Y-102722572D01*
X180030970Y-102745671D01*
X180020480Y-102767850D01*
X180007868Y-102788893D01*
X179993253Y-102808599D01*
X179976777Y-102826777D01*
X179958599Y-102843253D01*
X179938893Y-102857868D01*
X179917850Y-102870480D01*
X179895671Y-102880970D01*
X179872572Y-102889235D01*
X179848773Y-102895196D01*
X179824505Y-102898796D01*
X179800001Y-102900000D01*
X179149999Y-102900000D01*
X179125495Y-102898796D01*
X179101227Y-102895196D01*
X179077428Y-102889235D01*
X179054329Y-102880970D01*
X179032150Y-102870480D01*
X179011107Y-102857868D01*
X178991401Y-102843253D01*
X178973223Y-102826777D01*
X178956747Y-102808599D01*
X178942132Y-102788893D01*
X178929520Y-102767850D01*
X178919030Y-102745671D01*
X178910765Y-102722572D01*
X178904804Y-102698773D01*
X178901204Y-102674505D01*
X178900000Y-102650001D01*
X178900000Y-101749999D01*
X178901204Y-101725495D01*
X178904804Y-101701227D01*
X178910765Y-101677428D01*
X178919030Y-101654329D01*
X178929520Y-101632150D01*
X178942132Y-101611107D01*
X178956747Y-101591401D01*
X178973223Y-101573223D01*
X178991401Y-101556747D01*
X179011107Y-101542132D01*
X179032150Y-101529520D01*
X179054329Y-101519030D01*
X179077428Y-101510765D01*
X179101227Y-101504804D01*
X179125495Y-101501204D01*
X179149999Y-101500000D01*
X179800001Y-101500000D01*
X179824505Y-101501204D01*
G37*
G36*
X181874505Y-101501204D02*
G01*
X181898773Y-101504804D01*
X181922572Y-101510765D01*
X181945671Y-101519030D01*
X181967850Y-101529520D01*
X181988893Y-101542132D01*
X182008599Y-101556747D01*
X182026777Y-101573223D01*
X182043253Y-101591401D01*
X182057868Y-101611107D01*
X182070480Y-101632150D01*
X182080970Y-101654329D01*
X182089235Y-101677428D01*
X182095196Y-101701227D01*
X182098796Y-101725495D01*
X182100000Y-101749999D01*
X182100000Y-102650001D01*
X182098796Y-102674505D01*
X182095196Y-102698773D01*
X182089235Y-102722572D01*
X182080970Y-102745671D01*
X182070480Y-102767850D01*
X182057868Y-102788893D01*
X182043253Y-102808599D01*
X182026777Y-102826777D01*
X182008599Y-102843253D01*
X181988893Y-102857868D01*
X181967850Y-102870480D01*
X181945671Y-102880970D01*
X181922572Y-102889235D01*
X181898773Y-102895196D01*
X181874505Y-102898796D01*
X181850001Y-102900000D01*
X181199999Y-102900000D01*
X181175495Y-102898796D01*
X181151227Y-102895196D01*
X181127428Y-102889235D01*
X181104329Y-102880970D01*
X181082150Y-102870480D01*
X181061107Y-102857868D01*
X181041401Y-102843253D01*
X181023223Y-102826777D01*
X181006747Y-102808599D01*
X180992132Y-102788893D01*
X180979520Y-102767850D01*
X180969030Y-102745671D01*
X180960765Y-102722572D01*
X180954804Y-102698773D01*
X180951204Y-102674505D01*
X180950000Y-102650001D01*
X180950000Y-101749999D01*
X180951204Y-101725495D01*
X180954804Y-101701227D01*
X180960765Y-101677428D01*
X180969030Y-101654329D01*
X180979520Y-101632150D01*
X180992132Y-101611107D01*
X181006747Y-101591401D01*
X181023223Y-101573223D01*
X181041401Y-101556747D01*
X181061107Y-101542132D01*
X181082150Y-101529520D01*
X181104329Y-101519030D01*
X181127428Y-101510765D01*
X181151227Y-101504804D01*
X181175495Y-101501204D01*
X181199999Y-101500000D01*
X181850001Y-101500000D01*
X181874505Y-101501204D01*
G37*
G36*
X181874505Y-97001204D02*
G01*
X181898773Y-97004804D01*
X181922572Y-97010765D01*
X181945671Y-97019030D01*
X181967850Y-97029520D01*
X181988893Y-97042132D01*
X182008599Y-97056747D01*
X182026777Y-97073223D01*
X182043253Y-97091401D01*
X182057868Y-97111107D01*
X182070480Y-97132150D01*
X182080970Y-97154329D01*
X182089235Y-97177428D01*
X182095196Y-97201227D01*
X182098796Y-97225495D01*
X182100000Y-97249999D01*
X182100000Y-98150001D01*
X182098796Y-98174505D01*
X182095196Y-98198773D01*
X182089235Y-98222572D01*
X182080970Y-98245671D01*
X182070480Y-98267850D01*
X182057868Y-98288893D01*
X182043253Y-98308599D01*
X182026777Y-98326777D01*
X182008599Y-98343253D01*
X181988893Y-98357868D01*
X181967850Y-98370480D01*
X181945671Y-98380970D01*
X181922572Y-98389235D01*
X181898773Y-98395196D01*
X181874505Y-98398796D01*
X181850001Y-98400000D01*
X181199999Y-98400000D01*
X181175495Y-98398796D01*
X181151227Y-98395196D01*
X181127428Y-98389235D01*
X181104329Y-98380970D01*
X181082150Y-98370480D01*
X181061107Y-98357868D01*
X181041401Y-98343253D01*
X181023223Y-98326777D01*
X181006747Y-98308599D01*
X180992132Y-98288893D01*
X180979520Y-98267850D01*
X180969030Y-98245671D01*
X180960765Y-98222572D01*
X180954804Y-98198773D01*
X180951204Y-98174505D01*
X180950000Y-98150001D01*
X180950000Y-97249999D01*
X180951204Y-97225495D01*
X180954804Y-97201227D01*
X180960765Y-97177428D01*
X180969030Y-97154329D01*
X180979520Y-97132150D01*
X180992132Y-97111107D01*
X181006747Y-97091401D01*
X181023223Y-97073223D01*
X181041401Y-97056747D01*
X181061107Y-97042132D01*
X181082150Y-97029520D01*
X181104329Y-97019030D01*
X181127428Y-97010765D01*
X181151227Y-97004804D01*
X181175495Y-97001204D01*
X181199999Y-97000000D01*
X181850001Y-97000000D01*
X181874505Y-97001204D01*
G37*
G36*
X179824505Y-97001204D02*
G01*
X179848773Y-97004804D01*
X179872572Y-97010765D01*
X179895671Y-97019030D01*
X179917850Y-97029520D01*
X179938893Y-97042132D01*
X179958599Y-97056747D01*
X179976777Y-97073223D01*
X179993253Y-97091401D01*
X180007868Y-97111107D01*
X180020480Y-97132150D01*
X180030970Y-97154329D01*
X180039235Y-97177428D01*
X180045196Y-97201227D01*
X180048796Y-97225495D01*
X180050000Y-97249999D01*
X180050000Y-98150001D01*
X180048796Y-98174505D01*
X180045196Y-98198773D01*
X180039235Y-98222572D01*
X180030970Y-98245671D01*
X180020480Y-98267850D01*
X180007868Y-98288893D01*
X179993253Y-98308599D01*
X179976777Y-98326777D01*
X179958599Y-98343253D01*
X179938893Y-98357868D01*
X179917850Y-98370480D01*
X179895671Y-98380970D01*
X179872572Y-98389235D01*
X179848773Y-98395196D01*
X179824505Y-98398796D01*
X179800001Y-98400000D01*
X179149999Y-98400000D01*
X179125495Y-98398796D01*
X179101227Y-98395196D01*
X179077428Y-98389235D01*
X179054329Y-98380970D01*
X179032150Y-98370480D01*
X179011107Y-98357868D01*
X178991401Y-98343253D01*
X178973223Y-98326777D01*
X178956747Y-98308599D01*
X178942132Y-98288893D01*
X178929520Y-98267850D01*
X178919030Y-98245671D01*
X178910765Y-98222572D01*
X178904804Y-98198773D01*
X178901204Y-98174505D01*
X178900000Y-98150001D01*
X178900000Y-97249999D01*
X178901204Y-97225495D01*
X178904804Y-97201227D01*
X178910765Y-97177428D01*
X178919030Y-97154329D01*
X178929520Y-97132150D01*
X178942132Y-97111107D01*
X178956747Y-97091401D01*
X178973223Y-97073223D01*
X178991401Y-97056747D01*
X179011107Y-97042132D01*
X179032150Y-97029520D01*
X179054329Y-97019030D01*
X179077428Y-97010765D01*
X179101227Y-97004804D01*
X179125495Y-97001204D01*
X179149999Y-97000000D01*
X179800001Y-97000000D01*
X179824505Y-97001204D01*
G37*
G36*
X179824505Y-91501204D02*
G01*
X179848773Y-91504804D01*
X179872572Y-91510765D01*
X179895671Y-91519030D01*
X179917850Y-91529520D01*
X179938893Y-91542132D01*
X179958599Y-91556747D01*
X179976777Y-91573223D01*
X179993253Y-91591401D01*
X180007868Y-91611107D01*
X180020480Y-91632150D01*
X180030970Y-91654329D01*
X180039235Y-91677428D01*
X180045196Y-91701227D01*
X180048796Y-91725495D01*
X180050000Y-91749999D01*
X180050000Y-92650001D01*
X180048796Y-92674505D01*
X180045196Y-92698773D01*
X180039235Y-92722572D01*
X180030970Y-92745671D01*
X180020480Y-92767850D01*
X180007868Y-92788893D01*
X179993253Y-92808599D01*
X179976777Y-92826777D01*
X179958599Y-92843253D01*
X179938893Y-92857868D01*
X179917850Y-92870480D01*
X179895671Y-92880970D01*
X179872572Y-92889235D01*
X179848773Y-92895196D01*
X179824505Y-92898796D01*
X179800001Y-92900000D01*
X179149999Y-92900000D01*
X179125495Y-92898796D01*
X179101227Y-92895196D01*
X179077428Y-92889235D01*
X179054329Y-92880970D01*
X179032150Y-92870480D01*
X179011107Y-92857868D01*
X178991401Y-92843253D01*
X178973223Y-92826777D01*
X178956747Y-92808599D01*
X178942132Y-92788893D01*
X178929520Y-92767850D01*
X178919030Y-92745671D01*
X178910765Y-92722572D01*
X178904804Y-92698773D01*
X178901204Y-92674505D01*
X178900000Y-92650001D01*
X178900000Y-91749999D01*
X178901204Y-91725495D01*
X178904804Y-91701227D01*
X178910765Y-91677428D01*
X178919030Y-91654329D01*
X178929520Y-91632150D01*
X178942132Y-91611107D01*
X178956747Y-91591401D01*
X178973223Y-91573223D01*
X178991401Y-91556747D01*
X179011107Y-91542132D01*
X179032150Y-91529520D01*
X179054329Y-91519030D01*
X179077428Y-91510765D01*
X179101227Y-91504804D01*
X179125495Y-91501204D01*
X179149999Y-91500000D01*
X179800001Y-91500000D01*
X179824505Y-91501204D01*
G37*
G36*
X181874505Y-91501204D02*
G01*
X181898773Y-91504804D01*
X181922572Y-91510765D01*
X181945671Y-91519030D01*
X181967850Y-91529520D01*
X181988893Y-91542132D01*
X182008599Y-91556747D01*
X182026777Y-91573223D01*
X182043253Y-91591401D01*
X182057868Y-91611107D01*
X182070480Y-91632150D01*
X182080970Y-91654329D01*
X182089235Y-91677428D01*
X182095196Y-91701227D01*
X182098796Y-91725495D01*
X182100000Y-91749999D01*
X182100000Y-92650001D01*
X182098796Y-92674505D01*
X182095196Y-92698773D01*
X182089235Y-92722572D01*
X182080970Y-92745671D01*
X182070480Y-92767850D01*
X182057868Y-92788893D01*
X182043253Y-92808599D01*
X182026777Y-92826777D01*
X182008599Y-92843253D01*
X181988893Y-92857868D01*
X181967850Y-92870480D01*
X181945671Y-92880970D01*
X181922572Y-92889235D01*
X181898773Y-92895196D01*
X181874505Y-92898796D01*
X181850001Y-92900000D01*
X181199999Y-92900000D01*
X181175495Y-92898796D01*
X181151227Y-92895196D01*
X181127428Y-92889235D01*
X181104329Y-92880970D01*
X181082150Y-92870480D01*
X181061107Y-92857868D01*
X181041401Y-92843253D01*
X181023223Y-92826777D01*
X181006747Y-92808599D01*
X180992132Y-92788893D01*
X180979520Y-92767850D01*
X180969030Y-92745671D01*
X180960765Y-92722572D01*
X180954804Y-92698773D01*
X180951204Y-92674505D01*
X180950000Y-92650001D01*
X180950000Y-91749999D01*
X180951204Y-91725495D01*
X180954804Y-91701227D01*
X180960765Y-91677428D01*
X180969030Y-91654329D01*
X180979520Y-91632150D01*
X180992132Y-91611107D01*
X181006747Y-91591401D01*
X181023223Y-91573223D01*
X181041401Y-91556747D01*
X181061107Y-91542132D01*
X181082150Y-91529520D01*
X181104329Y-91519030D01*
X181127428Y-91510765D01*
X181151227Y-91504804D01*
X181175495Y-91501204D01*
X181199999Y-91500000D01*
X181850001Y-91500000D01*
X181874505Y-91501204D01*
G37*
G36*
X181874505Y-87001204D02*
G01*
X181898773Y-87004804D01*
X181922572Y-87010765D01*
X181945671Y-87019030D01*
X181967850Y-87029520D01*
X181988893Y-87042132D01*
X182008599Y-87056747D01*
X182026777Y-87073223D01*
X182043253Y-87091401D01*
X182057868Y-87111107D01*
X182070480Y-87132150D01*
X182080970Y-87154329D01*
X182089235Y-87177428D01*
X182095196Y-87201227D01*
X182098796Y-87225495D01*
X182100000Y-87249999D01*
X182100000Y-88150001D01*
X182098796Y-88174505D01*
X182095196Y-88198773D01*
X182089235Y-88222572D01*
X182080970Y-88245671D01*
X182070480Y-88267850D01*
X182057868Y-88288893D01*
X182043253Y-88308599D01*
X182026777Y-88326777D01*
X182008599Y-88343253D01*
X181988893Y-88357868D01*
X181967850Y-88370480D01*
X181945671Y-88380970D01*
X181922572Y-88389235D01*
X181898773Y-88395196D01*
X181874505Y-88398796D01*
X181850001Y-88400000D01*
X181199999Y-88400000D01*
X181175495Y-88398796D01*
X181151227Y-88395196D01*
X181127428Y-88389235D01*
X181104329Y-88380970D01*
X181082150Y-88370480D01*
X181061107Y-88357868D01*
X181041401Y-88343253D01*
X181023223Y-88326777D01*
X181006747Y-88308599D01*
X180992132Y-88288893D01*
X180979520Y-88267850D01*
X180969030Y-88245671D01*
X180960765Y-88222572D01*
X180954804Y-88198773D01*
X180951204Y-88174505D01*
X180950000Y-88150001D01*
X180950000Y-87249999D01*
X180951204Y-87225495D01*
X180954804Y-87201227D01*
X180960765Y-87177428D01*
X180969030Y-87154329D01*
X180979520Y-87132150D01*
X180992132Y-87111107D01*
X181006747Y-87091401D01*
X181023223Y-87073223D01*
X181041401Y-87056747D01*
X181061107Y-87042132D01*
X181082150Y-87029520D01*
X181104329Y-87019030D01*
X181127428Y-87010765D01*
X181151227Y-87004804D01*
X181175495Y-87001204D01*
X181199999Y-87000000D01*
X181850001Y-87000000D01*
X181874505Y-87001204D01*
G37*
G36*
X179824505Y-87001204D02*
G01*
X179848773Y-87004804D01*
X179872572Y-87010765D01*
X179895671Y-87019030D01*
X179917850Y-87029520D01*
X179938893Y-87042132D01*
X179958599Y-87056747D01*
X179976777Y-87073223D01*
X179993253Y-87091401D01*
X180007868Y-87111107D01*
X180020480Y-87132150D01*
X180030970Y-87154329D01*
X180039235Y-87177428D01*
X180045196Y-87201227D01*
X180048796Y-87225495D01*
X180050000Y-87249999D01*
X180050000Y-88150001D01*
X180048796Y-88174505D01*
X180045196Y-88198773D01*
X180039235Y-88222572D01*
X180030970Y-88245671D01*
X180020480Y-88267850D01*
X180007868Y-88288893D01*
X179993253Y-88308599D01*
X179976777Y-88326777D01*
X179958599Y-88343253D01*
X179938893Y-88357868D01*
X179917850Y-88370480D01*
X179895671Y-88380970D01*
X179872572Y-88389235D01*
X179848773Y-88395196D01*
X179824505Y-88398796D01*
X179800001Y-88400000D01*
X179149999Y-88400000D01*
X179125495Y-88398796D01*
X179101227Y-88395196D01*
X179077428Y-88389235D01*
X179054329Y-88380970D01*
X179032150Y-88370480D01*
X179011107Y-88357868D01*
X178991401Y-88343253D01*
X178973223Y-88326777D01*
X178956747Y-88308599D01*
X178942132Y-88288893D01*
X178929520Y-88267850D01*
X178919030Y-88245671D01*
X178910765Y-88222572D01*
X178904804Y-88198773D01*
X178901204Y-88174505D01*
X178900000Y-88150001D01*
X178900000Y-87249999D01*
X178901204Y-87225495D01*
X178904804Y-87201227D01*
X178910765Y-87177428D01*
X178919030Y-87154329D01*
X178929520Y-87132150D01*
X178942132Y-87111107D01*
X178956747Y-87091401D01*
X178973223Y-87073223D01*
X178991401Y-87056747D01*
X179011107Y-87042132D01*
X179032150Y-87029520D01*
X179054329Y-87019030D01*
X179077428Y-87010765D01*
X179101227Y-87004804D01*
X179125495Y-87001204D01*
X179149999Y-87000000D01*
X179800001Y-87000000D01*
X179824505Y-87001204D01*
G37*
G36*
X179824505Y-81501204D02*
G01*
X179848773Y-81504804D01*
X179872572Y-81510765D01*
X179895671Y-81519030D01*
X179917850Y-81529520D01*
X179938893Y-81542132D01*
X179958599Y-81556747D01*
X179976777Y-81573223D01*
X179993253Y-81591401D01*
X180007868Y-81611107D01*
X180020480Y-81632150D01*
X180030970Y-81654329D01*
X180039235Y-81677428D01*
X180045196Y-81701227D01*
X180048796Y-81725495D01*
X180050000Y-81749999D01*
X180050000Y-82650001D01*
X180048796Y-82674505D01*
X180045196Y-82698773D01*
X180039235Y-82722572D01*
X180030970Y-82745671D01*
X180020480Y-82767850D01*
X180007868Y-82788893D01*
X179993253Y-82808599D01*
X179976777Y-82826777D01*
X179958599Y-82843253D01*
X179938893Y-82857868D01*
X179917850Y-82870480D01*
X179895671Y-82880970D01*
X179872572Y-82889235D01*
X179848773Y-82895196D01*
X179824505Y-82898796D01*
X179800001Y-82900000D01*
X179149999Y-82900000D01*
X179125495Y-82898796D01*
X179101227Y-82895196D01*
X179077428Y-82889235D01*
X179054329Y-82880970D01*
X179032150Y-82870480D01*
X179011107Y-82857868D01*
X178991401Y-82843253D01*
X178973223Y-82826777D01*
X178956747Y-82808599D01*
X178942132Y-82788893D01*
X178929520Y-82767850D01*
X178919030Y-82745671D01*
X178910765Y-82722572D01*
X178904804Y-82698773D01*
X178901204Y-82674505D01*
X178900000Y-82650001D01*
X178900000Y-81749999D01*
X178901204Y-81725495D01*
X178904804Y-81701227D01*
X178910765Y-81677428D01*
X178919030Y-81654329D01*
X178929520Y-81632150D01*
X178942132Y-81611107D01*
X178956747Y-81591401D01*
X178973223Y-81573223D01*
X178991401Y-81556747D01*
X179011107Y-81542132D01*
X179032150Y-81529520D01*
X179054329Y-81519030D01*
X179077428Y-81510765D01*
X179101227Y-81504804D01*
X179125495Y-81501204D01*
X179149999Y-81500000D01*
X179800001Y-81500000D01*
X179824505Y-81501204D01*
G37*
G36*
X181874505Y-81501204D02*
G01*
X181898773Y-81504804D01*
X181922572Y-81510765D01*
X181945671Y-81519030D01*
X181967850Y-81529520D01*
X181988893Y-81542132D01*
X182008599Y-81556747D01*
X182026777Y-81573223D01*
X182043253Y-81591401D01*
X182057868Y-81611107D01*
X182070480Y-81632150D01*
X182080970Y-81654329D01*
X182089235Y-81677428D01*
X182095196Y-81701227D01*
X182098796Y-81725495D01*
X182100000Y-81749999D01*
X182100000Y-82650001D01*
X182098796Y-82674505D01*
X182095196Y-82698773D01*
X182089235Y-82722572D01*
X182080970Y-82745671D01*
X182070480Y-82767850D01*
X182057868Y-82788893D01*
X182043253Y-82808599D01*
X182026777Y-82826777D01*
X182008599Y-82843253D01*
X181988893Y-82857868D01*
X181967850Y-82870480D01*
X181945671Y-82880970D01*
X181922572Y-82889235D01*
X181898773Y-82895196D01*
X181874505Y-82898796D01*
X181850001Y-82900000D01*
X181199999Y-82900000D01*
X181175495Y-82898796D01*
X181151227Y-82895196D01*
X181127428Y-82889235D01*
X181104329Y-82880970D01*
X181082150Y-82870480D01*
X181061107Y-82857868D01*
X181041401Y-82843253D01*
X181023223Y-82826777D01*
X181006747Y-82808599D01*
X180992132Y-82788893D01*
X180979520Y-82767850D01*
X180969030Y-82745671D01*
X180960765Y-82722572D01*
X180954804Y-82698773D01*
X180951204Y-82674505D01*
X180950000Y-82650001D01*
X180950000Y-81749999D01*
X180951204Y-81725495D01*
X180954804Y-81701227D01*
X180960765Y-81677428D01*
X180969030Y-81654329D01*
X180979520Y-81632150D01*
X180992132Y-81611107D01*
X181006747Y-81591401D01*
X181023223Y-81573223D01*
X181041401Y-81556747D01*
X181061107Y-81542132D01*
X181082150Y-81529520D01*
X181104329Y-81519030D01*
X181127428Y-81510765D01*
X181151227Y-81504804D01*
X181175495Y-81501204D01*
X181199999Y-81500000D01*
X181850001Y-81500000D01*
X181874505Y-81501204D01*
G37*
G36*
X181874505Y-77001204D02*
G01*
X181898773Y-77004804D01*
X181922572Y-77010765D01*
X181945671Y-77019030D01*
X181967850Y-77029520D01*
X181988893Y-77042132D01*
X182008599Y-77056747D01*
X182026777Y-77073223D01*
X182043253Y-77091401D01*
X182057868Y-77111107D01*
X182070480Y-77132150D01*
X182080970Y-77154329D01*
X182089235Y-77177428D01*
X182095196Y-77201227D01*
X182098796Y-77225495D01*
X182100000Y-77249999D01*
X182100000Y-78150001D01*
X182098796Y-78174505D01*
X182095196Y-78198773D01*
X182089235Y-78222572D01*
X182080970Y-78245671D01*
X182070480Y-78267850D01*
X182057868Y-78288893D01*
X182043253Y-78308599D01*
X182026777Y-78326777D01*
X182008599Y-78343253D01*
X181988893Y-78357868D01*
X181967850Y-78370480D01*
X181945671Y-78380970D01*
X181922572Y-78389235D01*
X181898773Y-78395196D01*
X181874505Y-78398796D01*
X181850001Y-78400000D01*
X181199999Y-78400000D01*
X181175495Y-78398796D01*
X181151227Y-78395196D01*
X181127428Y-78389235D01*
X181104329Y-78380970D01*
X181082150Y-78370480D01*
X181061107Y-78357868D01*
X181041401Y-78343253D01*
X181023223Y-78326777D01*
X181006747Y-78308599D01*
X180992132Y-78288893D01*
X180979520Y-78267850D01*
X180969030Y-78245671D01*
X180960765Y-78222572D01*
X180954804Y-78198773D01*
X180951204Y-78174505D01*
X180950000Y-78150001D01*
X180950000Y-77249999D01*
X180951204Y-77225495D01*
X180954804Y-77201227D01*
X180960765Y-77177428D01*
X180969030Y-77154329D01*
X180979520Y-77132150D01*
X180992132Y-77111107D01*
X181006747Y-77091401D01*
X181023223Y-77073223D01*
X181041401Y-77056747D01*
X181061107Y-77042132D01*
X181082150Y-77029520D01*
X181104329Y-77019030D01*
X181127428Y-77010765D01*
X181151227Y-77004804D01*
X181175495Y-77001204D01*
X181199999Y-77000000D01*
X181850001Y-77000000D01*
X181874505Y-77001204D01*
G37*
G36*
X179824505Y-77001204D02*
G01*
X179848773Y-77004804D01*
X179872572Y-77010765D01*
X179895671Y-77019030D01*
X179917850Y-77029520D01*
X179938893Y-77042132D01*
X179958599Y-77056747D01*
X179976777Y-77073223D01*
X179993253Y-77091401D01*
X180007868Y-77111107D01*
X180020480Y-77132150D01*
X180030970Y-77154329D01*
X180039235Y-77177428D01*
X180045196Y-77201227D01*
X180048796Y-77225495D01*
X180050000Y-77249999D01*
X180050000Y-78150001D01*
X180048796Y-78174505D01*
X180045196Y-78198773D01*
X180039235Y-78222572D01*
X180030970Y-78245671D01*
X180020480Y-78267850D01*
X180007868Y-78288893D01*
X179993253Y-78308599D01*
X179976777Y-78326777D01*
X179958599Y-78343253D01*
X179938893Y-78357868D01*
X179917850Y-78370480D01*
X179895671Y-78380970D01*
X179872572Y-78389235D01*
X179848773Y-78395196D01*
X179824505Y-78398796D01*
X179800001Y-78400000D01*
X179149999Y-78400000D01*
X179125495Y-78398796D01*
X179101227Y-78395196D01*
X179077428Y-78389235D01*
X179054329Y-78380970D01*
X179032150Y-78370480D01*
X179011107Y-78357868D01*
X178991401Y-78343253D01*
X178973223Y-78326777D01*
X178956747Y-78308599D01*
X178942132Y-78288893D01*
X178929520Y-78267850D01*
X178919030Y-78245671D01*
X178910765Y-78222572D01*
X178904804Y-78198773D01*
X178901204Y-78174505D01*
X178900000Y-78150001D01*
X178900000Y-77249999D01*
X178901204Y-77225495D01*
X178904804Y-77201227D01*
X178910765Y-77177428D01*
X178919030Y-77154329D01*
X178929520Y-77132150D01*
X178942132Y-77111107D01*
X178956747Y-77091401D01*
X178973223Y-77073223D01*
X178991401Y-77056747D01*
X179011107Y-77042132D01*
X179032150Y-77029520D01*
X179054329Y-77019030D01*
X179077428Y-77010765D01*
X179101227Y-77004804D01*
X179125495Y-77001204D01*
X179149999Y-77000000D01*
X179800001Y-77000000D01*
X179824505Y-77001204D01*
G37*
G36*
X179824505Y-71501204D02*
G01*
X179848773Y-71504804D01*
X179872572Y-71510765D01*
X179895671Y-71519030D01*
X179917850Y-71529520D01*
X179938893Y-71542132D01*
X179958599Y-71556747D01*
X179976777Y-71573223D01*
X179993253Y-71591401D01*
X180007868Y-71611107D01*
X180020480Y-71632150D01*
X180030970Y-71654329D01*
X180039235Y-71677428D01*
X180045196Y-71701227D01*
X180048796Y-71725495D01*
X180050000Y-71749999D01*
X180050000Y-72650001D01*
X180048796Y-72674505D01*
X180045196Y-72698773D01*
X180039235Y-72722572D01*
X180030970Y-72745671D01*
X180020480Y-72767850D01*
X180007868Y-72788893D01*
X179993253Y-72808599D01*
X179976777Y-72826777D01*
X179958599Y-72843253D01*
X179938893Y-72857868D01*
X179917850Y-72870480D01*
X179895671Y-72880970D01*
X179872572Y-72889235D01*
X179848773Y-72895196D01*
X179824505Y-72898796D01*
X179800001Y-72900000D01*
X179149999Y-72900000D01*
X179125495Y-72898796D01*
X179101227Y-72895196D01*
X179077428Y-72889235D01*
X179054329Y-72880970D01*
X179032150Y-72870480D01*
X179011107Y-72857868D01*
X178991401Y-72843253D01*
X178973223Y-72826777D01*
X178956747Y-72808599D01*
X178942132Y-72788893D01*
X178929520Y-72767850D01*
X178919030Y-72745671D01*
X178910765Y-72722572D01*
X178904804Y-72698773D01*
X178901204Y-72674505D01*
X178900000Y-72650001D01*
X178900000Y-71749999D01*
X178901204Y-71725495D01*
X178904804Y-71701227D01*
X178910765Y-71677428D01*
X178919030Y-71654329D01*
X178929520Y-71632150D01*
X178942132Y-71611107D01*
X178956747Y-71591401D01*
X178973223Y-71573223D01*
X178991401Y-71556747D01*
X179011107Y-71542132D01*
X179032150Y-71529520D01*
X179054329Y-71519030D01*
X179077428Y-71510765D01*
X179101227Y-71504804D01*
X179125495Y-71501204D01*
X179149999Y-71500000D01*
X179800001Y-71500000D01*
X179824505Y-71501204D01*
G37*
G36*
X181874505Y-71501204D02*
G01*
X181898773Y-71504804D01*
X181922572Y-71510765D01*
X181945671Y-71519030D01*
X181967850Y-71529520D01*
X181988893Y-71542132D01*
X182008599Y-71556747D01*
X182026777Y-71573223D01*
X182043253Y-71591401D01*
X182057868Y-71611107D01*
X182070480Y-71632150D01*
X182080970Y-71654329D01*
X182089235Y-71677428D01*
X182095196Y-71701227D01*
X182098796Y-71725495D01*
X182100000Y-71749999D01*
X182100000Y-72650001D01*
X182098796Y-72674505D01*
X182095196Y-72698773D01*
X182089235Y-72722572D01*
X182080970Y-72745671D01*
X182070480Y-72767850D01*
X182057868Y-72788893D01*
X182043253Y-72808599D01*
X182026777Y-72826777D01*
X182008599Y-72843253D01*
X181988893Y-72857868D01*
X181967850Y-72870480D01*
X181945671Y-72880970D01*
X181922572Y-72889235D01*
X181898773Y-72895196D01*
X181874505Y-72898796D01*
X181850001Y-72900000D01*
X181199999Y-72900000D01*
X181175495Y-72898796D01*
X181151227Y-72895196D01*
X181127428Y-72889235D01*
X181104329Y-72880970D01*
X181082150Y-72870480D01*
X181061107Y-72857868D01*
X181041401Y-72843253D01*
X181023223Y-72826777D01*
X181006747Y-72808599D01*
X180992132Y-72788893D01*
X180979520Y-72767850D01*
X180969030Y-72745671D01*
X180960765Y-72722572D01*
X180954804Y-72698773D01*
X180951204Y-72674505D01*
X180950000Y-72650001D01*
X180950000Y-71749999D01*
X180951204Y-71725495D01*
X180954804Y-71701227D01*
X180960765Y-71677428D01*
X180969030Y-71654329D01*
X180979520Y-71632150D01*
X180992132Y-71611107D01*
X181006747Y-71591401D01*
X181023223Y-71573223D01*
X181041401Y-71556747D01*
X181061107Y-71542132D01*
X181082150Y-71529520D01*
X181104329Y-71519030D01*
X181127428Y-71510765D01*
X181151227Y-71504804D01*
X181175495Y-71501204D01*
X181199999Y-71500000D01*
X181850001Y-71500000D01*
X181874505Y-71501204D01*
G37*
G36*
X181874505Y-67001204D02*
G01*
X181898773Y-67004804D01*
X181922572Y-67010765D01*
X181945671Y-67019030D01*
X181967850Y-67029520D01*
X181988893Y-67042132D01*
X182008599Y-67056747D01*
X182026777Y-67073223D01*
X182043253Y-67091401D01*
X182057868Y-67111107D01*
X182070480Y-67132150D01*
X182080970Y-67154329D01*
X182089235Y-67177428D01*
X182095196Y-67201227D01*
X182098796Y-67225495D01*
X182100000Y-67249999D01*
X182100000Y-68150001D01*
X182098796Y-68174505D01*
X182095196Y-68198773D01*
X182089235Y-68222572D01*
X182080970Y-68245671D01*
X182070480Y-68267850D01*
X182057868Y-68288893D01*
X182043253Y-68308599D01*
X182026777Y-68326777D01*
X182008599Y-68343253D01*
X181988893Y-68357868D01*
X181967850Y-68370480D01*
X181945671Y-68380970D01*
X181922572Y-68389235D01*
X181898773Y-68395196D01*
X181874505Y-68398796D01*
X181850001Y-68400000D01*
X181199999Y-68400000D01*
X181175495Y-68398796D01*
X181151227Y-68395196D01*
X181127428Y-68389235D01*
X181104329Y-68380970D01*
X181082150Y-68370480D01*
X181061107Y-68357868D01*
X181041401Y-68343253D01*
X181023223Y-68326777D01*
X181006747Y-68308599D01*
X180992132Y-68288893D01*
X180979520Y-68267850D01*
X180969030Y-68245671D01*
X180960765Y-68222572D01*
X180954804Y-68198773D01*
X180951204Y-68174505D01*
X180950000Y-68150001D01*
X180950000Y-67249999D01*
X180951204Y-67225495D01*
X180954804Y-67201227D01*
X180960765Y-67177428D01*
X180969030Y-67154329D01*
X180979520Y-67132150D01*
X180992132Y-67111107D01*
X181006747Y-67091401D01*
X181023223Y-67073223D01*
X181041401Y-67056747D01*
X181061107Y-67042132D01*
X181082150Y-67029520D01*
X181104329Y-67019030D01*
X181127428Y-67010765D01*
X181151227Y-67004804D01*
X181175495Y-67001204D01*
X181199999Y-67000000D01*
X181850001Y-67000000D01*
X181874505Y-67001204D01*
G37*
G36*
X179824505Y-67001204D02*
G01*
X179848773Y-67004804D01*
X179872572Y-67010765D01*
X179895671Y-67019030D01*
X179917850Y-67029520D01*
X179938893Y-67042132D01*
X179958599Y-67056747D01*
X179976777Y-67073223D01*
X179993253Y-67091401D01*
X180007868Y-67111107D01*
X180020480Y-67132150D01*
X180030970Y-67154329D01*
X180039235Y-67177428D01*
X180045196Y-67201227D01*
X180048796Y-67225495D01*
X180050000Y-67249999D01*
X180050000Y-68150001D01*
X180048796Y-68174505D01*
X180045196Y-68198773D01*
X180039235Y-68222572D01*
X180030970Y-68245671D01*
X180020480Y-68267850D01*
X180007868Y-68288893D01*
X179993253Y-68308599D01*
X179976777Y-68326777D01*
X179958599Y-68343253D01*
X179938893Y-68357868D01*
X179917850Y-68370480D01*
X179895671Y-68380970D01*
X179872572Y-68389235D01*
X179848773Y-68395196D01*
X179824505Y-68398796D01*
X179800001Y-68400000D01*
X179149999Y-68400000D01*
X179125495Y-68398796D01*
X179101227Y-68395196D01*
X179077428Y-68389235D01*
X179054329Y-68380970D01*
X179032150Y-68370480D01*
X179011107Y-68357868D01*
X178991401Y-68343253D01*
X178973223Y-68326777D01*
X178956747Y-68308599D01*
X178942132Y-68288893D01*
X178929520Y-68267850D01*
X178919030Y-68245671D01*
X178910765Y-68222572D01*
X178904804Y-68198773D01*
X178901204Y-68174505D01*
X178900000Y-68150001D01*
X178900000Y-67249999D01*
X178901204Y-67225495D01*
X178904804Y-67201227D01*
X178910765Y-67177428D01*
X178919030Y-67154329D01*
X178929520Y-67132150D01*
X178942132Y-67111107D01*
X178956747Y-67091401D01*
X178973223Y-67073223D01*
X178991401Y-67056747D01*
X179011107Y-67042132D01*
X179032150Y-67029520D01*
X179054329Y-67019030D01*
X179077428Y-67010765D01*
X179101227Y-67004804D01*
X179125495Y-67001204D01*
X179149999Y-67000000D01*
X179800001Y-67000000D01*
X179824505Y-67001204D01*
G37*
G36*
X179824505Y-61501204D02*
G01*
X179848773Y-61504804D01*
X179872572Y-61510765D01*
X179895671Y-61519030D01*
X179917850Y-61529520D01*
X179938893Y-61542132D01*
X179958599Y-61556747D01*
X179976777Y-61573223D01*
X179993253Y-61591401D01*
X180007868Y-61611107D01*
X180020480Y-61632150D01*
X180030970Y-61654329D01*
X180039235Y-61677428D01*
X180045196Y-61701227D01*
X180048796Y-61725495D01*
X180050000Y-61749999D01*
X180050000Y-62650001D01*
X180048796Y-62674505D01*
X180045196Y-62698773D01*
X180039235Y-62722572D01*
X180030970Y-62745671D01*
X180020480Y-62767850D01*
X180007868Y-62788893D01*
X179993253Y-62808599D01*
X179976777Y-62826777D01*
X179958599Y-62843253D01*
X179938893Y-62857868D01*
X179917850Y-62870480D01*
X179895671Y-62880970D01*
X179872572Y-62889235D01*
X179848773Y-62895196D01*
X179824505Y-62898796D01*
X179800001Y-62900000D01*
X179149999Y-62900000D01*
X179125495Y-62898796D01*
X179101227Y-62895196D01*
X179077428Y-62889235D01*
X179054329Y-62880970D01*
X179032150Y-62870480D01*
X179011107Y-62857868D01*
X178991401Y-62843253D01*
X178973223Y-62826777D01*
X178956747Y-62808599D01*
X178942132Y-62788893D01*
X178929520Y-62767850D01*
X178919030Y-62745671D01*
X178910765Y-62722572D01*
X178904804Y-62698773D01*
X178901204Y-62674505D01*
X178900000Y-62650001D01*
X178900000Y-61749999D01*
X178901204Y-61725495D01*
X178904804Y-61701227D01*
X178910765Y-61677428D01*
X178919030Y-61654329D01*
X178929520Y-61632150D01*
X178942132Y-61611107D01*
X178956747Y-61591401D01*
X178973223Y-61573223D01*
X178991401Y-61556747D01*
X179011107Y-61542132D01*
X179032150Y-61529520D01*
X179054329Y-61519030D01*
X179077428Y-61510765D01*
X179101227Y-61504804D01*
X179125495Y-61501204D01*
X179149999Y-61500000D01*
X179800001Y-61500000D01*
X179824505Y-61501204D01*
G37*
G36*
X181874505Y-61501204D02*
G01*
X181898773Y-61504804D01*
X181922572Y-61510765D01*
X181945671Y-61519030D01*
X181967850Y-61529520D01*
X181988893Y-61542132D01*
X182008599Y-61556747D01*
X182026777Y-61573223D01*
X182043253Y-61591401D01*
X182057868Y-61611107D01*
X182070480Y-61632150D01*
X182080970Y-61654329D01*
X182089235Y-61677428D01*
X182095196Y-61701227D01*
X182098796Y-61725495D01*
X182100000Y-61749999D01*
X182100000Y-62650001D01*
X182098796Y-62674505D01*
X182095196Y-62698773D01*
X182089235Y-62722572D01*
X182080970Y-62745671D01*
X182070480Y-62767850D01*
X182057868Y-62788893D01*
X182043253Y-62808599D01*
X182026777Y-62826777D01*
X182008599Y-62843253D01*
X181988893Y-62857868D01*
X181967850Y-62870480D01*
X181945671Y-62880970D01*
X181922572Y-62889235D01*
X181898773Y-62895196D01*
X181874505Y-62898796D01*
X181850001Y-62900000D01*
X181199999Y-62900000D01*
X181175495Y-62898796D01*
X181151227Y-62895196D01*
X181127428Y-62889235D01*
X181104329Y-62880970D01*
X181082150Y-62870480D01*
X181061107Y-62857868D01*
X181041401Y-62843253D01*
X181023223Y-62826777D01*
X181006747Y-62808599D01*
X180992132Y-62788893D01*
X180979520Y-62767850D01*
X180969030Y-62745671D01*
X180960765Y-62722572D01*
X180954804Y-62698773D01*
X180951204Y-62674505D01*
X180950000Y-62650001D01*
X180950000Y-61749999D01*
X180951204Y-61725495D01*
X180954804Y-61701227D01*
X180960765Y-61677428D01*
X180969030Y-61654329D01*
X180979520Y-61632150D01*
X180992132Y-61611107D01*
X181006747Y-61591401D01*
X181023223Y-61573223D01*
X181041401Y-61556747D01*
X181061107Y-61542132D01*
X181082150Y-61529520D01*
X181104329Y-61519030D01*
X181127428Y-61510765D01*
X181151227Y-61504804D01*
X181175495Y-61501204D01*
X181199999Y-61500000D01*
X181850001Y-61500000D01*
X181874505Y-61501204D01*
G37*
G36*
X181874505Y-57001204D02*
G01*
X181898773Y-57004804D01*
X181922572Y-57010765D01*
X181945671Y-57019030D01*
X181967850Y-57029520D01*
X181988893Y-57042132D01*
X182008599Y-57056747D01*
X182026777Y-57073223D01*
X182043253Y-57091401D01*
X182057868Y-57111107D01*
X182070480Y-57132150D01*
X182080970Y-57154329D01*
X182089235Y-57177428D01*
X182095196Y-57201227D01*
X182098796Y-57225495D01*
X182100000Y-57249999D01*
X182100000Y-58150001D01*
X182098796Y-58174505D01*
X182095196Y-58198773D01*
X182089235Y-58222572D01*
X182080970Y-58245671D01*
X182070480Y-58267850D01*
X182057868Y-58288893D01*
X182043253Y-58308599D01*
X182026777Y-58326777D01*
X182008599Y-58343253D01*
X181988893Y-58357868D01*
X181967850Y-58370480D01*
X181945671Y-58380970D01*
X181922572Y-58389235D01*
X181898773Y-58395196D01*
X181874505Y-58398796D01*
X181850001Y-58400000D01*
X181199999Y-58400000D01*
X181175495Y-58398796D01*
X181151227Y-58395196D01*
X181127428Y-58389235D01*
X181104329Y-58380970D01*
X181082150Y-58370480D01*
X181061107Y-58357868D01*
X181041401Y-58343253D01*
X181023223Y-58326777D01*
X181006747Y-58308599D01*
X180992132Y-58288893D01*
X180979520Y-58267850D01*
X180969030Y-58245671D01*
X180960765Y-58222572D01*
X180954804Y-58198773D01*
X180951204Y-58174505D01*
X180950000Y-58150001D01*
X180950000Y-57249999D01*
X180951204Y-57225495D01*
X180954804Y-57201227D01*
X180960765Y-57177428D01*
X180969030Y-57154329D01*
X180979520Y-57132150D01*
X180992132Y-57111107D01*
X181006747Y-57091401D01*
X181023223Y-57073223D01*
X181041401Y-57056747D01*
X181061107Y-57042132D01*
X181082150Y-57029520D01*
X181104329Y-57019030D01*
X181127428Y-57010765D01*
X181151227Y-57004804D01*
X181175495Y-57001204D01*
X181199999Y-57000000D01*
X181850001Y-57000000D01*
X181874505Y-57001204D01*
G37*
G36*
X179824505Y-57001204D02*
G01*
X179848773Y-57004804D01*
X179872572Y-57010765D01*
X179895671Y-57019030D01*
X179917850Y-57029520D01*
X179938893Y-57042132D01*
X179958599Y-57056747D01*
X179976777Y-57073223D01*
X179993253Y-57091401D01*
X180007868Y-57111107D01*
X180020480Y-57132150D01*
X180030970Y-57154329D01*
X180039235Y-57177428D01*
X180045196Y-57201227D01*
X180048796Y-57225495D01*
X180050000Y-57249999D01*
X180050000Y-58150001D01*
X180048796Y-58174505D01*
X180045196Y-58198773D01*
X180039235Y-58222572D01*
X180030970Y-58245671D01*
X180020480Y-58267850D01*
X180007868Y-58288893D01*
X179993253Y-58308599D01*
X179976777Y-58326777D01*
X179958599Y-58343253D01*
X179938893Y-58357868D01*
X179917850Y-58370480D01*
X179895671Y-58380970D01*
X179872572Y-58389235D01*
X179848773Y-58395196D01*
X179824505Y-58398796D01*
X179800001Y-58400000D01*
X179149999Y-58400000D01*
X179125495Y-58398796D01*
X179101227Y-58395196D01*
X179077428Y-58389235D01*
X179054329Y-58380970D01*
X179032150Y-58370480D01*
X179011107Y-58357868D01*
X178991401Y-58343253D01*
X178973223Y-58326777D01*
X178956747Y-58308599D01*
X178942132Y-58288893D01*
X178929520Y-58267850D01*
X178919030Y-58245671D01*
X178910765Y-58222572D01*
X178904804Y-58198773D01*
X178901204Y-58174505D01*
X178900000Y-58150001D01*
X178900000Y-57249999D01*
X178901204Y-57225495D01*
X178904804Y-57201227D01*
X178910765Y-57177428D01*
X178919030Y-57154329D01*
X178929520Y-57132150D01*
X178942132Y-57111107D01*
X178956747Y-57091401D01*
X178973223Y-57073223D01*
X178991401Y-57056747D01*
X179011107Y-57042132D01*
X179032150Y-57029520D01*
X179054329Y-57019030D01*
X179077428Y-57010765D01*
X179101227Y-57004804D01*
X179125495Y-57001204D01*
X179149999Y-57000000D01*
X179800001Y-57000000D01*
X179824505Y-57001204D01*
G37*
G36*
X169585779Y-24116144D02*
G01*
X169608834Y-24119563D01*
X169631443Y-24125227D01*
X169653387Y-24133079D01*
X169674457Y-24143044D01*
X169694448Y-24155026D01*
X169713168Y-24168910D01*
X169730438Y-24184562D01*
X169746090Y-24201832D01*
X169759974Y-24220552D01*
X169771956Y-24240543D01*
X169781921Y-24261613D01*
X169789773Y-24283557D01*
X169795437Y-24306166D01*
X169798856Y-24329221D01*
X169800000Y-24352500D01*
X169800000Y-24827500D01*
X169798856Y-24850779D01*
X169795437Y-24873834D01*
X169789773Y-24896443D01*
X169781921Y-24918387D01*
X169771956Y-24939457D01*
X169759974Y-24959448D01*
X169746090Y-24978168D01*
X169730438Y-24995438D01*
X169713168Y-25011090D01*
X169694448Y-25024974D01*
X169674457Y-25036956D01*
X169653387Y-25046921D01*
X169631443Y-25054773D01*
X169608834Y-25060437D01*
X169585779Y-25063856D01*
X169562500Y-25065000D01*
X168987500Y-25065000D01*
X168964221Y-25063856D01*
X168941166Y-25060437D01*
X168918557Y-25054773D01*
X168896613Y-25046921D01*
X168875543Y-25036956D01*
X168855552Y-25024974D01*
X168836832Y-25011090D01*
X168819562Y-24995438D01*
X168803910Y-24978168D01*
X168790026Y-24959448D01*
X168778044Y-24939457D01*
X168768079Y-24918387D01*
X168760227Y-24896443D01*
X168754563Y-24873834D01*
X168751144Y-24850779D01*
X168750000Y-24827500D01*
X168750000Y-24352500D01*
X168751144Y-24329221D01*
X168754563Y-24306166D01*
X168760227Y-24283557D01*
X168768079Y-24261613D01*
X168778044Y-24240543D01*
X168790026Y-24220552D01*
X168803910Y-24201832D01*
X168819562Y-24184562D01*
X168836832Y-24168910D01*
X168855552Y-24155026D01*
X168875543Y-24143044D01*
X168896613Y-24133079D01*
X168918557Y-24125227D01*
X168941166Y-24119563D01*
X168964221Y-24116144D01*
X168987500Y-24115000D01*
X169562500Y-24115000D01*
X169585779Y-24116144D01*
G37*
G36*
X167835779Y-24116144D02*
G01*
X167858834Y-24119563D01*
X167881443Y-24125227D01*
X167903387Y-24133079D01*
X167924457Y-24143044D01*
X167944448Y-24155026D01*
X167963168Y-24168910D01*
X167980438Y-24184562D01*
X167996090Y-24201832D01*
X168009974Y-24220552D01*
X168021956Y-24240543D01*
X168031921Y-24261613D01*
X168039773Y-24283557D01*
X168045437Y-24306166D01*
X168048856Y-24329221D01*
X168050000Y-24352500D01*
X168050000Y-24827500D01*
X168048856Y-24850779D01*
X168045437Y-24873834D01*
X168039773Y-24896443D01*
X168031921Y-24918387D01*
X168021956Y-24939457D01*
X168009974Y-24959448D01*
X167996090Y-24978168D01*
X167980438Y-24995438D01*
X167963168Y-25011090D01*
X167944448Y-25024974D01*
X167924457Y-25036956D01*
X167903387Y-25046921D01*
X167881443Y-25054773D01*
X167858834Y-25060437D01*
X167835779Y-25063856D01*
X167812500Y-25065000D01*
X167237500Y-25065000D01*
X167214221Y-25063856D01*
X167191166Y-25060437D01*
X167168557Y-25054773D01*
X167146613Y-25046921D01*
X167125543Y-25036956D01*
X167105552Y-25024974D01*
X167086832Y-25011090D01*
X167069562Y-24995438D01*
X167053910Y-24978168D01*
X167040026Y-24959448D01*
X167028044Y-24939457D01*
X167018079Y-24918387D01*
X167010227Y-24896443D01*
X167004563Y-24873834D01*
X167001144Y-24850779D01*
X167000000Y-24827500D01*
X167000000Y-24352500D01*
X167001144Y-24329221D01*
X167004563Y-24306166D01*
X167010227Y-24283557D01*
X167018079Y-24261613D01*
X167028044Y-24240543D01*
X167040026Y-24220552D01*
X167053910Y-24201832D01*
X167069562Y-24184562D01*
X167086832Y-24168910D01*
X167105552Y-24155026D01*
X167125543Y-24143044D01*
X167146613Y-24133079D01*
X167168557Y-24125227D01*
X167191166Y-24119563D01*
X167214221Y-24116144D01*
X167237500Y-24115000D01*
X167812500Y-24115000D01*
X167835779Y-24116144D01*
G37*
G36*
X181985779Y-21326144D02*
G01*
X182008834Y-21329563D01*
X182031443Y-21335227D01*
X182053387Y-21343079D01*
X182074457Y-21353044D01*
X182094448Y-21365026D01*
X182113168Y-21378910D01*
X182130438Y-21394562D01*
X182146090Y-21411832D01*
X182159974Y-21430552D01*
X182171956Y-21450543D01*
X182181921Y-21471613D01*
X182189773Y-21493557D01*
X182195437Y-21516166D01*
X182198856Y-21539221D01*
X182200000Y-21562500D01*
X182200000Y-22037500D01*
X182198856Y-22060779D01*
X182195437Y-22083834D01*
X182189773Y-22106443D01*
X182181921Y-22128387D01*
X182171956Y-22149457D01*
X182159974Y-22169448D01*
X182146090Y-22188168D01*
X182130438Y-22205438D01*
X182113168Y-22221090D01*
X182094448Y-22234974D01*
X182074457Y-22246956D01*
X182053387Y-22256921D01*
X182031443Y-22264773D01*
X182008834Y-22270437D01*
X181985779Y-22273856D01*
X181962500Y-22275000D01*
X181387500Y-22275000D01*
X181364221Y-22273856D01*
X181341166Y-22270437D01*
X181318557Y-22264773D01*
X181296613Y-22256921D01*
X181275543Y-22246956D01*
X181255552Y-22234974D01*
X181236832Y-22221090D01*
X181219562Y-22205438D01*
X181203910Y-22188168D01*
X181190026Y-22169448D01*
X181178044Y-22149457D01*
X181168079Y-22128387D01*
X181160227Y-22106443D01*
X181154563Y-22083834D01*
X181151144Y-22060779D01*
X181150000Y-22037500D01*
X181150000Y-21562500D01*
X181151144Y-21539221D01*
X181154563Y-21516166D01*
X181160227Y-21493557D01*
X181168079Y-21471613D01*
X181178044Y-21450543D01*
X181190026Y-21430552D01*
X181203910Y-21411832D01*
X181219562Y-21394562D01*
X181236832Y-21378910D01*
X181255552Y-21365026D01*
X181275543Y-21353044D01*
X181296613Y-21343079D01*
X181318557Y-21335227D01*
X181341166Y-21329563D01*
X181364221Y-21326144D01*
X181387500Y-21325000D01*
X181962500Y-21325000D01*
X181985779Y-21326144D01*
G37*
G36*
X180235779Y-21326144D02*
G01*
X180258834Y-21329563D01*
X180281443Y-21335227D01*
X180303387Y-21343079D01*
X180324457Y-21353044D01*
X180344448Y-21365026D01*
X180363168Y-21378910D01*
X180380438Y-21394562D01*
X180396090Y-21411832D01*
X180409974Y-21430552D01*
X180421956Y-21450543D01*
X180431921Y-21471613D01*
X180439773Y-21493557D01*
X180445437Y-21516166D01*
X180448856Y-21539221D01*
X180450000Y-21562500D01*
X180450000Y-22037500D01*
X180448856Y-22060779D01*
X180445437Y-22083834D01*
X180439773Y-22106443D01*
X180431921Y-22128387D01*
X180421956Y-22149457D01*
X180409974Y-22169448D01*
X180396090Y-22188168D01*
X180380438Y-22205438D01*
X180363168Y-22221090D01*
X180344448Y-22234974D01*
X180324457Y-22246956D01*
X180303387Y-22256921D01*
X180281443Y-22264773D01*
X180258834Y-22270437D01*
X180235779Y-22273856D01*
X180212500Y-22275000D01*
X179637500Y-22275000D01*
X179614221Y-22273856D01*
X179591166Y-22270437D01*
X179568557Y-22264773D01*
X179546613Y-22256921D01*
X179525543Y-22246956D01*
X179505552Y-22234974D01*
X179486832Y-22221090D01*
X179469562Y-22205438D01*
X179453910Y-22188168D01*
X179440026Y-22169448D01*
X179428044Y-22149457D01*
X179418079Y-22128387D01*
X179410227Y-22106443D01*
X179404563Y-22083834D01*
X179401144Y-22060779D01*
X179400000Y-22037500D01*
X179400000Y-21562500D01*
X179401144Y-21539221D01*
X179404563Y-21516166D01*
X179410227Y-21493557D01*
X179418079Y-21471613D01*
X179428044Y-21450543D01*
X179440026Y-21430552D01*
X179453910Y-21411832D01*
X179469562Y-21394562D01*
X179486832Y-21378910D01*
X179505552Y-21365026D01*
X179525543Y-21353044D01*
X179546613Y-21343079D01*
X179568557Y-21335227D01*
X179591166Y-21329563D01*
X179614221Y-21326144D01*
X179637500Y-21325000D01*
X180212500Y-21325000D01*
X180235779Y-21326144D01*
G37*
G36*
X179824505Y-51501204D02*
G01*
X179848773Y-51504804D01*
X179872572Y-51510765D01*
X179895671Y-51519030D01*
X179917850Y-51529520D01*
X179938893Y-51542132D01*
X179958599Y-51556747D01*
X179976777Y-51573223D01*
X179993253Y-51591401D01*
X180007868Y-51611107D01*
X180020480Y-51632150D01*
X180030970Y-51654329D01*
X180039235Y-51677428D01*
X180045196Y-51701227D01*
X180048796Y-51725495D01*
X180050000Y-51749999D01*
X180050000Y-52650001D01*
X180048796Y-52674505D01*
X180045196Y-52698773D01*
X180039235Y-52722572D01*
X180030970Y-52745671D01*
X180020480Y-52767850D01*
X180007868Y-52788893D01*
X179993253Y-52808599D01*
X179976777Y-52826777D01*
X179958599Y-52843253D01*
X179938893Y-52857868D01*
X179917850Y-52870480D01*
X179895671Y-52880970D01*
X179872572Y-52889235D01*
X179848773Y-52895196D01*
X179824505Y-52898796D01*
X179800001Y-52900000D01*
X179149999Y-52900000D01*
X179125495Y-52898796D01*
X179101227Y-52895196D01*
X179077428Y-52889235D01*
X179054329Y-52880970D01*
X179032150Y-52870480D01*
X179011107Y-52857868D01*
X178991401Y-52843253D01*
X178973223Y-52826777D01*
X178956747Y-52808599D01*
X178942132Y-52788893D01*
X178929520Y-52767850D01*
X178919030Y-52745671D01*
X178910765Y-52722572D01*
X178904804Y-52698773D01*
X178901204Y-52674505D01*
X178900000Y-52650001D01*
X178900000Y-51749999D01*
X178901204Y-51725495D01*
X178904804Y-51701227D01*
X178910765Y-51677428D01*
X178919030Y-51654329D01*
X178929520Y-51632150D01*
X178942132Y-51611107D01*
X178956747Y-51591401D01*
X178973223Y-51573223D01*
X178991401Y-51556747D01*
X179011107Y-51542132D01*
X179032150Y-51529520D01*
X179054329Y-51519030D01*
X179077428Y-51510765D01*
X179101227Y-51504804D01*
X179125495Y-51501204D01*
X179149999Y-51500000D01*
X179800001Y-51500000D01*
X179824505Y-51501204D01*
G37*
G36*
X181874505Y-51501204D02*
G01*
X181898773Y-51504804D01*
X181922572Y-51510765D01*
X181945671Y-51519030D01*
X181967850Y-51529520D01*
X181988893Y-51542132D01*
X182008599Y-51556747D01*
X182026777Y-51573223D01*
X182043253Y-51591401D01*
X182057868Y-51611107D01*
X182070480Y-51632150D01*
X182080970Y-51654329D01*
X182089235Y-51677428D01*
X182095196Y-51701227D01*
X182098796Y-51725495D01*
X182100000Y-51749999D01*
X182100000Y-52650001D01*
X182098796Y-52674505D01*
X182095196Y-52698773D01*
X182089235Y-52722572D01*
X182080970Y-52745671D01*
X182070480Y-52767850D01*
X182057868Y-52788893D01*
X182043253Y-52808599D01*
X182026777Y-52826777D01*
X182008599Y-52843253D01*
X181988893Y-52857868D01*
X181967850Y-52870480D01*
X181945671Y-52880970D01*
X181922572Y-52889235D01*
X181898773Y-52895196D01*
X181874505Y-52898796D01*
X181850001Y-52900000D01*
X181199999Y-52900000D01*
X181175495Y-52898796D01*
X181151227Y-52895196D01*
X181127428Y-52889235D01*
X181104329Y-52880970D01*
X181082150Y-52870480D01*
X181061107Y-52857868D01*
X181041401Y-52843253D01*
X181023223Y-52826777D01*
X181006747Y-52808599D01*
X180992132Y-52788893D01*
X180979520Y-52767850D01*
X180969030Y-52745671D01*
X180960765Y-52722572D01*
X180954804Y-52698773D01*
X180951204Y-52674505D01*
X180950000Y-52650001D01*
X180950000Y-51749999D01*
X180951204Y-51725495D01*
X180954804Y-51701227D01*
X180960765Y-51677428D01*
X180969030Y-51654329D01*
X180979520Y-51632150D01*
X180992132Y-51611107D01*
X181006747Y-51591401D01*
X181023223Y-51573223D01*
X181041401Y-51556747D01*
X181061107Y-51542132D01*
X181082150Y-51529520D01*
X181104329Y-51519030D01*
X181127428Y-51510765D01*
X181151227Y-51504804D01*
X181175495Y-51501204D01*
X181199999Y-51500000D01*
X181850001Y-51500000D01*
X181874505Y-51501204D01*
G37*
G36*
X181874505Y-47001204D02*
G01*
X181898773Y-47004804D01*
X181922572Y-47010765D01*
X181945671Y-47019030D01*
X181967850Y-47029520D01*
X181988893Y-47042132D01*
X182008599Y-47056747D01*
X182026777Y-47073223D01*
X182043253Y-47091401D01*
X182057868Y-47111107D01*
X182070480Y-47132150D01*
X182080970Y-47154329D01*
X182089235Y-47177428D01*
X182095196Y-47201227D01*
X182098796Y-47225495D01*
X182100000Y-47249999D01*
X182100000Y-48150001D01*
X182098796Y-48174505D01*
X182095196Y-48198773D01*
X182089235Y-48222572D01*
X182080970Y-48245671D01*
X182070480Y-48267850D01*
X182057868Y-48288893D01*
X182043253Y-48308599D01*
X182026777Y-48326777D01*
X182008599Y-48343253D01*
X181988893Y-48357868D01*
X181967850Y-48370480D01*
X181945671Y-48380970D01*
X181922572Y-48389235D01*
X181898773Y-48395196D01*
X181874505Y-48398796D01*
X181850001Y-48400000D01*
X181199999Y-48400000D01*
X181175495Y-48398796D01*
X181151227Y-48395196D01*
X181127428Y-48389235D01*
X181104329Y-48380970D01*
X181082150Y-48370480D01*
X181061107Y-48357868D01*
X181041401Y-48343253D01*
X181023223Y-48326777D01*
X181006747Y-48308599D01*
X180992132Y-48288893D01*
X180979520Y-48267850D01*
X180969030Y-48245671D01*
X180960765Y-48222572D01*
X180954804Y-48198773D01*
X180951204Y-48174505D01*
X180950000Y-48150001D01*
X180950000Y-47249999D01*
X180951204Y-47225495D01*
X180954804Y-47201227D01*
X180960765Y-47177428D01*
X180969030Y-47154329D01*
X180979520Y-47132150D01*
X180992132Y-47111107D01*
X181006747Y-47091401D01*
X181023223Y-47073223D01*
X181041401Y-47056747D01*
X181061107Y-47042132D01*
X181082150Y-47029520D01*
X181104329Y-47019030D01*
X181127428Y-47010765D01*
X181151227Y-47004804D01*
X181175495Y-47001204D01*
X181199999Y-47000000D01*
X181850001Y-47000000D01*
X181874505Y-47001204D01*
G37*
G36*
X179824505Y-47001204D02*
G01*
X179848773Y-47004804D01*
X179872572Y-47010765D01*
X179895671Y-47019030D01*
X179917850Y-47029520D01*
X179938893Y-47042132D01*
X179958599Y-47056747D01*
X179976777Y-47073223D01*
X179993253Y-47091401D01*
X180007868Y-47111107D01*
X180020480Y-47132150D01*
X180030970Y-47154329D01*
X180039235Y-47177428D01*
X180045196Y-47201227D01*
X180048796Y-47225495D01*
X180050000Y-47249999D01*
X180050000Y-48150001D01*
X180048796Y-48174505D01*
X180045196Y-48198773D01*
X180039235Y-48222572D01*
X180030970Y-48245671D01*
X180020480Y-48267850D01*
X180007868Y-48288893D01*
X179993253Y-48308599D01*
X179976777Y-48326777D01*
X179958599Y-48343253D01*
X179938893Y-48357868D01*
X179917850Y-48370480D01*
X179895671Y-48380970D01*
X179872572Y-48389235D01*
X179848773Y-48395196D01*
X179824505Y-48398796D01*
X179800001Y-48400000D01*
X179149999Y-48400000D01*
X179125495Y-48398796D01*
X179101227Y-48395196D01*
X179077428Y-48389235D01*
X179054329Y-48380970D01*
X179032150Y-48370480D01*
X179011107Y-48357868D01*
X178991401Y-48343253D01*
X178973223Y-48326777D01*
X178956747Y-48308599D01*
X178942132Y-48288893D01*
X178929520Y-48267850D01*
X178919030Y-48245671D01*
X178910765Y-48222572D01*
X178904804Y-48198773D01*
X178901204Y-48174505D01*
X178900000Y-48150001D01*
X178900000Y-47249999D01*
X178901204Y-47225495D01*
X178904804Y-47201227D01*
X178910765Y-47177428D01*
X178919030Y-47154329D01*
X178929520Y-47132150D01*
X178942132Y-47111107D01*
X178956747Y-47091401D01*
X178973223Y-47073223D01*
X178991401Y-47056747D01*
X179011107Y-47042132D01*
X179032150Y-47029520D01*
X179054329Y-47019030D01*
X179077428Y-47010765D01*
X179101227Y-47004804D01*
X179125495Y-47001204D01*
X179149999Y-47000000D01*
X179800001Y-47000000D01*
X179824505Y-47001204D01*
G37*
G36*
X138260779Y-111601144D02*
G01*
X138283834Y-111604563D01*
X138306443Y-111610227D01*
X138328387Y-111618079D01*
X138349457Y-111628044D01*
X138369448Y-111640026D01*
X138388168Y-111653910D01*
X138405438Y-111669562D01*
X138421090Y-111686832D01*
X138434974Y-111705552D01*
X138446956Y-111725543D01*
X138456921Y-111746613D01*
X138464773Y-111768557D01*
X138470437Y-111791166D01*
X138473856Y-111814221D01*
X138475000Y-111837500D01*
X138475000Y-112412500D01*
X138473856Y-112435779D01*
X138470437Y-112458834D01*
X138464773Y-112481443D01*
X138456921Y-112503387D01*
X138446956Y-112524457D01*
X138434974Y-112544448D01*
X138421090Y-112563168D01*
X138405438Y-112580438D01*
X138388168Y-112596090D01*
X138369448Y-112609974D01*
X138349457Y-112621956D01*
X138328387Y-112631921D01*
X138306443Y-112639773D01*
X138283834Y-112645437D01*
X138260779Y-112648856D01*
X138237500Y-112650000D01*
X137762500Y-112650000D01*
X137739221Y-112648856D01*
X137716166Y-112645437D01*
X137693557Y-112639773D01*
X137671613Y-112631921D01*
X137650543Y-112621956D01*
X137630552Y-112609974D01*
X137611832Y-112596090D01*
X137594562Y-112580438D01*
X137578910Y-112563168D01*
X137565026Y-112544448D01*
X137553044Y-112524457D01*
X137543079Y-112503387D01*
X137535227Y-112481443D01*
X137529563Y-112458834D01*
X137526144Y-112435779D01*
X137525000Y-112412500D01*
X137525000Y-111837500D01*
X137526144Y-111814221D01*
X137529563Y-111791166D01*
X137535227Y-111768557D01*
X137543079Y-111746613D01*
X137553044Y-111725543D01*
X137565026Y-111705552D01*
X137578910Y-111686832D01*
X137594562Y-111669562D01*
X137611832Y-111653910D01*
X137630552Y-111640026D01*
X137650543Y-111628044D01*
X137671613Y-111618079D01*
X137693557Y-111610227D01*
X137716166Y-111604563D01*
X137739221Y-111601144D01*
X137762500Y-111600000D01*
X138237500Y-111600000D01*
X138260779Y-111601144D01*
G37*
G36*
X138260779Y-113351144D02*
G01*
X138283834Y-113354563D01*
X138306443Y-113360227D01*
X138328387Y-113368079D01*
X138349457Y-113378044D01*
X138369448Y-113390026D01*
X138388168Y-113403910D01*
X138405438Y-113419562D01*
X138421090Y-113436832D01*
X138434974Y-113455552D01*
X138446956Y-113475543D01*
X138456921Y-113496613D01*
X138464773Y-113518557D01*
X138470437Y-113541166D01*
X138473856Y-113564221D01*
X138475000Y-113587500D01*
X138475000Y-114162500D01*
X138473856Y-114185779D01*
X138470437Y-114208834D01*
X138464773Y-114231443D01*
X138456921Y-114253387D01*
X138446956Y-114274457D01*
X138434974Y-114294448D01*
X138421090Y-114313168D01*
X138405438Y-114330438D01*
X138388168Y-114346090D01*
X138369448Y-114359974D01*
X138349457Y-114371956D01*
X138328387Y-114381921D01*
X138306443Y-114389773D01*
X138283834Y-114395437D01*
X138260779Y-114398856D01*
X138237500Y-114400000D01*
X137762500Y-114400000D01*
X137739221Y-114398856D01*
X137716166Y-114395437D01*
X137693557Y-114389773D01*
X137671613Y-114381921D01*
X137650543Y-114371956D01*
X137630552Y-114359974D01*
X137611832Y-114346090D01*
X137594562Y-114330438D01*
X137578910Y-114313168D01*
X137565026Y-114294448D01*
X137553044Y-114274457D01*
X137543079Y-114253387D01*
X137535227Y-114231443D01*
X137529563Y-114208834D01*
X137526144Y-114185779D01*
X137525000Y-114162500D01*
X137525000Y-113587500D01*
X137526144Y-113564221D01*
X137529563Y-113541166D01*
X137535227Y-113518557D01*
X137543079Y-113496613D01*
X137553044Y-113475543D01*
X137565026Y-113455552D01*
X137578910Y-113436832D01*
X137594562Y-113419562D01*
X137611832Y-113403910D01*
X137630552Y-113390026D01*
X137650543Y-113378044D01*
X137671613Y-113368079D01*
X137693557Y-113360227D01*
X137716166Y-113354563D01*
X137739221Y-113351144D01*
X137762500Y-113350000D01*
X138237500Y-113350000D01*
X138260779Y-113351144D01*
G37*
M02*
