G04 #@! TF.GenerationSoftware,KiCad,Pcbnew,(5.1.5-0)*
G04 #@! TF.CreationDate,2021-01-10T16:54:22-07:00*
G04 #@! TF.ProjectId,power_cui,706f7765-725f-4637-9569-2e6b69636164,rev?*
G04 #@! TF.SameCoordinates,Original*
G04 #@! TF.FileFunction,Soldermask,Top*
G04 #@! TF.FilePolarity,Negative*
%FSLAX46Y46*%
G04 Gerber Fmt 4.6, Leading zero omitted, Abs format (unit mm)*
G04 Created by KiCad (PCBNEW (5.1.5-0)) date 2021-01-10 16:54:22*
%MOMM*%
%LPD*%
G04 APERTURE LIST*
%ADD10C,0.100000*%
G04 APERTURE END LIST*
D10*
G36*
X152751000Y-143751000D02*
G01*
X151249000Y-143751000D01*
X151249000Y-142249000D01*
X152751000Y-142249000D01*
X152751000Y-143751000D01*
G37*
G36*
X152219059Y-137197860D02*
G01*
X152355732Y-137254472D01*
X152478735Y-137336660D01*
X152583340Y-137441265D01*
X152665528Y-137564268D01*
X152722140Y-137700941D01*
X152751000Y-137846033D01*
X152751000Y-137993967D01*
X152722140Y-138139059D01*
X152665528Y-138275732D01*
X152583340Y-138398735D01*
X152478735Y-138503340D01*
X152355732Y-138585528D01*
X152355731Y-138585529D01*
X152355730Y-138585529D01*
X152219059Y-138642140D01*
X152073968Y-138671000D01*
X151926032Y-138671000D01*
X151780941Y-138642140D01*
X151644270Y-138585529D01*
X151644269Y-138585529D01*
X151644268Y-138585528D01*
X151521265Y-138503340D01*
X151416660Y-138398735D01*
X151334472Y-138275732D01*
X151277860Y-138139059D01*
X151249000Y-137993967D01*
X151249000Y-137846033D01*
X151277860Y-137700941D01*
X151334472Y-137564268D01*
X151416660Y-137441265D01*
X151521265Y-137336660D01*
X151644268Y-137254472D01*
X151780941Y-137197860D01*
X151926032Y-137169000D01*
X152073968Y-137169000D01*
X152219059Y-137197860D01*
G37*
G36*
X148401000Y-138276000D02*
G01*
X147699000Y-138276000D01*
X147699000Y-137724000D01*
X148401000Y-137724000D01*
X148401000Y-138276000D01*
G37*
G36*
X146301000Y-138276000D02*
G01*
X145599000Y-138276000D01*
X145599000Y-137724000D01*
X146301000Y-137724000D01*
X146301000Y-138276000D01*
G37*
G36*
X98103097Y-132754069D02*
G01*
X98206032Y-132764207D01*
X98404146Y-132824305D01*
X98404149Y-132824306D01*
X98500975Y-132876061D01*
X98586729Y-132921897D01*
X98746765Y-133053235D01*
X98878103Y-133213271D01*
X98923939Y-133299025D01*
X98975694Y-133395851D01*
X98975695Y-133395854D01*
X99035793Y-133593968D01*
X99056085Y-133800000D01*
X99035793Y-134006032D01*
X98975695Y-134204146D01*
X98975694Y-134204149D01*
X98923939Y-134300975D01*
X98878103Y-134386729D01*
X98746765Y-134546765D01*
X98586729Y-134678103D01*
X98500975Y-134723939D01*
X98404149Y-134775694D01*
X98404146Y-134775695D01*
X98206032Y-134835793D01*
X98103097Y-134845931D01*
X98051631Y-134851000D01*
X95948369Y-134851000D01*
X95896903Y-134845931D01*
X95793968Y-134835793D01*
X95595854Y-134775695D01*
X95595851Y-134775694D01*
X95499025Y-134723939D01*
X95413271Y-134678103D01*
X95253235Y-134546765D01*
X95121897Y-134386729D01*
X95076061Y-134300975D01*
X95024306Y-134204149D01*
X95024305Y-134204146D01*
X94964207Y-134006032D01*
X94943915Y-133800000D01*
X94964207Y-133593968D01*
X95024305Y-133395854D01*
X95024306Y-133395851D01*
X95076061Y-133299025D01*
X95121897Y-133213271D01*
X95253235Y-133053235D01*
X95413271Y-132921897D01*
X95499025Y-132876061D01*
X95595851Y-132824306D01*
X95595854Y-132824305D01*
X95793968Y-132764207D01*
X95896903Y-132754069D01*
X95948369Y-132749000D01*
X98051631Y-132749000D01*
X98103097Y-132754069D01*
G37*
G36*
X152219059Y-132117860D02*
G01*
X152355732Y-132174472D01*
X152478735Y-132256660D01*
X152583340Y-132361265D01*
X152665528Y-132484268D01*
X152722140Y-132620941D01*
X152751000Y-132766033D01*
X152751000Y-132913967D01*
X152722140Y-133059059D01*
X152665528Y-133195732D01*
X152583340Y-133318735D01*
X152478735Y-133423340D01*
X152355732Y-133505528D01*
X152355731Y-133505529D01*
X152355730Y-133505529D01*
X152219059Y-133562140D01*
X152073968Y-133591000D01*
X151926032Y-133591000D01*
X151780941Y-133562140D01*
X151644270Y-133505529D01*
X151644269Y-133505529D01*
X151644268Y-133505528D01*
X151521265Y-133423340D01*
X151416660Y-133318735D01*
X151334472Y-133195732D01*
X151277860Y-133059059D01*
X151249000Y-132913967D01*
X151249000Y-132766033D01*
X151277860Y-132620941D01*
X151334472Y-132484268D01*
X151416660Y-132361265D01*
X151521265Y-132256660D01*
X151644268Y-132174472D01*
X151780941Y-132117860D01*
X151926032Y-132089000D01*
X152073968Y-132089000D01*
X152219059Y-132117860D01*
G37*
G36*
X147276000Y-133401000D02*
G01*
X146724000Y-133401000D01*
X146724000Y-132699000D01*
X147276000Y-132699000D01*
X147276000Y-133401000D01*
G37*
G36*
X147276000Y-131301000D02*
G01*
X146724000Y-131301000D01*
X146724000Y-130599000D01*
X147276000Y-130599000D01*
X147276000Y-131301000D01*
G37*
G36*
X94106032Y-126964207D02*
G01*
X94304146Y-127024305D01*
X94304149Y-127024306D01*
X94400975Y-127076061D01*
X94486729Y-127121897D01*
X94646765Y-127253235D01*
X94778103Y-127413271D01*
X94788639Y-127432983D01*
X94875694Y-127595851D01*
X94875695Y-127595854D01*
X94935793Y-127793968D01*
X94951000Y-127948370D01*
X94951000Y-130051630D01*
X94935793Y-130206032D01*
X94875695Y-130404145D01*
X94875694Y-130404149D01*
X94823939Y-130500975D01*
X94778103Y-130586729D01*
X94646765Y-130746765D01*
X94486729Y-130878103D01*
X94370030Y-130940479D01*
X94304148Y-130975694D01*
X94304145Y-130975695D01*
X94106031Y-131035793D01*
X93900000Y-131056085D01*
X93693968Y-131035793D01*
X93495854Y-130975695D01*
X93495851Y-130975694D01*
X93399025Y-130923939D01*
X93313271Y-130878103D01*
X93153235Y-130746765D01*
X93021897Y-130586729D01*
X92924307Y-130404149D01*
X92924306Y-130404148D01*
X92924305Y-130404145D01*
X92864207Y-130206031D01*
X92849000Y-130051629D01*
X92849001Y-127948370D01*
X92864208Y-127793968D01*
X92924306Y-127595854D01*
X92924307Y-127595851D01*
X93011362Y-127432983D01*
X93021898Y-127413271D01*
X93153236Y-127253235D01*
X93313272Y-127121897D01*
X93399026Y-127076061D01*
X93495852Y-127024306D01*
X93495855Y-127024305D01*
X93693969Y-126964207D01*
X93900000Y-126943915D01*
X94106032Y-126964207D01*
G37*
G36*
X100206032Y-126964207D02*
G01*
X100404146Y-127024305D01*
X100404149Y-127024306D01*
X100500975Y-127076061D01*
X100586729Y-127121897D01*
X100746765Y-127253235D01*
X100878103Y-127413271D01*
X100888639Y-127432983D01*
X100975694Y-127595851D01*
X100975695Y-127595854D01*
X101035793Y-127793968D01*
X101051000Y-127948370D01*
X101051000Y-130051630D01*
X101035793Y-130206032D01*
X100975695Y-130404145D01*
X100975694Y-130404149D01*
X100923939Y-130500975D01*
X100878103Y-130586729D01*
X100746765Y-130746765D01*
X100586729Y-130878103D01*
X100470030Y-130940479D01*
X100404148Y-130975694D01*
X100404145Y-130975695D01*
X100206031Y-131035793D01*
X100000000Y-131056085D01*
X99793968Y-131035793D01*
X99595854Y-130975695D01*
X99595851Y-130975694D01*
X99499025Y-130923939D01*
X99413271Y-130878103D01*
X99253235Y-130746765D01*
X99121897Y-130586729D01*
X99024307Y-130404149D01*
X99024306Y-130404148D01*
X99024305Y-130404145D01*
X98964207Y-130206031D01*
X98949000Y-130051629D01*
X98949001Y-127948370D01*
X98964208Y-127793968D01*
X99024306Y-127595854D01*
X99024307Y-127595851D01*
X99111362Y-127432983D01*
X99121898Y-127413271D01*
X99253236Y-127253235D01*
X99413272Y-127121897D01*
X99499026Y-127076061D01*
X99595852Y-127024306D01*
X99595855Y-127024305D01*
X99793969Y-126964207D01*
X100000000Y-126943915D01*
X100206032Y-126964207D01*
G37*
G36*
X105788674Y-128403465D02*
G01*
X105826367Y-128414899D01*
X105861103Y-128433466D01*
X105891548Y-128458452D01*
X105916534Y-128488897D01*
X105935101Y-128523633D01*
X105946535Y-128561326D01*
X105951000Y-128606661D01*
X105951000Y-129443339D01*
X105946535Y-129488674D01*
X105935101Y-129526367D01*
X105916534Y-129561103D01*
X105891548Y-129591548D01*
X105861103Y-129616534D01*
X105826367Y-129635101D01*
X105788674Y-129646535D01*
X105743339Y-129651000D01*
X104656661Y-129651000D01*
X104611326Y-129646535D01*
X104573633Y-129635101D01*
X104538897Y-129616534D01*
X104508452Y-129591548D01*
X104483466Y-129561103D01*
X104464899Y-129526367D01*
X104453465Y-129488674D01*
X104449000Y-129443339D01*
X104449000Y-128606661D01*
X104453465Y-128561326D01*
X104464899Y-128523633D01*
X104483466Y-128488897D01*
X104508452Y-128458452D01*
X104538897Y-128433466D01*
X104573633Y-128414899D01*
X104611326Y-128403465D01*
X104656661Y-128399000D01*
X105743339Y-128399000D01*
X105788674Y-128403465D01*
G37*
G36*
X152219059Y-127037860D02*
G01*
X152355732Y-127094472D01*
X152478735Y-127176660D01*
X152583340Y-127281265D01*
X152583341Y-127281267D01*
X152665529Y-127404270D01*
X152722140Y-127540941D01*
X152751000Y-127686032D01*
X152751000Y-127833968D01*
X152728244Y-127948370D01*
X152722140Y-127979059D01*
X152665528Y-128115732D01*
X152583340Y-128238735D01*
X152478735Y-128343340D01*
X152355732Y-128425528D01*
X152355731Y-128425529D01*
X152355730Y-128425529D01*
X152219059Y-128482140D01*
X152073968Y-128511000D01*
X151926032Y-128511000D01*
X151780941Y-128482140D01*
X151644270Y-128425529D01*
X151644269Y-128425529D01*
X151644268Y-128425528D01*
X151521265Y-128343340D01*
X151416660Y-128238735D01*
X151334472Y-128115732D01*
X151277860Y-127979059D01*
X151271756Y-127948370D01*
X151249000Y-127833968D01*
X151249000Y-127686032D01*
X151277860Y-127540941D01*
X151334471Y-127404270D01*
X151416659Y-127281267D01*
X151416660Y-127281265D01*
X151521265Y-127176660D01*
X151644268Y-127094472D01*
X151780941Y-127037860D01*
X151926032Y-127009000D01*
X152073968Y-127009000D01*
X152219059Y-127037860D01*
G37*
G36*
X105788674Y-126353465D02*
G01*
X105826367Y-126364899D01*
X105861103Y-126383466D01*
X105891548Y-126408452D01*
X105916534Y-126438897D01*
X105935101Y-126473633D01*
X105946535Y-126511326D01*
X105951000Y-126556661D01*
X105951000Y-127393339D01*
X105946535Y-127438674D01*
X105935101Y-127476367D01*
X105916534Y-127511103D01*
X105891548Y-127541548D01*
X105861103Y-127566534D01*
X105826367Y-127585101D01*
X105788674Y-127596535D01*
X105743339Y-127601000D01*
X104656661Y-127601000D01*
X104611326Y-127596535D01*
X104573633Y-127585101D01*
X104538897Y-127566534D01*
X104508452Y-127541548D01*
X104483466Y-127511103D01*
X104464899Y-127476367D01*
X104453465Y-127438674D01*
X104449000Y-127393339D01*
X104449000Y-126556661D01*
X104453465Y-126511326D01*
X104464899Y-126473633D01*
X104483466Y-126438897D01*
X104508452Y-126408452D01*
X104538897Y-126383466D01*
X104573633Y-126364899D01*
X104611326Y-126353465D01*
X104656661Y-126349000D01*
X105743339Y-126349000D01*
X105788674Y-126353465D01*
G37*
G36*
X152338855Y-121352140D02*
G01*
X152402618Y-121358420D01*
X152493404Y-121385960D01*
X152525336Y-121395646D01*
X152638425Y-121456094D01*
X152737554Y-121537446D01*
X152818906Y-121636575D01*
X152879354Y-121749664D01*
X152879355Y-121749668D01*
X152916580Y-121872382D01*
X152929149Y-122000000D01*
X152916580Y-122127618D01*
X152889040Y-122218404D01*
X152879354Y-122250336D01*
X152818906Y-122363425D01*
X152737554Y-122462554D01*
X152638425Y-122543906D01*
X152525336Y-122604354D01*
X152493404Y-122614040D01*
X152402618Y-122641580D01*
X152338855Y-122647860D01*
X152306974Y-122651000D01*
X151693026Y-122651000D01*
X151661145Y-122647860D01*
X151597382Y-122641580D01*
X151506596Y-122614040D01*
X151474664Y-122604354D01*
X151361575Y-122543906D01*
X151262446Y-122462554D01*
X151181094Y-122363425D01*
X151120646Y-122250336D01*
X151110960Y-122218404D01*
X151083420Y-122127618D01*
X151070851Y-122000000D01*
X151083420Y-121872382D01*
X151120645Y-121749668D01*
X151120646Y-121749664D01*
X151181094Y-121636575D01*
X151262446Y-121537446D01*
X151361575Y-121456094D01*
X151474664Y-121395646D01*
X151506596Y-121385960D01*
X151597382Y-121358420D01*
X151661145Y-121352140D01*
X151693026Y-121349000D01*
X152306974Y-121349000D01*
X152338855Y-121352140D01*
G37*
G36*
X152766242Y-119353404D02*
G01*
X152803337Y-119364657D01*
X152837515Y-119382925D01*
X152867481Y-119407519D01*
X152892075Y-119437485D01*
X152910343Y-119471663D01*
X152921596Y-119508758D01*
X152926000Y-119553474D01*
X152926000Y-120446526D01*
X152921596Y-120491242D01*
X152910343Y-120528337D01*
X152892075Y-120562515D01*
X152867481Y-120592481D01*
X152837515Y-120617075D01*
X152803337Y-120635343D01*
X152766242Y-120646596D01*
X152721526Y-120651000D01*
X151278474Y-120651000D01*
X151233758Y-120646596D01*
X151196663Y-120635343D01*
X151162485Y-120617075D01*
X151132519Y-120592481D01*
X151107925Y-120562515D01*
X151089657Y-120528337D01*
X151078404Y-120491242D01*
X151074000Y-120446526D01*
X151074000Y-119553474D01*
X151078404Y-119508758D01*
X151089657Y-119471663D01*
X151107925Y-119437485D01*
X151132519Y-119407519D01*
X151162485Y-119382925D01*
X151196663Y-119364657D01*
X151233758Y-119353404D01*
X151278474Y-119349000D01*
X152721526Y-119349000D01*
X152766242Y-119353404D01*
G37*
G36*
X103816536Y-114902800D02*
G01*
X103847738Y-114912265D01*
X103876486Y-114927631D01*
X103901687Y-114948313D01*
X103922369Y-114973514D01*
X103937735Y-115002262D01*
X103947200Y-115033464D01*
X103951000Y-115072046D01*
X103951000Y-116927954D01*
X103947200Y-116966536D01*
X103937735Y-116997738D01*
X103922369Y-117026486D01*
X103901687Y-117051687D01*
X103876486Y-117072369D01*
X103847738Y-117087735D01*
X103816536Y-117097200D01*
X103777954Y-117101000D01*
X99422046Y-117101000D01*
X99383464Y-117097200D01*
X99352262Y-117087735D01*
X99323514Y-117072369D01*
X99298313Y-117051687D01*
X99277631Y-117026486D01*
X99262265Y-116997738D01*
X99252800Y-116966536D01*
X99249000Y-116927954D01*
X99249000Y-115072046D01*
X99252800Y-115033464D01*
X99262265Y-115002262D01*
X99277631Y-114973514D01*
X99298313Y-114948313D01*
X99323514Y-114927631D01*
X99352262Y-114912265D01*
X99383464Y-114902800D01*
X99422046Y-114899000D01*
X103777954Y-114899000D01*
X103816536Y-114902800D01*
G37*
G36*
X95016536Y-114902800D02*
G01*
X95047738Y-114912265D01*
X95076486Y-114927631D01*
X95101687Y-114948313D01*
X95122369Y-114973514D01*
X95137735Y-115002262D01*
X95147200Y-115033464D01*
X95151000Y-115072046D01*
X95151000Y-116927954D01*
X95147200Y-116966536D01*
X95137735Y-116997738D01*
X95122369Y-117026486D01*
X95101687Y-117051687D01*
X95076486Y-117072369D01*
X95047738Y-117087735D01*
X95016536Y-117097200D01*
X94977954Y-117101000D01*
X90622046Y-117101000D01*
X90583464Y-117097200D01*
X90552262Y-117087735D01*
X90523514Y-117072369D01*
X90498313Y-117051687D01*
X90477631Y-117026486D01*
X90462265Y-116997738D01*
X90452800Y-116966536D01*
X90449000Y-116927954D01*
X90449000Y-115072046D01*
X90452800Y-115033464D01*
X90462265Y-115002262D01*
X90477631Y-114973514D01*
X90498313Y-114948313D01*
X90523514Y-114927631D01*
X90552262Y-114912265D01*
X90583464Y-114902800D01*
X90622046Y-114899000D01*
X94977954Y-114899000D01*
X95016536Y-114902800D01*
G37*
G36*
X130248228Y-115181703D02*
G01*
X130403100Y-115245853D01*
X130542481Y-115338985D01*
X130661015Y-115457519D01*
X130754147Y-115596900D01*
X130818297Y-115751772D01*
X130851000Y-115916184D01*
X130851000Y-116083816D01*
X130818297Y-116248228D01*
X130754147Y-116403100D01*
X130661015Y-116542481D01*
X130542481Y-116661015D01*
X130403100Y-116754147D01*
X130248228Y-116818297D01*
X130083816Y-116851000D01*
X129916184Y-116851000D01*
X129751772Y-116818297D01*
X129596900Y-116754147D01*
X129457519Y-116661015D01*
X129338985Y-116542481D01*
X129245853Y-116403100D01*
X129181703Y-116248228D01*
X129149000Y-116083816D01*
X129149000Y-115916184D01*
X129181703Y-115751772D01*
X129245853Y-115596900D01*
X129338985Y-115457519D01*
X129457519Y-115338985D01*
X129596900Y-115245853D01*
X129751772Y-115181703D01*
X129916184Y-115149000D01*
X130083816Y-115149000D01*
X130248228Y-115181703D01*
G37*
G36*
X135248228Y-115181703D02*
G01*
X135403100Y-115245853D01*
X135542481Y-115338985D01*
X135661015Y-115457519D01*
X135754147Y-115596900D01*
X135818297Y-115751772D01*
X135851000Y-115916184D01*
X135851000Y-116083816D01*
X135818297Y-116248228D01*
X135754147Y-116403100D01*
X135661015Y-116542481D01*
X135542481Y-116661015D01*
X135403100Y-116754147D01*
X135248228Y-116818297D01*
X135083816Y-116851000D01*
X134916184Y-116851000D01*
X134751772Y-116818297D01*
X134596900Y-116754147D01*
X134457519Y-116661015D01*
X134338985Y-116542481D01*
X134245853Y-116403100D01*
X134181703Y-116248228D01*
X134149000Y-116083816D01*
X134149000Y-115916184D01*
X134181703Y-115751772D01*
X134245853Y-115596900D01*
X134338985Y-115457519D01*
X134457519Y-115338985D01*
X134596900Y-115245853D01*
X134751772Y-115181703D01*
X134916184Y-115149000D01*
X135083816Y-115149000D01*
X135248228Y-115181703D01*
G37*
G36*
X152338855Y-113352140D02*
G01*
X152402618Y-113358420D01*
X152493404Y-113385960D01*
X152525336Y-113395646D01*
X152638425Y-113456094D01*
X152737554Y-113537446D01*
X152818906Y-113636575D01*
X152879354Y-113749664D01*
X152879355Y-113749668D01*
X152916580Y-113872382D01*
X152929149Y-114000000D01*
X152916580Y-114127618D01*
X152889040Y-114218404D01*
X152879354Y-114250336D01*
X152818906Y-114363425D01*
X152737554Y-114462554D01*
X152638425Y-114543906D01*
X152525336Y-114604354D01*
X152493404Y-114614040D01*
X152402618Y-114641580D01*
X152338855Y-114647860D01*
X152306974Y-114651000D01*
X151693026Y-114651000D01*
X151661145Y-114647860D01*
X151597382Y-114641580D01*
X151506596Y-114614040D01*
X151474664Y-114604354D01*
X151361575Y-114543906D01*
X151262446Y-114462554D01*
X151181094Y-114363425D01*
X151120646Y-114250336D01*
X151110960Y-114218404D01*
X151083420Y-114127618D01*
X151070851Y-114000000D01*
X151083420Y-113872382D01*
X151120645Y-113749668D01*
X151120646Y-113749664D01*
X151181094Y-113636575D01*
X151262446Y-113537446D01*
X151361575Y-113456094D01*
X151474664Y-113395646D01*
X151506596Y-113385960D01*
X151597382Y-113358420D01*
X151661145Y-113352140D01*
X151693026Y-113349000D01*
X152306974Y-113349000D01*
X152338855Y-113352140D01*
G37*
G36*
X152766242Y-111353404D02*
G01*
X152803337Y-111364657D01*
X152837515Y-111382925D01*
X152867481Y-111407519D01*
X152892075Y-111437485D01*
X152910343Y-111471663D01*
X152921596Y-111508758D01*
X152926000Y-111553474D01*
X152926000Y-112446526D01*
X152921596Y-112491242D01*
X152910343Y-112528337D01*
X152892075Y-112562515D01*
X152867481Y-112592481D01*
X152837515Y-112617075D01*
X152803337Y-112635343D01*
X152766242Y-112646596D01*
X152721526Y-112651000D01*
X151278474Y-112651000D01*
X151233758Y-112646596D01*
X151196663Y-112635343D01*
X151162485Y-112617075D01*
X151132519Y-112592481D01*
X151107925Y-112562515D01*
X151089657Y-112528337D01*
X151078404Y-112491242D01*
X151074000Y-112446526D01*
X151074000Y-111553474D01*
X151078404Y-111508758D01*
X151089657Y-111471663D01*
X151107925Y-111437485D01*
X151132519Y-111407519D01*
X151162485Y-111382925D01*
X151196663Y-111364657D01*
X151233758Y-111353404D01*
X151278474Y-111349000D01*
X152721526Y-111349000D01*
X152766242Y-111353404D01*
G37*
G36*
X102506564Y-106989389D02*
G01*
X102697833Y-107068615D01*
X102697835Y-107068616D01*
X102869973Y-107183635D01*
X103016365Y-107330027D01*
X103131385Y-107502167D01*
X103210611Y-107693436D01*
X103251000Y-107896484D01*
X103251000Y-108103516D01*
X103210611Y-108306564D01*
X103147354Y-108459280D01*
X103131384Y-108497835D01*
X103016365Y-108669973D01*
X102869973Y-108816365D01*
X102697835Y-108931384D01*
X102697834Y-108931385D01*
X102697833Y-108931385D01*
X102506564Y-109010611D01*
X102303516Y-109051000D01*
X102096484Y-109051000D01*
X101893436Y-109010611D01*
X101702167Y-108931385D01*
X101702166Y-108931385D01*
X101702165Y-108931384D01*
X101530027Y-108816365D01*
X101383635Y-108669973D01*
X101268616Y-108497835D01*
X101252646Y-108459280D01*
X101189389Y-108306564D01*
X101149000Y-108103516D01*
X101149000Y-107896484D01*
X101189389Y-107693436D01*
X101268615Y-107502167D01*
X101383635Y-107330027D01*
X101530027Y-107183635D01*
X101702165Y-107068616D01*
X101702167Y-107068615D01*
X101893436Y-106989389D01*
X102096484Y-106949000D01*
X102303516Y-106949000D01*
X102506564Y-106989389D01*
G37*
G36*
X148653820Y-105278103D02*
G01*
X148687985Y-105288467D01*
X148719464Y-105305293D01*
X148747060Y-105327940D01*
X148769707Y-105355536D01*
X148786533Y-105387015D01*
X148796897Y-105421180D01*
X148801000Y-105462842D01*
X148801000Y-108537158D01*
X148796897Y-108578820D01*
X148786533Y-108612985D01*
X148769707Y-108644464D01*
X148747060Y-108672060D01*
X148719464Y-108694707D01*
X148687985Y-108711533D01*
X148653820Y-108721897D01*
X148612158Y-108726000D01*
X147362842Y-108726000D01*
X147321180Y-108721897D01*
X147287015Y-108711533D01*
X147255536Y-108694707D01*
X147227940Y-108672060D01*
X147205293Y-108644464D01*
X147188467Y-108612985D01*
X147178103Y-108578820D01*
X147174000Y-108537158D01*
X147174000Y-105462842D01*
X147178103Y-105421180D01*
X147188467Y-105387015D01*
X147205293Y-105355536D01*
X147227940Y-105327940D01*
X147255536Y-105305293D01*
X147287015Y-105288467D01*
X147321180Y-105278103D01*
X147362842Y-105274000D01*
X148612158Y-105274000D01*
X148653820Y-105278103D01*
G37*
G36*
X142678820Y-105278103D02*
G01*
X142712985Y-105288467D01*
X142744464Y-105305293D01*
X142772060Y-105327940D01*
X142794707Y-105355536D01*
X142811533Y-105387015D01*
X142821897Y-105421180D01*
X142826000Y-105462842D01*
X142826000Y-108537158D01*
X142821897Y-108578820D01*
X142811533Y-108612985D01*
X142794707Y-108644464D01*
X142772060Y-108672060D01*
X142744464Y-108694707D01*
X142712985Y-108711533D01*
X142678820Y-108721897D01*
X142637158Y-108726000D01*
X141387842Y-108726000D01*
X141346180Y-108721897D01*
X141312015Y-108711533D01*
X141280536Y-108694707D01*
X141252940Y-108672060D01*
X141230293Y-108644464D01*
X141213467Y-108612985D01*
X141203103Y-108578820D01*
X141199000Y-108537158D01*
X141199000Y-105462842D01*
X141203103Y-105421180D01*
X141213467Y-105387015D01*
X141230293Y-105355536D01*
X141252940Y-105327940D01*
X141280536Y-105305293D01*
X141312015Y-105288467D01*
X141346180Y-105278103D01*
X141387842Y-105274000D01*
X142637158Y-105274000D01*
X142678820Y-105278103D01*
G37*
G36*
X151501000Y-107401000D02*
G01*
X150499000Y-107401000D01*
X150499000Y-106499000D01*
X151501000Y-106499000D01*
X151501000Y-107401000D01*
G37*
G36*
X92506564Y-104889389D02*
G01*
X92697833Y-104968615D01*
X92697835Y-104968616D01*
X92869973Y-105083635D01*
X93016365Y-105230027D01*
X93131385Y-105402167D01*
X93210611Y-105593436D01*
X93251000Y-105796484D01*
X93251000Y-106003516D01*
X93210611Y-106206564D01*
X93131385Y-106397833D01*
X93131384Y-106397835D01*
X93016365Y-106569973D01*
X92869973Y-106716365D01*
X92697835Y-106831384D01*
X92697834Y-106831385D01*
X92697833Y-106831385D01*
X92506564Y-106910611D01*
X92303516Y-106951000D01*
X92096484Y-106951000D01*
X91893436Y-106910611D01*
X91702167Y-106831385D01*
X91702166Y-106831385D01*
X91702165Y-106831384D01*
X91530027Y-106716365D01*
X91383635Y-106569973D01*
X91268616Y-106397835D01*
X91268615Y-106397833D01*
X91189389Y-106206564D01*
X91149000Y-106003516D01*
X91149000Y-105796484D01*
X91189389Y-105593436D01*
X91268615Y-105402167D01*
X91383635Y-105230027D01*
X91530027Y-105083635D01*
X91702165Y-104968616D01*
X91702167Y-104968615D01*
X91893436Y-104889389D01*
X92096484Y-104849000D01*
X92303516Y-104849000D01*
X92506564Y-104889389D01*
G37*
G36*
X153501000Y-106451000D02*
G01*
X152499000Y-106451000D01*
X152499000Y-105549000D01*
X153501000Y-105549000D01*
X153501000Y-106451000D01*
G37*
G36*
X151501000Y-105501000D02*
G01*
X150499000Y-105501000D01*
X150499000Y-104599000D01*
X151501000Y-104599000D01*
X151501000Y-105501000D01*
G37*
G36*
X118859999Y-103199737D02*
G01*
X118869608Y-103202652D01*
X118878472Y-103207390D01*
X118886237Y-103213763D01*
X118896448Y-103226206D01*
X118903378Y-103236575D01*
X118920705Y-103253902D01*
X118941080Y-103267515D01*
X118963720Y-103276891D01*
X118987753Y-103281671D01*
X119012257Y-103281670D01*
X119036290Y-103276888D01*
X119058929Y-103267510D01*
X119079302Y-103253895D01*
X119096629Y-103236568D01*
X119103558Y-103226198D01*
X119113763Y-103213763D01*
X119121528Y-103207390D01*
X119130392Y-103202652D01*
X119140001Y-103199737D01*
X119156140Y-103198148D01*
X119643861Y-103198148D01*
X119662199Y-103199954D01*
X119674450Y-103200556D01*
X119692869Y-103200556D01*
X119715149Y-103202750D01*
X119799233Y-103219476D01*
X119820660Y-103225976D01*
X119899858Y-103258780D01*
X119905303Y-103261691D01*
X119905309Y-103261693D01*
X119914169Y-103266429D01*
X119914173Y-103266432D01*
X119919614Y-103269340D01*
X119990899Y-103316971D01*
X120008204Y-103331172D01*
X120068828Y-103391796D01*
X120083029Y-103409101D01*
X120130660Y-103480386D01*
X120133568Y-103485827D01*
X120133571Y-103485831D01*
X120138307Y-103494691D01*
X120138309Y-103494697D01*
X120141220Y-103500142D01*
X120174024Y-103579340D01*
X120180524Y-103600767D01*
X120197250Y-103684851D01*
X120199444Y-103707131D01*
X120199444Y-103725550D01*
X120200046Y-103737801D01*
X120201852Y-103756139D01*
X120201852Y-104243862D01*
X120200046Y-104262199D01*
X120199444Y-104274450D01*
X120199444Y-104292869D01*
X120197250Y-104315149D01*
X120180524Y-104399233D01*
X120174024Y-104420660D01*
X120141220Y-104499858D01*
X120138309Y-104505303D01*
X120138307Y-104505309D01*
X120133571Y-104514169D01*
X120133568Y-104514173D01*
X120130660Y-104519614D01*
X120083029Y-104590899D01*
X120068828Y-104608204D01*
X120008204Y-104668828D01*
X119990899Y-104683029D01*
X119919614Y-104730660D01*
X119914173Y-104733568D01*
X119914169Y-104733571D01*
X119905309Y-104738307D01*
X119905303Y-104738309D01*
X119899858Y-104741220D01*
X119820660Y-104774024D01*
X119799233Y-104780524D01*
X119715149Y-104797250D01*
X119692869Y-104799444D01*
X119674450Y-104799444D01*
X119662199Y-104800046D01*
X119643862Y-104801852D01*
X119156140Y-104801852D01*
X119140001Y-104800263D01*
X119130392Y-104797348D01*
X119121528Y-104792610D01*
X119113763Y-104786237D01*
X119103552Y-104773794D01*
X119096622Y-104763425D01*
X119079295Y-104746098D01*
X119058920Y-104732485D01*
X119036280Y-104723109D01*
X119012247Y-104718329D01*
X118987743Y-104718330D01*
X118963710Y-104723112D01*
X118941071Y-104732490D01*
X118920698Y-104746105D01*
X118903371Y-104763432D01*
X118896442Y-104773802D01*
X118886237Y-104786237D01*
X118878472Y-104792610D01*
X118869608Y-104797348D01*
X118859999Y-104800263D01*
X118843860Y-104801852D01*
X118356138Y-104801852D01*
X118337801Y-104800046D01*
X118325550Y-104799444D01*
X118307131Y-104799444D01*
X118284851Y-104797250D01*
X118200767Y-104780524D01*
X118179340Y-104774024D01*
X118100142Y-104741220D01*
X118094697Y-104738309D01*
X118094691Y-104738307D01*
X118085831Y-104733571D01*
X118085827Y-104733568D01*
X118080386Y-104730660D01*
X118009101Y-104683029D01*
X117991796Y-104668828D01*
X117931172Y-104608204D01*
X117916971Y-104590899D01*
X117869340Y-104519614D01*
X117866432Y-104514173D01*
X117866429Y-104514169D01*
X117861693Y-104505309D01*
X117861691Y-104505303D01*
X117858780Y-104499858D01*
X117825976Y-104420660D01*
X117819476Y-104399233D01*
X117802750Y-104315149D01*
X117800556Y-104292869D01*
X117800556Y-104274450D01*
X117799954Y-104262199D01*
X117798148Y-104243862D01*
X117798148Y-103756139D01*
X117799954Y-103737801D01*
X117800556Y-103725550D01*
X117800556Y-103707131D01*
X117802750Y-103684851D01*
X117819476Y-103600767D01*
X117825976Y-103579340D01*
X117858780Y-103500142D01*
X117861691Y-103494697D01*
X117861693Y-103494691D01*
X117866429Y-103485831D01*
X117866432Y-103485827D01*
X117869340Y-103480386D01*
X117916971Y-103409101D01*
X117931172Y-103391796D01*
X117991796Y-103331172D01*
X118009101Y-103316971D01*
X118080386Y-103269340D01*
X118085827Y-103266432D01*
X118085831Y-103266429D01*
X118094691Y-103261693D01*
X118094697Y-103261691D01*
X118100142Y-103258780D01*
X118179340Y-103225976D01*
X118200767Y-103219476D01*
X118284851Y-103202750D01*
X118307131Y-103200556D01*
X118325550Y-103200556D01*
X118337801Y-103199954D01*
X118356139Y-103198148D01*
X118843860Y-103198148D01*
X118859999Y-103199737D01*
G37*
G36*
X144001000Y-104251000D02*
G01*
X135999000Y-104251000D01*
X135999000Y-101849000D01*
X144001000Y-101849000D01*
X144001000Y-104251000D01*
G37*
G36*
X90925562Y-100128181D02*
G01*
X90960481Y-100138774D01*
X90992663Y-100155976D01*
X91020873Y-100179127D01*
X91044024Y-100207337D01*
X91061226Y-100239519D01*
X91071819Y-100274438D01*
X91076000Y-100316895D01*
X91076000Y-102683105D01*
X91071819Y-102725562D01*
X91061226Y-102760481D01*
X91044024Y-102792663D01*
X91020873Y-102820873D01*
X90992663Y-102844024D01*
X90960481Y-102861226D01*
X90925562Y-102871819D01*
X90883105Y-102876000D01*
X89741895Y-102876000D01*
X89699438Y-102871819D01*
X89664519Y-102861226D01*
X89632337Y-102844024D01*
X89604127Y-102820873D01*
X89580976Y-102792663D01*
X89563774Y-102760481D01*
X89553181Y-102725562D01*
X89549000Y-102683105D01*
X89549000Y-100316895D01*
X89553181Y-100274438D01*
X89563774Y-100239519D01*
X89580976Y-100207337D01*
X89604127Y-100179127D01*
X89632337Y-100155976D01*
X89664519Y-100138774D01*
X89699438Y-100128181D01*
X89741895Y-100124000D01*
X90883105Y-100124000D01*
X90925562Y-100128181D01*
G37*
G36*
X93900562Y-100128181D02*
G01*
X93935481Y-100138774D01*
X93967663Y-100155976D01*
X93995873Y-100179127D01*
X94019024Y-100207337D01*
X94036226Y-100239519D01*
X94046819Y-100274438D01*
X94051000Y-100316895D01*
X94051000Y-102683105D01*
X94046819Y-102725562D01*
X94036226Y-102760481D01*
X94019024Y-102792663D01*
X93995873Y-102820873D01*
X93967663Y-102844024D01*
X93935481Y-102861226D01*
X93900562Y-102871819D01*
X93858105Y-102876000D01*
X92716895Y-102876000D01*
X92674438Y-102871819D01*
X92639519Y-102861226D01*
X92607337Y-102844024D01*
X92579127Y-102820873D01*
X92555976Y-102792663D01*
X92538774Y-102760481D01*
X92528181Y-102725562D01*
X92524000Y-102683105D01*
X92524000Y-100316895D01*
X92528181Y-100274438D01*
X92538774Y-100239519D01*
X92555976Y-100207337D01*
X92579127Y-100179127D01*
X92607337Y-100155976D01*
X92639519Y-100138774D01*
X92674438Y-100128181D01*
X92716895Y-100124000D01*
X93858105Y-100124000D01*
X93900562Y-100128181D01*
G37*
G36*
X134101000Y-101451000D02*
G01*
X130199000Y-101451000D01*
X130199000Y-98849000D01*
X134101000Y-98849000D01*
X134101000Y-101451000D01*
G37*
G36*
X147801000Y-101451000D02*
G01*
X143899000Y-101451000D01*
X143899000Y-98849000D01*
X147801000Y-98849000D01*
X147801000Y-101451000D01*
G37*
G36*
X125801000Y-100921000D02*
G01*
X121699000Y-100921000D01*
X121699000Y-99619000D01*
X125801000Y-99619000D01*
X125801000Y-100921000D01*
G37*
G36*
X116301000Y-100921000D02*
G01*
X112199000Y-100921000D01*
X112199000Y-99619000D01*
X116301000Y-99619000D01*
X116301000Y-100921000D01*
G37*
G36*
X152338855Y-99352140D02*
G01*
X152402618Y-99358420D01*
X152493404Y-99385960D01*
X152525336Y-99395646D01*
X152638425Y-99456094D01*
X152737554Y-99537446D01*
X152818906Y-99636575D01*
X152879354Y-99749664D01*
X152879355Y-99749668D01*
X152916580Y-99872382D01*
X152929149Y-100000000D01*
X152916580Y-100127618D01*
X152903982Y-100169148D01*
X152879354Y-100250336D01*
X152818906Y-100363425D01*
X152737554Y-100462554D01*
X152638425Y-100543906D01*
X152525336Y-100604354D01*
X152493404Y-100614040D01*
X152402618Y-100641580D01*
X152338855Y-100647860D01*
X152306974Y-100651000D01*
X151693026Y-100651000D01*
X151661145Y-100647860D01*
X151597382Y-100641580D01*
X151506596Y-100614040D01*
X151474664Y-100604354D01*
X151361575Y-100543906D01*
X151262446Y-100462554D01*
X151181094Y-100363425D01*
X151120646Y-100250336D01*
X151096018Y-100169148D01*
X151083420Y-100127618D01*
X151070851Y-100000000D01*
X151083420Y-99872382D01*
X151120645Y-99749668D01*
X151120646Y-99749664D01*
X151181094Y-99636575D01*
X151262446Y-99537446D01*
X151361575Y-99456094D01*
X151474664Y-99395646D01*
X151506596Y-99385960D01*
X151597382Y-99358420D01*
X151661145Y-99352140D01*
X151693026Y-99349000D01*
X152306974Y-99349000D01*
X152338855Y-99352140D01*
G37*
G36*
X94693604Y-97403347D02*
G01*
X94730144Y-97414432D01*
X94763821Y-97432433D01*
X94793341Y-97456659D01*
X94817567Y-97486179D01*
X94835568Y-97519856D01*
X94846653Y-97556396D01*
X94851000Y-97600538D01*
X94851000Y-98549462D01*
X94846653Y-98593604D01*
X94835568Y-98630144D01*
X94817567Y-98663821D01*
X94793341Y-98693341D01*
X94763821Y-98717567D01*
X94730144Y-98735568D01*
X94693604Y-98746653D01*
X94649462Y-98751000D01*
X92750538Y-98751000D01*
X92706396Y-98746653D01*
X92669856Y-98735568D01*
X92636179Y-98717567D01*
X92606659Y-98693341D01*
X92582433Y-98663821D01*
X92564432Y-98630144D01*
X92553347Y-98593604D01*
X92549000Y-98549462D01*
X92549000Y-97600538D01*
X92553347Y-97556396D01*
X92564432Y-97519856D01*
X92582433Y-97486179D01*
X92606659Y-97456659D01*
X92636179Y-97432433D01*
X92669856Y-97414432D01*
X92706396Y-97403347D01*
X92750538Y-97399000D01*
X94649462Y-97399000D01*
X94693604Y-97403347D01*
G37*
G36*
X152766242Y-97353404D02*
G01*
X152803337Y-97364657D01*
X152837515Y-97382925D01*
X152867481Y-97407519D01*
X152892075Y-97437485D01*
X152910343Y-97471663D01*
X152921596Y-97508758D01*
X152926000Y-97553474D01*
X152926000Y-98446526D01*
X152921596Y-98491242D01*
X152910343Y-98528337D01*
X152892075Y-98562515D01*
X152867481Y-98592481D01*
X152837515Y-98617075D01*
X152803337Y-98635343D01*
X152766242Y-98646596D01*
X152721526Y-98651000D01*
X151278474Y-98651000D01*
X151233758Y-98646596D01*
X151196663Y-98635343D01*
X151162485Y-98617075D01*
X151132519Y-98592481D01*
X151107925Y-98562515D01*
X151089657Y-98528337D01*
X151078404Y-98491242D01*
X151074000Y-98446526D01*
X151074000Y-97553474D01*
X151078404Y-97508758D01*
X151089657Y-97471663D01*
X151107925Y-97437485D01*
X151132519Y-97407519D01*
X151162485Y-97382925D01*
X151196663Y-97364657D01*
X151233758Y-97353404D01*
X151278474Y-97349000D01*
X152721526Y-97349000D01*
X152766242Y-97353404D01*
G37*
G36*
X125801000Y-98381000D02*
G01*
X121699000Y-98381000D01*
X121699000Y-97079000D01*
X125801000Y-97079000D01*
X125801000Y-98381000D01*
G37*
G36*
X116301000Y-98381000D02*
G01*
X112199000Y-98381000D01*
X112199000Y-97079000D01*
X116301000Y-97079000D01*
X116301000Y-98381000D01*
G37*
G36*
X134101000Y-97151000D02*
G01*
X130199000Y-97151000D01*
X130199000Y-94549000D01*
X134101000Y-94549000D01*
X134101000Y-97151000D01*
G37*
G36*
X147801000Y-97151000D02*
G01*
X143899000Y-97151000D01*
X143899000Y-94549000D01*
X147801000Y-94549000D01*
X147801000Y-97151000D01*
G37*
G36*
X94693604Y-95253347D02*
G01*
X94730144Y-95264432D01*
X94763821Y-95282433D01*
X94793341Y-95306659D01*
X94817567Y-95336179D01*
X94835568Y-95369856D01*
X94846653Y-95406396D01*
X94851000Y-95450538D01*
X94851000Y-96399462D01*
X94846653Y-96443604D01*
X94835568Y-96480144D01*
X94817567Y-96513821D01*
X94793341Y-96543341D01*
X94763821Y-96567567D01*
X94730144Y-96585568D01*
X94693604Y-96596653D01*
X94649462Y-96601000D01*
X92750538Y-96601000D01*
X92706396Y-96596653D01*
X92669856Y-96585568D01*
X92636179Y-96567567D01*
X92606659Y-96543341D01*
X92582433Y-96513821D01*
X92564432Y-96480144D01*
X92553347Y-96443604D01*
X92549000Y-96399462D01*
X92549000Y-95450538D01*
X92553347Y-95406396D01*
X92564432Y-95369856D01*
X92582433Y-95336179D01*
X92606659Y-95306659D01*
X92636179Y-95282433D01*
X92669856Y-95264432D01*
X92706396Y-95253347D01*
X92750538Y-95249000D01*
X94649462Y-95249000D01*
X94693604Y-95253347D01*
G37*
G36*
X118859999Y-93199737D02*
G01*
X118869608Y-93202652D01*
X118878472Y-93207390D01*
X118886237Y-93213763D01*
X118896448Y-93226206D01*
X118903378Y-93236575D01*
X118920705Y-93253902D01*
X118941080Y-93267515D01*
X118963720Y-93276891D01*
X118987753Y-93281671D01*
X119012257Y-93281670D01*
X119036290Y-93276888D01*
X119058929Y-93267510D01*
X119079302Y-93253895D01*
X119096629Y-93236568D01*
X119103558Y-93226198D01*
X119113763Y-93213763D01*
X119121528Y-93207390D01*
X119130392Y-93202652D01*
X119140001Y-93199737D01*
X119156140Y-93198148D01*
X119643861Y-93198148D01*
X119662199Y-93199954D01*
X119674450Y-93200556D01*
X119692869Y-93200556D01*
X119715149Y-93202750D01*
X119799233Y-93219476D01*
X119820660Y-93225976D01*
X119899858Y-93258780D01*
X119905303Y-93261691D01*
X119905309Y-93261693D01*
X119914169Y-93266429D01*
X119914173Y-93266432D01*
X119919614Y-93269340D01*
X119990899Y-93316971D01*
X120008204Y-93331172D01*
X120068828Y-93391796D01*
X120083029Y-93409101D01*
X120130660Y-93480386D01*
X120133568Y-93485827D01*
X120133571Y-93485831D01*
X120138307Y-93494691D01*
X120138309Y-93494697D01*
X120141220Y-93500142D01*
X120174024Y-93579340D01*
X120180524Y-93600767D01*
X120197250Y-93684851D01*
X120199444Y-93707131D01*
X120199444Y-93725550D01*
X120200046Y-93737801D01*
X120201852Y-93756139D01*
X120201852Y-94243862D01*
X120200046Y-94262199D01*
X120199444Y-94274450D01*
X120199444Y-94292869D01*
X120197250Y-94315149D01*
X120180524Y-94399233D01*
X120174024Y-94420660D01*
X120141220Y-94499858D01*
X120138309Y-94505303D01*
X120138307Y-94505309D01*
X120133571Y-94514169D01*
X120133568Y-94514173D01*
X120130660Y-94519614D01*
X120083029Y-94590899D01*
X120068828Y-94608204D01*
X120008204Y-94668828D01*
X119990899Y-94683029D01*
X119919614Y-94730660D01*
X119914173Y-94733568D01*
X119914169Y-94733571D01*
X119905309Y-94738307D01*
X119905303Y-94738309D01*
X119899858Y-94741220D01*
X119820660Y-94774024D01*
X119799233Y-94780524D01*
X119715149Y-94797250D01*
X119692869Y-94799444D01*
X119674450Y-94799444D01*
X119662199Y-94800046D01*
X119643862Y-94801852D01*
X119156140Y-94801852D01*
X119140001Y-94800263D01*
X119130392Y-94797348D01*
X119121528Y-94792610D01*
X119113763Y-94786237D01*
X119103552Y-94773794D01*
X119096622Y-94763425D01*
X119079295Y-94746098D01*
X119058920Y-94732485D01*
X119036280Y-94723109D01*
X119012247Y-94718329D01*
X118987743Y-94718330D01*
X118963710Y-94723112D01*
X118941071Y-94732490D01*
X118920698Y-94746105D01*
X118903371Y-94763432D01*
X118896442Y-94773802D01*
X118886237Y-94786237D01*
X118878472Y-94792610D01*
X118869608Y-94797348D01*
X118859999Y-94800263D01*
X118843860Y-94801852D01*
X118356138Y-94801852D01*
X118337801Y-94800046D01*
X118325550Y-94799444D01*
X118307131Y-94799444D01*
X118284851Y-94797250D01*
X118200767Y-94780524D01*
X118179340Y-94774024D01*
X118100142Y-94741220D01*
X118094697Y-94738309D01*
X118094691Y-94738307D01*
X118085831Y-94733571D01*
X118085827Y-94733568D01*
X118080386Y-94730660D01*
X118009101Y-94683029D01*
X117991796Y-94668828D01*
X117931172Y-94608204D01*
X117916971Y-94590899D01*
X117869340Y-94519614D01*
X117866432Y-94514173D01*
X117866429Y-94514169D01*
X117861693Y-94505309D01*
X117861691Y-94505303D01*
X117858780Y-94499858D01*
X117825976Y-94420660D01*
X117819476Y-94399233D01*
X117802750Y-94315149D01*
X117800556Y-94292869D01*
X117800556Y-94274450D01*
X117799954Y-94262199D01*
X117798148Y-94243862D01*
X117798148Y-93756139D01*
X117799954Y-93737801D01*
X117800556Y-93725550D01*
X117800556Y-93707131D01*
X117802750Y-93684851D01*
X117819476Y-93600767D01*
X117825976Y-93579340D01*
X117858780Y-93500142D01*
X117861691Y-93494697D01*
X117861693Y-93494691D01*
X117866429Y-93485831D01*
X117866432Y-93485827D01*
X117869340Y-93480386D01*
X117916971Y-93409101D01*
X117931172Y-93391796D01*
X117991796Y-93331172D01*
X118009101Y-93316971D01*
X118080386Y-93269340D01*
X118085827Y-93266432D01*
X118085831Y-93266429D01*
X118094691Y-93261693D01*
X118094697Y-93261691D01*
X118100142Y-93258780D01*
X118179340Y-93225976D01*
X118200767Y-93219476D01*
X118284851Y-93202750D01*
X118307131Y-93200556D01*
X118325550Y-93200556D01*
X118337801Y-93199954D01*
X118356139Y-93198148D01*
X118843860Y-93198148D01*
X118859999Y-93199737D01*
G37*
G36*
X144001000Y-94051000D02*
G01*
X140499000Y-94051000D01*
X140499000Y-91649000D01*
X144001000Y-91649000D01*
X144001000Y-94051000D01*
G37*
G36*
X109351560Y-90499064D02*
G01*
X109503027Y-90529193D01*
X109717045Y-90617842D01*
X109752571Y-90641580D01*
X109909654Y-90746539D01*
X110073461Y-90910346D01*
X110159258Y-91038751D01*
X110202158Y-91102955D01*
X110290807Y-91316973D01*
X110336000Y-91544174D01*
X110336000Y-91775826D01*
X110290807Y-92003027D01*
X110202158Y-92217045D01*
X110202157Y-92217046D01*
X110073461Y-92409654D01*
X109909654Y-92573461D01*
X109800199Y-92646596D01*
X109717045Y-92702158D01*
X109503027Y-92790807D01*
X109351560Y-92820936D01*
X109275827Y-92836000D01*
X109044173Y-92836000D01*
X108968440Y-92820936D01*
X108816973Y-92790807D01*
X108602955Y-92702158D01*
X108519801Y-92646596D01*
X108410346Y-92573461D01*
X108246539Y-92409654D01*
X108117843Y-92217046D01*
X108117842Y-92217045D01*
X108029193Y-92003027D01*
X107984000Y-91775826D01*
X107984000Y-91544174D01*
X108029193Y-91316973D01*
X108117842Y-91102955D01*
X108160742Y-91038751D01*
X108246539Y-90910346D01*
X108410346Y-90746539D01*
X108567429Y-90641580D01*
X108602955Y-90617842D01*
X108816973Y-90529193D01*
X108968440Y-90499064D01*
X109044173Y-90484000D01*
X109275827Y-90484000D01*
X109351560Y-90499064D01*
G37*
G36*
X115725562Y-91228181D02*
G01*
X115760481Y-91238774D01*
X115792663Y-91255976D01*
X115820873Y-91279127D01*
X115844024Y-91307337D01*
X115861226Y-91339519D01*
X115871819Y-91374438D01*
X115876000Y-91416895D01*
X115876000Y-92558105D01*
X115871819Y-92600562D01*
X115861226Y-92635481D01*
X115844024Y-92667663D01*
X115820873Y-92695873D01*
X115792663Y-92719024D01*
X115760481Y-92736226D01*
X115725562Y-92746819D01*
X115683105Y-92751000D01*
X113316895Y-92751000D01*
X113274438Y-92746819D01*
X113239519Y-92736226D01*
X113207337Y-92719024D01*
X113179127Y-92695873D01*
X113155976Y-92667663D01*
X113138774Y-92635481D01*
X113128181Y-92600562D01*
X113124000Y-92558105D01*
X113124000Y-91416895D01*
X113128181Y-91374438D01*
X113138774Y-91339519D01*
X113155976Y-91307337D01*
X113179127Y-91279127D01*
X113207337Y-91255976D01*
X113239519Y-91238774D01*
X113274438Y-91228181D01*
X113316895Y-91224000D01*
X115683105Y-91224000D01*
X115725562Y-91228181D01*
G37*
G36*
X151766242Y-91353404D02*
G01*
X151803337Y-91364657D01*
X151837515Y-91382925D01*
X151867481Y-91407519D01*
X151892075Y-91437485D01*
X151910343Y-91471663D01*
X151921596Y-91508758D01*
X151926000Y-91553474D01*
X151926000Y-92446526D01*
X151921596Y-92491242D01*
X151910343Y-92528337D01*
X151892075Y-92562515D01*
X151867481Y-92592481D01*
X151837515Y-92617075D01*
X151803337Y-92635343D01*
X151766242Y-92646596D01*
X151721526Y-92651000D01*
X150278474Y-92651000D01*
X150233758Y-92646596D01*
X150196663Y-92635343D01*
X150162485Y-92617075D01*
X150132519Y-92592481D01*
X150107925Y-92562515D01*
X150089657Y-92528337D01*
X150078404Y-92491242D01*
X150074000Y-92446526D01*
X150074000Y-91553474D01*
X150078404Y-91508758D01*
X150089657Y-91471663D01*
X150107925Y-91437485D01*
X150132519Y-91407519D01*
X150162485Y-91382925D01*
X150196663Y-91364657D01*
X150233758Y-91353404D01*
X150278474Y-91349000D01*
X151721526Y-91349000D01*
X151766242Y-91353404D01*
G37*
G36*
X146364499Y-91428445D02*
G01*
X146401995Y-91439820D01*
X146436554Y-91458292D01*
X146466847Y-91483153D01*
X146491708Y-91513446D01*
X146510180Y-91548005D01*
X146521555Y-91585501D01*
X146526000Y-91630638D01*
X146526000Y-92369362D01*
X146521555Y-92414499D01*
X146510180Y-92451995D01*
X146491708Y-92486554D01*
X146466847Y-92516847D01*
X146436554Y-92541708D01*
X146401995Y-92560180D01*
X146364499Y-92571555D01*
X146319362Y-92576000D01*
X145680638Y-92576000D01*
X145635501Y-92571555D01*
X145598005Y-92560180D01*
X145563446Y-92541708D01*
X145533153Y-92516847D01*
X145508292Y-92486554D01*
X145489820Y-92451995D01*
X145478445Y-92414499D01*
X145474000Y-92369362D01*
X145474000Y-91630638D01*
X145478445Y-91585501D01*
X145489820Y-91548005D01*
X145508292Y-91513446D01*
X145533153Y-91483153D01*
X145563446Y-91458292D01*
X145598005Y-91439820D01*
X145635501Y-91428445D01*
X145680638Y-91424000D01*
X146319362Y-91424000D01*
X146364499Y-91428445D01*
G37*
G36*
X127125562Y-88628181D02*
G01*
X127160481Y-88638774D01*
X127192663Y-88655976D01*
X127220873Y-88679127D01*
X127244024Y-88707337D01*
X127261226Y-88739519D01*
X127271819Y-88774438D01*
X127276000Y-88816895D01*
X127276000Y-91183105D01*
X127271819Y-91225562D01*
X127261226Y-91260481D01*
X127244024Y-91292663D01*
X127220873Y-91320873D01*
X127192663Y-91344024D01*
X127160481Y-91361226D01*
X127125562Y-91371819D01*
X127083105Y-91376000D01*
X125941895Y-91376000D01*
X125899438Y-91371819D01*
X125864519Y-91361226D01*
X125832337Y-91344024D01*
X125804127Y-91320873D01*
X125780976Y-91292663D01*
X125763774Y-91260481D01*
X125753181Y-91225562D01*
X125749000Y-91183105D01*
X125749000Y-88816895D01*
X125753181Y-88774438D01*
X125763774Y-88739519D01*
X125780976Y-88707337D01*
X125804127Y-88679127D01*
X125832337Y-88655976D01*
X125864519Y-88638774D01*
X125899438Y-88628181D01*
X125941895Y-88624000D01*
X127083105Y-88624000D01*
X127125562Y-88628181D01*
G37*
G36*
X130100562Y-88628181D02*
G01*
X130135481Y-88638774D01*
X130167663Y-88655976D01*
X130195873Y-88679127D01*
X130219024Y-88707337D01*
X130236226Y-88739519D01*
X130246819Y-88774438D01*
X130251000Y-88816895D01*
X130251000Y-91183105D01*
X130246819Y-91225562D01*
X130236226Y-91260481D01*
X130219024Y-91292663D01*
X130195873Y-91320873D01*
X130167663Y-91344024D01*
X130135481Y-91361226D01*
X130100562Y-91371819D01*
X130058105Y-91376000D01*
X128916895Y-91376000D01*
X128874438Y-91371819D01*
X128839519Y-91361226D01*
X128807337Y-91344024D01*
X128779127Y-91320873D01*
X128755976Y-91292663D01*
X128738774Y-91260481D01*
X128728181Y-91225562D01*
X128724000Y-91183105D01*
X128724000Y-88816895D01*
X128728181Y-88774438D01*
X128738774Y-88739519D01*
X128755976Y-88707337D01*
X128779127Y-88679127D01*
X128807337Y-88655976D01*
X128839519Y-88638774D01*
X128874438Y-88628181D01*
X128916895Y-88624000D01*
X130058105Y-88624000D01*
X130100562Y-88628181D01*
G37*
G36*
X146364499Y-89678445D02*
G01*
X146401995Y-89689820D01*
X146436554Y-89708292D01*
X146466847Y-89733153D01*
X146491708Y-89763446D01*
X146510180Y-89798005D01*
X146521555Y-89835501D01*
X146526000Y-89880638D01*
X146526000Y-90619362D01*
X146521555Y-90664499D01*
X146510180Y-90701995D01*
X146491708Y-90736554D01*
X146466847Y-90766847D01*
X146436554Y-90791708D01*
X146401995Y-90810180D01*
X146364499Y-90821555D01*
X146319362Y-90826000D01*
X145680638Y-90826000D01*
X145635501Y-90821555D01*
X145598005Y-90810180D01*
X145563446Y-90791708D01*
X145533153Y-90766847D01*
X145508292Y-90736554D01*
X145489820Y-90701995D01*
X145478445Y-90664499D01*
X145474000Y-90619362D01*
X145474000Y-89880638D01*
X145478445Y-89835501D01*
X145489820Y-89798005D01*
X145508292Y-89763446D01*
X145533153Y-89733153D01*
X145563446Y-89708292D01*
X145598005Y-89689820D01*
X145635501Y-89678445D01*
X145680638Y-89674000D01*
X146319362Y-89674000D01*
X146364499Y-89678445D01*
G37*
G36*
X151338855Y-89352140D02*
G01*
X151402618Y-89358420D01*
X151493404Y-89385960D01*
X151525336Y-89395646D01*
X151638425Y-89456094D01*
X151737554Y-89537446D01*
X151818906Y-89636575D01*
X151879354Y-89749664D01*
X151887343Y-89776000D01*
X151916580Y-89872382D01*
X151929149Y-90000000D01*
X151916580Y-90127618D01*
X151889040Y-90218404D01*
X151879354Y-90250336D01*
X151818906Y-90363425D01*
X151737554Y-90462554D01*
X151638425Y-90543906D01*
X151525336Y-90604354D01*
X151493404Y-90614040D01*
X151402618Y-90641580D01*
X151338855Y-90647860D01*
X151306974Y-90651000D01*
X150693026Y-90651000D01*
X150661145Y-90647860D01*
X150597382Y-90641580D01*
X150506596Y-90614040D01*
X150474664Y-90604354D01*
X150361575Y-90543906D01*
X150262446Y-90462554D01*
X150181094Y-90363425D01*
X150120646Y-90250336D01*
X150110960Y-90218404D01*
X150083420Y-90127618D01*
X150070851Y-90000000D01*
X150083420Y-89872382D01*
X150112657Y-89776000D01*
X150120646Y-89749664D01*
X150181094Y-89636575D01*
X150262446Y-89537446D01*
X150361575Y-89456094D01*
X150474664Y-89395646D01*
X150506596Y-89385960D01*
X150597382Y-89358420D01*
X150661145Y-89352140D01*
X150693026Y-89349000D01*
X151306974Y-89349000D01*
X151338855Y-89352140D01*
G37*
G36*
X115725562Y-88253181D02*
G01*
X115760481Y-88263774D01*
X115792663Y-88280976D01*
X115820873Y-88304127D01*
X115844024Y-88332337D01*
X115861226Y-88364519D01*
X115871819Y-88399438D01*
X115876000Y-88441895D01*
X115876000Y-89583105D01*
X115871819Y-89625562D01*
X115861226Y-89660481D01*
X115844024Y-89692663D01*
X115820873Y-89720873D01*
X115792663Y-89744024D01*
X115760481Y-89761226D01*
X115725562Y-89771819D01*
X115683105Y-89776000D01*
X113316895Y-89776000D01*
X113274438Y-89771819D01*
X113239519Y-89761226D01*
X113207337Y-89744024D01*
X113179127Y-89720873D01*
X113155976Y-89692663D01*
X113138774Y-89660481D01*
X113128181Y-89625562D01*
X113124000Y-89583105D01*
X113124000Y-88441895D01*
X113128181Y-88399438D01*
X113138774Y-88364519D01*
X113155976Y-88332337D01*
X113179127Y-88304127D01*
X113207337Y-88280976D01*
X113239519Y-88263774D01*
X113274438Y-88253181D01*
X113316895Y-88249000D01*
X115683105Y-88249000D01*
X115725562Y-88253181D01*
G37*
G36*
X145001000Y-88251000D02*
G01*
X136999000Y-88251000D01*
X136999000Y-85849000D01*
X145001000Y-85849000D01*
X145001000Y-88251000D01*
G37*
G36*
X118859999Y-84199737D02*
G01*
X118869608Y-84202652D01*
X118878472Y-84207390D01*
X118886237Y-84213763D01*
X118896448Y-84226206D01*
X118903378Y-84236575D01*
X118920705Y-84253902D01*
X118941080Y-84267515D01*
X118963720Y-84276891D01*
X118987753Y-84281671D01*
X119012257Y-84281670D01*
X119036290Y-84276888D01*
X119058929Y-84267510D01*
X119079302Y-84253895D01*
X119096629Y-84236568D01*
X119103558Y-84226198D01*
X119113763Y-84213763D01*
X119121528Y-84207390D01*
X119130392Y-84202652D01*
X119140001Y-84199737D01*
X119156140Y-84198148D01*
X119643861Y-84198148D01*
X119662199Y-84199954D01*
X119674450Y-84200556D01*
X119692869Y-84200556D01*
X119715149Y-84202750D01*
X119799233Y-84219476D01*
X119820660Y-84225976D01*
X119899858Y-84258780D01*
X119905303Y-84261691D01*
X119905309Y-84261693D01*
X119914169Y-84266429D01*
X119914173Y-84266432D01*
X119919614Y-84269340D01*
X119990899Y-84316971D01*
X120008204Y-84331172D01*
X120068828Y-84391796D01*
X120083029Y-84409101D01*
X120130660Y-84480386D01*
X120133568Y-84485827D01*
X120133571Y-84485831D01*
X120138307Y-84494691D01*
X120138309Y-84494697D01*
X120141220Y-84500142D01*
X120174024Y-84579340D01*
X120180524Y-84600767D01*
X120197250Y-84684851D01*
X120199444Y-84707131D01*
X120199444Y-84725550D01*
X120200046Y-84737801D01*
X120201852Y-84756139D01*
X120201852Y-85243862D01*
X120200046Y-85262199D01*
X120199444Y-85274450D01*
X120199444Y-85292869D01*
X120197250Y-85315149D01*
X120180524Y-85399233D01*
X120174024Y-85420660D01*
X120141220Y-85499858D01*
X120138309Y-85505303D01*
X120138307Y-85505309D01*
X120133571Y-85514169D01*
X120133568Y-85514173D01*
X120130660Y-85519614D01*
X120083029Y-85590899D01*
X120068828Y-85608204D01*
X120008204Y-85668828D01*
X119990899Y-85683029D01*
X119919614Y-85730660D01*
X119914173Y-85733568D01*
X119914169Y-85733571D01*
X119905309Y-85738307D01*
X119905303Y-85738309D01*
X119899858Y-85741220D01*
X119820660Y-85774024D01*
X119799233Y-85780524D01*
X119715149Y-85797250D01*
X119692869Y-85799444D01*
X119674450Y-85799444D01*
X119662199Y-85800046D01*
X119643862Y-85801852D01*
X119156140Y-85801852D01*
X119140001Y-85800263D01*
X119130392Y-85797348D01*
X119121528Y-85792610D01*
X119113763Y-85786237D01*
X119103552Y-85773794D01*
X119096622Y-85763425D01*
X119079295Y-85746098D01*
X119058920Y-85732485D01*
X119036280Y-85723109D01*
X119012247Y-85718329D01*
X118987743Y-85718330D01*
X118963710Y-85723112D01*
X118941071Y-85732490D01*
X118920698Y-85746105D01*
X118903371Y-85763432D01*
X118896442Y-85773802D01*
X118886237Y-85786237D01*
X118878472Y-85792610D01*
X118869608Y-85797348D01*
X118859999Y-85800263D01*
X118843860Y-85801852D01*
X118356138Y-85801852D01*
X118337801Y-85800046D01*
X118325550Y-85799444D01*
X118307131Y-85799444D01*
X118284851Y-85797250D01*
X118200767Y-85780524D01*
X118179340Y-85774024D01*
X118100142Y-85741220D01*
X118094697Y-85738309D01*
X118094691Y-85738307D01*
X118085831Y-85733571D01*
X118085827Y-85733568D01*
X118080386Y-85730660D01*
X118009101Y-85683029D01*
X117991796Y-85668828D01*
X117931172Y-85608204D01*
X117916971Y-85590899D01*
X117869340Y-85519614D01*
X117866432Y-85514173D01*
X117866429Y-85514169D01*
X117861693Y-85505309D01*
X117861691Y-85505303D01*
X117858780Y-85499858D01*
X117825976Y-85420660D01*
X117819476Y-85399233D01*
X117802750Y-85315149D01*
X117800556Y-85292869D01*
X117800556Y-85274450D01*
X117799954Y-85262199D01*
X117798148Y-85243862D01*
X117798148Y-84756139D01*
X117799954Y-84737801D01*
X117800556Y-84725550D01*
X117800556Y-84707131D01*
X117802750Y-84684851D01*
X117819476Y-84600767D01*
X117825976Y-84579340D01*
X117858780Y-84500142D01*
X117861691Y-84494697D01*
X117861693Y-84494691D01*
X117866429Y-84485831D01*
X117866432Y-84485827D01*
X117869340Y-84480386D01*
X117916971Y-84409101D01*
X117931172Y-84391796D01*
X117991796Y-84331172D01*
X118009101Y-84316971D01*
X118080386Y-84269340D01*
X118085827Y-84266432D01*
X118085831Y-84266429D01*
X118094691Y-84261693D01*
X118094697Y-84261691D01*
X118100142Y-84258780D01*
X118179340Y-84225976D01*
X118200767Y-84219476D01*
X118284851Y-84202750D01*
X118307131Y-84200556D01*
X118325550Y-84200556D01*
X118337801Y-84199954D01*
X118356139Y-84198148D01*
X118843860Y-84198148D01*
X118859999Y-84199737D01*
G37*
G36*
X135101000Y-85451000D02*
G01*
X131199000Y-85451000D01*
X131199000Y-82849000D01*
X135101000Y-82849000D01*
X135101000Y-85451000D01*
G37*
G36*
X148801000Y-85451000D02*
G01*
X144899000Y-85451000D01*
X144899000Y-82849000D01*
X148801000Y-82849000D01*
X148801000Y-85451000D01*
G37*
G36*
X154501000Y-85401000D02*
G01*
X153499000Y-85401000D01*
X153499000Y-84499000D01*
X154501000Y-84499000D01*
X154501000Y-85401000D01*
G37*
G36*
X89031560Y-82879064D02*
G01*
X89183027Y-82909193D01*
X89397045Y-82997842D01*
X89397046Y-82997843D01*
X89589654Y-83126539D01*
X89753461Y-83290346D01*
X89839258Y-83418751D01*
X89882158Y-83482955D01*
X89970807Y-83696973D01*
X90016000Y-83924174D01*
X90016000Y-84155826D01*
X89970807Y-84383027D01*
X89882158Y-84597045D01*
X89882157Y-84597046D01*
X89753461Y-84789654D01*
X89589654Y-84953461D01*
X89461249Y-85039258D01*
X89397045Y-85082158D01*
X89183027Y-85170807D01*
X89031560Y-85200936D01*
X88955827Y-85216000D01*
X88724173Y-85216000D01*
X88648440Y-85200936D01*
X88496973Y-85170807D01*
X88282955Y-85082158D01*
X88218751Y-85039258D01*
X88090346Y-84953461D01*
X87926539Y-84789654D01*
X87797843Y-84597046D01*
X87797842Y-84597045D01*
X87709193Y-84383027D01*
X87664000Y-84155826D01*
X87664000Y-83924174D01*
X87709193Y-83696973D01*
X87797842Y-83482955D01*
X87840742Y-83418751D01*
X87926539Y-83290346D01*
X88090346Y-83126539D01*
X88282954Y-82997843D01*
X88282955Y-82997842D01*
X88496973Y-82909193D01*
X88648440Y-82879064D01*
X88724173Y-82864000D01*
X88955827Y-82864000D01*
X89031560Y-82879064D01*
G37*
G36*
X152501000Y-84451000D02*
G01*
X151499000Y-84451000D01*
X151499000Y-83549000D01*
X152501000Y-83549000D01*
X152501000Y-84451000D01*
G37*
G36*
X154501000Y-83501000D02*
G01*
X153499000Y-83501000D01*
X153499000Y-82599000D01*
X154501000Y-82599000D01*
X154501000Y-83501000D01*
G37*
G36*
X109351560Y-80339064D02*
G01*
X109503027Y-80369193D01*
X109717045Y-80457842D01*
X109717046Y-80457843D01*
X109909654Y-80586539D01*
X110073461Y-80750346D01*
X110159258Y-80878751D01*
X110202158Y-80942955D01*
X110290807Y-81156973D01*
X110336000Y-81384174D01*
X110336000Y-81615826D01*
X110290807Y-81843027D01*
X110202158Y-82057045D01*
X110202157Y-82057046D01*
X110073461Y-82249654D01*
X109909654Y-82413461D01*
X109781249Y-82499258D01*
X109717045Y-82542158D01*
X109503027Y-82630807D01*
X109351560Y-82660936D01*
X109275827Y-82676000D01*
X109044173Y-82676000D01*
X108968440Y-82660936D01*
X108816973Y-82630807D01*
X108602955Y-82542158D01*
X108538751Y-82499258D01*
X108410346Y-82413461D01*
X108246539Y-82249654D01*
X108117843Y-82057046D01*
X108117842Y-82057045D01*
X108029193Y-81843027D01*
X107984000Y-81615826D01*
X107984000Y-81384174D01*
X108029193Y-81156973D01*
X108117842Y-80942955D01*
X108160742Y-80878751D01*
X108246539Y-80750346D01*
X108410346Y-80586539D01*
X108602954Y-80457843D01*
X108602955Y-80457842D01*
X108816973Y-80369193D01*
X108968440Y-80339064D01*
X109044173Y-80324000D01*
X109275827Y-80324000D01*
X109351560Y-80339064D01*
G37*
G36*
X125801000Y-81921000D02*
G01*
X121699000Y-81921000D01*
X121699000Y-80619000D01*
X125801000Y-80619000D01*
X125801000Y-81921000D01*
G37*
G36*
X116301000Y-81921000D02*
G01*
X112199000Y-81921000D01*
X112199000Y-80619000D01*
X116301000Y-80619000D01*
X116301000Y-81921000D01*
G37*
G36*
X148801000Y-81151000D02*
G01*
X144899000Y-81151000D01*
X144899000Y-78549000D01*
X148801000Y-78549000D01*
X148801000Y-81151000D01*
G37*
G36*
X135101000Y-81151000D02*
G01*
X131199000Y-81151000D01*
X131199000Y-78549000D01*
X135101000Y-78549000D01*
X135101000Y-81151000D01*
G37*
G36*
X90016000Y-80136000D02*
G01*
X87664000Y-80136000D01*
X87664000Y-77784000D01*
X90016000Y-77784000D01*
X90016000Y-80136000D01*
G37*
G36*
X151766242Y-78353404D02*
G01*
X151803337Y-78364657D01*
X151837515Y-78382925D01*
X151867481Y-78407519D01*
X151892075Y-78437485D01*
X151910343Y-78471663D01*
X151921596Y-78508758D01*
X151926000Y-78553474D01*
X151926000Y-79446526D01*
X151921596Y-79491242D01*
X151910343Y-79528337D01*
X151892075Y-79562515D01*
X151867481Y-79592481D01*
X151837515Y-79617075D01*
X151803337Y-79635343D01*
X151766242Y-79646596D01*
X151721526Y-79651000D01*
X150278474Y-79651000D01*
X150233758Y-79646596D01*
X150196663Y-79635343D01*
X150162485Y-79617075D01*
X150132519Y-79592481D01*
X150107925Y-79562515D01*
X150089657Y-79528337D01*
X150078404Y-79491242D01*
X150074000Y-79446526D01*
X150074000Y-78553474D01*
X150078404Y-78508758D01*
X150089657Y-78471663D01*
X150107925Y-78437485D01*
X150132519Y-78407519D01*
X150162485Y-78382925D01*
X150196663Y-78364657D01*
X150233758Y-78353404D01*
X150278474Y-78349000D01*
X151721526Y-78349000D01*
X151766242Y-78353404D01*
G37*
G36*
X116301000Y-79381000D02*
G01*
X112199000Y-79381000D01*
X112199000Y-78079000D01*
X116301000Y-78079000D01*
X116301000Y-79381000D01*
G37*
G36*
X125801000Y-79381000D02*
G01*
X121699000Y-79381000D01*
X121699000Y-78079000D01*
X125801000Y-78079000D01*
X125801000Y-79381000D01*
G37*
G36*
X145001000Y-78051000D02*
G01*
X141499000Y-78051000D01*
X141499000Y-75649000D01*
X145001000Y-75649000D01*
X145001000Y-78051000D01*
G37*
G36*
X151338855Y-76352140D02*
G01*
X151402618Y-76358420D01*
X151493404Y-76385960D01*
X151525336Y-76395646D01*
X151638425Y-76456094D01*
X151737554Y-76537446D01*
X151818906Y-76636575D01*
X151879354Y-76749664D01*
X151879355Y-76749668D01*
X151916580Y-76872382D01*
X151929149Y-77000000D01*
X151916580Y-77127618D01*
X151889040Y-77218404D01*
X151879354Y-77250336D01*
X151818906Y-77363425D01*
X151737554Y-77462554D01*
X151638425Y-77543906D01*
X151525336Y-77604354D01*
X151493404Y-77614040D01*
X151402618Y-77641580D01*
X151338855Y-77647860D01*
X151306974Y-77651000D01*
X150693026Y-77651000D01*
X150661145Y-77647860D01*
X150597382Y-77641580D01*
X150506596Y-77614040D01*
X150474664Y-77604354D01*
X150361575Y-77543906D01*
X150262446Y-77462554D01*
X150181094Y-77363425D01*
X150120646Y-77250336D01*
X150110960Y-77218404D01*
X150083420Y-77127618D01*
X150070851Y-77000000D01*
X150083420Y-76872382D01*
X150120645Y-76749668D01*
X150120646Y-76749664D01*
X150181094Y-76636575D01*
X150262446Y-76537446D01*
X150361575Y-76456094D01*
X150474664Y-76395646D01*
X150506596Y-76385960D01*
X150597382Y-76358420D01*
X150661145Y-76352140D01*
X150693026Y-76349000D01*
X151306974Y-76349000D01*
X151338855Y-76352140D01*
G37*
G36*
X118859999Y-74199737D02*
G01*
X118869608Y-74202652D01*
X118878472Y-74207390D01*
X118886237Y-74213763D01*
X118896448Y-74226206D01*
X118903378Y-74236575D01*
X118920705Y-74253902D01*
X118941080Y-74267515D01*
X118963720Y-74276891D01*
X118987753Y-74281671D01*
X119012257Y-74281670D01*
X119036290Y-74276888D01*
X119058929Y-74267510D01*
X119079302Y-74253895D01*
X119096629Y-74236568D01*
X119103558Y-74226198D01*
X119113763Y-74213763D01*
X119121528Y-74207390D01*
X119130392Y-74202652D01*
X119140001Y-74199737D01*
X119156140Y-74198148D01*
X119643861Y-74198148D01*
X119662199Y-74199954D01*
X119674450Y-74200556D01*
X119692869Y-74200556D01*
X119715149Y-74202750D01*
X119799233Y-74219476D01*
X119820660Y-74225976D01*
X119899858Y-74258780D01*
X119905303Y-74261691D01*
X119905309Y-74261693D01*
X119914169Y-74266429D01*
X119914173Y-74266432D01*
X119919614Y-74269340D01*
X119990899Y-74316971D01*
X120008204Y-74331172D01*
X120068828Y-74391796D01*
X120083029Y-74409101D01*
X120130660Y-74480386D01*
X120133568Y-74485827D01*
X120133571Y-74485831D01*
X120138307Y-74494691D01*
X120138309Y-74494697D01*
X120141220Y-74500142D01*
X120174024Y-74579340D01*
X120180524Y-74600767D01*
X120197250Y-74684851D01*
X120199444Y-74707131D01*
X120199444Y-74725550D01*
X120200046Y-74737801D01*
X120201852Y-74756139D01*
X120201852Y-75243862D01*
X120200046Y-75262199D01*
X120199444Y-75274450D01*
X120199444Y-75292869D01*
X120197250Y-75315149D01*
X120180524Y-75399233D01*
X120174024Y-75420660D01*
X120141220Y-75499858D01*
X120138309Y-75505303D01*
X120138307Y-75505309D01*
X120133571Y-75514169D01*
X120133568Y-75514173D01*
X120130660Y-75519614D01*
X120083029Y-75590899D01*
X120068828Y-75608204D01*
X120008204Y-75668828D01*
X119990899Y-75683029D01*
X119919614Y-75730660D01*
X119914173Y-75733568D01*
X119914169Y-75733571D01*
X119905309Y-75738307D01*
X119905303Y-75738309D01*
X119899858Y-75741220D01*
X119820660Y-75774024D01*
X119799233Y-75780524D01*
X119715149Y-75797250D01*
X119692869Y-75799444D01*
X119674450Y-75799444D01*
X119662199Y-75800046D01*
X119643862Y-75801852D01*
X119156140Y-75801852D01*
X119140001Y-75800263D01*
X119130392Y-75797348D01*
X119121528Y-75792610D01*
X119113763Y-75786237D01*
X119103552Y-75773794D01*
X119096622Y-75763425D01*
X119079295Y-75746098D01*
X119058920Y-75732485D01*
X119036280Y-75723109D01*
X119012247Y-75718329D01*
X118987743Y-75718330D01*
X118963710Y-75723112D01*
X118941071Y-75732490D01*
X118920698Y-75746105D01*
X118903371Y-75763432D01*
X118896442Y-75773802D01*
X118886237Y-75786237D01*
X118878472Y-75792610D01*
X118869608Y-75797348D01*
X118859999Y-75800263D01*
X118843860Y-75801852D01*
X118356138Y-75801852D01*
X118337801Y-75800046D01*
X118325550Y-75799444D01*
X118307131Y-75799444D01*
X118284851Y-75797250D01*
X118200767Y-75780524D01*
X118179340Y-75774024D01*
X118100142Y-75741220D01*
X118094697Y-75738309D01*
X118094691Y-75738307D01*
X118085831Y-75733571D01*
X118085827Y-75733568D01*
X118080386Y-75730660D01*
X118009101Y-75683029D01*
X117991796Y-75668828D01*
X117931172Y-75608204D01*
X117916971Y-75590899D01*
X117869340Y-75519614D01*
X117866432Y-75514173D01*
X117866429Y-75514169D01*
X117861693Y-75505309D01*
X117861691Y-75505303D01*
X117858780Y-75499858D01*
X117825976Y-75420660D01*
X117819476Y-75399233D01*
X117802750Y-75315149D01*
X117800556Y-75292869D01*
X117800556Y-75274450D01*
X117799954Y-75262199D01*
X117798148Y-75243862D01*
X117798148Y-74756139D01*
X117799954Y-74737801D01*
X117800556Y-74725550D01*
X117800556Y-74707131D01*
X117802750Y-74684851D01*
X117819476Y-74600767D01*
X117825976Y-74579340D01*
X117858780Y-74500142D01*
X117861691Y-74494697D01*
X117861693Y-74494691D01*
X117866429Y-74485831D01*
X117866432Y-74485827D01*
X117869340Y-74480386D01*
X117916971Y-74409101D01*
X117931172Y-74391796D01*
X117991796Y-74331172D01*
X118009101Y-74316971D01*
X118080386Y-74269340D01*
X118085827Y-74266432D01*
X118085831Y-74266429D01*
X118094691Y-74261693D01*
X118094697Y-74261691D01*
X118100142Y-74258780D01*
X118179340Y-74225976D01*
X118200767Y-74219476D01*
X118284851Y-74202750D01*
X118307131Y-74200556D01*
X118325550Y-74200556D01*
X118337801Y-74199954D01*
X118356139Y-74198148D01*
X118843860Y-74198148D01*
X118859999Y-74199737D01*
G37*
G36*
X145801000Y-74276000D02*
G01*
X145099000Y-74276000D01*
X145099000Y-73724000D01*
X145801000Y-73724000D01*
X145801000Y-74276000D01*
G37*
G36*
X147901000Y-74276000D02*
G01*
X147199000Y-74276000D01*
X147199000Y-73724000D01*
X147901000Y-73724000D01*
X147901000Y-74276000D01*
G37*
G36*
X109346727Y-70178103D02*
G01*
X109503027Y-70209193D01*
X109717045Y-70297842D01*
X109778120Y-70338651D01*
X109909654Y-70426539D01*
X110073461Y-70590346D01*
X110117770Y-70656660D01*
X110202158Y-70782955D01*
X110290807Y-70996973D01*
X110336000Y-71224174D01*
X110336000Y-71455826D01*
X110290807Y-71683027D01*
X110202158Y-71897045D01*
X110202157Y-71897046D01*
X110073461Y-72089654D01*
X109909654Y-72253461D01*
X109781249Y-72339258D01*
X109717045Y-72382158D01*
X109503027Y-72470807D01*
X109351560Y-72500936D01*
X109275827Y-72516000D01*
X109044173Y-72516000D01*
X108968440Y-72500936D01*
X108816973Y-72470807D01*
X108602955Y-72382158D01*
X108538751Y-72339258D01*
X108410346Y-72253461D01*
X108246539Y-72089654D01*
X108117843Y-71897046D01*
X108117842Y-71897045D01*
X108029193Y-71683027D01*
X107984000Y-71455826D01*
X107984000Y-71224174D01*
X108029193Y-70996973D01*
X108117842Y-70782955D01*
X108202230Y-70656660D01*
X108246539Y-70590346D01*
X108410346Y-70426539D01*
X108541880Y-70338651D01*
X108602955Y-70297842D01*
X108816973Y-70209193D01*
X108973273Y-70178103D01*
X109044173Y-70164000D01*
X109275827Y-70164000D01*
X109346727Y-70178103D01*
G37*
G36*
X89026727Y-70178103D02*
G01*
X89183027Y-70209193D01*
X89397045Y-70297842D01*
X89458120Y-70338651D01*
X89589654Y-70426539D01*
X89753461Y-70590346D01*
X89797770Y-70656660D01*
X89882158Y-70782955D01*
X89970807Y-70996973D01*
X90016000Y-71224174D01*
X90016000Y-71455826D01*
X89970807Y-71683027D01*
X89882158Y-71897045D01*
X89882157Y-71897046D01*
X89753461Y-72089654D01*
X89589654Y-72253461D01*
X89461249Y-72339258D01*
X89397045Y-72382158D01*
X89183027Y-72470807D01*
X89031560Y-72500936D01*
X88955827Y-72516000D01*
X88724173Y-72516000D01*
X88648440Y-72500936D01*
X88496973Y-72470807D01*
X88282955Y-72382158D01*
X88218751Y-72339258D01*
X88090346Y-72253461D01*
X87926539Y-72089654D01*
X87797843Y-71897046D01*
X87797842Y-71897045D01*
X87709193Y-71683027D01*
X87664000Y-71455826D01*
X87664000Y-71224174D01*
X87709193Y-70996973D01*
X87797842Y-70782955D01*
X87882230Y-70656660D01*
X87926539Y-70590346D01*
X88090346Y-70426539D01*
X88221880Y-70338651D01*
X88282955Y-70297842D01*
X88496973Y-70209193D01*
X88653273Y-70178103D01*
X88724173Y-70164000D01*
X88955827Y-70164000D01*
X89026727Y-70178103D01*
G37*
G36*
X115225562Y-70728181D02*
G01*
X115260481Y-70738774D01*
X115292663Y-70755976D01*
X115320873Y-70779127D01*
X115344024Y-70807337D01*
X115361226Y-70839519D01*
X115371819Y-70874438D01*
X115376000Y-70916895D01*
X115376000Y-72058105D01*
X115371819Y-72100562D01*
X115361226Y-72135481D01*
X115344024Y-72167663D01*
X115320873Y-72195873D01*
X115292663Y-72219024D01*
X115260481Y-72236226D01*
X115225562Y-72246819D01*
X115183105Y-72251000D01*
X112816895Y-72251000D01*
X112774438Y-72246819D01*
X112739519Y-72236226D01*
X112707337Y-72219024D01*
X112679127Y-72195873D01*
X112655976Y-72167663D01*
X112638774Y-72135481D01*
X112628181Y-72100562D01*
X112624000Y-72058105D01*
X112624000Y-70916895D01*
X112628181Y-70874438D01*
X112638774Y-70839519D01*
X112655976Y-70807337D01*
X112679127Y-70779127D01*
X112707337Y-70755976D01*
X112739519Y-70738774D01*
X112774438Y-70728181D01*
X112816895Y-70724000D01*
X115183105Y-70724000D01*
X115225562Y-70728181D01*
G37*
G36*
X151219059Y-70517860D02*
G01*
X151355732Y-70574472D01*
X151478735Y-70656660D01*
X151583340Y-70761265D01*
X151665528Y-70884268D01*
X151722140Y-71020941D01*
X151751000Y-71166033D01*
X151751000Y-71313967D01*
X151722140Y-71459059D01*
X151665528Y-71595732D01*
X151583340Y-71718735D01*
X151478735Y-71823340D01*
X151355732Y-71905528D01*
X151355731Y-71905529D01*
X151355730Y-71905529D01*
X151219059Y-71962140D01*
X151073968Y-71991000D01*
X150926032Y-71991000D01*
X150780941Y-71962140D01*
X150644270Y-71905529D01*
X150644269Y-71905529D01*
X150644268Y-71905528D01*
X150521265Y-71823340D01*
X150416660Y-71718735D01*
X150334472Y-71595732D01*
X150277860Y-71459059D01*
X150249000Y-71313967D01*
X150249000Y-71166033D01*
X150277860Y-71020941D01*
X150334472Y-70884268D01*
X150416660Y-70761265D01*
X150521265Y-70656660D01*
X150644268Y-70574472D01*
X150780941Y-70517860D01*
X150926032Y-70489000D01*
X151073968Y-70489000D01*
X151219059Y-70517860D01*
G37*
G36*
X147078820Y-70178103D02*
G01*
X147112985Y-70188467D01*
X147144464Y-70205293D01*
X147172060Y-70227940D01*
X147194707Y-70255536D01*
X147211533Y-70287015D01*
X147221897Y-70321180D01*
X147226000Y-70362842D01*
X147226000Y-71612158D01*
X147221897Y-71653820D01*
X147211533Y-71687985D01*
X147194707Y-71719464D01*
X147172060Y-71747060D01*
X147144464Y-71769707D01*
X147112985Y-71786533D01*
X147078820Y-71796897D01*
X147037158Y-71801000D01*
X143962842Y-71801000D01*
X143921180Y-71796897D01*
X143887015Y-71786533D01*
X143855536Y-71769707D01*
X143827940Y-71747060D01*
X143805293Y-71719464D01*
X143788467Y-71687985D01*
X143778103Y-71653820D01*
X143774000Y-71612158D01*
X143774000Y-70362842D01*
X143778103Y-70321180D01*
X143788467Y-70287015D01*
X143805293Y-70255536D01*
X143827940Y-70227940D01*
X143855536Y-70205293D01*
X143887015Y-70188467D01*
X143921180Y-70178103D01*
X143962842Y-70174000D01*
X147037158Y-70174000D01*
X147078820Y-70178103D01*
G37*
G36*
X115225562Y-67753181D02*
G01*
X115260481Y-67763774D01*
X115292663Y-67780976D01*
X115320873Y-67804127D01*
X115344024Y-67832337D01*
X115361226Y-67864519D01*
X115371819Y-67899438D01*
X115376000Y-67941895D01*
X115376000Y-69083105D01*
X115371819Y-69125562D01*
X115361226Y-69160481D01*
X115344024Y-69192663D01*
X115320873Y-69220873D01*
X115292663Y-69244024D01*
X115260481Y-69261226D01*
X115225562Y-69271819D01*
X115183105Y-69276000D01*
X112816895Y-69276000D01*
X112774438Y-69271819D01*
X112739519Y-69261226D01*
X112707337Y-69244024D01*
X112679127Y-69220873D01*
X112655976Y-69192663D01*
X112638774Y-69160481D01*
X112628181Y-69125562D01*
X112624000Y-69083105D01*
X112624000Y-67941895D01*
X112628181Y-67899438D01*
X112638774Y-67864519D01*
X112655976Y-67832337D01*
X112679127Y-67804127D01*
X112707337Y-67780976D01*
X112739519Y-67763774D01*
X112774438Y-67753181D01*
X112816895Y-67749000D01*
X115183105Y-67749000D01*
X115225562Y-67753181D01*
G37*
G36*
X151219059Y-65437860D02*
G01*
X151355732Y-65494472D01*
X151478735Y-65576660D01*
X151583340Y-65681265D01*
X151665528Y-65804268D01*
X151722140Y-65940941D01*
X151751000Y-66086033D01*
X151751000Y-66233967D01*
X151722140Y-66379059D01*
X151665528Y-66515732D01*
X151583340Y-66638735D01*
X151478735Y-66743340D01*
X151355732Y-66825528D01*
X151355731Y-66825529D01*
X151355730Y-66825529D01*
X151219059Y-66882140D01*
X151073968Y-66911000D01*
X150926032Y-66911000D01*
X150780941Y-66882140D01*
X150644270Y-66825529D01*
X150644269Y-66825529D01*
X150644268Y-66825528D01*
X150521265Y-66743340D01*
X150416660Y-66638735D01*
X150334472Y-66515732D01*
X150277860Y-66379059D01*
X150249000Y-66233967D01*
X150249000Y-66086033D01*
X150277860Y-65940941D01*
X150334472Y-65804268D01*
X150416660Y-65681265D01*
X150521265Y-65576660D01*
X150644268Y-65494472D01*
X150780941Y-65437860D01*
X150926032Y-65409000D01*
X151073968Y-65409000D01*
X151219059Y-65437860D01*
G37*
G36*
X135248228Y-64181703D02*
G01*
X135403100Y-64245853D01*
X135542481Y-64338985D01*
X135661015Y-64457519D01*
X135754147Y-64596900D01*
X135818297Y-64751772D01*
X135851000Y-64916184D01*
X135851000Y-65083816D01*
X135818297Y-65248228D01*
X135754147Y-65403100D01*
X135661015Y-65542481D01*
X135542481Y-65661015D01*
X135403100Y-65754147D01*
X135248228Y-65818297D01*
X135083816Y-65851000D01*
X134916184Y-65851000D01*
X134751772Y-65818297D01*
X134596900Y-65754147D01*
X134457519Y-65661015D01*
X134338985Y-65542481D01*
X134245853Y-65403100D01*
X134181703Y-65248228D01*
X134149000Y-65083816D01*
X134149000Y-64916184D01*
X134181703Y-64751772D01*
X134245853Y-64596900D01*
X134338985Y-64457519D01*
X134457519Y-64338985D01*
X134596900Y-64245853D01*
X134751772Y-64181703D01*
X134916184Y-64149000D01*
X135083816Y-64149000D01*
X135248228Y-64181703D01*
G37*
G36*
X130248228Y-64181703D02*
G01*
X130403100Y-64245853D01*
X130542481Y-64338985D01*
X130661015Y-64457519D01*
X130754147Y-64596900D01*
X130818297Y-64751772D01*
X130851000Y-64916184D01*
X130851000Y-65083816D01*
X130818297Y-65248228D01*
X130754147Y-65403100D01*
X130661015Y-65542481D01*
X130542481Y-65661015D01*
X130403100Y-65754147D01*
X130248228Y-65818297D01*
X130083816Y-65851000D01*
X129916184Y-65851000D01*
X129751772Y-65818297D01*
X129596900Y-65754147D01*
X129457519Y-65661015D01*
X129338985Y-65542481D01*
X129245853Y-65403100D01*
X129181703Y-65248228D01*
X129149000Y-65083816D01*
X129149000Y-64916184D01*
X129181703Y-64751772D01*
X129245853Y-64596900D01*
X129338985Y-64457519D01*
X129457519Y-64338985D01*
X129596900Y-64245853D01*
X129751772Y-64181703D01*
X129916184Y-64149000D01*
X130083816Y-64149000D01*
X130248228Y-64181703D01*
G37*
G36*
X147078820Y-64203103D02*
G01*
X147112985Y-64213467D01*
X147144464Y-64230293D01*
X147172060Y-64252940D01*
X147194707Y-64280536D01*
X147211533Y-64312015D01*
X147221897Y-64346180D01*
X147226000Y-64387842D01*
X147226000Y-65637158D01*
X147221897Y-65678820D01*
X147211533Y-65712985D01*
X147194707Y-65744464D01*
X147172060Y-65772060D01*
X147144464Y-65794707D01*
X147112985Y-65811533D01*
X147078820Y-65821897D01*
X147037158Y-65826000D01*
X143962842Y-65826000D01*
X143921180Y-65821897D01*
X143887015Y-65811533D01*
X143855536Y-65794707D01*
X143827940Y-65772060D01*
X143805293Y-65744464D01*
X143788467Y-65712985D01*
X143778103Y-65678820D01*
X143774000Y-65637158D01*
X143774000Y-64387842D01*
X143778103Y-64346180D01*
X143788467Y-64312015D01*
X143805293Y-64280536D01*
X143827940Y-64252940D01*
X143855536Y-64230293D01*
X143887015Y-64213467D01*
X143921180Y-64203103D01*
X143962842Y-64199000D01*
X147037158Y-64199000D01*
X147078820Y-64203103D01*
G37*
G36*
X147901000Y-62276000D02*
G01*
X147199000Y-62276000D01*
X147199000Y-61724000D01*
X147901000Y-61724000D01*
X147901000Y-62276000D01*
G37*
G36*
X145801000Y-62276000D02*
G01*
X145099000Y-62276000D01*
X145099000Y-61724000D01*
X145801000Y-61724000D01*
X145801000Y-62276000D01*
G37*
G36*
X151219059Y-60357860D02*
G01*
X151355732Y-60414472D01*
X151478735Y-60496660D01*
X151583340Y-60601265D01*
X151665528Y-60724268D01*
X151722140Y-60860941D01*
X151751000Y-61006033D01*
X151751000Y-61153967D01*
X151722140Y-61299059D01*
X151665528Y-61435732D01*
X151583340Y-61558735D01*
X151478735Y-61663340D01*
X151355732Y-61745528D01*
X151355731Y-61745529D01*
X151355730Y-61745529D01*
X151219059Y-61802140D01*
X151073968Y-61831000D01*
X150926032Y-61831000D01*
X150780941Y-61802140D01*
X150644270Y-61745529D01*
X150644269Y-61745529D01*
X150644268Y-61745528D01*
X150521265Y-61663340D01*
X150416660Y-61558735D01*
X150334472Y-61435732D01*
X150277860Y-61299059D01*
X150249000Y-61153967D01*
X150249000Y-61006033D01*
X150277860Y-60860941D01*
X150334472Y-60724268D01*
X150416660Y-60601265D01*
X150521265Y-60496660D01*
X150644268Y-60414472D01*
X150780941Y-60357860D01*
X150926032Y-60329000D01*
X151073968Y-60329000D01*
X151219059Y-60357860D01*
G37*
G36*
X151751000Y-56751000D02*
G01*
X150249000Y-56751000D01*
X150249000Y-55249000D01*
X151751000Y-55249000D01*
X151751000Y-56751000D01*
G37*
M02*
