G04 #@! TF.GenerationSoftware,KiCad,Pcbnew,(5.1.5-0)*
G04 #@! TF.CreationDate,2021-01-10T16:54:21-07:00*
G04 #@! TF.ProjectId,power_cui,706f7765-725f-4637-9569-2e6b69636164,rev?*
G04 #@! TF.SameCoordinates,Original*
G04 #@! TF.FileFunction,Copper,L2,Bot*
G04 #@! TF.FilePolarity,Positive*
%FSLAX46Y46*%
G04 Gerber Fmt 4.6, Leading zero omitted, Abs format (unit mm)*
G04 Created by KiCad (PCBNEW (5.1.5-0)) date 2021-01-10 16:54:21*
%MOMM*%
%LPD*%
G04 APERTURE LIST*
%ADD10O,2.000000X4.000000*%
%ADD11O,4.000000X2.000000*%
%ADD12O,1.750000X1.200000*%
%ADD13C,0.100000*%
%ADD14R,1.400000X1.400000*%
%ADD15C,1.400000*%
%ADD16C,1.600000*%
%ADD17R,2.250000X2.250000*%
%ADD18C,2.250000*%
%ADD19C,2.000000*%
%ADD20C,0.800000*%
%ADD21C,1.000000*%
%ADD22C,0.250000*%
%ADD23C,0.254000*%
G04 APERTURE END LIST*
D10*
X100000000Y-129000000D03*
D11*
X97000000Y-133800000D03*
D10*
X93900000Y-129000000D03*
D12*
X151000000Y-90000000D03*
G04 #@! TA.AperFunction,ComponentPad*
D13*
G36*
X151649505Y-91401204D02*
G01*
X151673773Y-91404804D01*
X151697572Y-91410765D01*
X151720671Y-91419030D01*
X151742850Y-91429520D01*
X151763893Y-91442132D01*
X151783599Y-91456747D01*
X151801777Y-91473223D01*
X151818253Y-91491401D01*
X151832868Y-91511107D01*
X151845480Y-91532150D01*
X151855970Y-91554329D01*
X151864235Y-91577428D01*
X151870196Y-91601227D01*
X151873796Y-91625495D01*
X151875000Y-91649999D01*
X151875000Y-92350001D01*
X151873796Y-92374505D01*
X151870196Y-92398773D01*
X151864235Y-92422572D01*
X151855970Y-92445671D01*
X151845480Y-92467850D01*
X151832868Y-92488893D01*
X151818253Y-92508599D01*
X151801777Y-92526777D01*
X151783599Y-92543253D01*
X151763893Y-92557868D01*
X151742850Y-92570480D01*
X151720671Y-92580970D01*
X151697572Y-92589235D01*
X151673773Y-92595196D01*
X151649505Y-92598796D01*
X151625001Y-92600000D01*
X150374999Y-92600000D01*
X150350495Y-92598796D01*
X150326227Y-92595196D01*
X150302428Y-92589235D01*
X150279329Y-92580970D01*
X150257150Y-92570480D01*
X150236107Y-92557868D01*
X150216401Y-92543253D01*
X150198223Y-92526777D01*
X150181747Y-92508599D01*
X150167132Y-92488893D01*
X150154520Y-92467850D01*
X150144030Y-92445671D01*
X150135765Y-92422572D01*
X150129804Y-92398773D01*
X150126204Y-92374505D01*
X150125000Y-92350001D01*
X150125000Y-91649999D01*
X150126204Y-91625495D01*
X150129804Y-91601227D01*
X150135765Y-91577428D01*
X150144030Y-91554329D01*
X150154520Y-91532150D01*
X150167132Y-91511107D01*
X150181747Y-91491401D01*
X150198223Y-91473223D01*
X150216401Y-91456747D01*
X150236107Y-91442132D01*
X150257150Y-91429520D01*
X150279329Y-91419030D01*
X150302428Y-91410765D01*
X150326227Y-91404804D01*
X150350495Y-91401204D01*
X150374999Y-91400000D01*
X151625001Y-91400000D01*
X151649505Y-91401204D01*
G37*
G04 #@! TD.AperFunction*
D14*
X151000000Y-56000000D03*
D15*
X151000000Y-61080000D03*
X151000000Y-66160000D03*
X151000000Y-71240000D03*
D14*
X152000000Y-143000000D03*
D15*
X152000000Y-137920000D03*
X152000000Y-132840000D03*
X152000000Y-127760000D03*
D12*
X152000000Y-122000000D03*
G04 #@! TA.AperFunction,ComponentPad*
D13*
G36*
X152649505Y-119401204D02*
G01*
X152673773Y-119404804D01*
X152697572Y-119410765D01*
X152720671Y-119419030D01*
X152742850Y-119429520D01*
X152763893Y-119442132D01*
X152783599Y-119456747D01*
X152801777Y-119473223D01*
X152818253Y-119491401D01*
X152832868Y-119511107D01*
X152845480Y-119532150D01*
X152855970Y-119554329D01*
X152864235Y-119577428D01*
X152870196Y-119601227D01*
X152873796Y-119625495D01*
X152875000Y-119649999D01*
X152875000Y-120350001D01*
X152873796Y-120374505D01*
X152870196Y-120398773D01*
X152864235Y-120422572D01*
X152855970Y-120445671D01*
X152845480Y-120467850D01*
X152832868Y-120488893D01*
X152818253Y-120508599D01*
X152801777Y-120526777D01*
X152783599Y-120543253D01*
X152763893Y-120557868D01*
X152742850Y-120570480D01*
X152720671Y-120580970D01*
X152697572Y-120589235D01*
X152673773Y-120595196D01*
X152649505Y-120598796D01*
X152625001Y-120600000D01*
X151374999Y-120600000D01*
X151350495Y-120598796D01*
X151326227Y-120595196D01*
X151302428Y-120589235D01*
X151279329Y-120580970D01*
X151257150Y-120570480D01*
X151236107Y-120557868D01*
X151216401Y-120543253D01*
X151198223Y-120526777D01*
X151181747Y-120508599D01*
X151167132Y-120488893D01*
X151154520Y-120467850D01*
X151144030Y-120445671D01*
X151135765Y-120422572D01*
X151129804Y-120398773D01*
X151126204Y-120374505D01*
X151125000Y-120350001D01*
X151125000Y-119649999D01*
X151126204Y-119625495D01*
X151129804Y-119601227D01*
X151135765Y-119577428D01*
X151144030Y-119554329D01*
X151154520Y-119532150D01*
X151167132Y-119511107D01*
X151181747Y-119491401D01*
X151198223Y-119473223D01*
X151216401Y-119456747D01*
X151236107Y-119442132D01*
X151257150Y-119429520D01*
X151279329Y-119419030D01*
X151302428Y-119410765D01*
X151326227Y-119404804D01*
X151350495Y-119401204D01*
X151374999Y-119400000D01*
X152625001Y-119400000D01*
X152649505Y-119401204D01*
G37*
G04 #@! TD.AperFunction*
D12*
X151000000Y-77000000D03*
G04 #@! TA.AperFunction,ComponentPad*
D13*
G36*
X151649505Y-78401204D02*
G01*
X151673773Y-78404804D01*
X151697572Y-78410765D01*
X151720671Y-78419030D01*
X151742850Y-78429520D01*
X151763893Y-78442132D01*
X151783599Y-78456747D01*
X151801777Y-78473223D01*
X151818253Y-78491401D01*
X151832868Y-78511107D01*
X151845480Y-78532150D01*
X151855970Y-78554329D01*
X151864235Y-78577428D01*
X151870196Y-78601227D01*
X151873796Y-78625495D01*
X151875000Y-78649999D01*
X151875000Y-79350001D01*
X151873796Y-79374505D01*
X151870196Y-79398773D01*
X151864235Y-79422572D01*
X151855970Y-79445671D01*
X151845480Y-79467850D01*
X151832868Y-79488893D01*
X151818253Y-79508599D01*
X151801777Y-79526777D01*
X151783599Y-79543253D01*
X151763893Y-79557868D01*
X151742850Y-79570480D01*
X151720671Y-79580970D01*
X151697572Y-79589235D01*
X151673773Y-79595196D01*
X151649505Y-79598796D01*
X151625001Y-79600000D01*
X150374999Y-79600000D01*
X150350495Y-79598796D01*
X150326227Y-79595196D01*
X150302428Y-79589235D01*
X150279329Y-79580970D01*
X150257150Y-79570480D01*
X150236107Y-79557868D01*
X150216401Y-79543253D01*
X150198223Y-79526777D01*
X150181747Y-79508599D01*
X150167132Y-79488893D01*
X150154520Y-79467850D01*
X150144030Y-79445671D01*
X150135765Y-79422572D01*
X150129804Y-79398773D01*
X150126204Y-79374505D01*
X150125000Y-79350001D01*
X150125000Y-78649999D01*
X150126204Y-78625495D01*
X150129804Y-78601227D01*
X150135765Y-78577428D01*
X150144030Y-78554329D01*
X150154520Y-78532150D01*
X150167132Y-78511107D01*
X150181747Y-78491401D01*
X150198223Y-78473223D01*
X150216401Y-78456747D01*
X150236107Y-78442132D01*
X150257150Y-78429520D01*
X150279329Y-78419030D01*
X150302428Y-78410765D01*
X150326227Y-78404804D01*
X150350495Y-78401204D01*
X150374999Y-78400000D01*
X151625001Y-78400000D01*
X151649505Y-78401204D01*
G37*
G04 #@! TD.AperFunction*
D12*
X152000000Y-114000000D03*
G04 #@! TA.AperFunction,ComponentPad*
D13*
G36*
X152649505Y-111401204D02*
G01*
X152673773Y-111404804D01*
X152697572Y-111410765D01*
X152720671Y-111419030D01*
X152742850Y-111429520D01*
X152763893Y-111442132D01*
X152783599Y-111456747D01*
X152801777Y-111473223D01*
X152818253Y-111491401D01*
X152832868Y-111511107D01*
X152845480Y-111532150D01*
X152855970Y-111554329D01*
X152864235Y-111577428D01*
X152870196Y-111601227D01*
X152873796Y-111625495D01*
X152875000Y-111649999D01*
X152875000Y-112350001D01*
X152873796Y-112374505D01*
X152870196Y-112398773D01*
X152864235Y-112422572D01*
X152855970Y-112445671D01*
X152845480Y-112467850D01*
X152832868Y-112488893D01*
X152818253Y-112508599D01*
X152801777Y-112526777D01*
X152783599Y-112543253D01*
X152763893Y-112557868D01*
X152742850Y-112570480D01*
X152720671Y-112580970D01*
X152697572Y-112589235D01*
X152673773Y-112595196D01*
X152649505Y-112598796D01*
X152625001Y-112600000D01*
X151374999Y-112600000D01*
X151350495Y-112598796D01*
X151326227Y-112595196D01*
X151302428Y-112589235D01*
X151279329Y-112580970D01*
X151257150Y-112570480D01*
X151236107Y-112557868D01*
X151216401Y-112543253D01*
X151198223Y-112526777D01*
X151181747Y-112508599D01*
X151167132Y-112488893D01*
X151154520Y-112467850D01*
X151144030Y-112445671D01*
X151135765Y-112422572D01*
X151129804Y-112398773D01*
X151126204Y-112374505D01*
X151125000Y-112350001D01*
X151125000Y-111649999D01*
X151126204Y-111625495D01*
X151129804Y-111601227D01*
X151135765Y-111577428D01*
X151144030Y-111554329D01*
X151154520Y-111532150D01*
X151167132Y-111511107D01*
X151181747Y-111491401D01*
X151198223Y-111473223D01*
X151216401Y-111456747D01*
X151236107Y-111442132D01*
X151257150Y-111429520D01*
X151279329Y-111419030D01*
X151302428Y-111410765D01*
X151326227Y-111404804D01*
X151350495Y-111401204D01*
X151374999Y-111400000D01*
X152625001Y-111400000D01*
X152649505Y-111401204D01*
G37*
G04 #@! TD.AperFunction*
D12*
X152000000Y-100000000D03*
G04 #@! TA.AperFunction,ComponentPad*
D13*
G36*
X152649505Y-97401204D02*
G01*
X152673773Y-97404804D01*
X152697572Y-97410765D01*
X152720671Y-97419030D01*
X152742850Y-97429520D01*
X152763893Y-97442132D01*
X152783599Y-97456747D01*
X152801777Y-97473223D01*
X152818253Y-97491401D01*
X152832868Y-97511107D01*
X152845480Y-97532150D01*
X152855970Y-97554329D01*
X152864235Y-97577428D01*
X152870196Y-97601227D01*
X152873796Y-97625495D01*
X152875000Y-97649999D01*
X152875000Y-98350001D01*
X152873796Y-98374505D01*
X152870196Y-98398773D01*
X152864235Y-98422572D01*
X152855970Y-98445671D01*
X152845480Y-98467850D01*
X152832868Y-98488893D01*
X152818253Y-98508599D01*
X152801777Y-98526777D01*
X152783599Y-98543253D01*
X152763893Y-98557868D01*
X152742850Y-98570480D01*
X152720671Y-98580970D01*
X152697572Y-98589235D01*
X152673773Y-98595196D01*
X152649505Y-98598796D01*
X152625001Y-98600000D01*
X151374999Y-98600000D01*
X151350495Y-98598796D01*
X151326227Y-98595196D01*
X151302428Y-98589235D01*
X151279329Y-98580970D01*
X151257150Y-98570480D01*
X151236107Y-98557868D01*
X151216401Y-98543253D01*
X151198223Y-98526777D01*
X151181747Y-98508599D01*
X151167132Y-98488893D01*
X151154520Y-98467850D01*
X151144030Y-98445671D01*
X151135765Y-98422572D01*
X151129804Y-98398773D01*
X151126204Y-98374505D01*
X151125000Y-98350001D01*
X151125000Y-97649999D01*
X151126204Y-97625495D01*
X151129804Y-97601227D01*
X151135765Y-97577428D01*
X151144030Y-97554329D01*
X151154520Y-97532150D01*
X151167132Y-97511107D01*
X151181747Y-97491401D01*
X151198223Y-97473223D01*
X151216401Y-97456747D01*
X151236107Y-97442132D01*
X151257150Y-97429520D01*
X151279329Y-97419030D01*
X151302428Y-97410765D01*
X151326227Y-97404804D01*
X151350495Y-97401204D01*
X151374999Y-97400000D01*
X152625001Y-97400000D01*
X152649505Y-97401204D01*
G37*
G04 #@! TD.AperFunction*
D16*
X135000000Y-65000000D03*
X130000000Y-65000000D03*
X130000000Y-116000000D03*
X135000000Y-116000000D03*
D17*
X88840000Y-78960000D03*
D18*
X88840000Y-84040000D03*
X109160000Y-91660000D03*
X109160000Y-81500000D03*
X109160000Y-71340000D03*
X88840000Y-71340000D03*
D19*
X92200000Y-105900000D03*
X102200000Y-108000000D03*
D20*
X91000000Y-98000000D03*
X91000000Y-96000000D03*
X153000000Y-108000000D03*
D21*
X90965000Y-78960000D02*
X88840000Y-78960000D01*
X91000000Y-78995000D02*
X90965000Y-78960000D01*
X91000000Y-96000000D02*
X91000000Y-78995000D01*
X91000000Y-98000000D02*
X91000000Y-96000000D01*
D22*
X151699999Y-61779999D02*
X151000000Y-61080000D01*
X154649990Y-135270010D02*
X154649990Y-64729990D01*
X154649990Y-64729990D02*
X151699999Y-61779999D01*
X152000000Y-137920000D02*
X154649990Y-135270010D01*
X153399999Y-131440001D02*
X152699999Y-132140001D01*
X153399999Y-108399999D02*
X153399999Y-131440001D01*
X152699999Y-132140001D02*
X152000000Y-132840000D01*
X153000000Y-108000000D02*
X153399999Y-108399999D01*
D23*
G36*
X154340001Y-63345199D02*
G01*
X152313645Y-61318844D01*
X152335000Y-61211486D01*
X152335000Y-60948514D01*
X152283696Y-60690595D01*
X152183061Y-60447641D01*
X152036962Y-60228987D01*
X151851013Y-60043038D01*
X151632359Y-59896939D01*
X151389405Y-59796304D01*
X151131486Y-59745000D01*
X150868514Y-59745000D01*
X150610595Y-59796304D01*
X150367641Y-59896939D01*
X150148987Y-60043038D01*
X149963038Y-60228987D01*
X149816939Y-60447641D01*
X149716304Y-60690595D01*
X149665000Y-60948514D01*
X149665000Y-61211486D01*
X149716304Y-61469405D01*
X149816939Y-61712359D01*
X149963038Y-61931013D01*
X150148987Y-62116962D01*
X150367641Y-62263061D01*
X150610595Y-62363696D01*
X150868514Y-62415000D01*
X151131486Y-62415000D01*
X151238844Y-62393645D01*
X153889991Y-65044793D01*
X153889990Y-107469014D01*
X153803937Y-107340226D01*
X153659774Y-107196063D01*
X153490256Y-107082795D01*
X153301898Y-107004774D01*
X153101939Y-106965000D01*
X152898061Y-106965000D01*
X152698102Y-107004774D01*
X152509744Y-107082795D01*
X152340226Y-107196063D01*
X152196063Y-107340226D01*
X152082795Y-107509744D01*
X152004774Y-107698102D01*
X151965000Y-107898061D01*
X151965000Y-108101939D01*
X152004774Y-108301898D01*
X152082795Y-108490256D01*
X152196063Y-108659774D01*
X152340226Y-108803937D01*
X152509744Y-108917205D01*
X152639999Y-108971159D01*
X152639999Y-110763405D01*
X152625001Y-110761928D01*
X151374999Y-110761928D01*
X151201745Y-110778992D01*
X151035149Y-110829528D01*
X150881613Y-110911595D01*
X150747038Y-111022038D01*
X150636595Y-111156613D01*
X150554528Y-111310149D01*
X150503992Y-111476745D01*
X150486928Y-111649999D01*
X150486928Y-112350001D01*
X150503992Y-112523255D01*
X150554528Y-112689851D01*
X150636595Y-112843387D01*
X150747038Y-112977962D01*
X150881613Y-113088405D01*
X150886406Y-113090967D01*
X150761922Y-113216526D01*
X150627579Y-113419467D01*
X150535409Y-113644718D01*
X150531538Y-113682391D01*
X150656269Y-113873000D01*
X151873000Y-113873000D01*
X151873000Y-113853000D01*
X152127000Y-113853000D01*
X152127000Y-113873000D01*
X152147000Y-113873000D01*
X152147000Y-114127000D01*
X152127000Y-114127000D01*
X152127000Y-115235000D01*
X152402000Y-115235000D01*
X152639999Y-115186594D01*
X152639999Y-118763405D01*
X152625001Y-118761928D01*
X151374999Y-118761928D01*
X151201745Y-118778992D01*
X151035149Y-118829528D01*
X150881613Y-118911595D01*
X150747038Y-119022038D01*
X150636595Y-119156613D01*
X150554528Y-119310149D01*
X150503992Y-119476745D01*
X150486928Y-119649999D01*
X150486928Y-120350001D01*
X150503992Y-120523255D01*
X150554528Y-120689851D01*
X150636595Y-120843387D01*
X150747038Y-120977962D01*
X150881613Y-121088405D01*
X150886406Y-121090967D01*
X150761922Y-121216526D01*
X150627579Y-121419467D01*
X150535409Y-121644718D01*
X150531538Y-121682391D01*
X150656269Y-121873000D01*
X151873000Y-121873000D01*
X151873000Y-121853000D01*
X152127000Y-121853000D01*
X152127000Y-121873000D01*
X152147000Y-121873000D01*
X152147000Y-122127000D01*
X152127000Y-122127000D01*
X152127000Y-123235000D01*
X152402000Y-123235000D01*
X152640000Y-123186594D01*
X152640000Y-126582044D01*
X152632359Y-126576939D01*
X152389405Y-126476304D01*
X152131486Y-126425000D01*
X151868514Y-126425000D01*
X151610595Y-126476304D01*
X151367641Y-126576939D01*
X151148987Y-126723038D01*
X150963038Y-126908987D01*
X150816939Y-127127641D01*
X150716304Y-127370595D01*
X150665000Y-127628514D01*
X150665000Y-127891486D01*
X150716304Y-128149405D01*
X150816939Y-128392359D01*
X150963038Y-128611013D01*
X151148987Y-128796962D01*
X151367641Y-128943061D01*
X151610595Y-129043696D01*
X151868514Y-129095000D01*
X152131486Y-129095000D01*
X152389405Y-129043696D01*
X152632359Y-128943061D01*
X152640000Y-128937956D01*
X152640000Y-131125198D01*
X152238844Y-131526355D01*
X152131486Y-131505000D01*
X151868514Y-131505000D01*
X151610595Y-131556304D01*
X151367641Y-131656939D01*
X151148987Y-131803038D01*
X150963038Y-131988987D01*
X150816939Y-132207641D01*
X150716304Y-132450595D01*
X150665000Y-132708514D01*
X150665000Y-132971486D01*
X150716304Y-133229405D01*
X150816939Y-133472359D01*
X150963038Y-133691013D01*
X151148987Y-133876962D01*
X151367641Y-134023061D01*
X151610595Y-134123696D01*
X151868514Y-134175000D01*
X152131486Y-134175000D01*
X152389405Y-134123696D01*
X152632359Y-134023061D01*
X152851013Y-133876962D01*
X153036962Y-133691013D01*
X153183061Y-133472359D01*
X153283696Y-133229405D01*
X153335000Y-132971486D01*
X153335000Y-132708514D01*
X153313645Y-132601156D01*
X153889990Y-132024813D01*
X153889990Y-134955208D01*
X152238844Y-136606355D01*
X152131486Y-136585000D01*
X151868514Y-136585000D01*
X151610595Y-136636304D01*
X151367641Y-136736939D01*
X151148987Y-136883038D01*
X150963038Y-137068987D01*
X150816939Y-137287641D01*
X150716304Y-137530595D01*
X150665000Y-137788514D01*
X150665000Y-138051486D01*
X150716304Y-138309405D01*
X150816939Y-138552359D01*
X150963038Y-138771013D01*
X151148987Y-138956962D01*
X151367641Y-139103061D01*
X151610595Y-139203696D01*
X151868514Y-139255000D01*
X152131486Y-139255000D01*
X152389405Y-139203696D01*
X152632359Y-139103061D01*
X152851013Y-138956962D01*
X153036962Y-138771013D01*
X153183061Y-138552359D01*
X153283696Y-138309405D01*
X153335000Y-138051486D01*
X153335000Y-137788514D01*
X153313645Y-137681156D01*
X154340000Y-136654802D01*
X154340000Y-149340000D01*
X119127000Y-149340000D01*
X119127000Y-142300000D01*
X150661928Y-142300000D01*
X150661928Y-143700000D01*
X150674188Y-143824482D01*
X150710498Y-143944180D01*
X150769463Y-144054494D01*
X150848815Y-144151185D01*
X150945506Y-144230537D01*
X151055820Y-144289502D01*
X151175518Y-144325812D01*
X151300000Y-144338072D01*
X152700000Y-144338072D01*
X152824482Y-144325812D01*
X152944180Y-144289502D01*
X153054494Y-144230537D01*
X153151185Y-144151185D01*
X153230537Y-144054494D01*
X153289502Y-143944180D01*
X153325812Y-143824482D01*
X153338072Y-143700000D01*
X153338072Y-142300000D01*
X153325812Y-142175518D01*
X153289502Y-142055820D01*
X153230537Y-141945506D01*
X153151185Y-141848815D01*
X153054494Y-141769463D01*
X152944180Y-141710498D01*
X152824482Y-141674188D01*
X152700000Y-141661928D01*
X151300000Y-141661928D01*
X151175518Y-141674188D01*
X151055820Y-141710498D01*
X150945506Y-141769463D01*
X150848815Y-141848815D01*
X150769463Y-141945506D01*
X150710498Y-142055820D01*
X150674188Y-142175518D01*
X150661928Y-142300000D01*
X119127000Y-142300000D01*
X119127000Y-122317609D01*
X150531538Y-122317609D01*
X150535409Y-122355282D01*
X150627579Y-122580533D01*
X150761922Y-122783474D01*
X150933275Y-122956307D01*
X151135054Y-123092390D01*
X151359504Y-123186493D01*
X151598000Y-123235000D01*
X151873000Y-123235000D01*
X151873000Y-122127000D01*
X150656269Y-122127000D01*
X150531538Y-122317609D01*
X119127000Y-122317609D01*
X119127000Y-116992702D01*
X129186903Y-116992702D01*
X129258486Y-117236671D01*
X129513996Y-117357571D01*
X129788184Y-117426300D01*
X130070512Y-117440217D01*
X130350130Y-117398787D01*
X130616292Y-117303603D01*
X130741514Y-117236671D01*
X130813097Y-116992702D01*
X130000000Y-116179605D01*
X129186903Y-116992702D01*
X119127000Y-116992702D01*
X119127000Y-116070512D01*
X128559783Y-116070512D01*
X128601213Y-116350130D01*
X128696397Y-116616292D01*
X128763329Y-116741514D01*
X129007298Y-116813097D01*
X129820395Y-116000000D01*
X130179605Y-116000000D01*
X130992702Y-116813097D01*
X131236671Y-116741514D01*
X131357571Y-116486004D01*
X131426300Y-116211816D01*
X131440217Y-115929488D01*
X131429724Y-115858665D01*
X133565000Y-115858665D01*
X133565000Y-116141335D01*
X133620147Y-116418574D01*
X133728320Y-116679727D01*
X133885363Y-116914759D01*
X134085241Y-117114637D01*
X134320273Y-117271680D01*
X134581426Y-117379853D01*
X134858665Y-117435000D01*
X135141335Y-117435000D01*
X135418574Y-117379853D01*
X135679727Y-117271680D01*
X135914759Y-117114637D01*
X136114637Y-116914759D01*
X136271680Y-116679727D01*
X136379853Y-116418574D01*
X136435000Y-116141335D01*
X136435000Y-115858665D01*
X136379853Y-115581426D01*
X136271680Y-115320273D01*
X136114637Y-115085241D01*
X135914759Y-114885363D01*
X135679727Y-114728320D01*
X135418574Y-114620147D01*
X135141335Y-114565000D01*
X134858665Y-114565000D01*
X134581426Y-114620147D01*
X134320273Y-114728320D01*
X134085241Y-114885363D01*
X133885363Y-115085241D01*
X133728320Y-115320273D01*
X133620147Y-115581426D01*
X133565000Y-115858665D01*
X131429724Y-115858665D01*
X131398787Y-115649870D01*
X131303603Y-115383708D01*
X131236671Y-115258486D01*
X130992702Y-115186903D01*
X130179605Y-116000000D01*
X129820395Y-116000000D01*
X129007298Y-115186903D01*
X128763329Y-115258486D01*
X128642429Y-115513996D01*
X128573700Y-115788184D01*
X128559783Y-116070512D01*
X119127000Y-116070512D01*
X119127000Y-115007298D01*
X129186903Y-115007298D01*
X130000000Y-115820395D01*
X130813097Y-115007298D01*
X130741514Y-114763329D01*
X130486004Y-114642429D01*
X130211816Y-114573700D01*
X129929488Y-114559783D01*
X129649870Y-114601213D01*
X129383708Y-114696397D01*
X129258486Y-114763329D01*
X129186903Y-115007298D01*
X119127000Y-115007298D01*
X119127000Y-114317609D01*
X150531538Y-114317609D01*
X150535409Y-114355282D01*
X150627579Y-114580533D01*
X150761922Y-114783474D01*
X150933275Y-114956307D01*
X151135054Y-115092390D01*
X151359504Y-115186493D01*
X151598000Y-115235000D01*
X151873000Y-115235000D01*
X151873000Y-114127000D01*
X150656269Y-114127000D01*
X150531538Y-114317609D01*
X119127000Y-114317609D01*
X119127000Y-100317609D01*
X150531538Y-100317609D01*
X150535409Y-100355282D01*
X150627579Y-100580533D01*
X150761922Y-100783474D01*
X150933275Y-100956307D01*
X151135054Y-101092390D01*
X151359504Y-101186493D01*
X151598000Y-101235000D01*
X151873000Y-101235000D01*
X151873000Y-100127000D01*
X152127000Y-100127000D01*
X152127000Y-101235000D01*
X152402000Y-101235000D01*
X152640496Y-101186493D01*
X152864946Y-101092390D01*
X153066725Y-100956307D01*
X153238078Y-100783474D01*
X153372421Y-100580533D01*
X153464591Y-100355282D01*
X153468462Y-100317609D01*
X153343731Y-100127000D01*
X152127000Y-100127000D01*
X151873000Y-100127000D01*
X150656269Y-100127000D01*
X150531538Y-100317609D01*
X119127000Y-100317609D01*
X119127000Y-97649999D01*
X150486928Y-97649999D01*
X150486928Y-98350001D01*
X150503992Y-98523255D01*
X150554528Y-98689851D01*
X150636595Y-98843387D01*
X150747038Y-98977962D01*
X150881613Y-99088405D01*
X150886406Y-99090967D01*
X150761922Y-99216526D01*
X150627579Y-99419467D01*
X150535409Y-99644718D01*
X150531538Y-99682391D01*
X150656269Y-99873000D01*
X151873000Y-99873000D01*
X151873000Y-99853000D01*
X152127000Y-99853000D01*
X152127000Y-99873000D01*
X153343731Y-99873000D01*
X153468462Y-99682391D01*
X153464591Y-99644718D01*
X153372421Y-99419467D01*
X153238078Y-99216526D01*
X153113594Y-99090967D01*
X153118387Y-99088405D01*
X153252962Y-98977962D01*
X153363405Y-98843387D01*
X153445472Y-98689851D01*
X153496008Y-98523255D01*
X153513072Y-98350001D01*
X153513072Y-97649999D01*
X153496008Y-97476745D01*
X153445472Y-97310149D01*
X153363405Y-97156613D01*
X153252962Y-97022038D01*
X153118387Y-96911595D01*
X152964851Y-96829528D01*
X152798255Y-96778992D01*
X152625001Y-96761928D01*
X151374999Y-96761928D01*
X151201745Y-96778992D01*
X151035149Y-96829528D01*
X150881613Y-96911595D01*
X150747038Y-97022038D01*
X150636595Y-97156613D01*
X150554528Y-97310149D01*
X150503992Y-97476745D01*
X150486928Y-97649999D01*
X119127000Y-97649999D01*
X119127000Y-91649999D01*
X149486928Y-91649999D01*
X149486928Y-92350001D01*
X149503992Y-92523255D01*
X149554528Y-92689851D01*
X149636595Y-92843387D01*
X149747038Y-92977962D01*
X149881613Y-93088405D01*
X150035149Y-93170472D01*
X150201745Y-93221008D01*
X150374999Y-93238072D01*
X151625001Y-93238072D01*
X151798255Y-93221008D01*
X151964851Y-93170472D01*
X152118387Y-93088405D01*
X152252962Y-92977962D01*
X152363405Y-92843387D01*
X152445472Y-92689851D01*
X152496008Y-92523255D01*
X152513072Y-92350001D01*
X152513072Y-91649999D01*
X152496008Y-91476745D01*
X152445472Y-91310149D01*
X152363405Y-91156613D01*
X152252962Y-91022038D01*
X152118387Y-90911595D01*
X152113594Y-90909033D01*
X152238078Y-90783474D01*
X152372421Y-90580533D01*
X152464591Y-90355282D01*
X152468462Y-90317609D01*
X152343731Y-90127000D01*
X151127000Y-90127000D01*
X151127000Y-90147000D01*
X150873000Y-90147000D01*
X150873000Y-90127000D01*
X149656269Y-90127000D01*
X149531538Y-90317609D01*
X149535409Y-90355282D01*
X149627579Y-90580533D01*
X149761922Y-90783474D01*
X149886406Y-90909033D01*
X149881613Y-90911595D01*
X149747038Y-91022038D01*
X149636595Y-91156613D01*
X149554528Y-91310149D01*
X149503992Y-91476745D01*
X149486928Y-91649999D01*
X119127000Y-91649999D01*
X119127000Y-89682391D01*
X149531538Y-89682391D01*
X149656269Y-89873000D01*
X150873000Y-89873000D01*
X150873000Y-88765000D01*
X151127000Y-88765000D01*
X151127000Y-89873000D01*
X152343731Y-89873000D01*
X152468462Y-89682391D01*
X152464591Y-89644718D01*
X152372421Y-89419467D01*
X152238078Y-89216526D01*
X152066725Y-89043693D01*
X151864946Y-88907610D01*
X151640496Y-88813507D01*
X151402000Y-88765000D01*
X151127000Y-88765000D01*
X150873000Y-88765000D01*
X150598000Y-88765000D01*
X150359504Y-88813507D01*
X150135054Y-88907610D01*
X149933275Y-89043693D01*
X149761922Y-89216526D01*
X149627579Y-89419467D01*
X149535409Y-89644718D01*
X149531538Y-89682391D01*
X119127000Y-89682391D01*
X119127000Y-79600000D01*
X149486928Y-79600000D01*
X149499188Y-79724482D01*
X149535498Y-79844180D01*
X149594463Y-79954494D01*
X149673815Y-80051185D01*
X149770506Y-80130537D01*
X149880820Y-80189502D01*
X150000518Y-80225812D01*
X150125000Y-80238072D01*
X150714250Y-80235000D01*
X150873000Y-80076250D01*
X150873000Y-79127000D01*
X151127000Y-79127000D01*
X151127000Y-80076250D01*
X151285750Y-80235000D01*
X151875000Y-80238072D01*
X151999482Y-80225812D01*
X152119180Y-80189502D01*
X152229494Y-80130537D01*
X152326185Y-80051185D01*
X152405537Y-79954494D01*
X152464502Y-79844180D01*
X152500812Y-79724482D01*
X152513072Y-79600000D01*
X152510000Y-79285750D01*
X152351250Y-79127000D01*
X151127000Y-79127000D01*
X150873000Y-79127000D01*
X149648750Y-79127000D01*
X149490000Y-79285750D01*
X149486928Y-79600000D01*
X119127000Y-79600000D01*
X119127000Y-77000000D01*
X149484025Y-77000000D01*
X149507870Y-77242102D01*
X149578489Y-77474901D01*
X149693167Y-77689449D01*
X149819436Y-77843309D01*
X149770506Y-77869463D01*
X149673815Y-77948815D01*
X149594463Y-78045506D01*
X149535498Y-78155820D01*
X149499188Y-78275518D01*
X149486928Y-78400000D01*
X149490000Y-78714250D01*
X149648750Y-78873000D01*
X150873000Y-78873000D01*
X150873000Y-78853000D01*
X151127000Y-78853000D01*
X151127000Y-78873000D01*
X152351250Y-78873000D01*
X152510000Y-78714250D01*
X152513072Y-78400000D01*
X152500812Y-78275518D01*
X152464502Y-78155820D01*
X152405537Y-78045506D01*
X152326185Y-77948815D01*
X152229494Y-77869463D01*
X152180564Y-77843309D01*
X152306833Y-77689449D01*
X152421511Y-77474901D01*
X152492130Y-77242102D01*
X152515975Y-77000000D01*
X152492130Y-76757898D01*
X152421511Y-76525099D01*
X152306833Y-76310551D01*
X152152502Y-76122498D01*
X151964449Y-75968167D01*
X151749901Y-75853489D01*
X151517102Y-75782870D01*
X151335665Y-75765000D01*
X150664335Y-75765000D01*
X150482898Y-75782870D01*
X150250099Y-75853489D01*
X150035551Y-75968167D01*
X149847498Y-76122498D01*
X149693167Y-76310551D01*
X149578489Y-76525099D01*
X149507870Y-76757898D01*
X149484025Y-77000000D01*
X119127000Y-77000000D01*
X119127000Y-71108514D01*
X149665000Y-71108514D01*
X149665000Y-71371486D01*
X149716304Y-71629405D01*
X149816939Y-71872359D01*
X149963038Y-72091013D01*
X150148987Y-72276962D01*
X150367641Y-72423061D01*
X150610595Y-72523696D01*
X150868514Y-72575000D01*
X151131486Y-72575000D01*
X151389405Y-72523696D01*
X151632359Y-72423061D01*
X151851013Y-72276962D01*
X152036962Y-72091013D01*
X152183061Y-71872359D01*
X152283696Y-71629405D01*
X152335000Y-71371486D01*
X152335000Y-71108514D01*
X152283696Y-70850595D01*
X152183061Y-70607641D01*
X152036962Y-70388987D01*
X151851013Y-70203038D01*
X151632359Y-70056939D01*
X151389405Y-69956304D01*
X151131486Y-69905000D01*
X150868514Y-69905000D01*
X150610595Y-69956304D01*
X150367641Y-70056939D01*
X150148987Y-70203038D01*
X149963038Y-70388987D01*
X149816939Y-70607641D01*
X149716304Y-70850595D01*
X149665000Y-71108514D01*
X119127000Y-71108514D01*
X119127000Y-65992702D01*
X129186903Y-65992702D01*
X129258486Y-66236671D01*
X129513996Y-66357571D01*
X129788184Y-66426300D01*
X130070512Y-66440217D01*
X130350130Y-66398787D01*
X130616292Y-66303603D01*
X130741514Y-66236671D01*
X130813097Y-65992702D01*
X130000000Y-65179605D01*
X129186903Y-65992702D01*
X119127000Y-65992702D01*
X119127000Y-65070512D01*
X128559783Y-65070512D01*
X128601213Y-65350130D01*
X128696397Y-65616292D01*
X128763329Y-65741514D01*
X129007298Y-65813097D01*
X129820395Y-65000000D01*
X130179605Y-65000000D01*
X130992702Y-65813097D01*
X131236671Y-65741514D01*
X131357571Y-65486004D01*
X131426300Y-65211816D01*
X131440217Y-64929488D01*
X131429724Y-64858665D01*
X133565000Y-64858665D01*
X133565000Y-65141335D01*
X133620147Y-65418574D01*
X133728320Y-65679727D01*
X133885363Y-65914759D01*
X134085241Y-66114637D01*
X134320273Y-66271680D01*
X134581426Y-66379853D01*
X134858665Y-66435000D01*
X135141335Y-66435000D01*
X135418574Y-66379853D01*
X135679727Y-66271680D01*
X135914759Y-66114637D01*
X136000882Y-66028514D01*
X149665000Y-66028514D01*
X149665000Y-66291486D01*
X149716304Y-66549405D01*
X149816939Y-66792359D01*
X149963038Y-67011013D01*
X150148987Y-67196962D01*
X150367641Y-67343061D01*
X150610595Y-67443696D01*
X150868514Y-67495000D01*
X151131486Y-67495000D01*
X151389405Y-67443696D01*
X151632359Y-67343061D01*
X151851013Y-67196962D01*
X152036962Y-67011013D01*
X152183061Y-66792359D01*
X152283696Y-66549405D01*
X152335000Y-66291486D01*
X152335000Y-66028514D01*
X152283696Y-65770595D01*
X152183061Y-65527641D01*
X152036962Y-65308987D01*
X151851013Y-65123038D01*
X151632359Y-64976939D01*
X151389405Y-64876304D01*
X151131486Y-64825000D01*
X150868514Y-64825000D01*
X150610595Y-64876304D01*
X150367641Y-64976939D01*
X150148987Y-65123038D01*
X149963038Y-65308987D01*
X149816939Y-65527641D01*
X149716304Y-65770595D01*
X149665000Y-66028514D01*
X136000882Y-66028514D01*
X136114637Y-65914759D01*
X136271680Y-65679727D01*
X136379853Y-65418574D01*
X136435000Y-65141335D01*
X136435000Y-64858665D01*
X136379853Y-64581426D01*
X136271680Y-64320273D01*
X136114637Y-64085241D01*
X135914759Y-63885363D01*
X135679727Y-63728320D01*
X135418574Y-63620147D01*
X135141335Y-63565000D01*
X134858665Y-63565000D01*
X134581426Y-63620147D01*
X134320273Y-63728320D01*
X134085241Y-63885363D01*
X133885363Y-64085241D01*
X133728320Y-64320273D01*
X133620147Y-64581426D01*
X133565000Y-64858665D01*
X131429724Y-64858665D01*
X131398787Y-64649870D01*
X131303603Y-64383708D01*
X131236671Y-64258486D01*
X130992702Y-64186903D01*
X130179605Y-65000000D01*
X129820395Y-65000000D01*
X129007298Y-64186903D01*
X128763329Y-64258486D01*
X128642429Y-64513996D01*
X128573700Y-64788184D01*
X128559783Y-65070512D01*
X119127000Y-65070512D01*
X119127000Y-64007298D01*
X129186903Y-64007298D01*
X130000000Y-64820395D01*
X130813097Y-64007298D01*
X130741514Y-63763329D01*
X130486004Y-63642429D01*
X130211816Y-63573700D01*
X129929488Y-63559783D01*
X129649870Y-63601213D01*
X129383708Y-63696397D01*
X129258486Y-63763329D01*
X129186903Y-64007298D01*
X119127000Y-64007298D01*
X119127000Y-55300000D01*
X149661928Y-55300000D01*
X149661928Y-56700000D01*
X149674188Y-56824482D01*
X149710498Y-56944180D01*
X149769463Y-57054494D01*
X149848815Y-57151185D01*
X149945506Y-57230537D01*
X150055820Y-57289502D01*
X150175518Y-57325812D01*
X150300000Y-57338072D01*
X151700000Y-57338072D01*
X151824482Y-57325812D01*
X151944180Y-57289502D01*
X152054494Y-57230537D01*
X152151185Y-57151185D01*
X152230537Y-57054494D01*
X152289502Y-56944180D01*
X152325812Y-56824482D01*
X152338072Y-56700000D01*
X152338072Y-55300000D01*
X152325812Y-55175518D01*
X152289502Y-55055820D01*
X152230537Y-54945506D01*
X152151185Y-54848815D01*
X152054494Y-54769463D01*
X151944180Y-54710498D01*
X151824482Y-54674188D01*
X151700000Y-54661928D01*
X150300000Y-54661928D01*
X150175518Y-54674188D01*
X150055820Y-54710498D01*
X149945506Y-54769463D01*
X149848815Y-54848815D01*
X149769463Y-54945506D01*
X149710498Y-55055820D01*
X149674188Y-55175518D01*
X149661928Y-55300000D01*
X119127000Y-55300000D01*
X119127000Y-50660000D01*
X154340001Y-50660000D01*
X154340001Y-63345199D01*
G37*
X154340001Y-63345199D02*
X152313645Y-61318844D01*
X152335000Y-61211486D01*
X152335000Y-60948514D01*
X152283696Y-60690595D01*
X152183061Y-60447641D01*
X152036962Y-60228987D01*
X151851013Y-60043038D01*
X151632359Y-59896939D01*
X151389405Y-59796304D01*
X151131486Y-59745000D01*
X150868514Y-59745000D01*
X150610595Y-59796304D01*
X150367641Y-59896939D01*
X150148987Y-60043038D01*
X149963038Y-60228987D01*
X149816939Y-60447641D01*
X149716304Y-60690595D01*
X149665000Y-60948514D01*
X149665000Y-61211486D01*
X149716304Y-61469405D01*
X149816939Y-61712359D01*
X149963038Y-61931013D01*
X150148987Y-62116962D01*
X150367641Y-62263061D01*
X150610595Y-62363696D01*
X150868514Y-62415000D01*
X151131486Y-62415000D01*
X151238844Y-62393645D01*
X153889991Y-65044793D01*
X153889990Y-107469014D01*
X153803937Y-107340226D01*
X153659774Y-107196063D01*
X153490256Y-107082795D01*
X153301898Y-107004774D01*
X153101939Y-106965000D01*
X152898061Y-106965000D01*
X152698102Y-107004774D01*
X152509744Y-107082795D01*
X152340226Y-107196063D01*
X152196063Y-107340226D01*
X152082795Y-107509744D01*
X152004774Y-107698102D01*
X151965000Y-107898061D01*
X151965000Y-108101939D01*
X152004774Y-108301898D01*
X152082795Y-108490256D01*
X152196063Y-108659774D01*
X152340226Y-108803937D01*
X152509744Y-108917205D01*
X152639999Y-108971159D01*
X152639999Y-110763405D01*
X152625001Y-110761928D01*
X151374999Y-110761928D01*
X151201745Y-110778992D01*
X151035149Y-110829528D01*
X150881613Y-110911595D01*
X150747038Y-111022038D01*
X150636595Y-111156613D01*
X150554528Y-111310149D01*
X150503992Y-111476745D01*
X150486928Y-111649999D01*
X150486928Y-112350001D01*
X150503992Y-112523255D01*
X150554528Y-112689851D01*
X150636595Y-112843387D01*
X150747038Y-112977962D01*
X150881613Y-113088405D01*
X150886406Y-113090967D01*
X150761922Y-113216526D01*
X150627579Y-113419467D01*
X150535409Y-113644718D01*
X150531538Y-113682391D01*
X150656269Y-113873000D01*
X151873000Y-113873000D01*
X151873000Y-113853000D01*
X152127000Y-113853000D01*
X152127000Y-113873000D01*
X152147000Y-113873000D01*
X152147000Y-114127000D01*
X152127000Y-114127000D01*
X152127000Y-115235000D01*
X152402000Y-115235000D01*
X152639999Y-115186594D01*
X152639999Y-118763405D01*
X152625001Y-118761928D01*
X151374999Y-118761928D01*
X151201745Y-118778992D01*
X151035149Y-118829528D01*
X150881613Y-118911595D01*
X150747038Y-119022038D01*
X150636595Y-119156613D01*
X150554528Y-119310149D01*
X150503992Y-119476745D01*
X150486928Y-119649999D01*
X150486928Y-120350001D01*
X150503992Y-120523255D01*
X150554528Y-120689851D01*
X150636595Y-120843387D01*
X150747038Y-120977962D01*
X150881613Y-121088405D01*
X150886406Y-121090967D01*
X150761922Y-121216526D01*
X150627579Y-121419467D01*
X150535409Y-121644718D01*
X150531538Y-121682391D01*
X150656269Y-121873000D01*
X151873000Y-121873000D01*
X151873000Y-121853000D01*
X152127000Y-121853000D01*
X152127000Y-121873000D01*
X152147000Y-121873000D01*
X152147000Y-122127000D01*
X152127000Y-122127000D01*
X152127000Y-123235000D01*
X152402000Y-123235000D01*
X152640000Y-123186594D01*
X152640000Y-126582044D01*
X152632359Y-126576939D01*
X152389405Y-126476304D01*
X152131486Y-126425000D01*
X151868514Y-126425000D01*
X151610595Y-126476304D01*
X151367641Y-126576939D01*
X151148987Y-126723038D01*
X150963038Y-126908987D01*
X150816939Y-127127641D01*
X150716304Y-127370595D01*
X150665000Y-127628514D01*
X150665000Y-127891486D01*
X150716304Y-128149405D01*
X150816939Y-128392359D01*
X150963038Y-128611013D01*
X151148987Y-128796962D01*
X151367641Y-128943061D01*
X151610595Y-129043696D01*
X151868514Y-129095000D01*
X152131486Y-129095000D01*
X152389405Y-129043696D01*
X152632359Y-128943061D01*
X152640000Y-128937956D01*
X152640000Y-131125198D01*
X152238844Y-131526355D01*
X152131486Y-131505000D01*
X151868514Y-131505000D01*
X151610595Y-131556304D01*
X151367641Y-131656939D01*
X151148987Y-131803038D01*
X150963038Y-131988987D01*
X150816939Y-132207641D01*
X150716304Y-132450595D01*
X150665000Y-132708514D01*
X150665000Y-132971486D01*
X150716304Y-133229405D01*
X150816939Y-133472359D01*
X150963038Y-133691013D01*
X151148987Y-133876962D01*
X151367641Y-134023061D01*
X151610595Y-134123696D01*
X151868514Y-134175000D01*
X152131486Y-134175000D01*
X152389405Y-134123696D01*
X152632359Y-134023061D01*
X152851013Y-133876962D01*
X153036962Y-133691013D01*
X153183061Y-133472359D01*
X153283696Y-133229405D01*
X153335000Y-132971486D01*
X153335000Y-132708514D01*
X153313645Y-132601156D01*
X153889990Y-132024813D01*
X153889990Y-134955208D01*
X152238844Y-136606355D01*
X152131486Y-136585000D01*
X151868514Y-136585000D01*
X151610595Y-136636304D01*
X151367641Y-136736939D01*
X151148987Y-136883038D01*
X150963038Y-137068987D01*
X150816939Y-137287641D01*
X150716304Y-137530595D01*
X150665000Y-137788514D01*
X150665000Y-138051486D01*
X150716304Y-138309405D01*
X150816939Y-138552359D01*
X150963038Y-138771013D01*
X151148987Y-138956962D01*
X151367641Y-139103061D01*
X151610595Y-139203696D01*
X151868514Y-139255000D01*
X152131486Y-139255000D01*
X152389405Y-139203696D01*
X152632359Y-139103061D01*
X152851013Y-138956962D01*
X153036962Y-138771013D01*
X153183061Y-138552359D01*
X153283696Y-138309405D01*
X153335000Y-138051486D01*
X153335000Y-137788514D01*
X153313645Y-137681156D01*
X154340000Y-136654802D01*
X154340000Y-149340000D01*
X119127000Y-149340000D01*
X119127000Y-142300000D01*
X150661928Y-142300000D01*
X150661928Y-143700000D01*
X150674188Y-143824482D01*
X150710498Y-143944180D01*
X150769463Y-144054494D01*
X150848815Y-144151185D01*
X150945506Y-144230537D01*
X151055820Y-144289502D01*
X151175518Y-144325812D01*
X151300000Y-144338072D01*
X152700000Y-144338072D01*
X152824482Y-144325812D01*
X152944180Y-144289502D01*
X153054494Y-144230537D01*
X153151185Y-144151185D01*
X153230537Y-144054494D01*
X153289502Y-143944180D01*
X153325812Y-143824482D01*
X153338072Y-143700000D01*
X153338072Y-142300000D01*
X153325812Y-142175518D01*
X153289502Y-142055820D01*
X153230537Y-141945506D01*
X153151185Y-141848815D01*
X153054494Y-141769463D01*
X152944180Y-141710498D01*
X152824482Y-141674188D01*
X152700000Y-141661928D01*
X151300000Y-141661928D01*
X151175518Y-141674188D01*
X151055820Y-141710498D01*
X150945506Y-141769463D01*
X150848815Y-141848815D01*
X150769463Y-141945506D01*
X150710498Y-142055820D01*
X150674188Y-142175518D01*
X150661928Y-142300000D01*
X119127000Y-142300000D01*
X119127000Y-122317609D01*
X150531538Y-122317609D01*
X150535409Y-122355282D01*
X150627579Y-122580533D01*
X150761922Y-122783474D01*
X150933275Y-122956307D01*
X151135054Y-123092390D01*
X151359504Y-123186493D01*
X151598000Y-123235000D01*
X151873000Y-123235000D01*
X151873000Y-122127000D01*
X150656269Y-122127000D01*
X150531538Y-122317609D01*
X119127000Y-122317609D01*
X119127000Y-116992702D01*
X129186903Y-116992702D01*
X129258486Y-117236671D01*
X129513996Y-117357571D01*
X129788184Y-117426300D01*
X130070512Y-117440217D01*
X130350130Y-117398787D01*
X130616292Y-117303603D01*
X130741514Y-117236671D01*
X130813097Y-116992702D01*
X130000000Y-116179605D01*
X129186903Y-116992702D01*
X119127000Y-116992702D01*
X119127000Y-116070512D01*
X128559783Y-116070512D01*
X128601213Y-116350130D01*
X128696397Y-116616292D01*
X128763329Y-116741514D01*
X129007298Y-116813097D01*
X129820395Y-116000000D01*
X130179605Y-116000000D01*
X130992702Y-116813097D01*
X131236671Y-116741514D01*
X131357571Y-116486004D01*
X131426300Y-116211816D01*
X131440217Y-115929488D01*
X131429724Y-115858665D01*
X133565000Y-115858665D01*
X133565000Y-116141335D01*
X133620147Y-116418574D01*
X133728320Y-116679727D01*
X133885363Y-116914759D01*
X134085241Y-117114637D01*
X134320273Y-117271680D01*
X134581426Y-117379853D01*
X134858665Y-117435000D01*
X135141335Y-117435000D01*
X135418574Y-117379853D01*
X135679727Y-117271680D01*
X135914759Y-117114637D01*
X136114637Y-116914759D01*
X136271680Y-116679727D01*
X136379853Y-116418574D01*
X136435000Y-116141335D01*
X136435000Y-115858665D01*
X136379853Y-115581426D01*
X136271680Y-115320273D01*
X136114637Y-115085241D01*
X135914759Y-114885363D01*
X135679727Y-114728320D01*
X135418574Y-114620147D01*
X135141335Y-114565000D01*
X134858665Y-114565000D01*
X134581426Y-114620147D01*
X134320273Y-114728320D01*
X134085241Y-114885363D01*
X133885363Y-115085241D01*
X133728320Y-115320273D01*
X133620147Y-115581426D01*
X133565000Y-115858665D01*
X131429724Y-115858665D01*
X131398787Y-115649870D01*
X131303603Y-115383708D01*
X131236671Y-115258486D01*
X130992702Y-115186903D01*
X130179605Y-116000000D01*
X129820395Y-116000000D01*
X129007298Y-115186903D01*
X128763329Y-115258486D01*
X128642429Y-115513996D01*
X128573700Y-115788184D01*
X128559783Y-116070512D01*
X119127000Y-116070512D01*
X119127000Y-115007298D01*
X129186903Y-115007298D01*
X130000000Y-115820395D01*
X130813097Y-115007298D01*
X130741514Y-114763329D01*
X130486004Y-114642429D01*
X130211816Y-114573700D01*
X129929488Y-114559783D01*
X129649870Y-114601213D01*
X129383708Y-114696397D01*
X129258486Y-114763329D01*
X129186903Y-115007298D01*
X119127000Y-115007298D01*
X119127000Y-114317609D01*
X150531538Y-114317609D01*
X150535409Y-114355282D01*
X150627579Y-114580533D01*
X150761922Y-114783474D01*
X150933275Y-114956307D01*
X151135054Y-115092390D01*
X151359504Y-115186493D01*
X151598000Y-115235000D01*
X151873000Y-115235000D01*
X151873000Y-114127000D01*
X150656269Y-114127000D01*
X150531538Y-114317609D01*
X119127000Y-114317609D01*
X119127000Y-100317609D01*
X150531538Y-100317609D01*
X150535409Y-100355282D01*
X150627579Y-100580533D01*
X150761922Y-100783474D01*
X150933275Y-100956307D01*
X151135054Y-101092390D01*
X151359504Y-101186493D01*
X151598000Y-101235000D01*
X151873000Y-101235000D01*
X151873000Y-100127000D01*
X152127000Y-100127000D01*
X152127000Y-101235000D01*
X152402000Y-101235000D01*
X152640496Y-101186493D01*
X152864946Y-101092390D01*
X153066725Y-100956307D01*
X153238078Y-100783474D01*
X153372421Y-100580533D01*
X153464591Y-100355282D01*
X153468462Y-100317609D01*
X153343731Y-100127000D01*
X152127000Y-100127000D01*
X151873000Y-100127000D01*
X150656269Y-100127000D01*
X150531538Y-100317609D01*
X119127000Y-100317609D01*
X119127000Y-97649999D01*
X150486928Y-97649999D01*
X150486928Y-98350001D01*
X150503992Y-98523255D01*
X150554528Y-98689851D01*
X150636595Y-98843387D01*
X150747038Y-98977962D01*
X150881613Y-99088405D01*
X150886406Y-99090967D01*
X150761922Y-99216526D01*
X150627579Y-99419467D01*
X150535409Y-99644718D01*
X150531538Y-99682391D01*
X150656269Y-99873000D01*
X151873000Y-99873000D01*
X151873000Y-99853000D01*
X152127000Y-99853000D01*
X152127000Y-99873000D01*
X153343731Y-99873000D01*
X153468462Y-99682391D01*
X153464591Y-99644718D01*
X153372421Y-99419467D01*
X153238078Y-99216526D01*
X153113594Y-99090967D01*
X153118387Y-99088405D01*
X153252962Y-98977962D01*
X153363405Y-98843387D01*
X153445472Y-98689851D01*
X153496008Y-98523255D01*
X153513072Y-98350001D01*
X153513072Y-97649999D01*
X153496008Y-97476745D01*
X153445472Y-97310149D01*
X153363405Y-97156613D01*
X153252962Y-97022038D01*
X153118387Y-96911595D01*
X152964851Y-96829528D01*
X152798255Y-96778992D01*
X152625001Y-96761928D01*
X151374999Y-96761928D01*
X151201745Y-96778992D01*
X151035149Y-96829528D01*
X150881613Y-96911595D01*
X150747038Y-97022038D01*
X150636595Y-97156613D01*
X150554528Y-97310149D01*
X150503992Y-97476745D01*
X150486928Y-97649999D01*
X119127000Y-97649999D01*
X119127000Y-91649999D01*
X149486928Y-91649999D01*
X149486928Y-92350001D01*
X149503992Y-92523255D01*
X149554528Y-92689851D01*
X149636595Y-92843387D01*
X149747038Y-92977962D01*
X149881613Y-93088405D01*
X150035149Y-93170472D01*
X150201745Y-93221008D01*
X150374999Y-93238072D01*
X151625001Y-93238072D01*
X151798255Y-93221008D01*
X151964851Y-93170472D01*
X152118387Y-93088405D01*
X152252962Y-92977962D01*
X152363405Y-92843387D01*
X152445472Y-92689851D01*
X152496008Y-92523255D01*
X152513072Y-92350001D01*
X152513072Y-91649999D01*
X152496008Y-91476745D01*
X152445472Y-91310149D01*
X152363405Y-91156613D01*
X152252962Y-91022038D01*
X152118387Y-90911595D01*
X152113594Y-90909033D01*
X152238078Y-90783474D01*
X152372421Y-90580533D01*
X152464591Y-90355282D01*
X152468462Y-90317609D01*
X152343731Y-90127000D01*
X151127000Y-90127000D01*
X151127000Y-90147000D01*
X150873000Y-90147000D01*
X150873000Y-90127000D01*
X149656269Y-90127000D01*
X149531538Y-90317609D01*
X149535409Y-90355282D01*
X149627579Y-90580533D01*
X149761922Y-90783474D01*
X149886406Y-90909033D01*
X149881613Y-90911595D01*
X149747038Y-91022038D01*
X149636595Y-91156613D01*
X149554528Y-91310149D01*
X149503992Y-91476745D01*
X149486928Y-91649999D01*
X119127000Y-91649999D01*
X119127000Y-89682391D01*
X149531538Y-89682391D01*
X149656269Y-89873000D01*
X150873000Y-89873000D01*
X150873000Y-88765000D01*
X151127000Y-88765000D01*
X151127000Y-89873000D01*
X152343731Y-89873000D01*
X152468462Y-89682391D01*
X152464591Y-89644718D01*
X152372421Y-89419467D01*
X152238078Y-89216526D01*
X152066725Y-89043693D01*
X151864946Y-88907610D01*
X151640496Y-88813507D01*
X151402000Y-88765000D01*
X151127000Y-88765000D01*
X150873000Y-88765000D01*
X150598000Y-88765000D01*
X150359504Y-88813507D01*
X150135054Y-88907610D01*
X149933275Y-89043693D01*
X149761922Y-89216526D01*
X149627579Y-89419467D01*
X149535409Y-89644718D01*
X149531538Y-89682391D01*
X119127000Y-89682391D01*
X119127000Y-79600000D01*
X149486928Y-79600000D01*
X149499188Y-79724482D01*
X149535498Y-79844180D01*
X149594463Y-79954494D01*
X149673815Y-80051185D01*
X149770506Y-80130537D01*
X149880820Y-80189502D01*
X150000518Y-80225812D01*
X150125000Y-80238072D01*
X150714250Y-80235000D01*
X150873000Y-80076250D01*
X150873000Y-79127000D01*
X151127000Y-79127000D01*
X151127000Y-80076250D01*
X151285750Y-80235000D01*
X151875000Y-80238072D01*
X151999482Y-80225812D01*
X152119180Y-80189502D01*
X152229494Y-80130537D01*
X152326185Y-80051185D01*
X152405537Y-79954494D01*
X152464502Y-79844180D01*
X152500812Y-79724482D01*
X152513072Y-79600000D01*
X152510000Y-79285750D01*
X152351250Y-79127000D01*
X151127000Y-79127000D01*
X150873000Y-79127000D01*
X149648750Y-79127000D01*
X149490000Y-79285750D01*
X149486928Y-79600000D01*
X119127000Y-79600000D01*
X119127000Y-77000000D01*
X149484025Y-77000000D01*
X149507870Y-77242102D01*
X149578489Y-77474901D01*
X149693167Y-77689449D01*
X149819436Y-77843309D01*
X149770506Y-77869463D01*
X149673815Y-77948815D01*
X149594463Y-78045506D01*
X149535498Y-78155820D01*
X149499188Y-78275518D01*
X149486928Y-78400000D01*
X149490000Y-78714250D01*
X149648750Y-78873000D01*
X150873000Y-78873000D01*
X150873000Y-78853000D01*
X151127000Y-78853000D01*
X151127000Y-78873000D01*
X152351250Y-78873000D01*
X152510000Y-78714250D01*
X152513072Y-78400000D01*
X152500812Y-78275518D01*
X152464502Y-78155820D01*
X152405537Y-78045506D01*
X152326185Y-77948815D01*
X152229494Y-77869463D01*
X152180564Y-77843309D01*
X152306833Y-77689449D01*
X152421511Y-77474901D01*
X152492130Y-77242102D01*
X152515975Y-77000000D01*
X152492130Y-76757898D01*
X152421511Y-76525099D01*
X152306833Y-76310551D01*
X152152502Y-76122498D01*
X151964449Y-75968167D01*
X151749901Y-75853489D01*
X151517102Y-75782870D01*
X151335665Y-75765000D01*
X150664335Y-75765000D01*
X150482898Y-75782870D01*
X150250099Y-75853489D01*
X150035551Y-75968167D01*
X149847498Y-76122498D01*
X149693167Y-76310551D01*
X149578489Y-76525099D01*
X149507870Y-76757898D01*
X149484025Y-77000000D01*
X119127000Y-77000000D01*
X119127000Y-71108514D01*
X149665000Y-71108514D01*
X149665000Y-71371486D01*
X149716304Y-71629405D01*
X149816939Y-71872359D01*
X149963038Y-72091013D01*
X150148987Y-72276962D01*
X150367641Y-72423061D01*
X150610595Y-72523696D01*
X150868514Y-72575000D01*
X151131486Y-72575000D01*
X151389405Y-72523696D01*
X151632359Y-72423061D01*
X151851013Y-72276962D01*
X152036962Y-72091013D01*
X152183061Y-71872359D01*
X152283696Y-71629405D01*
X152335000Y-71371486D01*
X152335000Y-71108514D01*
X152283696Y-70850595D01*
X152183061Y-70607641D01*
X152036962Y-70388987D01*
X151851013Y-70203038D01*
X151632359Y-70056939D01*
X151389405Y-69956304D01*
X151131486Y-69905000D01*
X150868514Y-69905000D01*
X150610595Y-69956304D01*
X150367641Y-70056939D01*
X150148987Y-70203038D01*
X149963038Y-70388987D01*
X149816939Y-70607641D01*
X149716304Y-70850595D01*
X149665000Y-71108514D01*
X119127000Y-71108514D01*
X119127000Y-65992702D01*
X129186903Y-65992702D01*
X129258486Y-66236671D01*
X129513996Y-66357571D01*
X129788184Y-66426300D01*
X130070512Y-66440217D01*
X130350130Y-66398787D01*
X130616292Y-66303603D01*
X130741514Y-66236671D01*
X130813097Y-65992702D01*
X130000000Y-65179605D01*
X129186903Y-65992702D01*
X119127000Y-65992702D01*
X119127000Y-65070512D01*
X128559783Y-65070512D01*
X128601213Y-65350130D01*
X128696397Y-65616292D01*
X128763329Y-65741514D01*
X129007298Y-65813097D01*
X129820395Y-65000000D01*
X130179605Y-65000000D01*
X130992702Y-65813097D01*
X131236671Y-65741514D01*
X131357571Y-65486004D01*
X131426300Y-65211816D01*
X131440217Y-64929488D01*
X131429724Y-64858665D01*
X133565000Y-64858665D01*
X133565000Y-65141335D01*
X133620147Y-65418574D01*
X133728320Y-65679727D01*
X133885363Y-65914759D01*
X134085241Y-66114637D01*
X134320273Y-66271680D01*
X134581426Y-66379853D01*
X134858665Y-66435000D01*
X135141335Y-66435000D01*
X135418574Y-66379853D01*
X135679727Y-66271680D01*
X135914759Y-66114637D01*
X136000882Y-66028514D01*
X149665000Y-66028514D01*
X149665000Y-66291486D01*
X149716304Y-66549405D01*
X149816939Y-66792359D01*
X149963038Y-67011013D01*
X150148987Y-67196962D01*
X150367641Y-67343061D01*
X150610595Y-67443696D01*
X150868514Y-67495000D01*
X151131486Y-67495000D01*
X151389405Y-67443696D01*
X151632359Y-67343061D01*
X151851013Y-67196962D01*
X152036962Y-67011013D01*
X152183061Y-66792359D01*
X152283696Y-66549405D01*
X152335000Y-66291486D01*
X152335000Y-66028514D01*
X152283696Y-65770595D01*
X152183061Y-65527641D01*
X152036962Y-65308987D01*
X151851013Y-65123038D01*
X151632359Y-64976939D01*
X151389405Y-64876304D01*
X151131486Y-64825000D01*
X150868514Y-64825000D01*
X150610595Y-64876304D01*
X150367641Y-64976939D01*
X150148987Y-65123038D01*
X149963038Y-65308987D01*
X149816939Y-65527641D01*
X149716304Y-65770595D01*
X149665000Y-66028514D01*
X136000882Y-66028514D01*
X136114637Y-65914759D01*
X136271680Y-65679727D01*
X136379853Y-65418574D01*
X136435000Y-65141335D01*
X136435000Y-64858665D01*
X136379853Y-64581426D01*
X136271680Y-64320273D01*
X136114637Y-64085241D01*
X135914759Y-63885363D01*
X135679727Y-63728320D01*
X135418574Y-63620147D01*
X135141335Y-63565000D01*
X134858665Y-63565000D01*
X134581426Y-63620147D01*
X134320273Y-63728320D01*
X134085241Y-63885363D01*
X133885363Y-64085241D01*
X133728320Y-64320273D01*
X133620147Y-64581426D01*
X133565000Y-64858665D01*
X131429724Y-64858665D01*
X131398787Y-64649870D01*
X131303603Y-64383708D01*
X131236671Y-64258486D01*
X130992702Y-64186903D01*
X130179605Y-65000000D01*
X129820395Y-65000000D01*
X129007298Y-64186903D01*
X128763329Y-64258486D01*
X128642429Y-64513996D01*
X128573700Y-64788184D01*
X128559783Y-65070512D01*
X119127000Y-65070512D01*
X119127000Y-64007298D01*
X129186903Y-64007298D01*
X130000000Y-64820395D01*
X130813097Y-64007298D01*
X130741514Y-63763329D01*
X130486004Y-63642429D01*
X130211816Y-63573700D01*
X129929488Y-63559783D01*
X129649870Y-63601213D01*
X129383708Y-63696397D01*
X129258486Y-63763329D01*
X129186903Y-64007298D01*
X119127000Y-64007298D01*
X119127000Y-55300000D01*
X149661928Y-55300000D01*
X149661928Y-56700000D01*
X149674188Y-56824482D01*
X149710498Y-56944180D01*
X149769463Y-57054494D01*
X149848815Y-57151185D01*
X149945506Y-57230537D01*
X150055820Y-57289502D01*
X150175518Y-57325812D01*
X150300000Y-57338072D01*
X151700000Y-57338072D01*
X151824482Y-57325812D01*
X151944180Y-57289502D01*
X152054494Y-57230537D01*
X152151185Y-57151185D01*
X152230537Y-57054494D01*
X152289502Y-56944180D01*
X152325812Y-56824482D01*
X152338072Y-56700000D01*
X152338072Y-55300000D01*
X152325812Y-55175518D01*
X152289502Y-55055820D01*
X152230537Y-54945506D01*
X152151185Y-54848815D01*
X152054494Y-54769463D01*
X151944180Y-54710498D01*
X151824482Y-54674188D01*
X151700000Y-54661928D01*
X150300000Y-54661928D01*
X150175518Y-54674188D01*
X150055820Y-54710498D01*
X149945506Y-54769463D01*
X149848815Y-54848815D01*
X149769463Y-54945506D01*
X149710498Y-55055820D01*
X149674188Y-55175518D01*
X149661928Y-55300000D01*
X119127000Y-55300000D01*
X119127000Y-50660000D01*
X154340001Y-50660000D01*
X154340001Y-63345199D01*
M02*
