M48
; DRILL file {KiCad (5.1.5-0)} date Sunday, February 07, 2021 at 07:37:15 AM
; FORMAT={-:-/ absolute / inch / decimal}
; #@! TF.CreationDate,2021-02-07T07:37:15-07:00
; #@! TF.GenerationSoftware,Kicad,Pcbnew,(5.1.5-0)
FMAT,2
INCH
T1C0.0315
T2C0.0394
T3C0.1260
T4C0.1378
T5C0.3543
%
G90
G05
T1
X6.1843Y-3.9992
X6.1843Y-4.5992
X6.2843Y-3.9992
X6.2843Y-4.5992
X6.3843Y-3.9992
X6.3843Y-4.5992
X6.4843Y-3.9992
X6.4843Y-4.5992
X6.5843Y-3.9992
X6.5843Y-4.5992
X6.6843Y-3.9992
X6.6843Y-4.5992
X6.7843Y-3.9992
X6.7843Y-4.5992
T2
X5.0787Y-4.4094
X5.1333Y-4.2976
X5.1878Y-4.4094
X5.2423Y-4.2976
X5.2969Y-4.4094
X5.3514Y-4.2976
X5.4059Y-4.4094
X5.4604Y-4.2976
X5.515Y-4.4094
T3
X4.8047Y-4.3535
X5.789Y-4.3535
T4
X3.937Y-3.937
X3.937Y-4.828
X7.6823Y-3.937
X7.6823Y-4.828
T5
X4.3136Y-4.3943
T0
M30
