G04 #@! TF.GenerationSoftware,KiCad,Pcbnew,(5.1.5-0)*
G04 #@! TF.CreationDate,2021-02-07T07:37:12-07:00*
G04 #@! TF.ProjectId,back_v4,6261636b-5f76-4342-9e6b-696361645f70,rev?*
G04 #@! TF.SameCoordinates,Original*
G04 #@! TF.FileFunction,Legend,Top*
G04 #@! TF.FilePolarity,Positive*
%FSLAX46Y46*%
G04 Gerber Fmt 4.6, Leading zero omitted, Abs format (unit mm)*
G04 Created by KiCad (PCBNEW (5.1.5-0)) date 2021-02-07 07:37:12*
%MOMM*%
%LPD*%
G04 APERTURE LIST*
%ADD10C,0.120000*%
%ADD11C,0.150000*%
G04 APERTURE END LIST*
D10*
X178035000Y-112060000D02*
X178035000Y-109600000D01*
X176565000Y-112060000D02*
X178035000Y-112060000D01*
X176565000Y-109600000D02*
X176565000Y-112060000D01*
X122060000Y-98990000D02*
X125940000Y-98990000D01*
X127110000Y-102110000D02*
X126060000Y-102110000D01*
X127110000Y-100960000D02*
X127110000Y-102110000D01*
X121940000Y-102110000D02*
X121940000Y-103100000D01*
X120890000Y-102110000D02*
X121940000Y-102110000D01*
X120890000Y-100960000D02*
X120890000Y-102110000D01*
X184710000Y-113190000D02*
X184710000Y-111950000D01*
X180010000Y-113190000D02*
X180010000Y-111950000D01*
X180010000Y-110620000D02*
X180010000Y-110270000D01*
X180010000Y-110270000D02*
X184710000Y-110270000D01*
X184710000Y-110270000D02*
X184710000Y-110620000D01*
X180010000Y-110620000D02*
X178760000Y-110620000D01*
X180010000Y-114520000D02*
X180010000Y-114870000D01*
X180010000Y-114870000D02*
X184710000Y-114870000D01*
X184710000Y-114870000D02*
X184710000Y-114520000D01*
X175910000Y-110571267D02*
X175910000Y-110228733D01*
X174890000Y-110571267D02*
X174890000Y-110228733D01*
X185040000Y-120110000D02*
X181160000Y-120110000D01*
X179990000Y-116990000D02*
X181040000Y-116990000D01*
X179990000Y-118140000D02*
X179990000Y-116990000D01*
X185160000Y-116990000D02*
X185160000Y-116000000D01*
X186210000Y-116990000D02*
X185160000Y-116990000D01*
X186210000Y-118140000D02*
X186210000Y-116990000D01*
X176110000Y-114671267D02*
X176110000Y-114328733D01*
X175090000Y-114671267D02*
X175090000Y-114328733D01*
X176110000Y-118271267D02*
X176110000Y-117928733D01*
X175090000Y-118271267D02*
X175090000Y-117928733D01*
X173050000Y-106700000D02*
X173050000Y-109250000D01*
X171350000Y-106700000D02*
X171350000Y-109250000D01*
X173050000Y-106700000D02*
X171350000Y-106700000D01*
X152490000Y-113828733D02*
X152490000Y-114171267D01*
X153510000Y-113828733D02*
X153510000Y-114171267D01*
X152490000Y-106828733D02*
X152490000Y-107171267D01*
X153510000Y-106828733D02*
X153510000Y-107171267D01*
X121115000Y-123560000D02*
X121115000Y-122710000D01*
X133285000Y-123560000D02*
X121115000Y-123560000D01*
X133285000Y-122710000D02*
X133285000Y-123560000D01*
X121115000Y-118340000D02*
X123440000Y-118340000D01*
X121115000Y-119190000D02*
X121115000Y-118340000D01*
X130960000Y-118340000D02*
X130960000Y-115950000D01*
X133285000Y-118340000D02*
X130960000Y-118340000D01*
X133285000Y-119190000D02*
X133285000Y-118340000D01*
X160415000Y-112710000D02*
X160415000Y-111860000D01*
X168585000Y-112710000D02*
X160415000Y-112710000D01*
X168585000Y-111860000D02*
X168585000Y-112710000D01*
X160415000Y-107490000D02*
X162740000Y-107490000D01*
X160415000Y-108340000D02*
X160415000Y-107490000D01*
X166260000Y-107490000D02*
X166260000Y-105100000D01*
X168585000Y-107490000D02*
X166260000Y-107490000D01*
X168585000Y-108340000D02*
X168585000Y-107490000D01*
D11*
X177852380Y-108438095D02*
X176852380Y-108438095D01*
X176852380Y-108200000D01*
X176900000Y-108057142D01*
X176995238Y-107961904D01*
X177090476Y-107914285D01*
X177280952Y-107866666D01*
X177423809Y-107866666D01*
X177614285Y-107914285D01*
X177709523Y-107961904D01*
X177804761Y-108057142D01*
X177852380Y-108200000D01*
X177852380Y-108438095D01*
X176947619Y-107485714D02*
X176900000Y-107438095D01*
X176852380Y-107342857D01*
X176852380Y-107104761D01*
X176900000Y-107009523D01*
X176947619Y-106961904D01*
X177042857Y-106914285D01*
X177138095Y-106914285D01*
X177280952Y-106961904D01*
X177852380Y-107533333D01*
X177852380Y-106914285D01*
X108803095Y-102667380D02*
X108803095Y-101667380D01*
X108803095Y-102143571D02*
X109374523Y-102143571D01*
X109374523Y-102667380D02*
X109374523Y-101667380D01*
X110374523Y-102667380D02*
X109803095Y-102667380D01*
X110088809Y-102667380D02*
X110088809Y-101667380D01*
X109993571Y-101810238D01*
X109898333Y-101905476D01*
X109803095Y-101953095D01*
X123666666Y-97152380D02*
X123666666Y-97866666D01*
X123619047Y-98009523D01*
X123523809Y-98104761D01*
X123380952Y-98152380D01*
X123285714Y-98152380D01*
X124619047Y-97152380D02*
X124142857Y-97152380D01*
X124095238Y-97628571D01*
X124142857Y-97580952D01*
X124238095Y-97533333D01*
X124476190Y-97533333D01*
X124571428Y-97580952D01*
X124619047Y-97628571D01*
X124666666Y-97723809D01*
X124666666Y-97961904D01*
X124619047Y-98057142D01*
X124571428Y-98104761D01*
X124476190Y-98152380D01*
X124238095Y-98152380D01*
X124142857Y-98104761D01*
X124095238Y-98057142D01*
X181598095Y-108522380D02*
X181598095Y-109331904D01*
X181645714Y-109427142D01*
X181693333Y-109474761D01*
X181788571Y-109522380D01*
X181979047Y-109522380D01*
X182074285Y-109474761D01*
X182121904Y-109427142D01*
X182169523Y-109331904D01*
X182169523Y-108522380D01*
X182598095Y-108617619D02*
X182645714Y-108570000D01*
X182740952Y-108522380D01*
X182979047Y-108522380D01*
X183074285Y-108570000D01*
X183121904Y-108617619D01*
X183169523Y-108712857D01*
X183169523Y-108808095D01*
X183121904Y-108950952D01*
X182550476Y-109522380D01*
X183169523Y-109522380D01*
X174422380Y-110566666D02*
X173946190Y-110900000D01*
X174422380Y-111138095D02*
X173422380Y-111138095D01*
X173422380Y-110757142D01*
X173470000Y-110661904D01*
X173517619Y-110614285D01*
X173612857Y-110566666D01*
X173755714Y-110566666D01*
X173850952Y-110614285D01*
X173898571Y-110661904D01*
X173946190Y-110757142D01*
X173946190Y-111138095D01*
X173422380Y-109661904D02*
X173422380Y-110138095D01*
X173898571Y-110185714D01*
X173850952Y-110138095D01*
X173803333Y-110042857D01*
X173803333Y-109804761D01*
X173850952Y-109709523D01*
X173898571Y-109661904D01*
X173993809Y-109614285D01*
X174231904Y-109614285D01*
X174327142Y-109661904D01*
X174374761Y-109709523D01*
X174422380Y-109804761D01*
X174422380Y-110042857D01*
X174374761Y-110138095D01*
X174327142Y-110185714D01*
X182766666Y-120852380D02*
X182766666Y-121566666D01*
X182719047Y-121709523D01*
X182623809Y-121804761D01*
X182480952Y-121852380D01*
X182385714Y-121852380D01*
X183195238Y-120947619D02*
X183242857Y-120900000D01*
X183338095Y-120852380D01*
X183576190Y-120852380D01*
X183671428Y-120900000D01*
X183719047Y-120947619D01*
X183766666Y-121042857D01*
X183766666Y-121138095D01*
X183719047Y-121280952D01*
X183147619Y-121852380D01*
X183766666Y-121852380D01*
X174622380Y-114666666D02*
X174146190Y-115000000D01*
X174622380Y-115238095D02*
X173622380Y-115238095D01*
X173622380Y-114857142D01*
X173670000Y-114761904D01*
X173717619Y-114714285D01*
X173812857Y-114666666D01*
X173955714Y-114666666D01*
X174050952Y-114714285D01*
X174098571Y-114761904D01*
X174146190Y-114857142D01*
X174146190Y-115238095D01*
X173955714Y-113809523D02*
X174622380Y-113809523D01*
X173574761Y-114047619D02*
X174289047Y-114285714D01*
X174289047Y-113666666D01*
X174622380Y-118266666D02*
X174146190Y-118600000D01*
X174622380Y-118838095D02*
X173622380Y-118838095D01*
X173622380Y-118457142D01*
X173670000Y-118361904D01*
X173717619Y-118314285D01*
X173812857Y-118266666D01*
X173955714Y-118266666D01*
X174050952Y-118314285D01*
X174098571Y-118361904D01*
X174146190Y-118457142D01*
X174146190Y-118838095D01*
X173622380Y-117933333D02*
X173622380Y-117314285D01*
X174003333Y-117647619D01*
X174003333Y-117504761D01*
X174050952Y-117409523D01*
X174098571Y-117361904D01*
X174193809Y-117314285D01*
X174431904Y-117314285D01*
X174527142Y-117361904D01*
X174574761Y-117409523D01*
X174622380Y-117504761D01*
X174622380Y-117790476D01*
X174574761Y-117885714D01*
X174527142Y-117933333D01*
X174502380Y-108938095D02*
X173502380Y-108938095D01*
X173502380Y-108700000D01*
X173550000Y-108557142D01*
X173645238Y-108461904D01*
X173740476Y-108414285D01*
X173930952Y-108366666D01*
X174073809Y-108366666D01*
X174264285Y-108414285D01*
X174359523Y-108461904D01*
X174454761Y-108557142D01*
X174502380Y-108700000D01*
X174502380Y-108938095D01*
X174502380Y-107414285D02*
X174502380Y-107985714D01*
X174502380Y-107700000D02*
X173502380Y-107700000D01*
X173645238Y-107795238D01*
X173740476Y-107890476D01*
X173788095Y-107985714D01*
X154882380Y-114166666D02*
X154406190Y-114500000D01*
X154882380Y-114738095D02*
X153882380Y-114738095D01*
X153882380Y-114357142D01*
X153930000Y-114261904D01*
X153977619Y-114214285D01*
X154072857Y-114166666D01*
X154215714Y-114166666D01*
X154310952Y-114214285D01*
X154358571Y-114261904D01*
X154406190Y-114357142D01*
X154406190Y-114738095D01*
X153977619Y-113785714D02*
X153930000Y-113738095D01*
X153882380Y-113642857D01*
X153882380Y-113404761D01*
X153930000Y-113309523D01*
X153977619Y-113261904D01*
X154072857Y-113214285D01*
X154168095Y-113214285D01*
X154310952Y-113261904D01*
X154882380Y-113833333D01*
X154882380Y-113214285D01*
X154882380Y-107166666D02*
X154406190Y-107500000D01*
X154882380Y-107738095D02*
X153882380Y-107738095D01*
X153882380Y-107357142D01*
X153930000Y-107261904D01*
X153977619Y-107214285D01*
X154072857Y-107166666D01*
X154215714Y-107166666D01*
X154310952Y-107214285D01*
X154358571Y-107261904D01*
X154406190Y-107357142D01*
X154406190Y-107738095D01*
X154882380Y-106214285D02*
X154882380Y-106785714D01*
X154882380Y-106500000D02*
X153882380Y-106500000D01*
X154025238Y-106595238D01*
X154120476Y-106690476D01*
X154168095Y-106785714D01*
X126866666Y-124452380D02*
X126866666Y-125166666D01*
X126819047Y-125309523D01*
X126723809Y-125404761D01*
X126580952Y-125452380D01*
X126485714Y-125452380D01*
X127771428Y-124785714D02*
X127771428Y-125452380D01*
X127533333Y-124404761D02*
X127295238Y-125119047D01*
X127914285Y-125119047D01*
X164166666Y-113252380D02*
X164166666Y-113966666D01*
X164119047Y-114109523D01*
X164023809Y-114204761D01*
X163880952Y-114252380D01*
X163785714Y-114252380D01*
X165166666Y-114252380D02*
X164595238Y-114252380D01*
X164880952Y-114252380D02*
X164880952Y-113252380D01*
X164785714Y-113395238D01*
X164690476Y-113490476D01*
X164595238Y-113538095D01*
M02*
