G04 #@! TF.GenerationSoftware,KiCad,Pcbnew,(5.1.5-0)*
G04 #@! TF.CreationDate,2020-02-09T15:42:12-07:00*
G04 #@! TF.ProjectId,dac_proto,6461635f-7072-46f7-946f-2e6b69636164,rev?*
G04 #@! TF.SameCoordinates,Original*
G04 #@! TF.FileFunction,Soldermask,Top*
G04 #@! TF.FilePolarity,Negative*
%FSLAX46Y46*%
G04 Gerber Fmt 4.6, Leading zero omitted, Abs format (unit mm)*
G04 Created by KiCad (PCBNEW (5.1.5-0)) date 2020-02-09 15:42:12*
%MOMM*%
%LPD*%
G04 APERTURE LIST*
%ADD10C,0.100000*%
G04 APERTURE END LIST*
D10*
G36*
X209973512Y-98103927D02*
G01*
X210122812Y-98133624D01*
X210286784Y-98201544D01*
X210434354Y-98300147D01*
X210559853Y-98425646D01*
X210658456Y-98573216D01*
X210726376Y-98737188D01*
X210761000Y-98911259D01*
X210761000Y-99088741D01*
X210726376Y-99262812D01*
X210658456Y-99426784D01*
X210559853Y-99574354D01*
X210434354Y-99699853D01*
X210286784Y-99798456D01*
X210122812Y-99866376D01*
X209973512Y-99896073D01*
X209948742Y-99901000D01*
X209771258Y-99901000D01*
X209746488Y-99896073D01*
X209597188Y-99866376D01*
X209433216Y-99798456D01*
X209285646Y-99699853D01*
X209160147Y-99574354D01*
X209061544Y-99426784D01*
X208993624Y-99262812D01*
X208959000Y-99088741D01*
X208959000Y-98911259D01*
X208993624Y-98737188D01*
X209061544Y-98573216D01*
X209160147Y-98425646D01*
X209285646Y-98300147D01*
X209433216Y-98201544D01*
X209597188Y-98133624D01*
X209746488Y-98103927D01*
X209771258Y-98099000D01*
X209948742Y-98099000D01*
X209973512Y-98103927D01*
G37*
G36*
X207433512Y-98103927D02*
G01*
X207582812Y-98133624D01*
X207746784Y-98201544D01*
X207894354Y-98300147D01*
X208019853Y-98425646D01*
X208118456Y-98573216D01*
X208186376Y-98737188D01*
X208221000Y-98911259D01*
X208221000Y-99088741D01*
X208186376Y-99262812D01*
X208118456Y-99426784D01*
X208019853Y-99574354D01*
X207894354Y-99699853D01*
X207746784Y-99798456D01*
X207582812Y-99866376D01*
X207433512Y-99896073D01*
X207408742Y-99901000D01*
X207231258Y-99901000D01*
X207206488Y-99896073D01*
X207057188Y-99866376D01*
X206893216Y-99798456D01*
X206745646Y-99699853D01*
X206620147Y-99574354D01*
X206521544Y-99426784D01*
X206453624Y-99262812D01*
X206419000Y-99088741D01*
X206419000Y-98911259D01*
X206453624Y-98737188D01*
X206521544Y-98573216D01*
X206620147Y-98425646D01*
X206745646Y-98300147D01*
X206893216Y-98201544D01*
X207057188Y-98133624D01*
X207206488Y-98103927D01*
X207231258Y-98099000D01*
X207408742Y-98099000D01*
X207433512Y-98103927D01*
G37*
G36*
X204893512Y-98103927D02*
G01*
X205042812Y-98133624D01*
X205206784Y-98201544D01*
X205354354Y-98300147D01*
X205479853Y-98425646D01*
X205578456Y-98573216D01*
X205646376Y-98737188D01*
X205681000Y-98911259D01*
X205681000Y-99088741D01*
X205646376Y-99262812D01*
X205578456Y-99426784D01*
X205479853Y-99574354D01*
X205354354Y-99699853D01*
X205206784Y-99798456D01*
X205042812Y-99866376D01*
X204893512Y-99896073D01*
X204868742Y-99901000D01*
X204691258Y-99901000D01*
X204666488Y-99896073D01*
X204517188Y-99866376D01*
X204353216Y-99798456D01*
X204205646Y-99699853D01*
X204080147Y-99574354D01*
X203981544Y-99426784D01*
X203913624Y-99262812D01*
X203879000Y-99088741D01*
X203879000Y-98911259D01*
X203913624Y-98737188D01*
X203981544Y-98573216D01*
X204080147Y-98425646D01*
X204205646Y-98300147D01*
X204353216Y-98201544D01*
X204517188Y-98133624D01*
X204666488Y-98103927D01*
X204691258Y-98099000D01*
X204868742Y-98099000D01*
X204893512Y-98103927D01*
G37*
G36*
X202353512Y-98103927D02*
G01*
X202502812Y-98133624D01*
X202666784Y-98201544D01*
X202814354Y-98300147D01*
X202939853Y-98425646D01*
X203038456Y-98573216D01*
X203106376Y-98737188D01*
X203141000Y-98911259D01*
X203141000Y-99088741D01*
X203106376Y-99262812D01*
X203038456Y-99426784D01*
X202939853Y-99574354D01*
X202814354Y-99699853D01*
X202666784Y-99798456D01*
X202502812Y-99866376D01*
X202353512Y-99896073D01*
X202328742Y-99901000D01*
X202151258Y-99901000D01*
X202126488Y-99896073D01*
X201977188Y-99866376D01*
X201813216Y-99798456D01*
X201665646Y-99699853D01*
X201540147Y-99574354D01*
X201441544Y-99426784D01*
X201373624Y-99262812D01*
X201339000Y-99088741D01*
X201339000Y-98911259D01*
X201373624Y-98737188D01*
X201441544Y-98573216D01*
X201540147Y-98425646D01*
X201665646Y-98300147D01*
X201813216Y-98201544D01*
X201977188Y-98133624D01*
X202126488Y-98103927D01*
X202151258Y-98099000D01*
X202328742Y-98099000D01*
X202353512Y-98103927D01*
G37*
G36*
X199813512Y-98103927D02*
G01*
X199962812Y-98133624D01*
X200126784Y-98201544D01*
X200274354Y-98300147D01*
X200399853Y-98425646D01*
X200498456Y-98573216D01*
X200566376Y-98737188D01*
X200601000Y-98911259D01*
X200601000Y-99088741D01*
X200566376Y-99262812D01*
X200498456Y-99426784D01*
X200399853Y-99574354D01*
X200274354Y-99699853D01*
X200126784Y-99798456D01*
X199962812Y-99866376D01*
X199813512Y-99896073D01*
X199788742Y-99901000D01*
X199611258Y-99901000D01*
X199586488Y-99896073D01*
X199437188Y-99866376D01*
X199273216Y-99798456D01*
X199125646Y-99699853D01*
X199000147Y-99574354D01*
X198901544Y-99426784D01*
X198833624Y-99262812D01*
X198799000Y-99088741D01*
X198799000Y-98911259D01*
X198833624Y-98737188D01*
X198901544Y-98573216D01*
X199000147Y-98425646D01*
X199125646Y-98300147D01*
X199273216Y-98201544D01*
X199437188Y-98133624D01*
X199586488Y-98103927D01*
X199611258Y-98099000D01*
X199788742Y-98099000D01*
X199813512Y-98103927D01*
G37*
G36*
X197273512Y-98103927D02*
G01*
X197422812Y-98133624D01*
X197586784Y-98201544D01*
X197734354Y-98300147D01*
X197859853Y-98425646D01*
X197958456Y-98573216D01*
X198026376Y-98737188D01*
X198061000Y-98911259D01*
X198061000Y-99088741D01*
X198026376Y-99262812D01*
X197958456Y-99426784D01*
X197859853Y-99574354D01*
X197734354Y-99699853D01*
X197586784Y-99798456D01*
X197422812Y-99866376D01*
X197273512Y-99896073D01*
X197248742Y-99901000D01*
X197071258Y-99901000D01*
X197046488Y-99896073D01*
X196897188Y-99866376D01*
X196733216Y-99798456D01*
X196585646Y-99699853D01*
X196460147Y-99574354D01*
X196361544Y-99426784D01*
X196293624Y-99262812D01*
X196259000Y-99088741D01*
X196259000Y-98911259D01*
X196293624Y-98737188D01*
X196361544Y-98573216D01*
X196460147Y-98425646D01*
X196585646Y-98300147D01*
X196733216Y-98201544D01*
X196897188Y-98133624D01*
X197046488Y-98103927D01*
X197071258Y-98099000D01*
X197248742Y-98099000D01*
X197273512Y-98103927D01*
G37*
G36*
X194733512Y-98103927D02*
G01*
X194882812Y-98133624D01*
X195046784Y-98201544D01*
X195194354Y-98300147D01*
X195319853Y-98425646D01*
X195418456Y-98573216D01*
X195486376Y-98737188D01*
X195521000Y-98911259D01*
X195521000Y-99088741D01*
X195486376Y-99262812D01*
X195418456Y-99426784D01*
X195319853Y-99574354D01*
X195194354Y-99699853D01*
X195046784Y-99798456D01*
X194882812Y-99866376D01*
X194733512Y-99896073D01*
X194708742Y-99901000D01*
X194531258Y-99901000D01*
X194506488Y-99896073D01*
X194357188Y-99866376D01*
X194193216Y-99798456D01*
X194045646Y-99699853D01*
X193920147Y-99574354D01*
X193821544Y-99426784D01*
X193753624Y-99262812D01*
X193719000Y-99088741D01*
X193719000Y-98911259D01*
X193753624Y-98737188D01*
X193821544Y-98573216D01*
X193920147Y-98425646D01*
X194045646Y-98300147D01*
X194193216Y-98201544D01*
X194357188Y-98133624D01*
X194506488Y-98103927D01*
X194531258Y-98099000D01*
X194708742Y-98099000D01*
X194733512Y-98103927D01*
G37*
G36*
X192193512Y-98103927D02*
G01*
X192342812Y-98133624D01*
X192506784Y-98201544D01*
X192654354Y-98300147D01*
X192779853Y-98425646D01*
X192878456Y-98573216D01*
X192946376Y-98737188D01*
X192981000Y-98911259D01*
X192981000Y-99088741D01*
X192946376Y-99262812D01*
X192878456Y-99426784D01*
X192779853Y-99574354D01*
X192654354Y-99699853D01*
X192506784Y-99798456D01*
X192342812Y-99866376D01*
X192193512Y-99896073D01*
X192168742Y-99901000D01*
X191991258Y-99901000D01*
X191966488Y-99896073D01*
X191817188Y-99866376D01*
X191653216Y-99798456D01*
X191505646Y-99699853D01*
X191380147Y-99574354D01*
X191281544Y-99426784D01*
X191213624Y-99262812D01*
X191179000Y-99088741D01*
X191179000Y-98911259D01*
X191213624Y-98737188D01*
X191281544Y-98573216D01*
X191380147Y-98425646D01*
X191505646Y-98300147D01*
X191653216Y-98201544D01*
X191817188Y-98133624D01*
X191966488Y-98103927D01*
X191991258Y-98099000D01*
X192168742Y-98099000D01*
X192193512Y-98103927D01*
G37*
G36*
X189653512Y-98103927D02*
G01*
X189802812Y-98133624D01*
X189966784Y-98201544D01*
X190114354Y-98300147D01*
X190239853Y-98425646D01*
X190338456Y-98573216D01*
X190406376Y-98737188D01*
X190441000Y-98911259D01*
X190441000Y-99088741D01*
X190406376Y-99262812D01*
X190338456Y-99426784D01*
X190239853Y-99574354D01*
X190114354Y-99699853D01*
X189966784Y-99798456D01*
X189802812Y-99866376D01*
X189653512Y-99896073D01*
X189628742Y-99901000D01*
X189451258Y-99901000D01*
X189426488Y-99896073D01*
X189277188Y-99866376D01*
X189113216Y-99798456D01*
X188965646Y-99699853D01*
X188840147Y-99574354D01*
X188741544Y-99426784D01*
X188673624Y-99262812D01*
X188639000Y-99088741D01*
X188639000Y-98911259D01*
X188673624Y-98737188D01*
X188741544Y-98573216D01*
X188840147Y-98425646D01*
X188965646Y-98300147D01*
X189113216Y-98201544D01*
X189277188Y-98133624D01*
X189426488Y-98103927D01*
X189451258Y-98099000D01*
X189628742Y-98099000D01*
X189653512Y-98103927D01*
G37*
G36*
X187901000Y-99901000D02*
G01*
X186099000Y-99901000D01*
X186099000Y-98099000D01*
X187901000Y-98099000D01*
X187901000Y-99901000D01*
G37*
G36*
X178364499Y-95303445D02*
G01*
X178401995Y-95314820D01*
X178436554Y-95333292D01*
X178466847Y-95358153D01*
X178491708Y-95388446D01*
X178510180Y-95423005D01*
X178521555Y-95460501D01*
X178526000Y-95505638D01*
X178526000Y-96244362D01*
X178521555Y-96289499D01*
X178510180Y-96326995D01*
X178491708Y-96361554D01*
X178466847Y-96391847D01*
X178436554Y-96416708D01*
X178401995Y-96435180D01*
X178364499Y-96446555D01*
X178319362Y-96451000D01*
X177680638Y-96451000D01*
X177635501Y-96446555D01*
X177598005Y-96435180D01*
X177563446Y-96416708D01*
X177533153Y-96391847D01*
X177508292Y-96361554D01*
X177489820Y-96326995D01*
X177478445Y-96289499D01*
X177474000Y-96244362D01*
X177474000Y-95505638D01*
X177478445Y-95460501D01*
X177489820Y-95423005D01*
X177508292Y-95388446D01*
X177533153Y-95358153D01*
X177563446Y-95333292D01*
X177598005Y-95314820D01*
X177635501Y-95303445D01*
X177680638Y-95299000D01*
X178319362Y-95299000D01*
X178364499Y-95303445D01*
G37*
G36*
X178364499Y-93553445D02*
G01*
X178401995Y-93564820D01*
X178436554Y-93583292D01*
X178466847Y-93608153D01*
X178491708Y-93638446D01*
X178510180Y-93673005D01*
X178521555Y-93710501D01*
X178526000Y-93755638D01*
X178526000Y-94494362D01*
X178521555Y-94539499D01*
X178510180Y-94576995D01*
X178491708Y-94611554D01*
X178466847Y-94641847D01*
X178436554Y-94666708D01*
X178401995Y-94685180D01*
X178364499Y-94696555D01*
X178319362Y-94701000D01*
X177680638Y-94701000D01*
X177635501Y-94696555D01*
X177598005Y-94685180D01*
X177563446Y-94666708D01*
X177533153Y-94641847D01*
X177508292Y-94611554D01*
X177489820Y-94576995D01*
X177478445Y-94539499D01*
X177474000Y-94494362D01*
X177474000Y-93755638D01*
X177478445Y-93710501D01*
X177489820Y-93673005D01*
X177508292Y-93638446D01*
X177533153Y-93608153D01*
X177563446Y-93583292D01*
X177598005Y-93564820D01*
X177635501Y-93553445D01*
X177680638Y-93549000D01*
X178319362Y-93549000D01*
X178364499Y-93553445D01*
G37*
G36*
X172354928Y-92451764D02*
G01*
X172376009Y-92458160D01*
X172395445Y-92468548D01*
X172412476Y-92482524D01*
X172426452Y-92499555D01*
X172436840Y-92518991D01*
X172443236Y-92540072D01*
X172446000Y-92568140D01*
X172446000Y-94381860D01*
X172443236Y-94409928D01*
X172436840Y-94431009D01*
X172426452Y-94450445D01*
X172412476Y-94467476D01*
X172395445Y-94481452D01*
X172376009Y-94491840D01*
X172354928Y-94498236D01*
X172326860Y-94501000D01*
X171863140Y-94501000D01*
X171835072Y-94498236D01*
X171813991Y-94491840D01*
X171794555Y-94481452D01*
X171777524Y-94467476D01*
X171763548Y-94450445D01*
X171753160Y-94431009D01*
X171746764Y-94409928D01*
X171744000Y-94381860D01*
X171744000Y-92568140D01*
X171746764Y-92540072D01*
X171753160Y-92518991D01*
X171763548Y-92499555D01*
X171777524Y-92482524D01*
X171794555Y-92468548D01*
X171813991Y-92458160D01*
X171835072Y-92451764D01*
X171863140Y-92449000D01*
X172326860Y-92449000D01*
X172354928Y-92451764D01*
G37*
G36*
X173624928Y-92451764D02*
G01*
X173646009Y-92458160D01*
X173665445Y-92468548D01*
X173682476Y-92482524D01*
X173696452Y-92499555D01*
X173706840Y-92518991D01*
X173713236Y-92540072D01*
X173716000Y-92568140D01*
X173716000Y-94381860D01*
X173713236Y-94409928D01*
X173706840Y-94431009D01*
X173696452Y-94450445D01*
X173682476Y-94467476D01*
X173665445Y-94481452D01*
X173646009Y-94491840D01*
X173624928Y-94498236D01*
X173596860Y-94501000D01*
X173133140Y-94501000D01*
X173105072Y-94498236D01*
X173083991Y-94491840D01*
X173064555Y-94481452D01*
X173047524Y-94467476D01*
X173033548Y-94450445D01*
X173023160Y-94431009D01*
X173016764Y-94409928D01*
X173014000Y-94381860D01*
X173014000Y-92568140D01*
X173016764Y-92540072D01*
X173023160Y-92518991D01*
X173033548Y-92499555D01*
X173047524Y-92482524D01*
X173064555Y-92468548D01*
X173083991Y-92458160D01*
X173105072Y-92451764D01*
X173133140Y-92449000D01*
X173596860Y-92449000D01*
X173624928Y-92451764D01*
G37*
G36*
X174894928Y-92451764D02*
G01*
X174916009Y-92458160D01*
X174935445Y-92468548D01*
X174952476Y-92482524D01*
X174966452Y-92499555D01*
X174976840Y-92518991D01*
X174983236Y-92540072D01*
X174986000Y-92568140D01*
X174986000Y-94381860D01*
X174983236Y-94409928D01*
X174976840Y-94431009D01*
X174966452Y-94450445D01*
X174952476Y-94467476D01*
X174935445Y-94481452D01*
X174916009Y-94491840D01*
X174894928Y-94498236D01*
X174866860Y-94501000D01*
X174403140Y-94501000D01*
X174375072Y-94498236D01*
X174353991Y-94491840D01*
X174334555Y-94481452D01*
X174317524Y-94467476D01*
X174303548Y-94450445D01*
X174293160Y-94431009D01*
X174286764Y-94409928D01*
X174284000Y-94381860D01*
X174284000Y-92568140D01*
X174286764Y-92540072D01*
X174293160Y-92518991D01*
X174303548Y-92499555D01*
X174317524Y-92482524D01*
X174334555Y-92468548D01*
X174353991Y-92458160D01*
X174375072Y-92451764D01*
X174403140Y-92449000D01*
X174866860Y-92449000D01*
X174894928Y-92451764D01*
G37*
G36*
X176164928Y-92451764D02*
G01*
X176186009Y-92458160D01*
X176205445Y-92468548D01*
X176222476Y-92482524D01*
X176236452Y-92499555D01*
X176246840Y-92518991D01*
X176253236Y-92540072D01*
X176256000Y-92568140D01*
X176256000Y-94381860D01*
X176253236Y-94409928D01*
X176246840Y-94431009D01*
X176236452Y-94450445D01*
X176222476Y-94467476D01*
X176205445Y-94481452D01*
X176186009Y-94491840D01*
X176164928Y-94498236D01*
X176136860Y-94501000D01*
X175673140Y-94501000D01*
X175645072Y-94498236D01*
X175623991Y-94491840D01*
X175604555Y-94481452D01*
X175587524Y-94467476D01*
X175573548Y-94450445D01*
X175563160Y-94431009D01*
X175556764Y-94409928D01*
X175554000Y-94381860D01*
X175554000Y-92568140D01*
X175556764Y-92540072D01*
X175563160Y-92518991D01*
X175573548Y-92499555D01*
X175587524Y-92482524D01*
X175604555Y-92468548D01*
X175623991Y-92458160D01*
X175645072Y-92451764D01*
X175673140Y-92449000D01*
X176136860Y-92449000D01*
X176164928Y-92451764D01*
G37*
G36*
X199826000Y-94201000D02*
G01*
X198274000Y-94201000D01*
X198274000Y-87799000D01*
X199826000Y-87799000D01*
X199826000Y-94201000D01*
G37*
G36*
X205726000Y-94201000D02*
G01*
X204174000Y-94201000D01*
X204174000Y-87799000D01*
X205726000Y-87799000D01*
X205726000Y-94201000D01*
G37*
G36*
X194364499Y-92303445D02*
G01*
X194401995Y-92314820D01*
X194436554Y-92333292D01*
X194466847Y-92358153D01*
X194491708Y-92388446D01*
X194510180Y-92423005D01*
X194521555Y-92460501D01*
X194526000Y-92505638D01*
X194526000Y-93244362D01*
X194521555Y-93289499D01*
X194510180Y-93326995D01*
X194491708Y-93361554D01*
X194466847Y-93391847D01*
X194436554Y-93416708D01*
X194401995Y-93435180D01*
X194364499Y-93446555D01*
X194319362Y-93451000D01*
X193680638Y-93451000D01*
X193635501Y-93446555D01*
X193598005Y-93435180D01*
X193563446Y-93416708D01*
X193533153Y-93391847D01*
X193508292Y-93361554D01*
X193489820Y-93326995D01*
X193478445Y-93289499D01*
X193474000Y-93244362D01*
X193474000Y-92505638D01*
X193478445Y-92460501D01*
X193489820Y-92423005D01*
X193508292Y-92388446D01*
X193533153Y-92358153D01*
X193563446Y-92333292D01*
X193598005Y-92314820D01*
X193635501Y-92303445D01*
X193680638Y-92299000D01*
X194319362Y-92299000D01*
X194364499Y-92303445D01*
G37*
G36*
X194364499Y-90553445D02*
G01*
X194401995Y-90564820D01*
X194436554Y-90583292D01*
X194466847Y-90608153D01*
X194491708Y-90638446D01*
X194510180Y-90673005D01*
X194521555Y-90710501D01*
X194526000Y-90755638D01*
X194526000Y-91494362D01*
X194521555Y-91539499D01*
X194510180Y-91576995D01*
X194491708Y-91611554D01*
X194466847Y-91641847D01*
X194436554Y-91666708D01*
X194401995Y-91685180D01*
X194364499Y-91696555D01*
X194319362Y-91701000D01*
X193680638Y-91701000D01*
X193635501Y-91696555D01*
X193598005Y-91685180D01*
X193563446Y-91666708D01*
X193533153Y-91641847D01*
X193508292Y-91611554D01*
X193489820Y-91576995D01*
X193478445Y-91539499D01*
X193474000Y-91494362D01*
X193474000Y-90755638D01*
X193478445Y-90710501D01*
X193489820Y-90673005D01*
X193508292Y-90638446D01*
X193533153Y-90608153D01*
X193563446Y-90583292D01*
X193598005Y-90564820D01*
X193635501Y-90553445D01*
X193680638Y-90549000D01*
X194319362Y-90549000D01*
X194364499Y-90553445D01*
G37*
G36*
X172354928Y-87501764D02*
G01*
X172376009Y-87508160D01*
X172395445Y-87518548D01*
X172412476Y-87532524D01*
X172426452Y-87549555D01*
X172436840Y-87568991D01*
X172443236Y-87590072D01*
X172446000Y-87618140D01*
X172446000Y-89431860D01*
X172443236Y-89459928D01*
X172436840Y-89481009D01*
X172426452Y-89500445D01*
X172412476Y-89517476D01*
X172395445Y-89531452D01*
X172376009Y-89541840D01*
X172354928Y-89548236D01*
X172326860Y-89551000D01*
X171863140Y-89551000D01*
X171835072Y-89548236D01*
X171813991Y-89541840D01*
X171794555Y-89531452D01*
X171777524Y-89517476D01*
X171763548Y-89500445D01*
X171753160Y-89481009D01*
X171746764Y-89459928D01*
X171744000Y-89431860D01*
X171744000Y-87618140D01*
X171746764Y-87590072D01*
X171753160Y-87568991D01*
X171763548Y-87549555D01*
X171777524Y-87532524D01*
X171794555Y-87518548D01*
X171813991Y-87508160D01*
X171835072Y-87501764D01*
X171863140Y-87499000D01*
X172326860Y-87499000D01*
X172354928Y-87501764D01*
G37*
G36*
X173624928Y-87501764D02*
G01*
X173646009Y-87508160D01*
X173665445Y-87518548D01*
X173682476Y-87532524D01*
X173696452Y-87549555D01*
X173706840Y-87568991D01*
X173713236Y-87590072D01*
X173716000Y-87618140D01*
X173716000Y-89431860D01*
X173713236Y-89459928D01*
X173706840Y-89481009D01*
X173696452Y-89500445D01*
X173682476Y-89517476D01*
X173665445Y-89531452D01*
X173646009Y-89541840D01*
X173624928Y-89548236D01*
X173596860Y-89551000D01*
X173133140Y-89551000D01*
X173105072Y-89548236D01*
X173083991Y-89541840D01*
X173064555Y-89531452D01*
X173047524Y-89517476D01*
X173033548Y-89500445D01*
X173023160Y-89481009D01*
X173016764Y-89459928D01*
X173014000Y-89431860D01*
X173014000Y-87618140D01*
X173016764Y-87590072D01*
X173023160Y-87568991D01*
X173033548Y-87549555D01*
X173047524Y-87532524D01*
X173064555Y-87518548D01*
X173083991Y-87508160D01*
X173105072Y-87501764D01*
X173133140Y-87499000D01*
X173596860Y-87499000D01*
X173624928Y-87501764D01*
G37*
G36*
X174894928Y-87501764D02*
G01*
X174916009Y-87508160D01*
X174935445Y-87518548D01*
X174952476Y-87532524D01*
X174966452Y-87549555D01*
X174976840Y-87568991D01*
X174983236Y-87590072D01*
X174986000Y-87618140D01*
X174986000Y-89431860D01*
X174983236Y-89459928D01*
X174976840Y-89481009D01*
X174966452Y-89500445D01*
X174952476Y-89517476D01*
X174935445Y-89531452D01*
X174916009Y-89541840D01*
X174894928Y-89548236D01*
X174866860Y-89551000D01*
X174403140Y-89551000D01*
X174375072Y-89548236D01*
X174353991Y-89541840D01*
X174334555Y-89531452D01*
X174317524Y-89517476D01*
X174303548Y-89500445D01*
X174293160Y-89481009D01*
X174286764Y-89459928D01*
X174284000Y-89431860D01*
X174284000Y-87618140D01*
X174286764Y-87590072D01*
X174293160Y-87568991D01*
X174303548Y-87549555D01*
X174317524Y-87532524D01*
X174334555Y-87518548D01*
X174353991Y-87508160D01*
X174375072Y-87501764D01*
X174403140Y-87499000D01*
X174866860Y-87499000D01*
X174894928Y-87501764D01*
G37*
G36*
X176164928Y-87501764D02*
G01*
X176186009Y-87508160D01*
X176205445Y-87518548D01*
X176222476Y-87532524D01*
X176236452Y-87549555D01*
X176246840Y-87568991D01*
X176253236Y-87590072D01*
X176256000Y-87618140D01*
X176256000Y-89431860D01*
X176253236Y-89459928D01*
X176246840Y-89481009D01*
X176236452Y-89500445D01*
X176222476Y-89517476D01*
X176205445Y-89531452D01*
X176186009Y-89541840D01*
X176164928Y-89548236D01*
X176136860Y-89551000D01*
X175673140Y-89551000D01*
X175645072Y-89548236D01*
X175623991Y-89541840D01*
X175604555Y-89531452D01*
X175587524Y-89517476D01*
X175573548Y-89500445D01*
X175563160Y-89481009D01*
X175556764Y-89459928D01*
X175554000Y-89431860D01*
X175554000Y-87618140D01*
X175556764Y-87590072D01*
X175563160Y-87568991D01*
X175573548Y-87549555D01*
X175587524Y-87532524D01*
X175604555Y-87518548D01*
X175623991Y-87508160D01*
X175645072Y-87501764D01*
X175673140Y-87499000D01*
X176136860Y-87499000D01*
X176164928Y-87501764D01*
G37*
G36*
X178364499Y-88303445D02*
G01*
X178401995Y-88314820D01*
X178436554Y-88333292D01*
X178466847Y-88358153D01*
X178491708Y-88388446D01*
X178510180Y-88423005D01*
X178521555Y-88460501D01*
X178526000Y-88505638D01*
X178526000Y-89244362D01*
X178521555Y-89289499D01*
X178510180Y-89326995D01*
X178491708Y-89361554D01*
X178466847Y-89391847D01*
X178436554Y-89416708D01*
X178401995Y-89435180D01*
X178364499Y-89446555D01*
X178319362Y-89451000D01*
X177680638Y-89451000D01*
X177635501Y-89446555D01*
X177598005Y-89435180D01*
X177563446Y-89416708D01*
X177533153Y-89391847D01*
X177508292Y-89361554D01*
X177489820Y-89326995D01*
X177478445Y-89289499D01*
X177474000Y-89244362D01*
X177474000Y-88505638D01*
X177478445Y-88460501D01*
X177489820Y-88423005D01*
X177508292Y-88388446D01*
X177533153Y-88358153D01*
X177563446Y-88333292D01*
X177598005Y-88314820D01*
X177635501Y-88303445D01*
X177680638Y-88299000D01*
X178319362Y-88299000D01*
X178364499Y-88303445D01*
G37*
G36*
X194364499Y-87303445D02*
G01*
X194401995Y-87314820D01*
X194436554Y-87333292D01*
X194466847Y-87358153D01*
X194491708Y-87388446D01*
X194510180Y-87423005D01*
X194521555Y-87460501D01*
X194526000Y-87505638D01*
X194526000Y-88244362D01*
X194521555Y-88289499D01*
X194510180Y-88326995D01*
X194491708Y-88361554D01*
X194466847Y-88391847D01*
X194436554Y-88416708D01*
X194401995Y-88435180D01*
X194364499Y-88446555D01*
X194319362Y-88451000D01*
X193680638Y-88451000D01*
X193635501Y-88446555D01*
X193598005Y-88435180D01*
X193563446Y-88416708D01*
X193533153Y-88391847D01*
X193508292Y-88361554D01*
X193489820Y-88326995D01*
X193478445Y-88289499D01*
X193474000Y-88244362D01*
X193474000Y-87505638D01*
X193478445Y-87460501D01*
X193489820Y-87423005D01*
X193508292Y-87388446D01*
X193533153Y-87358153D01*
X193563446Y-87333292D01*
X193598005Y-87314820D01*
X193635501Y-87303445D01*
X193680638Y-87299000D01*
X194319362Y-87299000D01*
X194364499Y-87303445D01*
G37*
G36*
X186262199Y-85799954D02*
G01*
X186274450Y-85800556D01*
X186292869Y-85800556D01*
X186315149Y-85802750D01*
X186399233Y-85819476D01*
X186420660Y-85825976D01*
X186499858Y-85858780D01*
X186505303Y-85861691D01*
X186505309Y-85861693D01*
X186514169Y-85866429D01*
X186514173Y-85866432D01*
X186519614Y-85869340D01*
X186590899Y-85916971D01*
X186608204Y-85931172D01*
X186668828Y-85991796D01*
X186683029Y-86009101D01*
X186730660Y-86080386D01*
X186733568Y-86085827D01*
X186733571Y-86085831D01*
X186738307Y-86094691D01*
X186738309Y-86094697D01*
X186741220Y-86100142D01*
X186774024Y-86179340D01*
X186780524Y-86200767D01*
X186797250Y-86284851D01*
X186799444Y-86307131D01*
X186799444Y-86325550D01*
X186800046Y-86337801D01*
X186801852Y-86356139D01*
X186801852Y-86843860D01*
X186800263Y-86859999D01*
X186797348Y-86869608D01*
X186792610Y-86878472D01*
X186786237Y-86886237D01*
X186773794Y-86896448D01*
X186763425Y-86903378D01*
X186746098Y-86920705D01*
X186732485Y-86941080D01*
X186723109Y-86963720D01*
X186718329Y-86987753D01*
X186718330Y-87012257D01*
X186723112Y-87036290D01*
X186732490Y-87058929D01*
X186746105Y-87079302D01*
X186763432Y-87096629D01*
X186773802Y-87103558D01*
X186786237Y-87113763D01*
X186792610Y-87121528D01*
X186797348Y-87130392D01*
X186800263Y-87140001D01*
X186801852Y-87156140D01*
X186801852Y-87643862D01*
X186800046Y-87662199D01*
X186799444Y-87674450D01*
X186799444Y-87692869D01*
X186797250Y-87715149D01*
X186780524Y-87799233D01*
X186774024Y-87820660D01*
X186741220Y-87899858D01*
X186738309Y-87905303D01*
X186738307Y-87905309D01*
X186733571Y-87914169D01*
X186733568Y-87914173D01*
X186730660Y-87919614D01*
X186683029Y-87990899D01*
X186668828Y-88008204D01*
X186608204Y-88068828D01*
X186590899Y-88083029D01*
X186519614Y-88130660D01*
X186514173Y-88133568D01*
X186514169Y-88133571D01*
X186505309Y-88138307D01*
X186505303Y-88138309D01*
X186499858Y-88141220D01*
X186420660Y-88174024D01*
X186399233Y-88180524D01*
X186315149Y-88197250D01*
X186292869Y-88199444D01*
X186274450Y-88199444D01*
X186262199Y-88200046D01*
X186243862Y-88201852D01*
X185756138Y-88201852D01*
X185737801Y-88200046D01*
X185725550Y-88199444D01*
X185707131Y-88199444D01*
X185684851Y-88197250D01*
X185600767Y-88180524D01*
X185579340Y-88174024D01*
X185500142Y-88141220D01*
X185494697Y-88138309D01*
X185494691Y-88138307D01*
X185485831Y-88133571D01*
X185485827Y-88133568D01*
X185480386Y-88130660D01*
X185409101Y-88083029D01*
X185391796Y-88068828D01*
X185331172Y-88008204D01*
X185316971Y-87990899D01*
X185269340Y-87919614D01*
X185266432Y-87914173D01*
X185266429Y-87914169D01*
X185261693Y-87905309D01*
X185261691Y-87905303D01*
X185258780Y-87899858D01*
X185225976Y-87820660D01*
X185219476Y-87799233D01*
X185202750Y-87715149D01*
X185200556Y-87692869D01*
X185200556Y-87674450D01*
X185199954Y-87662199D01*
X185198148Y-87643862D01*
X185198148Y-87156140D01*
X185199737Y-87140001D01*
X185202652Y-87130392D01*
X185207390Y-87121528D01*
X185213763Y-87113763D01*
X185226206Y-87103552D01*
X185236575Y-87096622D01*
X185253902Y-87079295D01*
X185267515Y-87058920D01*
X185276891Y-87036280D01*
X185281671Y-87012247D01*
X185281670Y-86987743D01*
X185276888Y-86963710D01*
X185267510Y-86941071D01*
X185253895Y-86920698D01*
X185236568Y-86903371D01*
X185226198Y-86896442D01*
X185213763Y-86886237D01*
X185207390Y-86878472D01*
X185202652Y-86869608D01*
X185199737Y-86859999D01*
X185198148Y-86843860D01*
X185198148Y-86356139D01*
X185199954Y-86337801D01*
X185200556Y-86325550D01*
X185200556Y-86307131D01*
X185202750Y-86284851D01*
X185219476Y-86200767D01*
X185225976Y-86179340D01*
X185258780Y-86100142D01*
X185261691Y-86094697D01*
X185261693Y-86094691D01*
X185266429Y-86085831D01*
X185266432Y-86085827D01*
X185269340Y-86080386D01*
X185316971Y-86009101D01*
X185331172Y-85991796D01*
X185391796Y-85931172D01*
X185409101Y-85916971D01*
X185480386Y-85869340D01*
X185485827Y-85866432D01*
X185485831Y-85866429D01*
X185494691Y-85861693D01*
X185494697Y-85861691D01*
X185500142Y-85858780D01*
X185579340Y-85825976D01*
X185600767Y-85819476D01*
X185684851Y-85802750D01*
X185707131Y-85800556D01*
X185725550Y-85800556D01*
X185737801Y-85799954D01*
X185756139Y-85798148D01*
X186243861Y-85798148D01*
X186262199Y-85799954D01*
G37*
G36*
X178364499Y-86553445D02*
G01*
X178401995Y-86564820D01*
X178436554Y-86583292D01*
X178466847Y-86608153D01*
X178491708Y-86638446D01*
X178510180Y-86673005D01*
X178521555Y-86710501D01*
X178526000Y-86755638D01*
X178526000Y-87494362D01*
X178521555Y-87539499D01*
X178510180Y-87576995D01*
X178491708Y-87611554D01*
X178466847Y-87641847D01*
X178436554Y-87666708D01*
X178401995Y-87685180D01*
X178364499Y-87696555D01*
X178319362Y-87701000D01*
X177680638Y-87701000D01*
X177635501Y-87696555D01*
X177598005Y-87685180D01*
X177563446Y-87666708D01*
X177533153Y-87641847D01*
X177508292Y-87611554D01*
X177489820Y-87576995D01*
X177478445Y-87539499D01*
X177474000Y-87494362D01*
X177474000Y-86755638D01*
X177478445Y-86710501D01*
X177489820Y-86673005D01*
X177508292Y-86638446D01*
X177533153Y-86608153D01*
X177563446Y-86583292D01*
X177598005Y-86564820D01*
X177635501Y-86553445D01*
X177680638Y-86549000D01*
X178319362Y-86549000D01*
X178364499Y-86553445D01*
G37*
G36*
X167859999Y-85199737D02*
G01*
X167869608Y-85202652D01*
X167878472Y-85207390D01*
X167886237Y-85213763D01*
X167896448Y-85226206D01*
X167903378Y-85236575D01*
X167920705Y-85253902D01*
X167941080Y-85267515D01*
X167963720Y-85276891D01*
X167987753Y-85281671D01*
X168012257Y-85281670D01*
X168036290Y-85276888D01*
X168058929Y-85267510D01*
X168079302Y-85253895D01*
X168096629Y-85236568D01*
X168103558Y-85226198D01*
X168113763Y-85213763D01*
X168121528Y-85207390D01*
X168130392Y-85202652D01*
X168140001Y-85199737D01*
X168156140Y-85198148D01*
X168643861Y-85198148D01*
X168662199Y-85199954D01*
X168674450Y-85200556D01*
X168692869Y-85200556D01*
X168715149Y-85202750D01*
X168799233Y-85219476D01*
X168820660Y-85225976D01*
X168899858Y-85258780D01*
X168905303Y-85261691D01*
X168905309Y-85261693D01*
X168914169Y-85266429D01*
X168914173Y-85266432D01*
X168919614Y-85269340D01*
X168990899Y-85316971D01*
X169008204Y-85331172D01*
X169068828Y-85391796D01*
X169083029Y-85409101D01*
X169130660Y-85480386D01*
X169133568Y-85485827D01*
X169133571Y-85485831D01*
X169138307Y-85494691D01*
X169138309Y-85494697D01*
X169141220Y-85500142D01*
X169174024Y-85579340D01*
X169180524Y-85600767D01*
X169197250Y-85684851D01*
X169199444Y-85707131D01*
X169199444Y-85725550D01*
X169200046Y-85737801D01*
X169201852Y-85756139D01*
X169201852Y-86243862D01*
X169200046Y-86262199D01*
X169199444Y-86274450D01*
X169199444Y-86292869D01*
X169197250Y-86315149D01*
X169180524Y-86399233D01*
X169174024Y-86420660D01*
X169141220Y-86499858D01*
X169138309Y-86505303D01*
X169138307Y-86505309D01*
X169133571Y-86514169D01*
X169133568Y-86514173D01*
X169130660Y-86519614D01*
X169083029Y-86590899D01*
X169068828Y-86608204D01*
X169008204Y-86668828D01*
X168990899Y-86683029D01*
X168919614Y-86730660D01*
X168914173Y-86733568D01*
X168914169Y-86733571D01*
X168905309Y-86738307D01*
X168905303Y-86738309D01*
X168899858Y-86741220D01*
X168820660Y-86774024D01*
X168799233Y-86780524D01*
X168715149Y-86797250D01*
X168692869Y-86799444D01*
X168674450Y-86799444D01*
X168662199Y-86800046D01*
X168643862Y-86801852D01*
X168156140Y-86801852D01*
X168140001Y-86800263D01*
X168130392Y-86797348D01*
X168121528Y-86792610D01*
X168113763Y-86786237D01*
X168103552Y-86773794D01*
X168096622Y-86763425D01*
X168079295Y-86746098D01*
X168058920Y-86732485D01*
X168036280Y-86723109D01*
X168012247Y-86718329D01*
X167987743Y-86718330D01*
X167963710Y-86723112D01*
X167941071Y-86732490D01*
X167920698Y-86746105D01*
X167903371Y-86763432D01*
X167896442Y-86773802D01*
X167886237Y-86786237D01*
X167878472Y-86792610D01*
X167869608Y-86797348D01*
X167859999Y-86800263D01*
X167843860Y-86801852D01*
X167356138Y-86801852D01*
X167337801Y-86800046D01*
X167325550Y-86799444D01*
X167307131Y-86799444D01*
X167284851Y-86797250D01*
X167200767Y-86780524D01*
X167179340Y-86774024D01*
X167100142Y-86741220D01*
X167094697Y-86738309D01*
X167094691Y-86738307D01*
X167085831Y-86733571D01*
X167085827Y-86733568D01*
X167080386Y-86730660D01*
X167009101Y-86683029D01*
X166991796Y-86668828D01*
X166931172Y-86608204D01*
X166916971Y-86590899D01*
X166869340Y-86519614D01*
X166866432Y-86514173D01*
X166866429Y-86514169D01*
X166861693Y-86505309D01*
X166861691Y-86505303D01*
X166858780Y-86499858D01*
X166825976Y-86420660D01*
X166819476Y-86399233D01*
X166802750Y-86315149D01*
X166800556Y-86292869D01*
X166800556Y-86274450D01*
X166799954Y-86262199D01*
X166798148Y-86243862D01*
X166798148Y-85756139D01*
X166799954Y-85737801D01*
X166800556Y-85725550D01*
X166800556Y-85707131D01*
X166802750Y-85684851D01*
X166819476Y-85600767D01*
X166825976Y-85579340D01*
X166858780Y-85500142D01*
X166861691Y-85494697D01*
X166861693Y-85494691D01*
X166866429Y-85485831D01*
X166866432Y-85485827D01*
X166869340Y-85480386D01*
X166916971Y-85409101D01*
X166931172Y-85391796D01*
X166991796Y-85331172D01*
X167009101Y-85316971D01*
X167080386Y-85269340D01*
X167085827Y-85266432D01*
X167085831Y-85266429D01*
X167094691Y-85261693D01*
X167094697Y-85261691D01*
X167100142Y-85258780D01*
X167179340Y-85225976D01*
X167200767Y-85219476D01*
X167284851Y-85202750D01*
X167307131Y-85200556D01*
X167325550Y-85200556D01*
X167337801Y-85199954D01*
X167356139Y-85198148D01*
X167843860Y-85198148D01*
X167859999Y-85199737D01*
G37*
G36*
X194364499Y-85553445D02*
G01*
X194401995Y-85564820D01*
X194436554Y-85583292D01*
X194466847Y-85608153D01*
X194491708Y-85638446D01*
X194510180Y-85673005D01*
X194521555Y-85710501D01*
X194526000Y-85755638D01*
X194526000Y-86494362D01*
X194521555Y-86539499D01*
X194510180Y-86576995D01*
X194491708Y-86611554D01*
X194466847Y-86641847D01*
X194436554Y-86666708D01*
X194401995Y-86685180D01*
X194364499Y-86696555D01*
X194319362Y-86701000D01*
X193680638Y-86701000D01*
X193635501Y-86696555D01*
X193598005Y-86685180D01*
X193563446Y-86666708D01*
X193533153Y-86641847D01*
X193508292Y-86611554D01*
X193489820Y-86576995D01*
X193478445Y-86539499D01*
X193474000Y-86494362D01*
X193474000Y-85755638D01*
X193478445Y-85710501D01*
X193489820Y-85673005D01*
X193508292Y-85638446D01*
X193533153Y-85608153D01*
X193563446Y-85583292D01*
X193598005Y-85564820D01*
X193635501Y-85553445D01*
X193680638Y-85549000D01*
X194319362Y-85549000D01*
X194364499Y-85553445D01*
G37*
G36*
X197651000Y-83701000D02*
G01*
X196349000Y-83701000D01*
X196349000Y-82399000D01*
X197651000Y-82399000D01*
X197651000Y-83701000D01*
G37*
G36*
X170379434Y-80053686D02*
G01*
X170419284Y-80065774D01*
X170455999Y-80085399D01*
X170488186Y-80111814D01*
X170514601Y-80144001D01*
X170534226Y-80180716D01*
X170546314Y-80220566D01*
X170551000Y-80268141D01*
X170551000Y-83431859D01*
X170546314Y-83479434D01*
X170534226Y-83519284D01*
X170514601Y-83555999D01*
X170488186Y-83588186D01*
X170455999Y-83614601D01*
X170419284Y-83634226D01*
X170379434Y-83646314D01*
X170331859Y-83651000D01*
X169668141Y-83651000D01*
X169620566Y-83646314D01*
X169580716Y-83634226D01*
X169544001Y-83614601D01*
X169511814Y-83588186D01*
X169485399Y-83555999D01*
X169465774Y-83519284D01*
X169453686Y-83479434D01*
X169449000Y-83431859D01*
X169449000Y-80268141D01*
X169453686Y-80220566D01*
X169465774Y-80180716D01*
X169485399Y-80144001D01*
X169511814Y-80111814D01*
X169544001Y-80085399D01*
X169580716Y-80065774D01*
X169620566Y-80053686D01*
X169668141Y-80049000D01*
X170331859Y-80049000D01*
X170379434Y-80053686D01*
G37*
G36*
X172379434Y-80053686D02*
G01*
X172419284Y-80065774D01*
X172455999Y-80085399D01*
X172488186Y-80111814D01*
X172514601Y-80144001D01*
X172534226Y-80180716D01*
X172546314Y-80220566D01*
X172551000Y-80268141D01*
X172551000Y-83431859D01*
X172546314Y-83479434D01*
X172534226Y-83519284D01*
X172514601Y-83555999D01*
X172488186Y-83588186D01*
X172455999Y-83614601D01*
X172419284Y-83634226D01*
X172379434Y-83646314D01*
X172331859Y-83651000D01*
X171668141Y-83651000D01*
X171620566Y-83646314D01*
X171580716Y-83634226D01*
X171544001Y-83614601D01*
X171511814Y-83588186D01*
X171485399Y-83555999D01*
X171465774Y-83519284D01*
X171453686Y-83479434D01*
X171449000Y-83431859D01*
X171449000Y-80268141D01*
X171453686Y-80220566D01*
X171465774Y-80180716D01*
X171485399Y-80144001D01*
X171511814Y-80111814D01*
X171544001Y-80085399D01*
X171580716Y-80065774D01*
X171620566Y-80053686D01*
X171668141Y-80049000D01*
X172331859Y-80049000D01*
X172379434Y-80053686D01*
G37*
G36*
X176379434Y-80053686D02*
G01*
X176419284Y-80065774D01*
X176455999Y-80085399D01*
X176488186Y-80111814D01*
X176514601Y-80144001D01*
X176534226Y-80180716D01*
X176546314Y-80220566D01*
X176551000Y-80268141D01*
X176551000Y-83431859D01*
X176546314Y-83479434D01*
X176534226Y-83519284D01*
X176514601Y-83555999D01*
X176488186Y-83588186D01*
X176455999Y-83614601D01*
X176419284Y-83634226D01*
X176379434Y-83646314D01*
X176331859Y-83651000D01*
X175668141Y-83651000D01*
X175620566Y-83646314D01*
X175580716Y-83634226D01*
X175544001Y-83614601D01*
X175511814Y-83588186D01*
X175485399Y-83555999D01*
X175465774Y-83519284D01*
X175453686Y-83479434D01*
X175449000Y-83431859D01*
X175449000Y-80268141D01*
X175453686Y-80220566D01*
X175465774Y-80180716D01*
X175485399Y-80144001D01*
X175511814Y-80111814D01*
X175544001Y-80085399D01*
X175580716Y-80065774D01*
X175620566Y-80053686D01*
X175668141Y-80049000D01*
X176331859Y-80049000D01*
X176379434Y-80053686D01*
G37*
G36*
X174379434Y-80053686D02*
G01*
X174419284Y-80065774D01*
X174455999Y-80085399D01*
X174488186Y-80111814D01*
X174514601Y-80144001D01*
X174534226Y-80180716D01*
X174546314Y-80220566D01*
X174551000Y-80268141D01*
X174551000Y-83431859D01*
X174546314Y-83479434D01*
X174534226Y-83519284D01*
X174514601Y-83555999D01*
X174488186Y-83588186D01*
X174455999Y-83614601D01*
X174419284Y-83634226D01*
X174379434Y-83646314D01*
X174331859Y-83651000D01*
X173668141Y-83651000D01*
X173620566Y-83646314D01*
X173580716Y-83634226D01*
X173544001Y-83614601D01*
X173511814Y-83588186D01*
X173485399Y-83555999D01*
X173465774Y-83519284D01*
X173453686Y-83479434D01*
X173449000Y-83431859D01*
X173449000Y-80268141D01*
X173453686Y-80220566D01*
X173465774Y-80180716D01*
X173485399Y-80144001D01*
X173511814Y-80111814D01*
X173544001Y-80085399D01*
X173580716Y-80065774D01*
X173620566Y-80053686D01*
X173668141Y-80049000D01*
X174331859Y-80049000D01*
X174379434Y-80053686D01*
G37*
G36*
X185539499Y-82478445D02*
G01*
X185576995Y-82489820D01*
X185611554Y-82508292D01*
X185641847Y-82533153D01*
X185666708Y-82563446D01*
X185685180Y-82598005D01*
X185696555Y-82635501D01*
X185701000Y-82680638D01*
X185701000Y-83319362D01*
X185696555Y-83364499D01*
X185685180Y-83401995D01*
X185666708Y-83436554D01*
X185641847Y-83466847D01*
X185611554Y-83491708D01*
X185576995Y-83510180D01*
X185539499Y-83521555D01*
X185494362Y-83526000D01*
X184755638Y-83526000D01*
X184710501Y-83521555D01*
X184673005Y-83510180D01*
X184638446Y-83491708D01*
X184608153Y-83466847D01*
X184583292Y-83436554D01*
X184564820Y-83401995D01*
X184553445Y-83364499D01*
X184549000Y-83319362D01*
X184549000Y-82680638D01*
X184553445Y-82635501D01*
X184564820Y-82598005D01*
X184583292Y-82563446D01*
X184608153Y-82533153D01*
X184638446Y-82508292D01*
X184673005Y-82489820D01*
X184710501Y-82478445D01*
X184755638Y-82474000D01*
X185494362Y-82474000D01*
X185539499Y-82478445D01*
G37*
G36*
X187289499Y-82478445D02*
G01*
X187326995Y-82489820D01*
X187361554Y-82508292D01*
X187391847Y-82533153D01*
X187416708Y-82563446D01*
X187435180Y-82598005D01*
X187446555Y-82635501D01*
X187451000Y-82680638D01*
X187451000Y-83319362D01*
X187446555Y-83364499D01*
X187435180Y-83401995D01*
X187416708Y-83436554D01*
X187391847Y-83466847D01*
X187361554Y-83491708D01*
X187326995Y-83510180D01*
X187289499Y-83521555D01*
X187244362Y-83526000D01*
X186505638Y-83526000D01*
X186460501Y-83521555D01*
X186423005Y-83510180D01*
X186388446Y-83491708D01*
X186358153Y-83466847D01*
X186333292Y-83436554D01*
X186314820Y-83401995D01*
X186303445Y-83364499D01*
X186299000Y-83319362D01*
X186299000Y-82680638D01*
X186303445Y-82635501D01*
X186314820Y-82598005D01*
X186333292Y-82563446D01*
X186358153Y-82533153D01*
X186388446Y-82508292D01*
X186423005Y-82489820D01*
X186460501Y-82478445D01*
X186505638Y-82474000D01*
X187244362Y-82474000D01*
X187289499Y-82478445D01*
G37*
G36*
X206351000Y-83351000D02*
G01*
X203649000Y-83351000D01*
X203649000Y-80649000D01*
X206351000Y-80649000D01*
X206351000Y-83351000D01*
G37*
G36*
X192359999Y-80199737D02*
G01*
X192369608Y-80202652D01*
X192378472Y-80207390D01*
X192386237Y-80213763D01*
X192396448Y-80226206D01*
X192403378Y-80236575D01*
X192420705Y-80253902D01*
X192441080Y-80267515D01*
X192463720Y-80276891D01*
X192487753Y-80281671D01*
X192512257Y-80281670D01*
X192536290Y-80276888D01*
X192558929Y-80267510D01*
X192579302Y-80253895D01*
X192596629Y-80236568D01*
X192603558Y-80226198D01*
X192613763Y-80213763D01*
X192621528Y-80207390D01*
X192630392Y-80202652D01*
X192640001Y-80199737D01*
X192656140Y-80198148D01*
X193143861Y-80198148D01*
X193162199Y-80199954D01*
X193174450Y-80200556D01*
X193192869Y-80200556D01*
X193215149Y-80202750D01*
X193299233Y-80219476D01*
X193320660Y-80225976D01*
X193399858Y-80258780D01*
X193405303Y-80261691D01*
X193405309Y-80261693D01*
X193414169Y-80266429D01*
X193414173Y-80266432D01*
X193419614Y-80269340D01*
X193490899Y-80316971D01*
X193508204Y-80331172D01*
X193568828Y-80391796D01*
X193583029Y-80409101D01*
X193630660Y-80480386D01*
X193633568Y-80485827D01*
X193633571Y-80485831D01*
X193638307Y-80494691D01*
X193638309Y-80494697D01*
X193641220Y-80500142D01*
X193674024Y-80579340D01*
X193680524Y-80600767D01*
X193697250Y-80684851D01*
X193699444Y-80707131D01*
X193699444Y-80725550D01*
X193700046Y-80737801D01*
X193701852Y-80756139D01*
X193701852Y-81243862D01*
X193700046Y-81262199D01*
X193699444Y-81274450D01*
X193699444Y-81292869D01*
X193697250Y-81315149D01*
X193680524Y-81399233D01*
X193674024Y-81420660D01*
X193641220Y-81499858D01*
X193638309Y-81505303D01*
X193638307Y-81505309D01*
X193633571Y-81514169D01*
X193633568Y-81514173D01*
X193630660Y-81519614D01*
X193583029Y-81590899D01*
X193568828Y-81608204D01*
X193508204Y-81668828D01*
X193490899Y-81683029D01*
X193419614Y-81730660D01*
X193414173Y-81733568D01*
X193414169Y-81733571D01*
X193405309Y-81738307D01*
X193405303Y-81738309D01*
X193399858Y-81741220D01*
X193320660Y-81774024D01*
X193299233Y-81780524D01*
X193215149Y-81797250D01*
X193192869Y-81799444D01*
X193174450Y-81799444D01*
X193162199Y-81800046D01*
X193143862Y-81801852D01*
X192656140Y-81801852D01*
X192640001Y-81800263D01*
X192630392Y-81797348D01*
X192621528Y-81792610D01*
X192613763Y-81786237D01*
X192603552Y-81773794D01*
X192596622Y-81763425D01*
X192579295Y-81746098D01*
X192558920Y-81732485D01*
X192536280Y-81723109D01*
X192512247Y-81718329D01*
X192487743Y-81718330D01*
X192463710Y-81723112D01*
X192441071Y-81732490D01*
X192420698Y-81746105D01*
X192403371Y-81763432D01*
X192396442Y-81773802D01*
X192386237Y-81786237D01*
X192378472Y-81792610D01*
X192369608Y-81797348D01*
X192359999Y-81800263D01*
X192343860Y-81801852D01*
X191856138Y-81801852D01*
X191837801Y-81800046D01*
X191825550Y-81799444D01*
X191807131Y-81799444D01*
X191784851Y-81797250D01*
X191700767Y-81780524D01*
X191679340Y-81774024D01*
X191600142Y-81741220D01*
X191594697Y-81738309D01*
X191594691Y-81738307D01*
X191585831Y-81733571D01*
X191585827Y-81733568D01*
X191580386Y-81730660D01*
X191509101Y-81683029D01*
X191491796Y-81668828D01*
X191431172Y-81608204D01*
X191416971Y-81590899D01*
X191369340Y-81519614D01*
X191366432Y-81514173D01*
X191366429Y-81514169D01*
X191361693Y-81505309D01*
X191361691Y-81505303D01*
X191358780Y-81499858D01*
X191325976Y-81420660D01*
X191319476Y-81399233D01*
X191302750Y-81315149D01*
X191300556Y-81292869D01*
X191300556Y-81274450D01*
X191299954Y-81262199D01*
X191298148Y-81243862D01*
X191298148Y-80756139D01*
X191299954Y-80737801D01*
X191300556Y-80725550D01*
X191300556Y-80707131D01*
X191302750Y-80684851D01*
X191319476Y-80600767D01*
X191325976Y-80579340D01*
X191358780Y-80500142D01*
X191361691Y-80494697D01*
X191361693Y-80494691D01*
X191366429Y-80485831D01*
X191366432Y-80485827D01*
X191369340Y-80480386D01*
X191416971Y-80409101D01*
X191431172Y-80391796D01*
X191491796Y-80331172D01*
X191509101Y-80316971D01*
X191580386Y-80269340D01*
X191585827Y-80266432D01*
X191585831Y-80266429D01*
X191594691Y-80261693D01*
X191594697Y-80261691D01*
X191600142Y-80258780D01*
X191679340Y-80225976D01*
X191700767Y-80219476D01*
X191784851Y-80202750D01*
X191807131Y-80200556D01*
X191825550Y-80200556D01*
X191837801Y-80199954D01*
X191856139Y-80198148D01*
X192343860Y-80198148D01*
X192359999Y-80199737D01*
G37*
G36*
X187326000Y-81681000D02*
G01*
X186574000Y-81681000D01*
X186574000Y-80519000D01*
X187326000Y-80519000D01*
X187326000Y-81681000D01*
G37*
G36*
X185426000Y-81681000D02*
G01*
X184674000Y-81681000D01*
X184674000Y-80519000D01*
X185426000Y-80519000D01*
X185426000Y-81681000D01*
G37*
G36*
X197651000Y-81601000D02*
G01*
X196349000Y-81601000D01*
X196349000Y-80299000D01*
X197651000Y-80299000D01*
X197651000Y-81601000D01*
G37*
G36*
X187326000Y-79481000D02*
G01*
X184674000Y-79481000D01*
X184674000Y-78319000D01*
X187326000Y-78319000D01*
X187326000Y-79481000D01*
G37*
G36*
X197364499Y-78303445D02*
G01*
X197401995Y-78314820D01*
X197436554Y-78333292D01*
X197466847Y-78358153D01*
X197491708Y-78388446D01*
X197510180Y-78423005D01*
X197521555Y-78460501D01*
X197526000Y-78505638D01*
X197526000Y-79244362D01*
X197521555Y-79289499D01*
X197510180Y-79326995D01*
X197491708Y-79361554D01*
X197466847Y-79391847D01*
X197436554Y-79416708D01*
X197401995Y-79435180D01*
X197364499Y-79446555D01*
X197319362Y-79451000D01*
X196680638Y-79451000D01*
X196635501Y-79446555D01*
X196598005Y-79435180D01*
X196563446Y-79416708D01*
X196533153Y-79391847D01*
X196508292Y-79361554D01*
X196489820Y-79326995D01*
X196478445Y-79289499D01*
X196474000Y-79244362D01*
X196474000Y-78505638D01*
X196478445Y-78460501D01*
X196489820Y-78423005D01*
X196508292Y-78388446D01*
X196533153Y-78358153D01*
X196563446Y-78333292D01*
X196598005Y-78314820D01*
X196635501Y-78303445D01*
X196680638Y-78299000D01*
X197319362Y-78299000D01*
X197364499Y-78303445D01*
G37*
G36*
X205394072Y-75620918D02*
G01*
X205639939Y-75722759D01*
X205861212Y-75870610D01*
X206049390Y-76058788D01*
X206188855Y-76267510D01*
X206197242Y-76280063D01*
X206299082Y-76525928D01*
X206351000Y-76786937D01*
X206351000Y-77053063D01*
X206299082Y-77314072D01*
X206197242Y-77559937D01*
X206051222Y-77778471D01*
X206049390Y-77781212D01*
X205861212Y-77969390D01*
X205639939Y-78117241D01*
X205639938Y-78117242D01*
X205639937Y-78117242D01*
X205394072Y-78219082D01*
X205133063Y-78271000D01*
X204866937Y-78271000D01*
X204605928Y-78219082D01*
X204360063Y-78117242D01*
X204360062Y-78117242D01*
X204360061Y-78117241D01*
X204138788Y-77969390D01*
X203950610Y-77781212D01*
X203948779Y-77778471D01*
X203802758Y-77559937D01*
X203700918Y-77314072D01*
X203649000Y-77053063D01*
X203649000Y-76786937D01*
X203700918Y-76525928D01*
X203802758Y-76280063D01*
X203811146Y-76267510D01*
X203950610Y-76058788D01*
X204138788Y-75870610D01*
X204360061Y-75722759D01*
X204605928Y-75620918D01*
X204866937Y-75569000D01*
X205133063Y-75569000D01*
X205394072Y-75620918D01*
G37*
G36*
X179003048Y-74353122D02*
G01*
X179037387Y-74363539D01*
X179069036Y-74380456D01*
X179096778Y-74403222D01*
X179119544Y-74430964D01*
X179136461Y-74462613D01*
X179146878Y-74496952D01*
X179151000Y-74538807D01*
X179151000Y-77661193D01*
X179146878Y-77703048D01*
X179136461Y-77737387D01*
X179119544Y-77769036D01*
X179096778Y-77796778D01*
X179069036Y-77819544D01*
X179037387Y-77836461D01*
X179003048Y-77846878D01*
X178961193Y-77851000D01*
X177738807Y-77851000D01*
X177696952Y-77846878D01*
X177662613Y-77836461D01*
X177630964Y-77819544D01*
X177603222Y-77796778D01*
X177580456Y-77769036D01*
X177563539Y-77737387D01*
X177553122Y-77703048D01*
X177549000Y-77661193D01*
X177549000Y-74538807D01*
X177553122Y-74496952D01*
X177563539Y-74462613D01*
X177580456Y-74430964D01*
X177603222Y-74403222D01*
X177630964Y-74380456D01*
X177662613Y-74363539D01*
X177696952Y-74353122D01*
X177738807Y-74349000D01*
X178961193Y-74349000D01*
X179003048Y-74353122D01*
G37*
G36*
X168303048Y-74353122D02*
G01*
X168337387Y-74363539D01*
X168369036Y-74380456D01*
X168396778Y-74403222D01*
X168419544Y-74430964D01*
X168436461Y-74462613D01*
X168446878Y-74496952D01*
X168451000Y-74538807D01*
X168451000Y-77661193D01*
X168446878Y-77703048D01*
X168436461Y-77737387D01*
X168419544Y-77769036D01*
X168396778Y-77796778D01*
X168369036Y-77819544D01*
X168337387Y-77836461D01*
X168303048Y-77846878D01*
X168261193Y-77851000D01*
X167038807Y-77851000D01*
X166996952Y-77846878D01*
X166962613Y-77836461D01*
X166930964Y-77819544D01*
X166903222Y-77796778D01*
X166880456Y-77769036D01*
X166863539Y-77737387D01*
X166853122Y-77703048D01*
X166849000Y-77661193D01*
X166849000Y-74538807D01*
X166853122Y-74496952D01*
X166863539Y-74462613D01*
X166880456Y-74430964D01*
X166903222Y-74403222D01*
X166930964Y-74380456D01*
X166962613Y-74363539D01*
X166996952Y-74353122D01*
X167038807Y-74349000D01*
X168261193Y-74349000D01*
X168303048Y-74353122D01*
G37*
G36*
X181859999Y-76199737D02*
G01*
X181869608Y-76202652D01*
X181878472Y-76207390D01*
X181886237Y-76213763D01*
X181896448Y-76226206D01*
X181903378Y-76236575D01*
X181920705Y-76253902D01*
X181941080Y-76267515D01*
X181963720Y-76276891D01*
X181987753Y-76281671D01*
X182012257Y-76281670D01*
X182036290Y-76276888D01*
X182058929Y-76267510D01*
X182079302Y-76253895D01*
X182096629Y-76236568D01*
X182103558Y-76226198D01*
X182113763Y-76213763D01*
X182121528Y-76207390D01*
X182130392Y-76202652D01*
X182140001Y-76199737D01*
X182156140Y-76198148D01*
X182643861Y-76198148D01*
X182662199Y-76199954D01*
X182674450Y-76200556D01*
X182692869Y-76200556D01*
X182715149Y-76202750D01*
X182799233Y-76219476D01*
X182820660Y-76225976D01*
X182899858Y-76258780D01*
X182905303Y-76261691D01*
X182905309Y-76261693D01*
X182914169Y-76266429D01*
X182914173Y-76266432D01*
X182919614Y-76269340D01*
X182990899Y-76316971D01*
X183008204Y-76331172D01*
X183068828Y-76391796D01*
X183083029Y-76409101D01*
X183130660Y-76480386D01*
X183133568Y-76485827D01*
X183133571Y-76485831D01*
X183138307Y-76494691D01*
X183138309Y-76494697D01*
X183141220Y-76500142D01*
X183174024Y-76579340D01*
X183180524Y-76600767D01*
X183197250Y-76684851D01*
X183199444Y-76707131D01*
X183199444Y-76725550D01*
X183200046Y-76737801D01*
X183201852Y-76756139D01*
X183201852Y-77243862D01*
X183200046Y-77262199D01*
X183199444Y-77274450D01*
X183199444Y-77292869D01*
X183197250Y-77315149D01*
X183180524Y-77399233D01*
X183174024Y-77420660D01*
X183141220Y-77499858D01*
X183138309Y-77505303D01*
X183138307Y-77505309D01*
X183133571Y-77514169D01*
X183133568Y-77514173D01*
X183130660Y-77519614D01*
X183083029Y-77590899D01*
X183068828Y-77608204D01*
X183008204Y-77668828D01*
X182990899Y-77683029D01*
X182919614Y-77730660D01*
X182914173Y-77733568D01*
X182914169Y-77733571D01*
X182905309Y-77738307D01*
X182905303Y-77738309D01*
X182899858Y-77741220D01*
X182820660Y-77774024D01*
X182799233Y-77780524D01*
X182715149Y-77797250D01*
X182692869Y-77799444D01*
X182674450Y-77799444D01*
X182662199Y-77800046D01*
X182643862Y-77801852D01*
X182156140Y-77801852D01*
X182140001Y-77800263D01*
X182130392Y-77797348D01*
X182121528Y-77792610D01*
X182113763Y-77786237D01*
X182103552Y-77773794D01*
X182096622Y-77763425D01*
X182079295Y-77746098D01*
X182058920Y-77732485D01*
X182036280Y-77723109D01*
X182012247Y-77718329D01*
X181987743Y-77718330D01*
X181963710Y-77723112D01*
X181941071Y-77732490D01*
X181920698Y-77746105D01*
X181903371Y-77763432D01*
X181896442Y-77773802D01*
X181886237Y-77786237D01*
X181878472Y-77792610D01*
X181869608Y-77797348D01*
X181859999Y-77800263D01*
X181843860Y-77801852D01*
X181356138Y-77801852D01*
X181337801Y-77800046D01*
X181325550Y-77799444D01*
X181307131Y-77799444D01*
X181284851Y-77797250D01*
X181200767Y-77780524D01*
X181179340Y-77774024D01*
X181100142Y-77741220D01*
X181094697Y-77738309D01*
X181094691Y-77738307D01*
X181085831Y-77733571D01*
X181085827Y-77733568D01*
X181080386Y-77730660D01*
X181009101Y-77683029D01*
X180991796Y-77668828D01*
X180931172Y-77608204D01*
X180916971Y-77590899D01*
X180869340Y-77519614D01*
X180866432Y-77514173D01*
X180866429Y-77514169D01*
X180861693Y-77505309D01*
X180861691Y-77505303D01*
X180858780Y-77499858D01*
X180825976Y-77420660D01*
X180819476Y-77399233D01*
X180802750Y-77315149D01*
X180800556Y-77292869D01*
X180800556Y-77274450D01*
X180799954Y-77262199D01*
X180798148Y-77243862D01*
X180798148Y-76756139D01*
X180799954Y-76737801D01*
X180800556Y-76725550D01*
X180800556Y-76707131D01*
X180802750Y-76684851D01*
X180819476Y-76600767D01*
X180825976Y-76579340D01*
X180858780Y-76500142D01*
X180861691Y-76494697D01*
X180861693Y-76494691D01*
X180866429Y-76485831D01*
X180866432Y-76485827D01*
X180869340Y-76480386D01*
X180916971Y-76409101D01*
X180931172Y-76391796D01*
X180991796Y-76331172D01*
X181009101Y-76316971D01*
X181080386Y-76269340D01*
X181085827Y-76266432D01*
X181085831Y-76266429D01*
X181094691Y-76261693D01*
X181094697Y-76261691D01*
X181100142Y-76258780D01*
X181179340Y-76225976D01*
X181200767Y-76219476D01*
X181284851Y-76202750D01*
X181307131Y-76200556D01*
X181325550Y-76200556D01*
X181337801Y-76199954D01*
X181356139Y-76198148D01*
X181843860Y-76198148D01*
X181859999Y-76199737D01*
G37*
G36*
X197364499Y-76553445D02*
G01*
X197401995Y-76564820D01*
X197436554Y-76583292D01*
X197466847Y-76608153D01*
X197491708Y-76638446D01*
X197510180Y-76673005D01*
X197521555Y-76710501D01*
X197526000Y-76755638D01*
X197526000Y-77494362D01*
X197521555Y-77539499D01*
X197510180Y-77576995D01*
X197491708Y-77611554D01*
X197466847Y-77641847D01*
X197436554Y-77666708D01*
X197401995Y-77685180D01*
X197364499Y-77696555D01*
X197319362Y-77701000D01*
X196680638Y-77701000D01*
X196635501Y-77696555D01*
X196598005Y-77685180D01*
X196563446Y-77666708D01*
X196533153Y-77641847D01*
X196508292Y-77611554D01*
X196489820Y-77576995D01*
X196478445Y-77539499D01*
X196474000Y-77494362D01*
X196474000Y-76755638D01*
X196478445Y-76710501D01*
X196489820Y-76673005D01*
X196508292Y-76638446D01*
X196533153Y-76608153D01*
X196563446Y-76583292D01*
X196598005Y-76564820D01*
X196635501Y-76553445D01*
X196680638Y-76549000D01*
X197319362Y-76549000D01*
X197364499Y-76553445D01*
G37*
G36*
X195289499Y-76478445D02*
G01*
X195326995Y-76489820D01*
X195361554Y-76508292D01*
X195391847Y-76533153D01*
X195416708Y-76563446D01*
X195435180Y-76598005D01*
X195446555Y-76635501D01*
X195451000Y-76680638D01*
X195451000Y-77319362D01*
X195446555Y-77364499D01*
X195435180Y-77401995D01*
X195416708Y-77436554D01*
X195391847Y-77466847D01*
X195361554Y-77491708D01*
X195326995Y-77510180D01*
X195289499Y-77521555D01*
X195244362Y-77526000D01*
X194505638Y-77526000D01*
X194460501Y-77521555D01*
X194423005Y-77510180D01*
X194388446Y-77491708D01*
X194358153Y-77466847D01*
X194333292Y-77436554D01*
X194314820Y-77401995D01*
X194303445Y-77364499D01*
X194299000Y-77319362D01*
X194299000Y-76680638D01*
X194303445Y-76635501D01*
X194314820Y-76598005D01*
X194333292Y-76563446D01*
X194358153Y-76533153D01*
X194388446Y-76508292D01*
X194423005Y-76489820D01*
X194460501Y-76478445D01*
X194505638Y-76474000D01*
X195244362Y-76474000D01*
X195289499Y-76478445D01*
G37*
G36*
X193539499Y-76478445D02*
G01*
X193576995Y-76489820D01*
X193611554Y-76508292D01*
X193641847Y-76533153D01*
X193666708Y-76563446D01*
X193685180Y-76598005D01*
X193696555Y-76635501D01*
X193701000Y-76680638D01*
X193701000Y-77319362D01*
X193696555Y-77364499D01*
X193685180Y-77401995D01*
X193666708Y-77436554D01*
X193641847Y-77466847D01*
X193611554Y-77491708D01*
X193576995Y-77510180D01*
X193539499Y-77521555D01*
X193494362Y-77526000D01*
X192755638Y-77526000D01*
X192710501Y-77521555D01*
X192673005Y-77510180D01*
X192638446Y-77491708D01*
X192608153Y-77466847D01*
X192583292Y-77436554D01*
X192564820Y-77401995D01*
X192553445Y-77364499D01*
X192549000Y-77319362D01*
X192549000Y-76680638D01*
X192553445Y-76635501D01*
X192564820Y-76598005D01*
X192583292Y-76563446D01*
X192608153Y-76533153D01*
X192638446Y-76508292D01*
X192673005Y-76489820D01*
X192710501Y-76478445D01*
X192755638Y-76474000D01*
X193494362Y-76474000D01*
X193539499Y-76478445D01*
G37*
G36*
X187289499Y-76478445D02*
G01*
X187326995Y-76489820D01*
X187361554Y-76508292D01*
X187391847Y-76533153D01*
X187416708Y-76563446D01*
X187435180Y-76598005D01*
X187446555Y-76635501D01*
X187451000Y-76680638D01*
X187451000Y-77319362D01*
X187446555Y-77364499D01*
X187435180Y-77401995D01*
X187416708Y-77436554D01*
X187391847Y-77466847D01*
X187361554Y-77491708D01*
X187326995Y-77510180D01*
X187289499Y-77521555D01*
X187244362Y-77526000D01*
X186505638Y-77526000D01*
X186460501Y-77521555D01*
X186423005Y-77510180D01*
X186388446Y-77491708D01*
X186358153Y-77466847D01*
X186333292Y-77436554D01*
X186314820Y-77401995D01*
X186303445Y-77364499D01*
X186299000Y-77319362D01*
X186299000Y-76680638D01*
X186303445Y-76635501D01*
X186314820Y-76598005D01*
X186333292Y-76563446D01*
X186358153Y-76533153D01*
X186388446Y-76508292D01*
X186423005Y-76489820D01*
X186460501Y-76478445D01*
X186505638Y-76474000D01*
X187244362Y-76474000D01*
X187289499Y-76478445D01*
G37*
G36*
X185539499Y-76478445D02*
G01*
X185576995Y-76489820D01*
X185611554Y-76508292D01*
X185641847Y-76533153D01*
X185666708Y-76563446D01*
X185685180Y-76598005D01*
X185696555Y-76635501D01*
X185701000Y-76680638D01*
X185701000Y-77319362D01*
X185696555Y-77364499D01*
X185685180Y-77401995D01*
X185666708Y-77436554D01*
X185641847Y-77466847D01*
X185611554Y-77491708D01*
X185576995Y-77510180D01*
X185539499Y-77521555D01*
X185494362Y-77526000D01*
X184755638Y-77526000D01*
X184710501Y-77521555D01*
X184673005Y-77510180D01*
X184638446Y-77491708D01*
X184608153Y-77466847D01*
X184583292Y-77436554D01*
X184564820Y-77401995D01*
X184553445Y-77364499D01*
X184549000Y-77319362D01*
X184549000Y-76680638D01*
X184553445Y-76635501D01*
X184564820Y-76598005D01*
X184583292Y-76563446D01*
X184608153Y-76533153D01*
X184638446Y-76508292D01*
X184673005Y-76489820D01*
X184710501Y-76478445D01*
X184755638Y-76474000D01*
X185494362Y-76474000D01*
X185539499Y-76478445D01*
G37*
M02*
