G04 #@! TF.GenerationSoftware,KiCad,Pcbnew,(5.1.5-0)*
G04 #@! TF.CreationDate,2020-02-09T15:42:12-07:00*
G04 #@! TF.ProjectId,dac_proto,6461635f-7072-46f7-946f-2e6b69636164,rev?*
G04 #@! TF.SameCoordinates,Original*
G04 #@! TF.FileFunction,Copper,L1,Top*
G04 #@! TF.FilePolarity,Positive*
%FSLAX46Y46*%
G04 Gerber Fmt 4.6, Leading zero omitted, Abs format (unit mm)*
G04 Created by KiCad (PCBNEW (5.1.5-0)) date 2020-02-09 15:42:12*
%MOMM*%
%LPD*%
G04 APERTURE LIST*
%ADD10R,0.650000X1.060000*%
%ADD11C,0.100000*%
%ADD12C,2.600000*%
%ADD13R,2.600000X2.600000*%
%ADD14O,1.700000X1.700000*%
%ADD15R,1.700000X1.700000*%
%ADD16R,1.450000X0.450000*%
%ADD17R,1.200000X1.200000*%
%ADD18C,0.800000*%
%ADD19C,0.250000*%
%ADD20C,0.254000*%
G04 APERTURE END LIST*
D10*
X186950000Y-81100000D03*
X185050000Y-81100000D03*
X185050000Y-78900000D03*
X186000000Y-78900000D03*
X186950000Y-78900000D03*
G04 #@! TA.AperFunction,SMDPad,CuDef*
D11*
G36*
X193435779Y-76526144D02*
G01*
X193458834Y-76529563D01*
X193481443Y-76535227D01*
X193503387Y-76543079D01*
X193524457Y-76553044D01*
X193544448Y-76565026D01*
X193563168Y-76578910D01*
X193580438Y-76594562D01*
X193596090Y-76611832D01*
X193609974Y-76630552D01*
X193621956Y-76650543D01*
X193631921Y-76671613D01*
X193639773Y-76693557D01*
X193645437Y-76716166D01*
X193648856Y-76739221D01*
X193650000Y-76762500D01*
X193650000Y-77237500D01*
X193648856Y-77260779D01*
X193645437Y-77283834D01*
X193639773Y-77306443D01*
X193631921Y-77328387D01*
X193621956Y-77349457D01*
X193609974Y-77369448D01*
X193596090Y-77388168D01*
X193580438Y-77405438D01*
X193563168Y-77421090D01*
X193544448Y-77434974D01*
X193524457Y-77446956D01*
X193503387Y-77456921D01*
X193481443Y-77464773D01*
X193458834Y-77470437D01*
X193435779Y-77473856D01*
X193412500Y-77475000D01*
X192837500Y-77475000D01*
X192814221Y-77473856D01*
X192791166Y-77470437D01*
X192768557Y-77464773D01*
X192746613Y-77456921D01*
X192725543Y-77446956D01*
X192705552Y-77434974D01*
X192686832Y-77421090D01*
X192669562Y-77405438D01*
X192653910Y-77388168D01*
X192640026Y-77369448D01*
X192628044Y-77349457D01*
X192618079Y-77328387D01*
X192610227Y-77306443D01*
X192604563Y-77283834D01*
X192601144Y-77260779D01*
X192600000Y-77237500D01*
X192600000Y-76762500D01*
X192601144Y-76739221D01*
X192604563Y-76716166D01*
X192610227Y-76693557D01*
X192618079Y-76671613D01*
X192628044Y-76650543D01*
X192640026Y-76630552D01*
X192653910Y-76611832D01*
X192669562Y-76594562D01*
X192686832Y-76578910D01*
X192705552Y-76565026D01*
X192725543Y-76553044D01*
X192746613Y-76543079D01*
X192768557Y-76535227D01*
X192791166Y-76529563D01*
X192814221Y-76526144D01*
X192837500Y-76525000D01*
X193412500Y-76525000D01*
X193435779Y-76526144D01*
G37*
G04 #@! TD.AperFunction*
G04 #@! TA.AperFunction,SMDPad,CuDef*
G36*
X195185779Y-76526144D02*
G01*
X195208834Y-76529563D01*
X195231443Y-76535227D01*
X195253387Y-76543079D01*
X195274457Y-76553044D01*
X195294448Y-76565026D01*
X195313168Y-76578910D01*
X195330438Y-76594562D01*
X195346090Y-76611832D01*
X195359974Y-76630552D01*
X195371956Y-76650543D01*
X195381921Y-76671613D01*
X195389773Y-76693557D01*
X195395437Y-76716166D01*
X195398856Y-76739221D01*
X195400000Y-76762500D01*
X195400000Y-77237500D01*
X195398856Y-77260779D01*
X195395437Y-77283834D01*
X195389773Y-77306443D01*
X195381921Y-77328387D01*
X195371956Y-77349457D01*
X195359974Y-77369448D01*
X195346090Y-77388168D01*
X195330438Y-77405438D01*
X195313168Y-77421090D01*
X195294448Y-77434974D01*
X195274457Y-77446956D01*
X195253387Y-77456921D01*
X195231443Y-77464773D01*
X195208834Y-77470437D01*
X195185779Y-77473856D01*
X195162500Y-77475000D01*
X194587500Y-77475000D01*
X194564221Y-77473856D01*
X194541166Y-77470437D01*
X194518557Y-77464773D01*
X194496613Y-77456921D01*
X194475543Y-77446956D01*
X194455552Y-77434974D01*
X194436832Y-77421090D01*
X194419562Y-77405438D01*
X194403910Y-77388168D01*
X194390026Y-77369448D01*
X194378044Y-77349457D01*
X194368079Y-77328387D01*
X194360227Y-77306443D01*
X194354563Y-77283834D01*
X194351144Y-77260779D01*
X194350000Y-77237500D01*
X194350000Y-76762500D01*
X194351144Y-76739221D01*
X194354563Y-76716166D01*
X194360227Y-76693557D01*
X194368079Y-76671613D01*
X194378044Y-76650543D01*
X194390026Y-76630552D01*
X194403910Y-76611832D01*
X194419562Y-76594562D01*
X194436832Y-76578910D01*
X194455552Y-76565026D01*
X194475543Y-76553044D01*
X194496613Y-76543079D01*
X194518557Y-76535227D01*
X194541166Y-76529563D01*
X194564221Y-76526144D01*
X194587500Y-76525000D01*
X195162500Y-76525000D01*
X195185779Y-76526144D01*
G37*
G04 #@! TD.AperFunction*
G04 #@! TA.AperFunction,SMDPad,CuDef*
G36*
X191850000Y-81749398D02*
G01*
X191825466Y-81749398D01*
X191776635Y-81744588D01*
X191728510Y-81735016D01*
X191681555Y-81720772D01*
X191636222Y-81701995D01*
X191592949Y-81678864D01*
X191552150Y-81651604D01*
X191514221Y-81620476D01*
X191479524Y-81585779D01*
X191448396Y-81547850D01*
X191421136Y-81507051D01*
X191398005Y-81463778D01*
X191379228Y-81418445D01*
X191364984Y-81371490D01*
X191355412Y-81323365D01*
X191350602Y-81274534D01*
X191350602Y-81250000D01*
X191350000Y-81250000D01*
X191350000Y-80750000D01*
X191350602Y-80750000D01*
X191350602Y-80725466D01*
X191355412Y-80676635D01*
X191364984Y-80628510D01*
X191379228Y-80581555D01*
X191398005Y-80536222D01*
X191421136Y-80492949D01*
X191448396Y-80452150D01*
X191479524Y-80414221D01*
X191514221Y-80379524D01*
X191552150Y-80348396D01*
X191592949Y-80321136D01*
X191636222Y-80298005D01*
X191681555Y-80279228D01*
X191728510Y-80264984D01*
X191776635Y-80255412D01*
X191825466Y-80250602D01*
X191850000Y-80250602D01*
X191850000Y-80250000D01*
X192350000Y-80250000D01*
X192350000Y-81750000D01*
X191850000Y-81750000D01*
X191850000Y-81749398D01*
G37*
G04 #@! TD.AperFunction*
G04 #@! TA.AperFunction,SMDPad,CuDef*
G36*
X192650000Y-80250000D02*
G01*
X193150000Y-80250000D01*
X193150000Y-80250602D01*
X193174534Y-80250602D01*
X193223365Y-80255412D01*
X193271490Y-80264984D01*
X193318445Y-80279228D01*
X193363778Y-80298005D01*
X193407051Y-80321136D01*
X193447850Y-80348396D01*
X193485779Y-80379524D01*
X193520476Y-80414221D01*
X193551604Y-80452150D01*
X193578864Y-80492949D01*
X193601995Y-80536222D01*
X193620772Y-80581555D01*
X193635016Y-80628510D01*
X193644588Y-80676635D01*
X193649398Y-80725466D01*
X193649398Y-80750000D01*
X193650000Y-80750000D01*
X193650000Y-81250000D01*
X193649398Y-81250000D01*
X193649398Y-81274534D01*
X193644588Y-81323365D01*
X193635016Y-81371490D01*
X193620772Y-81418445D01*
X193601995Y-81463778D01*
X193578864Y-81507051D01*
X193551604Y-81547850D01*
X193520476Y-81585779D01*
X193485779Y-81620476D01*
X193447850Y-81651604D01*
X193407051Y-81678864D01*
X193363778Y-81701995D01*
X193318445Y-81720772D01*
X193271490Y-81735016D01*
X193223365Y-81744588D01*
X193174534Y-81749398D01*
X193150000Y-81749398D01*
X193150000Y-81750000D01*
X192650000Y-81750000D01*
X192650000Y-80250000D01*
G37*
G04 #@! TD.AperFunction*
G04 #@! TA.AperFunction,SMDPad,CuDef*
G36*
X186749398Y-87650000D02*
G01*
X186749398Y-87674534D01*
X186744588Y-87723365D01*
X186735016Y-87771490D01*
X186720772Y-87818445D01*
X186701995Y-87863778D01*
X186678864Y-87907051D01*
X186651604Y-87947850D01*
X186620476Y-87985779D01*
X186585779Y-88020476D01*
X186547850Y-88051604D01*
X186507051Y-88078864D01*
X186463778Y-88101995D01*
X186418445Y-88120772D01*
X186371490Y-88135016D01*
X186323365Y-88144588D01*
X186274534Y-88149398D01*
X186250000Y-88149398D01*
X186250000Y-88150000D01*
X185750000Y-88150000D01*
X185750000Y-88149398D01*
X185725466Y-88149398D01*
X185676635Y-88144588D01*
X185628510Y-88135016D01*
X185581555Y-88120772D01*
X185536222Y-88101995D01*
X185492949Y-88078864D01*
X185452150Y-88051604D01*
X185414221Y-88020476D01*
X185379524Y-87985779D01*
X185348396Y-87947850D01*
X185321136Y-87907051D01*
X185298005Y-87863778D01*
X185279228Y-87818445D01*
X185264984Y-87771490D01*
X185255412Y-87723365D01*
X185250602Y-87674534D01*
X185250602Y-87650000D01*
X185250000Y-87650000D01*
X185250000Y-87150000D01*
X186750000Y-87150000D01*
X186750000Y-87650000D01*
X186749398Y-87650000D01*
G37*
G04 #@! TD.AperFunction*
G04 #@! TA.AperFunction,SMDPad,CuDef*
G36*
X185250000Y-86850000D02*
G01*
X185250000Y-86350000D01*
X185250602Y-86350000D01*
X185250602Y-86325466D01*
X185255412Y-86276635D01*
X185264984Y-86228510D01*
X185279228Y-86181555D01*
X185298005Y-86136222D01*
X185321136Y-86092949D01*
X185348396Y-86052150D01*
X185379524Y-86014221D01*
X185414221Y-85979524D01*
X185452150Y-85948396D01*
X185492949Y-85921136D01*
X185536222Y-85898005D01*
X185581555Y-85879228D01*
X185628510Y-85864984D01*
X185676635Y-85855412D01*
X185725466Y-85850602D01*
X185750000Y-85850602D01*
X185750000Y-85850000D01*
X186250000Y-85850000D01*
X186250000Y-85850602D01*
X186274534Y-85850602D01*
X186323365Y-85855412D01*
X186371490Y-85864984D01*
X186418445Y-85879228D01*
X186463778Y-85898005D01*
X186507051Y-85921136D01*
X186547850Y-85948396D01*
X186585779Y-85979524D01*
X186620476Y-86014221D01*
X186651604Y-86052150D01*
X186678864Y-86092949D01*
X186701995Y-86136222D01*
X186720772Y-86181555D01*
X186735016Y-86228510D01*
X186744588Y-86276635D01*
X186749398Y-86325466D01*
X186749398Y-86350000D01*
X186750000Y-86350000D01*
X186750000Y-86850000D01*
X185250000Y-86850000D01*
G37*
G04 #@! TD.AperFunction*
G04 #@! TA.AperFunction,SMDPad,CuDef*
G36*
X167350000Y-86749398D02*
G01*
X167325466Y-86749398D01*
X167276635Y-86744588D01*
X167228510Y-86735016D01*
X167181555Y-86720772D01*
X167136222Y-86701995D01*
X167092949Y-86678864D01*
X167052150Y-86651604D01*
X167014221Y-86620476D01*
X166979524Y-86585779D01*
X166948396Y-86547850D01*
X166921136Y-86507051D01*
X166898005Y-86463778D01*
X166879228Y-86418445D01*
X166864984Y-86371490D01*
X166855412Y-86323365D01*
X166850602Y-86274534D01*
X166850602Y-86250000D01*
X166850000Y-86250000D01*
X166850000Y-85750000D01*
X166850602Y-85750000D01*
X166850602Y-85725466D01*
X166855412Y-85676635D01*
X166864984Y-85628510D01*
X166879228Y-85581555D01*
X166898005Y-85536222D01*
X166921136Y-85492949D01*
X166948396Y-85452150D01*
X166979524Y-85414221D01*
X167014221Y-85379524D01*
X167052150Y-85348396D01*
X167092949Y-85321136D01*
X167136222Y-85298005D01*
X167181555Y-85279228D01*
X167228510Y-85264984D01*
X167276635Y-85255412D01*
X167325466Y-85250602D01*
X167350000Y-85250602D01*
X167350000Y-85250000D01*
X167850000Y-85250000D01*
X167850000Y-86750000D01*
X167350000Y-86750000D01*
X167350000Y-86749398D01*
G37*
G04 #@! TD.AperFunction*
G04 #@! TA.AperFunction,SMDPad,CuDef*
G36*
X168150000Y-85250000D02*
G01*
X168650000Y-85250000D01*
X168650000Y-85250602D01*
X168674534Y-85250602D01*
X168723365Y-85255412D01*
X168771490Y-85264984D01*
X168818445Y-85279228D01*
X168863778Y-85298005D01*
X168907051Y-85321136D01*
X168947850Y-85348396D01*
X168985779Y-85379524D01*
X169020476Y-85414221D01*
X169051604Y-85452150D01*
X169078864Y-85492949D01*
X169101995Y-85536222D01*
X169120772Y-85581555D01*
X169135016Y-85628510D01*
X169144588Y-85676635D01*
X169149398Y-85725466D01*
X169149398Y-85750000D01*
X169150000Y-85750000D01*
X169150000Y-86250000D01*
X169149398Y-86250000D01*
X169149398Y-86274534D01*
X169144588Y-86323365D01*
X169135016Y-86371490D01*
X169120772Y-86418445D01*
X169101995Y-86463778D01*
X169078864Y-86507051D01*
X169051604Y-86547850D01*
X169020476Y-86585779D01*
X168985779Y-86620476D01*
X168947850Y-86651604D01*
X168907051Y-86678864D01*
X168863778Y-86701995D01*
X168818445Y-86720772D01*
X168771490Y-86735016D01*
X168723365Y-86744588D01*
X168674534Y-86749398D01*
X168650000Y-86749398D01*
X168650000Y-86750000D01*
X168150000Y-86750000D01*
X168150000Y-85250000D01*
G37*
G04 #@! TD.AperFunction*
G04 #@! TA.AperFunction,SMDPad,CuDef*
G36*
X182650000Y-76250602D02*
G01*
X182674534Y-76250602D01*
X182723365Y-76255412D01*
X182771490Y-76264984D01*
X182818445Y-76279228D01*
X182863778Y-76298005D01*
X182907051Y-76321136D01*
X182947850Y-76348396D01*
X182985779Y-76379524D01*
X183020476Y-76414221D01*
X183051604Y-76452150D01*
X183078864Y-76492949D01*
X183101995Y-76536222D01*
X183120772Y-76581555D01*
X183135016Y-76628510D01*
X183144588Y-76676635D01*
X183149398Y-76725466D01*
X183149398Y-76750000D01*
X183150000Y-76750000D01*
X183150000Y-77250000D01*
X183149398Y-77250000D01*
X183149398Y-77274534D01*
X183144588Y-77323365D01*
X183135016Y-77371490D01*
X183120772Y-77418445D01*
X183101995Y-77463778D01*
X183078864Y-77507051D01*
X183051604Y-77547850D01*
X183020476Y-77585779D01*
X182985779Y-77620476D01*
X182947850Y-77651604D01*
X182907051Y-77678864D01*
X182863778Y-77701995D01*
X182818445Y-77720772D01*
X182771490Y-77735016D01*
X182723365Y-77744588D01*
X182674534Y-77749398D01*
X182650000Y-77749398D01*
X182650000Y-77750000D01*
X182150000Y-77750000D01*
X182150000Y-76250000D01*
X182650000Y-76250000D01*
X182650000Y-76250602D01*
G37*
G04 #@! TD.AperFunction*
G04 #@! TA.AperFunction,SMDPad,CuDef*
G36*
X181850000Y-77750000D02*
G01*
X181350000Y-77750000D01*
X181350000Y-77749398D01*
X181325466Y-77749398D01*
X181276635Y-77744588D01*
X181228510Y-77735016D01*
X181181555Y-77720772D01*
X181136222Y-77701995D01*
X181092949Y-77678864D01*
X181052150Y-77651604D01*
X181014221Y-77620476D01*
X180979524Y-77585779D01*
X180948396Y-77547850D01*
X180921136Y-77507051D01*
X180898005Y-77463778D01*
X180879228Y-77418445D01*
X180864984Y-77371490D01*
X180855412Y-77323365D01*
X180850602Y-77274534D01*
X180850602Y-77250000D01*
X180850000Y-77250000D01*
X180850000Y-76750000D01*
X180850602Y-76750000D01*
X180850602Y-76725466D01*
X180855412Y-76676635D01*
X180864984Y-76628510D01*
X180879228Y-76581555D01*
X180898005Y-76536222D01*
X180921136Y-76492949D01*
X180948396Y-76452150D01*
X180979524Y-76414221D01*
X181014221Y-76379524D01*
X181052150Y-76348396D01*
X181092949Y-76321136D01*
X181136222Y-76298005D01*
X181181555Y-76279228D01*
X181228510Y-76264984D01*
X181276635Y-76255412D01*
X181325466Y-76250602D01*
X181350000Y-76250602D01*
X181350000Y-76250000D01*
X181850000Y-76250000D01*
X181850000Y-77750000D01*
G37*
G04 #@! TD.AperFunction*
D12*
X205000000Y-76920000D03*
D13*
X205000000Y-82000000D03*
D14*
X209860000Y-99000000D03*
X207320000Y-99000000D03*
X204780000Y-99000000D03*
X202240000Y-99000000D03*
X199700000Y-99000000D03*
X197160000Y-99000000D03*
X194620000Y-99000000D03*
X192080000Y-99000000D03*
X189540000Y-99000000D03*
D15*
X187000000Y-99000000D03*
G04 #@! TA.AperFunction,SMDPad,CuDef*
D11*
G36*
X168174504Y-74401204D02*
G01*
X168198773Y-74404804D01*
X168222571Y-74410765D01*
X168245671Y-74419030D01*
X168267849Y-74429520D01*
X168288893Y-74442133D01*
X168308598Y-74456747D01*
X168326777Y-74473223D01*
X168343253Y-74491402D01*
X168357867Y-74511107D01*
X168370480Y-74532151D01*
X168380970Y-74554329D01*
X168389235Y-74577429D01*
X168395196Y-74601227D01*
X168398796Y-74625496D01*
X168400000Y-74650000D01*
X168400000Y-77550000D01*
X168398796Y-77574504D01*
X168395196Y-77598773D01*
X168389235Y-77622571D01*
X168380970Y-77645671D01*
X168370480Y-77667849D01*
X168357867Y-77688893D01*
X168343253Y-77708598D01*
X168326777Y-77726777D01*
X168308598Y-77743253D01*
X168288893Y-77757867D01*
X168267849Y-77770480D01*
X168245671Y-77780970D01*
X168222571Y-77789235D01*
X168198773Y-77795196D01*
X168174504Y-77798796D01*
X168150000Y-77800000D01*
X167150000Y-77800000D01*
X167125496Y-77798796D01*
X167101227Y-77795196D01*
X167077429Y-77789235D01*
X167054329Y-77780970D01*
X167032151Y-77770480D01*
X167011107Y-77757867D01*
X166991402Y-77743253D01*
X166973223Y-77726777D01*
X166956747Y-77708598D01*
X166942133Y-77688893D01*
X166929520Y-77667849D01*
X166919030Y-77645671D01*
X166910765Y-77622571D01*
X166904804Y-77598773D01*
X166901204Y-77574504D01*
X166900000Y-77550000D01*
X166900000Y-74650000D01*
X166901204Y-74625496D01*
X166904804Y-74601227D01*
X166910765Y-74577429D01*
X166919030Y-74554329D01*
X166929520Y-74532151D01*
X166942133Y-74511107D01*
X166956747Y-74491402D01*
X166973223Y-74473223D01*
X166991402Y-74456747D01*
X167011107Y-74442133D01*
X167032151Y-74429520D01*
X167054329Y-74419030D01*
X167077429Y-74410765D01*
X167101227Y-74404804D01*
X167125496Y-74401204D01*
X167150000Y-74400000D01*
X168150000Y-74400000D01*
X168174504Y-74401204D01*
G37*
G04 #@! TD.AperFunction*
G04 #@! TA.AperFunction,SMDPad,CuDef*
G36*
X178874504Y-74401204D02*
G01*
X178898773Y-74404804D01*
X178922571Y-74410765D01*
X178945671Y-74419030D01*
X178967849Y-74429520D01*
X178988893Y-74442133D01*
X179008598Y-74456747D01*
X179026777Y-74473223D01*
X179043253Y-74491402D01*
X179057867Y-74511107D01*
X179070480Y-74532151D01*
X179080970Y-74554329D01*
X179089235Y-74577429D01*
X179095196Y-74601227D01*
X179098796Y-74625496D01*
X179100000Y-74650000D01*
X179100000Y-77550000D01*
X179098796Y-77574504D01*
X179095196Y-77598773D01*
X179089235Y-77622571D01*
X179080970Y-77645671D01*
X179070480Y-77667849D01*
X179057867Y-77688893D01*
X179043253Y-77708598D01*
X179026777Y-77726777D01*
X179008598Y-77743253D01*
X178988893Y-77757867D01*
X178967849Y-77770480D01*
X178945671Y-77780970D01*
X178922571Y-77789235D01*
X178898773Y-77795196D01*
X178874504Y-77798796D01*
X178850000Y-77800000D01*
X177850000Y-77800000D01*
X177825496Y-77798796D01*
X177801227Y-77795196D01*
X177777429Y-77789235D01*
X177754329Y-77780970D01*
X177732151Y-77770480D01*
X177711107Y-77757867D01*
X177691402Y-77743253D01*
X177673223Y-77726777D01*
X177656747Y-77708598D01*
X177642133Y-77688893D01*
X177629520Y-77667849D01*
X177619030Y-77645671D01*
X177610765Y-77622571D01*
X177604804Y-77598773D01*
X177601204Y-77574504D01*
X177600000Y-77550000D01*
X177600000Y-74650000D01*
X177601204Y-74625496D01*
X177604804Y-74601227D01*
X177610765Y-74577429D01*
X177619030Y-74554329D01*
X177629520Y-74532151D01*
X177642133Y-74511107D01*
X177656747Y-74491402D01*
X177673223Y-74473223D01*
X177691402Y-74456747D01*
X177711107Y-74442133D01*
X177732151Y-74429520D01*
X177754329Y-74419030D01*
X177777429Y-74410765D01*
X177801227Y-74404804D01*
X177825496Y-74401204D01*
X177850000Y-74400000D01*
X178850000Y-74400000D01*
X178874504Y-74401204D01*
G37*
G04 #@! TD.AperFunction*
G04 #@! TA.AperFunction,SMDPad,CuDef*
G36*
X170274504Y-80101204D02*
G01*
X170298773Y-80104804D01*
X170322571Y-80110765D01*
X170345671Y-80119030D01*
X170367849Y-80129520D01*
X170388893Y-80142133D01*
X170408598Y-80156747D01*
X170426777Y-80173223D01*
X170443253Y-80191402D01*
X170457867Y-80211107D01*
X170470480Y-80232151D01*
X170480970Y-80254329D01*
X170489235Y-80277429D01*
X170495196Y-80301227D01*
X170498796Y-80325496D01*
X170500000Y-80350000D01*
X170500000Y-83350000D01*
X170498796Y-83374504D01*
X170495196Y-83398773D01*
X170489235Y-83422571D01*
X170480970Y-83445671D01*
X170470480Y-83467849D01*
X170457867Y-83488893D01*
X170443253Y-83508598D01*
X170426777Y-83526777D01*
X170408598Y-83543253D01*
X170388893Y-83557867D01*
X170367849Y-83570480D01*
X170345671Y-83580970D01*
X170322571Y-83589235D01*
X170298773Y-83595196D01*
X170274504Y-83598796D01*
X170250000Y-83600000D01*
X169750000Y-83600000D01*
X169725496Y-83598796D01*
X169701227Y-83595196D01*
X169677429Y-83589235D01*
X169654329Y-83580970D01*
X169632151Y-83570480D01*
X169611107Y-83557867D01*
X169591402Y-83543253D01*
X169573223Y-83526777D01*
X169556747Y-83508598D01*
X169542133Y-83488893D01*
X169529520Y-83467849D01*
X169519030Y-83445671D01*
X169510765Y-83422571D01*
X169504804Y-83398773D01*
X169501204Y-83374504D01*
X169500000Y-83350000D01*
X169500000Y-80350000D01*
X169501204Y-80325496D01*
X169504804Y-80301227D01*
X169510765Y-80277429D01*
X169519030Y-80254329D01*
X169529520Y-80232151D01*
X169542133Y-80211107D01*
X169556747Y-80191402D01*
X169573223Y-80173223D01*
X169591402Y-80156747D01*
X169611107Y-80142133D01*
X169632151Y-80129520D01*
X169654329Y-80119030D01*
X169677429Y-80110765D01*
X169701227Y-80104804D01*
X169725496Y-80101204D01*
X169750000Y-80100000D01*
X170250000Y-80100000D01*
X170274504Y-80101204D01*
G37*
G04 #@! TD.AperFunction*
G04 #@! TA.AperFunction,SMDPad,CuDef*
G36*
X172274504Y-80101204D02*
G01*
X172298773Y-80104804D01*
X172322571Y-80110765D01*
X172345671Y-80119030D01*
X172367849Y-80129520D01*
X172388893Y-80142133D01*
X172408598Y-80156747D01*
X172426777Y-80173223D01*
X172443253Y-80191402D01*
X172457867Y-80211107D01*
X172470480Y-80232151D01*
X172480970Y-80254329D01*
X172489235Y-80277429D01*
X172495196Y-80301227D01*
X172498796Y-80325496D01*
X172500000Y-80350000D01*
X172500000Y-83350000D01*
X172498796Y-83374504D01*
X172495196Y-83398773D01*
X172489235Y-83422571D01*
X172480970Y-83445671D01*
X172470480Y-83467849D01*
X172457867Y-83488893D01*
X172443253Y-83508598D01*
X172426777Y-83526777D01*
X172408598Y-83543253D01*
X172388893Y-83557867D01*
X172367849Y-83570480D01*
X172345671Y-83580970D01*
X172322571Y-83589235D01*
X172298773Y-83595196D01*
X172274504Y-83598796D01*
X172250000Y-83600000D01*
X171750000Y-83600000D01*
X171725496Y-83598796D01*
X171701227Y-83595196D01*
X171677429Y-83589235D01*
X171654329Y-83580970D01*
X171632151Y-83570480D01*
X171611107Y-83557867D01*
X171591402Y-83543253D01*
X171573223Y-83526777D01*
X171556747Y-83508598D01*
X171542133Y-83488893D01*
X171529520Y-83467849D01*
X171519030Y-83445671D01*
X171510765Y-83422571D01*
X171504804Y-83398773D01*
X171501204Y-83374504D01*
X171500000Y-83350000D01*
X171500000Y-80350000D01*
X171501204Y-80325496D01*
X171504804Y-80301227D01*
X171510765Y-80277429D01*
X171519030Y-80254329D01*
X171529520Y-80232151D01*
X171542133Y-80211107D01*
X171556747Y-80191402D01*
X171573223Y-80173223D01*
X171591402Y-80156747D01*
X171611107Y-80142133D01*
X171632151Y-80129520D01*
X171654329Y-80119030D01*
X171677429Y-80110765D01*
X171701227Y-80104804D01*
X171725496Y-80101204D01*
X171750000Y-80100000D01*
X172250000Y-80100000D01*
X172274504Y-80101204D01*
G37*
G04 #@! TD.AperFunction*
G04 #@! TA.AperFunction,SMDPad,CuDef*
G36*
X174274504Y-80101204D02*
G01*
X174298773Y-80104804D01*
X174322571Y-80110765D01*
X174345671Y-80119030D01*
X174367849Y-80129520D01*
X174388893Y-80142133D01*
X174408598Y-80156747D01*
X174426777Y-80173223D01*
X174443253Y-80191402D01*
X174457867Y-80211107D01*
X174470480Y-80232151D01*
X174480970Y-80254329D01*
X174489235Y-80277429D01*
X174495196Y-80301227D01*
X174498796Y-80325496D01*
X174500000Y-80350000D01*
X174500000Y-83350000D01*
X174498796Y-83374504D01*
X174495196Y-83398773D01*
X174489235Y-83422571D01*
X174480970Y-83445671D01*
X174470480Y-83467849D01*
X174457867Y-83488893D01*
X174443253Y-83508598D01*
X174426777Y-83526777D01*
X174408598Y-83543253D01*
X174388893Y-83557867D01*
X174367849Y-83570480D01*
X174345671Y-83580970D01*
X174322571Y-83589235D01*
X174298773Y-83595196D01*
X174274504Y-83598796D01*
X174250000Y-83600000D01*
X173750000Y-83600000D01*
X173725496Y-83598796D01*
X173701227Y-83595196D01*
X173677429Y-83589235D01*
X173654329Y-83580970D01*
X173632151Y-83570480D01*
X173611107Y-83557867D01*
X173591402Y-83543253D01*
X173573223Y-83526777D01*
X173556747Y-83508598D01*
X173542133Y-83488893D01*
X173529520Y-83467849D01*
X173519030Y-83445671D01*
X173510765Y-83422571D01*
X173504804Y-83398773D01*
X173501204Y-83374504D01*
X173500000Y-83350000D01*
X173500000Y-80350000D01*
X173501204Y-80325496D01*
X173504804Y-80301227D01*
X173510765Y-80277429D01*
X173519030Y-80254329D01*
X173529520Y-80232151D01*
X173542133Y-80211107D01*
X173556747Y-80191402D01*
X173573223Y-80173223D01*
X173591402Y-80156747D01*
X173611107Y-80142133D01*
X173632151Y-80129520D01*
X173654329Y-80119030D01*
X173677429Y-80110765D01*
X173701227Y-80104804D01*
X173725496Y-80101204D01*
X173750000Y-80100000D01*
X174250000Y-80100000D01*
X174274504Y-80101204D01*
G37*
G04 #@! TD.AperFunction*
G04 #@! TA.AperFunction,SMDPad,CuDef*
G36*
X176274504Y-80101204D02*
G01*
X176298773Y-80104804D01*
X176322571Y-80110765D01*
X176345671Y-80119030D01*
X176367849Y-80129520D01*
X176388893Y-80142133D01*
X176408598Y-80156747D01*
X176426777Y-80173223D01*
X176443253Y-80191402D01*
X176457867Y-80211107D01*
X176470480Y-80232151D01*
X176480970Y-80254329D01*
X176489235Y-80277429D01*
X176495196Y-80301227D01*
X176498796Y-80325496D01*
X176500000Y-80350000D01*
X176500000Y-83350000D01*
X176498796Y-83374504D01*
X176495196Y-83398773D01*
X176489235Y-83422571D01*
X176480970Y-83445671D01*
X176470480Y-83467849D01*
X176457867Y-83488893D01*
X176443253Y-83508598D01*
X176426777Y-83526777D01*
X176408598Y-83543253D01*
X176388893Y-83557867D01*
X176367849Y-83570480D01*
X176345671Y-83580970D01*
X176322571Y-83589235D01*
X176298773Y-83595196D01*
X176274504Y-83598796D01*
X176250000Y-83600000D01*
X175750000Y-83600000D01*
X175725496Y-83598796D01*
X175701227Y-83595196D01*
X175677429Y-83589235D01*
X175654329Y-83580970D01*
X175632151Y-83570480D01*
X175611107Y-83557867D01*
X175591402Y-83543253D01*
X175573223Y-83526777D01*
X175556747Y-83508598D01*
X175542133Y-83488893D01*
X175529520Y-83467849D01*
X175519030Y-83445671D01*
X175510765Y-83422571D01*
X175504804Y-83398773D01*
X175501204Y-83374504D01*
X175500000Y-83350000D01*
X175500000Y-80350000D01*
X175501204Y-80325496D01*
X175504804Y-80301227D01*
X175510765Y-80277429D01*
X175519030Y-80254329D01*
X175529520Y-80232151D01*
X175542133Y-80211107D01*
X175556747Y-80191402D01*
X175573223Y-80173223D01*
X175591402Y-80156747D01*
X175611107Y-80142133D01*
X175632151Y-80129520D01*
X175654329Y-80119030D01*
X175677429Y-80110765D01*
X175701227Y-80104804D01*
X175725496Y-80101204D01*
X175750000Y-80100000D01*
X176250000Y-80100000D01*
X176274504Y-80101204D01*
G37*
G04 #@! TD.AperFunction*
G04 #@! TA.AperFunction,SMDPad,CuDef*
G36*
X176069703Y-92500722D02*
G01*
X176084264Y-92502882D01*
X176098543Y-92506459D01*
X176112403Y-92511418D01*
X176125710Y-92517712D01*
X176138336Y-92525280D01*
X176150159Y-92534048D01*
X176161066Y-92543934D01*
X176170952Y-92554841D01*
X176179720Y-92566664D01*
X176187288Y-92579290D01*
X176193582Y-92592597D01*
X176198541Y-92606457D01*
X176202118Y-92620736D01*
X176204278Y-92635297D01*
X176205000Y-92650000D01*
X176205000Y-94300000D01*
X176204278Y-94314703D01*
X176202118Y-94329264D01*
X176198541Y-94343543D01*
X176193582Y-94357403D01*
X176187288Y-94370710D01*
X176179720Y-94383336D01*
X176170952Y-94395159D01*
X176161066Y-94406066D01*
X176150159Y-94415952D01*
X176138336Y-94424720D01*
X176125710Y-94432288D01*
X176112403Y-94438582D01*
X176098543Y-94443541D01*
X176084264Y-94447118D01*
X176069703Y-94449278D01*
X176055000Y-94450000D01*
X175755000Y-94450000D01*
X175740297Y-94449278D01*
X175725736Y-94447118D01*
X175711457Y-94443541D01*
X175697597Y-94438582D01*
X175684290Y-94432288D01*
X175671664Y-94424720D01*
X175659841Y-94415952D01*
X175648934Y-94406066D01*
X175639048Y-94395159D01*
X175630280Y-94383336D01*
X175622712Y-94370710D01*
X175616418Y-94357403D01*
X175611459Y-94343543D01*
X175607882Y-94329264D01*
X175605722Y-94314703D01*
X175605000Y-94300000D01*
X175605000Y-92650000D01*
X175605722Y-92635297D01*
X175607882Y-92620736D01*
X175611459Y-92606457D01*
X175616418Y-92592597D01*
X175622712Y-92579290D01*
X175630280Y-92566664D01*
X175639048Y-92554841D01*
X175648934Y-92543934D01*
X175659841Y-92534048D01*
X175671664Y-92525280D01*
X175684290Y-92517712D01*
X175697597Y-92511418D01*
X175711457Y-92506459D01*
X175725736Y-92502882D01*
X175740297Y-92500722D01*
X175755000Y-92500000D01*
X176055000Y-92500000D01*
X176069703Y-92500722D01*
G37*
G04 #@! TD.AperFunction*
G04 #@! TA.AperFunction,SMDPad,CuDef*
G36*
X174799703Y-92500722D02*
G01*
X174814264Y-92502882D01*
X174828543Y-92506459D01*
X174842403Y-92511418D01*
X174855710Y-92517712D01*
X174868336Y-92525280D01*
X174880159Y-92534048D01*
X174891066Y-92543934D01*
X174900952Y-92554841D01*
X174909720Y-92566664D01*
X174917288Y-92579290D01*
X174923582Y-92592597D01*
X174928541Y-92606457D01*
X174932118Y-92620736D01*
X174934278Y-92635297D01*
X174935000Y-92650000D01*
X174935000Y-94300000D01*
X174934278Y-94314703D01*
X174932118Y-94329264D01*
X174928541Y-94343543D01*
X174923582Y-94357403D01*
X174917288Y-94370710D01*
X174909720Y-94383336D01*
X174900952Y-94395159D01*
X174891066Y-94406066D01*
X174880159Y-94415952D01*
X174868336Y-94424720D01*
X174855710Y-94432288D01*
X174842403Y-94438582D01*
X174828543Y-94443541D01*
X174814264Y-94447118D01*
X174799703Y-94449278D01*
X174785000Y-94450000D01*
X174485000Y-94450000D01*
X174470297Y-94449278D01*
X174455736Y-94447118D01*
X174441457Y-94443541D01*
X174427597Y-94438582D01*
X174414290Y-94432288D01*
X174401664Y-94424720D01*
X174389841Y-94415952D01*
X174378934Y-94406066D01*
X174369048Y-94395159D01*
X174360280Y-94383336D01*
X174352712Y-94370710D01*
X174346418Y-94357403D01*
X174341459Y-94343543D01*
X174337882Y-94329264D01*
X174335722Y-94314703D01*
X174335000Y-94300000D01*
X174335000Y-92650000D01*
X174335722Y-92635297D01*
X174337882Y-92620736D01*
X174341459Y-92606457D01*
X174346418Y-92592597D01*
X174352712Y-92579290D01*
X174360280Y-92566664D01*
X174369048Y-92554841D01*
X174378934Y-92543934D01*
X174389841Y-92534048D01*
X174401664Y-92525280D01*
X174414290Y-92517712D01*
X174427597Y-92511418D01*
X174441457Y-92506459D01*
X174455736Y-92502882D01*
X174470297Y-92500722D01*
X174485000Y-92500000D01*
X174785000Y-92500000D01*
X174799703Y-92500722D01*
G37*
G04 #@! TD.AperFunction*
G04 #@! TA.AperFunction,SMDPad,CuDef*
G36*
X173529703Y-92500722D02*
G01*
X173544264Y-92502882D01*
X173558543Y-92506459D01*
X173572403Y-92511418D01*
X173585710Y-92517712D01*
X173598336Y-92525280D01*
X173610159Y-92534048D01*
X173621066Y-92543934D01*
X173630952Y-92554841D01*
X173639720Y-92566664D01*
X173647288Y-92579290D01*
X173653582Y-92592597D01*
X173658541Y-92606457D01*
X173662118Y-92620736D01*
X173664278Y-92635297D01*
X173665000Y-92650000D01*
X173665000Y-94300000D01*
X173664278Y-94314703D01*
X173662118Y-94329264D01*
X173658541Y-94343543D01*
X173653582Y-94357403D01*
X173647288Y-94370710D01*
X173639720Y-94383336D01*
X173630952Y-94395159D01*
X173621066Y-94406066D01*
X173610159Y-94415952D01*
X173598336Y-94424720D01*
X173585710Y-94432288D01*
X173572403Y-94438582D01*
X173558543Y-94443541D01*
X173544264Y-94447118D01*
X173529703Y-94449278D01*
X173515000Y-94450000D01*
X173215000Y-94450000D01*
X173200297Y-94449278D01*
X173185736Y-94447118D01*
X173171457Y-94443541D01*
X173157597Y-94438582D01*
X173144290Y-94432288D01*
X173131664Y-94424720D01*
X173119841Y-94415952D01*
X173108934Y-94406066D01*
X173099048Y-94395159D01*
X173090280Y-94383336D01*
X173082712Y-94370710D01*
X173076418Y-94357403D01*
X173071459Y-94343543D01*
X173067882Y-94329264D01*
X173065722Y-94314703D01*
X173065000Y-94300000D01*
X173065000Y-92650000D01*
X173065722Y-92635297D01*
X173067882Y-92620736D01*
X173071459Y-92606457D01*
X173076418Y-92592597D01*
X173082712Y-92579290D01*
X173090280Y-92566664D01*
X173099048Y-92554841D01*
X173108934Y-92543934D01*
X173119841Y-92534048D01*
X173131664Y-92525280D01*
X173144290Y-92517712D01*
X173157597Y-92511418D01*
X173171457Y-92506459D01*
X173185736Y-92502882D01*
X173200297Y-92500722D01*
X173215000Y-92500000D01*
X173515000Y-92500000D01*
X173529703Y-92500722D01*
G37*
G04 #@! TD.AperFunction*
G04 #@! TA.AperFunction,SMDPad,CuDef*
G36*
X172259703Y-92500722D02*
G01*
X172274264Y-92502882D01*
X172288543Y-92506459D01*
X172302403Y-92511418D01*
X172315710Y-92517712D01*
X172328336Y-92525280D01*
X172340159Y-92534048D01*
X172351066Y-92543934D01*
X172360952Y-92554841D01*
X172369720Y-92566664D01*
X172377288Y-92579290D01*
X172383582Y-92592597D01*
X172388541Y-92606457D01*
X172392118Y-92620736D01*
X172394278Y-92635297D01*
X172395000Y-92650000D01*
X172395000Y-94300000D01*
X172394278Y-94314703D01*
X172392118Y-94329264D01*
X172388541Y-94343543D01*
X172383582Y-94357403D01*
X172377288Y-94370710D01*
X172369720Y-94383336D01*
X172360952Y-94395159D01*
X172351066Y-94406066D01*
X172340159Y-94415952D01*
X172328336Y-94424720D01*
X172315710Y-94432288D01*
X172302403Y-94438582D01*
X172288543Y-94443541D01*
X172274264Y-94447118D01*
X172259703Y-94449278D01*
X172245000Y-94450000D01*
X171945000Y-94450000D01*
X171930297Y-94449278D01*
X171915736Y-94447118D01*
X171901457Y-94443541D01*
X171887597Y-94438582D01*
X171874290Y-94432288D01*
X171861664Y-94424720D01*
X171849841Y-94415952D01*
X171838934Y-94406066D01*
X171829048Y-94395159D01*
X171820280Y-94383336D01*
X171812712Y-94370710D01*
X171806418Y-94357403D01*
X171801459Y-94343543D01*
X171797882Y-94329264D01*
X171795722Y-94314703D01*
X171795000Y-94300000D01*
X171795000Y-92650000D01*
X171795722Y-92635297D01*
X171797882Y-92620736D01*
X171801459Y-92606457D01*
X171806418Y-92592597D01*
X171812712Y-92579290D01*
X171820280Y-92566664D01*
X171829048Y-92554841D01*
X171838934Y-92543934D01*
X171849841Y-92534048D01*
X171861664Y-92525280D01*
X171874290Y-92517712D01*
X171887597Y-92511418D01*
X171901457Y-92506459D01*
X171915736Y-92502882D01*
X171930297Y-92500722D01*
X171945000Y-92500000D01*
X172245000Y-92500000D01*
X172259703Y-92500722D01*
G37*
G04 #@! TD.AperFunction*
G04 #@! TA.AperFunction,SMDPad,CuDef*
G36*
X172259703Y-87550722D02*
G01*
X172274264Y-87552882D01*
X172288543Y-87556459D01*
X172302403Y-87561418D01*
X172315710Y-87567712D01*
X172328336Y-87575280D01*
X172340159Y-87584048D01*
X172351066Y-87593934D01*
X172360952Y-87604841D01*
X172369720Y-87616664D01*
X172377288Y-87629290D01*
X172383582Y-87642597D01*
X172388541Y-87656457D01*
X172392118Y-87670736D01*
X172394278Y-87685297D01*
X172395000Y-87700000D01*
X172395000Y-89350000D01*
X172394278Y-89364703D01*
X172392118Y-89379264D01*
X172388541Y-89393543D01*
X172383582Y-89407403D01*
X172377288Y-89420710D01*
X172369720Y-89433336D01*
X172360952Y-89445159D01*
X172351066Y-89456066D01*
X172340159Y-89465952D01*
X172328336Y-89474720D01*
X172315710Y-89482288D01*
X172302403Y-89488582D01*
X172288543Y-89493541D01*
X172274264Y-89497118D01*
X172259703Y-89499278D01*
X172245000Y-89500000D01*
X171945000Y-89500000D01*
X171930297Y-89499278D01*
X171915736Y-89497118D01*
X171901457Y-89493541D01*
X171887597Y-89488582D01*
X171874290Y-89482288D01*
X171861664Y-89474720D01*
X171849841Y-89465952D01*
X171838934Y-89456066D01*
X171829048Y-89445159D01*
X171820280Y-89433336D01*
X171812712Y-89420710D01*
X171806418Y-89407403D01*
X171801459Y-89393543D01*
X171797882Y-89379264D01*
X171795722Y-89364703D01*
X171795000Y-89350000D01*
X171795000Y-87700000D01*
X171795722Y-87685297D01*
X171797882Y-87670736D01*
X171801459Y-87656457D01*
X171806418Y-87642597D01*
X171812712Y-87629290D01*
X171820280Y-87616664D01*
X171829048Y-87604841D01*
X171838934Y-87593934D01*
X171849841Y-87584048D01*
X171861664Y-87575280D01*
X171874290Y-87567712D01*
X171887597Y-87561418D01*
X171901457Y-87556459D01*
X171915736Y-87552882D01*
X171930297Y-87550722D01*
X171945000Y-87550000D01*
X172245000Y-87550000D01*
X172259703Y-87550722D01*
G37*
G04 #@! TD.AperFunction*
G04 #@! TA.AperFunction,SMDPad,CuDef*
G36*
X173529703Y-87550722D02*
G01*
X173544264Y-87552882D01*
X173558543Y-87556459D01*
X173572403Y-87561418D01*
X173585710Y-87567712D01*
X173598336Y-87575280D01*
X173610159Y-87584048D01*
X173621066Y-87593934D01*
X173630952Y-87604841D01*
X173639720Y-87616664D01*
X173647288Y-87629290D01*
X173653582Y-87642597D01*
X173658541Y-87656457D01*
X173662118Y-87670736D01*
X173664278Y-87685297D01*
X173665000Y-87700000D01*
X173665000Y-89350000D01*
X173664278Y-89364703D01*
X173662118Y-89379264D01*
X173658541Y-89393543D01*
X173653582Y-89407403D01*
X173647288Y-89420710D01*
X173639720Y-89433336D01*
X173630952Y-89445159D01*
X173621066Y-89456066D01*
X173610159Y-89465952D01*
X173598336Y-89474720D01*
X173585710Y-89482288D01*
X173572403Y-89488582D01*
X173558543Y-89493541D01*
X173544264Y-89497118D01*
X173529703Y-89499278D01*
X173515000Y-89500000D01*
X173215000Y-89500000D01*
X173200297Y-89499278D01*
X173185736Y-89497118D01*
X173171457Y-89493541D01*
X173157597Y-89488582D01*
X173144290Y-89482288D01*
X173131664Y-89474720D01*
X173119841Y-89465952D01*
X173108934Y-89456066D01*
X173099048Y-89445159D01*
X173090280Y-89433336D01*
X173082712Y-89420710D01*
X173076418Y-89407403D01*
X173071459Y-89393543D01*
X173067882Y-89379264D01*
X173065722Y-89364703D01*
X173065000Y-89350000D01*
X173065000Y-87700000D01*
X173065722Y-87685297D01*
X173067882Y-87670736D01*
X173071459Y-87656457D01*
X173076418Y-87642597D01*
X173082712Y-87629290D01*
X173090280Y-87616664D01*
X173099048Y-87604841D01*
X173108934Y-87593934D01*
X173119841Y-87584048D01*
X173131664Y-87575280D01*
X173144290Y-87567712D01*
X173157597Y-87561418D01*
X173171457Y-87556459D01*
X173185736Y-87552882D01*
X173200297Y-87550722D01*
X173215000Y-87550000D01*
X173515000Y-87550000D01*
X173529703Y-87550722D01*
G37*
G04 #@! TD.AperFunction*
G04 #@! TA.AperFunction,SMDPad,CuDef*
G36*
X174799703Y-87550722D02*
G01*
X174814264Y-87552882D01*
X174828543Y-87556459D01*
X174842403Y-87561418D01*
X174855710Y-87567712D01*
X174868336Y-87575280D01*
X174880159Y-87584048D01*
X174891066Y-87593934D01*
X174900952Y-87604841D01*
X174909720Y-87616664D01*
X174917288Y-87629290D01*
X174923582Y-87642597D01*
X174928541Y-87656457D01*
X174932118Y-87670736D01*
X174934278Y-87685297D01*
X174935000Y-87700000D01*
X174935000Y-89350000D01*
X174934278Y-89364703D01*
X174932118Y-89379264D01*
X174928541Y-89393543D01*
X174923582Y-89407403D01*
X174917288Y-89420710D01*
X174909720Y-89433336D01*
X174900952Y-89445159D01*
X174891066Y-89456066D01*
X174880159Y-89465952D01*
X174868336Y-89474720D01*
X174855710Y-89482288D01*
X174842403Y-89488582D01*
X174828543Y-89493541D01*
X174814264Y-89497118D01*
X174799703Y-89499278D01*
X174785000Y-89500000D01*
X174485000Y-89500000D01*
X174470297Y-89499278D01*
X174455736Y-89497118D01*
X174441457Y-89493541D01*
X174427597Y-89488582D01*
X174414290Y-89482288D01*
X174401664Y-89474720D01*
X174389841Y-89465952D01*
X174378934Y-89456066D01*
X174369048Y-89445159D01*
X174360280Y-89433336D01*
X174352712Y-89420710D01*
X174346418Y-89407403D01*
X174341459Y-89393543D01*
X174337882Y-89379264D01*
X174335722Y-89364703D01*
X174335000Y-89350000D01*
X174335000Y-87700000D01*
X174335722Y-87685297D01*
X174337882Y-87670736D01*
X174341459Y-87656457D01*
X174346418Y-87642597D01*
X174352712Y-87629290D01*
X174360280Y-87616664D01*
X174369048Y-87604841D01*
X174378934Y-87593934D01*
X174389841Y-87584048D01*
X174401664Y-87575280D01*
X174414290Y-87567712D01*
X174427597Y-87561418D01*
X174441457Y-87556459D01*
X174455736Y-87552882D01*
X174470297Y-87550722D01*
X174485000Y-87550000D01*
X174785000Y-87550000D01*
X174799703Y-87550722D01*
G37*
G04 #@! TD.AperFunction*
G04 #@! TA.AperFunction,SMDPad,CuDef*
G36*
X176069703Y-87550722D02*
G01*
X176084264Y-87552882D01*
X176098543Y-87556459D01*
X176112403Y-87561418D01*
X176125710Y-87567712D01*
X176138336Y-87575280D01*
X176150159Y-87584048D01*
X176161066Y-87593934D01*
X176170952Y-87604841D01*
X176179720Y-87616664D01*
X176187288Y-87629290D01*
X176193582Y-87642597D01*
X176198541Y-87656457D01*
X176202118Y-87670736D01*
X176204278Y-87685297D01*
X176205000Y-87700000D01*
X176205000Y-89350000D01*
X176204278Y-89364703D01*
X176202118Y-89379264D01*
X176198541Y-89393543D01*
X176193582Y-89407403D01*
X176187288Y-89420710D01*
X176179720Y-89433336D01*
X176170952Y-89445159D01*
X176161066Y-89456066D01*
X176150159Y-89465952D01*
X176138336Y-89474720D01*
X176125710Y-89482288D01*
X176112403Y-89488582D01*
X176098543Y-89493541D01*
X176084264Y-89497118D01*
X176069703Y-89499278D01*
X176055000Y-89500000D01*
X175755000Y-89500000D01*
X175740297Y-89499278D01*
X175725736Y-89497118D01*
X175711457Y-89493541D01*
X175697597Y-89488582D01*
X175684290Y-89482288D01*
X175671664Y-89474720D01*
X175659841Y-89465952D01*
X175648934Y-89456066D01*
X175639048Y-89445159D01*
X175630280Y-89433336D01*
X175622712Y-89420710D01*
X175616418Y-89407403D01*
X175611459Y-89393543D01*
X175607882Y-89379264D01*
X175605722Y-89364703D01*
X175605000Y-89350000D01*
X175605000Y-87700000D01*
X175605722Y-87685297D01*
X175607882Y-87670736D01*
X175611459Y-87656457D01*
X175616418Y-87642597D01*
X175622712Y-87629290D01*
X175630280Y-87616664D01*
X175639048Y-87604841D01*
X175648934Y-87593934D01*
X175659841Y-87584048D01*
X175671664Y-87575280D01*
X175684290Y-87567712D01*
X175697597Y-87561418D01*
X175711457Y-87556459D01*
X175725736Y-87552882D01*
X175740297Y-87550722D01*
X175755000Y-87550000D01*
X176055000Y-87550000D01*
X176069703Y-87550722D01*
G37*
G04 #@! TD.AperFunction*
D16*
X204950000Y-88075000D03*
X204950000Y-88725000D03*
X204950000Y-89375000D03*
X204950000Y-90025000D03*
X204950000Y-90675000D03*
X204950000Y-91325000D03*
X204950000Y-91975000D03*
X204950000Y-92625000D03*
X204950000Y-93275000D03*
X204950000Y-93925000D03*
X199050000Y-93925000D03*
X199050000Y-93275000D03*
X199050000Y-92625000D03*
X199050000Y-91975000D03*
X199050000Y-91325000D03*
X199050000Y-90675000D03*
X199050000Y-90025000D03*
X199050000Y-89375000D03*
X199050000Y-88725000D03*
X199050000Y-88075000D03*
D17*
X197000000Y-83050000D03*
X197000000Y-80950000D03*
G04 #@! TA.AperFunction,SMDPad,CuDef*
D11*
G36*
X197260779Y-76601144D02*
G01*
X197283834Y-76604563D01*
X197306443Y-76610227D01*
X197328387Y-76618079D01*
X197349457Y-76628044D01*
X197369448Y-76640026D01*
X197388168Y-76653910D01*
X197405438Y-76669562D01*
X197421090Y-76686832D01*
X197434974Y-76705552D01*
X197446956Y-76725543D01*
X197456921Y-76746613D01*
X197464773Y-76768557D01*
X197470437Y-76791166D01*
X197473856Y-76814221D01*
X197475000Y-76837500D01*
X197475000Y-77412500D01*
X197473856Y-77435779D01*
X197470437Y-77458834D01*
X197464773Y-77481443D01*
X197456921Y-77503387D01*
X197446956Y-77524457D01*
X197434974Y-77544448D01*
X197421090Y-77563168D01*
X197405438Y-77580438D01*
X197388168Y-77596090D01*
X197369448Y-77609974D01*
X197349457Y-77621956D01*
X197328387Y-77631921D01*
X197306443Y-77639773D01*
X197283834Y-77645437D01*
X197260779Y-77648856D01*
X197237500Y-77650000D01*
X196762500Y-77650000D01*
X196739221Y-77648856D01*
X196716166Y-77645437D01*
X196693557Y-77639773D01*
X196671613Y-77631921D01*
X196650543Y-77621956D01*
X196630552Y-77609974D01*
X196611832Y-77596090D01*
X196594562Y-77580438D01*
X196578910Y-77563168D01*
X196565026Y-77544448D01*
X196553044Y-77524457D01*
X196543079Y-77503387D01*
X196535227Y-77481443D01*
X196529563Y-77458834D01*
X196526144Y-77435779D01*
X196525000Y-77412500D01*
X196525000Y-76837500D01*
X196526144Y-76814221D01*
X196529563Y-76791166D01*
X196535227Y-76768557D01*
X196543079Y-76746613D01*
X196553044Y-76725543D01*
X196565026Y-76705552D01*
X196578910Y-76686832D01*
X196594562Y-76669562D01*
X196611832Y-76653910D01*
X196630552Y-76640026D01*
X196650543Y-76628044D01*
X196671613Y-76618079D01*
X196693557Y-76610227D01*
X196716166Y-76604563D01*
X196739221Y-76601144D01*
X196762500Y-76600000D01*
X197237500Y-76600000D01*
X197260779Y-76601144D01*
G37*
G04 #@! TD.AperFunction*
G04 #@! TA.AperFunction,SMDPad,CuDef*
G36*
X197260779Y-78351144D02*
G01*
X197283834Y-78354563D01*
X197306443Y-78360227D01*
X197328387Y-78368079D01*
X197349457Y-78378044D01*
X197369448Y-78390026D01*
X197388168Y-78403910D01*
X197405438Y-78419562D01*
X197421090Y-78436832D01*
X197434974Y-78455552D01*
X197446956Y-78475543D01*
X197456921Y-78496613D01*
X197464773Y-78518557D01*
X197470437Y-78541166D01*
X197473856Y-78564221D01*
X197475000Y-78587500D01*
X197475000Y-79162500D01*
X197473856Y-79185779D01*
X197470437Y-79208834D01*
X197464773Y-79231443D01*
X197456921Y-79253387D01*
X197446956Y-79274457D01*
X197434974Y-79294448D01*
X197421090Y-79313168D01*
X197405438Y-79330438D01*
X197388168Y-79346090D01*
X197369448Y-79359974D01*
X197349457Y-79371956D01*
X197328387Y-79381921D01*
X197306443Y-79389773D01*
X197283834Y-79395437D01*
X197260779Y-79398856D01*
X197237500Y-79400000D01*
X196762500Y-79400000D01*
X196739221Y-79398856D01*
X196716166Y-79395437D01*
X196693557Y-79389773D01*
X196671613Y-79381921D01*
X196650543Y-79371956D01*
X196630552Y-79359974D01*
X196611832Y-79346090D01*
X196594562Y-79330438D01*
X196578910Y-79313168D01*
X196565026Y-79294448D01*
X196553044Y-79274457D01*
X196543079Y-79253387D01*
X196535227Y-79231443D01*
X196529563Y-79208834D01*
X196526144Y-79185779D01*
X196525000Y-79162500D01*
X196525000Y-78587500D01*
X196526144Y-78564221D01*
X196529563Y-78541166D01*
X196535227Y-78518557D01*
X196543079Y-78496613D01*
X196553044Y-78475543D01*
X196565026Y-78455552D01*
X196578910Y-78436832D01*
X196594562Y-78419562D01*
X196611832Y-78403910D01*
X196630552Y-78390026D01*
X196650543Y-78378044D01*
X196671613Y-78368079D01*
X196693557Y-78360227D01*
X196716166Y-78354563D01*
X196739221Y-78351144D01*
X196762500Y-78350000D01*
X197237500Y-78350000D01*
X197260779Y-78351144D01*
G37*
G04 #@! TD.AperFunction*
G04 #@! TA.AperFunction,SMDPad,CuDef*
G36*
X178260779Y-95351144D02*
G01*
X178283834Y-95354563D01*
X178306443Y-95360227D01*
X178328387Y-95368079D01*
X178349457Y-95378044D01*
X178369448Y-95390026D01*
X178388168Y-95403910D01*
X178405438Y-95419562D01*
X178421090Y-95436832D01*
X178434974Y-95455552D01*
X178446956Y-95475543D01*
X178456921Y-95496613D01*
X178464773Y-95518557D01*
X178470437Y-95541166D01*
X178473856Y-95564221D01*
X178475000Y-95587500D01*
X178475000Y-96162500D01*
X178473856Y-96185779D01*
X178470437Y-96208834D01*
X178464773Y-96231443D01*
X178456921Y-96253387D01*
X178446956Y-96274457D01*
X178434974Y-96294448D01*
X178421090Y-96313168D01*
X178405438Y-96330438D01*
X178388168Y-96346090D01*
X178369448Y-96359974D01*
X178349457Y-96371956D01*
X178328387Y-96381921D01*
X178306443Y-96389773D01*
X178283834Y-96395437D01*
X178260779Y-96398856D01*
X178237500Y-96400000D01*
X177762500Y-96400000D01*
X177739221Y-96398856D01*
X177716166Y-96395437D01*
X177693557Y-96389773D01*
X177671613Y-96381921D01*
X177650543Y-96371956D01*
X177630552Y-96359974D01*
X177611832Y-96346090D01*
X177594562Y-96330438D01*
X177578910Y-96313168D01*
X177565026Y-96294448D01*
X177553044Y-96274457D01*
X177543079Y-96253387D01*
X177535227Y-96231443D01*
X177529563Y-96208834D01*
X177526144Y-96185779D01*
X177525000Y-96162500D01*
X177525000Y-95587500D01*
X177526144Y-95564221D01*
X177529563Y-95541166D01*
X177535227Y-95518557D01*
X177543079Y-95496613D01*
X177553044Y-95475543D01*
X177565026Y-95455552D01*
X177578910Y-95436832D01*
X177594562Y-95419562D01*
X177611832Y-95403910D01*
X177630552Y-95390026D01*
X177650543Y-95378044D01*
X177671613Y-95368079D01*
X177693557Y-95360227D01*
X177716166Y-95354563D01*
X177739221Y-95351144D01*
X177762500Y-95350000D01*
X178237500Y-95350000D01*
X178260779Y-95351144D01*
G37*
G04 #@! TD.AperFunction*
G04 #@! TA.AperFunction,SMDPad,CuDef*
G36*
X178260779Y-93601144D02*
G01*
X178283834Y-93604563D01*
X178306443Y-93610227D01*
X178328387Y-93618079D01*
X178349457Y-93628044D01*
X178369448Y-93640026D01*
X178388168Y-93653910D01*
X178405438Y-93669562D01*
X178421090Y-93686832D01*
X178434974Y-93705552D01*
X178446956Y-93725543D01*
X178456921Y-93746613D01*
X178464773Y-93768557D01*
X178470437Y-93791166D01*
X178473856Y-93814221D01*
X178475000Y-93837500D01*
X178475000Y-94412500D01*
X178473856Y-94435779D01*
X178470437Y-94458834D01*
X178464773Y-94481443D01*
X178456921Y-94503387D01*
X178446956Y-94524457D01*
X178434974Y-94544448D01*
X178421090Y-94563168D01*
X178405438Y-94580438D01*
X178388168Y-94596090D01*
X178369448Y-94609974D01*
X178349457Y-94621956D01*
X178328387Y-94631921D01*
X178306443Y-94639773D01*
X178283834Y-94645437D01*
X178260779Y-94648856D01*
X178237500Y-94650000D01*
X177762500Y-94650000D01*
X177739221Y-94648856D01*
X177716166Y-94645437D01*
X177693557Y-94639773D01*
X177671613Y-94631921D01*
X177650543Y-94621956D01*
X177630552Y-94609974D01*
X177611832Y-94596090D01*
X177594562Y-94580438D01*
X177578910Y-94563168D01*
X177565026Y-94544448D01*
X177553044Y-94524457D01*
X177543079Y-94503387D01*
X177535227Y-94481443D01*
X177529563Y-94458834D01*
X177526144Y-94435779D01*
X177525000Y-94412500D01*
X177525000Y-93837500D01*
X177526144Y-93814221D01*
X177529563Y-93791166D01*
X177535227Y-93768557D01*
X177543079Y-93746613D01*
X177553044Y-93725543D01*
X177565026Y-93705552D01*
X177578910Y-93686832D01*
X177594562Y-93669562D01*
X177611832Y-93653910D01*
X177630552Y-93640026D01*
X177650543Y-93628044D01*
X177671613Y-93618079D01*
X177693557Y-93610227D01*
X177716166Y-93604563D01*
X177739221Y-93601144D01*
X177762500Y-93600000D01*
X178237500Y-93600000D01*
X178260779Y-93601144D01*
G37*
G04 #@! TD.AperFunction*
G04 #@! TA.AperFunction,SMDPad,CuDef*
G36*
X185435779Y-82526144D02*
G01*
X185458834Y-82529563D01*
X185481443Y-82535227D01*
X185503387Y-82543079D01*
X185524457Y-82553044D01*
X185544448Y-82565026D01*
X185563168Y-82578910D01*
X185580438Y-82594562D01*
X185596090Y-82611832D01*
X185609974Y-82630552D01*
X185621956Y-82650543D01*
X185631921Y-82671613D01*
X185639773Y-82693557D01*
X185645437Y-82716166D01*
X185648856Y-82739221D01*
X185650000Y-82762500D01*
X185650000Y-83237500D01*
X185648856Y-83260779D01*
X185645437Y-83283834D01*
X185639773Y-83306443D01*
X185631921Y-83328387D01*
X185621956Y-83349457D01*
X185609974Y-83369448D01*
X185596090Y-83388168D01*
X185580438Y-83405438D01*
X185563168Y-83421090D01*
X185544448Y-83434974D01*
X185524457Y-83446956D01*
X185503387Y-83456921D01*
X185481443Y-83464773D01*
X185458834Y-83470437D01*
X185435779Y-83473856D01*
X185412500Y-83475000D01*
X184837500Y-83475000D01*
X184814221Y-83473856D01*
X184791166Y-83470437D01*
X184768557Y-83464773D01*
X184746613Y-83456921D01*
X184725543Y-83446956D01*
X184705552Y-83434974D01*
X184686832Y-83421090D01*
X184669562Y-83405438D01*
X184653910Y-83388168D01*
X184640026Y-83369448D01*
X184628044Y-83349457D01*
X184618079Y-83328387D01*
X184610227Y-83306443D01*
X184604563Y-83283834D01*
X184601144Y-83260779D01*
X184600000Y-83237500D01*
X184600000Y-82762500D01*
X184601144Y-82739221D01*
X184604563Y-82716166D01*
X184610227Y-82693557D01*
X184618079Y-82671613D01*
X184628044Y-82650543D01*
X184640026Y-82630552D01*
X184653910Y-82611832D01*
X184669562Y-82594562D01*
X184686832Y-82578910D01*
X184705552Y-82565026D01*
X184725543Y-82553044D01*
X184746613Y-82543079D01*
X184768557Y-82535227D01*
X184791166Y-82529563D01*
X184814221Y-82526144D01*
X184837500Y-82525000D01*
X185412500Y-82525000D01*
X185435779Y-82526144D01*
G37*
G04 #@! TD.AperFunction*
G04 #@! TA.AperFunction,SMDPad,CuDef*
G36*
X187185779Y-82526144D02*
G01*
X187208834Y-82529563D01*
X187231443Y-82535227D01*
X187253387Y-82543079D01*
X187274457Y-82553044D01*
X187294448Y-82565026D01*
X187313168Y-82578910D01*
X187330438Y-82594562D01*
X187346090Y-82611832D01*
X187359974Y-82630552D01*
X187371956Y-82650543D01*
X187381921Y-82671613D01*
X187389773Y-82693557D01*
X187395437Y-82716166D01*
X187398856Y-82739221D01*
X187400000Y-82762500D01*
X187400000Y-83237500D01*
X187398856Y-83260779D01*
X187395437Y-83283834D01*
X187389773Y-83306443D01*
X187381921Y-83328387D01*
X187371956Y-83349457D01*
X187359974Y-83369448D01*
X187346090Y-83388168D01*
X187330438Y-83405438D01*
X187313168Y-83421090D01*
X187294448Y-83434974D01*
X187274457Y-83446956D01*
X187253387Y-83456921D01*
X187231443Y-83464773D01*
X187208834Y-83470437D01*
X187185779Y-83473856D01*
X187162500Y-83475000D01*
X186587500Y-83475000D01*
X186564221Y-83473856D01*
X186541166Y-83470437D01*
X186518557Y-83464773D01*
X186496613Y-83456921D01*
X186475543Y-83446956D01*
X186455552Y-83434974D01*
X186436832Y-83421090D01*
X186419562Y-83405438D01*
X186403910Y-83388168D01*
X186390026Y-83369448D01*
X186378044Y-83349457D01*
X186368079Y-83328387D01*
X186360227Y-83306443D01*
X186354563Y-83283834D01*
X186351144Y-83260779D01*
X186350000Y-83237500D01*
X186350000Y-82762500D01*
X186351144Y-82739221D01*
X186354563Y-82716166D01*
X186360227Y-82693557D01*
X186368079Y-82671613D01*
X186378044Y-82650543D01*
X186390026Y-82630552D01*
X186403910Y-82611832D01*
X186419562Y-82594562D01*
X186436832Y-82578910D01*
X186455552Y-82565026D01*
X186475543Y-82553044D01*
X186496613Y-82543079D01*
X186518557Y-82535227D01*
X186541166Y-82529563D01*
X186564221Y-82526144D01*
X186587500Y-82525000D01*
X187162500Y-82525000D01*
X187185779Y-82526144D01*
G37*
G04 #@! TD.AperFunction*
G04 #@! TA.AperFunction,SMDPad,CuDef*
G36*
X187185779Y-76526144D02*
G01*
X187208834Y-76529563D01*
X187231443Y-76535227D01*
X187253387Y-76543079D01*
X187274457Y-76553044D01*
X187294448Y-76565026D01*
X187313168Y-76578910D01*
X187330438Y-76594562D01*
X187346090Y-76611832D01*
X187359974Y-76630552D01*
X187371956Y-76650543D01*
X187381921Y-76671613D01*
X187389773Y-76693557D01*
X187395437Y-76716166D01*
X187398856Y-76739221D01*
X187400000Y-76762500D01*
X187400000Y-77237500D01*
X187398856Y-77260779D01*
X187395437Y-77283834D01*
X187389773Y-77306443D01*
X187381921Y-77328387D01*
X187371956Y-77349457D01*
X187359974Y-77369448D01*
X187346090Y-77388168D01*
X187330438Y-77405438D01*
X187313168Y-77421090D01*
X187294448Y-77434974D01*
X187274457Y-77446956D01*
X187253387Y-77456921D01*
X187231443Y-77464773D01*
X187208834Y-77470437D01*
X187185779Y-77473856D01*
X187162500Y-77475000D01*
X186587500Y-77475000D01*
X186564221Y-77473856D01*
X186541166Y-77470437D01*
X186518557Y-77464773D01*
X186496613Y-77456921D01*
X186475543Y-77446956D01*
X186455552Y-77434974D01*
X186436832Y-77421090D01*
X186419562Y-77405438D01*
X186403910Y-77388168D01*
X186390026Y-77369448D01*
X186378044Y-77349457D01*
X186368079Y-77328387D01*
X186360227Y-77306443D01*
X186354563Y-77283834D01*
X186351144Y-77260779D01*
X186350000Y-77237500D01*
X186350000Y-76762500D01*
X186351144Y-76739221D01*
X186354563Y-76716166D01*
X186360227Y-76693557D01*
X186368079Y-76671613D01*
X186378044Y-76650543D01*
X186390026Y-76630552D01*
X186403910Y-76611832D01*
X186419562Y-76594562D01*
X186436832Y-76578910D01*
X186455552Y-76565026D01*
X186475543Y-76553044D01*
X186496613Y-76543079D01*
X186518557Y-76535227D01*
X186541166Y-76529563D01*
X186564221Y-76526144D01*
X186587500Y-76525000D01*
X187162500Y-76525000D01*
X187185779Y-76526144D01*
G37*
G04 #@! TD.AperFunction*
G04 #@! TA.AperFunction,SMDPad,CuDef*
G36*
X185435779Y-76526144D02*
G01*
X185458834Y-76529563D01*
X185481443Y-76535227D01*
X185503387Y-76543079D01*
X185524457Y-76553044D01*
X185544448Y-76565026D01*
X185563168Y-76578910D01*
X185580438Y-76594562D01*
X185596090Y-76611832D01*
X185609974Y-76630552D01*
X185621956Y-76650543D01*
X185631921Y-76671613D01*
X185639773Y-76693557D01*
X185645437Y-76716166D01*
X185648856Y-76739221D01*
X185650000Y-76762500D01*
X185650000Y-77237500D01*
X185648856Y-77260779D01*
X185645437Y-77283834D01*
X185639773Y-77306443D01*
X185631921Y-77328387D01*
X185621956Y-77349457D01*
X185609974Y-77369448D01*
X185596090Y-77388168D01*
X185580438Y-77405438D01*
X185563168Y-77421090D01*
X185544448Y-77434974D01*
X185524457Y-77446956D01*
X185503387Y-77456921D01*
X185481443Y-77464773D01*
X185458834Y-77470437D01*
X185435779Y-77473856D01*
X185412500Y-77475000D01*
X184837500Y-77475000D01*
X184814221Y-77473856D01*
X184791166Y-77470437D01*
X184768557Y-77464773D01*
X184746613Y-77456921D01*
X184725543Y-77446956D01*
X184705552Y-77434974D01*
X184686832Y-77421090D01*
X184669562Y-77405438D01*
X184653910Y-77388168D01*
X184640026Y-77369448D01*
X184628044Y-77349457D01*
X184618079Y-77328387D01*
X184610227Y-77306443D01*
X184604563Y-77283834D01*
X184601144Y-77260779D01*
X184600000Y-77237500D01*
X184600000Y-76762500D01*
X184601144Y-76739221D01*
X184604563Y-76716166D01*
X184610227Y-76693557D01*
X184618079Y-76671613D01*
X184628044Y-76650543D01*
X184640026Y-76630552D01*
X184653910Y-76611832D01*
X184669562Y-76594562D01*
X184686832Y-76578910D01*
X184705552Y-76565026D01*
X184725543Y-76553044D01*
X184746613Y-76543079D01*
X184768557Y-76535227D01*
X184791166Y-76529563D01*
X184814221Y-76526144D01*
X184837500Y-76525000D01*
X185412500Y-76525000D01*
X185435779Y-76526144D01*
G37*
G04 #@! TD.AperFunction*
G04 #@! TA.AperFunction,SMDPad,CuDef*
G36*
X178260779Y-88351144D02*
G01*
X178283834Y-88354563D01*
X178306443Y-88360227D01*
X178328387Y-88368079D01*
X178349457Y-88378044D01*
X178369448Y-88390026D01*
X178388168Y-88403910D01*
X178405438Y-88419562D01*
X178421090Y-88436832D01*
X178434974Y-88455552D01*
X178446956Y-88475543D01*
X178456921Y-88496613D01*
X178464773Y-88518557D01*
X178470437Y-88541166D01*
X178473856Y-88564221D01*
X178475000Y-88587500D01*
X178475000Y-89162500D01*
X178473856Y-89185779D01*
X178470437Y-89208834D01*
X178464773Y-89231443D01*
X178456921Y-89253387D01*
X178446956Y-89274457D01*
X178434974Y-89294448D01*
X178421090Y-89313168D01*
X178405438Y-89330438D01*
X178388168Y-89346090D01*
X178369448Y-89359974D01*
X178349457Y-89371956D01*
X178328387Y-89381921D01*
X178306443Y-89389773D01*
X178283834Y-89395437D01*
X178260779Y-89398856D01*
X178237500Y-89400000D01*
X177762500Y-89400000D01*
X177739221Y-89398856D01*
X177716166Y-89395437D01*
X177693557Y-89389773D01*
X177671613Y-89381921D01*
X177650543Y-89371956D01*
X177630552Y-89359974D01*
X177611832Y-89346090D01*
X177594562Y-89330438D01*
X177578910Y-89313168D01*
X177565026Y-89294448D01*
X177553044Y-89274457D01*
X177543079Y-89253387D01*
X177535227Y-89231443D01*
X177529563Y-89208834D01*
X177526144Y-89185779D01*
X177525000Y-89162500D01*
X177525000Y-88587500D01*
X177526144Y-88564221D01*
X177529563Y-88541166D01*
X177535227Y-88518557D01*
X177543079Y-88496613D01*
X177553044Y-88475543D01*
X177565026Y-88455552D01*
X177578910Y-88436832D01*
X177594562Y-88419562D01*
X177611832Y-88403910D01*
X177630552Y-88390026D01*
X177650543Y-88378044D01*
X177671613Y-88368079D01*
X177693557Y-88360227D01*
X177716166Y-88354563D01*
X177739221Y-88351144D01*
X177762500Y-88350000D01*
X178237500Y-88350000D01*
X178260779Y-88351144D01*
G37*
G04 #@! TD.AperFunction*
G04 #@! TA.AperFunction,SMDPad,CuDef*
G36*
X178260779Y-86601144D02*
G01*
X178283834Y-86604563D01*
X178306443Y-86610227D01*
X178328387Y-86618079D01*
X178349457Y-86628044D01*
X178369448Y-86640026D01*
X178388168Y-86653910D01*
X178405438Y-86669562D01*
X178421090Y-86686832D01*
X178434974Y-86705552D01*
X178446956Y-86725543D01*
X178456921Y-86746613D01*
X178464773Y-86768557D01*
X178470437Y-86791166D01*
X178473856Y-86814221D01*
X178475000Y-86837500D01*
X178475000Y-87412500D01*
X178473856Y-87435779D01*
X178470437Y-87458834D01*
X178464773Y-87481443D01*
X178456921Y-87503387D01*
X178446956Y-87524457D01*
X178434974Y-87544448D01*
X178421090Y-87563168D01*
X178405438Y-87580438D01*
X178388168Y-87596090D01*
X178369448Y-87609974D01*
X178349457Y-87621956D01*
X178328387Y-87631921D01*
X178306443Y-87639773D01*
X178283834Y-87645437D01*
X178260779Y-87648856D01*
X178237500Y-87650000D01*
X177762500Y-87650000D01*
X177739221Y-87648856D01*
X177716166Y-87645437D01*
X177693557Y-87639773D01*
X177671613Y-87631921D01*
X177650543Y-87621956D01*
X177630552Y-87609974D01*
X177611832Y-87596090D01*
X177594562Y-87580438D01*
X177578910Y-87563168D01*
X177565026Y-87544448D01*
X177553044Y-87524457D01*
X177543079Y-87503387D01*
X177535227Y-87481443D01*
X177529563Y-87458834D01*
X177526144Y-87435779D01*
X177525000Y-87412500D01*
X177525000Y-86837500D01*
X177526144Y-86814221D01*
X177529563Y-86791166D01*
X177535227Y-86768557D01*
X177543079Y-86746613D01*
X177553044Y-86725543D01*
X177565026Y-86705552D01*
X177578910Y-86686832D01*
X177594562Y-86669562D01*
X177611832Y-86653910D01*
X177630552Y-86640026D01*
X177650543Y-86628044D01*
X177671613Y-86618079D01*
X177693557Y-86610227D01*
X177716166Y-86604563D01*
X177739221Y-86601144D01*
X177762500Y-86600000D01*
X178237500Y-86600000D01*
X178260779Y-86601144D01*
G37*
G04 #@! TD.AperFunction*
G04 #@! TA.AperFunction,SMDPad,CuDef*
G36*
X194260779Y-87351144D02*
G01*
X194283834Y-87354563D01*
X194306443Y-87360227D01*
X194328387Y-87368079D01*
X194349457Y-87378044D01*
X194369448Y-87390026D01*
X194388168Y-87403910D01*
X194405438Y-87419562D01*
X194421090Y-87436832D01*
X194434974Y-87455552D01*
X194446956Y-87475543D01*
X194456921Y-87496613D01*
X194464773Y-87518557D01*
X194470437Y-87541166D01*
X194473856Y-87564221D01*
X194475000Y-87587500D01*
X194475000Y-88162500D01*
X194473856Y-88185779D01*
X194470437Y-88208834D01*
X194464773Y-88231443D01*
X194456921Y-88253387D01*
X194446956Y-88274457D01*
X194434974Y-88294448D01*
X194421090Y-88313168D01*
X194405438Y-88330438D01*
X194388168Y-88346090D01*
X194369448Y-88359974D01*
X194349457Y-88371956D01*
X194328387Y-88381921D01*
X194306443Y-88389773D01*
X194283834Y-88395437D01*
X194260779Y-88398856D01*
X194237500Y-88400000D01*
X193762500Y-88400000D01*
X193739221Y-88398856D01*
X193716166Y-88395437D01*
X193693557Y-88389773D01*
X193671613Y-88381921D01*
X193650543Y-88371956D01*
X193630552Y-88359974D01*
X193611832Y-88346090D01*
X193594562Y-88330438D01*
X193578910Y-88313168D01*
X193565026Y-88294448D01*
X193553044Y-88274457D01*
X193543079Y-88253387D01*
X193535227Y-88231443D01*
X193529563Y-88208834D01*
X193526144Y-88185779D01*
X193525000Y-88162500D01*
X193525000Y-87587500D01*
X193526144Y-87564221D01*
X193529563Y-87541166D01*
X193535227Y-87518557D01*
X193543079Y-87496613D01*
X193553044Y-87475543D01*
X193565026Y-87455552D01*
X193578910Y-87436832D01*
X193594562Y-87419562D01*
X193611832Y-87403910D01*
X193630552Y-87390026D01*
X193650543Y-87378044D01*
X193671613Y-87368079D01*
X193693557Y-87360227D01*
X193716166Y-87354563D01*
X193739221Y-87351144D01*
X193762500Y-87350000D01*
X194237500Y-87350000D01*
X194260779Y-87351144D01*
G37*
G04 #@! TD.AperFunction*
G04 #@! TA.AperFunction,SMDPad,CuDef*
G36*
X194260779Y-85601144D02*
G01*
X194283834Y-85604563D01*
X194306443Y-85610227D01*
X194328387Y-85618079D01*
X194349457Y-85628044D01*
X194369448Y-85640026D01*
X194388168Y-85653910D01*
X194405438Y-85669562D01*
X194421090Y-85686832D01*
X194434974Y-85705552D01*
X194446956Y-85725543D01*
X194456921Y-85746613D01*
X194464773Y-85768557D01*
X194470437Y-85791166D01*
X194473856Y-85814221D01*
X194475000Y-85837500D01*
X194475000Y-86412500D01*
X194473856Y-86435779D01*
X194470437Y-86458834D01*
X194464773Y-86481443D01*
X194456921Y-86503387D01*
X194446956Y-86524457D01*
X194434974Y-86544448D01*
X194421090Y-86563168D01*
X194405438Y-86580438D01*
X194388168Y-86596090D01*
X194369448Y-86609974D01*
X194349457Y-86621956D01*
X194328387Y-86631921D01*
X194306443Y-86639773D01*
X194283834Y-86645437D01*
X194260779Y-86648856D01*
X194237500Y-86650000D01*
X193762500Y-86650000D01*
X193739221Y-86648856D01*
X193716166Y-86645437D01*
X193693557Y-86639773D01*
X193671613Y-86631921D01*
X193650543Y-86621956D01*
X193630552Y-86609974D01*
X193611832Y-86596090D01*
X193594562Y-86580438D01*
X193578910Y-86563168D01*
X193565026Y-86544448D01*
X193553044Y-86524457D01*
X193543079Y-86503387D01*
X193535227Y-86481443D01*
X193529563Y-86458834D01*
X193526144Y-86435779D01*
X193525000Y-86412500D01*
X193525000Y-85837500D01*
X193526144Y-85814221D01*
X193529563Y-85791166D01*
X193535227Y-85768557D01*
X193543079Y-85746613D01*
X193553044Y-85725543D01*
X193565026Y-85705552D01*
X193578910Y-85686832D01*
X193594562Y-85669562D01*
X193611832Y-85653910D01*
X193630552Y-85640026D01*
X193650543Y-85628044D01*
X193671613Y-85618079D01*
X193693557Y-85610227D01*
X193716166Y-85604563D01*
X193739221Y-85601144D01*
X193762500Y-85600000D01*
X194237500Y-85600000D01*
X194260779Y-85601144D01*
G37*
G04 #@! TD.AperFunction*
G04 #@! TA.AperFunction,SMDPad,CuDef*
G36*
X194260779Y-90601144D02*
G01*
X194283834Y-90604563D01*
X194306443Y-90610227D01*
X194328387Y-90618079D01*
X194349457Y-90628044D01*
X194369448Y-90640026D01*
X194388168Y-90653910D01*
X194405438Y-90669562D01*
X194421090Y-90686832D01*
X194434974Y-90705552D01*
X194446956Y-90725543D01*
X194456921Y-90746613D01*
X194464773Y-90768557D01*
X194470437Y-90791166D01*
X194473856Y-90814221D01*
X194475000Y-90837500D01*
X194475000Y-91412500D01*
X194473856Y-91435779D01*
X194470437Y-91458834D01*
X194464773Y-91481443D01*
X194456921Y-91503387D01*
X194446956Y-91524457D01*
X194434974Y-91544448D01*
X194421090Y-91563168D01*
X194405438Y-91580438D01*
X194388168Y-91596090D01*
X194369448Y-91609974D01*
X194349457Y-91621956D01*
X194328387Y-91631921D01*
X194306443Y-91639773D01*
X194283834Y-91645437D01*
X194260779Y-91648856D01*
X194237500Y-91650000D01*
X193762500Y-91650000D01*
X193739221Y-91648856D01*
X193716166Y-91645437D01*
X193693557Y-91639773D01*
X193671613Y-91631921D01*
X193650543Y-91621956D01*
X193630552Y-91609974D01*
X193611832Y-91596090D01*
X193594562Y-91580438D01*
X193578910Y-91563168D01*
X193565026Y-91544448D01*
X193553044Y-91524457D01*
X193543079Y-91503387D01*
X193535227Y-91481443D01*
X193529563Y-91458834D01*
X193526144Y-91435779D01*
X193525000Y-91412500D01*
X193525000Y-90837500D01*
X193526144Y-90814221D01*
X193529563Y-90791166D01*
X193535227Y-90768557D01*
X193543079Y-90746613D01*
X193553044Y-90725543D01*
X193565026Y-90705552D01*
X193578910Y-90686832D01*
X193594562Y-90669562D01*
X193611832Y-90653910D01*
X193630552Y-90640026D01*
X193650543Y-90628044D01*
X193671613Y-90618079D01*
X193693557Y-90610227D01*
X193716166Y-90604563D01*
X193739221Y-90601144D01*
X193762500Y-90600000D01*
X194237500Y-90600000D01*
X194260779Y-90601144D01*
G37*
G04 #@! TD.AperFunction*
G04 #@! TA.AperFunction,SMDPad,CuDef*
G36*
X194260779Y-92351144D02*
G01*
X194283834Y-92354563D01*
X194306443Y-92360227D01*
X194328387Y-92368079D01*
X194349457Y-92378044D01*
X194369448Y-92390026D01*
X194388168Y-92403910D01*
X194405438Y-92419562D01*
X194421090Y-92436832D01*
X194434974Y-92455552D01*
X194446956Y-92475543D01*
X194456921Y-92496613D01*
X194464773Y-92518557D01*
X194470437Y-92541166D01*
X194473856Y-92564221D01*
X194475000Y-92587500D01*
X194475000Y-93162500D01*
X194473856Y-93185779D01*
X194470437Y-93208834D01*
X194464773Y-93231443D01*
X194456921Y-93253387D01*
X194446956Y-93274457D01*
X194434974Y-93294448D01*
X194421090Y-93313168D01*
X194405438Y-93330438D01*
X194388168Y-93346090D01*
X194369448Y-93359974D01*
X194349457Y-93371956D01*
X194328387Y-93381921D01*
X194306443Y-93389773D01*
X194283834Y-93395437D01*
X194260779Y-93398856D01*
X194237500Y-93400000D01*
X193762500Y-93400000D01*
X193739221Y-93398856D01*
X193716166Y-93395437D01*
X193693557Y-93389773D01*
X193671613Y-93381921D01*
X193650543Y-93371956D01*
X193630552Y-93359974D01*
X193611832Y-93346090D01*
X193594562Y-93330438D01*
X193578910Y-93313168D01*
X193565026Y-93294448D01*
X193553044Y-93274457D01*
X193543079Y-93253387D01*
X193535227Y-93231443D01*
X193529563Y-93208834D01*
X193526144Y-93185779D01*
X193525000Y-93162500D01*
X193525000Y-92587500D01*
X193526144Y-92564221D01*
X193529563Y-92541166D01*
X193535227Y-92518557D01*
X193543079Y-92496613D01*
X193553044Y-92475543D01*
X193565026Y-92455552D01*
X193578910Y-92436832D01*
X193594562Y-92419562D01*
X193611832Y-92403910D01*
X193630552Y-92390026D01*
X193650543Y-92378044D01*
X193671613Y-92368079D01*
X193693557Y-92360227D01*
X193716166Y-92354563D01*
X193739221Y-92351144D01*
X193762500Y-92350000D01*
X194237500Y-92350000D01*
X194260779Y-92351144D01*
G37*
G04 #@! TD.AperFunction*
D18*
X207250000Y-91250000D03*
X206750000Y-94000000D03*
X207444999Y-92500000D03*
X188500000Y-86250000D03*
X206750000Y-90250000D03*
X182000000Y-97500000D03*
X196750000Y-94000000D03*
X196750000Y-93000000D03*
X201000000Y-86250000D03*
X182000000Y-98750000D03*
X196750000Y-88750000D03*
X197500000Y-88000000D03*
D19*
X198075000Y-91325000D02*
X197750000Y-91650000D01*
X199050000Y-91325000D02*
X198075000Y-91325000D01*
X197750000Y-91650000D02*
X197750000Y-92000000D01*
X197775000Y-91975000D02*
X199050000Y-91975000D01*
X197750000Y-92000000D02*
X197775000Y-91975000D01*
X197750000Y-92300000D02*
X197750000Y-92000000D01*
X198075000Y-92625000D02*
X197750000Y-92300000D01*
X199050000Y-92625000D02*
X198075000Y-92625000D01*
X207175000Y-91325000D02*
X207250000Y-91250000D01*
X204950000Y-91325000D02*
X207175000Y-91325000D01*
X205925000Y-92625000D02*
X206750000Y-93450000D01*
X206750000Y-93450000D02*
X206750000Y-94000000D01*
X204950000Y-92625000D02*
X205925000Y-92625000D01*
X194575000Y-90025000D02*
X194000000Y-90600000D01*
X194000000Y-90600000D02*
X194000000Y-91125000D01*
X199050000Y-90025000D02*
X194575000Y-90025000D01*
X203975000Y-90025000D02*
X203750000Y-90250000D01*
X204950000Y-90025000D02*
X203975000Y-90025000D01*
X203975000Y-91975000D02*
X204950000Y-91975000D01*
X203750000Y-91750000D02*
X203975000Y-91975000D01*
X203750000Y-90250000D02*
X203750000Y-91750000D01*
X186350000Y-88000000D02*
X186000000Y-87650000D01*
X188500000Y-88000000D02*
X186350000Y-88000000D01*
X206919999Y-91975000D02*
X207444999Y-92500000D01*
X204950000Y-91975000D02*
X206919999Y-91975000D01*
X177875000Y-93475000D02*
X178000000Y-93600000D01*
X175905000Y-93475000D02*
X177875000Y-93475000D01*
X178000000Y-93600000D02*
X178000000Y-94125000D01*
X183950000Y-87650000D02*
X178000000Y-93600000D01*
X186000000Y-87650000D02*
X183950000Y-87650000D01*
X191850000Y-81000000D02*
X191000000Y-81000000D01*
X191000000Y-81000000D02*
X188500000Y-83500000D01*
X188500000Y-88000000D02*
X188500000Y-88500000D01*
X188500000Y-86250000D02*
X188500000Y-88500000D01*
X188500000Y-83500000D02*
X188500000Y-86250000D01*
X198075000Y-89375000D02*
X199050000Y-89375000D01*
X197910001Y-89539999D02*
X198075000Y-89375000D01*
X195139999Y-89539999D02*
X197910001Y-89539999D01*
X194000000Y-88400000D02*
X195139999Y-89539999D01*
X194000000Y-87875000D02*
X194000000Y-88400000D01*
X188500000Y-90750000D02*
X188500000Y-88500000D01*
X188750000Y-91000000D02*
X188500000Y-90750000D01*
X192050000Y-91000000D02*
X188750000Y-91000000D01*
X192175000Y-91125000D02*
X192050000Y-91000000D01*
X194000000Y-91125000D02*
X192175000Y-91125000D01*
X192175000Y-87875000D02*
X194000000Y-87875000D01*
X192050000Y-88000000D02*
X192175000Y-87875000D01*
X188500000Y-88000000D02*
X192050000Y-88000000D01*
X169500000Y-85930000D02*
X171795000Y-88225000D01*
X171795000Y-88225000D02*
X172095000Y-88525000D01*
X169500000Y-82350000D02*
X169500000Y-85930000D01*
X170000000Y-81850000D02*
X169500000Y-82350000D01*
X169430000Y-86000000D02*
X169500000Y-85930000D01*
X168650000Y-86000000D02*
X169430000Y-86000000D01*
X178000000Y-89400000D02*
X178000000Y-88875000D01*
X172095000Y-88525000D02*
X172095000Y-89500000D01*
X178000000Y-89400000D02*
X177150000Y-90250000D01*
X172845000Y-90250000D02*
X172095000Y-89500000D01*
X177150000Y-90250000D02*
X172845000Y-90250000D01*
X186000000Y-77875000D02*
X186000000Y-78900000D01*
X186875000Y-77000000D02*
X186000000Y-77875000D01*
X186000000Y-79680000D02*
X185680000Y-80000000D01*
X186000000Y-78900000D02*
X186000000Y-79680000D01*
X184709998Y-80000000D02*
X180500000Y-84209998D01*
X185680000Y-80000000D02*
X184709998Y-80000000D01*
X178475000Y-88875000D02*
X178000000Y-88875000D01*
X180500000Y-86850000D02*
X178475000Y-88875000D01*
X180500000Y-84209998D02*
X180500000Y-86850000D01*
X172000000Y-80100000D02*
X173350000Y-78750000D01*
X172000000Y-81850000D02*
X172000000Y-80100000D01*
X179600000Y-78750000D02*
X181350000Y-77000000D01*
X173350000Y-78750000D02*
X179600000Y-78750000D01*
X179600000Y-78750000D02*
X179600000Y-85600000D01*
X178000000Y-86600000D02*
X178000000Y-87125000D01*
X179000000Y-85600000D02*
X178000000Y-86600000D01*
X179600000Y-85600000D02*
X179000000Y-85600000D01*
X177305000Y-87125000D02*
X175905000Y-88525000D01*
X178000000Y-87125000D02*
X177305000Y-87125000D01*
X185125000Y-78825000D02*
X185050000Y-78900000D01*
X185125000Y-77000000D02*
X185125000Y-78825000D01*
X182650000Y-77000000D02*
X185125000Y-77000000D01*
X187525000Y-78900000D02*
X188500000Y-77925000D01*
X186950000Y-78900000D02*
X187525000Y-78900000D01*
X188500000Y-77925000D02*
X188500000Y-75250000D01*
X186400000Y-75250000D02*
X185125000Y-76525000D01*
X185125000Y-76525000D02*
X185125000Y-77000000D01*
X188500000Y-75250000D02*
X186400000Y-75250000D01*
X186875000Y-85475000D02*
X186000000Y-86350000D01*
X186875000Y-83000000D02*
X186875000Y-85475000D01*
X186950000Y-82925000D02*
X186875000Y-83000000D01*
X186950000Y-81100000D02*
X186950000Y-82925000D01*
X195000000Y-77125000D02*
X194875000Y-77000000D01*
X197000000Y-77125000D02*
X195000000Y-77125000D01*
X197000000Y-78875000D02*
X197000000Y-80950000D01*
X193200000Y-80950000D02*
X193150000Y-81000000D01*
X197000000Y-80950000D02*
X193200000Y-80950000D01*
X203500000Y-83050000D02*
X197850000Y-83050000D01*
X197850000Y-83050000D02*
X197000000Y-83050000D01*
X205000000Y-81550000D02*
X203500000Y-83050000D01*
X203975000Y-88075000D02*
X200500000Y-91550000D01*
X204950000Y-88075000D02*
X203975000Y-88075000D01*
X200500000Y-94010002D02*
X199510002Y-95000000D01*
X200500000Y-91550000D02*
X200500000Y-94010002D01*
X196080000Y-95000000D02*
X192080000Y-99000000D01*
X199510002Y-95000000D02*
X196080000Y-95000000D01*
X199696402Y-95450010D02*
X201000000Y-94146412D01*
X198169991Y-95450009D02*
X199696402Y-95450010D01*
X194620000Y-99000000D02*
X198169991Y-95450009D01*
X201000000Y-91700000D02*
X203975000Y-88725000D01*
X203975000Y-88725000D02*
X204950000Y-88725000D01*
X201000000Y-94146412D02*
X201000000Y-91700000D01*
X208169999Y-96830001D02*
X207250000Y-97750000D01*
X208169999Y-90596997D02*
X208169999Y-96830001D01*
X206948002Y-89375000D02*
X208169999Y-90596997D01*
X204950000Y-89375000D02*
X206948002Y-89375000D01*
X207320000Y-97797919D02*
X207250000Y-97750000D01*
X207250000Y-97750000D02*
X207320000Y-99000000D01*
X206325000Y-90675000D02*
X206750000Y-90250000D01*
X204950000Y-90675000D02*
X206325000Y-90675000D01*
X177685000Y-97500000D02*
X182000000Y-97500000D01*
X174635000Y-94450000D02*
X177685000Y-97500000D01*
X174635000Y-93475000D02*
X174635000Y-94450000D01*
X202885000Y-93275000D02*
X197160000Y-99000000D01*
X204950000Y-93275000D02*
X202885000Y-93275000D01*
X199700000Y-97797919D02*
X199700000Y-99000000D01*
X199747919Y-97750000D02*
X199700000Y-97797919D01*
X199750000Y-97750000D02*
X199747919Y-97750000D01*
X203575000Y-93925000D02*
X199750000Y-97750000D01*
X204950000Y-93925000D02*
X203575000Y-93925000D01*
X196825000Y-93925000D02*
X196750000Y-94000000D01*
X199050000Y-93925000D02*
X196825000Y-93925000D01*
X197025000Y-93275000D02*
X196750000Y-93000000D01*
X199050000Y-93275000D02*
X197025000Y-93275000D01*
X199935002Y-90675000D02*
X201000000Y-89610002D01*
X199050000Y-90675000D02*
X199935002Y-90675000D01*
X201000000Y-89610002D02*
X201000000Y-86250000D01*
X182000000Y-98750000D02*
X174250000Y-98750000D01*
X173365000Y-97865000D02*
X173365000Y-93475000D01*
X174250000Y-98750000D02*
X173365000Y-97865000D01*
X196775000Y-88725000D02*
X196750000Y-88750000D01*
X199050000Y-88725000D02*
X196775000Y-88725000D01*
X197575000Y-88075000D02*
X197500000Y-88000000D01*
X199050000Y-88075000D02*
X197575000Y-88075000D01*
X173365000Y-86235000D02*
X173365000Y-87550000D01*
X176000000Y-83600000D02*
X173365000Y-86235000D01*
X173365000Y-87550000D02*
X173365000Y-88525000D01*
X176000000Y-81850000D02*
X176000000Y-83600000D01*
X174000000Y-80100000D02*
X174000000Y-81850000D01*
X177500000Y-80250000D02*
X176750000Y-79500000D01*
X176750000Y-79500000D02*
X174600000Y-79500000D01*
X177500000Y-83750000D02*
X177500000Y-80250000D01*
X174600000Y-79500000D02*
X174000000Y-80100000D01*
X174635000Y-86615000D02*
X177500000Y-83750000D01*
X174635000Y-88525000D02*
X174635000Y-86615000D01*
X167650000Y-76100000D02*
X178350000Y-76100000D01*
D20*
G36*
X166261928Y-77550000D02*
G01*
X166278992Y-77723254D01*
X166329528Y-77889850D01*
X166411595Y-78043386D01*
X166522038Y-78177962D01*
X166656614Y-78288405D01*
X166810150Y-78370472D01*
X166976746Y-78421008D01*
X167150000Y-78438072D01*
X168150000Y-78438072D01*
X168323254Y-78421008D01*
X168489850Y-78370472D01*
X168643386Y-78288405D01*
X168777962Y-78177962D01*
X168888405Y-78043386D01*
X168970472Y-77889850D01*
X169021008Y-77723254D01*
X169038072Y-77550000D01*
X169038072Y-76860000D01*
X176961928Y-76860000D01*
X176961928Y-77550000D01*
X176978992Y-77723254D01*
X177029528Y-77889850D01*
X177083059Y-77990000D01*
X173387322Y-77990000D01*
X173349999Y-77986324D01*
X173312676Y-77990000D01*
X173312667Y-77990000D01*
X173201014Y-78000997D01*
X173057753Y-78044454D01*
X172925724Y-78115026D01*
X172809999Y-78209999D01*
X172786201Y-78238997D01*
X171532909Y-79492290D01*
X171410150Y-79529528D01*
X171256614Y-79611595D01*
X171122038Y-79722038D01*
X171011595Y-79856614D01*
X171000000Y-79878307D01*
X170988405Y-79856614D01*
X170877962Y-79722038D01*
X170743386Y-79611595D01*
X170589850Y-79529528D01*
X170423254Y-79478992D01*
X170250000Y-79461928D01*
X169750000Y-79461928D01*
X169576746Y-79478992D01*
X169410150Y-79529528D01*
X169256614Y-79611595D01*
X169122038Y-79722038D01*
X169011595Y-79856614D01*
X168929528Y-80010150D01*
X168878992Y-80176746D01*
X168861928Y-80350000D01*
X168861928Y-81931520D01*
X168824691Y-82001185D01*
X168794454Y-82057754D01*
X168750997Y-82201015D01*
X168740000Y-82312668D01*
X168740000Y-82312678D01*
X168736324Y-82350000D01*
X168740000Y-82387323D01*
X168740001Y-84618373D01*
X168699009Y-84614336D01*
X168674450Y-84614336D01*
X168650000Y-84611928D01*
X168150000Y-84611928D01*
X168025518Y-84624188D01*
X167905820Y-84660498D01*
X167795506Y-84719463D01*
X167698815Y-84798815D01*
X167619463Y-84895506D01*
X167560498Y-85005820D01*
X167524188Y-85125518D01*
X167511928Y-85250000D01*
X167511928Y-86750000D01*
X167524188Y-86874482D01*
X167560498Y-86994180D01*
X167619463Y-87104494D01*
X167698815Y-87201185D01*
X167795506Y-87280537D01*
X167905820Y-87339502D01*
X168025518Y-87375812D01*
X168150000Y-87388072D01*
X168650000Y-87388072D01*
X168674450Y-87385664D01*
X168699009Y-87385664D01*
X168823490Y-87373404D01*
X168919623Y-87354282D01*
X169039319Y-87317973D01*
X169129875Y-87280464D01*
X169240192Y-87221498D01*
X169321691Y-87167042D01*
X169418382Y-87087690D01*
X169487690Y-87018382D01*
X169499360Y-87004162D01*
X171156928Y-88661730D01*
X171156928Y-89350000D01*
X171172071Y-89503745D01*
X171216916Y-89651582D01*
X171289742Y-89787829D01*
X171387749Y-89907251D01*
X171507171Y-90005258D01*
X171541582Y-90023651D01*
X171555000Y-90040001D01*
X171583998Y-90063799D01*
X172281201Y-90761002D01*
X172304999Y-90790001D01*
X172420724Y-90884974D01*
X172552753Y-90955546D01*
X172696014Y-90999003D01*
X172807667Y-91010000D01*
X172807676Y-91010000D01*
X172844999Y-91013676D01*
X172882322Y-91010000D01*
X177112678Y-91010000D01*
X177150000Y-91013676D01*
X177187322Y-91010000D01*
X177187333Y-91010000D01*
X177298986Y-90999003D01*
X177442247Y-90955546D01*
X177574276Y-90884974D01*
X177690001Y-90790001D01*
X177713803Y-90760998D01*
X178473252Y-90001550D01*
X178572567Y-89971423D01*
X178723942Y-89890512D01*
X178856623Y-89781623D01*
X178965512Y-89648942D01*
X179046423Y-89497567D01*
X179096248Y-89333316D01*
X179096768Y-89328033D01*
X181011008Y-87413795D01*
X181040001Y-87390001D01*
X181063795Y-87361008D01*
X181063799Y-87361004D01*
X181134973Y-87274277D01*
X181141444Y-87262171D01*
X181205546Y-87142247D01*
X181249003Y-86998986D01*
X181260000Y-86887333D01*
X181260000Y-86887324D01*
X181263676Y-86850001D01*
X181260000Y-86812678D01*
X181260000Y-84524799D01*
X182309799Y-83475000D01*
X183961928Y-83475000D01*
X183974188Y-83599482D01*
X184010498Y-83719180D01*
X184069463Y-83829494D01*
X184148815Y-83926185D01*
X184245506Y-84005537D01*
X184355820Y-84064502D01*
X184475518Y-84100812D01*
X184600000Y-84113072D01*
X184839250Y-84110000D01*
X184998000Y-83951250D01*
X184998000Y-83127000D01*
X184123750Y-83127000D01*
X183965000Y-83285750D01*
X183961928Y-83475000D01*
X182309799Y-83475000D01*
X184093013Y-81691786D01*
X184099188Y-81754482D01*
X184135498Y-81874180D01*
X184194463Y-81984494D01*
X184219894Y-82015482D01*
X184148815Y-82073815D01*
X184069463Y-82170506D01*
X184010498Y-82280820D01*
X183974188Y-82400518D01*
X183961928Y-82525000D01*
X183965000Y-82714250D01*
X184123750Y-82873000D01*
X184998000Y-82873000D01*
X184998000Y-82853000D01*
X185252000Y-82853000D01*
X185252000Y-82873000D01*
X185272000Y-82873000D01*
X185272000Y-83127000D01*
X185252000Y-83127000D01*
X185252000Y-83951250D01*
X185410750Y-84110000D01*
X185650000Y-84113072D01*
X185774482Y-84100812D01*
X185894180Y-84064502D01*
X186004494Y-84005537D01*
X186077161Y-83945901D01*
X186101058Y-83965512D01*
X186115000Y-83972964D01*
X186115001Y-85160197D01*
X186063270Y-85211928D01*
X185750000Y-85211928D01*
X185725550Y-85214336D01*
X185700991Y-85214336D01*
X185576510Y-85226596D01*
X185480377Y-85245718D01*
X185360681Y-85282027D01*
X185270125Y-85319536D01*
X185159808Y-85378502D01*
X185078309Y-85432958D01*
X184981618Y-85512310D01*
X184912310Y-85581618D01*
X184832958Y-85678309D01*
X184778502Y-85759808D01*
X184719536Y-85870125D01*
X184682027Y-85960681D01*
X184645718Y-86080377D01*
X184626596Y-86176510D01*
X184614336Y-86300991D01*
X184614336Y-86325550D01*
X184611928Y-86350000D01*
X184611928Y-86850000D01*
X184615868Y-86890000D01*
X183987325Y-86890000D01*
X183950000Y-86886324D01*
X183912675Y-86890000D01*
X183912667Y-86890000D01*
X183801014Y-86900997D01*
X183657753Y-86944454D01*
X183525724Y-87015026D01*
X183409999Y-87109999D01*
X183386201Y-87138997D01*
X177810199Y-92715000D01*
X176843072Y-92715000D01*
X176843072Y-92650000D01*
X176827929Y-92496255D01*
X176783084Y-92348418D01*
X176710258Y-92212171D01*
X176612251Y-92092749D01*
X176492829Y-91994742D01*
X176356582Y-91921916D01*
X176208745Y-91877071D01*
X176055000Y-91861928D01*
X175755000Y-91861928D01*
X175601255Y-91877071D01*
X175453418Y-91921916D01*
X175317171Y-91994742D01*
X175270000Y-92033454D01*
X175222829Y-91994742D01*
X175086582Y-91921916D01*
X174938745Y-91877071D01*
X174785000Y-91861928D01*
X174485000Y-91861928D01*
X174331255Y-91877071D01*
X174183418Y-91921916D01*
X174047171Y-91994742D01*
X174000000Y-92033454D01*
X173952829Y-91994742D01*
X173816582Y-91921916D01*
X173668745Y-91877071D01*
X173515000Y-91861928D01*
X173215000Y-91861928D01*
X173061255Y-91877071D01*
X172913418Y-91921916D01*
X172779064Y-91993730D01*
X172749494Y-91969463D01*
X172639180Y-91910498D01*
X172519482Y-91874188D01*
X172395000Y-91861928D01*
X172380750Y-91865000D01*
X172222000Y-92023750D01*
X172222000Y-93348000D01*
X172242000Y-93348000D01*
X172242000Y-93602000D01*
X172222000Y-93602000D01*
X172222000Y-94926250D01*
X172380750Y-95085000D01*
X172395000Y-95088072D01*
X172519482Y-95075812D01*
X172605001Y-95049870D01*
X172605000Y-97827677D01*
X172601324Y-97865000D01*
X172605000Y-97902322D01*
X172605000Y-97902332D01*
X172615997Y-98013985D01*
X172641505Y-98098075D01*
X172659454Y-98157246D01*
X172730026Y-98289276D01*
X172769871Y-98337826D01*
X172824999Y-98405001D01*
X172854002Y-98428803D01*
X173686201Y-99261003D01*
X173709999Y-99290001D01*
X173738997Y-99313799D01*
X173825723Y-99384974D01*
X173957753Y-99455546D01*
X174101014Y-99499003D01*
X174212667Y-99510000D01*
X174212677Y-99510000D01*
X174249999Y-99513676D01*
X174287322Y-99510000D01*
X181296289Y-99510000D01*
X181340226Y-99553937D01*
X181509744Y-99667205D01*
X181698102Y-99745226D01*
X181898061Y-99785000D01*
X182101939Y-99785000D01*
X182301898Y-99745226D01*
X182490256Y-99667205D01*
X182659774Y-99553937D01*
X182803937Y-99409774D01*
X182917205Y-99240256D01*
X182995226Y-99051898D01*
X183035000Y-98851939D01*
X183035000Y-98648061D01*
X182995226Y-98448102D01*
X182917205Y-98259744D01*
X182827172Y-98125000D01*
X182917205Y-97990256D01*
X182995226Y-97801898D01*
X183035000Y-97601939D01*
X183035000Y-97398061D01*
X182995226Y-97198102D01*
X182917205Y-97009744D01*
X182803937Y-96840226D01*
X182659774Y-96696063D01*
X182490256Y-96582795D01*
X182301898Y-96504774D01*
X182101939Y-96465000D01*
X181898061Y-96465000D01*
X181698102Y-96504774D01*
X181509744Y-96582795D01*
X181340226Y-96696063D01*
X181296289Y-96740000D01*
X179013284Y-96740000D01*
X179064502Y-96644180D01*
X179100812Y-96524482D01*
X179113072Y-96400000D01*
X179110000Y-96160750D01*
X178951250Y-96002000D01*
X178127000Y-96002000D01*
X178127000Y-96022000D01*
X177873000Y-96022000D01*
X177873000Y-96002000D01*
X177853000Y-96002000D01*
X177853000Y-95748000D01*
X177873000Y-95748000D01*
X177873000Y-95728000D01*
X178127000Y-95728000D01*
X178127000Y-95748000D01*
X178951250Y-95748000D01*
X179110000Y-95589250D01*
X179113072Y-95350000D01*
X179100812Y-95225518D01*
X179064502Y-95105820D01*
X179005537Y-94995506D01*
X178945901Y-94922839D01*
X178965512Y-94898942D01*
X179046423Y-94747567D01*
X179096248Y-94583316D01*
X179113072Y-94412500D01*
X179113072Y-93837500D01*
X179096248Y-93666684D01*
X179075736Y-93599065D01*
X179274801Y-93400000D01*
X192886928Y-93400000D01*
X192899188Y-93524482D01*
X192935498Y-93644180D01*
X192994463Y-93754494D01*
X193073815Y-93851185D01*
X193170506Y-93930537D01*
X193280820Y-93989502D01*
X193400518Y-94025812D01*
X193525000Y-94038072D01*
X193714250Y-94035000D01*
X193873000Y-93876250D01*
X193873000Y-93002000D01*
X194127000Y-93002000D01*
X194127000Y-93876250D01*
X194285750Y-94035000D01*
X194475000Y-94038072D01*
X194599482Y-94025812D01*
X194719180Y-93989502D01*
X194829494Y-93930537D01*
X194926185Y-93851185D01*
X195005537Y-93754494D01*
X195064502Y-93644180D01*
X195100812Y-93524482D01*
X195113072Y-93400000D01*
X195110000Y-93160750D01*
X194951250Y-93002000D01*
X194127000Y-93002000D01*
X193873000Y-93002000D01*
X193048750Y-93002000D01*
X192890000Y-93160750D01*
X192886928Y-93400000D01*
X179274801Y-93400000D01*
X184264802Y-88410000D01*
X184905431Y-88410000D01*
X184912310Y-88418382D01*
X184981618Y-88487690D01*
X185078309Y-88567042D01*
X185159808Y-88621498D01*
X185270125Y-88680464D01*
X185360681Y-88717973D01*
X185480377Y-88754282D01*
X185576510Y-88773404D01*
X185700991Y-88785664D01*
X185725550Y-88785664D01*
X185750000Y-88788072D01*
X186250000Y-88788072D01*
X186274450Y-88785664D01*
X186299009Y-88785664D01*
X186423490Y-88773404D01*
X186490877Y-88760000D01*
X187740001Y-88760000D01*
X187740000Y-90712677D01*
X187736324Y-90750000D01*
X187740000Y-90787322D01*
X187740000Y-90787332D01*
X187750997Y-90898985D01*
X187793469Y-91038998D01*
X187794454Y-91042246D01*
X187865026Y-91174276D01*
X187898448Y-91215000D01*
X187959999Y-91290001D01*
X187989002Y-91313803D01*
X188186200Y-91511002D01*
X188209999Y-91540001D01*
X188325724Y-91634974D01*
X188457753Y-91705546D01*
X188601014Y-91749003D01*
X188712667Y-91760000D01*
X188712676Y-91760000D01*
X188749999Y-91763676D01*
X188787322Y-91760000D01*
X191750773Y-91760000D01*
X191882753Y-91830546D01*
X192026014Y-91874003D01*
X192137667Y-91885000D01*
X192137675Y-91885000D01*
X192175000Y-91888676D01*
X192212325Y-91885000D01*
X193027036Y-91885000D01*
X193034488Y-91898942D01*
X193054099Y-91922839D01*
X192994463Y-91995506D01*
X192935498Y-92105820D01*
X192899188Y-92225518D01*
X192886928Y-92350000D01*
X192890000Y-92589250D01*
X193048750Y-92748000D01*
X193873000Y-92748000D01*
X193873000Y-92728000D01*
X194127000Y-92728000D01*
X194127000Y-92748000D01*
X194951250Y-92748000D01*
X195110000Y-92589250D01*
X195113072Y-92350000D01*
X195100812Y-92225518D01*
X195064502Y-92105820D01*
X195005537Y-91995506D01*
X194945901Y-91922839D01*
X194965512Y-91898942D01*
X195046423Y-91747567D01*
X195096248Y-91583316D01*
X195113072Y-91412500D01*
X195113072Y-90837500D01*
X195107901Y-90785000D01*
X197686928Y-90785000D01*
X197686928Y-90900000D01*
X197697095Y-91003227D01*
X197690000Y-91068250D01*
X197722247Y-91100497D01*
X197735498Y-91144180D01*
X197794463Y-91254494D01*
X197852559Y-91325285D01*
X197799922Y-91387469D01*
X197739285Y-91496873D01*
X197722531Y-91549219D01*
X197690000Y-91581750D01*
X197697447Y-91650000D01*
X197690000Y-91718250D01*
X197722531Y-91750781D01*
X197739285Y-91803127D01*
X197799922Y-91912531D01*
X197852801Y-91975000D01*
X197799922Y-92037469D01*
X197739285Y-92146873D01*
X197722531Y-92199219D01*
X197690000Y-92231750D01*
X197697447Y-92300000D01*
X197690000Y-92368250D01*
X197722531Y-92400781D01*
X197739285Y-92453127D01*
X197764155Y-92497998D01*
X197690000Y-92497998D01*
X197690000Y-92515000D01*
X197669382Y-92515000D01*
X197667205Y-92509744D01*
X197553937Y-92340226D01*
X197409774Y-92196063D01*
X197240256Y-92082795D01*
X197051898Y-92004774D01*
X196851939Y-91965000D01*
X196648061Y-91965000D01*
X196448102Y-92004774D01*
X196259744Y-92082795D01*
X196090226Y-92196063D01*
X195946063Y-92340226D01*
X195832795Y-92509744D01*
X195754774Y-92698102D01*
X195715000Y-92898061D01*
X195715000Y-93101939D01*
X195754774Y-93301898D01*
X195832795Y-93490256D01*
X195839306Y-93500000D01*
X195832795Y-93509744D01*
X195754774Y-93698102D01*
X195715000Y-93898061D01*
X195715000Y-94101939D01*
X195754774Y-94301898D01*
X195758228Y-94310236D01*
X195655724Y-94365026D01*
X195539999Y-94459999D01*
X195516201Y-94488997D01*
X192446408Y-97558791D01*
X192226260Y-97515000D01*
X191933740Y-97515000D01*
X191646842Y-97572068D01*
X191376589Y-97684010D01*
X191133368Y-97846525D01*
X190926525Y-98053368D01*
X190810000Y-98227760D01*
X190693475Y-98053368D01*
X190486632Y-97846525D01*
X190243411Y-97684010D01*
X189973158Y-97572068D01*
X189686260Y-97515000D01*
X189393740Y-97515000D01*
X189106842Y-97572068D01*
X188836589Y-97684010D01*
X188593368Y-97846525D01*
X188461513Y-97978380D01*
X188439502Y-97905820D01*
X188380537Y-97795506D01*
X188301185Y-97698815D01*
X188204494Y-97619463D01*
X188094180Y-97560498D01*
X187974482Y-97524188D01*
X187850000Y-97511928D01*
X186150000Y-97511928D01*
X186025518Y-97524188D01*
X185905820Y-97560498D01*
X185795506Y-97619463D01*
X185698815Y-97698815D01*
X185619463Y-97795506D01*
X185560498Y-97905820D01*
X185524188Y-98025518D01*
X185511928Y-98150000D01*
X185511928Y-99850000D01*
X185524188Y-99974482D01*
X185560498Y-100094180D01*
X185619463Y-100204494D01*
X185698815Y-100301185D01*
X185795506Y-100380537D01*
X185905820Y-100439502D01*
X186025518Y-100475812D01*
X186150000Y-100488072D01*
X187850000Y-100488072D01*
X187974482Y-100475812D01*
X188094180Y-100439502D01*
X188204494Y-100380537D01*
X188301185Y-100301185D01*
X188380537Y-100204494D01*
X188439502Y-100094180D01*
X188461513Y-100021620D01*
X188593368Y-100153475D01*
X188836589Y-100315990D01*
X189106842Y-100427932D01*
X189393740Y-100485000D01*
X189686260Y-100485000D01*
X189973158Y-100427932D01*
X190243411Y-100315990D01*
X190486632Y-100153475D01*
X190693475Y-99946632D01*
X190810000Y-99772240D01*
X190926525Y-99946632D01*
X191133368Y-100153475D01*
X191376589Y-100315990D01*
X191646842Y-100427932D01*
X191933740Y-100485000D01*
X192226260Y-100485000D01*
X192513158Y-100427932D01*
X192783411Y-100315990D01*
X193026632Y-100153475D01*
X193233475Y-99946632D01*
X193350000Y-99772240D01*
X193466525Y-99946632D01*
X193673368Y-100153475D01*
X193916589Y-100315990D01*
X194186842Y-100427932D01*
X194473740Y-100485000D01*
X194766260Y-100485000D01*
X195053158Y-100427932D01*
X195323411Y-100315990D01*
X195566632Y-100153475D01*
X195773475Y-99946632D01*
X195890000Y-99772240D01*
X196006525Y-99946632D01*
X196213368Y-100153475D01*
X196456589Y-100315990D01*
X196726842Y-100427932D01*
X197013740Y-100485000D01*
X197306260Y-100485000D01*
X197593158Y-100427932D01*
X197863411Y-100315990D01*
X198106632Y-100153475D01*
X198313475Y-99946632D01*
X198430000Y-99772240D01*
X198546525Y-99946632D01*
X198753368Y-100153475D01*
X198996589Y-100315990D01*
X199266842Y-100427932D01*
X199553740Y-100485000D01*
X199846260Y-100485000D01*
X200133158Y-100427932D01*
X200403411Y-100315990D01*
X200646632Y-100153475D01*
X200853475Y-99946632D01*
X200970000Y-99772240D01*
X201086525Y-99946632D01*
X201293368Y-100153475D01*
X201536589Y-100315990D01*
X201806842Y-100427932D01*
X202093740Y-100485000D01*
X202386260Y-100485000D01*
X202673158Y-100427932D01*
X202943411Y-100315990D01*
X203186632Y-100153475D01*
X203393475Y-99946632D01*
X203510000Y-99772240D01*
X203626525Y-99946632D01*
X203833368Y-100153475D01*
X204076589Y-100315990D01*
X204346842Y-100427932D01*
X204633740Y-100485000D01*
X204926260Y-100485000D01*
X205213158Y-100427932D01*
X205483411Y-100315990D01*
X205726632Y-100153475D01*
X205933475Y-99946632D01*
X206050000Y-99772240D01*
X206166525Y-99946632D01*
X206373368Y-100153475D01*
X206616589Y-100315990D01*
X206886842Y-100427932D01*
X207173740Y-100485000D01*
X207466260Y-100485000D01*
X207753158Y-100427932D01*
X208023411Y-100315990D01*
X208266632Y-100153475D01*
X208473475Y-99946632D01*
X208595195Y-99764466D01*
X208664822Y-99881355D01*
X208859731Y-100097588D01*
X209093080Y-100271641D01*
X209355901Y-100396825D01*
X209503110Y-100441476D01*
X209733000Y-100320155D01*
X209733000Y-99127000D01*
X209987000Y-99127000D01*
X209987000Y-100320155D01*
X210216890Y-100441476D01*
X210364099Y-100396825D01*
X210626920Y-100271641D01*
X210860269Y-100097588D01*
X211055178Y-99881355D01*
X211204157Y-99631252D01*
X211301481Y-99356891D01*
X211180814Y-99127000D01*
X209987000Y-99127000D01*
X209733000Y-99127000D01*
X209713000Y-99127000D01*
X209713000Y-98873000D01*
X209733000Y-98873000D01*
X209733000Y-97679845D01*
X209987000Y-97679845D01*
X209987000Y-98873000D01*
X211180814Y-98873000D01*
X211301481Y-98643109D01*
X211204157Y-98368748D01*
X211055178Y-98118645D01*
X210860269Y-97902412D01*
X210626920Y-97728359D01*
X210364099Y-97603175D01*
X210216890Y-97558524D01*
X209987000Y-97679845D01*
X209733000Y-97679845D01*
X209503110Y-97558524D01*
X209355901Y-97603175D01*
X209093080Y-97728359D01*
X208859731Y-97902412D01*
X208664822Y-98118645D01*
X208595195Y-98235534D01*
X208473475Y-98053368D01*
X208266632Y-97846525D01*
X208243640Y-97831162D01*
X208681002Y-97393800D01*
X208710000Y-97370002D01*
X208746933Y-97324999D01*
X208804973Y-97254278D01*
X208875545Y-97122248D01*
X208884630Y-97092298D01*
X208919002Y-96978987D01*
X208929999Y-96867334D01*
X208929999Y-96867325D01*
X208933675Y-96830002D01*
X208929999Y-96792679D01*
X208929999Y-90634322D01*
X208933675Y-90596997D01*
X208929999Y-90559672D01*
X208929999Y-90559664D01*
X208919002Y-90448011D01*
X208875545Y-90304750D01*
X208804973Y-90172721D01*
X208710000Y-90056996D01*
X208681003Y-90033199D01*
X207511806Y-88864003D01*
X207488003Y-88834999D01*
X207372278Y-88740026D01*
X207240249Y-88669454D01*
X207096988Y-88625997D01*
X206985335Y-88615000D01*
X206985324Y-88615000D01*
X206948002Y-88611324D01*
X206910680Y-88615000D01*
X206313072Y-88615000D01*
X206313072Y-88500000D01*
X206303223Y-88400000D01*
X206313072Y-88300000D01*
X206313072Y-87850000D01*
X206300812Y-87725518D01*
X206264502Y-87605820D01*
X206205537Y-87495506D01*
X206126185Y-87398815D01*
X206029494Y-87319463D01*
X205919180Y-87260498D01*
X205799482Y-87224188D01*
X205675000Y-87211928D01*
X204225000Y-87211928D01*
X204100518Y-87224188D01*
X203980820Y-87260498D01*
X203870506Y-87319463D01*
X203867526Y-87321908D01*
X203826014Y-87325997D01*
X203682753Y-87369454D01*
X203550723Y-87440026D01*
X203491051Y-87488998D01*
X203434999Y-87534999D01*
X203411201Y-87563997D01*
X201760000Y-89215198D01*
X201760000Y-86953711D01*
X201803937Y-86909774D01*
X201917205Y-86740256D01*
X201995226Y-86551898D01*
X202035000Y-86351939D01*
X202035000Y-86148061D01*
X201995226Y-85948102D01*
X201917205Y-85759744D01*
X201803937Y-85590226D01*
X201659774Y-85446063D01*
X201490256Y-85332795D01*
X201301898Y-85254774D01*
X201101939Y-85215000D01*
X200898061Y-85215000D01*
X200698102Y-85254774D01*
X200509744Y-85332795D01*
X200340226Y-85446063D01*
X200196063Y-85590226D01*
X200082795Y-85759744D01*
X200004774Y-85948102D01*
X199965000Y-86148061D01*
X199965000Y-86351939D01*
X200004774Y-86551898D01*
X200082795Y-86740256D01*
X200196063Y-86909774D01*
X200240001Y-86953712D01*
X200240001Y-87415649D01*
X200226185Y-87398815D01*
X200129494Y-87319463D01*
X200019180Y-87260498D01*
X199899482Y-87224188D01*
X199775000Y-87211928D01*
X198325000Y-87211928D01*
X198200518Y-87224188D01*
X198190836Y-87227125D01*
X198159774Y-87196063D01*
X197990256Y-87082795D01*
X197801898Y-87004774D01*
X197601939Y-86965000D01*
X197398061Y-86965000D01*
X197198102Y-87004774D01*
X197009744Y-87082795D01*
X196840226Y-87196063D01*
X196696063Y-87340226D01*
X196582795Y-87509744D01*
X196504774Y-87698102D01*
X196495372Y-87745372D01*
X196448102Y-87754774D01*
X196259744Y-87832795D01*
X196090226Y-87946063D01*
X195946063Y-88090226D01*
X195832795Y-88259744D01*
X195754774Y-88448102D01*
X195715000Y-88648061D01*
X195715000Y-88779999D01*
X195454801Y-88779999D01*
X195075736Y-88400935D01*
X195096248Y-88333316D01*
X195113072Y-88162500D01*
X195113072Y-87587500D01*
X195096248Y-87416684D01*
X195046423Y-87252433D01*
X194965512Y-87101058D01*
X194945901Y-87077161D01*
X195005537Y-87004494D01*
X195064502Y-86894180D01*
X195100812Y-86774482D01*
X195113072Y-86650000D01*
X195110000Y-86410750D01*
X194951250Y-86252000D01*
X194127000Y-86252000D01*
X194127000Y-86272000D01*
X193873000Y-86272000D01*
X193873000Y-86252000D01*
X193048750Y-86252000D01*
X192890000Y-86410750D01*
X192886928Y-86650000D01*
X192899188Y-86774482D01*
X192935498Y-86894180D01*
X192994463Y-87004494D01*
X193054099Y-87077161D01*
X193034488Y-87101058D01*
X193027036Y-87115000D01*
X192212325Y-87115000D01*
X192175000Y-87111324D01*
X192137675Y-87115000D01*
X192137667Y-87115000D01*
X192026014Y-87125997D01*
X191882753Y-87169454D01*
X191750773Y-87240000D01*
X189260000Y-87240000D01*
X189260000Y-86953711D01*
X189303937Y-86909774D01*
X189417205Y-86740256D01*
X189495226Y-86551898D01*
X189535000Y-86351939D01*
X189535000Y-86148061D01*
X189495226Y-85948102D01*
X189417205Y-85759744D01*
X189310468Y-85600000D01*
X192886928Y-85600000D01*
X192890000Y-85839250D01*
X193048750Y-85998000D01*
X193873000Y-85998000D01*
X193873000Y-85123750D01*
X194127000Y-85123750D01*
X194127000Y-85998000D01*
X194951250Y-85998000D01*
X195110000Y-85839250D01*
X195113072Y-85600000D01*
X195100812Y-85475518D01*
X195064502Y-85355820D01*
X195005537Y-85245506D01*
X194926185Y-85148815D01*
X194829494Y-85069463D01*
X194719180Y-85010498D01*
X194599482Y-84974188D01*
X194475000Y-84961928D01*
X194285750Y-84965000D01*
X194127000Y-85123750D01*
X193873000Y-85123750D01*
X193714250Y-84965000D01*
X193525000Y-84961928D01*
X193400518Y-84974188D01*
X193280820Y-85010498D01*
X193170506Y-85069463D01*
X193073815Y-85148815D01*
X192994463Y-85245506D01*
X192935498Y-85355820D01*
X192899188Y-85475518D01*
X192886928Y-85600000D01*
X189310468Y-85600000D01*
X189303937Y-85590226D01*
X189260000Y-85546289D01*
X189260000Y-83814801D01*
X191034365Y-82040437D01*
X191081618Y-82087690D01*
X191178309Y-82167042D01*
X191259808Y-82221498D01*
X191370125Y-82280464D01*
X191460681Y-82317973D01*
X191580377Y-82354282D01*
X191676510Y-82373404D01*
X191800991Y-82385664D01*
X191825550Y-82385664D01*
X191850000Y-82388072D01*
X192350000Y-82388072D01*
X192474482Y-82375812D01*
X192500000Y-82368071D01*
X192525518Y-82375812D01*
X192650000Y-82388072D01*
X193150000Y-82388072D01*
X193174450Y-82385664D01*
X193199009Y-82385664D01*
X193323490Y-82373404D01*
X193419623Y-82354282D01*
X193539319Y-82317973D01*
X193629875Y-82280464D01*
X193740192Y-82221498D01*
X193821691Y-82167042D01*
X193918382Y-82087690D01*
X193987690Y-82018382D01*
X194067042Y-81921691D01*
X194121498Y-81840192D01*
X194180464Y-81729875D01*
X194188696Y-81710000D01*
X195784962Y-81710000D01*
X195810498Y-81794180D01*
X195869463Y-81904494D01*
X195947842Y-82000000D01*
X195869463Y-82095506D01*
X195810498Y-82205820D01*
X195774188Y-82325518D01*
X195761928Y-82450000D01*
X195761928Y-83650000D01*
X195774188Y-83774482D01*
X195810498Y-83894180D01*
X195869463Y-84004494D01*
X195948815Y-84101185D01*
X196045506Y-84180537D01*
X196155820Y-84239502D01*
X196275518Y-84275812D01*
X196400000Y-84288072D01*
X197600000Y-84288072D01*
X197724482Y-84275812D01*
X197844180Y-84239502D01*
X197954494Y-84180537D01*
X198051185Y-84101185D01*
X198130537Y-84004494D01*
X198189502Y-83894180D01*
X198215038Y-83810000D01*
X203320482Y-83810000D01*
X203345506Y-83830537D01*
X203455820Y-83889502D01*
X203575518Y-83925812D01*
X203700000Y-83938072D01*
X206300000Y-83938072D01*
X206424482Y-83925812D01*
X206544180Y-83889502D01*
X206654494Y-83830537D01*
X206751185Y-83751185D01*
X206830537Y-83654494D01*
X206889502Y-83544180D01*
X206925812Y-83424482D01*
X206938072Y-83300000D01*
X206938072Y-80700000D01*
X206925812Y-80575518D01*
X206889502Y-80455820D01*
X206830537Y-80345506D01*
X206751185Y-80248815D01*
X206654494Y-80169463D01*
X206544180Y-80110498D01*
X206424482Y-80074188D01*
X206300000Y-80061928D01*
X203700000Y-80061928D01*
X203575518Y-80074188D01*
X203455820Y-80110498D01*
X203345506Y-80169463D01*
X203248815Y-80248815D01*
X203169463Y-80345506D01*
X203110498Y-80455820D01*
X203074188Y-80575518D01*
X203061928Y-80700000D01*
X203061928Y-82290000D01*
X198215038Y-82290000D01*
X198189502Y-82205820D01*
X198130537Y-82095506D01*
X198052158Y-82000000D01*
X198130537Y-81904494D01*
X198189502Y-81794180D01*
X198225812Y-81674482D01*
X198238072Y-81550000D01*
X198238072Y-80350000D01*
X198225812Y-80225518D01*
X198189502Y-80105820D01*
X198130537Y-79995506D01*
X198051185Y-79898815D01*
X197954494Y-79819463D01*
X197864880Y-79771562D01*
X197965512Y-79648942D01*
X198046423Y-79497567D01*
X198096248Y-79333316D01*
X198113072Y-79162500D01*
X198113072Y-78587500D01*
X198096248Y-78416684D01*
X198051517Y-78269224D01*
X203830381Y-78269224D01*
X203962317Y-78564312D01*
X204303045Y-78735159D01*
X204670557Y-78836250D01*
X205050729Y-78863701D01*
X205428951Y-78816457D01*
X205790690Y-78696333D01*
X206037683Y-78564312D01*
X206169619Y-78269224D01*
X205000000Y-77099605D01*
X203830381Y-78269224D01*
X198051517Y-78269224D01*
X198046423Y-78252433D01*
X197965512Y-78101058D01*
X197882575Y-78000000D01*
X197965512Y-77898942D01*
X198046423Y-77747567D01*
X198096248Y-77583316D01*
X198113072Y-77412500D01*
X198113072Y-76970729D01*
X203056299Y-76970729D01*
X203103543Y-77348951D01*
X203223667Y-77710690D01*
X203355688Y-77957683D01*
X203650776Y-78089619D01*
X204820395Y-76920000D01*
X205179605Y-76920000D01*
X206349224Y-78089619D01*
X206644312Y-77957683D01*
X206815159Y-77616955D01*
X206916250Y-77249443D01*
X206943701Y-76869271D01*
X206896457Y-76491049D01*
X206776333Y-76129310D01*
X206644312Y-75882317D01*
X206349224Y-75750381D01*
X205179605Y-76920000D01*
X204820395Y-76920000D01*
X203650776Y-75750381D01*
X203355688Y-75882317D01*
X203184841Y-76223045D01*
X203083750Y-76590557D01*
X203056299Y-76970729D01*
X198113072Y-76970729D01*
X198113072Y-76837500D01*
X198096248Y-76666684D01*
X198046423Y-76502433D01*
X197965512Y-76351058D01*
X197856623Y-76218377D01*
X197723942Y-76109488D01*
X197572567Y-76028577D01*
X197408316Y-75978752D01*
X197237500Y-75961928D01*
X196762500Y-75961928D01*
X196591684Y-75978752D01*
X196427433Y-76028577D01*
X196276058Y-76109488D01*
X196143377Y-76218377D01*
X196034488Y-76351058D01*
X196027036Y-76365000D01*
X195938052Y-76365000D01*
X195890512Y-76276058D01*
X195781623Y-76143377D01*
X195648942Y-76034488D01*
X195497567Y-75953577D01*
X195333316Y-75903752D01*
X195162500Y-75886928D01*
X194587500Y-75886928D01*
X194416684Y-75903752D01*
X194252433Y-75953577D01*
X194101058Y-76034488D01*
X194077161Y-76054099D01*
X194004494Y-75994463D01*
X193894180Y-75935498D01*
X193774482Y-75899188D01*
X193650000Y-75886928D01*
X193410750Y-75890000D01*
X193252000Y-76048750D01*
X193252000Y-76873000D01*
X193272000Y-76873000D01*
X193272000Y-77127000D01*
X193252000Y-77127000D01*
X193252000Y-77951250D01*
X193410750Y-78110000D01*
X193650000Y-78113072D01*
X193774482Y-78100812D01*
X193894180Y-78064502D01*
X194004494Y-78005537D01*
X194077161Y-77945901D01*
X194101058Y-77965512D01*
X194252433Y-78046423D01*
X194416684Y-78096248D01*
X194587500Y-78113072D01*
X195162500Y-78113072D01*
X195333316Y-78096248D01*
X195497567Y-78046423D01*
X195648942Y-77965512D01*
X195747046Y-77885000D01*
X196027036Y-77885000D01*
X196034488Y-77898942D01*
X196117425Y-78000000D01*
X196034488Y-78101058D01*
X195953577Y-78252433D01*
X195903752Y-78416684D01*
X195886928Y-78587500D01*
X195886928Y-79162500D01*
X195903752Y-79333316D01*
X195953577Y-79497567D01*
X196034488Y-79648942D01*
X196135120Y-79771562D01*
X196045506Y-79819463D01*
X195948815Y-79898815D01*
X195869463Y-79995506D01*
X195810498Y-80105820D01*
X195784962Y-80190000D01*
X194137636Y-80190000D01*
X194121498Y-80159808D01*
X194067042Y-80078309D01*
X193987690Y-79981618D01*
X193918382Y-79912310D01*
X193821691Y-79832958D01*
X193740192Y-79778502D01*
X193629875Y-79719536D01*
X193539319Y-79682027D01*
X193419623Y-79645718D01*
X193323490Y-79626596D01*
X193199009Y-79614336D01*
X193174450Y-79614336D01*
X193150000Y-79611928D01*
X192650000Y-79611928D01*
X192525518Y-79624188D01*
X192500000Y-79631929D01*
X192474482Y-79624188D01*
X192350000Y-79611928D01*
X191850000Y-79611928D01*
X191825550Y-79614336D01*
X191800991Y-79614336D01*
X191676510Y-79626596D01*
X191580377Y-79645718D01*
X191460681Y-79682027D01*
X191370125Y-79719536D01*
X191259808Y-79778502D01*
X191178309Y-79832958D01*
X191081618Y-79912310D01*
X191012310Y-79981618D01*
X190932958Y-80078309D01*
X190878502Y-80159808D01*
X190825647Y-80258692D01*
X190715032Y-80292246D01*
X190707753Y-80294454D01*
X190575723Y-80365026D01*
X190503526Y-80424277D01*
X190459999Y-80459999D01*
X190436201Y-80488997D01*
X188038072Y-82887127D01*
X188038072Y-82762500D01*
X188021248Y-82591684D01*
X187971423Y-82427433D01*
X187890512Y-82276058D01*
X187781623Y-82143377D01*
X187716014Y-82089532D01*
X187726185Y-82081185D01*
X187805537Y-81984494D01*
X187864502Y-81874180D01*
X187900812Y-81754482D01*
X187913072Y-81630000D01*
X187913072Y-80570000D01*
X187900812Y-80445518D01*
X187864502Y-80325820D01*
X187805537Y-80215506D01*
X187726185Y-80118815D01*
X187629494Y-80039463D01*
X187555665Y-80000000D01*
X187629494Y-79960537D01*
X187726185Y-79881185D01*
X187805537Y-79784494D01*
X187864502Y-79674180D01*
X187898496Y-79562117D01*
X187949276Y-79534974D01*
X188065001Y-79440001D01*
X188088804Y-79410998D01*
X189011004Y-78488798D01*
X189040001Y-78465001D01*
X189134974Y-78349276D01*
X189205546Y-78217247D01*
X189249003Y-78073986D01*
X189260000Y-77962333D01*
X189260000Y-77962324D01*
X189263676Y-77925001D01*
X189260000Y-77887678D01*
X189260000Y-77475000D01*
X191961928Y-77475000D01*
X191974188Y-77599482D01*
X192010498Y-77719180D01*
X192069463Y-77829494D01*
X192148815Y-77926185D01*
X192245506Y-78005537D01*
X192355820Y-78064502D01*
X192475518Y-78100812D01*
X192600000Y-78113072D01*
X192839250Y-78110000D01*
X192998000Y-77951250D01*
X192998000Y-77127000D01*
X192123750Y-77127000D01*
X191965000Y-77285750D01*
X191961928Y-77475000D01*
X189260000Y-77475000D01*
X189260000Y-76525000D01*
X191961928Y-76525000D01*
X191965000Y-76714250D01*
X192123750Y-76873000D01*
X192998000Y-76873000D01*
X192998000Y-76048750D01*
X192839250Y-75890000D01*
X192600000Y-75886928D01*
X192475518Y-75899188D01*
X192355820Y-75935498D01*
X192245506Y-75994463D01*
X192148815Y-76073815D01*
X192069463Y-76170506D01*
X192010498Y-76280820D01*
X191974188Y-76400518D01*
X191961928Y-76525000D01*
X189260000Y-76525000D01*
X189260000Y-75570776D01*
X203830381Y-75570776D01*
X205000000Y-76740395D01*
X206169619Y-75570776D01*
X206037683Y-75275688D01*
X205696955Y-75104841D01*
X205329443Y-75003750D01*
X204949271Y-74976299D01*
X204571049Y-75023543D01*
X204209310Y-75143667D01*
X203962317Y-75275688D01*
X203830381Y-75570776D01*
X189260000Y-75570776D01*
X189260000Y-75287333D01*
X189263677Y-75250000D01*
X189249003Y-75101014D01*
X189205546Y-74957753D01*
X189134974Y-74825724D01*
X189040001Y-74709999D01*
X188979077Y-74660000D01*
X219340000Y-74660000D01*
X219340001Y-104340000D01*
X160660000Y-104340000D01*
X160660000Y-94450000D01*
X171156928Y-94450000D01*
X171169188Y-94574482D01*
X171205498Y-94694180D01*
X171264463Y-94804494D01*
X171343815Y-94901185D01*
X171440506Y-94980537D01*
X171550820Y-95039502D01*
X171670518Y-95075812D01*
X171795000Y-95088072D01*
X171809250Y-95085000D01*
X171968000Y-94926250D01*
X171968000Y-93602000D01*
X171318750Y-93602000D01*
X171160000Y-93760750D01*
X171156928Y-94450000D01*
X160660000Y-94450000D01*
X160660000Y-92500000D01*
X171156928Y-92500000D01*
X171160000Y-93189250D01*
X171318750Y-93348000D01*
X171968000Y-93348000D01*
X171968000Y-92023750D01*
X171809250Y-91865000D01*
X171795000Y-91861928D01*
X171670518Y-91874188D01*
X171550820Y-91910498D01*
X171440506Y-91969463D01*
X171343815Y-92048815D01*
X171264463Y-92145506D01*
X171205498Y-92255820D01*
X171169188Y-92375518D01*
X171156928Y-92500000D01*
X160660000Y-92500000D01*
X160660000Y-74660000D01*
X166261928Y-74660000D01*
X166261928Y-77550000D01*
G37*
X166261928Y-77550000D02*
X166278992Y-77723254D01*
X166329528Y-77889850D01*
X166411595Y-78043386D01*
X166522038Y-78177962D01*
X166656614Y-78288405D01*
X166810150Y-78370472D01*
X166976746Y-78421008D01*
X167150000Y-78438072D01*
X168150000Y-78438072D01*
X168323254Y-78421008D01*
X168489850Y-78370472D01*
X168643386Y-78288405D01*
X168777962Y-78177962D01*
X168888405Y-78043386D01*
X168970472Y-77889850D01*
X169021008Y-77723254D01*
X169038072Y-77550000D01*
X169038072Y-76860000D01*
X176961928Y-76860000D01*
X176961928Y-77550000D01*
X176978992Y-77723254D01*
X177029528Y-77889850D01*
X177083059Y-77990000D01*
X173387322Y-77990000D01*
X173349999Y-77986324D01*
X173312676Y-77990000D01*
X173312667Y-77990000D01*
X173201014Y-78000997D01*
X173057753Y-78044454D01*
X172925724Y-78115026D01*
X172809999Y-78209999D01*
X172786201Y-78238997D01*
X171532909Y-79492290D01*
X171410150Y-79529528D01*
X171256614Y-79611595D01*
X171122038Y-79722038D01*
X171011595Y-79856614D01*
X171000000Y-79878307D01*
X170988405Y-79856614D01*
X170877962Y-79722038D01*
X170743386Y-79611595D01*
X170589850Y-79529528D01*
X170423254Y-79478992D01*
X170250000Y-79461928D01*
X169750000Y-79461928D01*
X169576746Y-79478992D01*
X169410150Y-79529528D01*
X169256614Y-79611595D01*
X169122038Y-79722038D01*
X169011595Y-79856614D01*
X168929528Y-80010150D01*
X168878992Y-80176746D01*
X168861928Y-80350000D01*
X168861928Y-81931520D01*
X168824691Y-82001185D01*
X168794454Y-82057754D01*
X168750997Y-82201015D01*
X168740000Y-82312668D01*
X168740000Y-82312678D01*
X168736324Y-82350000D01*
X168740000Y-82387323D01*
X168740001Y-84618373D01*
X168699009Y-84614336D01*
X168674450Y-84614336D01*
X168650000Y-84611928D01*
X168150000Y-84611928D01*
X168025518Y-84624188D01*
X167905820Y-84660498D01*
X167795506Y-84719463D01*
X167698815Y-84798815D01*
X167619463Y-84895506D01*
X167560498Y-85005820D01*
X167524188Y-85125518D01*
X167511928Y-85250000D01*
X167511928Y-86750000D01*
X167524188Y-86874482D01*
X167560498Y-86994180D01*
X167619463Y-87104494D01*
X167698815Y-87201185D01*
X167795506Y-87280537D01*
X167905820Y-87339502D01*
X168025518Y-87375812D01*
X168150000Y-87388072D01*
X168650000Y-87388072D01*
X168674450Y-87385664D01*
X168699009Y-87385664D01*
X168823490Y-87373404D01*
X168919623Y-87354282D01*
X169039319Y-87317973D01*
X169129875Y-87280464D01*
X169240192Y-87221498D01*
X169321691Y-87167042D01*
X169418382Y-87087690D01*
X169487690Y-87018382D01*
X169499360Y-87004162D01*
X171156928Y-88661730D01*
X171156928Y-89350000D01*
X171172071Y-89503745D01*
X171216916Y-89651582D01*
X171289742Y-89787829D01*
X171387749Y-89907251D01*
X171507171Y-90005258D01*
X171541582Y-90023651D01*
X171555000Y-90040001D01*
X171583998Y-90063799D01*
X172281201Y-90761002D01*
X172304999Y-90790001D01*
X172420724Y-90884974D01*
X172552753Y-90955546D01*
X172696014Y-90999003D01*
X172807667Y-91010000D01*
X172807676Y-91010000D01*
X172844999Y-91013676D01*
X172882322Y-91010000D01*
X177112678Y-91010000D01*
X177150000Y-91013676D01*
X177187322Y-91010000D01*
X177187333Y-91010000D01*
X177298986Y-90999003D01*
X177442247Y-90955546D01*
X177574276Y-90884974D01*
X177690001Y-90790001D01*
X177713803Y-90760998D01*
X178473252Y-90001550D01*
X178572567Y-89971423D01*
X178723942Y-89890512D01*
X178856623Y-89781623D01*
X178965512Y-89648942D01*
X179046423Y-89497567D01*
X179096248Y-89333316D01*
X179096768Y-89328033D01*
X181011008Y-87413795D01*
X181040001Y-87390001D01*
X181063795Y-87361008D01*
X181063799Y-87361004D01*
X181134973Y-87274277D01*
X181141444Y-87262171D01*
X181205546Y-87142247D01*
X181249003Y-86998986D01*
X181260000Y-86887333D01*
X181260000Y-86887324D01*
X181263676Y-86850001D01*
X181260000Y-86812678D01*
X181260000Y-84524799D01*
X182309799Y-83475000D01*
X183961928Y-83475000D01*
X183974188Y-83599482D01*
X184010498Y-83719180D01*
X184069463Y-83829494D01*
X184148815Y-83926185D01*
X184245506Y-84005537D01*
X184355820Y-84064502D01*
X184475518Y-84100812D01*
X184600000Y-84113072D01*
X184839250Y-84110000D01*
X184998000Y-83951250D01*
X184998000Y-83127000D01*
X184123750Y-83127000D01*
X183965000Y-83285750D01*
X183961928Y-83475000D01*
X182309799Y-83475000D01*
X184093013Y-81691786D01*
X184099188Y-81754482D01*
X184135498Y-81874180D01*
X184194463Y-81984494D01*
X184219894Y-82015482D01*
X184148815Y-82073815D01*
X184069463Y-82170506D01*
X184010498Y-82280820D01*
X183974188Y-82400518D01*
X183961928Y-82525000D01*
X183965000Y-82714250D01*
X184123750Y-82873000D01*
X184998000Y-82873000D01*
X184998000Y-82853000D01*
X185252000Y-82853000D01*
X185252000Y-82873000D01*
X185272000Y-82873000D01*
X185272000Y-83127000D01*
X185252000Y-83127000D01*
X185252000Y-83951250D01*
X185410750Y-84110000D01*
X185650000Y-84113072D01*
X185774482Y-84100812D01*
X185894180Y-84064502D01*
X186004494Y-84005537D01*
X186077161Y-83945901D01*
X186101058Y-83965512D01*
X186115000Y-83972964D01*
X186115001Y-85160197D01*
X186063270Y-85211928D01*
X185750000Y-85211928D01*
X185725550Y-85214336D01*
X185700991Y-85214336D01*
X185576510Y-85226596D01*
X185480377Y-85245718D01*
X185360681Y-85282027D01*
X185270125Y-85319536D01*
X185159808Y-85378502D01*
X185078309Y-85432958D01*
X184981618Y-85512310D01*
X184912310Y-85581618D01*
X184832958Y-85678309D01*
X184778502Y-85759808D01*
X184719536Y-85870125D01*
X184682027Y-85960681D01*
X184645718Y-86080377D01*
X184626596Y-86176510D01*
X184614336Y-86300991D01*
X184614336Y-86325550D01*
X184611928Y-86350000D01*
X184611928Y-86850000D01*
X184615868Y-86890000D01*
X183987325Y-86890000D01*
X183950000Y-86886324D01*
X183912675Y-86890000D01*
X183912667Y-86890000D01*
X183801014Y-86900997D01*
X183657753Y-86944454D01*
X183525724Y-87015026D01*
X183409999Y-87109999D01*
X183386201Y-87138997D01*
X177810199Y-92715000D01*
X176843072Y-92715000D01*
X176843072Y-92650000D01*
X176827929Y-92496255D01*
X176783084Y-92348418D01*
X176710258Y-92212171D01*
X176612251Y-92092749D01*
X176492829Y-91994742D01*
X176356582Y-91921916D01*
X176208745Y-91877071D01*
X176055000Y-91861928D01*
X175755000Y-91861928D01*
X175601255Y-91877071D01*
X175453418Y-91921916D01*
X175317171Y-91994742D01*
X175270000Y-92033454D01*
X175222829Y-91994742D01*
X175086582Y-91921916D01*
X174938745Y-91877071D01*
X174785000Y-91861928D01*
X174485000Y-91861928D01*
X174331255Y-91877071D01*
X174183418Y-91921916D01*
X174047171Y-91994742D01*
X174000000Y-92033454D01*
X173952829Y-91994742D01*
X173816582Y-91921916D01*
X173668745Y-91877071D01*
X173515000Y-91861928D01*
X173215000Y-91861928D01*
X173061255Y-91877071D01*
X172913418Y-91921916D01*
X172779064Y-91993730D01*
X172749494Y-91969463D01*
X172639180Y-91910498D01*
X172519482Y-91874188D01*
X172395000Y-91861928D01*
X172380750Y-91865000D01*
X172222000Y-92023750D01*
X172222000Y-93348000D01*
X172242000Y-93348000D01*
X172242000Y-93602000D01*
X172222000Y-93602000D01*
X172222000Y-94926250D01*
X172380750Y-95085000D01*
X172395000Y-95088072D01*
X172519482Y-95075812D01*
X172605001Y-95049870D01*
X172605000Y-97827677D01*
X172601324Y-97865000D01*
X172605000Y-97902322D01*
X172605000Y-97902332D01*
X172615997Y-98013985D01*
X172641505Y-98098075D01*
X172659454Y-98157246D01*
X172730026Y-98289276D01*
X172769871Y-98337826D01*
X172824999Y-98405001D01*
X172854002Y-98428803D01*
X173686201Y-99261003D01*
X173709999Y-99290001D01*
X173738997Y-99313799D01*
X173825723Y-99384974D01*
X173957753Y-99455546D01*
X174101014Y-99499003D01*
X174212667Y-99510000D01*
X174212677Y-99510000D01*
X174249999Y-99513676D01*
X174287322Y-99510000D01*
X181296289Y-99510000D01*
X181340226Y-99553937D01*
X181509744Y-99667205D01*
X181698102Y-99745226D01*
X181898061Y-99785000D01*
X182101939Y-99785000D01*
X182301898Y-99745226D01*
X182490256Y-99667205D01*
X182659774Y-99553937D01*
X182803937Y-99409774D01*
X182917205Y-99240256D01*
X182995226Y-99051898D01*
X183035000Y-98851939D01*
X183035000Y-98648061D01*
X182995226Y-98448102D01*
X182917205Y-98259744D01*
X182827172Y-98125000D01*
X182917205Y-97990256D01*
X182995226Y-97801898D01*
X183035000Y-97601939D01*
X183035000Y-97398061D01*
X182995226Y-97198102D01*
X182917205Y-97009744D01*
X182803937Y-96840226D01*
X182659774Y-96696063D01*
X182490256Y-96582795D01*
X182301898Y-96504774D01*
X182101939Y-96465000D01*
X181898061Y-96465000D01*
X181698102Y-96504774D01*
X181509744Y-96582795D01*
X181340226Y-96696063D01*
X181296289Y-96740000D01*
X179013284Y-96740000D01*
X179064502Y-96644180D01*
X179100812Y-96524482D01*
X179113072Y-96400000D01*
X179110000Y-96160750D01*
X178951250Y-96002000D01*
X178127000Y-96002000D01*
X178127000Y-96022000D01*
X177873000Y-96022000D01*
X177873000Y-96002000D01*
X177853000Y-96002000D01*
X177853000Y-95748000D01*
X177873000Y-95748000D01*
X177873000Y-95728000D01*
X178127000Y-95728000D01*
X178127000Y-95748000D01*
X178951250Y-95748000D01*
X179110000Y-95589250D01*
X179113072Y-95350000D01*
X179100812Y-95225518D01*
X179064502Y-95105820D01*
X179005537Y-94995506D01*
X178945901Y-94922839D01*
X178965512Y-94898942D01*
X179046423Y-94747567D01*
X179096248Y-94583316D01*
X179113072Y-94412500D01*
X179113072Y-93837500D01*
X179096248Y-93666684D01*
X179075736Y-93599065D01*
X179274801Y-93400000D01*
X192886928Y-93400000D01*
X192899188Y-93524482D01*
X192935498Y-93644180D01*
X192994463Y-93754494D01*
X193073815Y-93851185D01*
X193170506Y-93930537D01*
X193280820Y-93989502D01*
X193400518Y-94025812D01*
X193525000Y-94038072D01*
X193714250Y-94035000D01*
X193873000Y-93876250D01*
X193873000Y-93002000D01*
X194127000Y-93002000D01*
X194127000Y-93876250D01*
X194285750Y-94035000D01*
X194475000Y-94038072D01*
X194599482Y-94025812D01*
X194719180Y-93989502D01*
X194829494Y-93930537D01*
X194926185Y-93851185D01*
X195005537Y-93754494D01*
X195064502Y-93644180D01*
X195100812Y-93524482D01*
X195113072Y-93400000D01*
X195110000Y-93160750D01*
X194951250Y-93002000D01*
X194127000Y-93002000D01*
X193873000Y-93002000D01*
X193048750Y-93002000D01*
X192890000Y-93160750D01*
X192886928Y-93400000D01*
X179274801Y-93400000D01*
X184264802Y-88410000D01*
X184905431Y-88410000D01*
X184912310Y-88418382D01*
X184981618Y-88487690D01*
X185078309Y-88567042D01*
X185159808Y-88621498D01*
X185270125Y-88680464D01*
X185360681Y-88717973D01*
X185480377Y-88754282D01*
X185576510Y-88773404D01*
X185700991Y-88785664D01*
X185725550Y-88785664D01*
X185750000Y-88788072D01*
X186250000Y-88788072D01*
X186274450Y-88785664D01*
X186299009Y-88785664D01*
X186423490Y-88773404D01*
X186490877Y-88760000D01*
X187740001Y-88760000D01*
X187740000Y-90712677D01*
X187736324Y-90750000D01*
X187740000Y-90787322D01*
X187740000Y-90787332D01*
X187750997Y-90898985D01*
X187793469Y-91038998D01*
X187794454Y-91042246D01*
X187865026Y-91174276D01*
X187898448Y-91215000D01*
X187959999Y-91290001D01*
X187989002Y-91313803D01*
X188186200Y-91511002D01*
X188209999Y-91540001D01*
X188325724Y-91634974D01*
X188457753Y-91705546D01*
X188601014Y-91749003D01*
X188712667Y-91760000D01*
X188712676Y-91760000D01*
X188749999Y-91763676D01*
X188787322Y-91760000D01*
X191750773Y-91760000D01*
X191882753Y-91830546D01*
X192026014Y-91874003D01*
X192137667Y-91885000D01*
X192137675Y-91885000D01*
X192175000Y-91888676D01*
X192212325Y-91885000D01*
X193027036Y-91885000D01*
X193034488Y-91898942D01*
X193054099Y-91922839D01*
X192994463Y-91995506D01*
X192935498Y-92105820D01*
X192899188Y-92225518D01*
X192886928Y-92350000D01*
X192890000Y-92589250D01*
X193048750Y-92748000D01*
X193873000Y-92748000D01*
X193873000Y-92728000D01*
X194127000Y-92728000D01*
X194127000Y-92748000D01*
X194951250Y-92748000D01*
X195110000Y-92589250D01*
X195113072Y-92350000D01*
X195100812Y-92225518D01*
X195064502Y-92105820D01*
X195005537Y-91995506D01*
X194945901Y-91922839D01*
X194965512Y-91898942D01*
X195046423Y-91747567D01*
X195096248Y-91583316D01*
X195113072Y-91412500D01*
X195113072Y-90837500D01*
X195107901Y-90785000D01*
X197686928Y-90785000D01*
X197686928Y-90900000D01*
X197697095Y-91003227D01*
X197690000Y-91068250D01*
X197722247Y-91100497D01*
X197735498Y-91144180D01*
X197794463Y-91254494D01*
X197852559Y-91325285D01*
X197799922Y-91387469D01*
X197739285Y-91496873D01*
X197722531Y-91549219D01*
X197690000Y-91581750D01*
X197697447Y-91650000D01*
X197690000Y-91718250D01*
X197722531Y-91750781D01*
X197739285Y-91803127D01*
X197799922Y-91912531D01*
X197852801Y-91975000D01*
X197799922Y-92037469D01*
X197739285Y-92146873D01*
X197722531Y-92199219D01*
X197690000Y-92231750D01*
X197697447Y-92300000D01*
X197690000Y-92368250D01*
X197722531Y-92400781D01*
X197739285Y-92453127D01*
X197764155Y-92497998D01*
X197690000Y-92497998D01*
X197690000Y-92515000D01*
X197669382Y-92515000D01*
X197667205Y-92509744D01*
X197553937Y-92340226D01*
X197409774Y-92196063D01*
X197240256Y-92082795D01*
X197051898Y-92004774D01*
X196851939Y-91965000D01*
X196648061Y-91965000D01*
X196448102Y-92004774D01*
X196259744Y-92082795D01*
X196090226Y-92196063D01*
X195946063Y-92340226D01*
X195832795Y-92509744D01*
X195754774Y-92698102D01*
X195715000Y-92898061D01*
X195715000Y-93101939D01*
X195754774Y-93301898D01*
X195832795Y-93490256D01*
X195839306Y-93500000D01*
X195832795Y-93509744D01*
X195754774Y-93698102D01*
X195715000Y-93898061D01*
X195715000Y-94101939D01*
X195754774Y-94301898D01*
X195758228Y-94310236D01*
X195655724Y-94365026D01*
X195539999Y-94459999D01*
X195516201Y-94488997D01*
X192446408Y-97558791D01*
X192226260Y-97515000D01*
X191933740Y-97515000D01*
X191646842Y-97572068D01*
X191376589Y-97684010D01*
X191133368Y-97846525D01*
X190926525Y-98053368D01*
X190810000Y-98227760D01*
X190693475Y-98053368D01*
X190486632Y-97846525D01*
X190243411Y-97684010D01*
X189973158Y-97572068D01*
X189686260Y-97515000D01*
X189393740Y-97515000D01*
X189106842Y-97572068D01*
X188836589Y-97684010D01*
X188593368Y-97846525D01*
X188461513Y-97978380D01*
X188439502Y-97905820D01*
X188380537Y-97795506D01*
X188301185Y-97698815D01*
X188204494Y-97619463D01*
X188094180Y-97560498D01*
X187974482Y-97524188D01*
X187850000Y-97511928D01*
X186150000Y-97511928D01*
X186025518Y-97524188D01*
X185905820Y-97560498D01*
X185795506Y-97619463D01*
X185698815Y-97698815D01*
X185619463Y-97795506D01*
X185560498Y-97905820D01*
X185524188Y-98025518D01*
X185511928Y-98150000D01*
X185511928Y-99850000D01*
X185524188Y-99974482D01*
X185560498Y-100094180D01*
X185619463Y-100204494D01*
X185698815Y-100301185D01*
X185795506Y-100380537D01*
X185905820Y-100439502D01*
X186025518Y-100475812D01*
X186150000Y-100488072D01*
X187850000Y-100488072D01*
X187974482Y-100475812D01*
X188094180Y-100439502D01*
X188204494Y-100380537D01*
X188301185Y-100301185D01*
X188380537Y-100204494D01*
X188439502Y-100094180D01*
X188461513Y-100021620D01*
X188593368Y-100153475D01*
X188836589Y-100315990D01*
X189106842Y-100427932D01*
X189393740Y-100485000D01*
X189686260Y-100485000D01*
X189973158Y-100427932D01*
X190243411Y-100315990D01*
X190486632Y-100153475D01*
X190693475Y-99946632D01*
X190810000Y-99772240D01*
X190926525Y-99946632D01*
X191133368Y-100153475D01*
X191376589Y-100315990D01*
X191646842Y-100427932D01*
X191933740Y-100485000D01*
X192226260Y-100485000D01*
X192513158Y-100427932D01*
X192783411Y-100315990D01*
X193026632Y-100153475D01*
X193233475Y-99946632D01*
X193350000Y-99772240D01*
X193466525Y-99946632D01*
X193673368Y-100153475D01*
X193916589Y-100315990D01*
X194186842Y-100427932D01*
X194473740Y-100485000D01*
X194766260Y-100485000D01*
X195053158Y-100427932D01*
X195323411Y-100315990D01*
X195566632Y-100153475D01*
X195773475Y-99946632D01*
X195890000Y-99772240D01*
X196006525Y-99946632D01*
X196213368Y-100153475D01*
X196456589Y-100315990D01*
X196726842Y-100427932D01*
X197013740Y-100485000D01*
X197306260Y-100485000D01*
X197593158Y-100427932D01*
X197863411Y-100315990D01*
X198106632Y-100153475D01*
X198313475Y-99946632D01*
X198430000Y-99772240D01*
X198546525Y-99946632D01*
X198753368Y-100153475D01*
X198996589Y-100315990D01*
X199266842Y-100427932D01*
X199553740Y-100485000D01*
X199846260Y-100485000D01*
X200133158Y-100427932D01*
X200403411Y-100315990D01*
X200646632Y-100153475D01*
X200853475Y-99946632D01*
X200970000Y-99772240D01*
X201086525Y-99946632D01*
X201293368Y-100153475D01*
X201536589Y-100315990D01*
X201806842Y-100427932D01*
X202093740Y-100485000D01*
X202386260Y-100485000D01*
X202673158Y-100427932D01*
X202943411Y-100315990D01*
X203186632Y-100153475D01*
X203393475Y-99946632D01*
X203510000Y-99772240D01*
X203626525Y-99946632D01*
X203833368Y-100153475D01*
X204076589Y-100315990D01*
X204346842Y-100427932D01*
X204633740Y-100485000D01*
X204926260Y-100485000D01*
X205213158Y-100427932D01*
X205483411Y-100315990D01*
X205726632Y-100153475D01*
X205933475Y-99946632D01*
X206050000Y-99772240D01*
X206166525Y-99946632D01*
X206373368Y-100153475D01*
X206616589Y-100315990D01*
X206886842Y-100427932D01*
X207173740Y-100485000D01*
X207466260Y-100485000D01*
X207753158Y-100427932D01*
X208023411Y-100315990D01*
X208266632Y-100153475D01*
X208473475Y-99946632D01*
X208595195Y-99764466D01*
X208664822Y-99881355D01*
X208859731Y-100097588D01*
X209093080Y-100271641D01*
X209355901Y-100396825D01*
X209503110Y-100441476D01*
X209733000Y-100320155D01*
X209733000Y-99127000D01*
X209987000Y-99127000D01*
X209987000Y-100320155D01*
X210216890Y-100441476D01*
X210364099Y-100396825D01*
X210626920Y-100271641D01*
X210860269Y-100097588D01*
X211055178Y-99881355D01*
X211204157Y-99631252D01*
X211301481Y-99356891D01*
X211180814Y-99127000D01*
X209987000Y-99127000D01*
X209733000Y-99127000D01*
X209713000Y-99127000D01*
X209713000Y-98873000D01*
X209733000Y-98873000D01*
X209733000Y-97679845D01*
X209987000Y-97679845D01*
X209987000Y-98873000D01*
X211180814Y-98873000D01*
X211301481Y-98643109D01*
X211204157Y-98368748D01*
X211055178Y-98118645D01*
X210860269Y-97902412D01*
X210626920Y-97728359D01*
X210364099Y-97603175D01*
X210216890Y-97558524D01*
X209987000Y-97679845D01*
X209733000Y-97679845D01*
X209503110Y-97558524D01*
X209355901Y-97603175D01*
X209093080Y-97728359D01*
X208859731Y-97902412D01*
X208664822Y-98118645D01*
X208595195Y-98235534D01*
X208473475Y-98053368D01*
X208266632Y-97846525D01*
X208243640Y-97831162D01*
X208681002Y-97393800D01*
X208710000Y-97370002D01*
X208746933Y-97324999D01*
X208804973Y-97254278D01*
X208875545Y-97122248D01*
X208884630Y-97092298D01*
X208919002Y-96978987D01*
X208929999Y-96867334D01*
X208929999Y-96867325D01*
X208933675Y-96830002D01*
X208929999Y-96792679D01*
X208929999Y-90634322D01*
X208933675Y-90596997D01*
X208929999Y-90559672D01*
X208929999Y-90559664D01*
X208919002Y-90448011D01*
X208875545Y-90304750D01*
X208804973Y-90172721D01*
X208710000Y-90056996D01*
X208681003Y-90033199D01*
X207511806Y-88864003D01*
X207488003Y-88834999D01*
X207372278Y-88740026D01*
X207240249Y-88669454D01*
X207096988Y-88625997D01*
X206985335Y-88615000D01*
X206985324Y-88615000D01*
X206948002Y-88611324D01*
X206910680Y-88615000D01*
X206313072Y-88615000D01*
X206313072Y-88500000D01*
X206303223Y-88400000D01*
X206313072Y-88300000D01*
X206313072Y-87850000D01*
X206300812Y-87725518D01*
X206264502Y-87605820D01*
X206205537Y-87495506D01*
X206126185Y-87398815D01*
X206029494Y-87319463D01*
X205919180Y-87260498D01*
X205799482Y-87224188D01*
X205675000Y-87211928D01*
X204225000Y-87211928D01*
X204100518Y-87224188D01*
X203980820Y-87260498D01*
X203870506Y-87319463D01*
X203867526Y-87321908D01*
X203826014Y-87325997D01*
X203682753Y-87369454D01*
X203550723Y-87440026D01*
X203491051Y-87488998D01*
X203434999Y-87534999D01*
X203411201Y-87563997D01*
X201760000Y-89215198D01*
X201760000Y-86953711D01*
X201803937Y-86909774D01*
X201917205Y-86740256D01*
X201995226Y-86551898D01*
X202035000Y-86351939D01*
X202035000Y-86148061D01*
X201995226Y-85948102D01*
X201917205Y-85759744D01*
X201803937Y-85590226D01*
X201659774Y-85446063D01*
X201490256Y-85332795D01*
X201301898Y-85254774D01*
X201101939Y-85215000D01*
X200898061Y-85215000D01*
X200698102Y-85254774D01*
X200509744Y-85332795D01*
X200340226Y-85446063D01*
X200196063Y-85590226D01*
X200082795Y-85759744D01*
X200004774Y-85948102D01*
X199965000Y-86148061D01*
X199965000Y-86351939D01*
X200004774Y-86551898D01*
X200082795Y-86740256D01*
X200196063Y-86909774D01*
X200240001Y-86953712D01*
X200240001Y-87415649D01*
X200226185Y-87398815D01*
X200129494Y-87319463D01*
X200019180Y-87260498D01*
X199899482Y-87224188D01*
X199775000Y-87211928D01*
X198325000Y-87211928D01*
X198200518Y-87224188D01*
X198190836Y-87227125D01*
X198159774Y-87196063D01*
X197990256Y-87082795D01*
X197801898Y-87004774D01*
X197601939Y-86965000D01*
X197398061Y-86965000D01*
X197198102Y-87004774D01*
X197009744Y-87082795D01*
X196840226Y-87196063D01*
X196696063Y-87340226D01*
X196582795Y-87509744D01*
X196504774Y-87698102D01*
X196495372Y-87745372D01*
X196448102Y-87754774D01*
X196259744Y-87832795D01*
X196090226Y-87946063D01*
X195946063Y-88090226D01*
X195832795Y-88259744D01*
X195754774Y-88448102D01*
X195715000Y-88648061D01*
X195715000Y-88779999D01*
X195454801Y-88779999D01*
X195075736Y-88400935D01*
X195096248Y-88333316D01*
X195113072Y-88162500D01*
X195113072Y-87587500D01*
X195096248Y-87416684D01*
X195046423Y-87252433D01*
X194965512Y-87101058D01*
X194945901Y-87077161D01*
X195005537Y-87004494D01*
X195064502Y-86894180D01*
X195100812Y-86774482D01*
X195113072Y-86650000D01*
X195110000Y-86410750D01*
X194951250Y-86252000D01*
X194127000Y-86252000D01*
X194127000Y-86272000D01*
X193873000Y-86272000D01*
X193873000Y-86252000D01*
X193048750Y-86252000D01*
X192890000Y-86410750D01*
X192886928Y-86650000D01*
X192899188Y-86774482D01*
X192935498Y-86894180D01*
X192994463Y-87004494D01*
X193054099Y-87077161D01*
X193034488Y-87101058D01*
X193027036Y-87115000D01*
X192212325Y-87115000D01*
X192175000Y-87111324D01*
X192137675Y-87115000D01*
X192137667Y-87115000D01*
X192026014Y-87125997D01*
X191882753Y-87169454D01*
X191750773Y-87240000D01*
X189260000Y-87240000D01*
X189260000Y-86953711D01*
X189303937Y-86909774D01*
X189417205Y-86740256D01*
X189495226Y-86551898D01*
X189535000Y-86351939D01*
X189535000Y-86148061D01*
X189495226Y-85948102D01*
X189417205Y-85759744D01*
X189310468Y-85600000D01*
X192886928Y-85600000D01*
X192890000Y-85839250D01*
X193048750Y-85998000D01*
X193873000Y-85998000D01*
X193873000Y-85123750D01*
X194127000Y-85123750D01*
X194127000Y-85998000D01*
X194951250Y-85998000D01*
X195110000Y-85839250D01*
X195113072Y-85600000D01*
X195100812Y-85475518D01*
X195064502Y-85355820D01*
X195005537Y-85245506D01*
X194926185Y-85148815D01*
X194829494Y-85069463D01*
X194719180Y-85010498D01*
X194599482Y-84974188D01*
X194475000Y-84961928D01*
X194285750Y-84965000D01*
X194127000Y-85123750D01*
X193873000Y-85123750D01*
X193714250Y-84965000D01*
X193525000Y-84961928D01*
X193400518Y-84974188D01*
X193280820Y-85010498D01*
X193170506Y-85069463D01*
X193073815Y-85148815D01*
X192994463Y-85245506D01*
X192935498Y-85355820D01*
X192899188Y-85475518D01*
X192886928Y-85600000D01*
X189310468Y-85600000D01*
X189303937Y-85590226D01*
X189260000Y-85546289D01*
X189260000Y-83814801D01*
X191034365Y-82040437D01*
X191081618Y-82087690D01*
X191178309Y-82167042D01*
X191259808Y-82221498D01*
X191370125Y-82280464D01*
X191460681Y-82317973D01*
X191580377Y-82354282D01*
X191676510Y-82373404D01*
X191800991Y-82385664D01*
X191825550Y-82385664D01*
X191850000Y-82388072D01*
X192350000Y-82388072D01*
X192474482Y-82375812D01*
X192500000Y-82368071D01*
X192525518Y-82375812D01*
X192650000Y-82388072D01*
X193150000Y-82388072D01*
X193174450Y-82385664D01*
X193199009Y-82385664D01*
X193323490Y-82373404D01*
X193419623Y-82354282D01*
X193539319Y-82317973D01*
X193629875Y-82280464D01*
X193740192Y-82221498D01*
X193821691Y-82167042D01*
X193918382Y-82087690D01*
X193987690Y-82018382D01*
X194067042Y-81921691D01*
X194121498Y-81840192D01*
X194180464Y-81729875D01*
X194188696Y-81710000D01*
X195784962Y-81710000D01*
X195810498Y-81794180D01*
X195869463Y-81904494D01*
X195947842Y-82000000D01*
X195869463Y-82095506D01*
X195810498Y-82205820D01*
X195774188Y-82325518D01*
X195761928Y-82450000D01*
X195761928Y-83650000D01*
X195774188Y-83774482D01*
X195810498Y-83894180D01*
X195869463Y-84004494D01*
X195948815Y-84101185D01*
X196045506Y-84180537D01*
X196155820Y-84239502D01*
X196275518Y-84275812D01*
X196400000Y-84288072D01*
X197600000Y-84288072D01*
X197724482Y-84275812D01*
X197844180Y-84239502D01*
X197954494Y-84180537D01*
X198051185Y-84101185D01*
X198130537Y-84004494D01*
X198189502Y-83894180D01*
X198215038Y-83810000D01*
X203320482Y-83810000D01*
X203345506Y-83830537D01*
X203455820Y-83889502D01*
X203575518Y-83925812D01*
X203700000Y-83938072D01*
X206300000Y-83938072D01*
X206424482Y-83925812D01*
X206544180Y-83889502D01*
X206654494Y-83830537D01*
X206751185Y-83751185D01*
X206830537Y-83654494D01*
X206889502Y-83544180D01*
X206925812Y-83424482D01*
X206938072Y-83300000D01*
X206938072Y-80700000D01*
X206925812Y-80575518D01*
X206889502Y-80455820D01*
X206830537Y-80345506D01*
X206751185Y-80248815D01*
X206654494Y-80169463D01*
X206544180Y-80110498D01*
X206424482Y-80074188D01*
X206300000Y-80061928D01*
X203700000Y-80061928D01*
X203575518Y-80074188D01*
X203455820Y-80110498D01*
X203345506Y-80169463D01*
X203248815Y-80248815D01*
X203169463Y-80345506D01*
X203110498Y-80455820D01*
X203074188Y-80575518D01*
X203061928Y-80700000D01*
X203061928Y-82290000D01*
X198215038Y-82290000D01*
X198189502Y-82205820D01*
X198130537Y-82095506D01*
X198052158Y-82000000D01*
X198130537Y-81904494D01*
X198189502Y-81794180D01*
X198225812Y-81674482D01*
X198238072Y-81550000D01*
X198238072Y-80350000D01*
X198225812Y-80225518D01*
X198189502Y-80105820D01*
X198130537Y-79995506D01*
X198051185Y-79898815D01*
X197954494Y-79819463D01*
X197864880Y-79771562D01*
X197965512Y-79648942D01*
X198046423Y-79497567D01*
X198096248Y-79333316D01*
X198113072Y-79162500D01*
X198113072Y-78587500D01*
X198096248Y-78416684D01*
X198051517Y-78269224D01*
X203830381Y-78269224D01*
X203962317Y-78564312D01*
X204303045Y-78735159D01*
X204670557Y-78836250D01*
X205050729Y-78863701D01*
X205428951Y-78816457D01*
X205790690Y-78696333D01*
X206037683Y-78564312D01*
X206169619Y-78269224D01*
X205000000Y-77099605D01*
X203830381Y-78269224D01*
X198051517Y-78269224D01*
X198046423Y-78252433D01*
X197965512Y-78101058D01*
X197882575Y-78000000D01*
X197965512Y-77898942D01*
X198046423Y-77747567D01*
X198096248Y-77583316D01*
X198113072Y-77412500D01*
X198113072Y-76970729D01*
X203056299Y-76970729D01*
X203103543Y-77348951D01*
X203223667Y-77710690D01*
X203355688Y-77957683D01*
X203650776Y-78089619D01*
X204820395Y-76920000D01*
X205179605Y-76920000D01*
X206349224Y-78089619D01*
X206644312Y-77957683D01*
X206815159Y-77616955D01*
X206916250Y-77249443D01*
X206943701Y-76869271D01*
X206896457Y-76491049D01*
X206776333Y-76129310D01*
X206644312Y-75882317D01*
X206349224Y-75750381D01*
X205179605Y-76920000D01*
X204820395Y-76920000D01*
X203650776Y-75750381D01*
X203355688Y-75882317D01*
X203184841Y-76223045D01*
X203083750Y-76590557D01*
X203056299Y-76970729D01*
X198113072Y-76970729D01*
X198113072Y-76837500D01*
X198096248Y-76666684D01*
X198046423Y-76502433D01*
X197965512Y-76351058D01*
X197856623Y-76218377D01*
X197723942Y-76109488D01*
X197572567Y-76028577D01*
X197408316Y-75978752D01*
X197237500Y-75961928D01*
X196762500Y-75961928D01*
X196591684Y-75978752D01*
X196427433Y-76028577D01*
X196276058Y-76109488D01*
X196143377Y-76218377D01*
X196034488Y-76351058D01*
X196027036Y-76365000D01*
X195938052Y-76365000D01*
X195890512Y-76276058D01*
X195781623Y-76143377D01*
X195648942Y-76034488D01*
X195497567Y-75953577D01*
X195333316Y-75903752D01*
X195162500Y-75886928D01*
X194587500Y-75886928D01*
X194416684Y-75903752D01*
X194252433Y-75953577D01*
X194101058Y-76034488D01*
X194077161Y-76054099D01*
X194004494Y-75994463D01*
X193894180Y-75935498D01*
X193774482Y-75899188D01*
X193650000Y-75886928D01*
X193410750Y-75890000D01*
X193252000Y-76048750D01*
X193252000Y-76873000D01*
X193272000Y-76873000D01*
X193272000Y-77127000D01*
X193252000Y-77127000D01*
X193252000Y-77951250D01*
X193410750Y-78110000D01*
X193650000Y-78113072D01*
X193774482Y-78100812D01*
X193894180Y-78064502D01*
X194004494Y-78005537D01*
X194077161Y-77945901D01*
X194101058Y-77965512D01*
X194252433Y-78046423D01*
X194416684Y-78096248D01*
X194587500Y-78113072D01*
X195162500Y-78113072D01*
X195333316Y-78096248D01*
X195497567Y-78046423D01*
X195648942Y-77965512D01*
X195747046Y-77885000D01*
X196027036Y-77885000D01*
X196034488Y-77898942D01*
X196117425Y-78000000D01*
X196034488Y-78101058D01*
X195953577Y-78252433D01*
X195903752Y-78416684D01*
X195886928Y-78587500D01*
X195886928Y-79162500D01*
X195903752Y-79333316D01*
X195953577Y-79497567D01*
X196034488Y-79648942D01*
X196135120Y-79771562D01*
X196045506Y-79819463D01*
X195948815Y-79898815D01*
X195869463Y-79995506D01*
X195810498Y-80105820D01*
X195784962Y-80190000D01*
X194137636Y-80190000D01*
X194121498Y-80159808D01*
X194067042Y-80078309D01*
X193987690Y-79981618D01*
X193918382Y-79912310D01*
X193821691Y-79832958D01*
X193740192Y-79778502D01*
X193629875Y-79719536D01*
X193539319Y-79682027D01*
X193419623Y-79645718D01*
X193323490Y-79626596D01*
X193199009Y-79614336D01*
X193174450Y-79614336D01*
X193150000Y-79611928D01*
X192650000Y-79611928D01*
X192525518Y-79624188D01*
X192500000Y-79631929D01*
X192474482Y-79624188D01*
X192350000Y-79611928D01*
X191850000Y-79611928D01*
X191825550Y-79614336D01*
X191800991Y-79614336D01*
X191676510Y-79626596D01*
X191580377Y-79645718D01*
X191460681Y-79682027D01*
X191370125Y-79719536D01*
X191259808Y-79778502D01*
X191178309Y-79832958D01*
X191081618Y-79912310D01*
X191012310Y-79981618D01*
X190932958Y-80078309D01*
X190878502Y-80159808D01*
X190825647Y-80258692D01*
X190715032Y-80292246D01*
X190707753Y-80294454D01*
X190575723Y-80365026D01*
X190503526Y-80424277D01*
X190459999Y-80459999D01*
X190436201Y-80488997D01*
X188038072Y-82887127D01*
X188038072Y-82762500D01*
X188021248Y-82591684D01*
X187971423Y-82427433D01*
X187890512Y-82276058D01*
X187781623Y-82143377D01*
X187716014Y-82089532D01*
X187726185Y-82081185D01*
X187805537Y-81984494D01*
X187864502Y-81874180D01*
X187900812Y-81754482D01*
X187913072Y-81630000D01*
X187913072Y-80570000D01*
X187900812Y-80445518D01*
X187864502Y-80325820D01*
X187805537Y-80215506D01*
X187726185Y-80118815D01*
X187629494Y-80039463D01*
X187555665Y-80000000D01*
X187629494Y-79960537D01*
X187726185Y-79881185D01*
X187805537Y-79784494D01*
X187864502Y-79674180D01*
X187898496Y-79562117D01*
X187949276Y-79534974D01*
X188065001Y-79440001D01*
X188088804Y-79410998D01*
X189011004Y-78488798D01*
X189040001Y-78465001D01*
X189134974Y-78349276D01*
X189205546Y-78217247D01*
X189249003Y-78073986D01*
X189260000Y-77962333D01*
X189260000Y-77962324D01*
X189263676Y-77925001D01*
X189260000Y-77887678D01*
X189260000Y-77475000D01*
X191961928Y-77475000D01*
X191974188Y-77599482D01*
X192010498Y-77719180D01*
X192069463Y-77829494D01*
X192148815Y-77926185D01*
X192245506Y-78005537D01*
X192355820Y-78064502D01*
X192475518Y-78100812D01*
X192600000Y-78113072D01*
X192839250Y-78110000D01*
X192998000Y-77951250D01*
X192998000Y-77127000D01*
X192123750Y-77127000D01*
X191965000Y-77285750D01*
X191961928Y-77475000D01*
X189260000Y-77475000D01*
X189260000Y-76525000D01*
X191961928Y-76525000D01*
X191965000Y-76714250D01*
X192123750Y-76873000D01*
X192998000Y-76873000D01*
X192998000Y-76048750D01*
X192839250Y-75890000D01*
X192600000Y-75886928D01*
X192475518Y-75899188D01*
X192355820Y-75935498D01*
X192245506Y-75994463D01*
X192148815Y-76073815D01*
X192069463Y-76170506D01*
X192010498Y-76280820D01*
X191974188Y-76400518D01*
X191961928Y-76525000D01*
X189260000Y-76525000D01*
X189260000Y-75570776D01*
X203830381Y-75570776D01*
X205000000Y-76740395D01*
X206169619Y-75570776D01*
X206037683Y-75275688D01*
X205696955Y-75104841D01*
X205329443Y-75003750D01*
X204949271Y-74976299D01*
X204571049Y-75023543D01*
X204209310Y-75143667D01*
X203962317Y-75275688D01*
X203830381Y-75570776D01*
X189260000Y-75570776D01*
X189260000Y-75287333D01*
X189263677Y-75250000D01*
X189249003Y-75101014D01*
X189205546Y-74957753D01*
X189134974Y-74825724D01*
X189040001Y-74709999D01*
X188979077Y-74660000D01*
X219340000Y-74660000D01*
X219340001Y-104340000D01*
X160660000Y-104340000D01*
X160660000Y-94450000D01*
X171156928Y-94450000D01*
X171169188Y-94574482D01*
X171205498Y-94694180D01*
X171264463Y-94804494D01*
X171343815Y-94901185D01*
X171440506Y-94980537D01*
X171550820Y-95039502D01*
X171670518Y-95075812D01*
X171795000Y-95088072D01*
X171809250Y-95085000D01*
X171968000Y-94926250D01*
X171968000Y-93602000D01*
X171318750Y-93602000D01*
X171160000Y-93760750D01*
X171156928Y-94450000D01*
X160660000Y-94450000D01*
X160660000Y-92500000D01*
X171156928Y-92500000D01*
X171160000Y-93189250D01*
X171318750Y-93348000D01*
X171968000Y-93348000D01*
X171968000Y-92023750D01*
X171809250Y-91865000D01*
X171795000Y-91861928D01*
X171670518Y-91874188D01*
X171550820Y-91910498D01*
X171440506Y-91969463D01*
X171343815Y-92048815D01*
X171264463Y-92145506D01*
X171205498Y-92255820D01*
X171169188Y-92375518D01*
X171156928Y-92500000D01*
X160660000Y-92500000D01*
X160660000Y-74660000D01*
X166261928Y-74660000D01*
X166261928Y-77550000D01*
G36*
X206449773Y-92801898D02*
G01*
X206527794Y-92990256D01*
X206641062Y-93159774D01*
X206785225Y-93303937D01*
X206954743Y-93417205D01*
X207143101Y-93495226D01*
X207343060Y-93535000D01*
X207409999Y-93535000D01*
X207410000Y-96515198D01*
X206742028Y-97183171D01*
X206716102Y-97203965D01*
X206699576Y-97223646D01*
X206680651Y-97241037D01*
X206651546Y-97280848D01*
X206619834Y-97318616D01*
X206617761Y-97322391D01*
X206615026Y-97325724D01*
X206604930Y-97344613D01*
X206592298Y-97361891D01*
X206571518Y-97406617D01*
X206547784Y-97449844D01*
X206546489Y-97453947D01*
X206544454Y-97457754D01*
X206538239Y-97478243D01*
X206529218Y-97497659D01*
X206517564Y-97545578D01*
X206502718Y-97592607D01*
X206502247Y-97596899D01*
X206500998Y-97601015D01*
X206498900Y-97622317D01*
X206493839Y-97643126D01*
X206491757Y-97692396D01*
X206486372Y-97741419D01*
X206486746Y-97745713D01*
X206486324Y-97750000D01*
X206488269Y-97769750D01*
X206373368Y-97846525D01*
X206166525Y-98053368D01*
X206050000Y-98227760D01*
X205933475Y-98053368D01*
X205726632Y-97846525D01*
X205483411Y-97684010D01*
X205213158Y-97572068D01*
X204926260Y-97515000D01*
X204633740Y-97515000D01*
X204346842Y-97572068D01*
X204076589Y-97684010D01*
X203833368Y-97846525D01*
X203626525Y-98053368D01*
X203510000Y-98227760D01*
X203393475Y-98053368D01*
X203186632Y-97846525D01*
X202943411Y-97684010D01*
X202673158Y-97572068D01*
X202386260Y-97515000D01*
X202093740Y-97515000D01*
X201806842Y-97572068D01*
X201536589Y-97684010D01*
X201293368Y-97846525D01*
X201086525Y-98053368D01*
X200970000Y-98227760D01*
X200853475Y-98053368D01*
X200687454Y-97887347D01*
X203885989Y-94688813D01*
X203980820Y-94739502D01*
X204100518Y-94775812D01*
X204225000Y-94788072D01*
X205675000Y-94788072D01*
X205799482Y-94775812D01*
X205919180Y-94739502D01*
X206029494Y-94680537D01*
X206126185Y-94601185D01*
X206205537Y-94504494D01*
X206264502Y-94394180D01*
X206300812Y-94274482D01*
X206313072Y-94150000D01*
X206313072Y-93700000D01*
X206303223Y-93600000D01*
X206313072Y-93500000D01*
X206313072Y-93050000D01*
X206302905Y-92946773D01*
X206310000Y-92881750D01*
X206277753Y-92849503D01*
X206264502Y-92805820D01*
X206235735Y-92752002D01*
X206310000Y-92752002D01*
X206310000Y-92735000D01*
X206436466Y-92735000D01*
X206449773Y-92801898D01*
G37*
X206449773Y-92801898D02*
X206527794Y-92990256D01*
X206641062Y-93159774D01*
X206785225Y-93303937D01*
X206954743Y-93417205D01*
X207143101Y-93495226D01*
X207343060Y-93535000D01*
X207409999Y-93535000D01*
X207410000Y-96515198D01*
X206742028Y-97183171D01*
X206716102Y-97203965D01*
X206699576Y-97223646D01*
X206680651Y-97241037D01*
X206651546Y-97280848D01*
X206619834Y-97318616D01*
X206617761Y-97322391D01*
X206615026Y-97325724D01*
X206604930Y-97344613D01*
X206592298Y-97361891D01*
X206571518Y-97406617D01*
X206547784Y-97449844D01*
X206546489Y-97453947D01*
X206544454Y-97457754D01*
X206538239Y-97478243D01*
X206529218Y-97497659D01*
X206517564Y-97545578D01*
X206502718Y-97592607D01*
X206502247Y-97596899D01*
X206500998Y-97601015D01*
X206498900Y-97622317D01*
X206493839Y-97643126D01*
X206491757Y-97692396D01*
X206486372Y-97741419D01*
X206486746Y-97745713D01*
X206486324Y-97750000D01*
X206488269Y-97769750D01*
X206373368Y-97846525D01*
X206166525Y-98053368D01*
X206050000Y-98227760D01*
X205933475Y-98053368D01*
X205726632Y-97846525D01*
X205483411Y-97684010D01*
X205213158Y-97572068D01*
X204926260Y-97515000D01*
X204633740Y-97515000D01*
X204346842Y-97572068D01*
X204076589Y-97684010D01*
X203833368Y-97846525D01*
X203626525Y-98053368D01*
X203510000Y-98227760D01*
X203393475Y-98053368D01*
X203186632Y-97846525D01*
X202943411Y-97684010D01*
X202673158Y-97572068D01*
X202386260Y-97515000D01*
X202093740Y-97515000D01*
X201806842Y-97572068D01*
X201536589Y-97684010D01*
X201293368Y-97846525D01*
X201086525Y-98053368D01*
X200970000Y-98227760D01*
X200853475Y-98053368D01*
X200687454Y-97887347D01*
X203885989Y-94688813D01*
X203980820Y-94739502D01*
X204100518Y-94775812D01*
X204225000Y-94788072D01*
X205675000Y-94788072D01*
X205799482Y-94775812D01*
X205919180Y-94739502D01*
X206029494Y-94680537D01*
X206126185Y-94601185D01*
X206205537Y-94504494D01*
X206264502Y-94394180D01*
X206300812Y-94274482D01*
X206313072Y-94150000D01*
X206313072Y-93700000D01*
X206303223Y-93600000D01*
X206313072Y-93500000D01*
X206313072Y-93050000D01*
X206302905Y-92946773D01*
X206310000Y-92881750D01*
X206277753Y-92849503D01*
X206264502Y-92805820D01*
X206235735Y-92752002D01*
X206310000Y-92752002D01*
X206310000Y-92735000D01*
X206436466Y-92735000D01*
X206449773Y-92801898D01*
G36*
X199177000Y-92122000D02*
G01*
X198923000Y-92122000D01*
X198923000Y-91828000D01*
X199177000Y-91828000D01*
X199177000Y-92122000D01*
G37*
X199177000Y-92122000D02*
X198923000Y-92122000D01*
X198923000Y-91828000D01*
X199177000Y-91828000D01*
X199177000Y-92122000D01*
G36*
X207409999Y-91393964D02*
G01*
X207344275Y-91340026D01*
X207212246Y-91269454D01*
X207085919Y-91231134D01*
X207240256Y-91167205D01*
X207409774Y-91053937D01*
X207409999Y-91053712D01*
X207409999Y-91393964D01*
G37*
X207409999Y-91393964D02*
X207344275Y-91340026D01*
X207212246Y-91269454D01*
X207085919Y-91231134D01*
X207240256Y-91167205D01*
X207409774Y-91053937D01*
X207409999Y-91053712D01*
X207409999Y-91393964D01*
M02*
