G04 #@! TF.GenerationSoftware,KiCad,Pcbnew,(5.1.5-0)*
G04 #@! TF.CreationDate,2020-02-09T15:42:12-07:00*
G04 #@! TF.ProjectId,dac_proto,6461635f-7072-46f7-946f-2e6b69636164,rev?*
G04 #@! TF.SameCoordinates,Original*
G04 #@! TF.FileFunction,Soldermask,Bot*
G04 #@! TF.FilePolarity,Negative*
%FSLAX46Y46*%
G04 Gerber Fmt 4.6, Leading zero omitted, Abs format (unit mm)*
G04 Created by KiCad (PCBNEW (5.1.5-0)) date 2020-02-09 15:42:12*
%MOMM*%
%LPD*%
G04 APERTURE LIST*
%ADD10C,0.100000*%
G04 APERTURE END LIST*
D10*
G36*
X209973512Y-98103927D02*
G01*
X210122812Y-98133624D01*
X210286784Y-98201544D01*
X210434354Y-98300147D01*
X210559853Y-98425646D01*
X210658456Y-98573216D01*
X210726376Y-98737188D01*
X210761000Y-98911259D01*
X210761000Y-99088741D01*
X210726376Y-99262812D01*
X210658456Y-99426784D01*
X210559853Y-99574354D01*
X210434354Y-99699853D01*
X210286784Y-99798456D01*
X210122812Y-99866376D01*
X209973512Y-99896073D01*
X209948742Y-99901000D01*
X209771258Y-99901000D01*
X209746488Y-99896073D01*
X209597188Y-99866376D01*
X209433216Y-99798456D01*
X209285646Y-99699853D01*
X209160147Y-99574354D01*
X209061544Y-99426784D01*
X208993624Y-99262812D01*
X208959000Y-99088741D01*
X208959000Y-98911259D01*
X208993624Y-98737188D01*
X209061544Y-98573216D01*
X209160147Y-98425646D01*
X209285646Y-98300147D01*
X209433216Y-98201544D01*
X209597188Y-98133624D01*
X209746488Y-98103927D01*
X209771258Y-98099000D01*
X209948742Y-98099000D01*
X209973512Y-98103927D01*
G37*
G36*
X207433512Y-98103927D02*
G01*
X207582812Y-98133624D01*
X207746784Y-98201544D01*
X207894354Y-98300147D01*
X208019853Y-98425646D01*
X208118456Y-98573216D01*
X208186376Y-98737188D01*
X208221000Y-98911259D01*
X208221000Y-99088741D01*
X208186376Y-99262812D01*
X208118456Y-99426784D01*
X208019853Y-99574354D01*
X207894354Y-99699853D01*
X207746784Y-99798456D01*
X207582812Y-99866376D01*
X207433512Y-99896073D01*
X207408742Y-99901000D01*
X207231258Y-99901000D01*
X207206488Y-99896073D01*
X207057188Y-99866376D01*
X206893216Y-99798456D01*
X206745646Y-99699853D01*
X206620147Y-99574354D01*
X206521544Y-99426784D01*
X206453624Y-99262812D01*
X206419000Y-99088741D01*
X206419000Y-98911259D01*
X206453624Y-98737188D01*
X206521544Y-98573216D01*
X206620147Y-98425646D01*
X206745646Y-98300147D01*
X206893216Y-98201544D01*
X207057188Y-98133624D01*
X207206488Y-98103927D01*
X207231258Y-98099000D01*
X207408742Y-98099000D01*
X207433512Y-98103927D01*
G37*
G36*
X204893512Y-98103927D02*
G01*
X205042812Y-98133624D01*
X205206784Y-98201544D01*
X205354354Y-98300147D01*
X205479853Y-98425646D01*
X205578456Y-98573216D01*
X205646376Y-98737188D01*
X205681000Y-98911259D01*
X205681000Y-99088741D01*
X205646376Y-99262812D01*
X205578456Y-99426784D01*
X205479853Y-99574354D01*
X205354354Y-99699853D01*
X205206784Y-99798456D01*
X205042812Y-99866376D01*
X204893512Y-99896073D01*
X204868742Y-99901000D01*
X204691258Y-99901000D01*
X204666488Y-99896073D01*
X204517188Y-99866376D01*
X204353216Y-99798456D01*
X204205646Y-99699853D01*
X204080147Y-99574354D01*
X203981544Y-99426784D01*
X203913624Y-99262812D01*
X203879000Y-99088741D01*
X203879000Y-98911259D01*
X203913624Y-98737188D01*
X203981544Y-98573216D01*
X204080147Y-98425646D01*
X204205646Y-98300147D01*
X204353216Y-98201544D01*
X204517188Y-98133624D01*
X204666488Y-98103927D01*
X204691258Y-98099000D01*
X204868742Y-98099000D01*
X204893512Y-98103927D01*
G37*
G36*
X202353512Y-98103927D02*
G01*
X202502812Y-98133624D01*
X202666784Y-98201544D01*
X202814354Y-98300147D01*
X202939853Y-98425646D01*
X203038456Y-98573216D01*
X203106376Y-98737188D01*
X203141000Y-98911259D01*
X203141000Y-99088741D01*
X203106376Y-99262812D01*
X203038456Y-99426784D01*
X202939853Y-99574354D01*
X202814354Y-99699853D01*
X202666784Y-99798456D01*
X202502812Y-99866376D01*
X202353512Y-99896073D01*
X202328742Y-99901000D01*
X202151258Y-99901000D01*
X202126488Y-99896073D01*
X201977188Y-99866376D01*
X201813216Y-99798456D01*
X201665646Y-99699853D01*
X201540147Y-99574354D01*
X201441544Y-99426784D01*
X201373624Y-99262812D01*
X201339000Y-99088741D01*
X201339000Y-98911259D01*
X201373624Y-98737188D01*
X201441544Y-98573216D01*
X201540147Y-98425646D01*
X201665646Y-98300147D01*
X201813216Y-98201544D01*
X201977188Y-98133624D01*
X202126488Y-98103927D01*
X202151258Y-98099000D01*
X202328742Y-98099000D01*
X202353512Y-98103927D01*
G37*
G36*
X199813512Y-98103927D02*
G01*
X199962812Y-98133624D01*
X200126784Y-98201544D01*
X200274354Y-98300147D01*
X200399853Y-98425646D01*
X200498456Y-98573216D01*
X200566376Y-98737188D01*
X200601000Y-98911259D01*
X200601000Y-99088741D01*
X200566376Y-99262812D01*
X200498456Y-99426784D01*
X200399853Y-99574354D01*
X200274354Y-99699853D01*
X200126784Y-99798456D01*
X199962812Y-99866376D01*
X199813512Y-99896073D01*
X199788742Y-99901000D01*
X199611258Y-99901000D01*
X199586488Y-99896073D01*
X199437188Y-99866376D01*
X199273216Y-99798456D01*
X199125646Y-99699853D01*
X199000147Y-99574354D01*
X198901544Y-99426784D01*
X198833624Y-99262812D01*
X198799000Y-99088741D01*
X198799000Y-98911259D01*
X198833624Y-98737188D01*
X198901544Y-98573216D01*
X199000147Y-98425646D01*
X199125646Y-98300147D01*
X199273216Y-98201544D01*
X199437188Y-98133624D01*
X199586488Y-98103927D01*
X199611258Y-98099000D01*
X199788742Y-98099000D01*
X199813512Y-98103927D01*
G37*
G36*
X197273512Y-98103927D02*
G01*
X197422812Y-98133624D01*
X197586784Y-98201544D01*
X197734354Y-98300147D01*
X197859853Y-98425646D01*
X197958456Y-98573216D01*
X198026376Y-98737188D01*
X198061000Y-98911259D01*
X198061000Y-99088741D01*
X198026376Y-99262812D01*
X197958456Y-99426784D01*
X197859853Y-99574354D01*
X197734354Y-99699853D01*
X197586784Y-99798456D01*
X197422812Y-99866376D01*
X197273512Y-99896073D01*
X197248742Y-99901000D01*
X197071258Y-99901000D01*
X197046488Y-99896073D01*
X196897188Y-99866376D01*
X196733216Y-99798456D01*
X196585646Y-99699853D01*
X196460147Y-99574354D01*
X196361544Y-99426784D01*
X196293624Y-99262812D01*
X196259000Y-99088741D01*
X196259000Y-98911259D01*
X196293624Y-98737188D01*
X196361544Y-98573216D01*
X196460147Y-98425646D01*
X196585646Y-98300147D01*
X196733216Y-98201544D01*
X196897188Y-98133624D01*
X197046488Y-98103927D01*
X197071258Y-98099000D01*
X197248742Y-98099000D01*
X197273512Y-98103927D01*
G37*
G36*
X194733512Y-98103927D02*
G01*
X194882812Y-98133624D01*
X195046784Y-98201544D01*
X195194354Y-98300147D01*
X195319853Y-98425646D01*
X195418456Y-98573216D01*
X195486376Y-98737188D01*
X195521000Y-98911259D01*
X195521000Y-99088741D01*
X195486376Y-99262812D01*
X195418456Y-99426784D01*
X195319853Y-99574354D01*
X195194354Y-99699853D01*
X195046784Y-99798456D01*
X194882812Y-99866376D01*
X194733512Y-99896073D01*
X194708742Y-99901000D01*
X194531258Y-99901000D01*
X194506488Y-99896073D01*
X194357188Y-99866376D01*
X194193216Y-99798456D01*
X194045646Y-99699853D01*
X193920147Y-99574354D01*
X193821544Y-99426784D01*
X193753624Y-99262812D01*
X193719000Y-99088741D01*
X193719000Y-98911259D01*
X193753624Y-98737188D01*
X193821544Y-98573216D01*
X193920147Y-98425646D01*
X194045646Y-98300147D01*
X194193216Y-98201544D01*
X194357188Y-98133624D01*
X194506488Y-98103927D01*
X194531258Y-98099000D01*
X194708742Y-98099000D01*
X194733512Y-98103927D01*
G37*
G36*
X192193512Y-98103927D02*
G01*
X192342812Y-98133624D01*
X192506784Y-98201544D01*
X192654354Y-98300147D01*
X192779853Y-98425646D01*
X192878456Y-98573216D01*
X192946376Y-98737188D01*
X192981000Y-98911259D01*
X192981000Y-99088741D01*
X192946376Y-99262812D01*
X192878456Y-99426784D01*
X192779853Y-99574354D01*
X192654354Y-99699853D01*
X192506784Y-99798456D01*
X192342812Y-99866376D01*
X192193512Y-99896073D01*
X192168742Y-99901000D01*
X191991258Y-99901000D01*
X191966488Y-99896073D01*
X191817188Y-99866376D01*
X191653216Y-99798456D01*
X191505646Y-99699853D01*
X191380147Y-99574354D01*
X191281544Y-99426784D01*
X191213624Y-99262812D01*
X191179000Y-99088741D01*
X191179000Y-98911259D01*
X191213624Y-98737188D01*
X191281544Y-98573216D01*
X191380147Y-98425646D01*
X191505646Y-98300147D01*
X191653216Y-98201544D01*
X191817188Y-98133624D01*
X191966488Y-98103927D01*
X191991258Y-98099000D01*
X192168742Y-98099000D01*
X192193512Y-98103927D01*
G37*
G36*
X189653512Y-98103927D02*
G01*
X189802812Y-98133624D01*
X189966784Y-98201544D01*
X190114354Y-98300147D01*
X190239853Y-98425646D01*
X190338456Y-98573216D01*
X190406376Y-98737188D01*
X190441000Y-98911259D01*
X190441000Y-99088741D01*
X190406376Y-99262812D01*
X190338456Y-99426784D01*
X190239853Y-99574354D01*
X190114354Y-99699853D01*
X189966784Y-99798456D01*
X189802812Y-99866376D01*
X189653512Y-99896073D01*
X189628742Y-99901000D01*
X189451258Y-99901000D01*
X189426488Y-99896073D01*
X189277188Y-99866376D01*
X189113216Y-99798456D01*
X188965646Y-99699853D01*
X188840147Y-99574354D01*
X188741544Y-99426784D01*
X188673624Y-99262812D01*
X188639000Y-99088741D01*
X188639000Y-98911259D01*
X188673624Y-98737188D01*
X188741544Y-98573216D01*
X188840147Y-98425646D01*
X188965646Y-98300147D01*
X189113216Y-98201544D01*
X189277188Y-98133624D01*
X189426488Y-98103927D01*
X189451258Y-98099000D01*
X189628742Y-98099000D01*
X189653512Y-98103927D01*
G37*
G36*
X187901000Y-99901000D02*
G01*
X186099000Y-99901000D01*
X186099000Y-98099000D01*
X187901000Y-98099000D01*
X187901000Y-99901000D01*
G37*
G36*
X206351000Y-83351000D02*
G01*
X203649000Y-83351000D01*
X203649000Y-80649000D01*
X206351000Y-80649000D01*
X206351000Y-83351000D01*
G37*
G36*
X205394072Y-75620918D02*
G01*
X205639939Y-75722759D01*
X205861212Y-75870610D01*
X206049390Y-76058788D01*
X206197241Y-76280061D01*
X206299082Y-76525928D01*
X206351000Y-76786938D01*
X206351000Y-77053062D01*
X206299082Y-77314072D01*
X206197241Y-77559939D01*
X206049390Y-77781212D01*
X205861212Y-77969390D01*
X205639939Y-78117241D01*
X205639938Y-78117242D01*
X205639937Y-78117242D01*
X205394072Y-78219082D01*
X205133063Y-78271000D01*
X204866937Y-78271000D01*
X204605928Y-78219082D01*
X204360063Y-78117242D01*
X204360062Y-78117242D01*
X204360061Y-78117241D01*
X204138788Y-77969390D01*
X203950610Y-77781212D01*
X203802759Y-77559939D01*
X203700918Y-77314072D01*
X203649000Y-77053062D01*
X203649000Y-76786938D01*
X203700918Y-76525928D01*
X203802759Y-76280061D01*
X203950610Y-76058788D01*
X204138788Y-75870610D01*
X204360061Y-75722759D01*
X204605928Y-75620918D01*
X204866937Y-75569000D01*
X205133063Y-75569000D01*
X205394072Y-75620918D01*
G37*
M02*
