M48
; DRILL file {KiCad (5.1.5-0)} date Sunday, February 09, 2020 at 03:32:54 PM
; FORMAT={-:-/ absolute / inch / decimal}
; #@! TF.CreationDate,2020-02-09T15:32:54-07:00
; #@! TF.GenerationSoftware,Kicad,Pcbnew,(5.1.5-0)
FMAT,2
INCH
T1C0.0157
T2C0.0394
T3C0.0512
%
G90
G05
T1
X7.1654Y-3.8386
X7.1654Y-3.8878
X7.4213Y-3.3957
X7.7461Y-3.4941
X7.7461Y-3.6614
X7.7461Y-3.7008
X7.7756Y-3.4646
X7.9134Y-3.3957
X8.1398Y-3.5531
X8.1398Y-3.7008
X8.1594Y-3.5925
X8.1671Y-3.6417
T2
X7.3622Y-3.8976
X7.4622Y-3.8976
X7.5622Y-3.8976
X7.6622Y-3.8976
X7.7622Y-3.8976
X7.8622Y-3.8976
X7.9622Y-3.8976
X8.0622Y-3.8976
X8.1622Y-3.8976
X8.2622Y-3.8976
T3
X8.0709Y-3.0283
X8.0709Y-3.2283
T0
M30
