G04 #@! TF.GenerationSoftware,KiCad,Pcbnew,(5.1.5-0)*
G04 #@! TF.CreationDate,2020-12-28T17:14:56-07:00*
G04 #@! TF.ProjectId,back_v2,6261636b-5f76-4322-9e6b-696361645f70,rev?*
G04 #@! TF.SameCoordinates,Original*
G04 #@! TF.FileFunction,Paste,Top*
G04 #@! TF.FilePolarity,Positive*
%FSLAX46Y46*%
G04 Gerber Fmt 4.6, Leading zero omitted, Abs format (unit mm)*
G04 Created by KiCad (PCBNEW (5.1.5-0)) date 2020-12-28 17:14:56*
%MOMM*%
%LPD*%
G04 APERTURE LIST*
%ADD10C,0.100000*%
G04 APERTURE END LIST*
D10*
G36*
X139360779Y-114551144D02*
G01*
X139383834Y-114554563D01*
X139406443Y-114560227D01*
X139428387Y-114568079D01*
X139449457Y-114578044D01*
X139469448Y-114590026D01*
X139488168Y-114603910D01*
X139505438Y-114619562D01*
X139521090Y-114636832D01*
X139534974Y-114655552D01*
X139546956Y-114675543D01*
X139556921Y-114696613D01*
X139564773Y-114718557D01*
X139570437Y-114741166D01*
X139573856Y-114764221D01*
X139575000Y-114787500D01*
X139575000Y-115362500D01*
X139573856Y-115385779D01*
X139570437Y-115408834D01*
X139564773Y-115431443D01*
X139556921Y-115453387D01*
X139546956Y-115474457D01*
X139534974Y-115494448D01*
X139521090Y-115513168D01*
X139505438Y-115530438D01*
X139488168Y-115546090D01*
X139469448Y-115559974D01*
X139449457Y-115571956D01*
X139428387Y-115581921D01*
X139406443Y-115589773D01*
X139383834Y-115595437D01*
X139360779Y-115598856D01*
X139337500Y-115600000D01*
X138862500Y-115600000D01*
X138839221Y-115598856D01*
X138816166Y-115595437D01*
X138793557Y-115589773D01*
X138771613Y-115581921D01*
X138750543Y-115571956D01*
X138730552Y-115559974D01*
X138711832Y-115546090D01*
X138694562Y-115530438D01*
X138678910Y-115513168D01*
X138665026Y-115494448D01*
X138653044Y-115474457D01*
X138643079Y-115453387D01*
X138635227Y-115431443D01*
X138629563Y-115408834D01*
X138626144Y-115385779D01*
X138625000Y-115362500D01*
X138625000Y-114787500D01*
X138626144Y-114764221D01*
X138629563Y-114741166D01*
X138635227Y-114718557D01*
X138643079Y-114696613D01*
X138653044Y-114675543D01*
X138665026Y-114655552D01*
X138678910Y-114636832D01*
X138694562Y-114619562D01*
X138711832Y-114603910D01*
X138730552Y-114590026D01*
X138750543Y-114578044D01*
X138771613Y-114568079D01*
X138793557Y-114560227D01*
X138816166Y-114554563D01*
X138839221Y-114551144D01*
X138862500Y-114550000D01*
X139337500Y-114550000D01*
X139360779Y-114551144D01*
G37*
G36*
X139360779Y-112801144D02*
G01*
X139383834Y-112804563D01*
X139406443Y-112810227D01*
X139428387Y-112818079D01*
X139449457Y-112828044D01*
X139469448Y-112840026D01*
X139488168Y-112853910D01*
X139505438Y-112869562D01*
X139521090Y-112886832D01*
X139534974Y-112905552D01*
X139546956Y-112925543D01*
X139556921Y-112946613D01*
X139564773Y-112968557D01*
X139570437Y-112991166D01*
X139573856Y-113014221D01*
X139575000Y-113037500D01*
X139575000Y-113612500D01*
X139573856Y-113635779D01*
X139570437Y-113658834D01*
X139564773Y-113681443D01*
X139556921Y-113703387D01*
X139546956Y-113724457D01*
X139534974Y-113744448D01*
X139521090Y-113763168D01*
X139505438Y-113780438D01*
X139488168Y-113796090D01*
X139469448Y-113809974D01*
X139449457Y-113821956D01*
X139428387Y-113831921D01*
X139406443Y-113839773D01*
X139383834Y-113845437D01*
X139360779Y-113848856D01*
X139337500Y-113850000D01*
X138862500Y-113850000D01*
X138839221Y-113848856D01*
X138816166Y-113845437D01*
X138793557Y-113839773D01*
X138771613Y-113831921D01*
X138750543Y-113821956D01*
X138730552Y-113809974D01*
X138711832Y-113796090D01*
X138694562Y-113780438D01*
X138678910Y-113763168D01*
X138665026Y-113744448D01*
X138653044Y-113724457D01*
X138643079Y-113703387D01*
X138635227Y-113681443D01*
X138629563Y-113658834D01*
X138626144Y-113635779D01*
X138625000Y-113612500D01*
X138625000Y-113037500D01*
X138626144Y-113014221D01*
X138629563Y-112991166D01*
X138635227Y-112968557D01*
X138643079Y-112946613D01*
X138653044Y-112925543D01*
X138665026Y-112905552D01*
X138678910Y-112886832D01*
X138694562Y-112869562D01*
X138711832Y-112853910D01*
X138730552Y-112840026D01*
X138750543Y-112828044D01*
X138771613Y-112818079D01*
X138793557Y-112810227D01*
X138816166Y-112804563D01*
X138839221Y-112801144D01*
X138862500Y-112800000D01*
X139337500Y-112800000D01*
X139360779Y-112801144D01*
G37*
G36*
X145035779Y-110976144D02*
G01*
X145058834Y-110979563D01*
X145081443Y-110985227D01*
X145103387Y-110993079D01*
X145124457Y-111003044D01*
X145144448Y-111015026D01*
X145163168Y-111028910D01*
X145180438Y-111044562D01*
X145196090Y-111061832D01*
X145209974Y-111080552D01*
X145221956Y-111100543D01*
X145231921Y-111121613D01*
X145239773Y-111143557D01*
X145245437Y-111166166D01*
X145248856Y-111189221D01*
X145250000Y-111212500D01*
X145250000Y-111787500D01*
X145248856Y-111810779D01*
X145245437Y-111833834D01*
X145239773Y-111856443D01*
X145231921Y-111878387D01*
X145221956Y-111899457D01*
X145209974Y-111919448D01*
X145196090Y-111938168D01*
X145180438Y-111955438D01*
X145163168Y-111971090D01*
X145144448Y-111984974D01*
X145124457Y-111996956D01*
X145103387Y-112006921D01*
X145081443Y-112014773D01*
X145058834Y-112020437D01*
X145035779Y-112023856D01*
X145012500Y-112025000D01*
X144537500Y-112025000D01*
X144514221Y-112023856D01*
X144491166Y-112020437D01*
X144468557Y-112014773D01*
X144446613Y-112006921D01*
X144425543Y-111996956D01*
X144405552Y-111984974D01*
X144386832Y-111971090D01*
X144369562Y-111955438D01*
X144353910Y-111938168D01*
X144340026Y-111919448D01*
X144328044Y-111899457D01*
X144318079Y-111878387D01*
X144310227Y-111856443D01*
X144304563Y-111833834D01*
X144301144Y-111810779D01*
X144300000Y-111787500D01*
X144300000Y-111212500D01*
X144301144Y-111189221D01*
X144304563Y-111166166D01*
X144310227Y-111143557D01*
X144318079Y-111121613D01*
X144328044Y-111100543D01*
X144340026Y-111080552D01*
X144353910Y-111061832D01*
X144369562Y-111044562D01*
X144386832Y-111028910D01*
X144405552Y-111015026D01*
X144425543Y-111003044D01*
X144446613Y-110993079D01*
X144468557Y-110985227D01*
X144491166Y-110979563D01*
X144514221Y-110976144D01*
X144537500Y-110975000D01*
X145012500Y-110975000D01*
X145035779Y-110976144D01*
G37*
G36*
X145035779Y-109226144D02*
G01*
X145058834Y-109229563D01*
X145081443Y-109235227D01*
X145103387Y-109243079D01*
X145124457Y-109253044D01*
X145144448Y-109265026D01*
X145163168Y-109278910D01*
X145180438Y-109294562D01*
X145196090Y-109311832D01*
X145209974Y-109330552D01*
X145221956Y-109350543D01*
X145231921Y-109371613D01*
X145239773Y-109393557D01*
X145245437Y-109416166D01*
X145248856Y-109439221D01*
X145250000Y-109462500D01*
X145250000Y-110037500D01*
X145248856Y-110060779D01*
X145245437Y-110083834D01*
X145239773Y-110106443D01*
X145231921Y-110128387D01*
X145221956Y-110149457D01*
X145209974Y-110169448D01*
X145196090Y-110188168D01*
X145180438Y-110205438D01*
X145163168Y-110221090D01*
X145144448Y-110234974D01*
X145124457Y-110246956D01*
X145103387Y-110256921D01*
X145081443Y-110264773D01*
X145058834Y-110270437D01*
X145035779Y-110273856D01*
X145012500Y-110275000D01*
X144537500Y-110275000D01*
X144514221Y-110273856D01*
X144491166Y-110270437D01*
X144468557Y-110264773D01*
X144446613Y-110256921D01*
X144425543Y-110246956D01*
X144405552Y-110234974D01*
X144386832Y-110221090D01*
X144369562Y-110205438D01*
X144353910Y-110188168D01*
X144340026Y-110169448D01*
X144328044Y-110149457D01*
X144318079Y-110128387D01*
X144310227Y-110106443D01*
X144304563Y-110083834D01*
X144301144Y-110060779D01*
X144300000Y-110037500D01*
X144300000Y-109462500D01*
X144301144Y-109439221D01*
X144304563Y-109416166D01*
X144310227Y-109393557D01*
X144318079Y-109371613D01*
X144328044Y-109350543D01*
X144340026Y-109330552D01*
X144353910Y-109311832D01*
X144369562Y-109294562D01*
X144386832Y-109278910D01*
X144405552Y-109265026D01*
X144425543Y-109253044D01*
X144446613Y-109243079D01*
X144468557Y-109235227D01*
X144491166Y-109229563D01*
X144514221Y-109226144D01*
X144537500Y-109225000D01*
X145012500Y-109225000D01*
X145035779Y-109226144D01*
G37*
G36*
X131374505Y-99701204D02*
G01*
X131398773Y-99704804D01*
X131422572Y-99710765D01*
X131445671Y-99719030D01*
X131467850Y-99729520D01*
X131488893Y-99742132D01*
X131508599Y-99756747D01*
X131526777Y-99773223D01*
X131543253Y-99791401D01*
X131557868Y-99811107D01*
X131570480Y-99832150D01*
X131580970Y-99854329D01*
X131589235Y-99877428D01*
X131595196Y-99901227D01*
X131598796Y-99925495D01*
X131600000Y-99949999D01*
X131600000Y-101250001D01*
X131598796Y-101274505D01*
X131595196Y-101298773D01*
X131589235Y-101322572D01*
X131580970Y-101345671D01*
X131570480Y-101367850D01*
X131557868Y-101388893D01*
X131543253Y-101408599D01*
X131526777Y-101426777D01*
X131508599Y-101443253D01*
X131488893Y-101457868D01*
X131467850Y-101470480D01*
X131445671Y-101480970D01*
X131422572Y-101489235D01*
X131398773Y-101495196D01*
X131374505Y-101498796D01*
X131350001Y-101500000D01*
X130649999Y-101500000D01*
X130625495Y-101498796D01*
X130601227Y-101495196D01*
X130577428Y-101489235D01*
X130554329Y-101480970D01*
X130532150Y-101470480D01*
X130511107Y-101457868D01*
X130491401Y-101443253D01*
X130473223Y-101426777D01*
X130456747Y-101408599D01*
X130442132Y-101388893D01*
X130429520Y-101367850D01*
X130419030Y-101345671D01*
X130410765Y-101322572D01*
X130404804Y-101298773D01*
X130401204Y-101274505D01*
X130400000Y-101250001D01*
X130400000Y-99949999D01*
X130401204Y-99925495D01*
X130404804Y-99901227D01*
X130410765Y-99877428D01*
X130419030Y-99854329D01*
X130429520Y-99832150D01*
X130442132Y-99811107D01*
X130456747Y-99791401D01*
X130473223Y-99773223D01*
X130491401Y-99756747D01*
X130511107Y-99742132D01*
X130532150Y-99729520D01*
X130554329Y-99719030D01*
X130577428Y-99710765D01*
X130601227Y-99704804D01*
X130625495Y-99701204D01*
X130649999Y-99700000D01*
X131350001Y-99700000D01*
X131374505Y-99701204D01*
G37*
G36*
X125774505Y-99701204D02*
G01*
X125798773Y-99704804D01*
X125822572Y-99710765D01*
X125845671Y-99719030D01*
X125867850Y-99729520D01*
X125888893Y-99742132D01*
X125908599Y-99756747D01*
X125926777Y-99773223D01*
X125943253Y-99791401D01*
X125957868Y-99811107D01*
X125970480Y-99832150D01*
X125980970Y-99854329D01*
X125989235Y-99877428D01*
X125995196Y-99901227D01*
X125998796Y-99925495D01*
X126000000Y-99949999D01*
X126000000Y-101250001D01*
X125998796Y-101274505D01*
X125995196Y-101298773D01*
X125989235Y-101322572D01*
X125980970Y-101345671D01*
X125970480Y-101367850D01*
X125957868Y-101388893D01*
X125943253Y-101408599D01*
X125926777Y-101426777D01*
X125908599Y-101443253D01*
X125888893Y-101457868D01*
X125867850Y-101470480D01*
X125845671Y-101480970D01*
X125822572Y-101489235D01*
X125798773Y-101495196D01*
X125774505Y-101498796D01*
X125750001Y-101500000D01*
X125049999Y-101500000D01*
X125025495Y-101498796D01*
X125001227Y-101495196D01*
X124977428Y-101489235D01*
X124954329Y-101480970D01*
X124932150Y-101470480D01*
X124911107Y-101457868D01*
X124891401Y-101443253D01*
X124873223Y-101426777D01*
X124856747Y-101408599D01*
X124842132Y-101388893D01*
X124829520Y-101367850D01*
X124819030Y-101345671D01*
X124810765Y-101322572D01*
X124804804Y-101298773D01*
X124801204Y-101274505D01*
X124800000Y-101250001D01*
X124800000Y-99949999D01*
X124801204Y-99925495D01*
X124804804Y-99901227D01*
X124810765Y-99877428D01*
X124819030Y-99854329D01*
X124829520Y-99832150D01*
X124842132Y-99811107D01*
X124856747Y-99791401D01*
X124873223Y-99773223D01*
X124891401Y-99756747D01*
X124911107Y-99742132D01*
X124932150Y-99729520D01*
X124954329Y-99719030D01*
X124977428Y-99710765D01*
X125001227Y-99704804D01*
X125025495Y-99701204D01*
X125049999Y-99700000D01*
X125750001Y-99700000D01*
X125774505Y-99701204D01*
G37*
G36*
X129864703Y-102350722D02*
G01*
X129879264Y-102352882D01*
X129893543Y-102356459D01*
X129907403Y-102361418D01*
X129920710Y-102367712D01*
X129933336Y-102375280D01*
X129945159Y-102384048D01*
X129956066Y-102393934D01*
X129965952Y-102404841D01*
X129974720Y-102416664D01*
X129982288Y-102429290D01*
X129988582Y-102442597D01*
X129993541Y-102456457D01*
X129997118Y-102470736D01*
X129999278Y-102485297D01*
X130000000Y-102500000D01*
X130000000Y-103750000D01*
X129999278Y-103764703D01*
X129997118Y-103779264D01*
X129993541Y-103793543D01*
X129988582Y-103807403D01*
X129982288Y-103820710D01*
X129974720Y-103833336D01*
X129965952Y-103845159D01*
X129956066Y-103856066D01*
X129945159Y-103865952D01*
X129933336Y-103874720D01*
X129920710Y-103882288D01*
X129907403Y-103888582D01*
X129893543Y-103893541D01*
X129879264Y-103897118D01*
X129864703Y-103899278D01*
X129850000Y-103900000D01*
X129550000Y-103900000D01*
X129535297Y-103899278D01*
X129520736Y-103897118D01*
X129506457Y-103893541D01*
X129492597Y-103888582D01*
X129479290Y-103882288D01*
X129466664Y-103874720D01*
X129454841Y-103865952D01*
X129443934Y-103856066D01*
X129434048Y-103845159D01*
X129425280Y-103833336D01*
X129417712Y-103820710D01*
X129411418Y-103807403D01*
X129406459Y-103793543D01*
X129402882Y-103779264D01*
X129400722Y-103764703D01*
X129400000Y-103750000D01*
X129400000Y-102500000D01*
X129400722Y-102485297D01*
X129402882Y-102470736D01*
X129406459Y-102456457D01*
X129411418Y-102442597D01*
X129417712Y-102429290D01*
X129425280Y-102416664D01*
X129434048Y-102404841D01*
X129443934Y-102393934D01*
X129454841Y-102384048D01*
X129466664Y-102375280D01*
X129479290Y-102367712D01*
X129492597Y-102361418D01*
X129506457Y-102356459D01*
X129520736Y-102352882D01*
X129535297Y-102350722D01*
X129550000Y-102350000D01*
X129850000Y-102350000D01*
X129864703Y-102350722D01*
G37*
G36*
X128864703Y-102350722D02*
G01*
X128879264Y-102352882D01*
X128893543Y-102356459D01*
X128907403Y-102361418D01*
X128920710Y-102367712D01*
X128933336Y-102375280D01*
X128945159Y-102384048D01*
X128956066Y-102393934D01*
X128965952Y-102404841D01*
X128974720Y-102416664D01*
X128982288Y-102429290D01*
X128988582Y-102442597D01*
X128993541Y-102456457D01*
X128997118Y-102470736D01*
X128999278Y-102485297D01*
X129000000Y-102500000D01*
X129000000Y-103750000D01*
X128999278Y-103764703D01*
X128997118Y-103779264D01*
X128993541Y-103793543D01*
X128988582Y-103807403D01*
X128982288Y-103820710D01*
X128974720Y-103833336D01*
X128965952Y-103845159D01*
X128956066Y-103856066D01*
X128945159Y-103865952D01*
X128933336Y-103874720D01*
X128920710Y-103882288D01*
X128907403Y-103888582D01*
X128893543Y-103893541D01*
X128879264Y-103897118D01*
X128864703Y-103899278D01*
X128850000Y-103900000D01*
X128550000Y-103900000D01*
X128535297Y-103899278D01*
X128520736Y-103897118D01*
X128506457Y-103893541D01*
X128492597Y-103888582D01*
X128479290Y-103882288D01*
X128466664Y-103874720D01*
X128454841Y-103865952D01*
X128443934Y-103856066D01*
X128434048Y-103845159D01*
X128425280Y-103833336D01*
X128417712Y-103820710D01*
X128411418Y-103807403D01*
X128406459Y-103793543D01*
X128402882Y-103779264D01*
X128400722Y-103764703D01*
X128400000Y-103750000D01*
X128400000Y-102500000D01*
X128400722Y-102485297D01*
X128402882Y-102470736D01*
X128406459Y-102456457D01*
X128411418Y-102442597D01*
X128417712Y-102429290D01*
X128425280Y-102416664D01*
X128434048Y-102404841D01*
X128443934Y-102393934D01*
X128454841Y-102384048D01*
X128466664Y-102375280D01*
X128479290Y-102367712D01*
X128492597Y-102361418D01*
X128506457Y-102356459D01*
X128520736Y-102352882D01*
X128535297Y-102350722D01*
X128550000Y-102350000D01*
X128850000Y-102350000D01*
X128864703Y-102350722D01*
G37*
G36*
X127864703Y-102350722D02*
G01*
X127879264Y-102352882D01*
X127893543Y-102356459D01*
X127907403Y-102361418D01*
X127920710Y-102367712D01*
X127933336Y-102375280D01*
X127945159Y-102384048D01*
X127956066Y-102393934D01*
X127965952Y-102404841D01*
X127974720Y-102416664D01*
X127982288Y-102429290D01*
X127988582Y-102442597D01*
X127993541Y-102456457D01*
X127997118Y-102470736D01*
X127999278Y-102485297D01*
X128000000Y-102500000D01*
X128000000Y-103750000D01*
X127999278Y-103764703D01*
X127997118Y-103779264D01*
X127993541Y-103793543D01*
X127988582Y-103807403D01*
X127982288Y-103820710D01*
X127974720Y-103833336D01*
X127965952Y-103845159D01*
X127956066Y-103856066D01*
X127945159Y-103865952D01*
X127933336Y-103874720D01*
X127920710Y-103882288D01*
X127907403Y-103888582D01*
X127893543Y-103893541D01*
X127879264Y-103897118D01*
X127864703Y-103899278D01*
X127850000Y-103900000D01*
X127550000Y-103900000D01*
X127535297Y-103899278D01*
X127520736Y-103897118D01*
X127506457Y-103893541D01*
X127492597Y-103888582D01*
X127479290Y-103882288D01*
X127466664Y-103874720D01*
X127454841Y-103865952D01*
X127443934Y-103856066D01*
X127434048Y-103845159D01*
X127425280Y-103833336D01*
X127417712Y-103820710D01*
X127411418Y-103807403D01*
X127406459Y-103793543D01*
X127402882Y-103779264D01*
X127400722Y-103764703D01*
X127400000Y-103750000D01*
X127400000Y-102500000D01*
X127400722Y-102485297D01*
X127402882Y-102470736D01*
X127406459Y-102456457D01*
X127411418Y-102442597D01*
X127417712Y-102429290D01*
X127425280Y-102416664D01*
X127434048Y-102404841D01*
X127443934Y-102393934D01*
X127454841Y-102384048D01*
X127466664Y-102375280D01*
X127479290Y-102367712D01*
X127492597Y-102361418D01*
X127506457Y-102356459D01*
X127520736Y-102352882D01*
X127535297Y-102350722D01*
X127550000Y-102350000D01*
X127850000Y-102350000D01*
X127864703Y-102350722D01*
G37*
G36*
X126864703Y-102350722D02*
G01*
X126879264Y-102352882D01*
X126893543Y-102356459D01*
X126907403Y-102361418D01*
X126920710Y-102367712D01*
X126933336Y-102375280D01*
X126945159Y-102384048D01*
X126956066Y-102393934D01*
X126965952Y-102404841D01*
X126974720Y-102416664D01*
X126982288Y-102429290D01*
X126988582Y-102442597D01*
X126993541Y-102456457D01*
X126997118Y-102470736D01*
X126999278Y-102485297D01*
X127000000Y-102500000D01*
X127000000Y-103750000D01*
X126999278Y-103764703D01*
X126997118Y-103779264D01*
X126993541Y-103793543D01*
X126988582Y-103807403D01*
X126982288Y-103820710D01*
X126974720Y-103833336D01*
X126965952Y-103845159D01*
X126956066Y-103856066D01*
X126945159Y-103865952D01*
X126933336Y-103874720D01*
X126920710Y-103882288D01*
X126907403Y-103888582D01*
X126893543Y-103893541D01*
X126879264Y-103897118D01*
X126864703Y-103899278D01*
X126850000Y-103900000D01*
X126550000Y-103900000D01*
X126535297Y-103899278D01*
X126520736Y-103897118D01*
X126506457Y-103893541D01*
X126492597Y-103888582D01*
X126479290Y-103882288D01*
X126466664Y-103874720D01*
X126454841Y-103865952D01*
X126443934Y-103856066D01*
X126434048Y-103845159D01*
X126425280Y-103833336D01*
X126417712Y-103820710D01*
X126411418Y-103807403D01*
X126406459Y-103793543D01*
X126402882Y-103779264D01*
X126400722Y-103764703D01*
X126400000Y-103750000D01*
X126400000Y-102500000D01*
X126400722Y-102485297D01*
X126402882Y-102470736D01*
X126406459Y-102456457D01*
X126411418Y-102442597D01*
X126417712Y-102429290D01*
X126425280Y-102416664D01*
X126434048Y-102404841D01*
X126443934Y-102393934D01*
X126454841Y-102384048D01*
X126466664Y-102375280D01*
X126479290Y-102367712D01*
X126492597Y-102361418D01*
X126506457Y-102356459D01*
X126520736Y-102352882D01*
X126535297Y-102350722D01*
X126550000Y-102350000D01*
X126850000Y-102350000D01*
X126864703Y-102350722D01*
G37*
G36*
X149924504Y-104401204D02*
G01*
X149948773Y-104404804D01*
X149972571Y-104410765D01*
X149995671Y-104419030D01*
X150017849Y-104429520D01*
X150038893Y-104442133D01*
X150058598Y-104456747D01*
X150076777Y-104473223D01*
X150093253Y-104491402D01*
X150107867Y-104511107D01*
X150120480Y-104532151D01*
X150130970Y-104554329D01*
X150139235Y-104577429D01*
X150145196Y-104601227D01*
X150148796Y-104625496D01*
X150150000Y-104650000D01*
X150150000Y-105750000D01*
X150148796Y-105774504D01*
X150145196Y-105798773D01*
X150139235Y-105822571D01*
X150130970Y-105845671D01*
X150120480Y-105867849D01*
X150107867Y-105888893D01*
X150093253Y-105908598D01*
X150076777Y-105926777D01*
X150058598Y-105943253D01*
X150038893Y-105957867D01*
X150017849Y-105970480D01*
X149995671Y-105980970D01*
X149972571Y-105989235D01*
X149948773Y-105995196D01*
X149924504Y-105998796D01*
X149900000Y-106000000D01*
X147400000Y-106000000D01*
X147375496Y-105998796D01*
X147351227Y-105995196D01*
X147327429Y-105989235D01*
X147304329Y-105980970D01*
X147282151Y-105970480D01*
X147261107Y-105957867D01*
X147241402Y-105943253D01*
X147223223Y-105926777D01*
X147206747Y-105908598D01*
X147192133Y-105888893D01*
X147179520Y-105867849D01*
X147169030Y-105845671D01*
X147160765Y-105822571D01*
X147154804Y-105798773D01*
X147151204Y-105774504D01*
X147150000Y-105750000D01*
X147150000Y-104650000D01*
X147151204Y-104625496D01*
X147154804Y-104601227D01*
X147160765Y-104577429D01*
X147169030Y-104554329D01*
X147179520Y-104532151D01*
X147192133Y-104511107D01*
X147206747Y-104491402D01*
X147223223Y-104473223D01*
X147241402Y-104456747D01*
X147261107Y-104442133D01*
X147282151Y-104429520D01*
X147304329Y-104419030D01*
X147327429Y-104410765D01*
X147351227Y-104404804D01*
X147375496Y-104401204D01*
X147400000Y-104400000D01*
X149900000Y-104400000D01*
X149924504Y-104401204D01*
G37*
G36*
X149924504Y-115201204D02*
G01*
X149948773Y-115204804D01*
X149972571Y-115210765D01*
X149995671Y-115219030D01*
X150017849Y-115229520D01*
X150038893Y-115242133D01*
X150058598Y-115256747D01*
X150076777Y-115273223D01*
X150093253Y-115291402D01*
X150107867Y-115311107D01*
X150120480Y-115332151D01*
X150130970Y-115354329D01*
X150139235Y-115377429D01*
X150145196Y-115401227D01*
X150148796Y-115425496D01*
X150150000Y-115450000D01*
X150150000Y-116550000D01*
X150148796Y-116574504D01*
X150145196Y-116598773D01*
X150139235Y-116622571D01*
X150130970Y-116645671D01*
X150120480Y-116667849D01*
X150107867Y-116688893D01*
X150093253Y-116708598D01*
X150076777Y-116726777D01*
X150058598Y-116743253D01*
X150038893Y-116757867D01*
X150017849Y-116770480D01*
X149995671Y-116780970D01*
X149972571Y-116789235D01*
X149948773Y-116795196D01*
X149924504Y-116798796D01*
X149900000Y-116800000D01*
X147400000Y-116800000D01*
X147375496Y-116798796D01*
X147351227Y-116795196D01*
X147327429Y-116789235D01*
X147304329Y-116780970D01*
X147282151Y-116770480D01*
X147261107Y-116757867D01*
X147241402Y-116743253D01*
X147223223Y-116726777D01*
X147206747Y-116708598D01*
X147192133Y-116688893D01*
X147179520Y-116667849D01*
X147169030Y-116645671D01*
X147160765Y-116622571D01*
X147154804Y-116598773D01*
X147151204Y-116574504D01*
X147150000Y-116550000D01*
X147150000Y-115450000D01*
X147151204Y-115425496D01*
X147154804Y-115401227D01*
X147160765Y-115377429D01*
X147169030Y-115354329D01*
X147179520Y-115332151D01*
X147192133Y-115311107D01*
X147206747Y-115291402D01*
X147223223Y-115273223D01*
X147241402Y-115256747D01*
X147261107Y-115242133D01*
X147282151Y-115229520D01*
X147304329Y-115219030D01*
X147327429Y-115210765D01*
X147351227Y-115204804D01*
X147375496Y-115201204D01*
X147400000Y-115200000D01*
X149900000Y-115200000D01*
X149924504Y-115201204D01*
G37*
G36*
X153424504Y-107101204D02*
G01*
X153448773Y-107104804D01*
X153472571Y-107110765D01*
X153495671Y-107119030D01*
X153517849Y-107129520D01*
X153538893Y-107142133D01*
X153558598Y-107156747D01*
X153576777Y-107173223D01*
X153593253Y-107191402D01*
X153607867Y-107211107D01*
X153620480Y-107232151D01*
X153630970Y-107254329D01*
X153639235Y-107277429D01*
X153645196Y-107301227D01*
X153648796Y-107325496D01*
X153650000Y-107350000D01*
X153650000Y-107850000D01*
X153648796Y-107874504D01*
X153645196Y-107898773D01*
X153639235Y-107922571D01*
X153630970Y-107945671D01*
X153620480Y-107967849D01*
X153607867Y-107988893D01*
X153593253Y-108008598D01*
X153576777Y-108026777D01*
X153558598Y-108043253D01*
X153538893Y-108057867D01*
X153517849Y-108070480D01*
X153495671Y-108080970D01*
X153472571Y-108089235D01*
X153448773Y-108095196D01*
X153424504Y-108098796D01*
X153400000Y-108100000D01*
X148400000Y-108100000D01*
X148375496Y-108098796D01*
X148351227Y-108095196D01*
X148327429Y-108089235D01*
X148304329Y-108080970D01*
X148282151Y-108070480D01*
X148261107Y-108057867D01*
X148241402Y-108043253D01*
X148223223Y-108026777D01*
X148206747Y-108008598D01*
X148192133Y-107988893D01*
X148179520Y-107967849D01*
X148169030Y-107945671D01*
X148160765Y-107922571D01*
X148154804Y-107898773D01*
X148151204Y-107874504D01*
X148150000Y-107850000D01*
X148150000Y-107350000D01*
X148151204Y-107325496D01*
X148154804Y-107301227D01*
X148160765Y-107277429D01*
X148169030Y-107254329D01*
X148179520Y-107232151D01*
X148192133Y-107211107D01*
X148206747Y-107191402D01*
X148223223Y-107173223D01*
X148241402Y-107156747D01*
X148261107Y-107142133D01*
X148282151Y-107129520D01*
X148304329Y-107119030D01*
X148327429Y-107110765D01*
X148351227Y-107104804D01*
X148375496Y-107101204D01*
X148400000Y-107100000D01*
X153400000Y-107100000D01*
X153424504Y-107101204D01*
G37*
G36*
X153424504Y-109101204D02*
G01*
X153448773Y-109104804D01*
X153472571Y-109110765D01*
X153495671Y-109119030D01*
X153517849Y-109129520D01*
X153538893Y-109142133D01*
X153558598Y-109156747D01*
X153576777Y-109173223D01*
X153593253Y-109191402D01*
X153607867Y-109211107D01*
X153620480Y-109232151D01*
X153630970Y-109254329D01*
X153639235Y-109277429D01*
X153645196Y-109301227D01*
X153648796Y-109325496D01*
X153650000Y-109350000D01*
X153650000Y-109850000D01*
X153648796Y-109874504D01*
X153645196Y-109898773D01*
X153639235Y-109922571D01*
X153630970Y-109945671D01*
X153620480Y-109967849D01*
X153607867Y-109988893D01*
X153593253Y-110008598D01*
X153576777Y-110026777D01*
X153558598Y-110043253D01*
X153538893Y-110057867D01*
X153517849Y-110070480D01*
X153495671Y-110080970D01*
X153472571Y-110089235D01*
X153448773Y-110095196D01*
X153424504Y-110098796D01*
X153400000Y-110100000D01*
X148400000Y-110100000D01*
X148375496Y-110098796D01*
X148351227Y-110095196D01*
X148327429Y-110089235D01*
X148304329Y-110080970D01*
X148282151Y-110070480D01*
X148261107Y-110057867D01*
X148241402Y-110043253D01*
X148223223Y-110026777D01*
X148206747Y-110008598D01*
X148192133Y-109988893D01*
X148179520Y-109967849D01*
X148169030Y-109945671D01*
X148160765Y-109922571D01*
X148154804Y-109898773D01*
X148151204Y-109874504D01*
X148150000Y-109850000D01*
X148150000Y-109350000D01*
X148151204Y-109325496D01*
X148154804Y-109301227D01*
X148160765Y-109277429D01*
X148169030Y-109254329D01*
X148179520Y-109232151D01*
X148192133Y-109211107D01*
X148206747Y-109191402D01*
X148223223Y-109173223D01*
X148241402Y-109156747D01*
X148261107Y-109142133D01*
X148282151Y-109129520D01*
X148304329Y-109119030D01*
X148327429Y-109110765D01*
X148351227Y-109104804D01*
X148375496Y-109101204D01*
X148400000Y-109100000D01*
X153400000Y-109100000D01*
X153424504Y-109101204D01*
G37*
G36*
X153424504Y-111101204D02*
G01*
X153448773Y-111104804D01*
X153472571Y-111110765D01*
X153495671Y-111119030D01*
X153517849Y-111129520D01*
X153538893Y-111142133D01*
X153558598Y-111156747D01*
X153576777Y-111173223D01*
X153593253Y-111191402D01*
X153607867Y-111211107D01*
X153620480Y-111232151D01*
X153630970Y-111254329D01*
X153639235Y-111277429D01*
X153645196Y-111301227D01*
X153648796Y-111325496D01*
X153650000Y-111350000D01*
X153650000Y-111850000D01*
X153648796Y-111874504D01*
X153645196Y-111898773D01*
X153639235Y-111922571D01*
X153630970Y-111945671D01*
X153620480Y-111967849D01*
X153607867Y-111988893D01*
X153593253Y-112008598D01*
X153576777Y-112026777D01*
X153558598Y-112043253D01*
X153538893Y-112057867D01*
X153517849Y-112070480D01*
X153495671Y-112080970D01*
X153472571Y-112089235D01*
X153448773Y-112095196D01*
X153424504Y-112098796D01*
X153400000Y-112100000D01*
X148400000Y-112100000D01*
X148375496Y-112098796D01*
X148351227Y-112095196D01*
X148327429Y-112089235D01*
X148304329Y-112080970D01*
X148282151Y-112070480D01*
X148261107Y-112057867D01*
X148241402Y-112043253D01*
X148223223Y-112026777D01*
X148206747Y-112008598D01*
X148192133Y-111988893D01*
X148179520Y-111967849D01*
X148169030Y-111945671D01*
X148160765Y-111922571D01*
X148154804Y-111898773D01*
X148151204Y-111874504D01*
X148150000Y-111850000D01*
X148150000Y-111350000D01*
X148151204Y-111325496D01*
X148154804Y-111301227D01*
X148160765Y-111277429D01*
X148169030Y-111254329D01*
X148179520Y-111232151D01*
X148192133Y-111211107D01*
X148206747Y-111191402D01*
X148223223Y-111173223D01*
X148241402Y-111156747D01*
X148261107Y-111142133D01*
X148282151Y-111129520D01*
X148304329Y-111119030D01*
X148327429Y-111110765D01*
X148351227Y-111104804D01*
X148375496Y-111101204D01*
X148400000Y-111100000D01*
X153400000Y-111100000D01*
X153424504Y-111101204D01*
G37*
G36*
X153424504Y-113101204D02*
G01*
X153448773Y-113104804D01*
X153472571Y-113110765D01*
X153495671Y-113119030D01*
X153517849Y-113129520D01*
X153538893Y-113142133D01*
X153558598Y-113156747D01*
X153576777Y-113173223D01*
X153593253Y-113191402D01*
X153607867Y-113211107D01*
X153620480Y-113232151D01*
X153630970Y-113254329D01*
X153639235Y-113277429D01*
X153645196Y-113301227D01*
X153648796Y-113325496D01*
X153650000Y-113350000D01*
X153650000Y-113850000D01*
X153648796Y-113874504D01*
X153645196Y-113898773D01*
X153639235Y-113922571D01*
X153630970Y-113945671D01*
X153620480Y-113967849D01*
X153607867Y-113988893D01*
X153593253Y-114008598D01*
X153576777Y-114026777D01*
X153558598Y-114043253D01*
X153538893Y-114057867D01*
X153517849Y-114070480D01*
X153495671Y-114080970D01*
X153472571Y-114089235D01*
X153448773Y-114095196D01*
X153424504Y-114098796D01*
X153400000Y-114100000D01*
X148400000Y-114100000D01*
X148375496Y-114098796D01*
X148351227Y-114095196D01*
X148327429Y-114089235D01*
X148304329Y-114080970D01*
X148282151Y-114070480D01*
X148261107Y-114057867D01*
X148241402Y-114043253D01*
X148223223Y-114026777D01*
X148206747Y-114008598D01*
X148192133Y-113988893D01*
X148179520Y-113967849D01*
X148169030Y-113945671D01*
X148160765Y-113922571D01*
X148154804Y-113898773D01*
X148151204Y-113874504D01*
X148150000Y-113850000D01*
X148150000Y-113350000D01*
X148151204Y-113325496D01*
X148154804Y-113301227D01*
X148160765Y-113277429D01*
X148169030Y-113254329D01*
X148179520Y-113232151D01*
X148192133Y-113211107D01*
X148206747Y-113191402D01*
X148223223Y-113173223D01*
X148241402Y-113156747D01*
X148261107Y-113142133D01*
X148282151Y-113129520D01*
X148304329Y-113119030D01*
X148327429Y-113110765D01*
X148351227Y-113104804D01*
X148375496Y-113101204D01*
X148400000Y-113100000D01*
X153400000Y-113100000D01*
X153424504Y-113101204D01*
G37*
G36*
X143174504Y-118051204D02*
G01*
X143198773Y-118054804D01*
X143222571Y-118060765D01*
X143245671Y-118069030D01*
X143267849Y-118079520D01*
X143288893Y-118092133D01*
X143308598Y-118106747D01*
X143326777Y-118123223D01*
X143343253Y-118141402D01*
X143357867Y-118161107D01*
X143370480Y-118182151D01*
X143380970Y-118204329D01*
X143389235Y-118227429D01*
X143395196Y-118251227D01*
X143398796Y-118275496D01*
X143400000Y-118300000D01*
X143400000Y-120800000D01*
X143398796Y-120824504D01*
X143395196Y-120848773D01*
X143389235Y-120872571D01*
X143380970Y-120895671D01*
X143370480Y-120917849D01*
X143357867Y-120938893D01*
X143343253Y-120958598D01*
X143326777Y-120976777D01*
X143308598Y-120993253D01*
X143288893Y-121007867D01*
X143267849Y-121020480D01*
X143245671Y-121030970D01*
X143222571Y-121039235D01*
X143198773Y-121045196D01*
X143174504Y-121048796D01*
X143150000Y-121050000D01*
X142050000Y-121050000D01*
X142025496Y-121048796D01*
X142001227Y-121045196D01*
X141977429Y-121039235D01*
X141954329Y-121030970D01*
X141932151Y-121020480D01*
X141911107Y-121007867D01*
X141891402Y-120993253D01*
X141873223Y-120976777D01*
X141856747Y-120958598D01*
X141842133Y-120938893D01*
X141829520Y-120917849D01*
X141819030Y-120895671D01*
X141810765Y-120872571D01*
X141804804Y-120848773D01*
X141801204Y-120824504D01*
X141800000Y-120800000D01*
X141800000Y-118300000D01*
X141801204Y-118275496D01*
X141804804Y-118251227D01*
X141810765Y-118227429D01*
X141819030Y-118204329D01*
X141829520Y-118182151D01*
X141842133Y-118161107D01*
X141856747Y-118141402D01*
X141873223Y-118123223D01*
X141891402Y-118106747D01*
X141911107Y-118092133D01*
X141932151Y-118079520D01*
X141954329Y-118069030D01*
X141977429Y-118060765D01*
X142001227Y-118054804D01*
X142025496Y-118051204D01*
X142050000Y-118050000D01*
X143150000Y-118050000D01*
X143174504Y-118051204D01*
G37*
G36*
X136374504Y-118051204D02*
G01*
X136398773Y-118054804D01*
X136422571Y-118060765D01*
X136445671Y-118069030D01*
X136467849Y-118079520D01*
X136488893Y-118092133D01*
X136508598Y-118106747D01*
X136526777Y-118123223D01*
X136543253Y-118141402D01*
X136557867Y-118161107D01*
X136570480Y-118182151D01*
X136580970Y-118204329D01*
X136589235Y-118227429D01*
X136595196Y-118251227D01*
X136598796Y-118275496D01*
X136600000Y-118300000D01*
X136600000Y-120800000D01*
X136598796Y-120824504D01*
X136595196Y-120848773D01*
X136589235Y-120872571D01*
X136580970Y-120895671D01*
X136570480Y-120917849D01*
X136557867Y-120938893D01*
X136543253Y-120958598D01*
X136526777Y-120976777D01*
X136508598Y-120993253D01*
X136488893Y-121007867D01*
X136467849Y-121020480D01*
X136445671Y-121030970D01*
X136422571Y-121039235D01*
X136398773Y-121045196D01*
X136374504Y-121048796D01*
X136350000Y-121050000D01*
X135250000Y-121050000D01*
X135225496Y-121048796D01*
X135201227Y-121045196D01*
X135177429Y-121039235D01*
X135154329Y-121030970D01*
X135132151Y-121020480D01*
X135111107Y-121007867D01*
X135091402Y-120993253D01*
X135073223Y-120976777D01*
X135056747Y-120958598D01*
X135042133Y-120938893D01*
X135029520Y-120917849D01*
X135019030Y-120895671D01*
X135010765Y-120872571D01*
X135004804Y-120848773D01*
X135001204Y-120824504D01*
X135000000Y-120800000D01*
X135000000Y-118300000D01*
X135001204Y-118275496D01*
X135004804Y-118251227D01*
X135010765Y-118227429D01*
X135019030Y-118204329D01*
X135029520Y-118182151D01*
X135042133Y-118161107D01*
X135056747Y-118141402D01*
X135073223Y-118123223D01*
X135091402Y-118106747D01*
X135111107Y-118092133D01*
X135132151Y-118079520D01*
X135154329Y-118069030D01*
X135177429Y-118060765D01*
X135201227Y-118054804D01*
X135225496Y-118051204D01*
X135250000Y-118050000D01*
X136350000Y-118050000D01*
X136374504Y-118051204D01*
G37*
G36*
X140474504Y-119051204D02*
G01*
X140498773Y-119054804D01*
X140522571Y-119060765D01*
X140545671Y-119069030D01*
X140567849Y-119079520D01*
X140588893Y-119092133D01*
X140608598Y-119106747D01*
X140626777Y-119123223D01*
X140643253Y-119141402D01*
X140657867Y-119161107D01*
X140670480Y-119182151D01*
X140680970Y-119204329D01*
X140689235Y-119227429D01*
X140695196Y-119251227D01*
X140698796Y-119275496D01*
X140700000Y-119300000D01*
X140700000Y-124300000D01*
X140698796Y-124324504D01*
X140695196Y-124348773D01*
X140689235Y-124372571D01*
X140680970Y-124395671D01*
X140670480Y-124417849D01*
X140657867Y-124438893D01*
X140643253Y-124458598D01*
X140626777Y-124476777D01*
X140608598Y-124493253D01*
X140588893Y-124507867D01*
X140567849Y-124520480D01*
X140545671Y-124530970D01*
X140522571Y-124539235D01*
X140498773Y-124545196D01*
X140474504Y-124548796D01*
X140450000Y-124550000D01*
X139950000Y-124550000D01*
X139925496Y-124548796D01*
X139901227Y-124545196D01*
X139877429Y-124539235D01*
X139854329Y-124530970D01*
X139832151Y-124520480D01*
X139811107Y-124507867D01*
X139791402Y-124493253D01*
X139773223Y-124476777D01*
X139756747Y-124458598D01*
X139742133Y-124438893D01*
X139729520Y-124417849D01*
X139719030Y-124395671D01*
X139710765Y-124372571D01*
X139704804Y-124348773D01*
X139701204Y-124324504D01*
X139700000Y-124300000D01*
X139700000Y-119300000D01*
X139701204Y-119275496D01*
X139704804Y-119251227D01*
X139710765Y-119227429D01*
X139719030Y-119204329D01*
X139729520Y-119182151D01*
X139742133Y-119161107D01*
X139756747Y-119141402D01*
X139773223Y-119123223D01*
X139791402Y-119106747D01*
X139811107Y-119092133D01*
X139832151Y-119079520D01*
X139854329Y-119069030D01*
X139877429Y-119060765D01*
X139901227Y-119054804D01*
X139925496Y-119051204D01*
X139950000Y-119050000D01*
X140450000Y-119050000D01*
X140474504Y-119051204D01*
G37*
G36*
X138474504Y-119051204D02*
G01*
X138498773Y-119054804D01*
X138522571Y-119060765D01*
X138545671Y-119069030D01*
X138567849Y-119079520D01*
X138588893Y-119092133D01*
X138608598Y-119106747D01*
X138626777Y-119123223D01*
X138643253Y-119141402D01*
X138657867Y-119161107D01*
X138670480Y-119182151D01*
X138680970Y-119204329D01*
X138689235Y-119227429D01*
X138695196Y-119251227D01*
X138698796Y-119275496D01*
X138700000Y-119300000D01*
X138700000Y-124300000D01*
X138698796Y-124324504D01*
X138695196Y-124348773D01*
X138689235Y-124372571D01*
X138680970Y-124395671D01*
X138670480Y-124417849D01*
X138657867Y-124438893D01*
X138643253Y-124458598D01*
X138626777Y-124476777D01*
X138608598Y-124493253D01*
X138588893Y-124507867D01*
X138567849Y-124520480D01*
X138545671Y-124530970D01*
X138522571Y-124539235D01*
X138498773Y-124545196D01*
X138474504Y-124548796D01*
X138450000Y-124550000D01*
X137950000Y-124550000D01*
X137925496Y-124548796D01*
X137901227Y-124545196D01*
X137877429Y-124539235D01*
X137854329Y-124530970D01*
X137832151Y-124520480D01*
X137811107Y-124507867D01*
X137791402Y-124493253D01*
X137773223Y-124476777D01*
X137756747Y-124458598D01*
X137742133Y-124438893D01*
X137729520Y-124417849D01*
X137719030Y-124395671D01*
X137710765Y-124372571D01*
X137704804Y-124348773D01*
X137701204Y-124324504D01*
X137700000Y-124300000D01*
X137700000Y-119300000D01*
X137701204Y-119275496D01*
X137704804Y-119251227D01*
X137710765Y-119227429D01*
X137719030Y-119204329D01*
X137729520Y-119182151D01*
X137742133Y-119161107D01*
X137756747Y-119141402D01*
X137773223Y-119123223D01*
X137791402Y-119106747D01*
X137811107Y-119092133D01*
X137832151Y-119079520D01*
X137854329Y-119069030D01*
X137877429Y-119060765D01*
X137901227Y-119054804D01*
X137925496Y-119051204D01*
X137950000Y-119050000D01*
X138450000Y-119050000D01*
X138474504Y-119051204D01*
G37*
G36*
X136674504Y-101851204D02*
G01*
X136698773Y-101854804D01*
X136722571Y-101860765D01*
X136745671Y-101869030D01*
X136767849Y-101879520D01*
X136788893Y-101892133D01*
X136808598Y-101906747D01*
X136826777Y-101923223D01*
X136843253Y-101941402D01*
X136857867Y-101961107D01*
X136870480Y-101982151D01*
X136880970Y-102004329D01*
X136889235Y-102027429D01*
X136895196Y-102051227D01*
X136898796Y-102075496D01*
X136900000Y-102100000D01*
X136900000Y-104600000D01*
X136898796Y-104624504D01*
X136895196Y-104648773D01*
X136889235Y-104672571D01*
X136880970Y-104695671D01*
X136870480Y-104717849D01*
X136857867Y-104738893D01*
X136843253Y-104758598D01*
X136826777Y-104776777D01*
X136808598Y-104793253D01*
X136788893Y-104807867D01*
X136767849Y-104820480D01*
X136745671Y-104830970D01*
X136722571Y-104839235D01*
X136698773Y-104845196D01*
X136674504Y-104848796D01*
X136650000Y-104850000D01*
X135550000Y-104850000D01*
X135525496Y-104848796D01*
X135501227Y-104845196D01*
X135477429Y-104839235D01*
X135454329Y-104830970D01*
X135432151Y-104820480D01*
X135411107Y-104807867D01*
X135391402Y-104793253D01*
X135373223Y-104776777D01*
X135356747Y-104758598D01*
X135342133Y-104738893D01*
X135329520Y-104717849D01*
X135319030Y-104695671D01*
X135310765Y-104672571D01*
X135304804Y-104648773D01*
X135301204Y-104624504D01*
X135300000Y-104600000D01*
X135300000Y-102100000D01*
X135301204Y-102075496D01*
X135304804Y-102051227D01*
X135310765Y-102027429D01*
X135319030Y-102004329D01*
X135329520Y-101982151D01*
X135342133Y-101961107D01*
X135356747Y-101941402D01*
X135373223Y-101923223D01*
X135391402Y-101906747D01*
X135411107Y-101892133D01*
X135432151Y-101879520D01*
X135454329Y-101869030D01*
X135477429Y-101860765D01*
X135501227Y-101854804D01*
X135525496Y-101851204D01*
X135550000Y-101850000D01*
X136650000Y-101850000D01*
X136674504Y-101851204D01*
G37*
G36*
X143474504Y-101851204D02*
G01*
X143498773Y-101854804D01*
X143522571Y-101860765D01*
X143545671Y-101869030D01*
X143567849Y-101879520D01*
X143588893Y-101892133D01*
X143608598Y-101906747D01*
X143626777Y-101923223D01*
X143643253Y-101941402D01*
X143657867Y-101961107D01*
X143670480Y-101982151D01*
X143680970Y-102004329D01*
X143689235Y-102027429D01*
X143695196Y-102051227D01*
X143698796Y-102075496D01*
X143700000Y-102100000D01*
X143700000Y-104600000D01*
X143698796Y-104624504D01*
X143695196Y-104648773D01*
X143689235Y-104672571D01*
X143680970Y-104695671D01*
X143670480Y-104717849D01*
X143657867Y-104738893D01*
X143643253Y-104758598D01*
X143626777Y-104776777D01*
X143608598Y-104793253D01*
X143588893Y-104807867D01*
X143567849Y-104820480D01*
X143545671Y-104830970D01*
X143522571Y-104839235D01*
X143498773Y-104845196D01*
X143474504Y-104848796D01*
X143450000Y-104850000D01*
X142350000Y-104850000D01*
X142325496Y-104848796D01*
X142301227Y-104845196D01*
X142277429Y-104839235D01*
X142254329Y-104830970D01*
X142232151Y-104820480D01*
X142211107Y-104807867D01*
X142191402Y-104793253D01*
X142173223Y-104776777D01*
X142156747Y-104758598D01*
X142142133Y-104738893D01*
X142129520Y-104717849D01*
X142119030Y-104695671D01*
X142110765Y-104672571D01*
X142104804Y-104648773D01*
X142101204Y-104624504D01*
X142100000Y-104600000D01*
X142100000Y-102100000D01*
X142101204Y-102075496D01*
X142104804Y-102051227D01*
X142110765Y-102027429D01*
X142119030Y-102004329D01*
X142129520Y-101982151D01*
X142142133Y-101961107D01*
X142156747Y-101941402D01*
X142173223Y-101923223D01*
X142191402Y-101906747D01*
X142211107Y-101892133D01*
X142232151Y-101879520D01*
X142254329Y-101869030D01*
X142277429Y-101860765D01*
X142301227Y-101854804D01*
X142325496Y-101851204D01*
X142350000Y-101850000D01*
X143450000Y-101850000D01*
X143474504Y-101851204D01*
G37*
G36*
X138774504Y-98351204D02*
G01*
X138798773Y-98354804D01*
X138822571Y-98360765D01*
X138845671Y-98369030D01*
X138867849Y-98379520D01*
X138888893Y-98392133D01*
X138908598Y-98406747D01*
X138926777Y-98423223D01*
X138943253Y-98441402D01*
X138957867Y-98461107D01*
X138970480Y-98482151D01*
X138980970Y-98504329D01*
X138989235Y-98527429D01*
X138995196Y-98551227D01*
X138998796Y-98575496D01*
X139000000Y-98600000D01*
X139000000Y-103600000D01*
X138998796Y-103624504D01*
X138995196Y-103648773D01*
X138989235Y-103672571D01*
X138980970Y-103695671D01*
X138970480Y-103717849D01*
X138957867Y-103738893D01*
X138943253Y-103758598D01*
X138926777Y-103776777D01*
X138908598Y-103793253D01*
X138888893Y-103807867D01*
X138867849Y-103820480D01*
X138845671Y-103830970D01*
X138822571Y-103839235D01*
X138798773Y-103845196D01*
X138774504Y-103848796D01*
X138750000Y-103850000D01*
X138250000Y-103850000D01*
X138225496Y-103848796D01*
X138201227Y-103845196D01*
X138177429Y-103839235D01*
X138154329Y-103830970D01*
X138132151Y-103820480D01*
X138111107Y-103807867D01*
X138091402Y-103793253D01*
X138073223Y-103776777D01*
X138056747Y-103758598D01*
X138042133Y-103738893D01*
X138029520Y-103717849D01*
X138019030Y-103695671D01*
X138010765Y-103672571D01*
X138004804Y-103648773D01*
X138001204Y-103624504D01*
X138000000Y-103600000D01*
X138000000Y-98600000D01*
X138001204Y-98575496D01*
X138004804Y-98551227D01*
X138010765Y-98527429D01*
X138019030Y-98504329D01*
X138029520Y-98482151D01*
X138042133Y-98461107D01*
X138056747Y-98441402D01*
X138073223Y-98423223D01*
X138091402Y-98406747D01*
X138111107Y-98392133D01*
X138132151Y-98379520D01*
X138154329Y-98369030D01*
X138177429Y-98360765D01*
X138201227Y-98354804D01*
X138225496Y-98351204D01*
X138250000Y-98350000D01*
X138750000Y-98350000D01*
X138774504Y-98351204D01*
G37*
G36*
X140774504Y-98351204D02*
G01*
X140798773Y-98354804D01*
X140822571Y-98360765D01*
X140845671Y-98369030D01*
X140867849Y-98379520D01*
X140888893Y-98392133D01*
X140908598Y-98406747D01*
X140926777Y-98423223D01*
X140943253Y-98441402D01*
X140957867Y-98461107D01*
X140970480Y-98482151D01*
X140980970Y-98504329D01*
X140989235Y-98527429D01*
X140995196Y-98551227D01*
X140998796Y-98575496D01*
X141000000Y-98600000D01*
X141000000Y-103600000D01*
X140998796Y-103624504D01*
X140995196Y-103648773D01*
X140989235Y-103672571D01*
X140980970Y-103695671D01*
X140970480Y-103717849D01*
X140957867Y-103738893D01*
X140943253Y-103758598D01*
X140926777Y-103776777D01*
X140908598Y-103793253D01*
X140888893Y-103807867D01*
X140867849Y-103820480D01*
X140845671Y-103830970D01*
X140822571Y-103839235D01*
X140798773Y-103845196D01*
X140774504Y-103848796D01*
X140750000Y-103850000D01*
X140250000Y-103850000D01*
X140225496Y-103848796D01*
X140201227Y-103845196D01*
X140177429Y-103839235D01*
X140154329Y-103830970D01*
X140132151Y-103820480D01*
X140111107Y-103807867D01*
X140091402Y-103793253D01*
X140073223Y-103776777D01*
X140056747Y-103758598D01*
X140042133Y-103738893D01*
X140029520Y-103717849D01*
X140019030Y-103695671D01*
X140010765Y-103672571D01*
X140004804Y-103648773D01*
X140001204Y-103624504D01*
X140000000Y-103600000D01*
X140000000Y-98600000D01*
X140001204Y-98575496D01*
X140004804Y-98551227D01*
X140010765Y-98527429D01*
X140019030Y-98504329D01*
X140029520Y-98482151D01*
X140042133Y-98461107D01*
X140056747Y-98441402D01*
X140073223Y-98423223D01*
X140091402Y-98406747D01*
X140111107Y-98392133D01*
X140132151Y-98379520D01*
X140154329Y-98369030D01*
X140177429Y-98360765D01*
X140201227Y-98354804D01*
X140225496Y-98351204D01*
X140250000Y-98350000D01*
X140750000Y-98350000D01*
X140774504Y-98351204D01*
G37*
M02*
