G04 #@! TF.GenerationSoftware,KiCad,Pcbnew,(5.1.5-0)*
G04 #@! TF.CreationDate,2020-11-29T11:23:52-07:00*
G04 #@! TF.ProjectId,back_panel,6261636b-5f70-4616-9e65-6c2e6b696361,rev?*
G04 #@! TF.SameCoordinates,Original*
G04 #@! TF.FileFunction,Legend,Top*
G04 #@! TF.FilePolarity,Positive*
%FSLAX46Y46*%
G04 Gerber Fmt 4.6, Leading zero omitted, Abs format (unit mm)*
G04 Created by KiCad (PCBNEW (5.1.5-0)) date 2020-11-29 11:23:52*
%MOMM*%
%LPD*%
G04 APERTURE LIST*
%ADD10C,0.120000*%
%ADD11C,0.150000*%
G04 APERTURE END LIST*
D10*
X114123530Y-108958256D02*
X115022798Y-114058256D01*
X129856470Y-108958256D02*
X128957202Y-114058256D01*
X116657579Y-115430000D02*
X127322421Y-115430000D01*
X115758311Y-107010000D02*
X128221689Y-107010000D01*
X116450000Y-104448675D02*
X116200000Y-104015662D01*
X116700000Y-104015662D02*
X116450000Y-104448675D01*
X116200000Y-104015662D02*
X116700000Y-104015662D01*
X106505000Y-116470000D02*
X106505000Y-105970000D01*
X136415000Y-117530000D02*
X107565000Y-117530000D01*
X137475000Y-105970000D02*
X137475000Y-116470000D01*
X107565000Y-104910000D02*
X136415000Y-104910000D01*
X136415000Y-117530000D02*
G75*
G03X137475000Y-116470000I0J1060000D01*
G01*
X107565000Y-117530000D02*
G75*
G02X106505000Y-116470000I0J1060000D01*
G01*
X137475000Y-105970000D02*
G75*
G03X136415000Y-104910000I-1060000J0D01*
G01*
X107565000Y-104910000D02*
G75*
G03X106505000Y-105970000I0J-1060000D01*
G01*
D11*
X120656666Y-104362380D02*
X120323333Y-103886190D01*
X120085238Y-104362380D02*
X120085238Y-103362380D01*
X120466190Y-103362380D01*
X120561428Y-103410000D01*
X120609047Y-103457619D01*
X120656666Y-103552857D01*
X120656666Y-103695714D01*
X120609047Y-103790952D01*
X120561428Y-103838571D01*
X120466190Y-103886190D01*
X120085238Y-103886190D01*
X121085238Y-103838571D02*
X121418571Y-103838571D01*
X121561428Y-104362380D02*
X121085238Y-104362380D01*
X121085238Y-103362380D01*
X121561428Y-103362380D01*
X122323333Y-103838571D02*
X121990000Y-103838571D01*
X121990000Y-104362380D02*
X121990000Y-103362380D01*
X122466190Y-103362380D01*
X122990000Y-103362380D02*
X122990000Y-103600476D01*
X122751904Y-103505238D02*
X122990000Y-103600476D01*
X123228095Y-103505238D01*
X122847142Y-103790952D02*
X122990000Y-103600476D01*
X123132857Y-103790952D01*
X123751904Y-103362380D02*
X123751904Y-103600476D01*
X123513809Y-103505238D02*
X123751904Y-103600476D01*
X123990000Y-103505238D01*
X123609047Y-103790952D02*
X123751904Y-103600476D01*
X123894761Y-103790952D01*
M02*
