M48
; DRILL file {KiCad (5.1.5-0)} date Thursday, January 21, 2021 at 09:28:02 PM
; FORMAT={-:-/ absolute / inch / decimal}
; #@! TF.CreationDate,2021-01-21T21:28:02-07:00
; #@! TF.GenerationSoftware,Kicad,Pcbnew,(5.1.5-0)
FMAT,2
INCH
T1C0.0157
T2C0.0295
T3C0.0315
%
G90
G05
T1
X4.9213Y-4.3268
X4.9567Y-4.1575
X5.6102Y-4.4843
X5.6339Y-3.0118
X5.6378Y-3.8858
X5.6496Y-5.0472
X5.6693Y-3.1417
T2
X4.8839Y-4.4488
X4.8839Y-4.5276
X4.8543Y-3.2756
X4.8543Y-3.3543
X5.4961Y-3.3583
X5.5748Y-3.3583
X5.5039Y-4.0276
X5.5827Y-4.0276
X5.5039Y-4.3071
X5.5827Y-4.3071
T3
X5.2264Y-2.4272
X5.2264Y-2.624
X5.2362Y-5.2126
X5.2362Y-5.4094
T0
M30
