G04 #@! TF.GenerationSoftware,KiCad,Pcbnew,(5.1.5-0)*
G04 #@! TF.CreationDate,2021-01-21T21:27:59-07:00*
G04 #@! TF.ProjectId,supercap,73757065-7263-4617-902e-6b696361645f,rev?*
G04 #@! TF.SameCoordinates,Original*
G04 #@! TF.FileFunction,Copper,L1,Top*
G04 #@! TF.FilePolarity,Positive*
%FSLAX46Y46*%
G04 Gerber Fmt 4.6, Leading zero omitted, Abs format (unit mm)*
G04 Created by KiCad (PCBNEW (5.1.5-0)) date 2021-01-21 21:27:59*
%MOMM*%
%LPD*%
G04 APERTURE LIST*
%ADD10R,0.800000X1.200000*%
%ADD11C,0.100000*%
%ADD12O,1.750000X1.200000*%
%ADD13R,0.900000X0.800000*%
%ADD14R,0.450000X0.600000*%
%ADD15C,1.600000*%
%ADD16R,1.200000X0.800000*%
%ADD17O,1.200000X1.750000*%
%ADD18R,0.600000X0.450000*%
%ADD19C,0.800000*%
%ADD20C,0.250000*%
%ADD21C,1.000000*%
%ADD22C,0.254000*%
G04 APERTURE END LIST*
D10*
X130420000Y-92900000D03*
X130420000Y-98900000D03*
X127880000Y-98900000D03*
X127880000Y-92900000D03*
G04 #@! TA.AperFunction,SMDPad,CuDef*
D11*
G36*
X123285779Y-98426144D02*
G01*
X123308834Y-98429563D01*
X123331443Y-98435227D01*
X123353387Y-98443079D01*
X123374457Y-98453044D01*
X123394448Y-98465026D01*
X123413168Y-98478910D01*
X123430438Y-98494562D01*
X123446090Y-98511832D01*
X123459974Y-98530552D01*
X123471956Y-98550543D01*
X123481921Y-98571613D01*
X123489773Y-98593557D01*
X123495437Y-98616166D01*
X123498856Y-98639221D01*
X123500000Y-98662500D01*
X123500000Y-99137500D01*
X123498856Y-99160779D01*
X123495437Y-99183834D01*
X123489773Y-99206443D01*
X123481921Y-99228387D01*
X123471956Y-99249457D01*
X123459974Y-99269448D01*
X123446090Y-99288168D01*
X123430438Y-99305438D01*
X123413168Y-99321090D01*
X123394448Y-99334974D01*
X123374457Y-99346956D01*
X123353387Y-99356921D01*
X123331443Y-99364773D01*
X123308834Y-99370437D01*
X123285779Y-99373856D01*
X123262500Y-99375000D01*
X122687500Y-99375000D01*
X122664221Y-99373856D01*
X122641166Y-99370437D01*
X122618557Y-99364773D01*
X122596613Y-99356921D01*
X122575543Y-99346956D01*
X122555552Y-99334974D01*
X122536832Y-99321090D01*
X122519562Y-99305438D01*
X122503910Y-99288168D01*
X122490026Y-99269448D01*
X122478044Y-99249457D01*
X122468079Y-99228387D01*
X122460227Y-99206443D01*
X122454563Y-99183834D01*
X122451144Y-99160779D01*
X122450000Y-99137500D01*
X122450000Y-98662500D01*
X122451144Y-98639221D01*
X122454563Y-98616166D01*
X122460227Y-98593557D01*
X122468079Y-98571613D01*
X122478044Y-98550543D01*
X122490026Y-98530552D01*
X122503910Y-98511832D01*
X122519562Y-98494562D01*
X122536832Y-98478910D01*
X122555552Y-98465026D01*
X122575543Y-98453044D01*
X122596613Y-98443079D01*
X122618557Y-98435227D01*
X122641166Y-98429563D01*
X122664221Y-98426144D01*
X122687500Y-98425000D01*
X123262500Y-98425000D01*
X123285779Y-98426144D01*
G37*
G04 #@! TD.AperFunction*
G04 #@! TA.AperFunction,SMDPad,CuDef*
G36*
X125035779Y-98426144D02*
G01*
X125058834Y-98429563D01*
X125081443Y-98435227D01*
X125103387Y-98443079D01*
X125124457Y-98453044D01*
X125144448Y-98465026D01*
X125163168Y-98478910D01*
X125180438Y-98494562D01*
X125196090Y-98511832D01*
X125209974Y-98530552D01*
X125221956Y-98550543D01*
X125231921Y-98571613D01*
X125239773Y-98593557D01*
X125245437Y-98616166D01*
X125248856Y-98639221D01*
X125250000Y-98662500D01*
X125250000Y-99137500D01*
X125248856Y-99160779D01*
X125245437Y-99183834D01*
X125239773Y-99206443D01*
X125231921Y-99228387D01*
X125221956Y-99249457D01*
X125209974Y-99269448D01*
X125196090Y-99288168D01*
X125180438Y-99305438D01*
X125163168Y-99321090D01*
X125144448Y-99334974D01*
X125124457Y-99346956D01*
X125103387Y-99356921D01*
X125081443Y-99364773D01*
X125058834Y-99370437D01*
X125035779Y-99373856D01*
X125012500Y-99375000D01*
X124437500Y-99375000D01*
X124414221Y-99373856D01*
X124391166Y-99370437D01*
X124368557Y-99364773D01*
X124346613Y-99356921D01*
X124325543Y-99346956D01*
X124305552Y-99334974D01*
X124286832Y-99321090D01*
X124269562Y-99305438D01*
X124253910Y-99288168D01*
X124240026Y-99269448D01*
X124228044Y-99249457D01*
X124218079Y-99228387D01*
X124210227Y-99206443D01*
X124204563Y-99183834D01*
X124201144Y-99160779D01*
X124200000Y-99137500D01*
X124200000Y-98662500D01*
X124201144Y-98639221D01*
X124204563Y-98616166D01*
X124210227Y-98593557D01*
X124218079Y-98571613D01*
X124228044Y-98550543D01*
X124240026Y-98530552D01*
X124253910Y-98511832D01*
X124269562Y-98494562D01*
X124286832Y-98478910D01*
X124305552Y-98465026D01*
X124325543Y-98453044D01*
X124346613Y-98443079D01*
X124368557Y-98435227D01*
X124391166Y-98429563D01*
X124414221Y-98426144D01*
X124437500Y-98425000D01*
X125012500Y-98425000D01*
X125035779Y-98426144D01*
G37*
G04 #@! TD.AperFunction*
G04 #@! TA.AperFunction,SMDPad,CuDef*
G36*
X143624505Y-94651204D02*
G01*
X143648773Y-94654804D01*
X143672572Y-94660765D01*
X143695671Y-94669030D01*
X143717850Y-94679520D01*
X143738893Y-94692132D01*
X143758599Y-94706747D01*
X143776777Y-94723223D01*
X143793253Y-94741401D01*
X143807868Y-94761107D01*
X143820480Y-94782150D01*
X143830970Y-94804329D01*
X143839235Y-94827428D01*
X143845196Y-94851227D01*
X143848796Y-94875495D01*
X143850000Y-94899999D01*
X143850000Y-95600001D01*
X143848796Y-95624505D01*
X143845196Y-95648773D01*
X143839235Y-95672572D01*
X143830970Y-95695671D01*
X143820480Y-95717850D01*
X143807868Y-95738893D01*
X143793253Y-95758599D01*
X143776777Y-95776777D01*
X143758599Y-95793253D01*
X143738893Y-95807868D01*
X143717850Y-95820480D01*
X143695671Y-95830970D01*
X143672572Y-95839235D01*
X143648773Y-95845196D01*
X143624505Y-95848796D01*
X143600001Y-95850000D01*
X142299999Y-95850000D01*
X142275495Y-95848796D01*
X142251227Y-95845196D01*
X142227428Y-95839235D01*
X142204329Y-95830970D01*
X142182150Y-95820480D01*
X142161107Y-95807868D01*
X142141401Y-95793253D01*
X142123223Y-95776777D01*
X142106747Y-95758599D01*
X142092132Y-95738893D01*
X142079520Y-95717850D01*
X142069030Y-95695671D01*
X142060765Y-95672572D01*
X142054804Y-95648773D01*
X142051204Y-95624505D01*
X142050000Y-95600001D01*
X142050000Y-94899999D01*
X142051204Y-94875495D01*
X142054804Y-94851227D01*
X142060765Y-94827428D01*
X142069030Y-94804329D01*
X142079520Y-94782150D01*
X142092132Y-94761107D01*
X142106747Y-94741401D01*
X142123223Y-94723223D01*
X142141401Y-94706747D01*
X142161107Y-94692132D01*
X142182150Y-94679520D01*
X142204329Y-94669030D01*
X142227428Y-94660765D01*
X142251227Y-94654804D01*
X142275495Y-94651204D01*
X142299999Y-94650000D01*
X143600001Y-94650000D01*
X143624505Y-94651204D01*
G37*
G04 #@! TD.AperFunction*
G04 #@! TA.AperFunction,SMDPad,CuDef*
G36*
X143624505Y-89051204D02*
G01*
X143648773Y-89054804D01*
X143672572Y-89060765D01*
X143695671Y-89069030D01*
X143717850Y-89079520D01*
X143738893Y-89092132D01*
X143758599Y-89106747D01*
X143776777Y-89123223D01*
X143793253Y-89141401D01*
X143807868Y-89161107D01*
X143820480Y-89182150D01*
X143830970Y-89204329D01*
X143839235Y-89227428D01*
X143845196Y-89251227D01*
X143848796Y-89275495D01*
X143850000Y-89299999D01*
X143850000Y-90000001D01*
X143848796Y-90024505D01*
X143845196Y-90048773D01*
X143839235Y-90072572D01*
X143830970Y-90095671D01*
X143820480Y-90117850D01*
X143807868Y-90138893D01*
X143793253Y-90158599D01*
X143776777Y-90176777D01*
X143758599Y-90193253D01*
X143738893Y-90207868D01*
X143717850Y-90220480D01*
X143695671Y-90230970D01*
X143672572Y-90239235D01*
X143648773Y-90245196D01*
X143624505Y-90248796D01*
X143600001Y-90250000D01*
X142299999Y-90250000D01*
X142275495Y-90248796D01*
X142251227Y-90245196D01*
X142227428Y-90239235D01*
X142204329Y-90230970D01*
X142182150Y-90220480D01*
X142161107Y-90207868D01*
X142141401Y-90193253D01*
X142123223Y-90176777D01*
X142106747Y-90158599D01*
X142092132Y-90138893D01*
X142079520Y-90117850D01*
X142069030Y-90095671D01*
X142060765Y-90072572D01*
X142054804Y-90048773D01*
X142051204Y-90024505D01*
X142050000Y-90000001D01*
X142050000Y-89299999D01*
X142051204Y-89275495D01*
X142054804Y-89251227D01*
X142060765Y-89227428D01*
X142069030Y-89204329D01*
X142079520Y-89182150D01*
X142092132Y-89161107D01*
X142106747Y-89141401D01*
X142123223Y-89123223D01*
X142141401Y-89106747D01*
X142161107Y-89092132D01*
X142182150Y-89079520D01*
X142204329Y-89069030D01*
X142227428Y-89060765D01*
X142251227Y-89054804D01*
X142275495Y-89051204D01*
X142299999Y-89050000D01*
X143600001Y-89050000D01*
X143624505Y-89051204D01*
G37*
G04 #@! TD.AperFunction*
G04 #@! TA.AperFunction,SMDPad,CuDef*
G36*
X141064703Y-93650722D02*
G01*
X141079264Y-93652882D01*
X141093543Y-93656459D01*
X141107403Y-93661418D01*
X141120710Y-93667712D01*
X141133336Y-93675280D01*
X141145159Y-93684048D01*
X141156066Y-93693934D01*
X141165952Y-93704841D01*
X141174720Y-93716664D01*
X141182288Y-93729290D01*
X141188582Y-93742597D01*
X141193541Y-93756457D01*
X141197118Y-93770736D01*
X141199278Y-93785297D01*
X141200000Y-93800000D01*
X141200000Y-94100000D01*
X141199278Y-94114703D01*
X141197118Y-94129264D01*
X141193541Y-94143543D01*
X141188582Y-94157403D01*
X141182288Y-94170710D01*
X141174720Y-94183336D01*
X141165952Y-94195159D01*
X141156066Y-94206066D01*
X141145159Y-94215952D01*
X141133336Y-94224720D01*
X141120710Y-94232288D01*
X141107403Y-94238582D01*
X141093543Y-94243541D01*
X141079264Y-94247118D01*
X141064703Y-94249278D01*
X141050000Y-94250000D01*
X139800000Y-94250000D01*
X139785297Y-94249278D01*
X139770736Y-94247118D01*
X139756457Y-94243541D01*
X139742597Y-94238582D01*
X139729290Y-94232288D01*
X139716664Y-94224720D01*
X139704841Y-94215952D01*
X139693934Y-94206066D01*
X139684048Y-94195159D01*
X139675280Y-94183336D01*
X139667712Y-94170710D01*
X139661418Y-94157403D01*
X139656459Y-94143543D01*
X139652882Y-94129264D01*
X139650722Y-94114703D01*
X139650000Y-94100000D01*
X139650000Y-93800000D01*
X139650722Y-93785297D01*
X139652882Y-93770736D01*
X139656459Y-93756457D01*
X139661418Y-93742597D01*
X139667712Y-93729290D01*
X139675280Y-93716664D01*
X139684048Y-93704841D01*
X139693934Y-93693934D01*
X139704841Y-93684048D01*
X139716664Y-93675280D01*
X139729290Y-93667712D01*
X139742597Y-93661418D01*
X139756457Y-93656459D01*
X139770736Y-93652882D01*
X139785297Y-93650722D01*
X139800000Y-93650000D01*
X141050000Y-93650000D01*
X141064703Y-93650722D01*
G37*
G04 #@! TD.AperFunction*
G04 #@! TA.AperFunction,SMDPad,CuDef*
G36*
X141064703Y-92650722D02*
G01*
X141079264Y-92652882D01*
X141093543Y-92656459D01*
X141107403Y-92661418D01*
X141120710Y-92667712D01*
X141133336Y-92675280D01*
X141145159Y-92684048D01*
X141156066Y-92693934D01*
X141165952Y-92704841D01*
X141174720Y-92716664D01*
X141182288Y-92729290D01*
X141188582Y-92742597D01*
X141193541Y-92756457D01*
X141197118Y-92770736D01*
X141199278Y-92785297D01*
X141200000Y-92800000D01*
X141200000Y-93100000D01*
X141199278Y-93114703D01*
X141197118Y-93129264D01*
X141193541Y-93143543D01*
X141188582Y-93157403D01*
X141182288Y-93170710D01*
X141174720Y-93183336D01*
X141165952Y-93195159D01*
X141156066Y-93206066D01*
X141145159Y-93215952D01*
X141133336Y-93224720D01*
X141120710Y-93232288D01*
X141107403Y-93238582D01*
X141093543Y-93243541D01*
X141079264Y-93247118D01*
X141064703Y-93249278D01*
X141050000Y-93250000D01*
X139800000Y-93250000D01*
X139785297Y-93249278D01*
X139770736Y-93247118D01*
X139756457Y-93243541D01*
X139742597Y-93238582D01*
X139729290Y-93232288D01*
X139716664Y-93224720D01*
X139704841Y-93215952D01*
X139693934Y-93206066D01*
X139684048Y-93195159D01*
X139675280Y-93183336D01*
X139667712Y-93170710D01*
X139661418Y-93157403D01*
X139656459Y-93143543D01*
X139652882Y-93129264D01*
X139650722Y-93114703D01*
X139650000Y-93100000D01*
X139650000Y-92800000D01*
X139650722Y-92785297D01*
X139652882Y-92770736D01*
X139656459Y-92756457D01*
X139661418Y-92742597D01*
X139667712Y-92729290D01*
X139675280Y-92716664D01*
X139684048Y-92704841D01*
X139693934Y-92693934D01*
X139704841Y-92684048D01*
X139716664Y-92675280D01*
X139729290Y-92667712D01*
X139742597Y-92661418D01*
X139756457Y-92656459D01*
X139770736Y-92652882D01*
X139785297Y-92650722D01*
X139800000Y-92650000D01*
X141050000Y-92650000D01*
X141064703Y-92650722D01*
G37*
G04 #@! TD.AperFunction*
G04 #@! TA.AperFunction,SMDPad,CuDef*
G36*
X141064703Y-91650722D02*
G01*
X141079264Y-91652882D01*
X141093543Y-91656459D01*
X141107403Y-91661418D01*
X141120710Y-91667712D01*
X141133336Y-91675280D01*
X141145159Y-91684048D01*
X141156066Y-91693934D01*
X141165952Y-91704841D01*
X141174720Y-91716664D01*
X141182288Y-91729290D01*
X141188582Y-91742597D01*
X141193541Y-91756457D01*
X141197118Y-91770736D01*
X141199278Y-91785297D01*
X141200000Y-91800000D01*
X141200000Y-92100000D01*
X141199278Y-92114703D01*
X141197118Y-92129264D01*
X141193541Y-92143543D01*
X141188582Y-92157403D01*
X141182288Y-92170710D01*
X141174720Y-92183336D01*
X141165952Y-92195159D01*
X141156066Y-92206066D01*
X141145159Y-92215952D01*
X141133336Y-92224720D01*
X141120710Y-92232288D01*
X141107403Y-92238582D01*
X141093543Y-92243541D01*
X141079264Y-92247118D01*
X141064703Y-92249278D01*
X141050000Y-92250000D01*
X139800000Y-92250000D01*
X139785297Y-92249278D01*
X139770736Y-92247118D01*
X139756457Y-92243541D01*
X139742597Y-92238582D01*
X139729290Y-92232288D01*
X139716664Y-92224720D01*
X139704841Y-92215952D01*
X139693934Y-92206066D01*
X139684048Y-92195159D01*
X139675280Y-92183336D01*
X139667712Y-92170710D01*
X139661418Y-92157403D01*
X139656459Y-92143543D01*
X139652882Y-92129264D01*
X139650722Y-92114703D01*
X139650000Y-92100000D01*
X139650000Y-91800000D01*
X139650722Y-91785297D01*
X139652882Y-91770736D01*
X139656459Y-91756457D01*
X139661418Y-91742597D01*
X139667712Y-91729290D01*
X139675280Y-91716664D01*
X139684048Y-91704841D01*
X139693934Y-91693934D01*
X139704841Y-91684048D01*
X139716664Y-91675280D01*
X139729290Y-91667712D01*
X139742597Y-91661418D01*
X139756457Y-91656459D01*
X139770736Y-91652882D01*
X139785297Y-91650722D01*
X139800000Y-91650000D01*
X141050000Y-91650000D01*
X141064703Y-91650722D01*
G37*
G04 #@! TD.AperFunction*
G04 #@! TA.AperFunction,SMDPad,CuDef*
G36*
X141064703Y-90650722D02*
G01*
X141079264Y-90652882D01*
X141093543Y-90656459D01*
X141107403Y-90661418D01*
X141120710Y-90667712D01*
X141133336Y-90675280D01*
X141145159Y-90684048D01*
X141156066Y-90693934D01*
X141165952Y-90704841D01*
X141174720Y-90716664D01*
X141182288Y-90729290D01*
X141188582Y-90742597D01*
X141193541Y-90756457D01*
X141197118Y-90770736D01*
X141199278Y-90785297D01*
X141200000Y-90800000D01*
X141200000Y-91100000D01*
X141199278Y-91114703D01*
X141197118Y-91129264D01*
X141193541Y-91143543D01*
X141188582Y-91157403D01*
X141182288Y-91170710D01*
X141174720Y-91183336D01*
X141165952Y-91195159D01*
X141156066Y-91206066D01*
X141145159Y-91215952D01*
X141133336Y-91224720D01*
X141120710Y-91232288D01*
X141107403Y-91238582D01*
X141093543Y-91243541D01*
X141079264Y-91247118D01*
X141064703Y-91249278D01*
X141050000Y-91250000D01*
X139800000Y-91250000D01*
X139785297Y-91249278D01*
X139770736Y-91247118D01*
X139756457Y-91243541D01*
X139742597Y-91238582D01*
X139729290Y-91232288D01*
X139716664Y-91224720D01*
X139704841Y-91215952D01*
X139693934Y-91206066D01*
X139684048Y-91195159D01*
X139675280Y-91183336D01*
X139667712Y-91170710D01*
X139661418Y-91157403D01*
X139656459Y-91143543D01*
X139652882Y-91129264D01*
X139650722Y-91114703D01*
X139650000Y-91100000D01*
X139650000Y-90800000D01*
X139650722Y-90785297D01*
X139652882Y-90770736D01*
X139656459Y-90756457D01*
X139661418Y-90742597D01*
X139667712Y-90729290D01*
X139675280Y-90716664D01*
X139684048Y-90704841D01*
X139693934Y-90693934D01*
X139704841Y-90684048D01*
X139716664Y-90675280D01*
X139729290Y-90667712D01*
X139742597Y-90661418D01*
X139756457Y-90656459D01*
X139770736Y-90652882D01*
X139785297Y-90650722D01*
X139800000Y-90650000D01*
X141050000Y-90650000D01*
X141064703Y-90650722D01*
G37*
G04 #@! TD.AperFunction*
G04 #@! TA.AperFunction,SMDPad,CuDef*
G36*
X134324505Y-89051204D02*
G01*
X134348773Y-89054804D01*
X134372572Y-89060765D01*
X134395671Y-89069030D01*
X134417850Y-89079520D01*
X134438893Y-89092132D01*
X134458599Y-89106747D01*
X134476777Y-89123223D01*
X134493253Y-89141401D01*
X134507868Y-89161107D01*
X134520480Y-89182150D01*
X134530970Y-89204329D01*
X134539235Y-89227428D01*
X134545196Y-89251227D01*
X134548796Y-89275495D01*
X134550000Y-89299999D01*
X134550000Y-90000001D01*
X134548796Y-90024505D01*
X134545196Y-90048773D01*
X134539235Y-90072572D01*
X134530970Y-90095671D01*
X134520480Y-90117850D01*
X134507868Y-90138893D01*
X134493253Y-90158599D01*
X134476777Y-90176777D01*
X134458599Y-90193253D01*
X134438893Y-90207868D01*
X134417850Y-90220480D01*
X134395671Y-90230970D01*
X134372572Y-90239235D01*
X134348773Y-90245196D01*
X134324505Y-90248796D01*
X134300001Y-90250000D01*
X132999999Y-90250000D01*
X132975495Y-90248796D01*
X132951227Y-90245196D01*
X132927428Y-90239235D01*
X132904329Y-90230970D01*
X132882150Y-90220480D01*
X132861107Y-90207868D01*
X132841401Y-90193253D01*
X132823223Y-90176777D01*
X132806747Y-90158599D01*
X132792132Y-90138893D01*
X132779520Y-90117850D01*
X132769030Y-90095671D01*
X132760765Y-90072572D01*
X132754804Y-90048773D01*
X132751204Y-90024505D01*
X132750000Y-90000001D01*
X132750000Y-89299999D01*
X132751204Y-89275495D01*
X132754804Y-89251227D01*
X132760765Y-89227428D01*
X132769030Y-89204329D01*
X132779520Y-89182150D01*
X132792132Y-89161107D01*
X132806747Y-89141401D01*
X132823223Y-89123223D01*
X132841401Y-89106747D01*
X132861107Y-89092132D01*
X132882150Y-89079520D01*
X132904329Y-89069030D01*
X132927428Y-89060765D01*
X132951227Y-89054804D01*
X132975495Y-89051204D01*
X132999999Y-89050000D01*
X134300001Y-89050000D01*
X134324505Y-89051204D01*
G37*
G04 #@! TD.AperFunction*
G04 #@! TA.AperFunction,SMDPad,CuDef*
G36*
X134324505Y-94651204D02*
G01*
X134348773Y-94654804D01*
X134372572Y-94660765D01*
X134395671Y-94669030D01*
X134417850Y-94679520D01*
X134438893Y-94692132D01*
X134458599Y-94706747D01*
X134476777Y-94723223D01*
X134493253Y-94741401D01*
X134507868Y-94761107D01*
X134520480Y-94782150D01*
X134530970Y-94804329D01*
X134539235Y-94827428D01*
X134545196Y-94851227D01*
X134548796Y-94875495D01*
X134550000Y-94899999D01*
X134550000Y-95600001D01*
X134548796Y-95624505D01*
X134545196Y-95648773D01*
X134539235Y-95672572D01*
X134530970Y-95695671D01*
X134520480Y-95717850D01*
X134507868Y-95738893D01*
X134493253Y-95758599D01*
X134476777Y-95776777D01*
X134458599Y-95793253D01*
X134438893Y-95807868D01*
X134417850Y-95820480D01*
X134395671Y-95830970D01*
X134372572Y-95839235D01*
X134348773Y-95845196D01*
X134324505Y-95848796D01*
X134300001Y-95850000D01*
X132999999Y-95850000D01*
X132975495Y-95848796D01*
X132951227Y-95845196D01*
X132927428Y-95839235D01*
X132904329Y-95830970D01*
X132882150Y-95820480D01*
X132861107Y-95807868D01*
X132841401Y-95793253D01*
X132823223Y-95776777D01*
X132806747Y-95758599D01*
X132792132Y-95738893D01*
X132779520Y-95717850D01*
X132769030Y-95695671D01*
X132760765Y-95672572D01*
X132754804Y-95648773D01*
X132751204Y-95624505D01*
X132750000Y-95600001D01*
X132750000Y-94899999D01*
X132751204Y-94875495D01*
X132754804Y-94851227D01*
X132760765Y-94827428D01*
X132769030Y-94804329D01*
X132779520Y-94782150D01*
X132792132Y-94761107D01*
X132806747Y-94741401D01*
X132823223Y-94723223D01*
X132841401Y-94706747D01*
X132861107Y-94692132D01*
X132882150Y-94679520D01*
X132904329Y-94669030D01*
X132927428Y-94660765D01*
X132951227Y-94654804D01*
X132975495Y-94651204D01*
X132999999Y-94650000D01*
X134300001Y-94650000D01*
X134324505Y-94651204D01*
G37*
G04 #@! TD.AperFunction*
G04 #@! TA.AperFunction,SMDPad,CuDef*
G36*
X136814703Y-90650722D02*
G01*
X136829264Y-90652882D01*
X136843543Y-90656459D01*
X136857403Y-90661418D01*
X136870710Y-90667712D01*
X136883336Y-90675280D01*
X136895159Y-90684048D01*
X136906066Y-90693934D01*
X136915952Y-90704841D01*
X136924720Y-90716664D01*
X136932288Y-90729290D01*
X136938582Y-90742597D01*
X136943541Y-90756457D01*
X136947118Y-90770736D01*
X136949278Y-90785297D01*
X136950000Y-90800000D01*
X136950000Y-91100000D01*
X136949278Y-91114703D01*
X136947118Y-91129264D01*
X136943541Y-91143543D01*
X136938582Y-91157403D01*
X136932288Y-91170710D01*
X136924720Y-91183336D01*
X136915952Y-91195159D01*
X136906066Y-91206066D01*
X136895159Y-91215952D01*
X136883336Y-91224720D01*
X136870710Y-91232288D01*
X136857403Y-91238582D01*
X136843543Y-91243541D01*
X136829264Y-91247118D01*
X136814703Y-91249278D01*
X136800000Y-91250000D01*
X135550000Y-91250000D01*
X135535297Y-91249278D01*
X135520736Y-91247118D01*
X135506457Y-91243541D01*
X135492597Y-91238582D01*
X135479290Y-91232288D01*
X135466664Y-91224720D01*
X135454841Y-91215952D01*
X135443934Y-91206066D01*
X135434048Y-91195159D01*
X135425280Y-91183336D01*
X135417712Y-91170710D01*
X135411418Y-91157403D01*
X135406459Y-91143543D01*
X135402882Y-91129264D01*
X135400722Y-91114703D01*
X135400000Y-91100000D01*
X135400000Y-90800000D01*
X135400722Y-90785297D01*
X135402882Y-90770736D01*
X135406459Y-90756457D01*
X135411418Y-90742597D01*
X135417712Y-90729290D01*
X135425280Y-90716664D01*
X135434048Y-90704841D01*
X135443934Y-90693934D01*
X135454841Y-90684048D01*
X135466664Y-90675280D01*
X135479290Y-90667712D01*
X135492597Y-90661418D01*
X135506457Y-90656459D01*
X135520736Y-90652882D01*
X135535297Y-90650722D01*
X135550000Y-90650000D01*
X136800000Y-90650000D01*
X136814703Y-90650722D01*
G37*
G04 #@! TD.AperFunction*
G04 #@! TA.AperFunction,SMDPad,CuDef*
G36*
X136814703Y-91650722D02*
G01*
X136829264Y-91652882D01*
X136843543Y-91656459D01*
X136857403Y-91661418D01*
X136870710Y-91667712D01*
X136883336Y-91675280D01*
X136895159Y-91684048D01*
X136906066Y-91693934D01*
X136915952Y-91704841D01*
X136924720Y-91716664D01*
X136932288Y-91729290D01*
X136938582Y-91742597D01*
X136943541Y-91756457D01*
X136947118Y-91770736D01*
X136949278Y-91785297D01*
X136950000Y-91800000D01*
X136950000Y-92100000D01*
X136949278Y-92114703D01*
X136947118Y-92129264D01*
X136943541Y-92143543D01*
X136938582Y-92157403D01*
X136932288Y-92170710D01*
X136924720Y-92183336D01*
X136915952Y-92195159D01*
X136906066Y-92206066D01*
X136895159Y-92215952D01*
X136883336Y-92224720D01*
X136870710Y-92232288D01*
X136857403Y-92238582D01*
X136843543Y-92243541D01*
X136829264Y-92247118D01*
X136814703Y-92249278D01*
X136800000Y-92250000D01*
X135550000Y-92250000D01*
X135535297Y-92249278D01*
X135520736Y-92247118D01*
X135506457Y-92243541D01*
X135492597Y-92238582D01*
X135479290Y-92232288D01*
X135466664Y-92224720D01*
X135454841Y-92215952D01*
X135443934Y-92206066D01*
X135434048Y-92195159D01*
X135425280Y-92183336D01*
X135417712Y-92170710D01*
X135411418Y-92157403D01*
X135406459Y-92143543D01*
X135402882Y-92129264D01*
X135400722Y-92114703D01*
X135400000Y-92100000D01*
X135400000Y-91800000D01*
X135400722Y-91785297D01*
X135402882Y-91770736D01*
X135406459Y-91756457D01*
X135411418Y-91742597D01*
X135417712Y-91729290D01*
X135425280Y-91716664D01*
X135434048Y-91704841D01*
X135443934Y-91693934D01*
X135454841Y-91684048D01*
X135466664Y-91675280D01*
X135479290Y-91667712D01*
X135492597Y-91661418D01*
X135506457Y-91656459D01*
X135520736Y-91652882D01*
X135535297Y-91650722D01*
X135550000Y-91650000D01*
X136800000Y-91650000D01*
X136814703Y-91650722D01*
G37*
G04 #@! TD.AperFunction*
G04 #@! TA.AperFunction,SMDPad,CuDef*
G36*
X136814703Y-92650722D02*
G01*
X136829264Y-92652882D01*
X136843543Y-92656459D01*
X136857403Y-92661418D01*
X136870710Y-92667712D01*
X136883336Y-92675280D01*
X136895159Y-92684048D01*
X136906066Y-92693934D01*
X136915952Y-92704841D01*
X136924720Y-92716664D01*
X136932288Y-92729290D01*
X136938582Y-92742597D01*
X136943541Y-92756457D01*
X136947118Y-92770736D01*
X136949278Y-92785297D01*
X136950000Y-92800000D01*
X136950000Y-93100000D01*
X136949278Y-93114703D01*
X136947118Y-93129264D01*
X136943541Y-93143543D01*
X136938582Y-93157403D01*
X136932288Y-93170710D01*
X136924720Y-93183336D01*
X136915952Y-93195159D01*
X136906066Y-93206066D01*
X136895159Y-93215952D01*
X136883336Y-93224720D01*
X136870710Y-93232288D01*
X136857403Y-93238582D01*
X136843543Y-93243541D01*
X136829264Y-93247118D01*
X136814703Y-93249278D01*
X136800000Y-93250000D01*
X135550000Y-93250000D01*
X135535297Y-93249278D01*
X135520736Y-93247118D01*
X135506457Y-93243541D01*
X135492597Y-93238582D01*
X135479290Y-93232288D01*
X135466664Y-93224720D01*
X135454841Y-93215952D01*
X135443934Y-93206066D01*
X135434048Y-93195159D01*
X135425280Y-93183336D01*
X135417712Y-93170710D01*
X135411418Y-93157403D01*
X135406459Y-93143543D01*
X135402882Y-93129264D01*
X135400722Y-93114703D01*
X135400000Y-93100000D01*
X135400000Y-92800000D01*
X135400722Y-92785297D01*
X135402882Y-92770736D01*
X135406459Y-92756457D01*
X135411418Y-92742597D01*
X135417712Y-92729290D01*
X135425280Y-92716664D01*
X135434048Y-92704841D01*
X135443934Y-92693934D01*
X135454841Y-92684048D01*
X135466664Y-92675280D01*
X135479290Y-92667712D01*
X135492597Y-92661418D01*
X135506457Y-92656459D01*
X135520736Y-92652882D01*
X135535297Y-92650722D01*
X135550000Y-92650000D01*
X136800000Y-92650000D01*
X136814703Y-92650722D01*
G37*
G04 #@! TD.AperFunction*
G04 #@! TA.AperFunction,SMDPad,CuDef*
G36*
X136814703Y-93650722D02*
G01*
X136829264Y-93652882D01*
X136843543Y-93656459D01*
X136857403Y-93661418D01*
X136870710Y-93667712D01*
X136883336Y-93675280D01*
X136895159Y-93684048D01*
X136906066Y-93693934D01*
X136915952Y-93704841D01*
X136924720Y-93716664D01*
X136932288Y-93729290D01*
X136938582Y-93742597D01*
X136943541Y-93756457D01*
X136947118Y-93770736D01*
X136949278Y-93785297D01*
X136950000Y-93800000D01*
X136950000Y-94100000D01*
X136949278Y-94114703D01*
X136947118Y-94129264D01*
X136943541Y-94143543D01*
X136938582Y-94157403D01*
X136932288Y-94170710D01*
X136924720Y-94183336D01*
X136915952Y-94195159D01*
X136906066Y-94206066D01*
X136895159Y-94215952D01*
X136883336Y-94224720D01*
X136870710Y-94232288D01*
X136857403Y-94238582D01*
X136843543Y-94243541D01*
X136829264Y-94247118D01*
X136814703Y-94249278D01*
X136800000Y-94250000D01*
X135550000Y-94250000D01*
X135535297Y-94249278D01*
X135520736Y-94247118D01*
X135506457Y-94243541D01*
X135492597Y-94238582D01*
X135479290Y-94232288D01*
X135466664Y-94224720D01*
X135454841Y-94215952D01*
X135443934Y-94206066D01*
X135434048Y-94195159D01*
X135425280Y-94183336D01*
X135417712Y-94170710D01*
X135411418Y-94157403D01*
X135406459Y-94143543D01*
X135402882Y-94129264D01*
X135400722Y-94114703D01*
X135400000Y-94100000D01*
X135400000Y-93800000D01*
X135400722Y-93785297D01*
X135402882Y-93770736D01*
X135406459Y-93756457D01*
X135411418Y-93742597D01*
X135417712Y-93729290D01*
X135425280Y-93716664D01*
X135434048Y-93704841D01*
X135443934Y-93693934D01*
X135454841Y-93684048D01*
X135466664Y-93675280D01*
X135479290Y-93667712D01*
X135492597Y-93661418D01*
X135506457Y-93656459D01*
X135520736Y-93652882D01*
X135535297Y-93650722D01*
X135550000Y-93650000D01*
X136800000Y-93650000D01*
X136814703Y-93650722D01*
G37*
G04 #@! TD.AperFunction*
D12*
X123300000Y-83200000D03*
G04 #@! TA.AperFunction,ComponentPad*
D11*
G36*
X123949505Y-84601204D02*
G01*
X123973773Y-84604804D01*
X123997572Y-84610765D01*
X124020671Y-84619030D01*
X124042850Y-84629520D01*
X124063893Y-84642132D01*
X124083599Y-84656747D01*
X124101777Y-84673223D01*
X124118253Y-84691401D01*
X124132868Y-84711107D01*
X124145480Y-84732150D01*
X124155970Y-84754329D01*
X124164235Y-84777428D01*
X124170196Y-84801227D01*
X124173796Y-84825495D01*
X124175000Y-84849999D01*
X124175000Y-85550001D01*
X124173796Y-85574505D01*
X124170196Y-85598773D01*
X124164235Y-85622572D01*
X124155970Y-85645671D01*
X124145480Y-85667850D01*
X124132868Y-85688893D01*
X124118253Y-85708599D01*
X124101777Y-85726777D01*
X124083599Y-85743253D01*
X124063893Y-85757868D01*
X124042850Y-85770480D01*
X124020671Y-85780970D01*
X123997572Y-85789235D01*
X123973773Y-85795196D01*
X123949505Y-85798796D01*
X123925001Y-85800000D01*
X122674999Y-85800000D01*
X122650495Y-85798796D01*
X122626227Y-85795196D01*
X122602428Y-85789235D01*
X122579329Y-85780970D01*
X122557150Y-85770480D01*
X122536107Y-85757868D01*
X122516401Y-85743253D01*
X122498223Y-85726777D01*
X122481747Y-85708599D01*
X122467132Y-85688893D01*
X122454520Y-85667850D01*
X122444030Y-85645671D01*
X122435765Y-85622572D01*
X122429804Y-85598773D01*
X122426204Y-85574505D01*
X122425000Y-85550001D01*
X122425000Y-84849999D01*
X122426204Y-84825495D01*
X122429804Y-84801227D01*
X122435765Y-84777428D01*
X122444030Y-84754329D01*
X122454520Y-84732150D01*
X122467132Y-84711107D01*
X122481747Y-84691401D01*
X122498223Y-84673223D01*
X122516401Y-84656747D01*
X122536107Y-84642132D01*
X122557150Y-84629520D01*
X122579329Y-84619030D01*
X122602428Y-84610765D01*
X122626227Y-84604804D01*
X122650495Y-84601204D01*
X122674999Y-84600000D01*
X123925001Y-84600000D01*
X123949505Y-84601204D01*
G37*
G04 #@! TD.AperFunction*
D12*
X124050000Y-113000000D03*
G04 #@! TA.AperFunction,ComponentPad*
D11*
G36*
X124699505Y-114401204D02*
G01*
X124723773Y-114404804D01*
X124747572Y-114410765D01*
X124770671Y-114419030D01*
X124792850Y-114429520D01*
X124813893Y-114442132D01*
X124833599Y-114456747D01*
X124851777Y-114473223D01*
X124868253Y-114491401D01*
X124882868Y-114511107D01*
X124895480Y-114532150D01*
X124905970Y-114554329D01*
X124914235Y-114577428D01*
X124920196Y-114601227D01*
X124923796Y-114625495D01*
X124925000Y-114649999D01*
X124925000Y-115350001D01*
X124923796Y-115374505D01*
X124920196Y-115398773D01*
X124914235Y-115422572D01*
X124905970Y-115445671D01*
X124895480Y-115467850D01*
X124882868Y-115488893D01*
X124868253Y-115508599D01*
X124851777Y-115526777D01*
X124833599Y-115543253D01*
X124813893Y-115557868D01*
X124792850Y-115570480D01*
X124770671Y-115580970D01*
X124747572Y-115589235D01*
X124723773Y-115595196D01*
X124699505Y-115598796D01*
X124675001Y-115600000D01*
X123424999Y-115600000D01*
X123400495Y-115598796D01*
X123376227Y-115595196D01*
X123352428Y-115589235D01*
X123329329Y-115580970D01*
X123307150Y-115570480D01*
X123286107Y-115557868D01*
X123266401Y-115543253D01*
X123248223Y-115526777D01*
X123231747Y-115508599D01*
X123217132Y-115488893D01*
X123204520Y-115467850D01*
X123194030Y-115445671D01*
X123185765Y-115422572D01*
X123179804Y-115398773D01*
X123176204Y-115374505D01*
X123175000Y-115350001D01*
X123175000Y-114649999D01*
X123176204Y-114625495D01*
X123179804Y-114601227D01*
X123185765Y-114577428D01*
X123194030Y-114554329D01*
X123204520Y-114532150D01*
X123217132Y-114511107D01*
X123231747Y-114491401D01*
X123248223Y-114473223D01*
X123266401Y-114456747D01*
X123286107Y-114442132D01*
X123307150Y-114429520D01*
X123329329Y-114419030D01*
X123352428Y-114410765D01*
X123376227Y-114404804D01*
X123400495Y-114401204D01*
X123424999Y-114400000D01*
X124675001Y-114400000D01*
X124699505Y-114401204D01*
G37*
G04 #@! TD.AperFunction*
G04 #@! TA.AperFunction,SMDPad,CuDef*
G36*
X122924505Y-89001204D02*
G01*
X122948773Y-89004804D01*
X122972572Y-89010765D01*
X122995671Y-89019030D01*
X123017850Y-89029520D01*
X123038893Y-89042132D01*
X123058599Y-89056747D01*
X123076777Y-89073223D01*
X123093253Y-89091401D01*
X123107868Y-89111107D01*
X123120480Y-89132150D01*
X123130970Y-89154329D01*
X123139235Y-89177428D01*
X123145196Y-89201227D01*
X123148796Y-89225495D01*
X123150000Y-89249999D01*
X123150000Y-89950001D01*
X123148796Y-89974505D01*
X123145196Y-89998773D01*
X123139235Y-90022572D01*
X123130970Y-90045671D01*
X123120480Y-90067850D01*
X123107868Y-90088893D01*
X123093253Y-90108599D01*
X123076777Y-90126777D01*
X123058599Y-90143253D01*
X123038893Y-90157868D01*
X123017850Y-90170480D01*
X122995671Y-90180970D01*
X122972572Y-90189235D01*
X122948773Y-90195196D01*
X122924505Y-90198796D01*
X122900001Y-90200000D01*
X121599999Y-90200000D01*
X121575495Y-90198796D01*
X121551227Y-90195196D01*
X121527428Y-90189235D01*
X121504329Y-90180970D01*
X121482150Y-90170480D01*
X121461107Y-90157868D01*
X121441401Y-90143253D01*
X121423223Y-90126777D01*
X121406747Y-90108599D01*
X121392132Y-90088893D01*
X121379520Y-90067850D01*
X121369030Y-90045671D01*
X121360765Y-90022572D01*
X121354804Y-89998773D01*
X121351204Y-89974505D01*
X121350000Y-89950001D01*
X121350000Y-89249999D01*
X121351204Y-89225495D01*
X121354804Y-89201227D01*
X121360765Y-89177428D01*
X121369030Y-89154329D01*
X121379520Y-89132150D01*
X121392132Y-89111107D01*
X121406747Y-89091401D01*
X121423223Y-89073223D01*
X121441401Y-89056747D01*
X121461107Y-89042132D01*
X121482150Y-89029520D01*
X121504329Y-89019030D01*
X121527428Y-89010765D01*
X121551227Y-89004804D01*
X121575495Y-89001204D01*
X121599999Y-89000000D01*
X122900001Y-89000000D01*
X122924505Y-89001204D01*
G37*
G04 #@! TD.AperFunction*
G04 #@! TA.AperFunction,SMDPad,CuDef*
G36*
X122924505Y-94601204D02*
G01*
X122948773Y-94604804D01*
X122972572Y-94610765D01*
X122995671Y-94619030D01*
X123017850Y-94629520D01*
X123038893Y-94642132D01*
X123058599Y-94656747D01*
X123076777Y-94673223D01*
X123093253Y-94691401D01*
X123107868Y-94711107D01*
X123120480Y-94732150D01*
X123130970Y-94754329D01*
X123139235Y-94777428D01*
X123145196Y-94801227D01*
X123148796Y-94825495D01*
X123150000Y-94849999D01*
X123150000Y-95550001D01*
X123148796Y-95574505D01*
X123145196Y-95598773D01*
X123139235Y-95622572D01*
X123130970Y-95645671D01*
X123120480Y-95667850D01*
X123107868Y-95688893D01*
X123093253Y-95708599D01*
X123076777Y-95726777D01*
X123058599Y-95743253D01*
X123038893Y-95757868D01*
X123017850Y-95770480D01*
X122995671Y-95780970D01*
X122972572Y-95789235D01*
X122948773Y-95795196D01*
X122924505Y-95798796D01*
X122900001Y-95800000D01*
X121599999Y-95800000D01*
X121575495Y-95798796D01*
X121551227Y-95795196D01*
X121527428Y-95789235D01*
X121504329Y-95780970D01*
X121482150Y-95770480D01*
X121461107Y-95757868D01*
X121441401Y-95743253D01*
X121423223Y-95726777D01*
X121406747Y-95708599D01*
X121392132Y-95688893D01*
X121379520Y-95667850D01*
X121369030Y-95645671D01*
X121360765Y-95622572D01*
X121354804Y-95598773D01*
X121351204Y-95574505D01*
X121350000Y-95550001D01*
X121350000Y-94849999D01*
X121351204Y-94825495D01*
X121354804Y-94801227D01*
X121360765Y-94777428D01*
X121369030Y-94754329D01*
X121379520Y-94732150D01*
X121392132Y-94711107D01*
X121406747Y-94691401D01*
X121423223Y-94673223D01*
X121441401Y-94656747D01*
X121461107Y-94642132D01*
X121482150Y-94629520D01*
X121504329Y-94619030D01*
X121527428Y-94610765D01*
X121551227Y-94604804D01*
X121575495Y-94601204D01*
X121599999Y-94600000D01*
X122900001Y-94600000D01*
X122924505Y-94601204D01*
G37*
G04 #@! TD.AperFunction*
G04 #@! TA.AperFunction,SMDPad,CuDef*
G36*
X125414703Y-90600722D02*
G01*
X125429264Y-90602882D01*
X125443543Y-90606459D01*
X125457403Y-90611418D01*
X125470710Y-90617712D01*
X125483336Y-90625280D01*
X125495159Y-90634048D01*
X125506066Y-90643934D01*
X125515952Y-90654841D01*
X125524720Y-90666664D01*
X125532288Y-90679290D01*
X125538582Y-90692597D01*
X125543541Y-90706457D01*
X125547118Y-90720736D01*
X125549278Y-90735297D01*
X125550000Y-90750000D01*
X125550000Y-91050000D01*
X125549278Y-91064703D01*
X125547118Y-91079264D01*
X125543541Y-91093543D01*
X125538582Y-91107403D01*
X125532288Y-91120710D01*
X125524720Y-91133336D01*
X125515952Y-91145159D01*
X125506066Y-91156066D01*
X125495159Y-91165952D01*
X125483336Y-91174720D01*
X125470710Y-91182288D01*
X125457403Y-91188582D01*
X125443543Y-91193541D01*
X125429264Y-91197118D01*
X125414703Y-91199278D01*
X125400000Y-91200000D01*
X124150000Y-91200000D01*
X124135297Y-91199278D01*
X124120736Y-91197118D01*
X124106457Y-91193541D01*
X124092597Y-91188582D01*
X124079290Y-91182288D01*
X124066664Y-91174720D01*
X124054841Y-91165952D01*
X124043934Y-91156066D01*
X124034048Y-91145159D01*
X124025280Y-91133336D01*
X124017712Y-91120710D01*
X124011418Y-91107403D01*
X124006459Y-91093543D01*
X124002882Y-91079264D01*
X124000722Y-91064703D01*
X124000000Y-91050000D01*
X124000000Y-90750000D01*
X124000722Y-90735297D01*
X124002882Y-90720736D01*
X124006459Y-90706457D01*
X124011418Y-90692597D01*
X124017712Y-90679290D01*
X124025280Y-90666664D01*
X124034048Y-90654841D01*
X124043934Y-90643934D01*
X124054841Y-90634048D01*
X124066664Y-90625280D01*
X124079290Y-90617712D01*
X124092597Y-90611418D01*
X124106457Y-90606459D01*
X124120736Y-90602882D01*
X124135297Y-90600722D01*
X124150000Y-90600000D01*
X125400000Y-90600000D01*
X125414703Y-90600722D01*
G37*
G04 #@! TD.AperFunction*
G04 #@! TA.AperFunction,SMDPad,CuDef*
G36*
X125414703Y-91600722D02*
G01*
X125429264Y-91602882D01*
X125443543Y-91606459D01*
X125457403Y-91611418D01*
X125470710Y-91617712D01*
X125483336Y-91625280D01*
X125495159Y-91634048D01*
X125506066Y-91643934D01*
X125515952Y-91654841D01*
X125524720Y-91666664D01*
X125532288Y-91679290D01*
X125538582Y-91692597D01*
X125543541Y-91706457D01*
X125547118Y-91720736D01*
X125549278Y-91735297D01*
X125550000Y-91750000D01*
X125550000Y-92050000D01*
X125549278Y-92064703D01*
X125547118Y-92079264D01*
X125543541Y-92093543D01*
X125538582Y-92107403D01*
X125532288Y-92120710D01*
X125524720Y-92133336D01*
X125515952Y-92145159D01*
X125506066Y-92156066D01*
X125495159Y-92165952D01*
X125483336Y-92174720D01*
X125470710Y-92182288D01*
X125457403Y-92188582D01*
X125443543Y-92193541D01*
X125429264Y-92197118D01*
X125414703Y-92199278D01*
X125400000Y-92200000D01*
X124150000Y-92200000D01*
X124135297Y-92199278D01*
X124120736Y-92197118D01*
X124106457Y-92193541D01*
X124092597Y-92188582D01*
X124079290Y-92182288D01*
X124066664Y-92174720D01*
X124054841Y-92165952D01*
X124043934Y-92156066D01*
X124034048Y-92145159D01*
X124025280Y-92133336D01*
X124017712Y-92120710D01*
X124011418Y-92107403D01*
X124006459Y-92093543D01*
X124002882Y-92079264D01*
X124000722Y-92064703D01*
X124000000Y-92050000D01*
X124000000Y-91750000D01*
X124000722Y-91735297D01*
X124002882Y-91720736D01*
X124006459Y-91706457D01*
X124011418Y-91692597D01*
X124017712Y-91679290D01*
X124025280Y-91666664D01*
X124034048Y-91654841D01*
X124043934Y-91643934D01*
X124054841Y-91634048D01*
X124066664Y-91625280D01*
X124079290Y-91617712D01*
X124092597Y-91611418D01*
X124106457Y-91606459D01*
X124120736Y-91602882D01*
X124135297Y-91600722D01*
X124150000Y-91600000D01*
X125400000Y-91600000D01*
X125414703Y-91600722D01*
G37*
G04 #@! TD.AperFunction*
G04 #@! TA.AperFunction,SMDPad,CuDef*
G36*
X125414703Y-92600722D02*
G01*
X125429264Y-92602882D01*
X125443543Y-92606459D01*
X125457403Y-92611418D01*
X125470710Y-92617712D01*
X125483336Y-92625280D01*
X125495159Y-92634048D01*
X125506066Y-92643934D01*
X125515952Y-92654841D01*
X125524720Y-92666664D01*
X125532288Y-92679290D01*
X125538582Y-92692597D01*
X125543541Y-92706457D01*
X125547118Y-92720736D01*
X125549278Y-92735297D01*
X125550000Y-92750000D01*
X125550000Y-93050000D01*
X125549278Y-93064703D01*
X125547118Y-93079264D01*
X125543541Y-93093543D01*
X125538582Y-93107403D01*
X125532288Y-93120710D01*
X125524720Y-93133336D01*
X125515952Y-93145159D01*
X125506066Y-93156066D01*
X125495159Y-93165952D01*
X125483336Y-93174720D01*
X125470710Y-93182288D01*
X125457403Y-93188582D01*
X125443543Y-93193541D01*
X125429264Y-93197118D01*
X125414703Y-93199278D01*
X125400000Y-93200000D01*
X124150000Y-93200000D01*
X124135297Y-93199278D01*
X124120736Y-93197118D01*
X124106457Y-93193541D01*
X124092597Y-93188582D01*
X124079290Y-93182288D01*
X124066664Y-93174720D01*
X124054841Y-93165952D01*
X124043934Y-93156066D01*
X124034048Y-93145159D01*
X124025280Y-93133336D01*
X124017712Y-93120710D01*
X124011418Y-93107403D01*
X124006459Y-93093543D01*
X124002882Y-93079264D01*
X124000722Y-93064703D01*
X124000000Y-93050000D01*
X124000000Y-92750000D01*
X124000722Y-92735297D01*
X124002882Y-92720736D01*
X124006459Y-92706457D01*
X124011418Y-92692597D01*
X124017712Y-92679290D01*
X124025280Y-92666664D01*
X124034048Y-92654841D01*
X124043934Y-92643934D01*
X124054841Y-92634048D01*
X124066664Y-92625280D01*
X124079290Y-92617712D01*
X124092597Y-92611418D01*
X124106457Y-92606459D01*
X124120736Y-92602882D01*
X124135297Y-92600722D01*
X124150000Y-92600000D01*
X125400000Y-92600000D01*
X125414703Y-92600722D01*
G37*
G04 #@! TD.AperFunction*
G04 #@! TA.AperFunction,SMDPad,CuDef*
G36*
X125414703Y-93600722D02*
G01*
X125429264Y-93602882D01*
X125443543Y-93606459D01*
X125457403Y-93611418D01*
X125470710Y-93617712D01*
X125483336Y-93625280D01*
X125495159Y-93634048D01*
X125506066Y-93643934D01*
X125515952Y-93654841D01*
X125524720Y-93666664D01*
X125532288Y-93679290D01*
X125538582Y-93692597D01*
X125543541Y-93706457D01*
X125547118Y-93720736D01*
X125549278Y-93735297D01*
X125550000Y-93750000D01*
X125550000Y-94050000D01*
X125549278Y-94064703D01*
X125547118Y-94079264D01*
X125543541Y-94093543D01*
X125538582Y-94107403D01*
X125532288Y-94120710D01*
X125524720Y-94133336D01*
X125515952Y-94145159D01*
X125506066Y-94156066D01*
X125495159Y-94165952D01*
X125483336Y-94174720D01*
X125470710Y-94182288D01*
X125457403Y-94188582D01*
X125443543Y-94193541D01*
X125429264Y-94197118D01*
X125414703Y-94199278D01*
X125400000Y-94200000D01*
X124150000Y-94200000D01*
X124135297Y-94199278D01*
X124120736Y-94197118D01*
X124106457Y-94193541D01*
X124092597Y-94188582D01*
X124079290Y-94182288D01*
X124066664Y-94174720D01*
X124054841Y-94165952D01*
X124043934Y-94156066D01*
X124034048Y-94145159D01*
X124025280Y-94133336D01*
X124017712Y-94120710D01*
X124011418Y-94107403D01*
X124006459Y-94093543D01*
X124002882Y-94079264D01*
X124000722Y-94064703D01*
X124000000Y-94050000D01*
X124000000Y-93750000D01*
X124000722Y-93735297D01*
X124002882Y-93720736D01*
X124006459Y-93706457D01*
X124011418Y-93692597D01*
X124017712Y-93679290D01*
X124025280Y-93666664D01*
X124034048Y-93654841D01*
X124043934Y-93643934D01*
X124054841Y-93634048D01*
X124066664Y-93625280D01*
X124079290Y-93617712D01*
X124092597Y-93611418D01*
X124106457Y-93606459D01*
X124120736Y-93602882D01*
X124135297Y-93600722D01*
X124150000Y-93600000D01*
X125400000Y-93600000D01*
X125414703Y-93600722D01*
G37*
G04 #@! TD.AperFunction*
G04 #@! TA.AperFunction,SMDPad,CuDef*
G36*
X128860779Y-106351144D02*
G01*
X128883834Y-106354563D01*
X128906443Y-106360227D01*
X128928387Y-106368079D01*
X128949457Y-106378044D01*
X128969448Y-106390026D01*
X128988168Y-106403910D01*
X129005438Y-106419562D01*
X129021090Y-106436832D01*
X129034974Y-106455552D01*
X129046956Y-106475543D01*
X129056921Y-106496613D01*
X129064773Y-106518557D01*
X129070437Y-106541166D01*
X129073856Y-106564221D01*
X129075000Y-106587500D01*
X129075000Y-107162500D01*
X129073856Y-107185779D01*
X129070437Y-107208834D01*
X129064773Y-107231443D01*
X129056921Y-107253387D01*
X129046956Y-107274457D01*
X129034974Y-107294448D01*
X129021090Y-107313168D01*
X129005438Y-107330438D01*
X128988168Y-107346090D01*
X128969448Y-107359974D01*
X128949457Y-107371956D01*
X128928387Y-107381921D01*
X128906443Y-107389773D01*
X128883834Y-107395437D01*
X128860779Y-107398856D01*
X128837500Y-107400000D01*
X128362500Y-107400000D01*
X128339221Y-107398856D01*
X128316166Y-107395437D01*
X128293557Y-107389773D01*
X128271613Y-107381921D01*
X128250543Y-107371956D01*
X128230552Y-107359974D01*
X128211832Y-107346090D01*
X128194562Y-107330438D01*
X128178910Y-107313168D01*
X128165026Y-107294448D01*
X128153044Y-107274457D01*
X128143079Y-107253387D01*
X128135227Y-107231443D01*
X128129563Y-107208834D01*
X128126144Y-107185779D01*
X128125000Y-107162500D01*
X128125000Y-106587500D01*
X128126144Y-106564221D01*
X128129563Y-106541166D01*
X128135227Y-106518557D01*
X128143079Y-106496613D01*
X128153044Y-106475543D01*
X128165026Y-106455552D01*
X128178910Y-106436832D01*
X128194562Y-106419562D01*
X128211832Y-106403910D01*
X128230552Y-106390026D01*
X128250543Y-106378044D01*
X128271613Y-106368079D01*
X128293557Y-106360227D01*
X128316166Y-106354563D01*
X128339221Y-106351144D01*
X128362500Y-106350000D01*
X128837500Y-106350000D01*
X128860779Y-106351144D01*
G37*
G04 #@! TD.AperFunction*
G04 #@! TA.AperFunction,SMDPad,CuDef*
G36*
X128860779Y-104601144D02*
G01*
X128883834Y-104604563D01*
X128906443Y-104610227D01*
X128928387Y-104618079D01*
X128949457Y-104628044D01*
X128969448Y-104640026D01*
X128988168Y-104653910D01*
X129005438Y-104669562D01*
X129021090Y-104686832D01*
X129034974Y-104705552D01*
X129046956Y-104725543D01*
X129056921Y-104746613D01*
X129064773Y-104768557D01*
X129070437Y-104791166D01*
X129073856Y-104814221D01*
X129075000Y-104837500D01*
X129075000Y-105412500D01*
X129073856Y-105435779D01*
X129070437Y-105458834D01*
X129064773Y-105481443D01*
X129056921Y-105503387D01*
X129046956Y-105524457D01*
X129034974Y-105544448D01*
X129021090Y-105563168D01*
X129005438Y-105580438D01*
X128988168Y-105596090D01*
X128969448Y-105609974D01*
X128949457Y-105621956D01*
X128928387Y-105631921D01*
X128906443Y-105639773D01*
X128883834Y-105645437D01*
X128860779Y-105648856D01*
X128837500Y-105650000D01*
X128362500Y-105650000D01*
X128339221Y-105648856D01*
X128316166Y-105645437D01*
X128293557Y-105639773D01*
X128271613Y-105631921D01*
X128250543Y-105621956D01*
X128230552Y-105609974D01*
X128211832Y-105596090D01*
X128194562Y-105580438D01*
X128178910Y-105563168D01*
X128165026Y-105544448D01*
X128153044Y-105524457D01*
X128143079Y-105503387D01*
X128135227Y-105481443D01*
X128129563Y-105458834D01*
X128126144Y-105435779D01*
X128125000Y-105412500D01*
X128125000Y-104837500D01*
X128126144Y-104814221D01*
X128129563Y-104791166D01*
X128135227Y-104768557D01*
X128143079Y-104746613D01*
X128153044Y-104725543D01*
X128165026Y-104705552D01*
X128178910Y-104686832D01*
X128194562Y-104669562D01*
X128211832Y-104653910D01*
X128230552Y-104640026D01*
X128250543Y-104628044D01*
X128271613Y-104618079D01*
X128293557Y-104610227D01*
X128316166Y-104604563D01*
X128339221Y-104601144D01*
X128362500Y-104600000D01*
X128837500Y-104600000D01*
X128860779Y-104601144D01*
G37*
G04 #@! TD.AperFunction*
G04 #@! TA.AperFunction,SMDPad,CuDef*
G36*
X125335779Y-108276144D02*
G01*
X125358834Y-108279563D01*
X125381443Y-108285227D01*
X125403387Y-108293079D01*
X125424457Y-108303044D01*
X125444448Y-108315026D01*
X125463168Y-108328910D01*
X125480438Y-108344562D01*
X125496090Y-108361832D01*
X125509974Y-108380552D01*
X125521956Y-108400543D01*
X125531921Y-108421613D01*
X125539773Y-108443557D01*
X125545437Y-108466166D01*
X125548856Y-108489221D01*
X125550000Y-108512500D01*
X125550000Y-108987500D01*
X125548856Y-109010779D01*
X125545437Y-109033834D01*
X125539773Y-109056443D01*
X125531921Y-109078387D01*
X125521956Y-109099457D01*
X125509974Y-109119448D01*
X125496090Y-109138168D01*
X125480438Y-109155438D01*
X125463168Y-109171090D01*
X125444448Y-109184974D01*
X125424457Y-109196956D01*
X125403387Y-109206921D01*
X125381443Y-109214773D01*
X125358834Y-109220437D01*
X125335779Y-109223856D01*
X125312500Y-109225000D01*
X124737500Y-109225000D01*
X124714221Y-109223856D01*
X124691166Y-109220437D01*
X124668557Y-109214773D01*
X124646613Y-109206921D01*
X124625543Y-109196956D01*
X124605552Y-109184974D01*
X124586832Y-109171090D01*
X124569562Y-109155438D01*
X124553910Y-109138168D01*
X124540026Y-109119448D01*
X124528044Y-109099457D01*
X124518079Y-109078387D01*
X124510227Y-109056443D01*
X124504563Y-109033834D01*
X124501144Y-109010779D01*
X124500000Y-108987500D01*
X124500000Y-108512500D01*
X124501144Y-108489221D01*
X124504563Y-108466166D01*
X124510227Y-108443557D01*
X124518079Y-108421613D01*
X124528044Y-108400543D01*
X124540026Y-108380552D01*
X124553910Y-108361832D01*
X124569562Y-108344562D01*
X124586832Y-108328910D01*
X124605552Y-108315026D01*
X124625543Y-108303044D01*
X124646613Y-108293079D01*
X124668557Y-108285227D01*
X124691166Y-108279563D01*
X124714221Y-108276144D01*
X124737500Y-108275000D01*
X125312500Y-108275000D01*
X125335779Y-108276144D01*
G37*
G04 #@! TD.AperFunction*
G04 #@! TA.AperFunction,SMDPad,CuDef*
G36*
X127085779Y-108276144D02*
G01*
X127108834Y-108279563D01*
X127131443Y-108285227D01*
X127153387Y-108293079D01*
X127174457Y-108303044D01*
X127194448Y-108315026D01*
X127213168Y-108328910D01*
X127230438Y-108344562D01*
X127246090Y-108361832D01*
X127259974Y-108380552D01*
X127271956Y-108400543D01*
X127281921Y-108421613D01*
X127289773Y-108443557D01*
X127295437Y-108466166D01*
X127298856Y-108489221D01*
X127300000Y-108512500D01*
X127300000Y-108987500D01*
X127298856Y-109010779D01*
X127295437Y-109033834D01*
X127289773Y-109056443D01*
X127281921Y-109078387D01*
X127271956Y-109099457D01*
X127259974Y-109119448D01*
X127246090Y-109138168D01*
X127230438Y-109155438D01*
X127213168Y-109171090D01*
X127194448Y-109184974D01*
X127174457Y-109196956D01*
X127153387Y-109206921D01*
X127131443Y-109214773D01*
X127108834Y-109220437D01*
X127085779Y-109223856D01*
X127062500Y-109225000D01*
X126487500Y-109225000D01*
X126464221Y-109223856D01*
X126441166Y-109220437D01*
X126418557Y-109214773D01*
X126396613Y-109206921D01*
X126375543Y-109196956D01*
X126355552Y-109184974D01*
X126336832Y-109171090D01*
X126319562Y-109155438D01*
X126303910Y-109138168D01*
X126290026Y-109119448D01*
X126278044Y-109099457D01*
X126268079Y-109078387D01*
X126260227Y-109056443D01*
X126254563Y-109033834D01*
X126251144Y-109010779D01*
X126250000Y-108987500D01*
X126250000Y-108512500D01*
X126251144Y-108489221D01*
X126254563Y-108466166D01*
X126260227Y-108443557D01*
X126268079Y-108421613D01*
X126278044Y-108400543D01*
X126290026Y-108380552D01*
X126303910Y-108361832D01*
X126319562Y-108344562D01*
X126336832Y-108328910D01*
X126355552Y-108315026D01*
X126375543Y-108303044D01*
X126396613Y-108293079D01*
X126418557Y-108285227D01*
X126441166Y-108279563D01*
X126464221Y-108276144D01*
X126487500Y-108275000D01*
X127062500Y-108275000D01*
X127085779Y-108276144D01*
G37*
G04 #@! TD.AperFunction*
D13*
X131100000Y-109950000D03*
X129100000Y-110900000D03*
X129100000Y-109000000D03*
D14*
X132400000Y-107150000D03*
X132400000Y-105050000D03*
D15*
X132750000Y-66650000D03*
X132750000Y-61650000D03*
X133000000Y-137400000D03*
X133000000Y-132400000D03*
D16*
X137250000Y-119930000D03*
X143250000Y-119930000D03*
X143250000Y-122470000D03*
X137250000Y-122470000D03*
G04 #@! TA.AperFunction,SMDPad,CuDef*
D11*
G36*
X143710779Y-124201144D02*
G01*
X143733834Y-124204563D01*
X143756443Y-124210227D01*
X143778387Y-124218079D01*
X143799457Y-124228044D01*
X143819448Y-124240026D01*
X143838168Y-124253910D01*
X143855438Y-124269562D01*
X143871090Y-124286832D01*
X143884974Y-124305552D01*
X143896956Y-124325543D01*
X143906921Y-124346613D01*
X143914773Y-124368557D01*
X143920437Y-124391166D01*
X143923856Y-124414221D01*
X143925000Y-124437500D01*
X143925000Y-125012500D01*
X143923856Y-125035779D01*
X143920437Y-125058834D01*
X143914773Y-125081443D01*
X143906921Y-125103387D01*
X143896956Y-125124457D01*
X143884974Y-125144448D01*
X143871090Y-125163168D01*
X143855438Y-125180438D01*
X143838168Y-125196090D01*
X143819448Y-125209974D01*
X143799457Y-125221956D01*
X143778387Y-125231921D01*
X143756443Y-125239773D01*
X143733834Y-125245437D01*
X143710779Y-125248856D01*
X143687500Y-125250000D01*
X143212500Y-125250000D01*
X143189221Y-125248856D01*
X143166166Y-125245437D01*
X143143557Y-125239773D01*
X143121613Y-125231921D01*
X143100543Y-125221956D01*
X143080552Y-125209974D01*
X143061832Y-125196090D01*
X143044562Y-125180438D01*
X143028910Y-125163168D01*
X143015026Y-125144448D01*
X143003044Y-125124457D01*
X142993079Y-125103387D01*
X142985227Y-125081443D01*
X142979563Y-125058834D01*
X142976144Y-125035779D01*
X142975000Y-125012500D01*
X142975000Y-124437500D01*
X142976144Y-124414221D01*
X142979563Y-124391166D01*
X142985227Y-124368557D01*
X142993079Y-124346613D01*
X143003044Y-124325543D01*
X143015026Y-124305552D01*
X143028910Y-124286832D01*
X143044562Y-124269562D01*
X143061832Y-124253910D01*
X143080552Y-124240026D01*
X143100543Y-124228044D01*
X143121613Y-124218079D01*
X143143557Y-124210227D01*
X143166166Y-124204563D01*
X143189221Y-124201144D01*
X143212500Y-124200000D01*
X143687500Y-124200000D01*
X143710779Y-124201144D01*
G37*
G04 #@! TD.AperFunction*
G04 #@! TA.AperFunction,SMDPad,CuDef*
G36*
X143710779Y-125951144D02*
G01*
X143733834Y-125954563D01*
X143756443Y-125960227D01*
X143778387Y-125968079D01*
X143799457Y-125978044D01*
X143819448Y-125990026D01*
X143838168Y-126003910D01*
X143855438Y-126019562D01*
X143871090Y-126036832D01*
X143884974Y-126055552D01*
X143896956Y-126075543D01*
X143906921Y-126096613D01*
X143914773Y-126118557D01*
X143920437Y-126141166D01*
X143923856Y-126164221D01*
X143925000Y-126187500D01*
X143925000Y-126762500D01*
X143923856Y-126785779D01*
X143920437Y-126808834D01*
X143914773Y-126831443D01*
X143906921Y-126853387D01*
X143896956Y-126874457D01*
X143884974Y-126894448D01*
X143871090Y-126913168D01*
X143855438Y-126930438D01*
X143838168Y-126946090D01*
X143819448Y-126959974D01*
X143799457Y-126971956D01*
X143778387Y-126981921D01*
X143756443Y-126989773D01*
X143733834Y-126995437D01*
X143710779Y-126998856D01*
X143687500Y-127000000D01*
X143212500Y-127000000D01*
X143189221Y-126998856D01*
X143166166Y-126995437D01*
X143143557Y-126989773D01*
X143121613Y-126981921D01*
X143100543Y-126971956D01*
X143080552Y-126959974D01*
X143061832Y-126946090D01*
X143044562Y-126930438D01*
X143028910Y-126913168D01*
X143015026Y-126894448D01*
X143003044Y-126874457D01*
X142993079Y-126853387D01*
X142985227Y-126831443D01*
X142979563Y-126808834D01*
X142976144Y-126785779D01*
X142975000Y-126762500D01*
X142975000Y-126187500D01*
X142976144Y-126164221D01*
X142979563Y-126141166D01*
X142985227Y-126118557D01*
X142993079Y-126096613D01*
X143003044Y-126075543D01*
X143015026Y-126055552D01*
X143028910Y-126036832D01*
X143044562Y-126019562D01*
X143061832Y-126003910D01*
X143080552Y-125990026D01*
X143100543Y-125978044D01*
X143121613Y-125968079D01*
X143143557Y-125960227D01*
X143166166Y-125954563D01*
X143189221Y-125951144D01*
X143212500Y-125950000D01*
X143687500Y-125950000D01*
X143710779Y-125951144D01*
G37*
G04 #@! TD.AperFunction*
D16*
X132900000Y-77730000D03*
X138900000Y-77730000D03*
X138900000Y-80270000D03*
X132900000Y-80270000D03*
G04 #@! TA.AperFunction,SMDPad,CuDef*
D11*
G36*
X141935779Y-78176144D02*
G01*
X141958834Y-78179563D01*
X141981443Y-78185227D01*
X142003387Y-78193079D01*
X142024457Y-78203044D01*
X142044448Y-78215026D01*
X142063168Y-78228910D01*
X142080438Y-78244562D01*
X142096090Y-78261832D01*
X142109974Y-78280552D01*
X142121956Y-78300543D01*
X142131921Y-78321613D01*
X142139773Y-78343557D01*
X142145437Y-78366166D01*
X142148856Y-78389221D01*
X142150000Y-78412500D01*
X142150000Y-78887500D01*
X142148856Y-78910779D01*
X142145437Y-78933834D01*
X142139773Y-78956443D01*
X142131921Y-78978387D01*
X142121956Y-78999457D01*
X142109974Y-79019448D01*
X142096090Y-79038168D01*
X142080438Y-79055438D01*
X142063168Y-79071090D01*
X142044448Y-79084974D01*
X142024457Y-79096956D01*
X142003387Y-79106921D01*
X141981443Y-79114773D01*
X141958834Y-79120437D01*
X141935779Y-79123856D01*
X141912500Y-79125000D01*
X141337500Y-79125000D01*
X141314221Y-79123856D01*
X141291166Y-79120437D01*
X141268557Y-79114773D01*
X141246613Y-79106921D01*
X141225543Y-79096956D01*
X141205552Y-79084974D01*
X141186832Y-79071090D01*
X141169562Y-79055438D01*
X141153910Y-79038168D01*
X141140026Y-79019448D01*
X141128044Y-78999457D01*
X141118079Y-78978387D01*
X141110227Y-78956443D01*
X141104563Y-78933834D01*
X141101144Y-78910779D01*
X141100000Y-78887500D01*
X141100000Y-78412500D01*
X141101144Y-78389221D01*
X141104563Y-78366166D01*
X141110227Y-78343557D01*
X141118079Y-78321613D01*
X141128044Y-78300543D01*
X141140026Y-78280552D01*
X141153910Y-78261832D01*
X141169562Y-78244562D01*
X141186832Y-78228910D01*
X141205552Y-78215026D01*
X141225543Y-78203044D01*
X141246613Y-78193079D01*
X141268557Y-78185227D01*
X141291166Y-78179563D01*
X141314221Y-78176144D01*
X141337500Y-78175000D01*
X141912500Y-78175000D01*
X141935779Y-78176144D01*
G37*
G04 #@! TD.AperFunction*
G04 #@! TA.AperFunction,SMDPad,CuDef*
G36*
X143685779Y-78176144D02*
G01*
X143708834Y-78179563D01*
X143731443Y-78185227D01*
X143753387Y-78193079D01*
X143774457Y-78203044D01*
X143794448Y-78215026D01*
X143813168Y-78228910D01*
X143830438Y-78244562D01*
X143846090Y-78261832D01*
X143859974Y-78280552D01*
X143871956Y-78300543D01*
X143881921Y-78321613D01*
X143889773Y-78343557D01*
X143895437Y-78366166D01*
X143898856Y-78389221D01*
X143900000Y-78412500D01*
X143900000Y-78887500D01*
X143898856Y-78910779D01*
X143895437Y-78933834D01*
X143889773Y-78956443D01*
X143881921Y-78978387D01*
X143871956Y-78999457D01*
X143859974Y-79019448D01*
X143846090Y-79038168D01*
X143830438Y-79055438D01*
X143813168Y-79071090D01*
X143794448Y-79084974D01*
X143774457Y-79096956D01*
X143753387Y-79106921D01*
X143731443Y-79114773D01*
X143708834Y-79120437D01*
X143685779Y-79123856D01*
X143662500Y-79125000D01*
X143087500Y-79125000D01*
X143064221Y-79123856D01*
X143041166Y-79120437D01*
X143018557Y-79114773D01*
X142996613Y-79106921D01*
X142975543Y-79096956D01*
X142955552Y-79084974D01*
X142936832Y-79071090D01*
X142919562Y-79055438D01*
X142903910Y-79038168D01*
X142890026Y-79019448D01*
X142878044Y-78999457D01*
X142868079Y-78978387D01*
X142860227Y-78956443D01*
X142854563Y-78933834D01*
X142851144Y-78910779D01*
X142850000Y-78887500D01*
X142850000Y-78412500D01*
X142851144Y-78389221D01*
X142854563Y-78366166D01*
X142860227Y-78343557D01*
X142868079Y-78321613D01*
X142878044Y-78300543D01*
X142890026Y-78280552D01*
X142903910Y-78261832D01*
X142919562Y-78244562D01*
X142936832Y-78228910D01*
X142955552Y-78215026D01*
X142975543Y-78203044D01*
X142996613Y-78193079D01*
X143018557Y-78185227D01*
X143041166Y-78179563D01*
X143064221Y-78176144D01*
X143087500Y-78175000D01*
X143662500Y-78175000D01*
X143685779Y-78176144D01*
G37*
G04 #@! TD.AperFunction*
G04 #@! TA.AperFunction,SMDPad,CuDef*
G36*
X126999504Y-105976204D02*
G01*
X127023773Y-105979804D01*
X127047571Y-105985765D01*
X127070671Y-105994030D01*
X127092849Y-106004520D01*
X127113893Y-106017133D01*
X127133598Y-106031747D01*
X127151777Y-106048223D01*
X127168253Y-106066402D01*
X127182867Y-106086107D01*
X127195480Y-106107151D01*
X127205970Y-106129329D01*
X127214235Y-106152429D01*
X127220196Y-106176227D01*
X127223796Y-106200496D01*
X127225000Y-106225000D01*
X127225000Y-107150000D01*
X127223796Y-107174504D01*
X127220196Y-107198773D01*
X127214235Y-107222571D01*
X127205970Y-107245671D01*
X127195480Y-107267849D01*
X127182867Y-107288893D01*
X127168253Y-107308598D01*
X127151777Y-107326777D01*
X127133598Y-107343253D01*
X127113893Y-107357867D01*
X127092849Y-107370480D01*
X127070671Y-107380970D01*
X127047571Y-107389235D01*
X127023773Y-107395196D01*
X126999504Y-107398796D01*
X126975000Y-107400000D01*
X124825000Y-107400000D01*
X124800496Y-107398796D01*
X124776227Y-107395196D01*
X124752429Y-107389235D01*
X124729329Y-107380970D01*
X124707151Y-107370480D01*
X124686107Y-107357867D01*
X124666402Y-107343253D01*
X124648223Y-107326777D01*
X124631747Y-107308598D01*
X124617133Y-107288893D01*
X124604520Y-107267849D01*
X124594030Y-107245671D01*
X124585765Y-107222571D01*
X124579804Y-107198773D01*
X124576204Y-107174504D01*
X124575000Y-107150000D01*
X124575000Y-106225000D01*
X124576204Y-106200496D01*
X124579804Y-106176227D01*
X124585765Y-106152429D01*
X124594030Y-106129329D01*
X124604520Y-106107151D01*
X124617133Y-106086107D01*
X124631747Y-106066402D01*
X124648223Y-106048223D01*
X124666402Y-106031747D01*
X124686107Y-106017133D01*
X124707151Y-106004520D01*
X124729329Y-105994030D01*
X124752429Y-105985765D01*
X124776227Y-105979804D01*
X124800496Y-105976204D01*
X124825000Y-105975000D01*
X126975000Y-105975000D01*
X126999504Y-105976204D01*
G37*
G04 #@! TD.AperFunction*
G04 #@! TA.AperFunction,SMDPad,CuDef*
G36*
X126999504Y-103001204D02*
G01*
X127023773Y-103004804D01*
X127047571Y-103010765D01*
X127070671Y-103019030D01*
X127092849Y-103029520D01*
X127113893Y-103042133D01*
X127133598Y-103056747D01*
X127151777Y-103073223D01*
X127168253Y-103091402D01*
X127182867Y-103111107D01*
X127195480Y-103132151D01*
X127205970Y-103154329D01*
X127214235Y-103177429D01*
X127220196Y-103201227D01*
X127223796Y-103225496D01*
X127225000Y-103250000D01*
X127225000Y-104175000D01*
X127223796Y-104199504D01*
X127220196Y-104223773D01*
X127214235Y-104247571D01*
X127205970Y-104270671D01*
X127195480Y-104292849D01*
X127182867Y-104313893D01*
X127168253Y-104333598D01*
X127151777Y-104351777D01*
X127133598Y-104368253D01*
X127113893Y-104382867D01*
X127092849Y-104395480D01*
X127070671Y-104405970D01*
X127047571Y-104414235D01*
X127023773Y-104420196D01*
X126999504Y-104423796D01*
X126975000Y-104425000D01*
X124825000Y-104425000D01*
X124800496Y-104423796D01*
X124776227Y-104420196D01*
X124752429Y-104414235D01*
X124729329Y-104405970D01*
X124707151Y-104395480D01*
X124686107Y-104382867D01*
X124666402Y-104368253D01*
X124648223Y-104351777D01*
X124631747Y-104333598D01*
X124617133Y-104313893D01*
X124604520Y-104292849D01*
X124594030Y-104270671D01*
X124585765Y-104247571D01*
X124579804Y-104223773D01*
X124576204Y-104199504D01*
X124575000Y-104175000D01*
X124575000Y-103250000D01*
X124576204Y-103225496D01*
X124579804Y-103201227D01*
X124585765Y-103177429D01*
X124594030Y-103154329D01*
X124604520Y-103132151D01*
X124617133Y-103111107D01*
X124631747Y-103091402D01*
X124648223Y-103073223D01*
X124666402Y-103056747D01*
X124686107Y-103042133D01*
X124707151Y-103029520D01*
X124729329Y-103019030D01*
X124752429Y-103010765D01*
X124776227Y-103004804D01*
X124800496Y-103001204D01*
X124825000Y-103000000D01*
X126975000Y-103000000D01*
X126999504Y-103001204D01*
G37*
G04 #@! TD.AperFunction*
G04 #@! TA.AperFunction,SMDPad,CuDef*
G36*
X124149505Y-78126204D02*
G01*
X124173773Y-78129804D01*
X124197572Y-78135765D01*
X124220671Y-78144030D01*
X124242850Y-78154520D01*
X124263893Y-78167132D01*
X124283599Y-78181747D01*
X124301777Y-78198223D01*
X124318253Y-78216401D01*
X124332868Y-78236107D01*
X124345480Y-78257150D01*
X124355970Y-78279329D01*
X124364235Y-78302428D01*
X124370196Y-78326227D01*
X124373796Y-78350495D01*
X124375000Y-78374999D01*
X124375000Y-79400001D01*
X124373796Y-79424505D01*
X124370196Y-79448773D01*
X124364235Y-79472572D01*
X124355970Y-79495671D01*
X124345480Y-79517850D01*
X124332868Y-79538893D01*
X124318253Y-79558599D01*
X124301777Y-79576777D01*
X124283599Y-79593253D01*
X124263893Y-79607868D01*
X124242850Y-79620480D01*
X124220671Y-79630970D01*
X124197572Y-79639235D01*
X124173773Y-79645196D01*
X124149505Y-79648796D01*
X124125001Y-79650000D01*
X121274999Y-79650000D01*
X121250495Y-79648796D01*
X121226227Y-79645196D01*
X121202428Y-79639235D01*
X121179329Y-79630970D01*
X121157150Y-79620480D01*
X121136107Y-79607868D01*
X121116401Y-79593253D01*
X121098223Y-79576777D01*
X121081747Y-79558599D01*
X121067132Y-79538893D01*
X121054520Y-79517850D01*
X121044030Y-79495671D01*
X121035765Y-79472572D01*
X121029804Y-79448773D01*
X121026204Y-79424505D01*
X121025000Y-79400001D01*
X121025000Y-78374999D01*
X121026204Y-78350495D01*
X121029804Y-78326227D01*
X121035765Y-78302428D01*
X121044030Y-78279329D01*
X121054520Y-78257150D01*
X121067132Y-78236107D01*
X121081747Y-78216401D01*
X121098223Y-78198223D01*
X121116401Y-78181747D01*
X121136107Y-78167132D01*
X121157150Y-78154520D01*
X121179329Y-78144030D01*
X121202428Y-78135765D01*
X121226227Y-78129804D01*
X121250495Y-78126204D01*
X121274999Y-78125000D01*
X124125001Y-78125000D01*
X124149505Y-78126204D01*
G37*
G04 #@! TD.AperFunction*
G04 #@! TA.AperFunction,SMDPad,CuDef*
G36*
X124149505Y-72151204D02*
G01*
X124173773Y-72154804D01*
X124197572Y-72160765D01*
X124220671Y-72169030D01*
X124242850Y-72179520D01*
X124263893Y-72192132D01*
X124283599Y-72206747D01*
X124301777Y-72223223D01*
X124318253Y-72241401D01*
X124332868Y-72261107D01*
X124345480Y-72282150D01*
X124355970Y-72304329D01*
X124364235Y-72327428D01*
X124370196Y-72351227D01*
X124373796Y-72375495D01*
X124375000Y-72399999D01*
X124375000Y-73425001D01*
X124373796Y-73449505D01*
X124370196Y-73473773D01*
X124364235Y-73497572D01*
X124355970Y-73520671D01*
X124345480Y-73542850D01*
X124332868Y-73563893D01*
X124318253Y-73583599D01*
X124301777Y-73601777D01*
X124283599Y-73618253D01*
X124263893Y-73632868D01*
X124242850Y-73645480D01*
X124220671Y-73655970D01*
X124197572Y-73664235D01*
X124173773Y-73670196D01*
X124149505Y-73673796D01*
X124125001Y-73675000D01*
X121274999Y-73675000D01*
X121250495Y-73673796D01*
X121226227Y-73670196D01*
X121202428Y-73664235D01*
X121179329Y-73655970D01*
X121157150Y-73645480D01*
X121136107Y-73632868D01*
X121116401Y-73618253D01*
X121098223Y-73601777D01*
X121081747Y-73583599D01*
X121067132Y-73563893D01*
X121054520Y-73542850D01*
X121044030Y-73520671D01*
X121035765Y-73497572D01*
X121029804Y-73473773D01*
X121026204Y-73449505D01*
X121025000Y-73425001D01*
X121025000Y-72399999D01*
X121026204Y-72375495D01*
X121029804Y-72351227D01*
X121035765Y-72327428D01*
X121044030Y-72304329D01*
X121054520Y-72282150D01*
X121067132Y-72261107D01*
X121081747Y-72241401D01*
X121098223Y-72223223D01*
X121116401Y-72206747D01*
X121136107Y-72192132D01*
X121157150Y-72179520D01*
X121179329Y-72169030D01*
X121202428Y-72160765D01*
X121226227Y-72154804D01*
X121250495Y-72151204D01*
X121274999Y-72150000D01*
X124125001Y-72150000D01*
X124149505Y-72151204D01*
G37*
G04 #@! TD.AperFunction*
G04 #@! TA.AperFunction,SMDPad,CuDef*
G36*
X130660779Y-104601144D02*
G01*
X130683834Y-104604563D01*
X130706443Y-104610227D01*
X130728387Y-104618079D01*
X130749457Y-104628044D01*
X130769448Y-104640026D01*
X130788168Y-104653910D01*
X130805438Y-104669562D01*
X130821090Y-104686832D01*
X130834974Y-104705552D01*
X130846956Y-104725543D01*
X130856921Y-104746613D01*
X130864773Y-104768557D01*
X130870437Y-104791166D01*
X130873856Y-104814221D01*
X130875000Y-104837500D01*
X130875000Y-105412500D01*
X130873856Y-105435779D01*
X130870437Y-105458834D01*
X130864773Y-105481443D01*
X130856921Y-105503387D01*
X130846956Y-105524457D01*
X130834974Y-105544448D01*
X130821090Y-105563168D01*
X130805438Y-105580438D01*
X130788168Y-105596090D01*
X130769448Y-105609974D01*
X130749457Y-105621956D01*
X130728387Y-105631921D01*
X130706443Y-105639773D01*
X130683834Y-105645437D01*
X130660779Y-105648856D01*
X130637500Y-105650000D01*
X130162500Y-105650000D01*
X130139221Y-105648856D01*
X130116166Y-105645437D01*
X130093557Y-105639773D01*
X130071613Y-105631921D01*
X130050543Y-105621956D01*
X130030552Y-105609974D01*
X130011832Y-105596090D01*
X129994562Y-105580438D01*
X129978910Y-105563168D01*
X129965026Y-105544448D01*
X129953044Y-105524457D01*
X129943079Y-105503387D01*
X129935227Y-105481443D01*
X129929563Y-105458834D01*
X129926144Y-105435779D01*
X129925000Y-105412500D01*
X129925000Y-104837500D01*
X129926144Y-104814221D01*
X129929563Y-104791166D01*
X129935227Y-104768557D01*
X129943079Y-104746613D01*
X129953044Y-104725543D01*
X129965026Y-104705552D01*
X129978910Y-104686832D01*
X129994562Y-104669562D01*
X130011832Y-104653910D01*
X130030552Y-104640026D01*
X130050543Y-104628044D01*
X130071613Y-104618079D01*
X130093557Y-104610227D01*
X130116166Y-104604563D01*
X130139221Y-104601144D01*
X130162500Y-104600000D01*
X130637500Y-104600000D01*
X130660779Y-104601144D01*
G37*
G04 #@! TD.AperFunction*
G04 #@! TA.AperFunction,SMDPad,CuDef*
G36*
X130660779Y-106351144D02*
G01*
X130683834Y-106354563D01*
X130706443Y-106360227D01*
X130728387Y-106368079D01*
X130749457Y-106378044D01*
X130769448Y-106390026D01*
X130788168Y-106403910D01*
X130805438Y-106419562D01*
X130821090Y-106436832D01*
X130834974Y-106455552D01*
X130846956Y-106475543D01*
X130856921Y-106496613D01*
X130864773Y-106518557D01*
X130870437Y-106541166D01*
X130873856Y-106564221D01*
X130875000Y-106587500D01*
X130875000Y-107162500D01*
X130873856Y-107185779D01*
X130870437Y-107208834D01*
X130864773Y-107231443D01*
X130856921Y-107253387D01*
X130846956Y-107274457D01*
X130834974Y-107294448D01*
X130821090Y-107313168D01*
X130805438Y-107330438D01*
X130788168Y-107346090D01*
X130769448Y-107359974D01*
X130749457Y-107371956D01*
X130728387Y-107381921D01*
X130706443Y-107389773D01*
X130683834Y-107395437D01*
X130660779Y-107398856D01*
X130637500Y-107400000D01*
X130162500Y-107400000D01*
X130139221Y-107398856D01*
X130116166Y-107395437D01*
X130093557Y-107389773D01*
X130071613Y-107381921D01*
X130050543Y-107371956D01*
X130030552Y-107359974D01*
X130011832Y-107346090D01*
X129994562Y-107330438D01*
X129978910Y-107313168D01*
X129965026Y-107294448D01*
X129953044Y-107274457D01*
X129943079Y-107253387D01*
X129935227Y-107231443D01*
X129929563Y-107208834D01*
X129926144Y-107185779D01*
X129925000Y-107162500D01*
X129925000Y-106587500D01*
X129926144Y-106564221D01*
X129929563Y-106541166D01*
X129935227Y-106518557D01*
X129943079Y-106496613D01*
X129953044Y-106475543D01*
X129965026Y-106455552D01*
X129978910Y-106436832D01*
X129994562Y-106419562D01*
X130011832Y-106403910D01*
X130030552Y-106390026D01*
X130050543Y-106378044D01*
X130071613Y-106368079D01*
X130093557Y-106360227D01*
X130116166Y-106354563D01*
X130139221Y-106351144D01*
X130162500Y-106350000D01*
X130637500Y-106350000D01*
X130660779Y-106351144D01*
G37*
G04 #@! TD.AperFunction*
D13*
X141700000Y-73800000D03*
X143700000Y-72850000D03*
X143700000Y-74750000D03*
X143200000Y-116550000D03*
X141200000Y-117500000D03*
X141200000Y-115600000D03*
D17*
X141800000Y-102300000D03*
G04 #@! TA.AperFunction,ComponentPad*
D11*
G36*
X140174505Y-101426204D02*
G01*
X140198773Y-101429804D01*
X140222572Y-101435765D01*
X140245671Y-101444030D01*
X140267850Y-101454520D01*
X140288893Y-101467132D01*
X140308599Y-101481747D01*
X140326777Y-101498223D01*
X140343253Y-101516401D01*
X140357868Y-101536107D01*
X140370480Y-101557150D01*
X140380970Y-101579329D01*
X140389235Y-101602428D01*
X140395196Y-101626227D01*
X140398796Y-101650495D01*
X140400000Y-101674999D01*
X140400000Y-102925001D01*
X140398796Y-102949505D01*
X140395196Y-102973773D01*
X140389235Y-102997572D01*
X140380970Y-103020671D01*
X140370480Y-103042850D01*
X140357868Y-103063893D01*
X140343253Y-103083599D01*
X140326777Y-103101777D01*
X140308599Y-103118253D01*
X140288893Y-103132868D01*
X140267850Y-103145480D01*
X140245671Y-103155970D01*
X140222572Y-103164235D01*
X140198773Y-103170196D01*
X140174505Y-103173796D01*
X140150001Y-103175000D01*
X139449999Y-103175000D01*
X139425495Y-103173796D01*
X139401227Y-103170196D01*
X139377428Y-103164235D01*
X139354329Y-103155970D01*
X139332150Y-103145480D01*
X139311107Y-103132868D01*
X139291401Y-103118253D01*
X139273223Y-103101777D01*
X139256747Y-103083599D01*
X139242132Y-103063893D01*
X139229520Y-103042850D01*
X139219030Y-103020671D01*
X139210765Y-102997572D01*
X139204804Y-102973773D01*
X139201204Y-102949505D01*
X139200000Y-102925001D01*
X139200000Y-101674999D01*
X139201204Y-101650495D01*
X139204804Y-101626227D01*
X139210765Y-101602428D01*
X139219030Y-101579329D01*
X139229520Y-101557150D01*
X139242132Y-101536107D01*
X139256747Y-101516401D01*
X139273223Y-101498223D01*
X139291401Y-101481747D01*
X139311107Y-101467132D01*
X139332150Y-101454520D01*
X139354329Y-101444030D01*
X139377428Y-101435765D01*
X139401227Y-101429804D01*
X139425495Y-101426204D01*
X139449999Y-101425000D01*
X140150001Y-101425000D01*
X140174505Y-101426204D01*
G37*
G04 #@! TD.AperFunction*
D17*
X139600000Y-85300000D03*
G04 #@! TA.AperFunction,ComponentPad*
D11*
G36*
X141974505Y-84426204D02*
G01*
X141998773Y-84429804D01*
X142022572Y-84435765D01*
X142045671Y-84444030D01*
X142067850Y-84454520D01*
X142088893Y-84467132D01*
X142108599Y-84481747D01*
X142126777Y-84498223D01*
X142143253Y-84516401D01*
X142157868Y-84536107D01*
X142170480Y-84557150D01*
X142180970Y-84579329D01*
X142189235Y-84602428D01*
X142195196Y-84626227D01*
X142198796Y-84650495D01*
X142200000Y-84674999D01*
X142200000Y-85925001D01*
X142198796Y-85949505D01*
X142195196Y-85973773D01*
X142189235Y-85997572D01*
X142180970Y-86020671D01*
X142170480Y-86042850D01*
X142157868Y-86063893D01*
X142143253Y-86083599D01*
X142126777Y-86101777D01*
X142108599Y-86118253D01*
X142088893Y-86132868D01*
X142067850Y-86145480D01*
X142045671Y-86155970D01*
X142022572Y-86164235D01*
X141998773Y-86170196D01*
X141974505Y-86173796D01*
X141950001Y-86175000D01*
X141249999Y-86175000D01*
X141225495Y-86173796D01*
X141201227Y-86170196D01*
X141177428Y-86164235D01*
X141154329Y-86155970D01*
X141132150Y-86145480D01*
X141111107Y-86132868D01*
X141091401Y-86118253D01*
X141073223Y-86101777D01*
X141056747Y-86083599D01*
X141042132Y-86063893D01*
X141029520Y-86042850D01*
X141019030Y-86020671D01*
X141010765Y-85997572D01*
X141004804Y-85973773D01*
X141001204Y-85949505D01*
X141000000Y-85925001D01*
X141000000Y-84674999D01*
X141001204Y-84650495D01*
X141004804Y-84626227D01*
X141010765Y-84602428D01*
X141019030Y-84579329D01*
X141029520Y-84557150D01*
X141042132Y-84536107D01*
X141056747Y-84516401D01*
X141073223Y-84498223D01*
X141091401Y-84481747D01*
X141111107Y-84467132D01*
X141132150Y-84454520D01*
X141154329Y-84444030D01*
X141177428Y-84435765D01*
X141201227Y-84429804D01*
X141225495Y-84426204D01*
X141249999Y-84425000D01*
X141950001Y-84425000D01*
X141974505Y-84426204D01*
G37*
G04 #@! TD.AperFunction*
D17*
X141800000Y-109400000D03*
G04 #@! TA.AperFunction,ComponentPad*
D11*
G36*
X140174505Y-108526204D02*
G01*
X140198773Y-108529804D01*
X140222572Y-108535765D01*
X140245671Y-108544030D01*
X140267850Y-108554520D01*
X140288893Y-108567132D01*
X140308599Y-108581747D01*
X140326777Y-108598223D01*
X140343253Y-108616401D01*
X140357868Y-108636107D01*
X140370480Y-108657150D01*
X140380970Y-108679329D01*
X140389235Y-108702428D01*
X140395196Y-108726227D01*
X140398796Y-108750495D01*
X140400000Y-108774999D01*
X140400000Y-110025001D01*
X140398796Y-110049505D01*
X140395196Y-110073773D01*
X140389235Y-110097572D01*
X140380970Y-110120671D01*
X140370480Y-110142850D01*
X140357868Y-110163893D01*
X140343253Y-110183599D01*
X140326777Y-110201777D01*
X140308599Y-110218253D01*
X140288893Y-110232868D01*
X140267850Y-110245480D01*
X140245671Y-110255970D01*
X140222572Y-110264235D01*
X140198773Y-110270196D01*
X140174505Y-110273796D01*
X140150001Y-110275000D01*
X139449999Y-110275000D01*
X139425495Y-110273796D01*
X139401227Y-110270196D01*
X139377428Y-110264235D01*
X139354329Y-110255970D01*
X139332150Y-110245480D01*
X139311107Y-110232868D01*
X139291401Y-110218253D01*
X139273223Y-110201777D01*
X139256747Y-110183599D01*
X139242132Y-110163893D01*
X139229520Y-110142850D01*
X139219030Y-110120671D01*
X139210765Y-110097572D01*
X139204804Y-110073773D01*
X139201204Y-110049505D01*
X139200000Y-110025001D01*
X139200000Y-108774999D01*
X139201204Y-108750495D01*
X139204804Y-108726227D01*
X139210765Y-108702428D01*
X139219030Y-108679329D01*
X139229520Y-108657150D01*
X139242132Y-108636107D01*
X139256747Y-108616401D01*
X139273223Y-108598223D01*
X139291401Y-108581747D01*
X139311107Y-108567132D01*
X139332150Y-108554520D01*
X139354329Y-108544030D01*
X139377428Y-108535765D01*
X139401227Y-108529804D01*
X139425495Y-108526204D01*
X139449999Y-108525000D01*
X140150001Y-108525000D01*
X140174505Y-108526204D01*
G37*
G04 #@! TD.AperFunction*
D18*
X130250000Y-78700000D03*
X128150000Y-78700000D03*
X127900000Y-119450000D03*
X130000000Y-119450000D03*
G04 #@! TA.AperFunction,SMDPad,CuDef*
D11*
G36*
X125449505Y-124626204D02*
G01*
X125473773Y-124629804D01*
X125497572Y-124635765D01*
X125520671Y-124644030D01*
X125542850Y-124654520D01*
X125563893Y-124667132D01*
X125583599Y-124681747D01*
X125601777Y-124698223D01*
X125618253Y-124716401D01*
X125632868Y-124736107D01*
X125645480Y-124757150D01*
X125655970Y-124779329D01*
X125664235Y-124802428D01*
X125670196Y-124826227D01*
X125673796Y-124850495D01*
X125675000Y-124874999D01*
X125675000Y-125900001D01*
X125673796Y-125924505D01*
X125670196Y-125948773D01*
X125664235Y-125972572D01*
X125655970Y-125995671D01*
X125645480Y-126017850D01*
X125632868Y-126038893D01*
X125618253Y-126058599D01*
X125601777Y-126076777D01*
X125583599Y-126093253D01*
X125563893Y-126107868D01*
X125542850Y-126120480D01*
X125520671Y-126130970D01*
X125497572Y-126139235D01*
X125473773Y-126145196D01*
X125449505Y-126148796D01*
X125425001Y-126150000D01*
X122574999Y-126150000D01*
X122550495Y-126148796D01*
X122526227Y-126145196D01*
X122502428Y-126139235D01*
X122479329Y-126130970D01*
X122457150Y-126120480D01*
X122436107Y-126107868D01*
X122416401Y-126093253D01*
X122398223Y-126076777D01*
X122381747Y-126058599D01*
X122367132Y-126038893D01*
X122354520Y-126017850D01*
X122344030Y-125995671D01*
X122335765Y-125972572D01*
X122329804Y-125948773D01*
X122326204Y-125924505D01*
X122325000Y-125900001D01*
X122325000Y-124874999D01*
X122326204Y-124850495D01*
X122329804Y-124826227D01*
X122335765Y-124802428D01*
X122344030Y-124779329D01*
X122354520Y-124757150D01*
X122367132Y-124736107D01*
X122381747Y-124716401D01*
X122398223Y-124698223D01*
X122416401Y-124681747D01*
X122436107Y-124667132D01*
X122457150Y-124654520D01*
X122479329Y-124644030D01*
X122502428Y-124635765D01*
X122526227Y-124629804D01*
X122550495Y-124626204D01*
X122574999Y-124625000D01*
X125425001Y-124625000D01*
X125449505Y-124626204D01*
G37*
G04 #@! TD.AperFunction*
G04 #@! TA.AperFunction,SMDPad,CuDef*
G36*
X125449505Y-118651204D02*
G01*
X125473773Y-118654804D01*
X125497572Y-118660765D01*
X125520671Y-118669030D01*
X125542850Y-118679520D01*
X125563893Y-118692132D01*
X125583599Y-118706747D01*
X125601777Y-118723223D01*
X125618253Y-118741401D01*
X125632868Y-118761107D01*
X125645480Y-118782150D01*
X125655970Y-118804329D01*
X125664235Y-118827428D01*
X125670196Y-118851227D01*
X125673796Y-118875495D01*
X125675000Y-118899999D01*
X125675000Y-119925001D01*
X125673796Y-119949505D01*
X125670196Y-119973773D01*
X125664235Y-119997572D01*
X125655970Y-120020671D01*
X125645480Y-120042850D01*
X125632868Y-120063893D01*
X125618253Y-120083599D01*
X125601777Y-120101777D01*
X125583599Y-120118253D01*
X125563893Y-120132868D01*
X125542850Y-120145480D01*
X125520671Y-120155970D01*
X125497572Y-120164235D01*
X125473773Y-120170196D01*
X125449505Y-120173796D01*
X125425001Y-120175000D01*
X122574999Y-120175000D01*
X122550495Y-120173796D01*
X122526227Y-120170196D01*
X122502428Y-120164235D01*
X122479329Y-120155970D01*
X122457150Y-120145480D01*
X122436107Y-120132868D01*
X122416401Y-120118253D01*
X122398223Y-120101777D01*
X122381747Y-120083599D01*
X122367132Y-120063893D01*
X122354520Y-120042850D01*
X122344030Y-120020671D01*
X122335765Y-119997572D01*
X122329804Y-119973773D01*
X122326204Y-119949505D01*
X122325000Y-119925001D01*
X122325000Y-118899999D01*
X122326204Y-118875495D01*
X122329804Y-118851227D01*
X122335765Y-118827428D01*
X122344030Y-118804329D01*
X122354520Y-118782150D01*
X122367132Y-118761107D01*
X122381747Y-118741401D01*
X122398223Y-118723223D01*
X122416401Y-118706747D01*
X122436107Y-118692132D01*
X122457150Y-118679520D01*
X122479329Y-118669030D01*
X122502428Y-118660765D01*
X122526227Y-118654804D01*
X122550495Y-118651204D01*
X122574999Y-118650000D01*
X125425001Y-118650000D01*
X125449505Y-118651204D01*
G37*
G04 #@! TD.AperFunction*
D18*
X130250000Y-76250000D03*
X128150000Y-76250000D03*
D14*
X132650000Y-121600000D03*
X132650000Y-119500000D03*
D19*
X125000000Y-109900000D03*
X144000000Y-79800000D03*
X143500000Y-128200000D03*
X142500000Y-113900000D03*
X143100000Y-76500000D03*
X143200000Y-98700000D03*
X125900000Y-105600000D03*
D20*
X127312500Y-105125000D02*
X128600000Y-105125000D01*
X125900000Y-103712500D02*
X127312500Y-105125000D01*
X125025000Y-109875000D02*
X125000000Y-109900000D01*
X125025000Y-108750000D02*
X125025000Y-109875000D01*
X142975000Y-126475000D02*
X143450000Y-126475000D01*
X140605000Y-126475000D02*
X142975000Y-126475000D01*
X137250000Y-123120000D02*
X140605000Y-126475000D01*
X137250000Y-122470000D02*
X137250000Y-123120000D01*
D21*
X132600000Y-119450000D02*
X132650000Y-119500000D01*
X130000000Y-119450000D02*
X132600000Y-119450000D01*
X135620000Y-122470000D02*
X132650000Y-119500000D01*
X137250000Y-122470000D02*
X135620000Y-122470000D01*
D20*
X143375000Y-79175000D02*
X144000000Y-79800000D01*
X143375000Y-78650000D02*
X143375000Y-79175000D01*
X143500000Y-126525000D02*
X143450000Y-126475000D01*
X143500000Y-128200000D02*
X143500000Y-126525000D01*
D21*
X125987500Y-125387500D02*
X133000000Y-132400000D01*
X124000000Y-125387500D02*
X125987500Y-125387500D01*
X130162500Y-125387500D02*
X124000000Y-125387500D01*
X132650000Y-122900000D02*
X130162500Y-125387500D01*
X132650000Y-121600000D02*
X132650000Y-122900000D01*
X132750000Y-66650000D02*
X128150000Y-71250000D01*
X127712500Y-72912500D02*
X128100000Y-73300000D01*
X122700000Y-72912500D02*
X127712500Y-72912500D01*
X128100000Y-73300000D02*
X128150000Y-76250000D01*
X128150000Y-71250000D02*
X128100000Y-73300000D01*
X124050000Y-119362500D02*
X124000000Y-119412500D01*
X124050000Y-115000000D02*
X124050000Y-119362500D01*
X124037500Y-119450000D02*
X124000000Y-119412500D01*
X127900000Y-119450000D02*
X124037500Y-119450000D01*
D20*
X122450000Y-98900000D02*
X120900000Y-100450000D01*
X122975000Y-98900000D02*
X122450000Y-98900000D01*
X120900000Y-111850000D02*
X124050000Y-115000000D01*
X121100000Y-110900000D02*
X120900000Y-111100000D01*
X129100000Y-110900000D02*
X121100000Y-110900000D01*
X120900000Y-111100000D02*
X120900000Y-111850000D01*
X120900000Y-100450000D02*
X120900000Y-111100000D01*
D21*
X127962500Y-78887500D02*
X128150000Y-78700000D01*
X122700000Y-78887500D02*
X127962500Y-78887500D01*
X122700000Y-82600000D02*
X123300000Y-83200000D01*
X122700000Y-78887500D02*
X122700000Y-82600000D01*
X131270000Y-77700000D02*
X130300000Y-77700000D01*
X130300000Y-77700000D02*
X130250000Y-78700000D01*
X131300000Y-77730000D02*
X131270000Y-77700000D01*
X132900000Y-77730000D02*
X131300000Y-77730000D01*
X130250000Y-76250000D02*
X130300000Y-77700000D01*
X137250000Y-111950000D02*
X139800000Y-109400000D01*
X137250000Y-119930000D02*
X137250000Y-111950000D01*
X139800000Y-109400000D02*
X139800000Y-102300000D01*
X137930000Y-85300000D02*
X132900000Y-80270000D01*
X139600000Y-85300000D02*
X137930000Y-85300000D01*
D20*
X142500000Y-115000000D02*
X142500000Y-113900000D01*
X141900000Y-115600000D02*
X142500000Y-115000000D01*
X141200000Y-115600000D02*
X141900000Y-115600000D01*
X143100000Y-75350000D02*
X143700000Y-74750000D01*
X143100000Y-76500000D02*
X143100000Y-75350000D01*
X125900000Y-105600000D02*
X125900000Y-106687500D01*
X130400000Y-106875000D02*
X128600000Y-106875000D01*
X126087500Y-106875000D02*
X125900000Y-106687500D01*
X128600000Y-106875000D02*
X126087500Y-106875000D01*
X124825000Y-91950000D02*
X124775000Y-91900000D01*
X140425000Y-91950000D02*
X124825000Y-91950000D01*
X140980000Y-73800000D02*
X141700000Y-73800000D01*
X139100000Y-75680000D02*
X140980000Y-73800000D01*
X141000000Y-73800000D02*
X141700000Y-73800000D01*
X138900000Y-75900000D02*
X141000000Y-73800000D01*
X138900000Y-77730000D02*
X138900000Y-75900000D01*
X140480000Y-80270000D02*
X139750000Y-80270000D01*
X139750000Y-80270000D02*
X138900000Y-80270000D01*
X141625000Y-79125000D02*
X140480000Y-80270000D01*
X141625000Y-78650000D02*
X141625000Y-79125000D01*
X143250000Y-116600000D02*
X143200000Y-116550000D01*
X143250000Y-119930000D02*
X143250000Y-116600000D01*
X143450000Y-122670000D02*
X143250000Y-122470000D01*
X143450000Y-124725000D02*
X143450000Y-122670000D01*
X131800000Y-109950000D02*
X131100000Y-109950000D01*
X132400000Y-109350000D02*
X131800000Y-109950000D01*
X132400000Y-107150000D02*
X132400000Y-109350000D01*
X132325000Y-105125000D02*
X132400000Y-105050000D01*
X130400000Y-105125000D02*
X132325000Y-105125000D01*
X128850000Y-108750000D02*
X129100000Y-109000000D01*
X126775000Y-108750000D02*
X128850000Y-108750000D01*
X140375000Y-90900000D02*
X140425000Y-90950000D01*
X124775000Y-90900000D02*
X140375000Y-90900000D01*
X127880000Y-92900000D02*
X124775000Y-92900000D01*
X140375000Y-93900000D02*
X140425000Y-93950000D01*
X124775000Y-93900000D02*
X140375000Y-93900000D01*
X130470000Y-92950000D02*
X130420000Y-92900000D01*
X140425000Y-92950000D02*
X130470000Y-92950000D01*
X127880000Y-98900000D02*
X124725000Y-98900000D01*
D22*
G36*
X122544842Y-114569644D02*
G01*
X122536928Y-114649999D01*
X122536928Y-115350001D01*
X122553992Y-115523255D01*
X122604528Y-115689851D01*
X122686595Y-115843387D01*
X122797038Y-115977962D01*
X122915000Y-116074771D01*
X122915001Y-118011928D01*
X122574999Y-118011928D01*
X122401745Y-118028992D01*
X122235149Y-118079528D01*
X122081613Y-118161595D01*
X121947038Y-118272038D01*
X121836595Y-118406613D01*
X121754528Y-118560149D01*
X121703992Y-118726745D01*
X121686928Y-118899999D01*
X121686928Y-119925001D01*
X121703992Y-120098255D01*
X121754528Y-120264851D01*
X121836595Y-120418387D01*
X121947038Y-120552962D01*
X122081613Y-120663405D01*
X122235149Y-120745472D01*
X122401745Y-120796008D01*
X122574999Y-120813072D01*
X125425001Y-120813072D01*
X125598255Y-120796008D01*
X125764851Y-120745472D01*
X125918387Y-120663405D01*
X126013924Y-120585000D01*
X127955752Y-120585000D01*
X128122499Y-120568577D01*
X128336447Y-120503676D01*
X128533623Y-120398284D01*
X128706449Y-120256449D01*
X128848284Y-120083623D01*
X128950000Y-119893324D01*
X129051716Y-120083623D01*
X129193551Y-120256449D01*
X129366377Y-120398284D01*
X129563553Y-120503676D01*
X129777501Y-120568577D01*
X129944248Y-120585000D01*
X132129869Y-120585000D01*
X132133814Y-120588945D01*
X132016377Y-120651716D01*
X131843551Y-120793551D01*
X131701716Y-120966377D01*
X131596324Y-121163554D01*
X131531423Y-121377502D01*
X131515000Y-121544249D01*
X131515000Y-122429868D01*
X129692369Y-124252500D01*
X126057445Y-124252500D01*
X126052962Y-124247038D01*
X125918387Y-124136595D01*
X125764851Y-124054528D01*
X125598255Y-124003992D01*
X125425001Y-123986928D01*
X122574999Y-123986928D01*
X122401745Y-124003992D01*
X122235149Y-124054528D01*
X122081613Y-124136595D01*
X121947038Y-124247038D01*
X121836595Y-124381613D01*
X121754528Y-124535149D01*
X121703992Y-124701745D01*
X121686928Y-124874999D01*
X121686928Y-125900001D01*
X121703992Y-126073255D01*
X121754528Y-126239851D01*
X121836595Y-126393387D01*
X121947038Y-126527962D01*
X122081613Y-126638405D01*
X122235149Y-126720472D01*
X122401745Y-126771008D01*
X122574999Y-126788072D01*
X125425001Y-126788072D01*
X125598255Y-126771008D01*
X125726864Y-126731995D01*
X131572151Y-132577284D01*
X131620147Y-132818574D01*
X131728320Y-133079727D01*
X131885363Y-133314759D01*
X132085241Y-133514637D01*
X132320273Y-133671680D01*
X132581426Y-133779853D01*
X132858665Y-133835000D01*
X133141335Y-133835000D01*
X133418574Y-133779853D01*
X133679727Y-133671680D01*
X133914759Y-133514637D01*
X134114637Y-133314759D01*
X134271680Y-133079727D01*
X134379853Y-132818574D01*
X134435000Y-132541335D01*
X134435000Y-132258665D01*
X134379853Y-131981426D01*
X134271680Y-131720273D01*
X134114637Y-131485241D01*
X133914759Y-131285363D01*
X133679727Y-131128320D01*
X133418574Y-131020147D01*
X133177284Y-130972151D01*
X128727632Y-126522500D01*
X130106749Y-126522500D01*
X130162500Y-126527991D01*
X130218251Y-126522500D01*
X130218252Y-126522500D01*
X130384999Y-126506077D01*
X130598947Y-126441176D01*
X130796123Y-126335784D01*
X130968949Y-126193949D01*
X131004496Y-126150635D01*
X133413141Y-123741991D01*
X133456449Y-123706449D01*
X133598284Y-123533623D01*
X133703676Y-123336447D01*
X133768577Y-123122499D01*
X133785000Y-122955752D01*
X133785000Y-122955743D01*
X133790490Y-122900001D01*
X133785000Y-122844259D01*
X133785000Y-122240132D01*
X134778009Y-123233141D01*
X134813551Y-123276449D01*
X134986377Y-123418284D01*
X135183553Y-123523676D01*
X135397501Y-123588577D01*
X135564248Y-123605000D01*
X135564257Y-123605000D01*
X135619999Y-123610490D01*
X135675741Y-123605000D01*
X136664861Y-123605000D01*
X136669367Y-123610490D01*
X136710000Y-123660001D01*
X136738998Y-123683799D01*
X140041200Y-126986002D01*
X140064999Y-127015001D01*
X140093997Y-127038799D01*
X140180724Y-127109974D01*
X140312753Y-127180546D01*
X140456014Y-127224003D01*
X140605000Y-127238677D01*
X140642333Y-127235000D01*
X142477036Y-127235000D01*
X142484488Y-127248942D01*
X142593377Y-127381623D01*
X142726058Y-127490512D01*
X142738908Y-127497381D01*
X142696063Y-127540226D01*
X142582795Y-127709744D01*
X142504774Y-127898102D01*
X142465000Y-128098061D01*
X142465000Y-128301939D01*
X142504774Y-128501898D01*
X142582795Y-128690256D01*
X142696063Y-128859774D01*
X142840226Y-129003937D01*
X143009744Y-129117205D01*
X143198102Y-129195226D01*
X143398061Y-129235000D01*
X143601939Y-129235000D01*
X143801898Y-129195226D01*
X143990256Y-129117205D01*
X144159774Y-129003937D01*
X144303937Y-128859774D01*
X144340000Y-128805801D01*
X144340000Y-149340000D01*
X120660000Y-149340000D01*
X120660000Y-138392702D01*
X132186903Y-138392702D01*
X132258486Y-138636671D01*
X132513996Y-138757571D01*
X132788184Y-138826300D01*
X133070512Y-138840217D01*
X133350130Y-138798787D01*
X133616292Y-138703603D01*
X133741514Y-138636671D01*
X133813097Y-138392702D01*
X133000000Y-137579605D01*
X132186903Y-138392702D01*
X120660000Y-138392702D01*
X120660000Y-137470512D01*
X131559783Y-137470512D01*
X131601213Y-137750130D01*
X131696397Y-138016292D01*
X131763329Y-138141514D01*
X132007298Y-138213097D01*
X132820395Y-137400000D01*
X133179605Y-137400000D01*
X133992702Y-138213097D01*
X134236671Y-138141514D01*
X134357571Y-137886004D01*
X134426300Y-137611816D01*
X134440217Y-137329488D01*
X134398787Y-137049870D01*
X134303603Y-136783708D01*
X134236671Y-136658486D01*
X133992702Y-136586903D01*
X133179605Y-137400000D01*
X132820395Y-137400000D01*
X132007298Y-136586903D01*
X131763329Y-136658486D01*
X131642429Y-136913996D01*
X131573700Y-137188184D01*
X131559783Y-137470512D01*
X120660000Y-137470512D01*
X120660000Y-136407298D01*
X132186903Y-136407298D01*
X133000000Y-137220395D01*
X133813097Y-136407298D01*
X133741514Y-136163329D01*
X133486004Y-136042429D01*
X133211816Y-135973700D01*
X132929488Y-135959783D01*
X132649870Y-136001213D01*
X132383708Y-136096397D01*
X132258486Y-136163329D01*
X132186903Y-136407298D01*
X120660000Y-136407298D01*
X120660000Y-112684801D01*
X122544842Y-114569644D01*
G37*
X122544842Y-114569644D02*
X122536928Y-114649999D01*
X122536928Y-115350001D01*
X122553992Y-115523255D01*
X122604528Y-115689851D01*
X122686595Y-115843387D01*
X122797038Y-115977962D01*
X122915000Y-116074771D01*
X122915001Y-118011928D01*
X122574999Y-118011928D01*
X122401745Y-118028992D01*
X122235149Y-118079528D01*
X122081613Y-118161595D01*
X121947038Y-118272038D01*
X121836595Y-118406613D01*
X121754528Y-118560149D01*
X121703992Y-118726745D01*
X121686928Y-118899999D01*
X121686928Y-119925001D01*
X121703992Y-120098255D01*
X121754528Y-120264851D01*
X121836595Y-120418387D01*
X121947038Y-120552962D01*
X122081613Y-120663405D01*
X122235149Y-120745472D01*
X122401745Y-120796008D01*
X122574999Y-120813072D01*
X125425001Y-120813072D01*
X125598255Y-120796008D01*
X125764851Y-120745472D01*
X125918387Y-120663405D01*
X126013924Y-120585000D01*
X127955752Y-120585000D01*
X128122499Y-120568577D01*
X128336447Y-120503676D01*
X128533623Y-120398284D01*
X128706449Y-120256449D01*
X128848284Y-120083623D01*
X128950000Y-119893324D01*
X129051716Y-120083623D01*
X129193551Y-120256449D01*
X129366377Y-120398284D01*
X129563553Y-120503676D01*
X129777501Y-120568577D01*
X129944248Y-120585000D01*
X132129869Y-120585000D01*
X132133814Y-120588945D01*
X132016377Y-120651716D01*
X131843551Y-120793551D01*
X131701716Y-120966377D01*
X131596324Y-121163554D01*
X131531423Y-121377502D01*
X131515000Y-121544249D01*
X131515000Y-122429868D01*
X129692369Y-124252500D01*
X126057445Y-124252500D01*
X126052962Y-124247038D01*
X125918387Y-124136595D01*
X125764851Y-124054528D01*
X125598255Y-124003992D01*
X125425001Y-123986928D01*
X122574999Y-123986928D01*
X122401745Y-124003992D01*
X122235149Y-124054528D01*
X122081613Y-124136595D01*
X121947038Y-124247038D01*
X121836595Y-124381613D01*
X121754528Y-124535149D01*
X121703992Y-124701745D01*
X121686928Y-124874999D01*
X121686928Y-125900001D01*
X121703992Y-126073255D01*
X121754528Y-126239851D01*
X121836595Y-126393387D01*
X121947038Y-126527962D01*
X122081613Y-126638405D01*
X122235149Y-126720472D01*
X122401745Y-126771008D01*
X122574999Y-126788072D01*
X125425001Y-126788072D01*
X125598255Y-126771008D01*
X125726864Y-126731995D01*
X131572151Y-132577284D01*
X131620147Y-132818574D01*
X131728320Y-133079727D01*
X131885363Y-133314759D01*
X132085241Y-133514637D01*
X132320273Y-133671680D01*
X132581426Y-133779853D01*
X132858665Y-133835000D01*
X133141335Y-133835000D01*
X133418574Y-133779853D01*
X133679727Y-133671680D01*
X133914759Y-133514637D01*
X134114637Y-133314759D01*
X134271680Y-133079727D01*
X134379853Y-132818574D01*
X134435000Y-132541335D01*
X134435000Y-132258665D01*
X134379853Y-131981426D01*
X134271680Y-131720273D01*
X134114637Y-131485241D01*
X133914759Y-131285363D01*
X133679727Y-131128320D01*
X133418574Y-131020147D01*
X133177284Y-130972151D01*
X128727632Y-126522500D01*
X130106749Y-126522500D01*
X130162500Y-126527991D01*
X130218251Y-126522500D01*
X130218252Y-126522500D01*
X130384999Y-126506077D01*
X130598947Y-126441176D01*
X130796123Y-126335784D01*
X130968949Y-126193949D01*
X131004496Y-126150635D01*
X133413141Y-123741991D01*
X133456449Y-123706449D01*
X133598284Y-123533623D01*
X133703676Y-123336447D01*
X133768577Y-123122499D01*
X133785000Y-122955752D01*
X133785000Y-122955743D01*
X133790490Y-122900001D01*
X133785000Y-122844259D01*
X133785000Y-122240132D01*
X134778009Y-123233141D01*
X134813551Y-123276449D01*
X134986377Y-123418284D01*
X135183553Y-123523676D01*
X135397501Y-123588577D01*
X135564248Y-123605000D01*
X135564257Y-123605000D01*
X135619999Y-123610490D01*
X135675741Y-123605000D01*
X136664861Y-123605000D01*
X136669367Y-123610490D01*
X136710000Y-123660001D01*
X136738998Y-123683799D01*
X140041200Y-126986002D01*
X140064999Y-127015001D01*
X140093997Y-127038799D01*
X140180724Y-127109974D01*
X140312753Y-127180546D01*
X140456014Y-127224003D01*
X140605000Y-127238677D01*
X140642333Y-127235000D01*
X142477036Y-127235000D01*
X142484488Y-127248942D01*
X142593377Y-127381623D01*
X142726058Y-127490512D01*
X142738908Y-127497381D01*
X142696063Y-127540226D01*
X142582795Y-127709744D01*
X142504774Y-127898102D01*
X142465000Y-128098061D01*
X142465000Y-128301939D01*
X142504774Y-128501898D01*
X142582795Y-128690256D01*
X142696063Y-128859774D01*
X142840226Y-129003937D01*
X143009744Y-129117205D01*
X143198102Y-129195226D01*
X143398061Y-129235000D01*
X143601939Y-129235000D01*
X143801898Y-129195226D01*
X143990256Y-129117205D01*
X144159774Y-129003937D01*
X144303937Y-128859774D01*
X144340000Y-128805801D01*
X144340000Y-149340000D01*
X120660000Y-149340000D01*
X120660000Y-138392702D01*
X132186903Y-138392702D01*
X132258486Y-138636671D01*
X132513996Y-138757571D01*
X132788184Y-138826300D01*
X133070512Y-138840217D01*
X133350130Y-138798787D01*
X133616292Y-138703603D01*
X133741514Y-138636671D01*
X133813097Y-138392702D01*
X133000000Y-137579605D01*
X132186903Y-138392702D01*
X120660000Y-138392702D01*
X120660000Y-137470512D01*
X131559783Y-137470512D01*
X131601213Y-137750130D01*
X131696397Y-138016292D01*
X131763329Y-138141514D01*
X132007298Y-138213097D01*
X132820395Y-137400000D01*
X133179605Y-137400000D01*
X133992702Y-138213097D01*
X134236671Y-138141514D01*
X134357571Y-137886004D01*
X134426300Y-137611816D01*
X134440217Y-137329488D01*
X134398787Y-137049870D01*
X134303603Y-136783708D01*
X134236671Y-136658486D01*
X133992702Y-136586903D01*
X133179605Y-137400000D01*
X132820395Y-137400000D01*
X132007298Y-136586903D01*
X131763329Y-136658486D01*
X131642429Y-136913996D01*
X131573700Y-137188184D01*
X131559783Y-137470512D01*
X120660000Y-137470512D01*
X120660000Y-136407298D01*
X132186903Y-136407298D01*
X133000000Y-137220395D01*
X133813097Y-136407298D01*
X133741514Y-136163329D01*
X133486004Y-136042429D01*
X133211816Y-135973700D01*
X132929488Y-135959783D01*
X132649870Y-136001213D01*
X132383708Y-136096397D01*
X132258486Y-136163329D01*
X132186903Y-136407298D01*
X120660000Y-136407298D01*
X120660000Y-112684801D01*
X122544842Y-114569644D01*
G36*
X144340001Y-71844063D02*
G01*
X144274482Y-71824188D01*
X144150000Y-71811928D01*
X143985750Y-71815000D01*
X143827000Y-71973750D01*
X143827000Y-72723000D01*
X143847000Y-72723000D01*
X143847000Y-72977000D01*
X143827000Y-72977000D01*
X143827000Y-72997000D01*
X143573000Y-72997000D01*
X143573000Y-72977000D01*
X142773750Y-72977000D01*
X142689143Y-73061607D01*
X142680537Y-73045506D01*
X142601185Y-72948815D01*
X142504494Y-72869463D01*
X142394180Y-72810498D01*
X142274482Y-72774188D01*
X142150000Y-72761928D01*
X141250000Y-72761928D01*
X141125518Y-72774188D01*
X141005820Y-72810498D01*
X140895506Y-72869463D01*
X140798815Y-72948815D01*
X140719463Y-73045506D01*
X140694373Y-73092446D01*
X140687753Y-73094454D01*
X140555724Y-73165026D01*
X140555722Y-73165027D01*
X140555723Y-73165027D01*
X140468996Y-73236201D01*
X140468992Y-73236205D01*
X140439999Y-73259999D01*
X140416205Y-73288992D01*
X138536201Y-75168998D01*
X138465026Y-75255724D01*
X138459917Y-75265282D01*
X138388998Y-75336201D01*
X138360000Y-75359999D01*
X138336202Y-75388997D01*
X138336201Y-75388998D01*
X138265026Y-75475724D01*
X138194454Y-75607754D01*
X138150998Y-75751015D01*
X138136324Y-75900000D01*
X138140001Y-75937332D01*
X138140001Y-76714962D01*
X138055820Y-76740498D01*
X137945506Y-76799463D01*
X137848815Y-76878815D01*
X137769463Y-76975506D01*
X137710498Y-77085820D01*
X137674188Y-77205518D01*
X137661928Y-77330000D01*
X137661928Y-78130000D01*
X137674188Y-78254482D01*
X137710498Y-78374180D01*
X137769463Y-78484494D01*
X137848815Y-78581185D01*
X137945506Y-78660537D01*
X138055820Y-78719502D01*
X138175518Y-78755812D01*
X138300000Y-78768072D01*
X139500000Y-78768072D01*
X139624482Y-78755812D01*
X139744180Y-78719502D01*
X139854494Y-78660537D01*
X139951185Y-78581185D01*
X140030537Y-78484494D01*
X140089502Y-78374180D01*
X140125812Y-78254482D01*
X140138072Y-78130000D01*
X140138072Y-77330000D01*
X140125812Y-77205518D01*
X140089502Y-77085820D01*
X140030537Y-76975506D01*
X139951185Y-76878815D01*
X139854494Y-76799463D01*
X139744180Y-76740498D01*
X139660000Y-76714962D01*
X139660000Y-76214801D01*
X141066802Y-74808001D01*
X141125518Y-74825812D01*
X141250000Y-74838072D01*
X142150000Y-74838072D01*
X142274482Y-74825812D01*
X142394180Y-74789502D01*
X142504494Y-74730537D01*
X142601185Y-74651185D01*
X142611928Y-74638095D01*
X142611928Y-74763271D01*
X142588998Y-74786201D01*
X142560000Y-74809999D01*
X142536202Y-74838997D01*
X142536201Y-74838998D01*
X142465026Y-74925724D01*
X142394454Y-75057754D01*
X142374232Y-75124420D01*
X142350998Y-75201014D01*
X142345090Y-75261003D01*
X142336324Y-75350000D01*
X142340001Y-75387332D01*
X142340001Y-75796288D01*
X142296063Y-75840226D01*
X142182795Y-76009744D01*
X142104774Y-76198102D01*
X142065000Y-76398061D01*
X142065000Y-76601939D01*
X142104774Y-76801898D01*
X142182795Y-76990256D01*
X142296063Y-77159774D01*
X142440226Y-77303937D01*
X142609744Y-77417205D01*
X142798102Y-77495226D01*
X142998061Y-77535000D01*
X143201939Y-77535000D01*
X143401898Y-77495226D01*
X143590256Y-77417205D01*
X143759774Y-77303937D01*
X143903937Y-77159774D01*
X144017205Y-76990256D01*
X144095226Y-76801898D01*
X144135000Y-76601939D01*
X144135000Y-76398061D01*
X144095226Y-76198102D01*
X144017205Y-76009744D01*
X143903937Y-75840226D01*
X143860000Y-75796289D01*
X143860000Y-75788072D01*
X144150000Y-75788072D01*
X144274482Y-75775812D01*
X144340001Y-75755937D01*
X144340001Y-77864510D01*
X144281623Y-77793377D01*
X144148942Y-77684488D01*
X143997567Y-77603577D01*
X143833316Y-77553752D01*
X143662500Y-77536928D01*
X143087500Y-77536928D01*
X142916684Y-77553752D01*
X142752433Y-77603577D01*
X142601058Y-77684488D01*
X142500000Y-77767425D01*
X142398942Y-77684488D01*
X142247567Y-77603577D01*
X142083316Y-77553752D01*
X141912500Y-77536928D01*
X141337500Y-77536928D01*
X141166684Y-77553752D01*
X141002433Y-77603577D01*
X140851058Y-77684488D01*
X140718377Y-77793377D01*
X140609488Y-77926058D01*
X140528577Y-78077433D01*
X140478752Y-78241684D01*
X140461928Y-78412500D01*
X140461928Y-78887500D01*
X140478752Y-79058316D01*
X140510901Y-79164297D01*
X140165199Y-79510000D01*
X140026018Y-79510000D01*
X139951185Y-79418815D01*
X139854494Y-79339463D01*
X139744180Y-79280498D01*
X139624482Y-79244188D01*
X139500000Y-79231928D01*
X138300000Y-79231928D01*
X138175518Y-79244188D01*
X138055820Y-79280498D01*
X137945506Y-79339463D01*
X137848815Y-79418815D01*
X137769463Y-79515506D01*
X137710498Y-79625820D01*
X137674188Y-79745518D01*
X137661928Y-79870000D01*
X137661928Y-80670000D01*
X137674188Y-80794482D01*
X137710498Y-80914180D01*
X137769463Y-81024494D01*
X137848815Y-81121185D01*
X137945506Y-81200537D01*
X138055820Y-81259502D01*
X138175518Y-81295812D01*
X138300000Y-81308072D01*
X139500000Y-81308072D01*
X139624482Y-81295812D01*
X139744180Y-81259502D01*
X139854494Y-81200537D01*
X139951185Y-81121185D01*
X140026018Y-81030000D01*
X140442678Y-81030000D01*
X140480000Y-81033676D01*
X140517322Y-81030000D01*
X140517333Y-81030000D01*
X140628986Y-81019003D01*
X140772247Y-80975546D01*
X140904276Y-80904974D01*
X141020001Y-80810001D01*
X141043804Y-80780998D01*
X142078034Y-79746768D01*
X142083316Y-79746248D01*
X142247567Y-79696423D01*
X142398942Y-79615512D01*
X142500000Y-79532575D01*
X142601058Y-79615512D01*
X142752433Y-79696423D01*
X142847503Y-79725262D01*
X142863997Y-79738798D01*
X142965000Y-79839801D01*
X142965000Y-79901939D01*
X143004774Y-80101898D01*
X143082795Y-80290256D01*
X143196063Y-80459774D01*
X143340226Y-80603937D01*
X143509744Y-80717205D01*
X143698102Y-80795226D01*
X143898061Y-80835000D01*
X144101939Y-80835000D01*
X144301898Y-80795226D01*
X144340001Y-80779443D01*
X144340001Y-88809598D01*
X144338405Y-88806613D01*
X144227962Y-88672038D01*
X144093387Y-88561595D01*
X143939851Y-88479528D01*
X143773255Y-88428992D01*
X143600001Y-88411928D01*
X142299999Y-88411928D01*
X142126745Y-88428992D01*
X141960149Y-88479528D01*
X141806613Y-88561595D01*
X141672038Y-88672038D01*
X141561595Y-88806613D01*
X141479528Y-88960149D01*
X141428992Y-89126745D01*
X141411928Y-89299999D01*
X141411928Y-90000001D01*
X141422758Y-90109961D01*
X141351582Y-90071916D01*
X141203745Y-90027071D01*
X141050000Y-90011928D01*
X139800000Y-90011928D01*
X139646255Y-90027071D01*
X139498418Y-90071916D01*
X139371043Y-90140000D01*
X137228957Y-90140000D01*
X137101582Y-90071916D01*
X136953745Y-90027071D01*
X136800000Y-90011928D01*
X135550000Y-90011928D01*
X135396255Y-90027071D01*
X135248418Y-90071916D01*
X135177242Y-90109961D01*
X135188072Y-90000001D01*
X135188072Y-89299999D01*
X135171008Y-89126745D01*
X135120472Y-88960149D01*
X135038405Y-88806613D01*
X134927962Y-88672038D01*
X134793387Y-88561595D01*
X134639851Y-88479528D01*
X134473255Y-88428992D01*
X134300001Y-88411928D01*
X132999999Y-88411928D01*
X132826745Y-88428992D01*
X132660149Y-88479528D01*
X132506613Y-88561595D01*
X132372038Y-88672038D01*
X132261595Y-88806613D01*
X132179528Y-88960149D01*
X132128992Y-89126745D01*
X132111928Y-89299999D01*
X132111928Y-90000001D01*
X132125717Y-90140000D01*
X125892976Y-90140000D01*
X125837829Y-90094742D01*
X125701582Y-90021916D01*
X125553745Y-89977071D01*
X125400000Y-89961928D01*
X124150000Y-89961928D01*
X123996255Y-89977071D01*
X123848418Y-90021916D01*
X123777242Y-90059961D01*
X123788072Y-89950001D01*
X123788072Y-89249999D01*
X123771008Y-89076745D01*
X123720472Y-88910149D01*
X123638405Y-88756613D01*
X123527962Y-88622038D01*
X123393387Y-88511595D01*
X123239851Y-88429528D01*
X123073255Y-88378992D01*
X122900001Y-88361928D01*
X121599999Y-88361928D01*
X121426745Y-88378992D01*
X121260149Y-88429528D01*
X121106613Y-88511595D01*
X120972038Y-88622038D01*
X120861595Y-88756613D01*
X120779528Y-88910149D01*
X120728992Y-89076745D01*
X120711928Y-89249999D01*
X120711928Y-89950001D01*
X120728992Y-90123255D01*
X120779528Y-90289851D01*
X120861595Y-90443387D01*
X120972038Y-90577962D01*
X121106613Y-90688405D01*
X121260149Y-90770472D01*
X121426745Y-90821008D01*
X121599999Y-90838072D01*
X122900001Y-90838072D01*
X123073255Y-90821008D01*
X123239851Y-90770472D01*
X123366584Y-90702732D01*
X123361928Y-90750000D01*
X123361928Y-91050000D01*
X123377071Y-91203745D01*
X123421916Y-91351582D01*
X123447796Y-91400000D01*
X123421916Y-91448418D01*
X123377071Y-91596255D01*
X123361928Y-91750000D01*
X123361928Y-92050000D01*
X123377071Y-92203745D01*
X123421916Y-92351582D01*
X123447796Y-92400000D01*
X123421916Y-92448418D01*
X123377071Y-92596255D01*
X123361928Y-92750000D01*
X123361928Y-93050000D01*
X123377071Y-93203745D01*
X123421916Y-93351582D01*
X123447796Y-93400000D01*
X123421916Y-93448418D01*
X123377071Y-93596255D01*
X123361928Y-93750000D01*
X123361928Y-94050000D01*
X123366584Y-94097268D01*
X123239851Y-94029528D01*
X123073255Y-93978992D01*
X122900001Y-93961928D01*
X121599999Y-93961928D01*
X121426745Y-93978992D01*
X121260149Y-94029528D01*
X121106613Y-94111595D01*
X120972038Y-94222038D01*
X120861595Y-94356613D01*
X120779528Y-94510149D01*
X120728992Y-94676745D01*
X120711928Y-94849999D01*
X120711928Y-95550001D01*
X120728992Y-95723255D01*
X120779528Y-95889851D01*
X120861595Y-96043387D01*
X120972038Y-96177962D01*
X121106613Y-96288405D01*
X121260149Y-96370472D01*
X121426745Y-96421008D01*
X121599999Y-96438072D01*
X122900001Y-96438072D01*
X123073255Y-96421008D01*
X123239851Y-96370472D01*
X123393387Y-96288405D01*
X123527962Y-96177962D01*
X123638405Y-96043387D01*
X123720472Y-95889851D01*
X123771008Y-95723255D01*
X123788072Y-95550001D01*
X123788072Y-94849999D01*
X123777242Y-94740039D01*
X123848418Y-94778084D01*
X123996255Y-94822929D01*
X124150000Y-94838072D01*
X125400000Y-94838072D01*
X125553745Y-94822929D01*
X125701582Y-94778084D01*
X125837829Y-94705258D01*
X125892976Y-94660000D01*
X132149239Y-94660000D01*
X132128992Y-94726745D01*
X132111928Y-94899999D01*
X132111928Y-95600001D01*
X132128992Y-95773255D01*
X132179528Y-95939851D01*
X132261595Y-96093387D01*
X132372038Y-96227962D01*
X132506613Y-96338405D01*
X132660149Y-96420472D01*
X132826745Y-96471008D01*
X132999999Y-96488072D01*
X134300001Y-96488072D01*
X134473255Y-96471008D01*
X134639851Y-96420472D01*
X134793387Y-96338405D01*
X134927962Y-96227962D01*
X135038405Y-96093387D01*
X135120472Y-95939851D01*
X135171008Y-95773255D01*
X135188072Y-95600001D01*
X135188072Y-94899999D01*
X135177242Y-94790039D01*
X135248418Y-94828084D01*
X135396255Y-94872929D01*
X135550000Y-94888072D01*
X136800000Y-94888072D01*
X136953745Y-94872929D01*
X137101582Y-94828084D01*
X137237829Y-94755258D01*
X137353901Y-94660000D01*
X139246099Y-94660000D01*
X139362171Y-94755258D01*
X139498418Y-94828084D01*
X139646255Y-94872929D01*
X139800000Y-94888072D01*
X141050000Y-94888072D01*
X141203745Y-94872929D01*
X141351582Y-94828084D01*
X141422758Y-94790039D01*
X141411928Y-94899999D01*
X141411928Y-95600001D01*
X141428992Y-95773255D01*
X141479528Y-95939851D01*
X141561595Y-96093387D01*
X141672038Y-96227962D01*
X141806613Y-96338405D01*
X141960149Y-96420472D01*
X142126745Y-96471008D01*
X142299999Y-96488072D01*
X143600001Y-96488072D01*
X143773255Y-96471008D01*
X143939851Y-96420472D01*
X144093387Y-96338405D01*
X144227962Y-96227962D01*
X144338405Y-96093387D01*
X144340001Y-96090402D01*
X144340000Y-119126112D01*
X144301185Y-119078815D01*
X144204494Y-118999463D01*
X144094180Y-118940498D01*
X144010000Y-118914962D01*
X144010000Y-117476018D01*
X144101185Y-117401185D01*
X144180537Y-117304494D01*
X144239502Y-117194180D01*
X144275812Y-117074482D01*
X144288072Y-116950000D01*
X144288072Y-116150000D01*
X144275812Y-116025518D01*
X144239502Y-115905820D01*
X144180537Y-115795506D01*
X144101185Y-115698815D01*
X144004494Y-115619463D01*
X143894180Y-115560498D01*
X143774482Y-115524188D01*
X143650000Y-115511928D01*
X143063040Y-115511928D01*
X143113031Y-115451014D01*
X143134974Y-115424277D01*
X143205546Y-115292247D01*
X143240892Y-115175724D01*
X143249003Y-115148986D01*
X143260000Y-115037333D01*
X143260000Y-115037324D01*
X143263676Y-115000001D01*
X143260000Y-114962678D01*
X143260000Y-114603711D01*
X143303937Y-114559774D01*
X143417205Y-114390256D01*
X143495226Y-114201898D01*
X143535000Y-114001939D01*
X143535000Y-113798061D01*
X143495226Y-113598102D01*
X143417205Y-113409744D01*
X143303937Y-113240226D01*
X143159774Y-113096063D01*
X142990256Y-112982795D01*
X142801898Y-112904774D01*
X142601939Y-112865000D01*
X142398061Y-112865000D01*
X142198102Y-112904774D01*
X142009744Y-112982795D01*
X141840226Y-113096063D01*
X141696063Y-113240226D01*
X141582795Y-113409744D01*
X141504774Y-113598102D01*
X141465000Y-113798061D01*
X141465000Y-114001939D01*
X141504774Y-114201898D01*
X141582795Y-114390256D01*
X141696063Y-114559774D01*
X141703485Y-114567196D01*
X141650000Y-114561928D01*
X140750000Y-114561928D01*
X140625518Y-114574188D01*
X140505820Y-114610498D01*
X140395506Y-114669463D01*
X140298815Y-114748815D01*
X140219463Y-114845506D01*
X140160498Y-114955820D01*
X140124188Y-115075518D01*
X140111928Y-115200000D01*
X140111928Y-116000000D01*
X140124188Y-116124482D01*
X140160498Y-116244180D01*
X140219463Y-116354494D01*
X140298815Y-116451185D01*
X140395506Y-116530537D01*
X140431918Y-116550000D01*
X140395506Y-116569463D01*
X140298815Y-116648815D01*
X140219463Y-116745506D01*
X140160498Y-116855820D01*
X140124188Y-116975518D01*
X140111928Y-117100000D01*
X140115000Y-117214250D01*
X140273750Y-117373000D01*
X141073000Y-117373000D01*
X141073000Y-117353000D01*
X141327000Y-117353000D01*
X141327000Y-117373000D01*
X142126250Y-117373000D01*
X142210857Y-117288393D01*
X142219463Y-117304494D01*
X142298815Y-117401185D01*
X142395506Y-117480537D01*
X142490001Y-117531046D01*
X142490000Y-118914962D01*
X142405820Y-118940498D01*
X142295506Y-118999463D01*
X142198815Y-119078815D01*
X142119463Y-119175506D01*
X142060498Y-119285820D01*
X142024188Y-119405518D01*
X142011928Y-119530000D01*
X142011928Y-120330000D01*
X142024188Y-120454482D01*
X142060498Y-120574180D01*
X142119463Y-120684494D01*
X142198815Y-120781185D01*
X142295506Y-120860537D01*
X142405820Y-120919502D01*
X142525518Y-120955812D01*
X142650000Y-120968072D01*
X143850000Y-120968072D01*
X143974482Y-120955812D01*
X144094180Y-120919502D01*
X144204494Y-120860537D01*
X144301185Y-120781185D01*
X144340000Y-120733888D01*
X144340000Y-121666112D01*
X144301185Y-121618815D01*
X144204494Y-121539463D01*
X144094180Y-121480498D01*
X143974482Y-121444188D01*
X143850000Y-121431928D01*
X142650000Y-121431928D01*
X142525518Y-121444188D01*
X142405820Y-121480498D01*
X142295506Y-121539463D01*
X142198815Y-121618815D01*
X142119463Y-121715506D01*
X142060498Y-121825820D01*
X142024188Y-121945518D01*
X142011928Y-122070000D01*
X142011928Y-122870000D01*
X142024188Y-122994482D01*
X142060498Y-123114180D01*
X142119463Y-123224494D01*
X142198815Y-123321185D01*
X142295506Y-123400537D01*
X142405820Y-123459502D01*
X142525518Y-123495812D01*
X142650000Y-123508072D01*
X142690001Y-123508072D01*
X142690000Y-123739080D01*
X142593377Y-123818377D01*
X142484488Y-123951058D01*
X142403577Y-124102433D01*
X142353752Y-124266684D01*
X142336928Y-124437500D01*
X142336928Y-125012500D01*
X142353752Y-125183316D01*
X142403577Y-125347567D01*
X142484488Y-125498942D01*
X142567425Y-125600000D01*
X142484488Y-125701058D01*
X142477036Y-125715000D01*
X140919802Y-125715000D01*
X138397521Y-123192720D01*
X138439502Y-123114180D01*
X138475812Y-122994482D01*
X138488072Y-122870000D01*
X138488072Y-122070000D01*
X138475812Y-121945518D01*
X138439502Y-121825820D01*
X138380537Y-121715506D01*
X138301185Y-121618815D01*
X138204494Y-121539463D01*
X138094180Y-121480498D01*
X137974482Y-121444188D01*
X137850000Y-121431928D01*
X137715640Y-121431928D01*
X137686447Y-121416324D01*
X137472499Y-121351423D01*
X137305752Y-121335000D01*
X136090132Y-121335000D01*
X134285132Y-119530000D01*
X136011928Y-119530000D01*
X136011928Y-120330000D01*
X136024188Y-120454482D01*
X136060498Y-120574180D01*
X136119463Y-120684494D01*
X136198815Y-120781185D01*
X136295506Y-120860537D01*
X136405820Y-120919502D01*
X136525518Y-120955812D01*
X136650000Y-120968072D01*
X136784360Y-120968072D01*
X136813553Y-120983676D01*
X137027501Y-121048577D01*
X137250000Y-121070491D01*
X137472498Y-121048577D01*
X137686446Y-120983676D01*
X137715639Y-120968072D01*
X137850000Y-120968072D01*
X137974482Y-120955812D01*
X138094180Y-120919502D01*
X138204494Y-120860537D01*
X138301185Y-120781185D01*
X138380537Y-120684494D01*
X138439502Y-120574180D01*
X138475812Y-120454482D01*
X138488072Y-120330000D01*
X138488072Y-119530000D01*
X138475812Y-119405518D01*
X138439502Y-119285820D01*
X138385000Y-119183856D01*
X138385000Y-117900000D01*
X140111928Y-117900000D01*
X140124188Y-118024482D01*
X140160498Y-118144180D01*
X140219463Y-118254494D01*
X140298815Y-118351185D01*
X140395506Y-118430537D01*
X140505820Y-118489502D01*
X140625518Y-118525812D01*
X140750000Y-118538072D01*
X140914250Y-118535000D01*
X141073000Y-118376250D01*
X141073000Y-117627000D01*
X141327000Y-117627000D01*
X141327000Y-118376250D01*
X141485750Y-118535000D01*
X141650000Y-118538072D01*
X141774482Y-118525812D01*
X141894180Y-118489502D01*
X142004494Y-118430537D01*
X142101185Y-118351185D01*
X142180537Y-118254494D01*
X142239502Y-118144180D01*
X142275812Y-118024482D01*
X142288072Y-117900000D01*
X142285000Y-117785750D01*
X142126250Y-117627000D01*
X141327000Y-117627000D01*
X141073000Y-117627000D01*
X140273750Y-117627000D01*
X140115000Y-117785750D01*
X140111928Y-117900000D01*
X138385000Y-117900000D01*
X138385000Y-112420131D01*
X139892060Y-110913072D01*
X140150001Y-110913072D01*
X140323255Y-110896008D01*
X140489851Y-110845472D01*
X140643387Y-110763405D01*
X140777962Y-110652962D01*
X140888405Y-110518387D01*
X140890967Y-110513594D01*
X141016526Y-110638078D01*
X141219467Y-110772421D01*
X141444718Y-110864591D01*
X141482391Y-110868462D01*
X141673000Y-110743731D01*
X141673000Y-109527000D01*
X141927000Y-109527000D01*
X141927000Y-110743731D01*
X142117609Y-110868462D01*
X142155282Y-110864591D01*
X142380533Y-110772421D01*
X142583474Y-110638078D01*
X142756307Y-110466725D01*
X142892390Y-110264946D01*
X142986493Y-110040496D01*
X143035000Y-109802000D01*
X143035000Y-109527000D01*
X141927000Y-109527000D01*
X141673000Y-109527000D01*
X141653000Y-109527000D01*
X141653000Y-109273000D01*
X141673000Y-109273000D01*
X141673000Y-108056269D01*
X141927000Y-108056269D01*
X141927000Y-109273000D01*
X143035000Y-109273000D01*
X143035000Y-108998000D01*
X142986493Y-108759504D01*
X142892390Y-108535054D01*
X142756307Y-108333275D01*
X142583474Y-108161922D01*
X142380533Y-108027579D01*
X142155282Y-107935409D01*
X142117609Y-107931538D01*
X141927000Y-108056269D01*
X141673000Y-108056269D01*
X141482391Y-107931538D01*
X141444718Y-107935409D01*
X141219467Y-108027579D01*
X141016526Y-108161922D01*
X140935000Y-108242750D01*
X140935000Y-103457250D01*
X141016526Y-103538078D01*
X141219467Y-103672421D01*
X141444718Y-103764591D01*
X141482391Y-103768462D01*
X141673000Y-103643731D01*
X141673000Y-102427000D01*
X141927000Y-102427000D01*
X141927000Y-103643731D01*
X142117609Y-103768462D01*
X142155282Y-103764591D01*
X142380533Y-103672421D01*
X142583474Y-103538078D01*
X142756307Y-103366725D01*
X142892390Y-103164946D01*
X142986493Y-102940496D01*
X143035000Y-102702000D01*
X143035000Y-102427000D01*
X141927000Y-102427000D01*
X141673000Y-102427000D01*
X141653000Y-102427000D01*
X141653000Y-102173000D01*
X141673000Y-102173000D01*
X141673000Y-100956269D01*
X141927000Y-100956269D01*
X141927000Y-102173000D01*
X143035000Y-102173000D01*
X143035000Y-101898000D01*
X142986493Y-101659504D01*
X142892390Y-101435054D01*
X142756307Y-101233275D01*
X142583474Y-101061922D01*
X142380533Y-100927579D01*
X142155282Y-100835409D01*
X142117609Y-100831538D01*
X141927000Y-100956269D01*
X141673000Y-100956269D01*
X141482391Y-100831538D01*
X141444718Y-100835409D01*
X141219467Y-100927579D01*
X141016526Y-101061922D01*
X140890967Y-101186406D01*
X140888405Y-101181613D01*
X140777962Y-101047038D01*
X140643387Y-100936595D01*
X140489851Y-100854528D01*
X140323255Y-100803992D01*
X140150001Y-100786928D01*
X139449999Y-100786928D01*
X139276745Y-100803992D01*
X139110149Y-100854528D01*
X138956613Y-100936595D01*
X138822038Y-101047038D01*
X138711595Y-101181613D01*
X138629528Y-101335149D01*
X138578992Y-101501745D01*
X138561928Y-101674999D01*
X138561928Y-102925001D01*
X138578992Y-103098255D01*
X138629528Y-103264851D01*
X138665001Y-103331216D01*
X138665000Y-108368786D01*
X138629528Y-108435149D01*
X138578992Y-108601745D01*
X138561928Y-108774999D01*
X138561928Y-109032939D01*
X136486860Y-111108009D01*
X136443552Y-111143551D01*
X136301717Y-111316377D01*
X136261164Y-111392247D01*
X136196324Y-111513554D01*
X136131423Y-111727502D01*
X136109509Y-111950000D01*
X136115001Y-112005761D01*
X136115000Y-119183855D01*
X136060498Y-119285820D01*
X136024188Y-119405518D01*
X136011928Y-119530000D01*
X134285132Y-119530000D01*
X133491993Y-118736862D01*
X133491989Y-118736857D01*
X133441989Y-118686857D01*
X133406449Y-118643551D01*
X133233623Y-118501716D01*
X133036447Y-118396324D01*
X132822499Y-118331423D01*
X132655752Y-118315000D01*
X132655751Y-118315000D01*
X132600000Y-118309509D01*
X132544249Y-118315000D01*
X129944248Y-118315000D01*
X129777501Y-118331423D01*
X129563553Y-118396324D01*
X129366377Y-118501716D01*
X129193551Y-118643551D01*
X129051716Y-118816377D01*
X128950000Y-119006676D01*
X128848284Y-118816377D01*
X128706449Y-118643551D01*
X128533623Y-118501716D01*
X128336447Y-118396324D01*
X128122499Y-118331423D01*
X127955752Y-118315000D01*
X126088220Y-118315000D01*
X126052962Y-118272038D01*
X125918387Y-118161595D01*
X125764851Y-118079528D01*
X125598255Y-118028992D01*
X125425001Y-118011928D01*
X125185000Y-118011928D01*
X125185000Y-116074771D01*
X125302962Y-115977962D01*
X125413405Y-115843387D01*
X125495472Y-115689851D01*
X125546008Y-115523255D01*
X125563072Y-115350001D01*
X125563072Y-114649999D01*
X125546008Y-114476745D01*
X125495472Y-114310149D01*
X125413405Y-114156613D01*
X125302962Y-114022038D01*
X125168387Y-113911595D01*
X125163594Y-113909033D01*
X125288078Y-113783474D01*
X125422421Y-113580533D01*
X125514591Y-113355282D01*
X125518462Y-113317609D01*
X125393731Y-113127000D01*
X124177000Y-113127000D01*
X124177000Y-113147000D01*
X123923000Y-113147000D01*
X123923000Y-113127000D01*
X123903000Y-113127000D01*
X123903000Y-112873000D01*
X123923000Y-112873000D01*
X123923000Y-111765000D01*
X124177000Y-111765000D01*
X124177000Y-112873000D01*
X125393731Y-112873000D01*
X125518462Y-112682391D01*
X125514591Y-112644718D01*
X125422421Y-112419467D01*
X125288078Y-112216526D01*
X125116725Y-112043693D01*
X124914946Y-111907610D01*
X124690496Y-111813507D01*
X124452000Y-111765000D01*
X124177000Y-111765000D01*
X123923000Y-111765000D01*
X123648000Y-111765000D01*
X123409504Y-111813507D01*
X123185054Y-111907610D01*
X122983275Y-112043693D01*
X122811922Y-112216526D01*
X122677579Y-112419467D01*
X122638869Y-112514068D01*
X121784801Y-111660000D01*
X128123982Y-111660000D01*
X128198815Y-111751185D01*
X128295506Y-111830537D01*
X128405820Y-111889502D01*
X128525518Y-111925812D01*
X128650000Y-111938072D01*
X129550000Y-111938072D01*
X129674482Y-111925812D01*
X129794180Y-111889502D01*
X129904494Y-111830537D01*
X130001185Y-111751185D01*
X130080537Y-111654494D01*
X130139502Y-111544180D01*
X130175812Y-111424482D01*
X130188072Y-111300000D01*
X130188072Y-110788095D01*
X130198815Y-110801185D01*
X130295506Y-110880537D01*
X130405820Y-110939502D01*
X130525518Y-110975812D01*
X130650000Y-110988072D01*
X131550000Y-110988072D01*
X131674482Y-110975812D01*
X131794180Y-110939502D01*
X131904494Y-110880537D01*
X132001185Y-110801185D01*
X132080537Y-110704494D01*
X132112482Y-110644730D01*
X132224276Y-110584974D01*
X132340001Y-110490001D01*
X132363803Y-110460998D01*
X132911002Y-109913800D01*
X132940001Y-109890001D01*
X132966332Y-109857917D01*
X133034974Y-109774277D01*
X133105546Y-109642247D01*
X133149003Y-109498986D01*
X133160000Y-109387333D01*
X133160000Y-109387324D01*
X133163676Y-109350001D01*
X133160000Y-109312678D01*
X133160000Y-107796144D01*
X133214502Y-107694180D01*
X133250812Y-107574482D01*
X133263072Y-107450000D01*
X133263072Y-106850000D01*
X133250812Y-106725518D01*
X133214502Y-106605820D01*
X133155537Y-106495506D01*
X133076185Y-106398815D01*
X132979494Y-106319463D01*
X132869180Y-106260498D01*
X132749482Y-106224188D01*
X132625000Y-106211928D01*
X132175000Y-106211928D01*
X132050518Y-106224188D01*
X131930820Y-106260498D01*
X131820506Y-106319463D01*
X131723815Y-106398815D01*
X131644463Y-106495506D01*
X131585498Y-106605820D01*
X131549188Y-106725518D01*
X131536928Y-106850000D01*
X131536928Y-107450000D01*
X131549188Y-107574482D01*
X131585498Y-107694180D01*
X131640000Y-107796145D01*
X131640001Y-108920792D01*
X131550000Y-108911928D01*
X130650000Y-108911928D01*
X130525518Y-108924188D01*
X130405820Y-108960498D01*
X130295506Y-109019463D01*
X130198815Y-109098815D01*
X130188072Y-109111905D01*
X130188072Y-108600000D01*
X130175812Y-108475518D01*
X130139502Y-108355820D01*
X130080537Y-108245506D01*
X130001185Y-108148815D01*
X129904494Y-108069463D01*
X129794180Y-108010498D01*
X129674482Y-107974188D01*
X129550000Y-107961928D01*
X129190331Y-107961928D01*
X129323942Y-107890512D01*
X129456623Y-107781623D01*
X129500000Y-107728768D01*
X129543377Y-107781623D01*
X129676058Y-107890512D01*
X129827433Y-107971423D01*
X129991684Y-108021248D01*
X130162500Y-108038072D01*
X130637500Y-108038072D01*
X130808316Y-108021248D01*
X130972567Y-107971423D01*
X131123942Y-107890512D01*
X131256623Y-107781623D01*
X131365512Y-107648942D01*
X131446423Y-107497567D01*
X131496248Y-107333316D01*
X131513072Y-107162500D01*
X131513072Y-106587500D01*
X131496248Y-106416684D01*
X131446423Y-106252433D01*
X131365512Y-106101058D01*
X131282575Y-106000000D01*
X131365512Y-105898942D01*
X131372964Y-105885000D01*
X131828856Y-105885000D01*
X131930820Y-105939502D01*
X132050518Y-105975812D01*
X132175000Y-105988072D01*
X132625000Y-105988072D01*
X132749482Y-105975812D01*
X132869180Y-105939502D01*
X132979494Y-105880537D01*
X133076185Y-105801185D01*
X133155537Y-105704494D01*
X133214502Y-105594180D01*
X133250812Y-105474482D01*
X133263072Y-105350000D01*
X133263072Y-104750000D01*
X133250812Y-104625518D01*
X133214502Y-104505820D01*
X133155537Y-104395506D01*
X133076185Y-104298815D01*
X132979494Y-104219463D01*
X132869180Y-104160498D01*
X132749482Y-104124188D01*
X132625000Y-104111928D01*
X132175000Y-104111928D01*
X132050518Y-104124188D01*
X131930820Y-104160498D01*
X131820506Y-104219463D01*
X131723815Y-104298815D01*
X131669499Y-104365000D01*
X131372964Y-104365000D01*
X131365512Y-104351058D01*
X131256623Y-104218377D01*
X131123942Y-104109488D01*
X130972567Y-104028577D01*
X130808316Y-103978752D01*
X130637500Y-103961928D01*
X130162500Y-103961928D01*
X129991684Y-103978752D01*
X129827433Y-104028577D01*
X129676058Y-104109488D01*
X129567217Y-104198812D01*
X129526185Y-104148815D01*
X129429494Y-104069463D01*
X129319180Y-104010498D01*
X129199482Y-103974188D01*
X129075000Y-103961928D01*
X128885750Y-103965000D01*
X128727000Y-104123750D01*
X128727000Y-104998000D01*
X128747000Y-104998000D01*
X128747000Y-105252000D01*
X128727000Y-105252000D01*
X128727000Y-105272000D01*
X128473000Y-105272000D01*
X128473000Y-105252000D01*
X127648750Y-105252000D01*
X127490000Y-105410750D01*
X127488811Y-105503357D01*
X127468386Y-105486595D01*
X127314850Y-105404528D01*
X127148254Y-105353992D01*
X126975000Y-105336928D01*
X126902949Y-105336928D01*
X126895226Y-105298102D01*
X126817205Y-105109744D01*
X126785151Y-105061772D01*
X127225000Y-105063072D01*
X127349482Y-105050812D01*
X127469180Y-105014502D01*
X127579494Y-104955537D01*
X127594210Y-104943460D01*
X127648750Y-104998000D01*
X128473000Y-104998000D01*
X128473000Y-104123750D01*
X128314250Y-103965000D01*
X128125000Y-103961928D01*
X128000518Y-103974188D01*
X127880820Y-104010498D01*
X127860168Y-104021537D01*
X127860000Y-103998250D01*
X127701250Y-103839500D01*
X126027000Y-103839500D01*
X126027000Y-103859500D01*
X125773000Y-103859500D01*
X125773000Y-103839500D01*
X124098750Y-103839500D01*
X123940000Y-103998250D01*
X123936928Y-104425000D01*
X123949188Y-104549482D01*
X123985498Y-104669180D01*
X124044463Y-104779494D01*
X124123815Y-104876185D01*
X124220506Y-104955537D01*
X124330820Y-105014502D01*
X124450518Y-105050812D01*
X124575000Y-105063072D01*
X125014849Y-105061772D01*
X124982795Y-105109744D01*
X124904774Y-105298102D01*
X124897051Y-105336928D01*
X124825000Y-105336928D01*
X124651746Y-105353992D01*
X124485150Y-105404528D01*
X124331614Y-105486595D01*
X124197038Y-105597038D01*
X124086595Y-105731614D01*
X124004528Y-105885150D01*
X123953992Y-106051746D01*
X123936928Y-106225000D01*
X123936928Y-107150000D01*
X123953992Y-107323254D01*
X124004528Y-107489850D01*
X124086595Y-107643386D01*
X124162216Y-107735531D01*
X124145506Y-107744463D01*
X124048815Y-107823815D01*
X123969463Y-107920506D01*
X123910498Y-108030820D01*
X123874188Y-108150518D01*
X123861928Y-108275000D01*
X123865000Y-108464250D01*
X124023750Y-108623000D01*
X124898000Y-108623000D01*
X124898000Y-108603000D01*
X125152000Y-108603000D01*
X125152000Y-108623000D01*
X125172000Y-108623000D01*
X125172000Y-108877000D01*
X125152000Y-108877000D01*
X125152000Y-109701250D01*
X125310750Y-109860000D01*
X125550000Y-109863072D01*
X125674482Y-109850812D01*
X125794180Y-109814502D01*
X125904494Y-109755537D01*
X125977161Y-109695901D01*
X126001058Y-109715512D01*
X126152433Y-109796423D01*
X126316684Y-109846248D01*
X126487500Y-109863072D01*
X127062500Y-109863072D01*
X127233316Y-109846248D01*
X127397567Y-109796423D01*
X127548942Y-109715512D01*
X127681623Y-109606623D01*
X127760920Y-109510000D01*
X128022762Y-109510000D01*
X128024188Y-109524482D01*
X128060498Y-109644180D01*
X128119463Y-109754494D01*
X128198815Y-109851185D01*
X128295506Y-109930537D01*
X128331918Y-109950000D01*
X128295506Y-109969463D01*
X128198815Y-110048815D01*
X128123982Y-110140000D01*
X121660000Y-110140000D01*
X121660000Y-109225000D01*
X123861928Y-109225000D01*
X123874188Y-109349482D01*
X123910498Y-109469180D01*
X123969463Y-109579494D01*
X124048815Y-109676185D01*
X124145506Y-109755537D01*
X124255820Y-109814502D01*
X124375518Y-109850812D01*
X124500000Y-109863072D01*
X124739250Y-109860000D01*
X124898000Y-109701250D01*
X124898000Y-108877000D01*
X124023750Y-108877000D01*
X123865000Y-109035750D01*
X123861928Y-109225000D01*
X121660000Y-109225000D01*
X121660000Y-103000000D01*
X123936928Y-103000000D01*
X123940000Y-103426750D01*
X124098750Y-103585500D01*
X125773000Y-103585500D01*
X125773000Y-102523750D01*
X126027000Y-102523750D01*
X126027000Y-103585500D01*
X127701250Y-103585500D01*
X127860000Y-103426750D01*
X127863072Y-103000000D01*
X127850812Y-102875518D01*
X127814502Y-102755820D01*
X127755537Y-102645506D01*
X127676185Y-102548815D01*
X127579494Y-102469463D01*
X127469180Y-102410498D01*
X127349482Y-102374188D01*
X127225000Y-102361928D01*
X126185750Y-102365000D01*
X126027000Y-102523750D01*
X125773000Y-102523750D01*
X125614250Y-102365000D01*
X124575000Y-102361928D01*
X124450518Y-102374188D01*
X124330820Y-102410498D01*
X124220506Y-102469463D01*
X124123815Y-102548815D01*
X124044463Y-102645506D01*
X123985498Y-102755820D01*
X123949188Y-102875518D01*
X123936928Y-103000000D01*
X121660000Y-103000000D01*
X121660000Y-100764801D01*
X122449065Y-99975736D01*
X122516684Y-99996248D01*
X122687500Y-100013072D01*
X123262500Y-100013072D01*
X123433316Y-99996248D01*
X123597567Y-99946423D01*
X123748942Y-99865512D01*
X123850000Y-99782575D01*
X123951058Y-99865512D01*
X124102433Y-99946423D01*
X124266684Y-99996248D01*
X124437500Y-100013072D01*
X125012500Y-100013072D01*
X125183316Y-99996248D01*
X125347567Y-99946423D01*
X125498942Y-99865512D01*
X125631623Y-99756623D01*
X125710920Y-99660000D01*
X126864962Y-99660000D01*
X126890498Y-99744180D01*
X126949463Y-99854494D01*
X127028815Y-99951185D01*
X127125506Y-100030537D01*
X127235820Y-100089502D01*
X127355518Y-100125812D01*
X127480000Y-100138072D01*
X128280000Y-100138072D01*
X128404482Y-100125812D01*
X128524180Y-100089502D01*
X128634494Y-100030537D01*
X128731185Y-99951185D01*
X128810537Y-99854494D01*
X128869502Y-99744180D01*
X128905812Y-99624482D01*
X128918072Y-99500000D01*
X129381928Y-99500000D01*
X129394188Y-99624482D01*
X129430498Y-99744180D01*
X129489463Y-99854494D01*
X129568815Y-99951185D01*
X129665506Y-100030537D01*
X129775820Y-100089502D01*
X129895518Y-100125812D01*
X130020000Y-100138072D01*
X130134250Y-100135000D01*
X130293000Y-99976250D01*
X130293000Y-99027000D01*
X130547000Y-99027000D01*
X130547000Y-99976250D01*
X130705750Y-100135000D01*
X130820000Y-100138072D01*
X130944482Y-100125812D01*
X131064180Y-100089502D01*
X131174494Y-100030537D01*
X131271185Y-99951185D01*
X131350537Y-99854494D01*
X131409502Y-99744180D01*
X131445812Y-99624482D01*
X131458072Y-99500000D01*
X131455000Y-99185750D01*
X131296250Y-99027000D01*
X130547000Y-99027000D01*
X130293000Y-99027000D01*
X129543750Y-99027000D01*
X129385000Y-99185750D01*
X129381928Y-99500000D01*
X128918072Y-99500000D01*
X128918072Y-98300000D01*
X129381928Y-98300000D01*
X129385000Y-98614250D01*
X129543750Y-98773000D01*
X130293000Y-98773000D01*
X130293000Y-97823750D01*
X130547000Y-97823750D01*
X130547000Y-98773000D01*
X131296250Y-98773000D01*
X131455000Y-98614250D01*
X131455158Y-98598061D01*
X142165000Y-98598061D01*
X142165000Y-98801939D01*
X142204774Y-99001898D01*
X142282795Y-99190256D01*
X142396063Y-99359774D01*
X142540226Y-99503937D01*
X142709744Y-99617205D01*
X142898102Y-99695226D01*
X143098061Y-99735000D01*
X143301939Y-99735000D01*
X143501898Y-99695226D01*
X143690256Y-99617205D01*
X143859774Y-99503937D01*
X144003937Y-99359774D01*
X144117205Y-99190256D01*
X144195226Y-99001898D01*
X144235000Y-98801939D01*
X144235000Y-98598061D01*
X144195226Y-98398102D01*
X144117205Y-98209744D01*
X144003937Y-98040226D01*
X143859774Y-97896063D01*
X143690256Y-97782795D01*
X143501898Y-97704774D01*
X143301939Y-97665000D01*
X143098061Y-97665000D01*
X142898102Y-97704774D01*
X142709744Y-97782795D01*
X142540226Y-97896063D01*
X142396063Y-98040226D01*
X142282795Y-98209744D01*
X142204774Y-98398102D01*
X142165000Y-98598061D01*
X131455158Y-98598061D01*
X131458072Y-98300000D01*
X131445812Y-98175518D01*
X131409502Y-98055820D01*
X131350537Y-97945506D01*
X131271185Y-97848815D01*
X131174494Y-97769463D01*
X131064180Y-97710498D01*
X130944482Y-97674188D01*
X130820000Y-97661928D01*
X130705750Y-97665000D01*
X130547000Y-97823750D01*
X130293000Y-97823750D01*
X130134250Y-97665000D01*
X130020000Y-97661928D01*
X129895518Y-97674188D01*
X129775820Y-97710498D01*
X129665506Y-97769463D01*
X129568815Y-97848815D01*
X129489463Y-97945506D01*
X129430498Y-98055820D01*
X129394188Y-98175518D01*
X129381928Y-98300000D01*
X128918072Y-98300000D01*
X128905812Y-98175518D01*
X128869502Y-98055820D01*
X128810537Y-97945506D01*
X128731185Y-97848815D01*
X128634494Y-97769463D01*
X128524180Y-97710498D01*
X128404482Y-97674188D01*
X128280000Y-97661928D01*
X127480000Y-97661928D01*
X127355518Y-97674188D01*
X127235820Y-97710498D01*
X127125506Y-97769463D01*
X127028815Y-97848815D01*
X126949463Y-97945506D01*
X126890498Y-98055820D01*
X126864962Y-98140000D01*
X125710920Y-98140000D01*
X125631623Y-98043377D01*
X125498942Y-97934488D01*
X125347567Y-97853577D01*
X125183316Y-97803752D01*
X125012500Y-97786928D01*
X124437500Y-97786928D01*
X124266684Y-97803752D01*
X124102433Y-97853577D01*
X123951058Y-97934488D01*
X123850000Y-98017425D01*
X123748942Y-97934488D01*
X123597567Y-97853577D01*
X123433316Y-97803752D01*
X123262500Y-97786928D01*
X122687500Y-97786928D01*
X122516684Y-97803752D01*
X122352433Y-97853577D01*
X122201058Y-97934488D01*
X122068377Y-98043377D01*
X121959488Y-98176058D01*
X121878577Y-98327433D01*
X121848450Y-98426748D01*
X120660000Y-99615199D01*
X120660000Y-85800000D01*
X121786928Y-85800000D01*
X121799188Y-85924482D01*
X121835498Y-86044180D01*
X121894463Y-86154494D01*
X121973815Y-86251185D01*
X122070506Y-86330537D01*
X122180820Y-86389502D01*
X122300518Y-86425812D01*
X122425000Y-86438072D01*
X123014250Y-86435000D01*
X123173000Y-86276250D01*
X123173000Y-85327000D01*
X123427000Y-85327000D01*
X123427000Y-86276250D01*
X123585750Y-86435000D01*
X124175000Y-86438072D01*
X124299482Y-86425812D01*
X124419180Y-86389502D01*
X124529494Y-86330537D01*
X124626185Y-86251185D01*
X124705537Y-86154494D01*
X124764502Y-86044180D01*
X124800812Y-85924482D01*
X124813072Y-85800000D01*
X124810000Y-85485750D01*
X124651250Y-85327000D01*
X123427000Y-85327000D01*
X123173000Y-85327000D01*
X121948750Y-85327000D01*
X121790000Y-85485750D01*
X121786928Y-85800000D01*
X120660000Y-85800000D01*
X120660000Y-80038600D01*
X120781613Y-80138405D01*
X120935149Y-80220472D01*
X121101745Y-80271008D01*
X121274999Y-80288072D01*
X121565000Y-80288072D01*
X121565001Y-82544239D01*
X121559509Y-82600000D01*
X121581423Y-82822498D01*
X121646324Y-83036446D01*
X121646325Y-83036447D01*
X121751717Y-83233623D01*
X121792194Y-83282945D01*
X121807870Y-83442102D01*
X121878489Y-83674901D01*
X121993167Y-83889449D01*
X122119436Y-84043309D01*
X122070506Y-84069463D01*
X121973815Y-84148815D01*
X121894463Y-84245506D01*
X121835498Y-84355820D01*
X121799188Y-84475518D01*
X121786928Y-84600000D01*
X121790000Y-84914250D01*
X121948750Y-85073000D01*
X123173000Y-85073000D01*
X123173000Y-85053000D01*
X123427000Y-85053000D01*
X123427000Y-85073000D01*
X124651250Y-85073000D01*
X124810000Y-84914250D01*
X124813072Y-84600000D01*
X124800812Y-84475518D01*
X124764502Y-84355820D01*
X124705537Y-84245506D01*
X124626185Y-84148815D01*
X124529494Y-84069463D01*
X124480564Y-84043309D01*
X124606833Y-83889449D01*
X124721511Y-83674901D01*
X124792130Y-83442102D01*
X124815975Y-83200000D01*
X124792130Y-82957898D01*
X124721511Y-82725099D01*
X124606833Y-82510551D01*
X124452502Y-82322498D01*
X124264449Y-82168167D01*
X124049901Y-82053489D01*
X123835000Y-81988299D01*
X123835000Y-80288072D01*
X124125001Y-80288072D01*
X124298255Y-80271008D01*
X124464851Y-80220472D01*
X124618387Y-80138405D01*
X124752962Y-80027962D01*
X124757445Y-80022500D01*
X127906749Y-80022500D01*
X127962500Y-80027991D01*
X128018251Y-80022500D01*
X128018252Y-80022500D01*
X128184999Y-80006077D01*
X128398947Y-79941176D01*
X128532108Y-79870000D01*
X131661928Y-79870000D01*
X131661928Y-80670000D01*
X131674188Y-80794482D01*
X131710498Y-80914180D01*
X131769463Y-81024494D01*
X131848815Y-81121185D01*
X131945506Y-81200537D01*
X132055820Y-81259502D01*
X132175518Y-81295812D01*
X132300000Y-81308072D01*
X132332941Y-81308072D01*
X137088009Y-86063141D01*
X137123551Y-86106449D01*
X137296377Y-86248284D01*
X137493553Y-86353676D01*
X137657705Y-86403471D01*
X137707500Y-86418577D01*
X137713623Y-86419180D01*
X137874248Y-86435000D01*
X137874255Y-86435000D01*
X137929999Y-86440490D01*
X137985743Y-86435000D01*
X138708135Y-86435000D01*
X138722498Y-86452502D01*
X138910551Y-86606833D01*
X139125099Y-86721511D01*
X139357898Y-86792130D01*
X139600000Y-86815975D01*
X139842101Y-86792130D01*
X140074900Y-86721511D01*
X140289448Y-86606833D01*
X140443309Y-86480564D01*
X140469463Y-86529494D01*
X140548815Y-86626185D01*
X140645506Y-86705537D01*
X140755820Y-86764502D01*
X140875518Y-86800812D01*
X141000000Y-86813072D01*
X141314250Y-86810000D01*
X141473000Y-86651250D01*
X141473000Y-85427000D01*
X141727000Y-85427000D01*
X141727000Y-86651250D01*
X141885750Y-86810000D01*
X142200000Y-86813072D01*
X142324482Y-86800812D01*
X142444180Y-86764502D01*
X142554494Y-86705537D01*
X142651185Y-86626185D01*
X142730537Y-86529494D01*
X142789502Y-86419180D01*
X142825812Y-86299482D01*
X142838072Y-86175000D01*
X142835000Y-85585750D01*
X142676250Y-85427000D01*
X141727000Y-85427000D01*
X141473000Y-85427000D01*
X141453000Y-85427000D01*
X141453000Y-85173000D01*
X141473000Y-85173000D01*
X141473000Y-83948750D01*
X141727000Y-83948750D01*
X141727000Y-85173000D01*
X142676250Y-85173000D01*
X142835000Y-85014250D01*
X142838072Y-84425000D01*
X142825812Y-84300518D01*
X142789502Y-84180820D01*
X142730537Y-84070506D01*
X142651185Y-83973815D01*
X142554494Y-83894463D01*
X142444180Y-83835498D01*
X142324482Y-83799188D01*
X142200000Y-83786928D01*
X141885750Y-83790000D01*
X141727000Y-83948750D01*
X141473000Y-83948750D01*
X141314250Y-83790000D01*
X141000000Y-83786928D01*
X140875518Y-83799188D01*
X140755820Y-83835498D01*
X140645506Y-83894463D01*
X140548815Y-83973815D01*
X140469463Y-84070506D01*
X140443309Y-84119436D01*
X140289449Y-83993167D01*
X140074901Y-83878489D01*
X139842102Y-83807870D01*
X139600000Y-83784025D01*
X139357899Y-83807870D01*
X139125100Y-83878489D01*
X138910552Y-83993167D01*
X138722499Y-84147498D01*
X138708135Y-84165000D01*
X138400132Y-84165000D01*
X134138072Y-79902941D01*
X134138072Y-79870000D01*
X134125812Y-79745518D01*
X134089502Y-79625820D01*
X134030537Y-79515506D01*
X133951185Y-79418815D01*
X133854494Y-79339463D01*
X133744180Y-79280498D01*
X133624482Y-79244188D01*
X133500000Y-79231928D01*
X133365639Y-79231928D01*
X133336446Y-79216324D01*
X133122498Y-79151423D01*
X132900000Y-79129509D01*
X132677502Y-79151423D01*
X132463554Y-79216324D01*
X132434361Y-79231928D01*
X132300000Y-79231928D01*
X132175518Y-79244188D01*
X132055820Y-79280498D01*
X131945506Y-79339463D01*
X131848815Y-79418815D01*
X131769463Y-79515506D01*
X131710498Y-79625820D01*
X131674188Y-79745518D01*
X131661928Y-79870000D01*
X128532108Y-79870000D01*
X128596123Y-79835784D01*
X128768949Y-79693949D01*
X128804496Y-79650635D01*
X128991988Y-79463143D01*
X129098283Y-79333622D01*
X129202218Y-79139174D01*
X129271258Y-79285477D01*
X129404286Y-79465170D01*
X129569813Y-79615459D01*
X129761480Y-79730566D01*
X129971920Y-79806070D01*
X130193047Y-79839068D01*
X130416362Y-79828292D01*
X130633284Y-79774156D01*
X130835477Y-79678742D01*
X131015170Y-79545714D01*
X131165459Y-79380187D01*
X131280566Y-79188520D01*
X131356070Y-78978080D01*
X131372944Y-78865000D01*
X132955752Y-78865000D01*
X133122499Y-78848577D01*
X133336447Y-78783676D01*
X133365640Y-78768072D01*
X133500000Y-78768072D01*
X133624482Y-78755812D01*
X133744180Y-78719502D01*
X133854494Y-78660537D01*
X133951185Y-78581185D01*
X134030537Y-78484494D01*
X134089502Y-78374180D01*
X134125812Y-78254482D01*
X134138072Y-78130000D01*
X134138072Y-77330000D01*
X134125812Y-77205518D01*
X134089502Y-77085820D01*
X134030537Y-76975506D01*
X133951185Y-76878815D01*
X133854494Y-76799463D01*
X133744180Y-76740498D01*
X133624482Y-76704188D01*
X133500000Y-76691928D01*
X133365640Y-76691928D01*
X133336447Y-76676324D01*
X133122499Y-76611423D01*
X132955752Y-76595000D01*
X131537256Y-76595000D01*
X131492499Y-76581423D01*
X131396777Y-76571995D01*
X131382404Y-76155167D01*
X131360244Y-75989085D01*
X131288009Y-75777501D01*
X131175884Y-75584074D01*
X131028177Y-75416238D01*
X130850566Y-75280444D01*
X130649875Y-75181909D01*
X130433818Y-75124420D01*
X130210697Y-75110187D01*
X129989085Y-75139756D01*
X129777501Y-75211991D01*
X129584074Y-75324116D01*
X129416238Y-75471823D01*
X129280444Y-75649434D01*
X129275165Y-75660185D01*
X129235945Y-73346156D01*
X129240491Y-73300000D01*
X129236360Y-73258060D01*
X129256068Y-72450000D01*
X142611928Y-72450000D01*
X142615000Y-72564250D01*
X142773750Y-72723000D01*
X143573000Y-72723000D01*
X143573000Y-71973750D01*
X143414250Y-71815000D01*
X143250000Y-71811928D01*
X143125518Y-71824188D01*
X143005820Y-71860498D01*
X142895506Y-71919463D01*
X142798815Y-71998815D01*
X142719463Y-72095506D01*
X142660498Y-72205820D01*
X142624188Y-72325518D01*
X142611928Y-72450000D01*
X129256068Y-72450000D01*
X129273592Y-71731539D01*
X132927282Y-68077850D01*
X133168574Y-68029853D01*
X133429727Y-67921680D01*
X133664759Y-67764637D01*
X133864637Y-67564759D01*
X134021680Y-67329727D01*
X134129853Y-67068574D01*
X134185000Y-66791335D01*
X134185000Y-66508665D01*
X134129853Y-66231426D01*
X134021680Y-65970273D01*
X133864637Y-65735241D01*
X133664759Y-65535363D01*
X133429727Y-65378320D01*
X133168574Y-65270147D01*
X132891335Y-65215000D01*
X132608665Y-65215000D01*
X132331426Y-65270147D01*
X132070273Y-65378320D01*
X131835241Y-65535363D01*
X131635363Y-65735241D01*
X131478320Y-65970273D01*
X131370147Y-66231426D01*
X131322150Y-66472718D01*
X127396678Y-70398191D01*
X127363455Y-70424127D01*
X127317811Y-70477058D01*
X127308012Y-70486857D01*
X127281430Y-70519247D01*
X127217448Y-70593444D01*
X127210569Y-70605592D01*
X127201717Y-70616378D01*
X127155548Y-70702754D01*
X127107280Y-70787991D01*
X127102904Y-70801243D01*
X127096324Y-70813554D01*
X127067889Y-70907289D01*
X127037181Y-71000293D01*
X127035475Y-71014145D01*
X127031423Y-71027502D01*
X127021822Y-71124984D01*
X127016697Y-71166590D01*
X127016359Y-71180451D01*
X127009509Y-71250000D01*
X127013640Y-71291940D01*
X127001797Y-71777500D01*
X124757445Y-71777500D01*
X124752962Y-71772038D01*
X124618387Y-71661595D01*
X124464851Y-71579528D01*
X124298255Y-71528992D01*
X124125001Y-71511928D01*
X121274999Y-71511928D01*
X121101745Y-71528992D01*
X120935149Y-71579528D01*
X120781613Y-71661595D01*
X120660000Y-71761400D01*
X120660000Y-62642702D01*
X131936903Y-62642702D01*
X132008486Y-62886671D01*
X132263996Y-63007571D01*
X132538184Y-63076300D01*
X132820512Y-63090217D01*
X133100130Y-63048787D01*
X133366292Y-62953603D01*
X133491514Y-62886671D01*
X133563097Y-62642702D01*
X132750000Y-61829605D01*
X131936903Y-62642702D01*
X120660000Y-62642702D01*
X120660000Y-61720512D01*
X131309783Y-61720512D01*
X131351213Y-62000130D01*
X131446397Y-62266292D01*
X131513329Y-62391514D01*
X131757298Y-62463097D01*
X132570395Y-61650000D01*
X132929605Y-61650000D01*
X133742702Y-62463097D01*
X133986671Y-62391514D01*
X134107571Y-62136004D01*
X134176300Y-61861816D01*
X134190217Y-61579488D01*
X134148787Y-61299870D01*
X134053603Y-61033708D01*
X133986671Y-60908486D01*
X133742702Y-60836903D01*
X132929605Y-61650000D01*
X132570395Y-61650000D01*
X131757298Y-60836903D01*
X131513329Y-60908486D01*
X131392429Y-61163996D01*
X131323700Y-61438184D01*
X131309783Y-61720512D01*
X120660000Y-61720512D01*
X120660000Y-60657298D01*
X131936903Y-60657298D01*
X132750000Y-61470395D01*
X133563097Y-60657298D01*
X133491514Y-60413329D01*
X133236004Y-60292429D01*
X132961816Y-60223700D01*
X132679488Y-60209783D01*
X132399870Y-60251213D01*
X132133708Y-60346397D01*
X132008486Y-60413329D01*
X131936903Y-60657298D01*
X120660000Y-60657298D01*
X120660000Y-50660000D01*
X144340001Y-50660000D01*
X144340001Y-71844063D01*
G37*
X144340001Y-71844063D02*
X144274482Y-71824188D01*
X144150000Y-71811928D01*
X143985750Y-71815000D01*
X143827000Y-71973750D01*
X143827000Y-72723000D01*
X143847000Y-72723000D01*
X143847000Y-72977000D01*
X143827000Y-72977000D01*
X143827000Y-72997000D01*
X143573000Y-72997000D01*
X143573000Y-72977000D01*
X142773750Y-72977000D01*
X142689143Y-73061607D01*
X142680537Y-73045506D01*
X142601185Y-72948815D01*
X142504494Y-72869463D01*
X142394180Y-72810498D01*
X142274482Y-72774188D01*
X142150000Y-72761928D01*
X141250000Y-72761928D01*
X141125518Y-72774188D01*
X141005820Y-72810498D01*
X140895506Y-72869463D01*
X140798815Y-72948815D01*
X140719463Y-73045506D01*
X140694373Y-73092446D01*
X140687753Y-73094454D01*
X140555724Y-73165026D01*
X140555722Y-73165027D01*
X140555723Y-73165027D01*
X140468996Y-73236201D01*
X140468992Y-73236205D01*
X140439999Y-73259999D01*
X140416205Y-73288992D01*
X138536201Y-75168998D01*
X138465026Y-75255724D01*
X138459917Y-75265282D01*
X138388998Y-75336201D01*
X138360000Y-75359999D01*
X138336202Y-75388997D01*
X138336201Y-75388998D01*
X138265026Y-75475724D01*
X138194454Y-75607754D01*
X138150998Y-75751015D01*
X138136324Y-75900000D01*
X138140001Y-75937332D01*
X138140001Y-76714962D01*
X138055820Y-76740498D01*
X137945506Y-76799463D01*
X137848815Y-76878815D01*
X137769463Y-76975506D01*
X137710498Y-77085820D01*
X137674188Y-77205518D01*
X137661928Y-77330000D01*
X137661928Y-78130000D01*
X137674188Y-78254482D01*
X137710498Y-78374180D01*
X137769463Y-78484494D01*
X137848815Y-78581185D01*
X137945506Y-78660537D01*
X138055820Y-78719502D01*
X138175518Y-78755812D01*
X138300000Y-78768072D01*
X139500000Y-78768072D01*
X139624482Y-78755812D01*
X139744180Y-78719502D01*
X139854494Y-78660537D01*
X139951185Y-78581185D01*
X140030537Y-78484494D01*
X140089502Y-78374180D01*
X140125812Y-78254482D01*
X140138072Y-78130000D01*
X140138072Y-77330000D01*
X140125812Y-77205518D01*
X140089502Y-77085820D01*
X140030537Y-76975506D01*
X139951185Y-76878815D01*
X139854494Y-76799463D01*
X139744180Y-76740498D01*
X139660000Y-76714962D01*
X139660000Y-76214801D01*
X141066802Y-74808001D01*
X141125518Y-74825812D01*
X141250000Y-74838072D01*
X142150000Y-74838072D01*
X142274482Y-74825812D01*
X142394180Y-74789502D01*
X142504494Y-74730537D01*
X142601185Y-74651185D01*
X142611928Y-74638095D01*
X142611928Y-74763271D01*
X142588998Y-74786201D01*
X142560000Y-74809999D01*
X142536202Y-74838997D01*
X142536201Y-74838998D01*
X142465026Y-74925724D01*
X142394454Y-75057754D01*
X142374232Y-75124420D01*
X142350998Y-75201014D01*
X142345090Y-75261003D01*
X142336324Y-75350000D01*
X142340001Y-75387332D01*
X142340001Y-75796288D01*
X142296063Y-75840226D01*
X142182795Y-76009744D01*
X142104774Y-76198102D01*
X142065000Y-76398061D01*
X142065000Y-76601939D01*
X142104774Y-76801898D01*
X142182795Y-76990256D01*
X142296063Y-77159774D01*
X142440226Y-77303937D01*
X142609744Y-77417205D01*
X142798102Y-77495226D01*
X142998061Y-77535000D01*
X143201939Y-77535000D01*
X143401898Y-77495226D01*
X143590256Y-77417205D01*
X143759774Y-77303937D01*
X143903937Y-77159774D01*
X144017205Y-76990256D01*
X144095226Y-76801898D01*
X144135000Y-76601939D01*
X144135000Y-76398061D01*
X144095226Y-76198102D01*
X144017205Y-76009744D01*
X143903937Y-75840226D01*
X143860000Y-75796289D01*
X143860000Y-75788072D01*
X144150000Y-75788072D01*
X144274482Y-75775812D01*
X144340001Y-75755937D01*
X144340001Y-77864510D01*
X144281623Y-77793377D01*
X144148942Y-77684488D01*
X143997567Y-77603577D01*
X143833316Y-77553752D01*
X143662500Y-77536928D01*
X143087500Y-77536928D01*
X142916684Y-77553752D01*
X142752433Y-77603577D01*
X142601058Y-77684488D01*
X142500000Y-77767425D01*
X142398942Y-77684488D01*
X142247567Y-77603577D01*
X142083316Y-77553752D01*
X141912500Y-77536928D01*
X141337500Y-77536928D01*
X141166684Y-77553752D01*
X141002433Y-77603577D01*
X140851058Y-77684488D01*
X140718377Y-77793377D01*
X140609488Y-77926058D01*
X140528577Y-78077433D01*
X140478752Y-78241684D01*
X140461928Y-78412500D01*
X140461928Y-78887500D01*
X140478752Y-79058316D01*
X140510901Y-79164297D01*
X140165199Y-79510000D01*
X140026018Y-79510000D01*
X139951185Y-79418815D01*
X139854494Y-79339463D01*
X139744180Y-79280498D01*
X139624482Y-79244188D01*
X139500000Y-79231928D01*
X138300000Y-79231928D01*
X138175518Y-79244188D01*
X138055820Y-79280498D01*
X137945506Y-79339463D01*
X137848815Y-79418815D01*
X137769463Y-79515506D01*
X137710498Y-79625820D01*
X137674188Y-79745518D01*
X137661928Y-79870000D01*
X137661928Y-80670000D01*
X137674188Y-80794482D01*
X137710498Y-80914180D01*
X137769463Y-81024494D01*
X137848815Y-81121185D01*
X137945506Y-81200537D01*
X138055820Y-81259502D01*
X138175518Y-81295812D01*
X138300000Y-81308072D01*
X139500000Y-81308072D01*
X139624482Y-81295812D01*
X139744180Y-81259502D01*
X139854494Y-81200537D01*
X139951185Y-81121185D01*
X140026018Y-81030000D01*
X140442678Y-81030000D01*
X140480000Y-81033676D01*
X140517322Y-81030000D01*
X140517333Y-81030000D01*
X140628986Y-81019003D01*
X140772247Y-80975546D01*
X140904276Y-80904974D01*
X141020001Y-80810001D01*
X141043804Y-80780998D01*
X142078034Y-79746768D01*
X142083316Y-79746248D01*
X142247567Y-79696423D01*
X142398942Y-79615512D01*
X142500000Y-79532575D01*
X142601058Y-79615512D01*
X142752433Y-79696423D01*
X142847503Y-79725262D01*
X142863997Y-79738798D01*
X142965000Y-79839801D01*
X142965000Y-79901939D01*
X143004774Y-80101898D01*
X143082795Y-80290256D01*
X143196063Y-80459774D01*
X143340226Y-80603937D01*
X143509744Y-80717205D01*
X143698102Y-80795226D01*
X143898061Y-80835000D01*
X144101939Y-80835000D01*
X144301898Y-80795226D01*
X144340001Y-80779443D01*
X144340001Y-88809598D01*
X144338405Y-88806613D01*
X144227962Y-88672038D01*
X144093387Y-88561595D01*
X143939851Y-88479528D01*
X143773255Y-88428992D01*
X143600001Y-88411928D01*
X142299999Y-88411928D01*
X142126745Y-88428992D01*
X141960149Y-88479528D01*
X141806613Y-88561595D01*
X141672038Y-88672038D01*
X141561595Y-88806613D01*
X141479528Y-88960149D01*
X141428992Y-89126745D01*
X141411928Y-89299999D01*
X141411928Y-90000001D01*
X141422758Y-90109961D01*
X141351582Y-90071916D01*
X141203745Y-90027071D01*
X141050000Y-90011928D01*
X139800000Y-90011928D01*
X139646255Y-90027071D01*
X139498418Y-90071916D01*
X139371043Y-90140000D01*
X137228957Y-90140000D01*
X137101582Y-90071916D01*
X136953745Y-90027071D01*
X136800000Y-90011928D01*
X135550000Y-90011928D01*
X135396255Y-90027071D01*
X135248418Y-90071916D01*
X135177242Y-90109961D01*
X135188072Y-90000001D01*
X135188072Y-89299999D01*
X135171008Y-89126745D01*
X135120472Y-88960149D01*
X135038405Y-88806613D01*
X134927962Y-88672038D01*
X134793387Y-88561595D01*
X134639851Y-88479528D01*
X134473255Y-88428992D01*
X134300001Y-88411928D01*
X132999999Y-88411928D01*
X132826745Y-88428992D01*
X132660149Y-88479528D01*
X132506613Y-88561595D01*
X132372038Y-88672038D01*
X132261595Y-88806613D01*
X132179528Y-88960149D01*
X132128992Y-89126745D01*
X132111928Y-89299999D01*
X132111928Y-90000001D01*
X132125717Y-90140000D01*
X125892976Y-90140000D01*
X125837829Y-90094742D01*
X125701582Y-90021916D01*
X125553745Y-89977071D01*
X125400000Y-89961928D01*
X124150000Y-89961928D01*
X123996255Y-89977071D01*
X123848418Y-90021916D01*
X123777242Y-90059961D01*
X123788072Y-89950001D01*
X123788072Y-89249999D01*
X123771008Y-89076745D01*
X123720472Y-88910149D01*
X123638405Y-88756613D01*
X123527962Y-88622038D01*
X123393387Y-88511595D01*
X123239851Y-88429528D01*
X123073255Y-88378992D01*
X122900001Y-88361928D01*
X121599999Y-88361928D01*
X121426745Y-88378992D01*
X121260149Y-88429528D01*
X121106613Y-88511595D01*
X120972038Y-88622038D01*
X120861595Y-88756613D01*
X120779528Y-88910149D01*
X120728992Y-89076745D01*
X120711928Y-89249999D01*
X120711928Y-89950001D01*
X120728992Y-90123255D01*
X120779528Y-90289851D01*
X120861595Y-90443387D01*
X120972038Y-90577962D01*
X121106613Y-90688405D01*
X121260149Y-90770472D01*
X121426745Y-90821008D01*
X121599999Y-90838072D01*
X122900001Y-90838072D01*
X123073255Y-90821008D01*
X123239851Y-90770472D01*
X123366584Y-90702732D01*
X123361928Y-90750000D01*
X123361928Y-91050000D01*
X123377071Y-91203745D01*
X123421916Y-91351582D01*
X123447796Y-91400000D01*
X123421916Y-91448418D01*
X123377071Y-91596255D01*
X123361928Y-91750000D01*
X123361928Y-92050000D01*
X123377071Y-92203745D01*
X123421916Y-92351582D01*
X123447796Y-92400000D01*
X123421916Y-92448418D01*
X123377071Y-92596255D01*
X123361928Y-92750000D01*
X123361928Y-93050000D01*
X123377071Y-93203745D01*
X123421916Y-93351582D01*
X123447796Y-93400000D01*
X123421916Y-93448418D01*
X123377071Y-93596255D01*
X123361928Y-93750000D01*
X123361928Y-94050000D01*
X123366584Y-94097268D01*
X123239851Y-94029528D01*
X123073255Y-93978992D01*
X122900001Y-93961928D01*
X121599999Y-93961928D01*
X121426745Y-93978992D01*
X121260149Y-94029528D01*
X121106613Y-94111595D01*
X120972038Y-94222038D01*
X120861595Y-94356613D01*
X120779528Y-94510149D01*
X120728992Y-94676745D01*
X120711928Y-94849999D01*
X120711928Y-95550001D01*
X120728992Y-95723255D01*
X120779528Y-95889851D01*
X120861595Y-96043387D01*
X120972038Y-96177962D01*
X121106613Y-96288405D01*
X121260149Y-96370472D01*
X121426745Y-96421008D01*
X121599999Y-96438072D01*
X122900001Y-96438072D01*
X123073255Y-96421008D01*
X123239851Y-96370472D01*
X123393387Y-96288405D01*
X123527962Y-96177962D01*
X123638405Y-96043387D01*
X123720472Y-95889851D01*
X123771008Y-95723255D01*
X123788072Y-95550001D01*
X123788072Y-94849999D01*
X123777242Y-94740039D01*
X123848418Y-94778084D01*
X123996255Y-94822929D01*
X124150000Y-94838072D01*
X125400000Y-94838072D01*
X125553745Y-94822929D01*
X125701582Y-94778084D01*
X125837829Y-94705258D01*
X125892976Y-94660000D01*
X132149239Y-94660000D01*
X132128992Y-94726745D01*
X132111928Y-94899999D01*
X132111928Y-95600001D01*
X132128992Y-95773255D01*
X132179528Y-95939851D01*
X132261595Y-96093387D01*
X132372038Y-96227962D01*
X132506613Y-96338405D01*
X132660149Y-96420472D01*
X132826745Y-96471008D01*
X132999999Y-96488072D01*
X134300001Y-96488072D01*
X134473255Y-96471008D01*
X134639851Y-96420472D01*
X134793387Y-96338405D01*
X134927962Y-96227962D01*
X135038405Y-96093387D01*
X135120472Y-95939851D01*
X135171008Y-95773255D01*
X135188072Y-95600001D01*
X135188072Y-94899999D01*
X135177242Y-94790039D01*
X135248418Y-94828084D01*
X135396255Y-94872929D01*
X135550000Y-94888072D01*
X136800000Y-94888072D01*
X136953745Y-94872929D01*
X137101582Y-94828084D01*
X137237829Y-94755258D01*
X137353901Y-94660000D01*
X139246099Y-94660000D01*
X139362171Y-94755258D01*
X139498418Y-94828084D01*
X139646255Y-94872929D01*
X139800000Y-94888072D01*
X141050000Y-94888072D01*
X141203745Y-94872929D01*
X141351582Y-94828084D01*
X141422758Y-94790039D01*
X141411928Y-94899999D01*
X141411928Y-95600001D01*
X141428992Y-95773255D01*
X141479528Y-95939851D01*
X141561595Y-96093387D01*
X141672038Y-96227962D01*
X141806613Y-96338405D01*
X141960149Y-96420472D01*
X142126745Y-96471008D01*
X142299999Y-96488072D01*
X143600001Y-96488072D01*
X143773255Y-96471008D01*
X143939851Y-96420472D01*
X144093387Y-96338405D01*
X144227962Y-96227962D01*
X144338405Y-96093387D01*
X144340001Y-96090402D01*
X144340000Y-119126112D01*
X144301185Y-119078815D01*
X144204494Y-118999463D01*
X144094180Y-118940498D01*
X144010000Y-118914962D01*
X144010000Y-117476018D01*
X144101185Y-117401185D01*
X144180537Y-117304494D01*
X144239502Y-117194180D01*
X144275812Y-117074482D01*
X144288072Y-116950000D01*
X144288072Y-116150000D01*
X144275812Y-116025518D01*
X144239502Y-115905820D01*
X144180537Y-115795506D01*
X144101185Y-115698815D01*
X144004494Y-115619463D01*
X143894180Y-115560498D01*
X143774482Y-115524188D01*
X143650000Y-115511928D01*
X143063040Y-115511928D01*
X143113031Y-115451014D01*
X143134974Y-115424277D01*
X143205546Y-115292247D01*
X143240892Y-115175724D01*
X143249003Y-115148986D01*
X143260000Y-115037333D01*
X143260000Y-115037324D01*
X143263676Y-115000001D01*
X143260000Y-114962678D01*
X143260000Y-114603711D01*
X143303937Y-114559774D01*
X143417205Y-114390256D01*
X143495226Y-114201898D01*
X143535000Y-114001939D01*
X143535000Y-113798061D01*
X143495226Y-113598102D01*
X143417205Y-113409744D01*
X143303937Y-113240226D01*
X143159774Y-113096063D01*
X142990256Y-112982795D01*
X142801898Y-112904774D01*
X142601939Y-112865000D01*
X142398061Y-112865000D01*
X142198102Y-112904774D01*
X142009744Y-112982795D01*
X141840226Y-113096063D01*
X141696063Y-113240226D01*
X141582795Y-113409744D01*
X141504774Y-113598102D01*
X141465000Y-113798061D01*
X141465000Y-114001939D01*
X141504774Y-114201898D01*
X141582795Y-114390256D01*
X141696063Y-114559774D01*
X141703485Y-114567196D01*
X141650000Y-114561928D01*
X140750000Y-114561928D01*
X140625518Y-114574188D01*
X140505820Y-114610498D01*
X140395506Y-114669463D01*
X140298815Y-114748815D01*
X140219463Y-114845506D01*
X140160498Y-114955820D01*
X140124188Y-115075518D01*
X140111928Y-115200000D01*
X140111928Y-116000000D01*
X140124188Y-116124482D01*
X140160498Y-116244180D01*
X140219463Y-116354494D01*
X140298815Y-116451185D01*
X140395506Y-116530537D01*
X140431918Y-116550000D01*
X140395506Y-116569463D01*
X140298815Y-116648815D01*
X140219463Y-116745506D01*
X140160498Y-116855820D01*
X140124188Y-116975518D01*
X140111928Y-117100000D01*
X140115000Y-117214250D01*
X140273750Y-117373000D01*
X141073000Y-117373000D01*
X141073000Y-117353000D01*
X141327000Y-117353000D01*
X141327000Y-117373000D01*
X142126250Y-117373000D01*
X142210857Y-117288393D01*
X142219463Y-117304494D01*
X142298815Y-117401185D01*
X142395506Y-117480537D01*
X142490001Y-117531046D01*
X142490000Y-118914962D01*
X142405820Y-118940498D01*
X142295506Y-118999463D01*
X142198815Y-119078815D01*
X142119463Y-119175506D01*
X142060498Y-119285820D01*
X142024188Y-119405518D01*
X142011928Y-119530000D01*
X142011928Y-120330000D01*
X142024188Y-120454482D01*
X142060498Y-120574180D01*
X142119463Y-120684494D01*
X142198815Y-120781185D01*
X142295506Y-120860537D01*
X142405820Y-120919502D01*
X142525518Y-120955812D01*
X142650000Y-120968072D01*
X143850000Y-120968072D01*
X143974482Y-120955812D01*
X144094180Y-120919502D01*
X144204494Y-120860537D01*
X144301185Y-120781185D01*
X144340000Y-120733888D01*
X144340000Y-121666112D01*
X144301185Y-121618815D01*
X144204494Y-121539463D01*
X144094180Y-121480498D01*
X143974482Y-121444188D01*
X143850000Y-121431928D01*
X142650000Y-121431928D01*
X142525518Y-121444188D01*
X142405820Y-121480498D01*
X142295506Y-121539463D01*
X142198815Y-121618815D01*
X142119463Y-121715506D01*
X142060498Y-121825820D01*
X142024188Y-121945518D01*
X142011928Y-122070000D01*
X142011928Y-122870000D01*
X142024188Y-122994482D01*
X142060498Y-123114180D01*
X142119463Y-123224494D01*
X142198815Y-123321185D01*
X142295506Y-123400537D01*
X142405820Y-123459502D01*
X142525518Y-123495812D01*
X142650000Y-123508072D01*
X142690001Y-123508072D01*
X142690000Y-123739080D01*
X142593377Y-123818377D01*
X142484488Y-123951058D01*
X142403577Y-124102433D01*
X142353752Y-124266684D01*
X142336928Y-124437500D01*
X142336928Y-125012500D01*
X142353752Y-125183316D01*
X142403577Y-125347567D01*
X142484488Y-125498942D01*
X142567425Y-125600000D01*
X142484488Y-125701058D01*
X142477036Y-125715000D01*
X140919802Y-125715000D01*
X138397521Y-123192720D01*
X138439502Y-123114180D01*
X138475812Y-122994482D01*
X138488072Y-122870000D01*
X138488072Y-122070000D01*
X138475812Y-121945518D01*
X138439502Y-121825820D01*
X138380537Y-121715506D01*
X138301185Y-121618815D01*
X138204494Y-121539463D01*
X138094180Y-121480498D01*
X137974482Y-121444188D01*
X137850000Y-121431928D01*
X137715640Y-121431928D01*
X137686447Y-121416324D01*
X137472499Y-121351423D01*
X137305752Y-121335000D01*
X136090132Y-121335000D01*
X134285132Y-119530000D01*
X136011928Y-119530000D01*
X136011928Y-120330000D01*
X136024188Y-120454482D01*
X136060498Y-120574180D01*
X136119463Y-120684494D01*
X136198815Y-120781185D01*
X136295506Y-120860537D01*
X136405820Y-120919502D01*
X136525518Y-120955812D01*
X136650000Y-120968072D01*
X136784360Y-120968072D01*
X136813553Y-120983676D01*
X137027501Y-121048577D01*
X137250000Y-121070491D01*
X137472498Y-121048577D01*
X137686446Y-120983676D01*
X137715639Y-120968072D01*
X137850000Y-120968072D01*
X137974482Y-120955812D01*
X138094180Y-120919502D01*
X138204494Y-120860537D01*
X138301185Y-120781185D01*
X138380537Y-120684494D01*
X138439502Y-120574180D01*
X138475812Y-120454482D01*
X138488072Y-120330000D01*
X138488072Y-119530000D01*
X138475812Y-119405518D01*
X138439502Y-119285820D01*
X138385000Y-119183856D01*
X138385000Y-117900000D01*
X140111928Y-117900000D01*
X140124188Y-118024482D01*
X140160498Y-118144180D01*
X140219463Y-118254494D01*
X140298815Y-118351185D01*
X140395506Y-118430537D01*
X140505820Y-118489502D01*
X140625518Y-118525812D01*
X140750000Y-118538072D01*
X140914250Y-118535000D01*
X141073000Y-118376250D01*
X141073000Y-117627000D01*
X141327000Y-117627000D01*
X141327000Y-118376250D01*
X141485750Y-118535000D01*
X141650000Y-118538072D01*
X141774482Y-118525812D01*
X141894180Y-118489502D01*
X142004494Y-118430537D01*
X142101185Y-118351185D01*
X142180537Y-118254494D01*
X142239502Y-118144180D01*
X142275812Y-118024482D01*
X142288072Y-117900000D01*
X142285000Y-117785750D01*
X142126250Y-117627000D01*
X141327000Y-117627000D01*
X141073000Y-117627000D01*
X140273750Y-117627000D01*
X140115000Y-117785750D01*
X140111928Y-117900000D01*
X138385000Y-117900000D01*
X138385000Y-112420131D01*
X139892060Y-110913072D01*
X140150001Y-110913072D01*
X140323255Y-110896008D01*
X140489851Y-110845472D01*
X140643387Y-110763405D01*
X140777962Y-110652962D01*
X140888405Y-110518387D01*
X140890967Y-110513594D01*
X141016526Y-110638078D01*
X141219467Y-110772421D01*
X141444718Y-110864591D01*
X141482391Y-110868462D01*
X141673000Y-110743731D01*
X141673000Y-109527000D01*
X141927000Y-109527000D01*
X141927000Y-110743731D01*
X142117609Y-110868462D01*
X142155282Y-110864591D01*
X142380533Y-110772421D01*
X142583474Y-110638078D01*
X142756307Y-110466725D01*
X142892390Y-110264946D01*
X142986493Y-110040496D01*
X143035000Y-109802000D01*
X143035000Y-109527000D01*
X141927000Y-109527000D01*
X141673000Y-109527000D01*
X141653000Y-109527000D01*
X141653000Y-109273000D01*
X141673000Y-109273000D01*
X141673000Y-108056269D01*
X141927000Y-108056269D01*
X141927000Y-109273000D01*
X143035000Y-109273000D01*
X143035000Y-108998000D01*
X142986493Y-108759504D01*
X142892390Y-108535054D01*
X142756307Y-108333275D01*
X142583474Y-108161922D01*
X142380533Y-108027579D01*
X142155282Y-107935409D01*
X142117609Y-107931538D01*
X141927000Y-108056269D01*
X141673000Y-108056269D01*
X141482391Y-107931538D01*
X141444718Y-107935409D01*
X141219467Y-108027579D01*
X141016526Y-108161922D01*
X140935000Y-108242750D01*
X140935000Y-103457250D01*
X141016526Y-103538078D01*
X141219467Y-103672421D01*
X141444718Y-103764591D01*
X141482391Y-103768462D01*
X141673000Y-103643731D01*
X141673000Y-102427000D01*
X141927000Y-102427000D01*
X141927000Y-103643731D01*
X142117609Y-103768462D01*
X142155282Y-103764591D01*
X142380533Y-103672421D01*
X142583474Y-103538078D01*
X142756307Y-103366725D01*
X142892390Y-103164946D01*
X142986493Y-102940496D01*
X143035000Y-102702000D01*
X143035000Y-102427000D01*
X141927000Y-102427000D01*
X141673000Y-102427000D01*
X141653000Y-102427000D01*
X141653000Y-102173000D01*
X141673000Y-102173000D01*
X141673000Y-100956269D01*
X141927000Y-100956269D01*
X141927000Y-102173000D01*
X143035000Y-102173000D01*
X143035000Y-101898000D01*
X142986493Y-101659504D01*
X142892390Y-101435054D01*
X142756307Y-101233275D01*
X142583474Y-101061922D01*
X142380533Y-100927579D01*
X142155282Y-100835409D01*
X142117609Y-100831538D01*
X141927000Y-100956269D01*
X141673000Y-100956269D01*
X141482391Y-100831538D01*
X141444718Y-100835409D01*
X141219467Y-100927579D01*
X141016526Y-101061922D01*
X140890967Y-101186406D01*
X140888405Y-101181613D01*
X140777962Y-101047038D01*
X140643387Y-100936595D01*
X140489851Y-100854528D01*
X140323255Y-100803992D01*
X140150001Y-100786928D01*
X139449999Y-100786928D01*
X139276745Y-100803992D01*
X139110149Y-100854528D01*
X138956613Y-100936595D01*
X138822038Y-101047038D01*
X138711595Y-101181613D01*
X138629528Y-101335149D01*
X138578992Y-101501745D01*
X138561928Y-101674999D01*
X138561928Y-102925001D01*
X138578992Y-103098255D01*
X138629528Y-103264851D01*
X138665001Y-103331216D01*
X138665000Y-108368786D01*
X138629528Y-108435149D01*
X138578992Y-108601745D01*
X138561928Y-108774999D01*
X138561928Y-109032939D01*
X136486860Y-111108009D01*
X136443552Y-111143551D01*
X136301717Y-111316377D01*
X136261164Y-111392247D01*
X136196324Y-111513554D01*
X136131423Y-111727502D01*
X136109509Y-111950000D01*
X136115001Y-112005761D01*
X136115000Y-119183855D01*
X136060498Y-119285820D01*
X136024188Y-119405518D01*
X136011928Y-119530000D01*
X134285132Y-119530000D01*
X133491993Y-118736862D01*
X133491989Y-118736857D01*
X133441989Y-118686857D01*
X133406449Y-118643551D01*
X133233623Y-118501716D01*
X133036447Y-118396324D01*
X132822499Y-118331423D01*
X132655752Y-118315000D01*
X132655751Y-118315000D01*
X132600000Y-118309509D01*
X132544249Y-118315000D01*
X129944248Y-118315000D01*
X129777501Y-118331423D01*
X129563553Y-118396324D01*
X129366377Y-118501716D01*
X129193551Y-118643551D01*
X129051716Y-118816377D01*
X128950000Y-119006676D01*
X128848284Y-118816377D01*
X128706449Y-118643551D01*
X128533623Y-118501716D01*
X128336447Y-118396324D01*
X128122499Y-118331423D01*
X127955752Y-118315000D01*
X126088220Y-118315000D01*
X126052962Y-118272038D01*
X125918387Y-118161595D01*
X125764851Y-118079528D01*
X125598255Y-118028992D01*
X125425001Y-118011928D01*
X125185000Y-118011928D01*
X125185000Y-116074771D01*
X125302962Y-115977962D01*
X125413405Y-115843387D01*
X125495472Y-115689851D01*
X125546008Y-115523255D01*
X125563072Y-115350001D01*
X125563072Y-114649999D01*
X125546008Y-114476745D01*
X125495472Y-114310149D01*
X125413405Y-114156613D01*
X125302962Y-114022038D01*
X125168387Y-113911595D01*
X125163594Y-113909033D01*
X125288078Y-113783474D01*
X125422421Y-113580533D01*
X125514591Y-113355282D01*
X125518462Y-113317609D01*
X125393731Y-113127000D01*
X124177000Y-113127000D01*
X124177000Y-113147000D01*
X123923000Y-113147000D01*
X123923000Y-113127000D01*
X123903000Y-113127000D01*
X123903000Y-112873000D01*
X123923000Y-112873000D01*
X123923000Y-111765000D01*
X124177000Y-111765000D01*
X124177000Y-112873000D01*
X125393731Y-112873000D01*
X125518462Y-112682391D01*
X125514591Y-112644718D01*
X125422421Y-112419467D01*
X125288078Y-112216526D01*
X125116725Y-112043693D01*
X124914946Y-111907610D01*
X124690496Y-111813507D01*
X124452000Y-111765000D01*
X124177000Y-111765000D01*
X123923000Y-111765000D01*
X123648000Y-111765000D01*
X123409504Y-111813507D01*
X123185054Y-111907610D01*
X122983275Y-112043693D01*
X122811922Y-112216526D01*
X122677579Y-112419467D01*
X122638869Y-112514068D01*
X121784801Y-111660000D01*
X128123982Y-111660000D01*
X128198815Y-111751185D01*
X128295506Y-111830537D01*
X128405820Y-111889502D01*
X128525518Y-111925812D01*
X128650000Y-111938072D01*
X129550000Y-111938072D01*
X129674482Y-111925812D01*
X129794180Y-111889502D01*
X129904494Y-111830537D01*
X130001185Y-111751185D01*
X130080537Y-111654494D01*
X130139502Y-111544180D01*
X130175812Y-111424482D01*
X130188072Y-111300000D01*
X130188072Y-110788095D01*
X130198815Y-110801185D01*
X130295506Y-110880537D01*
X130405820Y-110939502D01*
X130525518Y-110975812D01*
X130650000Y-110988072D01*
X131550000Y-110988072D01*
X131674482Y-110975812D01*
X131794180Y-110939502D01*
X131904494Y-110880537D01*
X132001185Y-110801185D01*
X132080537Y-110704494D01*
X132112482Y-110644730D01*
X132224276Y-110584974D01*
X132340001Y-110490001D01*
X132363803Y-110460998D01*
X132911002Y-109913800D01*
X132940001Y-109890001D01*
X132966332Y-109857917D01*
X133034974Y-109774277D01*
X133105546Y-109642247D01*
X133149003Y-109498986D01*
X133160000Y-109387333D01*
X133160000Y-109387324D01*
X133163676Y-109350001D01*
X133160000Y-109312678D01*
X133160000Y-107796144D01*
X133214502Y-107694180D01*
X133250812Y-107574482D01*
X133263072Y-107450000D01*
X133263072Y-106850000D01*
X133250812Y-106725518D01*
X133214502Y-106605820D01*
X133155537Y-106495506D01*
X133076185Y-106398815D01*
X132979494Y-106319463D01*
X132869180Y-106260498D01*
X132749482Y-106224188D01*
X132625000Y-106211928D01*
X132175000Y-106211928D01*
X132050518Y-106224188D01*
X131930820Y-106260498D01*
X131820506Y-106319463D01*
X131723815Y-106398815D01*
X131644463Y-106495506D01*
X131585498Y-106605820D01*
X131549188Y-106725518D01*
X131536928Y-106850000D01*
X131536928Y-107450000D01*
X131549188Y-107574482D01*
X131585498Y-107694180D01*
X131640000Y-107796145D01*
X131640001Y-108920792D01*
X131550000Y-108911928D01*
X130650000Y-108911928D01*
X130525518Y-108924188D01*
X130405820Y-108960498D01*
X130295506Y-109019463D01*
X130198815Y-109098815D01*
X130188072Y-109111905D01*
X130188072Y-108600000D01*
X130175812Y-108475518D01*
X130139502Y-108355820D01*
X130080537Y-108245506D01*
X130001185Y-108148815D01*
X129904494Y-108069463D01*
X129794180Y-108010498D01*
X129674482Y-107974188D01*
X129550000Y-107961928D01*
X129190331Y-107961928D01*
X129323942Y-107890512D01*
X129456623Y-107781623D01*
X129500000Y-107728768D01*
X129543377Y-107781623D01*
X129676058Y-107890512D01*
X129827433Y-107971423D01*
X129991684Y-108021248D01*
X130162500Y-108038072D01*
X130637500Y-108038072D01*
X130808316Y-108021248D01*
X130972567Y-107971423D01*
X131123942Y-107890512D01*
X131256623Y-107781623D01*
X131365512Y-107648942D01*
X131446423Y-107497567D01*
X131496248Y-107333316D01*
X131513072Y-107162500D01*
X131513072Y-106587500D01*
X131496248Y-106416684D01*
X131446423Y-106252433D01*
X131365512Y-106101058D01*
X131282575Y-106000000D01*
X131365512Y-105898942D01*
X131372964Y-105885000D01*
X131828856Y-105885000D01*
X131930820Y-105939502D01*
X132050518Y-105975812D01*
X132175000Y-105988072D01*
X132625000Y-105988072D01*
X132749482Y-105975812D01*
X132869180Y-105939502D01*
X132979494Y-105880537D01*
X133076185Y-105801185D01*
X133155537Y-105704494D01*
X133214502Y-105594180D01*
X133250812Y-105474482D01*
X133263072Y-105350000D01*
X133263072Y-104750000D01*
X133250812Y-104625518D01*
X133214502Y-104505820D01*
X133155537Y-104395506D01*
X133076185Y-104298815D01*
X132979494Y-104219463D01*
X132869180Y-104160498D01*
X132749482Y-104124188D01*
X132625000Y-104111928D01*
X132175000Y-104111928D01*
X132050518Y-104124188D01*
X131930820Y-104160498D01*
X131820506Y-104219463D01*
X131723815Y-104298815D01*
X131669499Y-104365000D01*
X131372964Y-104365000D01*
X131365512Y-104351058D01*
X131256623Y-104218377D01*
X131123942Y-104109488D01*
X130972567Y-104028577D01*
X130808316Y-103978752D01*
X130637500Y-103961928D01*
X130162500Y-103961928D01*
X129991684Y-103978752D01*
X129827433Y-104028577D01*
X129676058Y-104109488D01*
X129567217Y-104198812D01*
X129526185Y-104148815D01*
X129429494Y-104069463D01*
X129319180Y-104010498D01*
X129199482Y-103974188D01*
X129075000Y-103961928D01*
X128885750Y-103965000D01*
X128727000Y-104123750D01*
X128727000Y-104998000D01*
X128747000Y-104998000D01*
X128747000Y-105252000D01*
X128727000Y-105252000D01*
X128727000Y-105272000D01*
X128473000Y-105272000D01*
X128473000Y-105252000D01*
X127648750Y-105252000D01*
X127490000Y-105410750D01*
X127488811Y-105503357D01*
X127468386Y-105486595D01*
X127314850Y-105404528D01*
X127148254Y-105353992D01*
X126975000Y-105336928D01*
X126902949Y-105336928D01*
X126895226Y-105298102D01*
X126817205Y-105109744D01*
X126785151Y-105061772D01*
X127225000Y-105063072D01*
X127349482Y-105050812D01*
X127469180Y-105014502D01*
X127579494Y-104955537D01*
X127594210Y-104943460D01*
X127648750Y-104998000D01*
X128473000Y-104998000D01*
X128473000Y-104123750D01*
X128314250Y-103965000D01*
X128125000Y-103961928D01*
X128000518Y-103974188D01*
X127880820Y-104010498D01*
X127860168Y-104021537D01*
X127860000Y-103998250D01*
X127701250Y-103839500D01*
X126027000Y-103839500D01*
X126027000Y-103859500D01*
X125773000Y-103859500D01*
X125773000Y-103839500D01*
X124098750Y-103839500D01*
X123940000Y-103998250D01*
X123936928Y-104425000D01*
X123949188Y-104549482D01*
X123985498Y-104669180D01*
X124044463Y-104779494D01*
X124123815Y-104876185D01*
X124220506Y-104955537D01*
X124330820Y-105014502D01*
X124450518Y-105050812D01*
X124575000Y-105063072D01*
X125014849Y-105061772D01*
X124982795Y-105109744D01*
X124904774Y-105298102D01*
X124897051Y-105336928D01*
X124825000Y-105336928D01*
X124651746Y-105353992D01*
X124485150Y-105404528D01*
X124331614Y-105486595D01*
X124197038Y-105597038D01*
X124086595Y-105731614D01*
X124004528Y-105885150D01*
X123953992Y-106051746D01*
X123936928Y-106225000D01*
X123936928Y-107150000D01*
X123953992Y-107323254D01*
X124004528Y-107489850D01*
X124086595Y-107643386D01*
X124162216Y-107735531D01*
X124145506Y-107744463D01*
X124048815Y-107823815D01*
X123969463Y-107920506D01*
X123910498Y-108030820D01*
X123874188Y-108150518D01*
X123861928Y-108275000D01*
X123865000Y-108464250D01*
X124023750Y-108623000D01*
X124898000Y-108623000D01*
X124898000Y-108603000D01*
X125152000Y-108603000D01*
X125152000Y-108623000D01*
X125172000Y-108623000D01*
X125172000Y-108877000D01*
X125152000Y-108877000D01*
X125152000Y-109701250D01*
X125310750Y-109860000D01*
X125550000Y-109863072D01*
X125674482Y-109850812D01*
X125794180Y-109814502D01*
X125904494Y-109755537D01*
X125977161Y-109695901D01*
X126001058Y-109715512D01*
X126152433Y-109796423D01*
X126316684Y-109846248D01*
X126487500Y-109863072D01*
X127062500Y-109863072D01*
X127233316Y-109846248D01*
X127397567Y-109796423D01*
X127548942Y-109715512D01*
X127681623Y-109606623D01*
X127760920Y-109510000D01*
X128022762Y-109510000D01*
X128024188Y-109524482D01*
X128060498Y-109644180D01*
X128119463Y-109754494D01*
X128198815Y-109851185D01*
X128295506Y-109930537D01*
X128331918Y-109950000D01*
X128295506Y-109969463D01*
X128198815Y-110048815D01*
X128123982Y-110140000D01*
X121660000Y-110140000D01*
X121660000Y-109225000D01*
X123861928Y-109225000D01*
X123874188Y-109349482D01*
X123910498Y-109469180D01*
X123969463Y-109579494D01*
X124048815Y-109676185D01*
X124145506Y-109755537D01*
X124255820Y-109814502D01*
X124375518Y-109850812D01*
X124500000Y-109863072D01*
X124739250Y-109860000D01*
X124898000Y-109701250D01*
X124898000Y-108877000D01*
X124023750Y-108877000D01*
X123865000Y-109035750D01*
X123861928Y-109225000D01*
X121660000Y-109225000D01*
X121660000Y-103000000D01*
X123936928Y-103000000D01*
X123940000Y-103426750D01*
X124098750Y-103585500D01*
X125773000Y-103585500D01*
X125773000Y-102523750D01*
X126027000Y-102523750D01*
X126027000Y-103585500D01*
X127701250Y-103585500D01*
X127860000Y-103426750D01*
X127863072Y-103000000D01*
X127850812Y-102875518D01*
X127814502Y-102755820D01*
X127755537Y-102645506D01*
X127676185Y-102548815D01*
X127579494Y-102469463D01*
X127469180Y-102410498D01*
X127349482Y-102374188D01*
X127225000Y-102361928D01*
X126185750Y-102365000D01*
X126027000Y-102523750D01*
X125773000Y-102523750D01*
X125614250Y-102365000D01*
X124575000Y-102361928D01*
X124450518Y-102374188D01*
X124330820Y-102410498D01*
X124220506Y-102469463D01*
X124123815Y-102548815D01*
X124044463Y-102645506D01*
X123985498Y-102755820D01*
X123949188Y-102875518D01*
X123936928Y-103000000D01*
X121660000Y-103000000D01*
X121660000Y-100764801D01*
X122449065Y-99975736D01*
X122516684Y-99996248D01*
X122687500Y-100013072D01*
X123262500Y-100013072D01*
X123433316Y-99996248D01*
X123597567Y-99946423D01*
X123748942Y-99865512D01*
X123850000Y-99782575D01*
X123951058Y-99865512D01*
X124102433Y-99946423D01*
X124266684Y-99996248D01*
X124437500Y-100013072D01*
X125012500Y-100013072D01*
X125183316Y-99996248D01*
X125347567Y-99946423D01*
X125498942Y-99865512D01*
X125631623Y-99756623D01*
X125710920Y-99660000D01*
X126864962Y-99660000D01*
X126890498Y-99744180D01*
X126949463Y-99854494D01*
X127028815Y-99951185D01*
X127125506Y-100030537D01*
X127235820Y-100089502D01*
X127355518Y-100125812D01*
X127480000Y-100138072D01*
X128280000Y-100138072D01*
X128404482Y-100125812D01*
X128524180Y-100089502D01*
X128634494Y-100030537D01*
X128731185Y-99951185D01*
X128810537Y-99854494D01*
X128869502Y-99744180D01*
X128905812Y-99624482D01*
X128918072Y-99500000D01*
X129381928Y-99500000D01*
X129394188Y-99624482D01*
X129430498Y-99744180D01*
X129489463Y-99854494D01*
X129568815Y-99951185D01*
X129665506Y-100030537D01*
X129775820Y-100089502D01*
X129895518Y-100125812D01*
X130020000Y-100138072D01*
X130134250Y-100135000D01*
X130293000Y-99976250D01*
X130293000Y-99027000D01*
X130547000Y-99027000D01*
X130547000Y-99976250D01*
X130705750Y-100135000D01*
X130820000Y-100138072D01*
X130944482Y-100125812D01*
X131064180Y-100089502D01*
X131174494Y-100030537D01*
X131271185Y-99951185D01*
X131350537Y-99854494D01*
X131409502Y-99744180D01*
X131445812Y-99624482D01*
X131458072Y-99500000D01*
X131455000Y-99185750D01*
X131296250Y-99027000D01*
X130547000Y-99027000D01*
X130293000Y-99027000D01*
X129543750Y-99027000D01*
X129385000Y-99185750D01*
X129381928Y-99500000D01*
X128918072Y-99500000D01*
X128918072Y-98300000D01*
X129381928Y-98300000D01*
X129385000Y-98614250D01*
X129543750Y-98773000D01*
X130293000Y-98773000D01*
X130293000Y-97823750D01*
X130547000Y-97823750D01*
X130547000Y-98773000D01*
X131296250Y-98773000D01*
X131455000Y-98614250D01*
X131455158Y-98598061D01*
X142165000Y-98598061D01*
X142165000Y-98801939D01*
X142204774Y-99001898D01*
X142282795Y-99190256D01*
X142396063Y-99359774D01*
X142540226Y-99503937D01*
X142709744Y-99617205D01*
X142898102Y-99695226D01*
X143098061Y-99735000D01*
X143301939Y-99735000D01*
X143501898Y-99695226D01*
X143690256Y-99617205D01*
X143859774Y-99503937D01*
X144003937Y-99359774D01*
X144117205Y-99190256D01*
X144195226Y-99001898D01*
X144235000Y-98801939D01*
X144235000Y-98598061D01*
X144195226Y-98398102D01*
X144117205Y-98209744D01*
X144003937Y-98040226D01*
X143859774Y-97896063D01*
X143690256Y-97782795D01*
X143501898Y-97704774D01*
X143301939Y-97665000D01*
X143098061Y-97665000D01*
X142898102Y-97704774D01*
X142709744Y-97782795D01*
X142540226Y-97896063D01*
X142396063Y-98040226D01*
X142282795Y-98209744D01*
X142204774Y-98398102D01*
X142165000Y-98598061D01*
X131455158Y-98598061D01*
X131458072Y-98300000D01*
X131445812Y-98175518D01*
X131409502Y-98055820D01*
X131350537Y-97945506D01*
X131271185Y-97848815D01*
X131174494Y-97769463D01*
X131064180Y-97710498D01*
X130944482Y-97674188D01*
X130820000Y-97661928D01*
X130705750Y-97665000D01*
X130547000Y-97823750D01*
X130293000Y-97823750D01*
X130134250Y-97665000D01*
X130020000Y-97661928D01*
X129895518Y-97674188D01*
X129775820Y-97710498D01*
X129665506Y-97769463D01*
X129568815Y-97848815D01*
X129489463Y-97945506D01*
X129430498Y-98055820D01*
X129394188Y-98175518D01*
X129381928Y-98300000D01*
X128918072Y-98300000D01*
X128905812Y-98175518D01*
X128869502Y-98055820D01*
X128810537Y-97945506D01*
X128731185Y-97848815D01*
X128634494Y-97769463D01*
X128524180Y-97710498D01*
X128404482Y-97674188D01*
X128280000Y-97661928D01*
X127480000Y-97661928D01*
X127355518Y-97674188D01*
X127235820Y-97710498D01*
X127125506Y-97769463D01*
X127028815Y-97848815D01*
X126949463Y-97945506D01*
X126890498Y-98055820D01*
X126864962Y-98140000D01*
X125710920Y-98140000D01*
X125631623Y-98043377D01*
X125498942Y-97934488D01*
X125347567Y-97853577D01*
X125183316Y-97803752D01*
X125012500Y-97786928D01*
X124437500Y-97786928D01*
X124266684Y-97803752D01*
X124102433Y-97853577D01*
X123951058Y-97934488D01*
X123850000Y-98017425D01*
X123748942Y-97934488D01*
X123597567Y-97853577D01*
X123433316Y-97803752D01*
X123262500Y-97786928D01*
X122687500Y-97786928D01*
X122516684Y-97803752D01*
X122352433Y-97853577D01*
X122201058Y-97934488D01*
X122068377Y-98043377D01*
X121959488Y-98176058D01*
X121878577Y-98327433D01*
X121848450Y-98426748D01*
X120660000Y-99615199D01*
X120660000Y-85800000D01*
X121786928Y-85800000D01*
X121799188Y-85924482D01*
X121835498Y-86044180D01*
X121894463Y-86154494D01*
X121973815Y-86251185D01*
X122070506Y-86330537D01*
X122180820Y-86389502D01*
X122300518Y-86425812D01*
X122425000Y-86438072D01*
X123014250Y-86435000D01*
X123173000Y-86276250D01*
X123173000Y-85327000D01*
X123427000Y-85327000D01*
X123427000Y-86276250D01*
X123585750Y-86435000D01*
X124175000Y-86438072D01*
X124299482Y-86425812D01*
X124419180Y-86389502D01*
X124529494Y-86330537D01*
X124626185Y-86251185D01*
X124705537Y-86154494D01*
X124764502Y-86044180D01*
X124800812Y-85924482D01*
X124813072Y-85800000D01*
X124810000Y-85485750D01*
X124651250Y-85327000D01*
X123427000Y-85327000D01*
X123173000Y-85327000D01*
X121948750Y-85327000D01*
X121790000Y-85485750D01*
X121786928Y-85800000D01*
X120660000Y-85800000D01*
X120660000Y-80038600D01*
X120781613Y-80138405D01*
X120935149Y-80220472D01*
X121101745Y-80271008D01*
X121274999Y-80288072D01*
X121565000Y-80288072D01*
X121565001Y-82544239D01*
X121559509Y-82600000D01*
X121581423Y-82822498D01*
X121646324Y-83036446D01*
X121646325Y-83036447D01*
X121751717Y-83233623D01*
X121792194Y-83282945D01*
X121807870Y-83442102D01*
X121878489Y-83674901D01*
X121993167Y-83889449D01*
X122119436Y-84043309D01*
X122070506Y-84069463D01*
X121973815Y-84148815D01*
X121894463Y-84245506D01*
X121835498Y-84355820D01*
X121799188Y-84475518D01*
X121786928Y-84600000D01*
X121790000Y-84914250D01*
X121948750Y-85073000D01*
X123173000Y-85073000D01*
X123173000Y-85053000D01*
X123427000Y-85053000D01*
X123427000Y-85073000D01*
X124651250Y-85073000D01*
X124810000Y-84914250D01*
X124813072Y-84600000D01*
X124800812Y-84475518D01*
X124764502Y-84355820D01*
X124705537Y-84245506D01*
X124626185Y-84148815D01*
X124529494Y-84069463D01*
X124480564Y-84043309D01*
X124606833Y-83889449D01*
X124721511Y-83674901D01*
X124792130Y-83442102D01*
X124815975Y-83200000D01*
X124792130Y-82957898D01*
X124721511Y-82725099D01*
X124606833Y-82510551D01*
X124452502Y-82322498D01*
X124264449Y-82168167D01*
X124049901Y-82053489D01*
X123835000Y-81988299D01*
X123835000Y-80288072D01*
X124125001Y-80288072D01*
X124298255Y-80271008D01*
X124464851Y-80220472D01*
X124618387Y-80138405D01*
X124752962Y-80027962D01*
X124757445Y-80022500D01*
X127906749Y-80022500D01*
X127962500Y-80027991D01*
X128018251Y-80022500D01*
X128018252Y-80022500D01*
X128184999Y-80006077D01*
X128398947Y-79941176D01*
X128532108Y-79870000D01*
X131661928Y-79870000D01*
X131661928Y-80670000D01*
X131674188Y-80794482D01*
X131710498Y-80914180D01*
X131769463Y-81024494D01*
X131848815Y-81121185D01*
X131945506Y-81200537D01*
X132055820Y-81259502D01*
X132175518Y-81295812D01*
X132300000Y-81308072D01*
X132332941Y-81308072D01*
X137088009Y-86063141D01*
X137123551Y-86106449D01*
X137296377Y-86248284D01*
X137493553Y-86353676D01*
X137657705Y-86403471D01*
X137707500Y-86418577D01*
X137713623Y-86419180D01*
X137874248Y-86435000D01*
X137874255Y-86435000D01*
X137929999Y-86440490D01*
X137985743Y-86435000D01*
X138708135Y-86435000D01*
X138722498Y-86452502D01*
X138910551Y-86606833D01*
X139125099Y-86721511D01*
X139357898Y-86792130D01*
X139600000Y-86815975D01*
X139842101Y-86792130D01*
X140074900Y-86721511D01*
X140289448Y-86606833D01*
X140443309Y-86480564D01*
X140469463Y-86529494D01*
X140548815Y-86626185D01*
X140645506Y-86705537D01*
X140755820Y-86764502D01*
X140875518Y-86800812D01*
X141000000Y-86813072D01*
X141314250Y-86810000D01*
X141473000Y-86651250D01*
X141473000Y-85427000D01*
X141727000Y-85427000D01*
X141727000Y-86651250D01*
X141885750Y-86810000D01*
X142200000Y-86813072D01*
X142324482Y-86800812D01*
X142444180Y-86764502D01*
X142554494Y-86705537D01*
X142651185Y-86626185D01*
X142730537Y-86529494D01*
X142789502Y-86419180D01*
X142825812Y-86299482D01*
X142838072Y-86175000D01*
X142835000Y-85585750D01*
X142676250Y-85427000D01*
X141727000Y-85427000D01*
X141473000Y-85427000D01*
X141453000Y-85427000D01*
X141453000Y-85173000D01*
X141473000Y-85173000D01*
X141473000Y-83948750D01*
X141727000Y-83948750D01*
X141727000Y-85173000D01*
X142676250Y-85173000D01*
X142835000Y-85014250D01*
X142838072Y-84425000D01*
X142825812Y-84300518D01*
X142789502Y-84180820D01*
X142730537Y-84070506D01*
X142651185Y-83973815D01*
X142554494Y-83894463D01*
X142444180Y-83835498D01*
X142324482Y-83799188D01*
X142200000Y-83786928D01*
X141885750Y-83790000D01*
X141727000Y-83948750D01*
X141473000Y-83948750D01*
X141314250Y-83790000D01*
X141000000Y-83786928D01*
X140875518Y-83799188D01*
X140755820Y-83835498D01*
X140645506Y-83894463D01*
X140548815Y-83973815D01*
X140469463Y-84070506D01*
X140443309Y-84119436D01*
X140289449Y-83993167D01*
X140074901Y-83878489D01*
X139842102Y-83807870D01*
X139600000Y-83784025D01*
X139357899Y-83807870D01*
X139125100Y-83878489D01*
X138910552Y-83993167D01*
X138722499Y-84147498D01*
X138708135Y-84165000D01*
X138400132Y-84165000D01*
X134138072Y-79902941D01*
X134138072Y-79870000D01*
X134125812Y-79745518D01*
X134089502Y-79625820D01*
X134030537Y-79515506D01*
X133951185Y-79418815D01*
X133854494Y-79339463D01*
X133744180Y-79280498D01*
X133624482Y-79244188D01*
X133500000Y-79231928D01*
X133365639Y-79231928D01*
X133336446Y-79216324D01*
X133122498Y-79151423D01*
X132900000Y-79129509D01*
X132677502Y-79151423D01*
X132463554Y-79216324D01*
X132434361Y-79231928D01*
X132300000Y-79231928D01*
X132175518Y-79244188D01*
X132055820Y-79280498D01*
X131945506Y-79339463D01*
X131848815Y-79418815D01*
X131769463Y-79515506D01*
X131710498Y-79625820D01*
X131674188Y-79745518D01*
X131661928Y-79870000D01*
X128532108Y-79870000D01*
X128596123Y-79835784D01*
X128768949Y-79693949D01*
X128804496Y-79650635D01*
X128991988Y-79463143D01*
X129098283Y-79333622D01*
X129202218Y-79139174D01*
X129271258Y-79285477D01*
X129404286Y-79465170D01*
X129569813Y-79615459D01*
X129761480Y-79730566D01*
X129971920Y-79806070D01*
X130193047Y-79839068D01*
X130416362Y-79828292D01*
X130633284Y-79774156D01*
X130835477Y-79678742D01*
X131015170Y-79545714D01*
X131165459Y-79380187D01*
X131280566Y-79188520D01*
X131356070Y-78978080D01*
X131372944Y-78865000D01*
X132955752Y-78865000D01*
X133122499Y-78848577D01*
X133336447Y-78783676D01*
X133365640Y-78768072D01*
X133500000Y-78768072D01*
X133624482Y-78755812D01*
X133744180Y-78719502D01*
X133854494Y-78660537D01*
X133951185Y-78581185D01*
X134030537Y-78484494D01*
X134089502Y-78374180D01*
X134125812Y-78254482D01*
X134138072Y-78130000D01*
X134138072Y-77330000D01*
X134125812Y-77205518D01*
X134089502Y-77085820D01*
X134030537Y-76975506D01*
X133951185Y-76878815D01*
X133854494Y-76799463D01*
X133744180Y-76740498D01*
X133624482Y-76704188D01*
X133500000Y-76691928D01*
X133365640Y-76691928D01*
X133336447Y-76676324D01*
X133122499Y-76611423D01*
X132955752Y-76595000D01*
X131537256Y-76595000D01*
X131492499Y-76581423D01*
X131396777Y-76571995D01*
X131382404Y-76155167D01*
X131360244Y-75989085D01*
X131288009Y-75777501D01*
X131175884Y-75584074D01*
X131028177Y-75416238D01*
X130850566Y-75280444D01*
X130649875Y-75181909D01*
X130433818Y-75124420D01*
X130210697Y-75110187D01*
X129989085Y-75139756D01*
X129777501Y-75211991D01*
X129584074Y-75324116D01*
X129416238Y-75471823D01*
X129280444Y-75649434D01*
X129275165Y-75660185D01*
X129235945Y-73346156D01*
X129240491Y-73300000D01*
X129236360Y-73258060D01*
X129256068Y-72450000D01*
X142611928Y-72450000D01*
X142615000Y-72564250D01*
X142773750Y-72723000D01*
X143573000Y-72723000D01*
X143573000Y-71973750D01*
X143414250Y-71815000D01*
X143250000Y-71811928D01*
X143125518Y-71824188D01*
X143005820Y-71860498D01*
X142895506Y-71919463D01*
X142798815Y-71998815D01*
X142719463Y-72095506D01*
X142660498Y-72205820D01*
X142624188Y-72325518D01*
X142611928Y-72450000D01*
X129256068Y-72450000D01*
X129273592Y-71731539D01*
X132927282Y-68077850D01*
X133168574Y-68029853D01*
X133429727Y-67921680D01*
X133664759Y-67764637D01*
X133864637Y-67564759D01*
X134021680Y-67329727D01*
X134129853Y-67068574D01*
X134185000Y-66791335D01*
X134185000Y-66508665D01*
X134129853Y-66231426D01*
X134021680Y-65970273D01*
X133864637Y-65735241D01*
X133664759Y-65535363D01*
X133429727Y-65378320D01*
X133168574Y-65270147D01*
X132891335Y-65215000D01*
X132608665Y-65215000D01*
X132331426Y-65270147D01*
X132070273Y-65378320D01*
X131835241Y-65535363D01*
X131635363Y-65735241D01*
X131478320Y-65970273D01*
X131370147Y-66231426D01*
X131322150Y-66472718D01*
X127396678Y-70398191D01*
X127363455Y-70424127D01*
X127317811Y-70477058D01*
X127308012Y-70486857D01*
X127281430Y-70519247D01*
X127217448Y-70593444D01*
X127210569Y-70605592D01*
X127201717Y-70616378D01*
X127155548Y-70702754D01*
X127107280Y-70787991D01*
X127102904Y-70801243D01*
X127096324Y-70813554D01*
X127067889Y-70907289D01*
X127037181Y-71000293D01*
X127035475Y-71014145D01*
X127031423Y-71027502D01*
X127021822Y-71124984D01*
X127016697Y-71166590D01*
X127016359Y-71180451D01*
X127009509Y-71250000D01*
X127013640Y-71291940D01*
X127001797Y-71777500D01*
X124757445Y-71777500D01*
X124752962Y-71772038D01*
X124618387Y-71661595D01*
X124464851Y-71579528D01*
X124298255Y-71528992D01*
X124125001Y-71511928D01*
X121274999Y-71511928D01*
X121101745Y-71528992D01*
X120935149Y-71579528D01*
X120781613Y-71661595D01*
X120660000Y-71761400D01*
X120660000Y-62642702D01*
X131936903Y-62642702D01*
X132008486Y-62886671D01*
X132263996Y-63007571D01*
X132538184Y-63076300D01*
X132820512Y-63090217D01*
X133100130Y-63048787D01*
X133366292Y-62953603D01*
X133491514Y-62886671D01*
X133563097Y-62642702D01*
X132750000Y-61829605D01*
X131936903Y-62642702D01*
X120660000Y-62642702D01*
X120660000Y-61720512D01*
X131309783Y-61720512D01*
X131351213Y-62000130D01*
X131446397Y-62266292D01*
X131513329Y-62391514D01*
X131757298Y-62463097D01*
X132570395Y-61650000D01*
X132929605Y-61650000D01*
X133742702Y-62463097D01*
X133986671Y-62391514D01*
X134107571Y-62136004D01*
X134176300Y-61861816D01*
X134190217Y-61579488D01*
X134148787Y-61299870D01*
X134053603Y-61033708D01*
X133986671Y-60908486D01*
X133742702Y-60836903D01*
X132929605Y-61650000D01*
X132570395Y-61650000D01*
X131757298Y-60836903D01*
X131513329Y-60908486D01*
X131392429Y-61163996D01*
X131323700Y-61438184D01*
X131309783Y-61720512D01*
X120660000Y-61720512D01*
X120660000Y-60657298D01*
X131936903Y-60657298D01*
X132750000Y-61470395D01*
X133563097Y-60657298D01*
X133491514Y-60413329D01*
X133236004Y-60292429D01*
X132961816Y-60223700D01*
X132679488Y-60209783D01*
X132399870Y-60251213D01*
X132133708Y-60346397D01*
X132008486Y-60413329D01*
X131936903Y-60657298D01*
X120660000Y-60657298D01*
X120660000Y-50660000D01*
X144340001Y-50660000D01*
X144340001Y-71844063D01*
M02*
